<?xml version="1.0" encoding="utf-8" standalone="no"?>
<!DOCTYPE svg PUBLIC "-//W3C//DTD SVG 1.1//EN"
  "http://www.w3.org/Graphics/SVG/1.1/DTD/svg11.dtd">
<svg xmlns:xlink="http://www.w3.org/1999/xlink" width="476.022656pt" height="302.848375pt" viewBox="0 0 476.022656 302.848375" xmlns="http://www.w3.org/2000/svg" version="1.1">
 <metadata>
  <rdf:RDF xmlns:dc="http://purl.org/dc/elements/1.1/" xmlns:cc="http://creativecommons.org/ns#" xmlns:rdf="http://www.w3.org/1999/02/22-rdf-syntax-ns#">
   <cc:Work>
    <dc:type rdf:resource="http://purl.org/dc/dcmitype/StillImage"/>
    <dc:date>2026-04-29T04:12:00.410712</dc:date>
    <dc:format>image/svg+xml</dc:format>
    <dc:creator>
     <cc:Agent>
      <dc:title>Matplotlib v3.10.8, https://matplotlib.org/</dc:title>
     </cc:Agent>
    </dc:creator>
   </cc:Work>
  </rdf:RDF>
 </metadata>
 <defs>
  <style type="text/css">*{stroke-linejoin: round; stroke-linecap: butt}</style>
 </defs>
 <g id="figure_1">
  <g id="patch_1">
   <path d="M 0 302.848375 
L 476.022656 302.848375 
L 476.022656 0 
L 0 0 
z
" style="fill: #ffffff"/>
  </g>
  <g id="axes_1">
   <g id="patch_2">
    <path d="M 44.742656 262.098375 
L 468.822656 262.098375 
L 468.822656 23.706375 
L 44.742656 23.706375 
z
" style="fill: #ffffff"/>
   </g>
   <g id="patch_3">
    <path d="M 64.01902 262.098375 
L 83.622102 262.098375 
L 83.622102 35.058375 
L 64.01902 35.058375 
z
" clip-path="url(#pb43a92dbd8)" style="fill: #1f77b4; opacity: 0.75"/>
   </g>
   <g id="patch_4">
    <path d="M 90.156462 262.098375 
L 109.759544 262.098375 
L 109.759544 222.891092 
L 90.156462 222.891092 
z
" clip-path="url(#pb43a92dbd8)" style="fill: #1f77b4; opacity: 0.75"/>
   </g>
   <g id="patch_5">
    <path d="M 116.293904 262.098375 
L 135.896986 262.098375 
L 135.896986 223.849966 
L 116.293904 223.849966 
z
" clip-path="url(#pb43a92dbd8)" style="fill: #1f77b4; opacity: 0.75"/>
   </g>
   <g id="patch_6">
    <path d="M 142.431347 262.098375 
L 162.034428 262.098375 
L 162.034428 235.249909 
L 142.431347 235.249909 
z
" clip-path="url(#pb43a92dbd8)" style="fill: #1f77b4; opacity: 0.75"/>
   </g>
   <g id="patch_7">
    <path d="M 168.568789 262.098375 
L 188.17187 262.098375 
L 188.17187 244.199398 
L 168.568789 244.199398 
z
" clip-path="url(#pb43a92dbd8)" style="fill: #1f77b4; opacity: 0.75"/>
   </g>
   <g id="patch_8">
    <path d="M 194.706231 262.098375 
L 214.309313 262.098375 
L 214.309313 251.657305 
L 194.706231 251.657305 
z
" clip-path="url(#pb43a92dbd8)" style="fill: #1f77b4; opacity: 0.75"/>
   </g>
   <g id="patch_9">
    <path d="M 220.843673 262.098375 
L 240.446755 262.098375 
L 240.446755 256.132049 
L 220.843673 256.132049 
z
" clip-path="url(#pb43a92dbd8)" style="fill: #1f77b4; opacity: 0.75"/>
   </g>
   <g id="patch_10">
    <path d="M 246.981115 262.098375 
L 266.584197 262.098375 
L 266.584197 258.156338 
L 246.981115 258.156338 
z
" clip-path="url(#pb43a92dbd8)" style="fill: #1f77b4; opacity: 0.75"/>
   </g>
   <g id="patch_11">
    <path d="M 273.118558 262.098375 
L 292.721639 262.098375 
L 292.721639 260.287169 
L 273.118558 260.287169 
z
" clip-path="url(#pb43a92dbd8)" style="fill: #1f77b4; opacity: 0.75"/>
   </g>
   <g id="patch_12">
    <path d="M 299.256 262.098375 
L 318.859082 262.098375 
L 318.859082 261.03296 
L 299.256 261.03296 
z
" clip-path="url(#pb43a92dbd8)" style="fill: #1f77b4; opacity: 0.75"/>
   </g>
   <g id="patch_13">
    <path d="M 325.393442 262.098375 
L 344.996524 262.098375 
L 344.996524 261.885292 
L 325.393442 261.885292 
z
" clip-path="url(#pb43a92dbd8)" style="fill: #1f77b4; opacity: 0.75"/>
   </g>
   <g id="patch_14">
    <path d="M 351.530884 262.098375 
L 371.133966 262.098375 
L 371.133966 261.991833 
L 351.530884 261.991833 
z
" clip-path="url(#pb43a92dbd8)" style="fill: #1f77b4; opacity: 0.75"/>
   </g>
   <g id="patch_15">
    <path d="M 429.943211 262.098375 
L 449.546293 262.098375 
L 449.546293 261.991833 
L 429.943211 261.991833 
z
" clip-path="url(#pb43a92dbd8)" style="fill: #1f77b4; opacity: 0.75"/>
   </g>
   <g id="matplotlib.axis_1">
    <g id="xtick_1">
     <g id="line2d_1">
      <path d="M 73.820561 262.098375 
L 73.820561 23.706375 
" clip-path="url(#pb43a92dbd8)" style="fill: none; stroke: #b0b0b0; stroke-opacity: 0.25; stroke-width: 0.8; stroke-linecap: square"/>
     </g>
     <g id="line2d_2">
      <defs>
       <path id="mfb91d4f3bc" d="M 0 0 
L 0 3.5 
" style="stroke: #000000; stroke-width: 0.8"/>
      </defs>
      <g>
       <use xlink:href="#mfb91d4f3bc" x="73.820561" y="262.098375" style="stroke: #000000; stroke-width: 0.8"/>
      </g>
     </g>
     <g id="text_1">
      <!-- 0 -->
      <g transform="translate(70.768061 277.853687) scale(0.11 -0.11)">
       <defs>
        <path id="NotoSansCJKjp-Regular-30" d="M 1779 -83 
C 2669 -83 3238 723 3238 2362 
C 3238 3987 2669 4774 1779 4774 
C 883 4774 320 3987 320 2362 
C 320 723 883 -83 1779 -83 
z
M 1779 390 
C 1248 390 883 986 883 2362 
C 883 3731 1248 4314 1779 4314 
C 2310 4314 2675 3731 2675 2362 
C 2675 986 2310 390 1779 390 
z
" transform="scale(0.015625)"/>
       </defs>
       <use xlink:href="#NotoSansCJKjp-Regular-30"/>
      </g>
     </g>
    </g>
    <g id="xtick_2">
     <g id="line2d_3">
      <path d="M 126.095445 262.098375 
L 126.095445 23.706375 
" clip-path="url(#pb43a92dbd8)" style="fill: none; stroke: #b0b0b0; stroke-opacity: 0.25; stroke-width: 0.8; stroke-linecap: square"/>
     </g>
     <g id="line2d_4">
      <g>
       <use xlink:href="#mfb91d4f3bc" x="126.095445" y="262.098375" style="stroke: #000000; stroke-width: 0.8"/>
      </g>
     </g>
     <g id="text_2">
      <!-- 2 -->
      <g transform="translate(123.042945 277.853687) scale(0.11 -0.11)">
       <defs>
        <path id="NotoSansCJKjp-Regular-32" d="M 282 0 
L 3232 0 
L 3232 506 
L 1933 506 
C 1696 506 1408 480 1165 461 
C 2266 1504 3008 2458 3008 3398 
C 3008 4230 2477 4774 1638 4774 
C 1043 4774 634 4506 256 4090 
L 595 3757 
C 858 4070 1184 4301 1568 4301 
C 2150 4301 2432 3910 2432 3373 
C 2432 2566 1754 1632 282 346 
L 282 0 
z
" transform="scale(0.015625)"/>
       </defs>
       <use xlink:href="#NotoSansCJKjp-Regular-32"/>
      </g>
     </g>
    </g>
    <g id="xtick_3">
     <g id="line2d_5">
      <path d="M 178.37033 262.098375 
L 178.37033 23.706375 
" clip-path="url(#pb43a92dbd8)" style="fill: none; stroke: #b0b0b0; stroke-opacity: 0.25; stroke-width: 0.8; stroke-linecap: square"/>
     </g>
     <g id="line2d_6">
      <g>
       <use xlink:href="#mfb91d4f3bc" x="178.37033" y="262.098375" style="stroke: #000000; stroke-width: 0.8"/>
      </g>
     </g>
     <g id="text_3">
      <!-- 4 -->
      <g transform="translate(175.31783 277.853687) scale(0.11 -0.11)">
       <defs>
        <path id="NotoSansCJKjp-Regular-34" d="M 2176 0 
L 2726 0 
L 2726 1293 
L 3354 1293 
L 3354 1760 
L 2726 1760 
L 2726 4691 
L 2080 4691 
L 128 1677 
L 128 1293 
L 2176 1293 
L 2176 0 
z
M 2176 1760 
L 736 1760 
L 1805 3360 
C 1939 3590 2067 3827 2182 4051 
L 2208 4051 
C 2195 3814 2176 3430 2176 3200 
L 2176 1760 
z
" transform="scale(0.015625)"/>
       </defs>
       <use xlink:href="#NotoSansCJKjp-Regular-34"/>
      </g>
     </g>
    </g>
    <g id="xtick_4">
     <g id="line2d_7">
      <path d="M 230.645214 262.098375 
L 230.645214 23.706375 
" clip-path="url(#pb43a92dbd8)" style="fill: none; stroke: #b0b0b0; stroke-opacity: 0.25; stroke-width: 0.8; stroke-linecap: square"/>
     </g>
     <g id="line2d_8">
      <g>
       <use xlink:href="#mfb91d4f3bc" x="230.645214" y="262.098375" style="stroke: #000000; stroke-width: 0.8"/>
      </g>
     </g>
     <g id="text_4">
      <!-- 6 -->
      <g transform="translate(227.592714 277.853687) scale(0.11 -0.11)">
       <defs>
        <path id="NotoSansCJKjp-Regular-36" d="M 1926 -83 
C 2656 -83 3277 531 3277 1440 
C 3277 2426 2765 2912 1971 2912 
C 1606 2912 1197 2701 909 2349 
C 934 3802 1466 4294 2118 4294 
C 2400 4294 2682 4154 2861 3936 
L 3194 4294 
C 2931 4576 2579 4774 2093 4774 
C 1184 4774 358 4077 358 2240 
C 358 691 1030 -83 1926 -83 
z
M 922 1882 
C 1229 2317 1587 2477 1875 2477 
C 2445 2477 2720 2074 2720 1440 
C 2720 800 2374 378 1926 378 
C 1338 378 986 909 922 1882 
z
" transform="scale(0.015625)"/>
       </defs>
       <use xlink:href="#NotoSansCJKjp-Regular-36"/>
      </g>
     </g>
    </g>
    <g id="xtick_5">
     <g id="line2d_9">
      <path d="M 282.920098 262.098375 
L 282.920098 23.706375 
" clip-path="url(#pb43a92dbd8)" style="fill: none; stroke: #b0b0b0; stroke-opacity: 0.25; stroke-width: 0.8; stroke-linecap: square"/>
     </g>
     <g id="line2d_10">
      <g>
       <use xlink:href="#mfb91d4f3bc" x="282.920098" y="262.098375" style="stroke: #000000; stroke-width: 0.8"/>
      </g>
     </g>
     <g id="text_5">
      <!-- 8 -->
      <g transform="translate(279.867598 277.853687) scale(0.11 -0.11)">
       <defs>
        <path id="NotoSansCJKjp-Regular-38" d="M 1792 -83 
C 2669 -83 3258 448 3258 1126 
C 3258 1773 2880 2125 2470 2362 
L 2470 2394 
C 2746 2611 3091 3034 3091 3526 
C 3091 4250 2605 4762 1805 4762 
C 1075 4762 518 4282 518 3571 
C 518 3078 813 2726 1152 2490 
L 1152 2464 
C 723 2234 294 1792 294 1165 
C 294 442 922 -83 1792 -83 
z
M 2112 2547 
C 1555 2765 1050 3014 1050 3571 
C 1050 4026 1363 4326 1798 4326 
C 2298 4326 2592 3962 2592 3494 
C 2592 3149 2426 2829 2112 2547 
z
M 1798 352 
C 1235 352 813 717 813 1216 
C 813 1664 1082 2035 1459 2278 
C 2125 2010 2701 1779 2701 1146 
C 2701 678 2342 352 1798 352 
z
" transform="scale(0.015625)"/>
       </defs>
       <use xlink:href="#NotoSansCJKjp-Regular-38"/>
      </g>
     </g>
    </g>
    <g id="xtick_6">
     <g id="line2d_11">
      <path d="M 335.194983 262.098375 
L 335.194983 23.706375 
" clip-path="url(#pb43a92dbd8)" style="fill: none; stroke: #b0b0b0; stroke-opacity: 0.25; stroke-width: 0.8; stroke-linecap: square"/>
     </g>
     <g id="line2d_12">
      <g>
       <use xlink:href="#mfb91d4f3bc" x="335.194983" y="262.098375" style="stroke: #000000; stroke-width: 0.8"/>
      </g>
     </g>
     <g id="text_6">
      <!-- 10 -->
      <g transform="translate(329.089983 277.853687) scale(0.11 -0.11)">
       <defs>
        <path id="NotoSansCJKjp-Regular-31" d="M 563 0 
L 3136 0 
L 3136 486 
L 2195 486 
L 2195 4691 
L 1747 4691 
C 1491 4544 1190 4435 774 4358 
L 774 3987 
L 1613 3987 
L 1613 486 
L 563 486 
L 563 0 
z
" transform="scale(0.015625)"/>
       </defs>
       <use xlink:href="#NotoSansCJKjp-Regular-31"/>
       <use xlink:href="#NotoSansCJKjp-Regular-30" transform="translate(55.499985 0)"/>
      </g>
     </g>
    </g>
    <g id="xtick_7">
     <g id="line2d_13">
      <path d="M 387.469867 262.098375 
L 387.469867 23.706375 
" clip-path="url(#pb43a92dbd8)" style="fill: none; stroke: #b0b0b0; stroke-opacity: 0.25; stroke-width: 0.8; stroke-linecap: square"/>
     </g>
     <g id="line2d_14">
      <g>
       <use xlink:href="#mfb91d4f3bc" x="387.469867" y="262.098375" style="stroke: #000000; stroke-width: 0.8"/>
      </g>
     </g>
     <g id="text_7">
      <!-- 12 -->
      <g transform="translate(381.364867 277.853687) scale(0.11 -0.11)">
       <use xlink:href="#NotoSansCJKjp-Regular-31"/>
       <use xlink:href="#NotoSansCJKjp-Regular-32" transform="translate(55.499985 0)"/>
      </g>
     </g>
    </g>
    <g id="xtick_8">
     <g id="line2d_15">
      <path d="M 439.744752 262.098375 
L 439.744752 23.706375 
" clip-path="url(#pb43a92dbd8)" style="fill: none; stroke: #b0b0b0; stroke-opacity: 0.25; stroke-width: 0.8; stroke-linecap: square"/>
     </g>
     <g id="line2d_16">
      <g>
       <use xlink:href="#mfb91d4f3bc" x="439.744752" y="262.098375" style="stroke: #000000; stroke-width: 0.8"/>
      </g>
     </g>
     <g id="text_8">
      <!-- 14 -->
      <g transform="translate(433.639752 277.853687) scale(0.11 -0.11)">
       <use xlink:href="#NotoSansCJKjp-Regular-31"/>
       <use xlink:href="#NotoSansCJKjp-Regular-34" transform="translate(55.499985 0)"/>
      </g>
     </g>
    </g>
    <g id="text_9">
     <!-- 贷款笔数 -->
     <g transform="translate(234.782656 293.128687) scale(0.11 -0.11)">
      <defs>
       <path id="NotoSansCJKjp-Regular-8d37" d="M 2912 1914 
L 2912 1478 
C 2912 1018 2771 346 493 -109 
C 608 -205 755 -384 806 -486 
C 3168 58 3418 864 3418 1466 
L 3418 1914 
L 2912 1914 
z
M 3341 410 
C 4090 166 5069 -243 5562 -531 
L 5811 -128 
C 5299 154 4314 544 3578 762 
L 3341 410 
z
M 1229 2624 
L 1229 582 
L 1709 582 
L 1709 2182 
L 4685 2182 
L 4685 608 
L 5178 608 
L 5178 2624 
L 1229 2624 
z
M 4352 5190 
C 4608 5011 4922 4749 5069 4570 
L 5421 4813 
C 5267 4986 4947 5235 4698 5395 
L 4352 5190 
z
M 3053 5357 
C 3085 4992 3174 4659 3302 4352 
L 2170 4269 
L 2208 3878 
L 3494 3974 
C 3936 3245 4634 2790 5363 2790 
C 5779 2790 5952 2950 6029 3590 
C 5901 3629 5754 3699 5658 3789 
C 5626 3366 5574 3238 5376 3238 
C 4890 3226 4384 3520 4019 4019 
L 6067 4173 
L 6029 4557 
L 3789 4390 
C 3648 4672 3546 4998 3514 5357 
L 3053 5357 
z
M 1926 5376 
C 1542 4742 896 4147 250 3776 
C 352 3699 518 3526 595 3437 
C 832 3597 1075 3782 1312 4000 
L 1312 2835 
L 1779 2835 
L 1779 4461 
C 1997 4704 2195 4960 2355 5229 
L 1926 5376 
z
" transform="scale(0.015625)"/>
       <path id="NotoSansCJKjp-Regular-6b3e" d="M 742 1402 
C 627 915 429 435 154 109 
C 256 64 442 -32 525 -96 
C 787 256 1024 787 1158 1318 
L 742 1402 
z
M 2406 1254 
C 2586 941 2784 518 2867 262 
L 3245 442 
C 3162 691 2957 1101 2771 1402 
L 2406 1254 
z
M 1581 5357 
L 1581 4768 
L 326 4768 
L 326 4358 
L 1581 4358 
L 1581 3808 
L 474 3808 
L 474 3405 
L 3155 3405 
L 3155 3808 
L 2035 3808 
L 2035 4358 
L 3283 4358 
L 3283 4768 
L 2035 4768 
L 2035 5357 
L 1581 5357 
z
M 250 2029 
L 250 1619 
L 1587 1619 
L 1587 -19 
C 1587 -83 1568 -102 1491 -102 
C 1421 -109 1197 -109 941 -102 
C 998 -224 1062 -397 1082 -518 
C 1446 -518 1683 -512 1837 -442 
C 1997 -371 2035 -250 2035 -26 
L 2035 1619 
L 3347 1619 
L 3347 2029 
L 250 2029 
z
M 3834 5382 
C 3706 4384 3475 3405 3078 2771 
L 3078 2925 
L 544 2925 
L 544 2522 
L 3078 2522 
L 3078 2726 
C 3194 2662 3398 2522 3475 2451 
C 3686 2810 3859 3264 4006 3776 
L 4352 3776 
L 4352 2899 
C 4358 2368 4166 730 2816 -134 
C 2906 -224 3046 -416 3098 -518 
C 4147 173 4518 1363 4582 1914 
C 4653 1382 4979 134 5888 -512 
C 5958 -403 6099 -211 6189 -102 
C 5011 723 4813 2387 4819 2899 
L 4819 3776 
L 5574 3776 
C 5517 3354 5440 2899 5363 2598 
L 5741 2483 
C 5875 2906 5997 3584 6080 4147 
L 5766 4237 
L 5690 4218 
L 4115 4218 
C 4198 4570 4262 4934 4314 5312 
L 3834 5382 
z
" transform="scale(0.015625)"/>
       <path id="NotoSansCJKjp-Regular-7b14" d="M 371 1018 
L 416 595 
L 2726 794 
L 2726 282 
C 2726 -301 2925 -454 3648 -454 
C 3808 -454 4947 -454 5114 -454 
C 5722 -454 5869 -243 5939 499 
C 5798 531 5606 602 5498 678 
C 5453 90 5402 -26 5088 -26 
C 4838 -26 3866 -26 3674 -26 
C 3277 -26 3206 32 3206 282 
L 3206 838 
L 6042 1082 
L 5997 1498 
L 3206 1261 
L 3206 1933 
L 5459 2125 
L 5414 2522 
L 3206 2336 
L 3206 2918 
C 4032 3008 4819 3130 5434 3277 
L 5165 3667 
C 4134 3411 2349 3219 813 3123 
C 858 3014 915 2842 928 2726 
C 1504 2758 2125 2810 2726 2867 
L 2726 2291 
L 685 2118 
L 730 1715 
L 2726 1888 
L 2726 1216 
L 371 1018 
z
M 1178 5408 
C 979 4762 634 4128 230 3706 
C 346 3642 544 3514 640 3443 
C 851 3693 1056 4006 1242 4358 
L 1568 4358 
C 1734 4058 1901 3693 1971 3462 
L 2394 3622 
C 2330 3821 2195 4102 2054 4358 
L 3046 4358 
L 3046 4768 
L 1434 4768 
C 1510 4941 1581 5114 1645 5293 
L 1178 5408 
z
M 3699 5408 
C 3514 4774 3168 4179 2746 3789 
C 2861 3725 3066 3590 3155 3514 
C 3373 3738 3584 4032 3770 4358 
L 4230 4358 
C 4371 4115 4518 3834 4576 3635 
L 4998 3789 
C 4947 3949 4838 4160 4717 4358 
L 5984 4358 
L 5984 4768 
L 3968 4768 
C 4045 4941 4109 5114 4166 5293 
L 3699 5408 
z
" transform="scale(0.015625)"/>
       <path id="NotoSansCJKjp-Regular-6570" d="M 2803 5254 
C 2688 4998 2483 4627 2317 4403 
L 2643 4243 
C 2816 4454 3027 4781 3219 5075 
L 2803 5254 
z
M 531 5075 
C 704 4806 870 4454 928 4230 
L 1312 4397 
C 1248 4627 1075 4973 890 5222 
L 531 5075 
z
M 4026 5382 
C 3846 4243 3507 3162 2970 2490 
C 3078 2413 3283 2246 3360 2163 
C 3533 2394 3693 2669 3827 2970 
C 3974 2310 4160 1709 4410 1184 
C 4090 698 3667 314 3110 19 
C 2912 166 2656 326 2374 480 
C 2598 774 2746 1126 2829 1562 
L 3398 1562 
L 3398 1958 
L 1677 1958 
L 1894 2413 
L 1779 2438 
L 2061 2438 
L 2061 3398 
C 2374 3168 2771 2854 2938 2701 
L 3206 3046 
C 3034 3174 2336 3616 2061 3776 
L 2061 3802 
L 3373 3802 
L 3373 4198 
L 2061 4198 
L 2061 5382 
L 1613 5382 
L 1613 4198 
L 288 4198 
L 288 3802 
L 1485 3802 
C 1171 3379 678 2982 218 2784 
C 314 2694 422 2528 480 2419 
C 870 2637 1293 2989 1613 3373 
L 1613 2477 
L 1440 2515 
L 1178 1958 
L 250 1958 
L 250 1562 
L 979 1562 
C 806 1222 627 896 486 653 
L 909 506 
L 1005 678 
C 1222 589 1434 493 1638 384 
C 1306 147 858 -13 269 -109 
C 352 -211 448 -384 480 -512 
C 1171 -365 1683 -154 2061 160 
C 2355 -13 2611 -186 2810 -352 
L 2963 -192 
C 3046 -301 3136 -448 3174 -531 
C 3802 -205 4288 205 4666 710 
C 4979 192 5370 -224 5862 -512 
C 5939 -378 6093 -192 6208 -96 
C 5690 173 5280 614 4960 1165 
C 5350 1856 5594 2707 5754 3750 
L 6144 3750 
L 6144 4198 
L 4262 4198 
C 4358 4557 4442 4928 4506 5312 
L 4026 5382 
z
M 1478 1562 
L 2368 1562 
C 2285 1216 2157 928 1965 698 
C 1715 819 1459 934 1197 1030 
L 1478 1562 
z
M 4134 3750 
L 5254 3750 
C 5139 2950 4966 2266 4698 1696 
C 4435 2298 4250 3002 4134 3750 
z
" transform="scale(0.015625)"/>
      </defs>
      <use xlink:href="#NotoSansCJKjp-Regular-8d37"/>
      <use xlink:href="#NotoSansCJKjp-Regular-6b3e" transform="translate(99.999985 0)"/>
      <use xlink:href="#NotoSansCJKjp-Regular-7b14" transform="translate(199.999969 0)"/>
      <use xlink:href="#NotoSansCJKjp-Regular-6570" transform="translate(299.999954 0)"/>
     </g>
    </g>
   </g>
   <g id="matplotlib.axis_2">
    <g id="ytick_1">
     <g id="line2d_17">
      <path d="M 44.742656 262.098375 
L 468.822656 262.098375 
" clip-path="url(#pb43a92dbd8)" style="fill: none; stroke: #b0b0b0; stroke-opacity: 0.25; stroke-width: 0.8; stroke-linecap: square"/>
     </g>
     <g id="line2d_18">
      <defs>
       <path id="m00ca9ac3e7" d="M 0 0 
L -3.5 0 
" style="stroke: #000000; stroke-width: 0.8"/>
      </defs>
      <g>
       <use xlink:href="#m00ca9ac3e7" x="44.742656" y="262.098375" style="stroke: #000000; stroke-width: 0.8"/>
      </g>
     </g>
     <g id="text_10">
      <!-- 0.0 -->
      <g transform="translate(22.475 266.476031) scale(0.11 -0.11)">
       <defs>
        <path id="NotoSansCJKjp-Regular-2e" d="M 890 -83 
C 1120 -83 1312 96 1312 358 
C 1312 627 1120 806 890 806 
C 653 806 467 627 467 358 
C 467 96 653 -83 890 -83 
z
" transform="scale(0.015625)"/>
       </defs>
       <use xlink:href="#NotoSansCJKjp-Regular-30"/>
       <use xlink:href="#NotoSansCJKjp-Regular-2e" transform="translate(55.499985 0)"/>
       <use xlink:href="#NotoSansCJKjp-Regular-30" transform="translate(83.299973 0)"/>
      </g>
     </g>
    </g>
    <g id="ytick_2">
     <g id="line2d_19">
      <path d="M 44.742656 224.80884 
L 468.822656 224.80884 
" clip-path="url(#pb43a92dbd8)" style="fill: none; stroke: #b0b0b0; stroke-opacity: 0.25; stroke-width: 0.8; stroke-linecap: square"/>
     </g>
     <g id="line2d_20">
      <g>
       <use xlink:href="#m00ca9ac3e7" x="44.742656" y="224.80884" style="stroke: #000000; stroke-width: 0.8"/>
      </g>
     </g>
     <g id="text_11">
      <!-- 0.1 -->
      <g transform="translate(22.475 229.186496) scale(0.11 -0.11)">
       <use xlink:href="#NotoSansCJKjp-Regular-30"/>
       <use xlink:href="#NotoSansCJKjp-Regular-2e" transform="translate(55.499985 0)"/>
       <use xlink:href="#NotoSansCJKjp-Regular-31" transform="translate(83.299973 0)"/>
      </g>
     </g>
    </g>
    <g id="ytick_3">
     <g id="line2d_21">
      <path d="M 44.742656 187.519304 
L 468.822656 187.519304 
" clip-path="url(#pb43a92dbd8)" style="fill: none; stroke: #b0b0b0; stroke-opacity: 0.25; stroke-width: 0.8; stroke-linecap: square"/>
     </g>
     <g id="line2d_22">
      <g>
       <use xlink:href="#m00ca9ac3e7" x="44.742656" y="187.519304" style="stroke: #000000; stroke-width: 0.8"/>
      </g>
     </g>
     <g id="text_12">
      <!-- 0.2 -->
      <g transform="translate(22.475 191.89696) scale(0.11 -0.11)">
       <use xlink:href="#NotoSansCJKjp-Regular-30"/>
       <use xlink:href="#NotoSansCJKjp-Regular-2e" transform="translate(55.499985 0)"/>
       <use xlink:href="#NotoSansCJKjp-Regular-32" transform="translate(83.299973 0)"/>
      </g>
     </g>
    </g>
    <g id="ytick_4">
     <g id="line2d_23">
      <path d="M 44.742656 150.229769 
L 468.822656 150.229769 
" clip-path="url(#pb43a92dbd8)" style="fill: none; stroke: #b0b0b0; stroke-opacity: 0.25; stroke-width: 0.8; stroke-linecap: square"/>
     </g>
     <g id="line2d_24">
      <g>
       <use xlink:href="#m00ca9ac3e7" x="44.742656" y="150.229769" style="stroke: #000000; stroke-width: 0.8"/>
      </g>
     </g>
     <g id="text_13">
      <!-- 0.3 -->
      <g transform="translate(22.475 154.607425) scale(0.11 -0.11)">
       <defs>
        <path id="NotoSansCJKjp-Regular-33" d="M 1683 -83 
C 2522 -83 3194 416 3194 1254 
C 3194 1901 2752 2310 2202 2445 
L 2202 2477 
C 2701 2650 3034 3034 3034 3603 
C 3034 4346 2458 4774 1664 4774 
C 1126 4774 710 4538 358 4218 
L 672 3846 
C 941 4115 1267 4301 1645 4301 
C 2138 4301 2438 4006 2438 3558 
C 2438 3053 2112 2662 1139 2662 
L 1139 2214 
C 2227 2214 2598 1843 2598 1274 
C 2598 736 2208 403 1645 403 
C 1114 403 762 659 486 941 
L 186 563 
C 493 224 954 -83 1683 -83 
z
" transform="scale(0.015625)"/>
       </defs>
       <use xlink:href="#NotoSansCJKjp-Regular-30"/>
       <use xlink:href="#NotoSansCJKjp-Regular-2e" transform="translate(55.499985 0)"/>
       <use xlink:href="#NotoSansCJKjp-Regular-33" transform="translate(83.299973 0)"/>
      </g>
     </g>
    </g>
    <g id="ytick_5">
     <g id="line2d_25">
      <path d="M 44.742656 112.940233 
L 468.822656 112.940233 
" clip-path="url(#pb43a92dbd8)" style="fill: none; stroke: #b0b0b0; stroke-opacity: 0.25; stroke-width: 0.8; stroke-linecap: square"/>
     </g>
     <g id="line2d_26">
      <g>
       <use xlink:href="#m00ca9ac3e7" x="44.742656" y="112.940233" style="stroke: #000000; stroke-width: 0.8"/>
      </g>
     </g>
     <g id="text_14">
      <!-- 0.4 -->
      <g transform="translate(22.475 117.31789) scale(0.11 -0.11)">
       <use xlink:href="#NotoSansCJKjp-Regular-30"/>
       <use xlink:href="#NotoSansCJKjp-Regular-2e" transform="translate(55.499985 0)"/>
       <use xlink:href="#NotoSansCJKjp-Regular-34" transform="translate(83.299973 0)"/>
      </g>
     </g>
    </g>
    <g id="ytick_6">
     <g id="line2d_27">
      <path d="M 44.742656 75.650698 
L 468.822656 75.650698 
" clip-path="url(#pb43a92dbd8)" style="fill: none; stroke: #b0b0b0; stroke-opacity: 0.25; stroke-width: 0.8; stroke-linecap: square"/>
     </g>
     <g id="line2d_28">
      <g>
       <use xlink:href="#m00ca9ac3e7" x="44.742656" y="75.650698" style="stroke: #000000; stroke-width: 0.8"/>
      </g>
     </g>
     <g id="text_15">
      <!-- 0.5 -->
      <g transform="translate(22.475 80.028354) scale(0.11 -0.11)">
       <defs>
        <path id="NotoSansCJKjp-Regular-35" d="M 1677 -83 
C 2464 -83 3213 499 3213 1523 
C 3213 2560 2573 3021 1798 3021 
C 1517 3021 1306 2950 1094 2835 
L 1216 4192 
L 2982 4192 
L 2982 4691 
L 704 4691 
L 550 2502 
L 864 2304 
C 1133 2483 1331 2579 1645 2579 
C 2234 2579 2618 2182 2618 1510 
C 2618 826 2176 403 1619 403 
C 1075 403 730 653 467 922 
L 173 538 
C 493 224 941 -83 1677 -83 
z
" transform="scale(0.015625)"/>
       </defs>
       <use xlink:href="#NotoSansCJKjp-Regular-30"/>
       <use xlink:href="#NotoSansCJKjp-Regular-2e" transform="translate(55.499985 0)"/>
       <use xlink:href="#NotoSansCJKjp-Regular-35" transform="translate(83.299973 0)"/>
      </g>
     </g>
    </g>
    <g id="ytick_7">
     <g id="line2d_29">
      <path d="M 44.742656 38.361162 
L 468.822656 38.361162 
" clip-path="url(#pb43a92dbd8)" style="fill: none; stroke: #b0b0b0; stroke-opacity: 0.25; stroke-width: 0.8; stroke-linecap: square"/>
     </g>
     <g id="line2d_30">
      <g>
       <use xlink:href="#m00ca9ac3e7" x="44.742656" y="38.361162" style="stroke: #000000; stroke-width: 0.8"/>
      </g>
     </g>
     <g id="text_16">
      <!-- 0.6 -->
      <g transform="translate(22.475 42.738819) scale(0.11 -0.11)">
       <use xlink:href="#NotoSansCJKjp-Regular-30"/>
       <use xlink:href="#NotoSansCJKjp-Regular-2e" transform="translate(55.499985 0)"/>
       <use xlink:href="#NotoSansCJKjp-Regular-36" transform="translate(83.299973 0)"/>
      </g>
     </g>
    </g>
    <g id="text_17">
     <!-- 样本占比 -->
     <g transform="translate(15.955312 164.902375) rotate(-90) scale(0.11 -0.11)">
      <defs>
       <path id="NotoSansCJKjp-Regular-6837" d="M 2822 5190 
C 3040 4864 3270 4429 3360 4154 
L 3808 4339 
C 3712 4614 3469 5030 3245 5350 
L 2822 5190 
z
M 5261 5395 
C 5120 5018 4877 4506 4659 4147 
L 2554 4147 
L 2554 3706 
L 3994 3706 
L 3994 2822 
L 2752 2822 
L 2752 2381 
L 3994 2381 
L 3994 1478 
L 2310 1478 
L 2310 1024 
L 3994 1024 
L 3994 -506 
L 4474 -506 
L 4474 1024 
L 6061 1024 
L 6061 1478 
L 4474 1478 
L 4474 2381 
L 5728 2381 
L 5728 2822 
L 4474 2822 
L 4474 3706 
L 5939 3706 
L 5939 4147 
L 5165 4147 
C 5357 4467 5568 4870 5747 5229 
L 5261 5395 
z
M 1171 5376 
L 1171 4141 
L 352 4141 
L 352 3693 
L 1171 3693 
C 986 2822 595 1798 198 1261 
C 282 1146 403 934 454 794 
C 717 1184 973 1798 1171 2445 
L 1171 -506 
L 1632 -506 
L 1632 2816 
C 1805 2496 2003 2125 2086 1914 
L 2387 2272 
C 2278 2451 1805 3187 1632 3418 
L 1632 3693 
L 2310 3693 
L 2310 4141 
L 1632 4141 
L 1632 5376 
L 1171 5376 
z
" transform="scale(0.015625)"/>
       <path id="NotoSansCJKjp-Regular-672c" d="M 2944 5370 
L 2944 4026 
L 416 4026 
L 416 3539 
L 2643 3539 
C 2099 2438 1171 1402 198 896 
C 307 800 461 621 544 499 
C 1478 1050 2355 2016 2944 3130 
L 2944 1171 
L 1690 1171 
L 1690 685 
L 2944 685 
L 2944 -512 
L 3450 -512 
L 3450 685 
L 4672 685 
L 4672 1171 
L 3450 1171 
L 3450 3123 
C 4026 2016 4896 1043 5856 512 
C 5939 646 6106 838 6221 934 
C 5210 1427 4288 2438 3744 3539 
L 5997 3539 
L 5997 4026 
L 3450 4026 
L 3450 5370 
L 2944 5370 
z
" transform="scale(0.015625)"/>
       <path id="NotoSansCJKjp-Regular-5360" d="M 992 2445 
L 992 -506 
L 1459 -506 
L 1459 -102 
L 4915 -102 
L 4915 -474 
L 5402 -474 
L 5402 2445 
L 3341 2445 
L 3341 3725 
L 5926 3725 
L 5926 4173 
L 3341 4173 
L 3341 5376 
L 2854 5376 
L 2854 2445 
L 992 2445 
z
M 1459 352 
L 1459 1990 
L 4915 1990 
L 4915 352 
L 1459 352 
z
" transform="scale(0.015625)"/>
       <path id="NotoSansCJKjp-Regular-6bd4" d="M 250 128 
L 397 -371 
C 1197 -179 2278 77 3290 326 
L 3245 787 
C 2694 659 2125 525 1600 410 
L 1600 2925 
L 3046 2925 
L 3046 3398 
L 1600 3398 
L 1600 5344 
L 1107 5344 
L 1107 301 
L 250 128 
z
M 3520 5344 
L 3520 512 
C 3520 -186 3693 -371 4320 -371 
C 4448 -371 5261 -371 5395 -371 
C 6003 -371 6138 -13 6202 1037 
C 6061 1069 5869 1152 5747 1248 
C 5709 320 5670 83 5370 83 
C 5190 83 4506 83 4371 83 
C 4064 83 4013 147 4013 499 
L 4013 2586 
C 4691 2874 5414 3219 5952 3571 
L 5594 3974 
C 5216 3674 4608 3328 4013 3046 
L 4013 5344 
L 3520 5344 
z
" transform="scale(0.015625)"/>
      </defs>
      <use xlink:href="#NotoSansCJKjp-Regular-6837"/>
      <use xlink:href="#NotoSansCJKjp-Regular-672c" transform="translate(99.999985 0)"/>
      <use xlink:href="#NotoSansCJKjp-Regular-5360" transform="translate(199.999969 0)"/>
      <use xlink:href="#NotoSansCJKjp-Regular-6bd4" transform="translate(299.999954 0)"/>
     </g>
    </g>
   </g>
   <g id="line2d_31">
    <path d="M 86.889282 262.098375 
L 86.889282 23.706375 
" clip-path="url(#pb43a92dbd8)" style="fill: none; stroke-dasharray: 4.44,1.92; stroke-dashoffset: 0; stroke: #595959; stroke-width: 1.2"/>
   </g>
   <g id="patch_16">
    <path d="M 44.742656 262.098375 
L 44.742656 23.706375 
" style="fill: none; stroke: #000000; stroke-width: 0.8; stroke-linejoin: miter; stroke-linecap: square"/>
   </g>
   <g id="patch_17">
    <path d="M 44.742656 262.098375 
L 468.822656 262.098375 
" style="fill: none; stroke: #000000; stroke-width: 0.8; stroke-linejoin: miter; stroke-linecap: square"/>
   </g>
   <g id="text_18">
    <!-- 跨过 0 的门槛后 -->
    <g transform="translate(90.025775 58.358712) scale(0.11 -0.11)">
     <defs>
      <path id="NotoSansCJKjp-Regular-8de8" d="M 966 4691 
L 2080 4691 
L 2080 3539 
L 966 3539 
L 966 4691 
z
M 4595 4237 
C 4742 3904 4941 3584 5165 3302 
L 3603 3302 
C 3846 3597 4038 3910 4186 4237 
L 4595 4237 
z
M 4051 5382 
C 4013 5152 3949 4909 3866 4672 
L 2682 4672 
L 2682 4237 
L 3674 4237 
C 3411 3725 3008 3245 2426 2893 
C 2528 2822 2675 2650 2733 2541 
C 3053 2746 3322 2982 3546 3238 
L 3546 2899 
L 5216 2899 
L 5216 3238 
C 5427 2982 5664 2765 5907 2611 
C 5984 2726 6125 2893 6234 2982 
C 5779 3232 5350 3712 5075 4237 
L 6138 4237 
L 6138 4672 
L 4352 4672 
C 4422 4890 4480 5114 4518 5331 
L 4051 5382 
z
M 2822 2355 
L 2822 1958 
L 3494 1958 
C 3392 1574 3258 1146 3136 845 
L 3578 762 
L 3680 1062 
L 5184 1062 
C 5088 371 4992 58 4870 -51 
C 4813 -102 4749 -109 4634 -109 
C 4506 -109 4192 -102 3866 -70 
C 3942 -192 3994 -365 4006 -499 
C 4326 -512 4634 -512 4800 -506 
C 4998 -499 5126 -461 5242 -346 
C 5434 -173 5555 256 5677 1261 
C 5690 1331 5696 1466 5696 1466 
L 3808 1466 
L 3955 1958 
L 5971 1958 
L 5971 2355 
L 2822 2355 
z
M 237 256 
L 339 -192 
C 1018 -19 1939 218 2816 448 
L 2765 858 
L 1798 627 
L 1798 1830 
L 2656 1830 
L 2656 2246 
L 1798 2246 
L 1798 3130 
L 2509 3130 
L 2509 5101 
L 550 5101 
L 550 3130 
L 1382 3130 
L 1382 525 
L 947 422 
L 947 2534 
L 550 2534 
L 550 326 
L 237 256 
z
" transform="scale(0.015625)"/>
      <path id="NotoSansCJKjp-Regular-8fc7" d="M 506 4954 
C 864 4621 1274 4154 1453 3853 
L 1856 4134 
C 1658 4435 1235 4883 877 5203 
L 506 4954 
z
M 2438 3053 
C 2765 2656 3155 2093 3334 1760 
L 3738 2003 
C 3552 2336 3149 2874 2822 3264 
L 2438 3053 
z
M 1677 2976 
L 320 2976 
L 320 2528 
L 1203 2528 
L 1203 851 
C 915 749 582 461 237 90 
L 570 -365 
C 896 77 1210 454 1421 454 
C 1568 454 1773 237 2042 70 
C 2490 -211 3027 -275 3821 -275 
C 4435 -275 5568 -243 6022 -218 
C 6029 -70 6112 173 6170 301 
C 5549 237 4582 179 3834 179 
C 3117 179 2573 230 2150 486 
C 1933 614 1798 742 1677 819 
L 1677 2976 
z
M 4608 5357 
L 4608 4224 
L 2125 4224 
L 2125 3770 
L 4608 3770 
L 4608 1229 
C 4608 1114 4563 1082 4435 1075 
C 4307 1069 3859 1069 3392 1088 
C 3462 947 3539 736 3565 595 
C 4166 595 4557 602 4781 685 
C 5011 762 5094 902 5094 1229 
L 5094 3770 
L 5984 3770 
L 5984 4224 
L 5094 4224 
L 5094 5357 
L 4608 5357 
z
" transform="scale(0.015625)"/>
      <path id="NotoSansCJKjp-Regular-20" transform="scale(0.015625)"/>
      <path id="NotoSansCJKjp-Regular-7684" d="M 3533 2707 
C 3885 2240 4320 1600 4512 1210 
L 4922 1466 
C 4710 1843 4269 2464 3904 2918 
L 3533 2707 
z
M 1536 5389 
C 1485 5082 1376 4659 1274 4346 
L 557 4346 
L 557 -346 
L 998 -346 
L 998 160 
L 2784 160 
L 2784 4346 
L 1715 4346 
C 1824 4621 1946 4979 2054 5299 
L 1536 5389 
z
M 998 3917 
L 2342 3917 
L 2342 2566 
L 998 2566 
L 998 3917 
z
M 998 595 
L 998 2144 
L 2342 2144 
L 2342 595 
L 998 595 
z
M 3827 5402 
C 3622 4518 3277 3635 2835 3066 
C 2950 3002 3149 2867 3238 2790 
C 3456 3098 3661 3488 3840 3923 
L 5478 3923 
C 5402 1357 5299 371 5094 154 
C 5018 64 4947 45 4819 45 
C 4672 45 4288 51 3866 83 
C 3955 -38 4013 -243 4026 -378 
C 4384 -397 4762 -410 4979 -390 
C 5210 -365 5350 -314 5498 -122 
C 5754 192 5843 1184 5939 4122 
C 5946 4186 5946 4365 5946 4365 
L 4013 4365 
C 4115 4666 4211 4986 4288 5299 
L 3827 5402 
z
" transform="scale(0.015625)"/>
      <path id="NotoSansCJKjp-Regular-95e8" d="M 2938 5382 
L 2938 4493 
L 646 4493 
L 646 -506 
L 1120 -506 
L 1120 4038 
L 2938 4038 
L 2938 2726 
L 3411 2726 
L 3411 4038 
L 5280 4038 
L 5280 115 
C 5280 6 5242 -26 5126 -32 
C 5011 -32 4614 -38 4218 -19 
C 4294 -154 4371 -378 4397 -512 
C 4922 -512 5274 -506 5478 -422 
C 5683 -346 5760 -198 5760 109 
L 5760 4493 
L 3411 4493 
L 3411 5382 
L 2938 5382 
z
" transform="scale(0.015625)"/>
      <path id="NotoSansCJKjp-Regular-69db" d="M 4576 3347 
C 4928 3085 5338 2694 5542 2445 
L 5856 2726 
C 5651 2963 5242 3328 4870 3590 
L 4576 3347 
z
M 3245 5325 
L 3245 2349 
L 3661 2349 
L 3661 5325 
L 3245 5325 
z
M 2381 5018 
L 2381 2630 
L 2778 2630 
L 2778 5018 
L 2381 5018 
z
M 4576 5312 
C 4397 4506 4102 3693 3731 3149 
C 3834 3066 4013 2886 4083 2810 
C 4294 3136 4493 3565 4666 4032 
L 6118 4032 
L 6118 4442 
L 4806 4442 
C 4890 4698 4960 4954 5024 5210 
L 4576 5312 
z
M 1971 83 
L 1971 -352 
L 6125 -352 
L 6125 83 
L 5779 83 
L 5779 2003 
L 2381 2003 
L 2381 83 
L 1971 83 
z
M 2797 83 
L 2797 1626 
L 3386 1626 
L 3386 83 
L 2797 83 
z
M 3770 83 
L 3770 1626 
L 4365 1626 
L 4365 83 
L 3770 83 
z
M 4742 83 
L 4742 1626 
L 5350 1626 
L 5350 83 
L 4742 83 
z
M 1082 5376 
L 1082 4141 
L 365 4141 
L 365 3693 
L 1075 3693 
C 915 2848 582 1850 243 1338 
C 320 1229 429 1024 474 902 
C 698 1267 909 1856 1082 2470 
L 1082 -506 
L 1530 -506 
L 1530 2765 
C 1683 2458 1850 2093 1926 1894 
L 2208 2266 
C 2112 2451 1690 3149 1530 3386 
L 1530 3693 
L 2099 3693 
L 2099 4141 
L 1530 4141 
L 1530 5376 
L 1082 5376 
z
" transform="scale(0.015625)"/>
      <path id="NotoSansCJKjp-Regular-540e" d="M 5222 5325 
C 4352 5088 2829 4902 1446 4787 
L 954 4883 
L 954 3085 
C 954 2099 883 774 205 -198 
C 326 -256 512 -416 582 -518 
C 1338 538 1434 2048 1434 3078 
L 1434 3142 
L 6163 3142 
L 6163 3603 
L 1434 3603 
L 1434 4358 
C 2886 4461 4518 4653 5626 4947 
L 5222 5325 
z
M 1997 2227 
L 1997 -518 
L 2458 -518 
L 2458 -186 
L 5114 -186 
L 5114 -506 
L 5600 -506 
L 5600 2227 
L 1997 2227 
z
M 2458 262 
L 2458 1779 
L 5114 1779 
L 5114 262 
L 2458 262 
z
" transform="scale(0.015625)"/>
     </defs>
     <use xlink:href="#NotoSansCJKjp-Regular-8de8"/>
     <use xlink:href="#NotoSansCJKjp-Regular-8fc7" transform="translate(99.999985 0)"/>
     <use xlink:href="#NotoSansCJKjp-Regular-20" transform="translate(199.999969 0)"/>
     <use xlink:href="#NotoSansCJKjp-Regular-30" transform="translate(222.399963 0)"/>
     <use xlink:href="#NotoSansCJKjp-Regular-20" transform="translate(277.899948 0)"/>
     <use xlink:href="#NotoSansCJKjp-Regular-7684" transform="translate(300.299942 0)"/>
     <use xlink:href="#NotoSansCJKjp-Regular-95e8" transform="translate(400.299927 0)"/>
     <use xlink:href="#NotoSansCJKjp-Regular-69db" transform="translate(500.299911 0)"/>
     <use xlink:href="#NotoSansCJKjp-Regular-540e" transform="translate(600.299896 0)"/>
    </g>
    <!-- 正计数来自零截断分布 -->
    <g transform="translate(90.025775 71.384775) scale(0.11 -0.11)">
     <defs>
      <path id="NotoSansCJKjp-Regular-6b63" d="M 1203 3264 
L 1203 243 
L 333 243 
L 333 -224 
L 6080 -224 
L 6080 243 
L 3616 243 
L 3616 2259 
L 5619 2259 
L 5619 2726 
L 3616 2726 
L 3616 4435 
L 5869 4435 
L 5869 4909 
L 576 4909 
L 576 4435 
L 3110 4435 
L 3110 243 
L 1696 243 
L 1696 3264 
L 1203 3264 
z
" transform="scale(0.015625)"/>
      <path id="NotoSansCJKjp-Regular-8ba1" d="M 877 4960 
C 1235 4659 1683 4224 1888 3949 
L 2214 4307 
C 1997 4570 1542 4979 1190 5267 
L 877 4960 
z
M 294 3366 
L 294 2893 
L 1312 2893 
L 1312 595 
C 1312 320 1114 128 992 51 
C 1082 -45 1210 -262 1254 -390 
C 1357 -256 1536 -115 2746 742 
C 2694 832 2618 1037 2586 1165 
L 1798 627 
L 1798 3366 
L 294 3366 
z
M 4006 5357 
L 4006 3251 
L 2381 3251 
L 2381 2758 
L 4006 2758 
L 4006 -512 
L 4512 -512 
L 4512 2758 
L 6138 2758 
L 6138 3251 
L 4512 3251 
L 4512 5357 
L 4006 5357 
z
" transform="scale(0.015625)"/>
      <path id="NotoSansCJKjp-Regular-6765" d="M 4838 4026 
C 4691 3635 4416 3085 4192 2739 
L 4602 2598 
C 4826 2918 5107 3424 5338 3872 
L 4838 4026 
z
M 1184 3840 
C 1434 3456 1683 2938 1766 2611 
L 2221 2790 
C 2131 3117 1869 3622 1613 3994 
L 1184 3840 
z
M 2944 5376 
L 2944 4602 
L 666 4602 
L 666 4147 
L 2944 4147 
L 2944 2534 
L 365 2534 
L 365 2074 
L 2618 2074 
C 2029 1293 1082 544 218 166 
C 333 70 486 -115 563 -230 
C 1408 192 2323 960 2944 1805 
L 2944 -506 
L 3450 -506 
L 3450 1824 
C 4070 966 4992 173 5850 -250 
C 5933 -128 6080 51 6195 147 
C 5325 531 4371 1293 3782 2074 
L 6048 2074 
L 6048 2534 
L 3450 2534 
L 3450 4147 
L 5779 4147 
L 5779 4602 
L 3450 4602 
L 3450 5376 
L 2944 5376 
z
" transform="scale(0.015625)"/>
      <path id="NotoSansCJKjp-Regular-81ea" d="M 1530 2630 
L 4954 2630 
L 4954 1690 
L 1530 1690 
L 1530 2630 
z
M 1530 3085 
L 1530 4038 
L 4954 4038 
L 4954 3085 
L 1530 3085 
z
M 1530 1242 
L 4954 1242 
L 4954 294 
L 1530 294 
L 1530 1242 
z
M 2912 5389 
C 2861 5133 2758 4781 2662 4499 
L 1043 4499 
L 1043 -518 
L 1530 -518 
L 1530 -160 
L 4954 -160 
L 4954 -486 
L 5459 -486 
L 5459 4499 
L 3149 4499 
C 3258 4742 3366 5037 3469 5312 
L 2912 5389 
z
" transform="scale(0.015625)"/>
      <path id="NotoSansCJKjp-Regular-96f6" d="M 1235 3718 
L 1235 3418 
L 2624 3418 
L 2624 3718 
L 1235 3718 
z
M 1094 3078 
L 1094 2765 
L 2630 2765 
L 2630 3078 
L 1094 3078 
z
M 3738 3078 
L 3738 2765 
L 5318 2765 
L 5318 3078 
L 3738 3078 
z
M 3738 3718 
L 3738 3418 
L 5158 3418 
L 5158 3718 
L 3738 3718 
z
M 486 4390 
L 486 3270 
L 922 3270 
L 922 4058 
L 2944 4058 
L 2944 3066 
L 3418 3066 
L 3418 4058 
L 5472 4058 
L 5472 3270 
L 5920 3270 
L 5920 4390 
L 3418 4390 
L 3418 4755 
L 5536 4755 
L 5536 5120 
L 858 5120 
L 858 4755 
L 2944 4755 
L 2944 4390 
L 486 4390 
z
M 2035 1843 
L 2035 1568 
L 4378 1568 
L 4378 1843 
C 4890 1600 5453 1402 5946 1286 
C 6003 1395 6099 1568 6195 1677 
C 5203 1875 4096 2323 3366 2950 
L 2931 2950 
C 2381 2400 1325 1882 237 1600 
C 314 1510 410 1344 454 1229 
C 998 1389 1549 1600 2035 1843 
z
M 3174 2592 
C 3456 2349 3834 2112 4250 1907 
L 2157 1907 
C 2566 2125 2918 2355 3174 2592 
z
M 966 1165 
L 966 819 
L 2515 819 
L 2515 -512 
L 2976 -512 
L 2976 819 
L 4749 819 
L 4749 288 
C 4749 211 4723 192 4634 186 
C 4544 186 4256 179 3891 192 
C 3955 77 4032 -70 4058 -192 
C 4506 -192 4794 -192 4979 -128 
C 5171 -64 5216 51 5216 282 
L 5216 1165 
L 966 1165 
z
" transform="scale(0.015625)"/>
      <path id="NotoSansCJKjp-Regular-622a" d="M 4627 5005 
C 4992 4730 5408 4326 5587 4045 
L 5946 4326 
C 5747 4602 5331 4992 4966 5254 
L 4627 5005 
z
M 5331 3027 
C 5146 2438 4890 1875 4563 1382 
C 4429 1914 4326 2566 4262 3315 
L 6074 3315 
L 6074 3750 
L 4230 3750 
C 4198 4256 4186 4800 4192 5370 
L 3712 5370 
C 3718 4813 3731 4269 3763 3750 
L 2259 3750 
L 2259 4378 
L 3430 4378 
L 3430 4781 
L 2259 4781 
L 2259 5376 
L 1805 5376 
L 1805 4781 
L 608 4781 
L 608 4378 
L 1805 4378 
L 1805 3750 
L 333 3750 
L 333 3315 
L 3795 3315 
C 3872 2381 4006 1549 4211 902 
C 3968 608 3699 339 3405 122 
L 3405 288 
L 2426 288 
L 2426 742 
L 3309 742 
L 3309 1062 
L 2426 1062 
L 2426 1498 
L 3309 1498 
L 3309 1818 
L 2426 1818 
L 2426 2234 
L 3411 2234 
L 3411 2611 
L 2515 2611 
L 2784 3117 
L 2349 3219 
C 2298 3053 2202 2816 2106 2611 
L 1363 2611 
C 1459 2790 1549 2970 1626 3155 
L 1210 3270 
C 992 2714 621 2157 211 1792 
C 314 1722 486 1581 563 1510 
C 646 1594 736 1690 819 1798 
L 819 -442 
L 1242 -442 
L 1242 -109 
L 3072 -109 
L 3008 -147 
C 3130 -243 3277 -403 3354 -518 
C 3744 -269 4096 38 4403 390 
C 4666 -179 5011 -512 5453 -512 
C 5920 -512 6093 -211 6176 813 
C 6048 851 5882 954 5773 1056 
C 5741 269 5664 -38 5485 -38 
C 5197 -38 4941 269 4742 806 
C 5184 1414 5530 2125 5773 2893 
L 5331 3027 
z
M 2022 1498 
L 2022 1062 
L 1242 1062 
L 1242 1498 
L 2022 1498 
z
M 2022 1818 
L 1242 1818 
L 1242 2234 
L 2022 2234 
L 2022 1818 
z
M 2022 742 
L 2022 288 
L 1242 288 
L 1242 742 
L 2022 742 
z
" transform="scale(0.015625)"/>
      <path id="NotoSansCJKjp-Regular-65ad" d="M 2963 4947 
C 2874 4614 2701 4115 2560 3802 
L 2854 3699 
C 3002 3987 3194 4448 3347 4832 
L 2963 4947 
z
M 1197 4832 
C 1338 4480 1446 4019 1472 3712 
L 1811 3827 
C 1786 4128 1658 4589 1510 4934 
L 1197 4832 
z
M 2035 5331 
L 2035 3450 
L 1114 3450 
L 1114 3034 
L 1978 3034 
C 1747 2464 1363 1856 998 1523 
C 1069 1421 1165 1248 1210 1126 
C 1510 1414 1805 1888 2035 2381 
L 2035 781 
L 2445 781 
L 2445 2355 
C 2669 2112 2938 1805 3046 1651 
L 3322 1984 
C 3187 2118 2624 2630 2445 2790 
L 2445 3034 
L 3347 3034 
L 3347 3450 
L 2445 3450 
L 2445 5331 
L 2035 5331 
z
M 5709 5274 
C 5306 5069 4602 4864 3955 4723 
L 3616 4826 
L 3616 2586 
C 3616 1952 3578 1216 3283 550 
L 3283 627 
L 947 627 
L 947 5146 
L 518 5146 
L 518 -282 
L 947 -282 
L 947 205 
L 3104 205 
C 3014 51 2899 -96 2771 -237 
C 2886 -294 3053 -461 3117 -570 
C 3955 326 4070 1626 4070 2579 
L 4070 2778 
L 5024 2778 
L 5024 -512 
L 5478 -512 
L 5478 2778 
L 6202 2778 
L 6202 3226 
L 4070 3226 
L 4070 4339 
C 4774 4480 5555 4678 6099 4922 
L 5709 5274 
z
" transform="scale(0.015625)"/>
      <path id="NotoSansCJKjp-Regular-5206" d="M 2074 5248 
C 1677 4256 966 3373 147 2829 
C 262 2739 474 2554 563 2451 
C 1363 3059 2118 4019 2586 5101 
L 2074 5248 
z
M 4307 5261 
L 3846 5075 
C 4326 4122 5139 3085 5850 2509 
C 5939 2643 6118 2829 6253 2931 
C 5549 3424 4723 4397 4307 5261 
z
M 1197 2957 
L 1197 2490 
L 2509 2490 
C 2368 1402 2010 378 486 -122 
C 595 -224 736 -416 800 -544 
C 2445 51 2854 1216 3027 2490 
L 4685 2490 
C 4608 864 4512 224 4346 58 
C 4282 -6 4205 -26 4077 -26 
C 3923 -26 3533 -19 3110 19 
C 3200 -115 3258 -320 3270 -461 
C 3674 -486 4070 -493 4288 -474 
C 4506 -454 4653 -410 4781 -243 
C 5005 0 5094 736 5190 2726 
C 5197 2790 5197 2957 5197 2957 
L 1197 2957 
z
" transform="scale(0.015625)"/>
      <path id="NotoSansCJKjp-Regular-5e03" d="M 2554 5382 
C 2464 5056 2349 4723 2214 4397 
L 390 4397 
L 390 3930 
L 2003 3930 
C 1574 3078 979 2291 198 1760 
C 288 1658 416 1472 486 1350 
C 832 1594 1146 1882 1421 2195 
L 1421 83 
L 1901 83 
L 1901 2304 
L 3258 2304 
L 3258 -518 
L 3744 -518 
L 3744 2304 
L 5190 2304 
L 5190 698 
C 5190 608 5158 582 5050 576 
C 4947 576 4576 570 4166 582 
C 4230 461 4307 282 4326 147 
C 4877 147 5216 147 5414 224 
C 5613 301 5670 435 5670 691 
L 5670 2758 
L 5190 2758 
L 3744 2758 
L 3744 3622 
L 3258 3622 
L 3258 2758 
L 1862 2758 
C 2118 3130 2342 3520 2534 3930 
L 6022 3930 
L 6022 4397 
L 2739 4397 
C 2854 4685 2957 4979 3046 5267 
L 2554 5382 
z
" transform="scale(0.015625)"/>
     </defs>
     <use xlink:href="#NotoSansCJKjp-Regular-6b63"/>
     <use xlink:href="#NotoSansCJKjp-Regular-8ba1" transform="translate(99.999985 0)"/>
     <use xlink:href="#NotoSansCJKjp-Regular-6570" transform="translate(199.999969 0)"/>
     <use xlink:href="#NotoSansCJKjp-Regular-6765" transform="translate(299.999954 0)"/>
     <use xlink:href="#NotoSansCJKjp-Regular-81ea" transform="translate(399.999939 0)"/>
     <use xlink:href="#NotoSansCJKjp-Regular-96f6" transform="translate(499.999924 0)"/>
     <use xlink:href="#NotoSansCJKjp-Regular-622a" transform="translate(599.999908 0)"/>
     <use xlink:href="#NotoSansCJKjp-Regular-65ad" transform="translate(699.999893 0)"/>
     <use xlink:href="#NotoSansCJKjp-Regular-5206" transform="translate(799.999878 0)"/>
     <use xlink:href="#NotoSansCJKjp-Regular-5e03" transform="translate(899.999863 0)"/>
    </g>
   </g>
   <g id="text_19">
    <!-- Hurdle model：先决定是否跨过 0，再决定正计数 -->
    <g transform="translate(110.432812 17.706375) scale(0.132 -0.132)">
     <defs>
      <path id="NotoSansCJKjp-Regular-48" d="M 646 0 
L 1235 0 
L 1235 2214 
L 3424 2214 
L 3424 0 
L 4019 0 
L 4019 4691 
L 3424 4691 
L 3424 2726 
L 1235 2726 
L 1235 4691 
L 646 4691 
L 646 0 
z
" transform="scale(0.015625)"/>
      <path id="NotoSansCJKjp-Regular-75" d="M 1606 -83 
C 2080 -83 2426 166 2752 544 
L 2771 544 
L 2816 0 
L 3302 0 
L 3302 3475 
L 2720 3475 
L 2720 1011 
C 2387 602 2138 422 1779 422 
C 1318 422 1126 698 1126 1344 
L 1126 3475 
L 538 3475 
L 538 1274 
C 538 384 870 -83 1606 -83 
z
" transform="scale(0.015625)"/>
      <path id="NotoSansCJKjp-Regular-72" d="M 589 0 
L 1178 0 
L 1178 2234 
C 1408 2822 1760 3040 2048 3040 
C 2195 3040 2272 3021 2387 2982 
L 2496 3488 
C 2387 3546 2278 3565 2125 3565 
C 1741 3565 1382 3283 1139 2842 
L 1126 2842 
L 1069 3475 
L 589 3475 
L 589 0 
z
" transform="scale(0.015625)"/>
      <path id="NotoSansCJKjp-Regular-64" d="M 1773 -83 
C 2189 -83 2560 141 2829 410 
L 2848 410 
L 2899 0 
L 3379 0 
L 3379 5094 
L 2790 5094 
L 2790 3757 
L 2822 3162 
C 2515 3411 2253 3565 1843 3565 
C 1050 3565 339 2861 339 1734 
C 339 576 902 -83 1773 -83 
z
M 1901 410 
C 1293 410 941 902 941 1741 
C 941 2534 1389 3072 1946 3072 
C 2234 3072 2502 2970 2790 2707 
L 2790 883 
C 2502 563 2221 410 1901 410 
z
" transform="scale(0.015625)"/>
      <path id="NotoSansCJKjp-Regular-6c" d="M 1203 -83 
C 1363 -83 1459 -58 1542 -32 
L 1459 416 
C 1395 403 1370 403 1338 403 
C 1248 403 1178 474 1178 653 
L 1178 5094 
L 589 5094 
L 589 691 
C 589 198 768 -83 1203 -83 
z
" transform="scale(0.015625)"/>
      <path id="NotoSansCJKjp-Regular-65" d="M 1997 -83 
C 2464 -83 2835 70 3136 269 
L 2931 659 
C 2669 486 2400 384 2061 384 
C 1402 384 947 858 909 1600 
L 3251 1600 
C 3264 1690 3277 1805 3277 1933 
C 3277 2925 2778 3565 1888 3565 
C 1094 3565 333 2867 333 1734 
C 333 589 1069 -83 1997 -83 
z
M 902 2016 
C 973 2707 1408 3098 1901 3098 
C 2445 3098 2765 2720 2765 2016 
L 902 2016 
z
" transform="scale(0.015625)"/>
      <path id="NotoSansCJKjp-Regular-6d" d="M 589 0 
L 1178 0 
L 1178 2522 
C 1491 2880 1786 3053 2048 3053 
C 2490 3053 2694 2778 2694 2125 
L 2694 0 
L 3277 0 
L 3277 2522 
C 3603 2880 3885 3053 4154 3053 
C 4595 3053 4800 2778 4800 2125 
L 4800 0 
L 5382 0 
L 5382 2202 
C 5382 3085 5043 3565 4333 3565 
C 3904 3565 3546 3290 3181 2899 
C 3040 3309 2758 3565 2221 3565 
C 1805 3565 1446 3302 1139 2970 
L 1126 2970 
L 1069 3475 
L 589 3475 
L 589 0 
z
" transform="scale(0.015625)"/>
      <path id="NotoSansCJKjp-Regular-6f" d="M 1939 -83 
C 2790 -83 3546 582 3546 1734 
C 3546 2893 2790 3565 1939 3565 
C 1088 3565 333 2893 333 1734 
C 333 582 1088 -83 1939 -83 
z
M 1939 403 
C 1338 403 934 934 934 1734 
C 934 2534 1338 3072 1939 3072 
C 2541 3072 2950 2534 2950 1734 
C 2950 934 2541 403 1939 403 
z
" transform="scale(0.015625)"/>
      <path id="NotoSansCJKjp-Regular-ff1a" d="M 3200 3482 
C 3456 3482 3686 3667 3686 3962 
C 3686 4256 3456 4442 3200 4442 
C 2944 4442 2714 4256 2714 3962 
C 2714 3667 2944 3482 3200 3482 
z
M 3200 346 
C 3456 346 3686 538 3686 826 
C 3686 1120 3456 1312 3200 1312 
C 2944 1312 2714 1120 2714 826 
C 2714 538 2944 346 3200 346 
z
" transform="scale(0.015625)"/>
      <path id="NotoSansCJKjp-Regular-5148" d="M 2957 5376 
L 2957 4378 
L 1824 4378 
C 1914 4634 1997 4890 2061 5126 
L 1574 5229 
C 1414 4557 1094 3706 653 3162 
C 774 3117 960 3008 1069 2938 
C 1286 3206 1478 3552 1638 3917 
L 2957 3917 
L 2957 2624 
L 390 2624 
L 390 2157 
L 2061 2157 
C 1952 1101 1664 282 301 -141 
C 416 -237 550 -422 608 -544 
C 2067 -38 2426 902 2560 2157 
L 3782 2157 
L 3782 275 
C 3782 -256 3923 -410 4499 -410 
C 4614 -410 5280 -410 5402 -410 
C 5920 -410 6054 -160 6106 813 
C 5971 851 5766 928 5664 1011 
C 5638 179 5600 51 5363 51 
C 5216 51 4666 51 4550 51 
C 4307 51 4262 83 4262 275 
L 4262 2157 
L 6016 2157 
L 6016 2624 
L 3443 2624 
L 3443 3917 
L 5555 3917 
L 5555 4378 
L 3443 4378 
L 3443 5376 
L 2957 5376 
z
" transform="scale(0.015625)"/>
      <path id="NotoSansCJKjp-Regular-51b3" d="M 326 4890 
C 691 4486 1126 3936 1312 3578 
L 1722 3853 
C 1517 4205 1069 4736 698 5120 
L 326 4890 
z
M 243 70 
L 659 -218 
C 1005 390 1408 1203 1715 1901 
L 1357 2195 
C 1018 1446 557 582 243 70 
z
M 5050 2426 
L 4038 2426 
C 4070 2701 4077 2976 4077 3238 
L 4077 3904 
L 5050 3904 
L 5050 2426 
z
M 3571 5363 
L 3571 4365 
L 2291 4365 
L 2291 3904 
L 3571 3904 
L 3571 3238 
C 3571 2976 3565 2707 3539 2426 
L 1958 2426 
L 1958 1965 
L 3462 1965 
C 3290 1184 2822 416 1594 -141 
C 1709 -237 1869 -422 1939 -525 
C 3174 90 3699 928 3923 1786 
C 4275 691 4883 -102 5869 -499 
C 5946 -371 6086 -186 6195 -83 
C 5248 243 4646 979 4333 1965 
L 6157 1965 
L 6157 2426 
L 5510 2426 
L 5510 4365 
L 4077 4365 
L 4077 5363 
L 3571 5363 
z
" transform="scale(0.015625)"/>
      <path id="NotoSansCJKjp-Regular-5b9a" d="M 1421 2413 
C 1286 1248 934 333 224 -218 
C 339 -294 538 -461 621 -544 
C 1037 -179 1350 307 1574 896 
C 2163 -198 3117 -422 4454 -422 
L 5952 -422 
C 5971 -282 6061 -51 6131 64 
C 5818 58 4717 58 4480 58 
C 4109 58 3757 77 3443 134 
L 3443 1440 
L 5350 1440 
L 5350 1888 
L 3443 1888 
L 3443 2957 
L 5088 2957 
L 5088 3418 
L 1350 3418 
L 1350 2957 
L 2944 2957 
L 2944 269 
C 2419 461 2016 832 1760 1504 
C 1824 1766 1882 2054 1920 2355 
L 1421 2413 
z
M 525 4640 
L 525 3245 
L 998 3245 
L 998 4186 
L 5382 4186 
L 5382 3245 
L 5875 3245 
L 5875 4640 
L 3443 4640 
L 3443 5376 
L 2938 5376 
L 2938 4640 
L 525 4640 
z
" transform="scale(0.015625)"/>
      <path id="NotoSansCJKjp-Regular-662f" d="M 1510 3885 
L 4845 3885 
L 4845 3360 
L 1510 3360 
L 1510 3885 
z
M 1510 4749 
L 4845 4749 
L 4845 4230 
L 1510 4230 
L 1510 4749 
z
M 1050 5114 
L 1050 2995 
L 5331 2995 
L 5331 5114 
L 1050 5114 
z
M 1478 1914 
C 1312 979 902 256 224 -186 
C 333 -256 518 -435 589 -518 
C 1011 -218 1344 192 1587 698 
C 2112 -186 2938 -384 4230 -384 
L 5984 -384 
C 6010 -250 6086 -38 6163 77 
C 5830 70 4493 64 4250 70 
C 3981 70 3725 77 3494 102 
L 3494 986 
L 5619 986 
L 5619 1408 
L 3494 1408 
L 3494 2125 
L 6035 2125 
L 6035 2554 
L 378 2554 
L 378 2125 
L 3014 2125 
L 3014 186 
C 2458 326 2048 627 1798 1216 
C 1862 1414 1914 1626 1958 1850 
L 1478 1914 
z
" transform="scale(0.015625)"/>
      <path id="NotoSansCJKjp-Regular-5426" d="M 3706 3616 
C 4442 3309 5331 2790 5792 2419 
L 6138 2784 
C 5664 3136 4781 3642 4051 3936 
L 3706 3616 
z
M 1133 1907 
L 1133 -512 
L 1626 -512 
L 1626 -205 
L 4800 -205 
L 4800 -499 
L 5318 -499 
L 5318 1907 
L 1133 1907 
z
M 1626 224 
L 1626 1485 
L 4800 1485 
L 4800 224 
L 1626 224 
z
M 422 5011 
L 422 4557 
L 3258 4557 
C 2515 3776 1363 3142 224 2778 
C 333 2682 493 2458 563 2342 
C 1389 2656 2234 3098 2950 3648 
L 2950 2093 
L 3437 2093 
L 3437 4058 
C 3603 4218 3763 4384 3904 4557 
L 5978 4557 
L 5978 5011 
L 422 5011 
z
" transform="scale(0.015625)"/>
      <path id="NotoSansCJKjp-Regular-ff0c" d="M 1005 -685 
C 1677 -448 2112 77 2112 768 
C 2112 1216 1920 1504 1568 1504 
C 1306 1504 1082 1344 1082 1043 
C 1082 742 1299 589 1562 589 
L 1670 602 
C 1638 160 1357 -141 864 -346 
L 1005 -685 
z
" transform="scale(0.015625)"/>
      <path id="NotoSansCJKjp-Regular-518d" d="M 1011 3910 
L 1011 1485 
L 256 1485 
L 256 1037 
L 1011 1037 
L 1011 -525 
L 1485 -525 
L 1485 1037 
L 4909 1037 
L 4909 83 
C 4909 -26 4870 -58 4749 -64 
C 4640 -70 4224 -77 3802 -58 
C 3878 -186 3949 -390 3981 -518 
C 4531 -518 4890 -512 5101 -435 
C 5312 -358 5382 -218 5382 77 
L 5382 1037 
L 6157 1037 
L 6157 1485 
L 5382 1485 
L 5382 3910 
L 3418 3910 
L 3418 4538 
L 5920 4538 
L 5920 4986 
L 493 4986 
L 493 4538 
L 2931 4538 
L 2931 3910 
L 1011 3910 
z
M 4909 1485 
L 3418 1485 
L 3418 2278 
L 4909 2278 
L 4909 1485 
z
M 1485 1485 
L 1485 2278 
L 2931 2278 
L 2931 1485 
L 1485 1485 
z
M 4909 2701 
L 3418 2701 
L 3418 3469 
L 4909 3469 
L 4909 2701 
z
M 1485 2701 
L 1485 3469 
L 2931 3469 
L 2931 2701 
L 1485 2701 
z
" transform="scale(0.015625)"/>
     </defs>
     <use xlink:href="#NotoSansCJKjp-Regular-48"/>
     <use xlink:href="#NotoSansCJKjp-Regular-75" transform="translate(72.799988 0)"/>
     <use xlink:href="#NotoSansCJKjp-Regular-72" transform="translate(133.499985 0)"/>
     <use xlink:href="#NotoSansCJKjp-Regular-64" transform="translate(172.299973 0)"/>
     <use xlink:href="#NotoSansCJKjp-Regular-6c" transform="translate(234.299957 0)"/>
     <use xlink:href="#NotoSansCJKjp-Regular-65" transform="translate(262.699951 0)"/>
     <use xlink:href="#NotoSansCJKjp-Regular-20" transform="translate(318.099945 0)"/>
     <use xlink:href="#NotoSansCJKjp-Regular-6d" transform="translate(340.499939 0)"/>
     <use xlink:href="#NotoSansCJKjp-Regular-6f" transform="translate(433.09993 0)"/>
     <use xlink:href="#NotoSansCJKjp-Regular-64" transform="translate(493.699921 0)"/>
     <use xlink:href="#NotoSansCJKjp-Regular-65" transform="translate(555.699905 0)"/>
     <use xlink:href="#NotoSansCJKjp-Regular-6c" transform="translate(611.099899 0)"/>
     <use xlink:href="#NotoSansCJKjp-Regular-ff1a" transform="translate(639.499893 0)"/>
     <use xlink:href="#NotoSansCJKjp-Regular-5148" transform="translate(739.499878 0)"/>
     <use xlink:href="#NotoSansCJKjp-Regular-51b3" transform="translate(839.499863 0)"/>
     <use xlink:href="#NotoSansCJKjp-Regular-5b9a" transform="translate(939.499847 0)"/>
     <use xlink:href="#NotoSansCJKjp-Regular-662f" transform="translate(1039.499832 0)"/>
     <use xlink:href="#NotoSansCJKjp-Regular-5426" transform="translate(1139.499817 0)"/>
     <use xlink:href="#NotoSansCJKjp-Regular-8de8" transform="translate(1239.499802 0)"/>
     <use xlink:href="#NotoSansCJKjp-Regular-8fc7" transform="translate(1339.499786 0)"/>
     <use xlink:href="#NotoSansCJKjp-Regular-20" transform="translate(1439.499771 0)"/>
     <use xlink:href="#NotoSansCJKjp-Regular-30" transform="translate(1461.899765 0)"/>
     <use xlink:href="#NotoSansCJKjp-Regular-ff0c" transform="translate(1517.39975 0)"/>
     <use xlink:href="#NotoSansCJKjp-Regular-518d" transform="translate(1617.399734 0)"/>
     <use xlink:href="#NotoSansCJKjp-Regular-51b3" transform="translate(1717.399719 0)"/>
     <use xlink:href="#NotoSansCJKjp-Regular-5b9a" transform="translate(1817.399704 0)"/>
     <use xlink:href="#NotoSansCJKjp-Regular-6b63" transform="translate(1917.399689 0)"/>
     <use xlink:href="#NotoSansCJKjp-Regular-8ba1" transform="translate(2017.399673 0)"/>
     <use xlink:href="#NotoSansCJKjp-Regular-6570" transform="translate(2117.399658 0)"/>
    </g>
   </g>
  </g>
 </g>
 <defs>
  <clipPath id="pb43a92dbd8">
   <rect x="44.742656" y="23.706375" width="424.08" height="238.392"/>
  </clipPath>
 </defs>
</svg>
