<?xml version="1.0" encoding="utf-8" standalone="no"?>
<!DOCTYPE svg PUBLIC "-//W3C//DTD SVG 1.1//EN"
  "http://www.w3.org/Graphics/SVG/1.1/DTD/svg11.dtd">
<svg xmlns:xlink="http://www.w3.org/1999/xlink" width="483.12pt" height="292.756438pt" viewBox="0 0 483.12 292.756438" xmlns="http://www.w3.org/2000/svg" version="1.1">
 <metadata>
  <rdf:RDF xmlns:dc="http://purl.org/dc/elements/1.1/" xmlns:cc="http://creativecommons.org/ns#" xmlns:rdf="http://www.w3.org/1999/02/22-rdf-syntax-ns#">
   <cc:Work>
    <dc:type rdf:resource="http://purl.org/dc/dcmitype/StillImage"/>
    <dc:date>2026-04-29T04:11:59.545853</dc:date>
    <dc:format>image/svg+xml</dc:format>
    <dc:creator>
     <cc:Agent>
      <dc:title>Matplotlib v3.10.8, https://matplotlib.org/</dc:title>
     </cc:Agent>
    </dc:creator>
   </cc:Work>
  </rdf:RDF>
 </metadata>
 <defs>
  <style type="text/css">*{stroke-linejoin: round; stroke-linecap: butt}</style>
 </defs>
 <g id="figure_1">
  <g id="patch_1">
   <path d="M 0 292.756438 
L 483.12 292.756438 
L 483.12 0 
L 0 0 
z
" style="fill: #ffffff"/>
  </g>
  <g id="axes_1">
   <g id="patch_2">
    <path d="M 41.796 134.205237 
L 128.844 134.205237 
Q 133.308 134.205237 133.308 129.770037 
L 133.308 86.526837 
Q 133.308 82.091637 128.844 82.091637 
L 41.796 82.091637 
Q 37.332 82.091637 37.332 86.526837 
L 37.332 129.770037 
Q 37.332 134.205237 41.796 134.205237 
z
" clip-path="url(#p8cc3f5ea69)" style="fill: #e8f6f3; stroke: #45b39d; stroke-width: 1.25; stroke-linejoin: miter"/>
   </g>
   <g id="patch_3">
    <path d="M 36.216 217.365238 
L 134.424 217.365238 
Q 138.888 217.365238 138.888 212.930037 
L 138.888 169.686837 
Q 138.888 165.251637 134.424 165.251637 
L 36.216 165.251637 
Q 31.752 165.251637 31.752 169.686837 
L 31.752 212.930037 
Q 31.752 217.365238 36.216 217.365238 
z
" clip-path="url(#p8cc3f5ea69)" style="fill: #fef9e7; stroke: #d4ac0d; stroke-width: 1.25; stroke-linejoin: miter"/>
   </g>
   <g id="patch_4">
    <path d="M 39.006 286.665237 
L 131.634 286.665237 
Q 136.098 286.665237 136.098 282.230038 
L 136.098 238.986838 
Q 136.098 234.551637 131.634 234.551637 
L 39.006 234.551637 
Q 34.542 234.551637 34.542 238.986838 
L 34.542 282.230038 
Q 34.542 286.665237 39.006 286.665237 
z
" clip-path="url(#p8cc3f5ea69)" style="fill: #fdedec; stroke: #cd6155; stroke-width: 1.25; stroke-linejoin: miter"/>
   </g>
   <g id="patch_5">
    <path d="M 184.086 176.616838 
L 299.034 176.616838 
Q 303.498 176.616838 303.498 172.181637 
L 303.498 116.187237 
Q 303.498 111.752038 299.034 111.752038 
L 184.086 111.752038 
Q 179.622 111.752038 179.622 116.187237 
L 179.622 172.181637 
Q 179.622 176.616838 184.086 176.616838 
z
" clip-path="url(#p8cc3f5ea69)" style="fill: #d6eaf8; stroke: #5dade2; stroke-width: 1.25; stroke-linejoin: miter"/>
   </g>
   <g id="patch_6">
    <path d="M 178.506 265.320838 
L 304.614 265.320838 
Q 309.078 265.320838 309.078 260.885638 
L 309.078 204.891237 
Q 309.078 200.456038 304.614 200.456038 
L 178.506 200.456038 
Q 174.042 200.456038 174.042 204.891237 
L 174.042 260.885638 
Q 174.042 265.320838 178.506 265.320838 
z
" clip-path="url(#p8cc3f5ea69)" style="fill: #ebdef0; stroke: #af7ac5; stroke-width: 1.25; stroke-linejoin: miter"/>
   </g>
   <g id="patch_7">
    <path d="M 343.116 214.593237 
L 452.484 214.593237 
Q 456.948 214.593237 456.948 210.158037 
L 456.948 166.914838 
Q 456.948 162.479638 452.484 162.479638 
L 343.116 162.479638 
Q 338.652 162.479638 338.652 166.914838 
L 338.652 210.158037 
Q 338.652 214.593237 343.116 214.593237 
z
" clip-path="url(#p8cc3f5ea69)" style="fill: #d5f5e3; stroke: #58d68d; stroke-width: 1.25; stroke-linejoin: miter"/>
   </g>
   <g id="patch_8">
    <path d="M 136.576544 112.646339 
Q 156.46451 126.166104 175.289164 138.963034 
" clip-path="url(#p8cc3f5ea69)" style="fill: none; stroke: #404040; stroke-width: 1.15; stroke-linecap: round"/>
    <path d="M 172.668808 134.279687 
L 175.289164 138.963034 
L 169.970273 138.24931 
z
" clip-path="url(#p8cc3f5ea69)" style="fill: #404040; stroke: #404040; stroke-width: 1.15; stroke-linecap: round"/>
   </g>
   <g id="patch_9">
    <path d="M 132.804237 115.628726 
Q 153.67592 170.520857 174.090643 224.211192 
" clip-path="url(#p8cc3f5ea69)" style="fill: none; stroke: #404040; stroke-width: 1.15; stroke-linecap: round"/>
    <path d="M 174.628002 218.8716 
L 174.090643 224.211192 
L 170.141384 220.57755 
z
" clip-path="url(#p8cc3f5ea69)" style="fill: #404040; stroke: #404040; stroke-width: 1.15; stroke-linecap: round"/>
   </g>
   <g id="patch_10">
    <path d="M 141.216894 185.668169 
Q 159.255795 167.745647 176.382605 150.729334 
" clip-path="url(#p8cc3f5ea69)" style="fill: none; stroke: #404040; stroke-width: 1.15; stroke-linecap: round"/>
    <path d="M 171.28597 152.409905 
L 176.382605 150.729334 
L 174.669081 155.814984 
z
" clip-path="url(#p8cc3f5ea69)" style="fill: #404040; stroke: #404040; stroke-width: 1.15; stroke-linecap: round"/>
   </g>
   <g id="patch_11">
    <path d="M 139.5479 256.387161 
Q 155.070229 246.748295 169.500278 237.7877 
" clip-path="url(#p8cc3f5ea69)" style="fill: none; stroke: #404040; stroke-width: 1.15; stroke-linecap: round"/>
    <path d="M 164.156433 238.280978 
L 169.500278 237.7877 
L 166.688594 242.358743 
z
" clip-path="url(#p8cc3f5ea69)" style="fill: #404040; stroke: #404040; stroke-width: 1.15; stroke-linecap: round"/>
   </g>
   <g id="patch_12">
    <path d="M 305.639236 150.001848 
Q 321.075472 166.360938 335.629313 181.78488 
" clip-path="url(#p8cc3f5ea69)" style="fill: none; stroke: #404040; stroke-width: 1.15; stroke-linecap: round"/>
    <path d="M 334.08068 176.646618 
L 335.629313 181.78488 
L 330.589524 179.94083 
z
" clip-path="url(#p8cc3f5ea69)" style="fill: #404040; stroke: #404040; stroke-width: 1.15; stroke-linecap: round"/>
   </g>
   <g id="patch_13">
    <path d="M 310.792835 226.697457 
Q 323.864073 210.713571 336.121375 195.724989 
" clip-path="url(#p8cc3f5ea69)" style="fill: none; stroke: #404040; stroke-width: 1.15; stroke-linecap: round"/>
    <path d="M 331.22487 197.921404 
L 336.121375 195.724989 
L 334.940604 200.960042 
z
" clip-path="url(#p8cc3f5ea69)" style="fill: #404040; stroke: #404040; stroke-width: 1.15; stroke-linecap: round"/>
   </g>
   <g id="text_1">
    <!-- 抵押能力 -->
    <g transform="translate(61.32 104.444562) scale(0.12 -0.12)">
     <defs>
      <path id="NotoSansCJKjp-Regular-62b5" d="M 2163 141 
L 2163 -294 
L 4698 -294 
L 4698 141 
L 2163 141 
z
M 2074 992 
L 2182 538 
C 2790 646 3616 787 4397 922 
L 4365 1350 
L 3142 1152 
L 3142 2758 
L 4416 2758 
C 4570 922 4902 -326 5638 -352 
C 5882 -352 6106 -83 6234 883 
C 6144 922 5958 1037 5875 1126 
C 5830 544 5754 211 5638 218 
C 5261 237 4998 1274 4870 2758 
L 6048 2758 
L 6048 3206 
L 4838 3206 
C 4806 3642 4787 4109 4781 4595 
C 5158 4666 5510 4742 5811 4832 
L 5466 5216 
C 4896 5030 3930 4864 3053 4755 
L 2675 4877 
L 2675 1082 
L 2074 992 
z
M 3142 3206 
L 3142 4365 
C 3526 4403 3930 4454 4320 4518 
C 4333 4058 4352 3622 4378 3206 
L 3142 3206 
z
M 1197 5376 
L 1197 4083 
L 282 4083 
L 282 3629 
L 1197 3629 
L 1197 2259 
L 179 1984 
L 320 1517 
L 1197 1779 
L 1197 51 
C 1197 -38 1158 -64 1075 -70 
C 992 -70 723 -70 435 -64 
C 499 -192 563 -390 582 -506 
C 1011 -512 1267 -493 1440 -422 
C 1600 -346 1664 -218 1664 58 
L 1664 1920 
L 2477 2170 
L 2419 2618 
L 1664 2394 
L 1664 3629 
L 2406 3629 
L 2406 4083 
L 1664 4083 
L 1664 5376 
L 1197 5376 
z
" transform="scale(0.015625)"/>
      <path id="NotoSansCJKjp-Regular-62bc" d="M 3053 3136 
L 4026 3136 
L 4026 2150 
L 3053 2150 
L 3053 3136 
z
M 3053 3578 
L 3053 4538 
L 4026 4538 
L 4026 3578 
L 3053 3578 
z
M 5472 3136 
L 5472 2150 
L 4480 2150 
L 4480 3136 
L 5472 3136 
z
M 5472 3578 
L 4480 3578 
L 4480 4538 
L 5472 4538 
L 5472 3578 
z
M 2586 4986 
L 2586 1350 
L 3053 1350 
L 3053 1702 
L 4026 1702 
L 4026 -506 
L 4480 -506 
L 4480 1702 
L 5472 1702 
L 5472 1370 
L 5952 1370 
L 5952 4986 
L 2586 4986 
z
M 1114 5376 
L 1114 4083 
L 326 4083 
L 326 3635 
L 1114 3635 
L 1114 2221 
L 243 1990 
L 384 1523 
L 1114 1734 
L 1114 77 
C 1114 -13 1088 -38 1005 -38 
C 928 -38 678 -45 403 -38 
C 461 -160 525 -352 544 -467 
C 947 -467 1197 -461 1357 -384 
C 1517 -314 1581 -186 1581 77 
L 1581 1875 
L 2323 2106 
L 2259 2541 
L 1581 2349 
L 1581 3635 
L 2285 3635 
L 2285 4083 
L 1581 4083 
L 1581 5376 
L 1114 5376 
z
" transform="scale(0.015625)"/>
      <path id="NotoSansCJKjp-Regular-80fd" d="M 2131 4774 
C 2278 4576 2432 4339 2560 4109 
L 1248 4058 
C 1446 4422 1651 4864 1824 5261 
L 1331 5382 
C 1197 4979 966 4442 742 4038 
L 256 4019 
L 294 3552 
C 960 3590 1882 3635 2784 3693 
C 2854 3552 2912 3424 2950 3309 
L 3366 3494 
C 3226 3891 2867 4486 2528 4928 
L 2131 4774 
z
M 2451 2688 
L 2451 2138 
L 1088 2138 
L 1088 2688 
L 2451 2688 
z
M 640 3098 
L 640 -506 
L 1088 -506 
L 1088 800 
L 2451 800 
L 2451 51 
C 2451 -32 2432 -58 2349 -58 
C 2253 -64 1984 -64 1683 -51 
C 1747 -179 1818 -365 1843 -493 
C 2246 -493 2522 -486 2701 -416 
C 2874 -339 2925 -205 2925 45 
L 2925 3098 
L 640 3098 
z
M 1088 1760 
L 2451 1760 
L 2451 1178 
L 1088 1178 
L 1088 1760 
z
M 5491 4896 
C 5126 4704 4550 4474 4006 4288 
L 4006 5363 
L 3526 5363 
L 3526 3238 
C 3526 2707 3686 2566 4307 2566 
C 4429 2566 5267 2566 5408 2566 
C 5920 2566 6061 2771 6118 3558 
C 5984 3590 5786 3661 5683 3744 
C 5658 3110 5613 3002 5363 3002 
C 5184 3002 4480 3002 4352 3002 
C 4058 3002 4006 3040 4006 3245 
L 4006 3904 
C 4621 4083 5306 4307 5811 4538 
L 5491 4896 
z
M 5568 2042 
C 5197 1805 4582 1555 4000 1363 
L 4000 2387 
L 3526 2387 
L 3526 224 
C 3526 -314 3693 -454 4320 -454 
C 4454 -454 5318 -454 5459 -454 
C 5997 -454 6138 -224 6195 634 
C 6061 666 5875 742 5760 819 
C 5734 96 5690 -26 5421 -26 
C 5229 -26 4506 -26 4365 -26 
C 4058 -26 4000 13 4000 224 
L 4000 966 
C 4646 1146 5382 1395 5882 1683 
L 5568 2042 
z
" transform="scale(0.015625)"/>
      <path id="NotoSansCJKjp-Regular-529b" d="M 2624 5363 
L 2624 4256 
L 2624 3981 
L 531 3981 
L 531 3488 
L 2598 3488 
C 2502 2285 2080 877 339 -160 
C 461 -243 634 -422 710 -538 
C 2573 595 3008 2157 3098 3488 
L 5293 3488 
C 5165 1229 5024 320 4794 102 
C 4717 19 4634 0 4499 0 
C 4339 0 3930 6 3488 45 
C 3584 -96 3642 -307 3654 -448 
C 4051 -467 4461 -480 4678 -461 
C 4928 -435 5075 -390 5229 -198 
C 5517 115 5645 1075 5792 3725 
C 5798 3795 5805 3981 5805 3981 
L 3123 3981 
L 3123 4256 
L 3123 5363 
L 2624 5363 
z
" transform="scale(0.015625)"/>
     </defs>
     <use xlink:href="#NotoSansCJKjp-Regular-62b5"/>
     <use xlink:href="#NotoSansCJKjp-Regular-62bc" transform="translate(99.999985 0)"/>
     <use xlink:href="#NotoSansCJKjp-Regular-80fd" transform="translate(199.999969 0)"/>
     <use xlink:href="#NotoSansCJKjp-Regular-529b" transform="translate(299.999954 0)"/>
    </g>
    <!-- collateral -->
    <g transform="translate(58.84125 118.654812) scale(0.12 -0.12)">
     <defs>
      <path id="NotoSansCJKjp-Regular-63" d="M 1958 -83 
C 2374 -83 2771 83 3085 352 
L 2829 749 
C 2611 557 2330 403 2010 403 
C 1370 403 934 934 934 1734 
C 934 2534 1395 3072 2029 3072 
C 2298 3072 2522 2950 2720 2771 
L 3014 3155 
C 2771 3373 2458 3565 2003 3565 
C 1107 3565 333 2893 333 1734 
C 333 582 1037 -83 1958 -83 
z
" transform="scale(0.015625)"/>
      <path id="NotoSansCJKjp-Regular-6f" d="M 1939 -83 
C 2790 -83 3546 582 3546 1734 
C 3546 2893 2790 3565 1939 3565 
C 1088 3565 333 2893 333 1734 
C 333 582 1088 -83 1939 -83 
z
M 1939 403 
C 1338 403 934 934 934 1734 
C 934 2534 1338 3072 1939 3072 
C 2541 3072 2950 2534 2950 1734 
C 2950 934 2541 403 1939 403 
z
" transform="scale(0.015625)"/>
      <path id="NotoSansCJKjp-Regular-6c" d="M 1203 -83 
C 1363 -83 1459 -58 1542 -32 
L 1459 416 
C 1395 403 1370 403 1338 403 
C 1248 403 1178 474 1178 653 
L 1178 5094 
L 589 5094 
L 589 691 
C 589 198 768 -83 1203 -83 
z
" transform="scale(0.015625)"/>
      <path id="NotoSansCJKjp-Regular-61" d="M 1389 -83 
C 1818 -83 2208 141 2541 416 
L 2560 416 
L 2611 0 
L 3091 0 
L 3091 2138 
C 3091 3002 2739 3565 1888 3565 
C 1325 3565 838 3315 525 3110 
L 749 2707 
C 1024 2893 1389 3078 1792 3078 
C 2362 3078 2509 2650 2509 2202 
C 1030 2035 378 1658 378 902 
C 378 275 806 -83 1389 -83 
z
M 1555 390 
C 1210 390 941 544 941 941 
C 941 1389 1338 1677 2509 1811 
L 2509 845 
C 2170 544 1888 390 1555 390 
z
" transform="scale(0.015625)"/>
      <path id="NotoSansCJKjp-Regular-74" d="M 1677 -83 
C 1894 -83 2125 -19 2323 45 
L 2208 486 
C 2093 435 1939 390 1811 390 
C 1408 390 1274 634 1274 1056 
L 1274 3002 
L 2221 3002 
L 2221 3475 
L 1274 3475 
L 1274 4454 
L 787 4454 
L 723 3475 
L 173 3443 
L 173 3002 
L 691 3002 
L 691 1075 
C 691 378 941 -83 1677 -83 
z
" transform="scale(0.015625)"/>
      <path id="NotoSansCJKjp-Regular-65" d="M 1997 -83 
C 2464 -83 2835 70 3136 269 
L 2931 659 
C 2669 486 2400 384 2061 384 
C 1402 384 947 858 909 1600 
L 3251 1600 
C 3264 1690 3277 1805 3277 1933 
C 3277 2925 2778 3565 1888 3565 
C 1094 3565 333 2867 333 1734 
C 333 589 1069 -83 1997 -83 
z
M 902 2016 
C 973 2707 1408 3098 1901 3098 
C 2445 3098 2765 2720 2765 2016 
L 902 2016 
z
" transform="scale(0.015625)"/>
      <path id="NotoSansCJKjp-Regular-72" d="M 589 0 
L 1178 0 
L 1178 2234 
C 1408 2822 1760 3040 2048 3040 
C 2195 3040 2272 3021 2387 2982 
L 2496 3488 
C 2387 3546 2278 3565 2125 3565 
C 1741 3565 1382 3283 1139 2842 
L 1126 2842 
L 1069 3475 
L 589 3475 
L 589 0 
z
" transform="scale(0.015625)"/>
     </defs>
     <use xlink:href="#NotoSansCJKjp-Regular-63"/>
     <use xlink:href="#NotoSansCJKjp-Regular-6f" transform="translate(50.999985 0)"/>
     <use xlink:href="#NotoSansCJKjp-Regular-6c" transform="translate(111.599976 0)"/>
     <use xlink:href="#NotoSansCJKjp-Regular-6c" transform="translate(139.999969 0)"/>
     <use xlink:href="#NotoSansCJKjp-Regular-61" transform="translate(168.399963 0)"/>
     <use xlink:href="#NotoSansCJKjp-Regular-74" transform="translate(224.699951 0)"/>
     <use xlink:href="#NotoSansCJKjp-Regular-65" transform="translate(262.399948 0)"/>
     <use xlink:href="#NotoSansCJKjp-Regular-72" transform="translate(317.799942 0)"/>
     <use xlink:href="#NotoSansCJKjp-Regular-61" transform="translate(356.59993 0)"/>
     <use xlink:href="#NotoSansCJKjp-Regular-6c" transform="translate(412.899918 0)"/>
    </g>
   </g>
   <g id="text_2">
    <!-- 银行可得性 -->
    <g transform="translate(55.32 187.604562) scale(0.12 -0.12)">
     <defs>
      <path id="NotoSansCJKjp-Regular-94f6" d="M 5306 3494 
L 5306 2714 
L 3430 2714 
L 3430 3494 
L 5306 3494 
z
M 5306 3898 
L 3430 3898 
L 3430 4672 
L 5306 4672 
L 5306 3898 
z
M 2944 -512 
C 3066 -429 3264 -358 4589 0 
C 4570 102 4563 301 4563 435 
L 3430 160 
L 3430 2291 
L 4013 2291 
C 4320 1011 4902 19 5888 -467 
C 5958 -333 6093 -147 6202 -51 
C 5702 160 5299 518 4992 973 
C 5344 1178 5766 1466 6086 1734 
L 5779 2074 
C 5530 1830 5126 1530 4794 1306 
C 4634 1606 4506 1939 4410 2291 
L 5747 2291 
L 5747 5094 
L 2963 5094 
L 2963 339 
C 2963 70 2829 -58 2726 -115 
C 2797 -211 2906 -403 2944 -512 
z
M 1139 5357 
C 947 4762 602 4186 218 3808 
C 294 3706 422 3462 467 3360 
C 691 3584 902 3872 1088 4186 
L 2592 4186 
L 2592 4646 
L 1331 4646 
C 1427 4838 1504 5037 1574 5235 
L 1139 5357 
z
M 1222 -467 
C 1338 -358 1517 -256 2720 371 
C 2688 467 2650 653 2637 781 
L 1728 339 
L 1728 1760 
L 2650 1760 
L 2650 2202 
L 1728 2202 
L 1728 3066 
L 2509 3066 
L 2509 3501 
L 704 3501 
L 704 3066 
L 1267 3066 
L 1267 2202 
L 371 2202 
L 371 1760 
L 1267 1760 
L 1267 358 
C 1267 109 1126 0 1024 -51 
C 1101 -154 1197 -352 1222 -467 
z
" transform="scale(0.015625)"/>
      <path id="NotoSansCJKjp-Regular-884c" d="M 2784 4992 
L 2784 4531 
L 5933 4531 
L 5933 4992 
L 2784 4992 
z
M 1709 5382 
C 1382 4915 762 4346 224 3981 
C 307 3891 442 3706 506 3597 
C 1082 4006 1741 4634 2170 5190 
L 1709 5382 
z
M 2502 3226 
L 2502 2765 
L 4659 2765 
L 4659 109 
C 4659 6 4614 -26 4493 -32 
C 4378 -38 3942 -38 3488 -19 
C 3558 -160 3629 -358 3648 -493 
C 4275 -493 4640 -493 4858 -422 
C 5069 -339 5146 -192 5146 102 
L 5146 2765 
L 6112 2765 
L 6112 3226 
L 2502 3226 
z
M 1965 4006 
C 1523 3277 819 2534 160 2061 
C 256 1965 429 1754 499 1658 
C 736 1850 986 2080 1229 2330 
L 1229 -531 
L 1702 -531 
L 1702 2854 
C 1971 3174 2214 3507 2419 3840 
L 1965 4006 
z
" transform="scale(0.015625)"/>
      <path id="NotoSansCJKjp-Regular-53ef" d="M 358 4922 
L 358 4442 
L 4781 4442 
L 4781 186 
C 4781 51 4736 13 4595 0 
C 4442 0 3917 -6 3405 19 
C 3482 -122 3571 -358 3603 -499 
C 4237 -499 4685 -499 4941 -416 
C 5190 -333 5280 -166 5280 179 
L 5280 4442 
L 6067 4442 
L 6067 4922 
L 358 4922 
z
M 1478 3040 
L 3162 3040 
L 3162 1568 
L 1478 1568 
L 1478 3040 
z
M 1011 3501 
L 1011 595 
L 1478 595 
L 1478 1107 
L 3635 1107 
L 3635 3501 
L 1011 3501 
z
" transform="scale(0.015625)"/>
      <path id="NotoSansCJKjp-Regular-5f97" d="M 3085 3949 
L 5203 3949 
L 5203 3424 
L 3085 3424 
L 3085 3949 
z
M 3085 4813 
L 5203 4813 
L 5203 4301 
L 3085 4301 
L 3085 4813 
z
M 2618 5178 
L 2618 3059 
L 5683 3059 
L 5683 5178 
L 2618 5178 
z
M 2630 922 
C 2918 640 3264 243 3424 -13 
L 3789 250 
C 3622 499 3270 877 2970 1146 
L 2630 922 
z
M 1606 5363 
C 1325 4909 749 4371 243 4045 
C 320 3949 442 3757 499 3648 
C 1069 4032 1683 4627 2061 5184 
L 1606 5363 
z
M 2074 1664 
L 2074 1248 
L 4659 1248 
L 4659 26 
C 4659 -58 4634 -77 4531 -83 
C 4435 -96 4122 -96 3757 -83 
C 3821 -211 3891 -384 3917 -518 
C 4390 -518 4698 -512 4890 -442 
C 5088 -371 5139 -243 5139 19 
L 5139 1248 
L 6099 1248 
L 6099 1664 
L 5139 1664 
L 5139 2214 
L 5990 2214 
L 5990 2624 
L 2221 2624 
L 2221 2214 
L 4659 2214 
L 4659 1664 
L 2074 1664 
z
M 1722 3949 
C 1338 3290 723 2630 141 2208 
C 218 2093 352 1843 390 1741 
C 640 1939 896 2182 1146 2445 
L 1146 -506 
L 1613 -506 
L 1613 2995 
C 1811 3251 1990 3514 2144 3782 
L 1722 3949 
z
" transform="scale(0.015625)"/>
      <path id="NotoSansCJKjp-Regular-6027" d="M 1101 5376 
L 1101 -506 
L 1581 -506 
L 1581 5376 
L 1101 5376 
z
M 512 4160 
C 467 3642 352 2938 179 2509 
L 557 2381 
C 723 2848 838 3584 877 4109 
L 512 4160 
z
M 1626 4198 
C 1811 3846 2003 3379 2067 3091 
L 2426 3277 
C 2355 3546 2157 4000 1965 4346 
L 1626 4198 
z
M 2138 173 
L 2138 -282 
L 6074 -282 
L 6074 173 
L 4461 173 
L 4461 1779 
L 5779 1779 
L 5779 2227 
L 4461 2227 
L 4461 3558 
L 5920 3558 
L 5920 4019 
L 4461 4019 
L 4461 5350 
L 3974 5350 
L 3974 4019 
L 3181 4019 
C 3264 4333 3341 4672 3405 5005 
L 2938 5082 
C 2790 4211 2534 3341 2163 2784 
C 2278 2733 2496 2624 2592 2560 
C 2758 2835 2906 3174 3034 3558 
L 3974 3558 
L 3974 2227 
L 2618 2227 
L 2618 1779 
L 3974 1779 
L 3974 173 
L 2138 173 
z
" transform="scale(0.015625)"/>
     </defs>
     <use xlink:href="#NotoSansCJKjp-Regular-94f6"/>
     <use xlink:href="#NotoSansCJKjp-Regular-884c" transform="translate(99.999985 0)"/>
     <use xlink:href="#NotoSansCJKjp-Regular-53ef" transform="translate(199.999969 0)"/>
     <use xlink:href="#NotoSansCJKjp-Regular-5f97" transform="translate(299.999954 0)"/>
     <use xlink:href="#NotoSansCJKjp-Regular-6027" transform="translate(399.999939 0)"/>
    </g>
    <!-- bank_access -->
    <g transform="translate(49.47 201.814812) scale(0.12 -0.12)">
     <defs>
      <path id="NotoSansCJKjp-Regular-62" d="M 2118 -83 
C 2912 -83 3629 602 3629 1792 
C 3629 2867 3142 3565 2246 3565 
C 1856 3565 1472 3347 1152 3078 
L 1178 3699 
L 1178 5094 
L 589 5094 
L 589 0 
L 1056 0 
L 1107 358 
L 1133 358 
C 1434 83 1798 -83 2118 -83 
z
M 2022 410 
C 1792 410 1478 499 1178 768 
L 1178 2598 
C 1504 2906 1811 3072 2099 3072 
C 2765 3072 3021 2560 3021 1786 
C 3021 928 2598 410 2022 410 
z
" transform="scale(0.015625)"/>
      <path id="NotoSansCJKjp-Regular-6e" d="M 589 0 
L 1178 0 
L 1178 2522 
C 1523 2874 1766 3053 2125 3053 
C 2586 3053 2784 2778 2784 2125 
L 2784 0 
L 3366 0 
L 3366 2202 
C 3366 3085 3034 3565 2304 3565 
C 1830 3565 1466 3302 1139 2970 
L 1126 2970 
L 1069 3475 
L 589 3475 
L 589 0 
z
" transform="scale(0.015625)"/>
      <path id="NotoSansCJKjp-Regular-6b" d="M 589 0 
L 1165 0 
L 1165 915 
L 1818 1677 
L 2835 0 
L 3469 0 
L 2157 2074 
L 3315 3475 
L 2662 3475 
L 1190 1645 
L 1165 1645 
L 1165 5094 
L 589 5094 
L 589 0 
z
" transform="scale(0.015625)"/>
      <path id="NotoSansCJKjp-Regular-5f" d="M 83 -896 
L 3488 -896 
L 3488 -512 
L 83 -512 
L 83 -896 
z
" transform="scale(0.015625)"/>
      <path id="NotoSansCJKjp-Regular-73" d="M 1498 -83 
C 2317 -83 2758 384 2758 947 
C 2758 1606 2208 1811 1702 2003 
C 1312 2150 954 2278 954 2605 
C 954 2880 1158 3110 1600 3110 
C 1907 3110 2150 2976 2387 2803 
L 2669 3168 
C 2406 3386 2022 3565 1594 3565 
C 832 3565 397 3130 397 2579 
C 397 1984 922 1754 1408 1574 
C 1792 1434 2202 1267 2202 915 
C 2202 614 1978 371 1517 371 
C 1101 371 794 538 486 787 
L 205 397 
C 531 122 1005 -83 1498 -83 
z
" transform="scale(0.015625)"/>
     </defs>
     <use xlink:href="#NotoSansCJKjp-Regular-62"/>
     <use xlink:href="#NotoSansCJKjp-Regular-61" transform="translate(61.799988 0)"/>
     <use xlink:href="#NotoSansCJKjp-Regular-6e" transform="translate(118.099976 0)"/>
     <use xlink:href="#NotoSansCJKjp-Regular-6b" transform="translate(179.09996 0)"/>
     <use xlink:href="#NotoSansCJKjp-Regular-5f" transform="translate(234.299957 0)"/>
     <use xlink:href="#NotoSansCJKjp-Regular-61" transform="translate(290.199951 0)"/>
     <use xlink:href="#NotoSansCJKjp-Regular-63" transform="translate(346.499939 0)"/>
     <use xlink:href="#NotoSansCJKjp-Regular-63" transform="translate(397.499924 0)"/>
     <use xlink:href="#NotoSansCJKjp-Regular-65" transform="translate(448.499908 0)"/>
     <use xlink:href="#NotoSansCJKjp-Regular-73" transform="translate(503.899902 0)"/>
     <use xlink:href="#NotoSansCJKjp-Regular-73" transform="translate(550.69989 0)"/>
    </g>
   </g>
   <g id="text_3">
    <!-- 投资机会 -->
    <g transform="translate(61.32 256.874563) scale(0.12 -0.12)">
     <defs>
      <path id="NotoSansCJKjp-Regular-6295" d="M 3059 5120 
L 3059 4480 
C 3059 4032 2950 3488 2317 3085 
C 2406 3021 2579 2835 2637 2739 
C 3347 3206 3514 3904 3514 4467 
L 3514 4672 
L 4717 4672 
L 4717 3584 
C 4717 3130 4826 3008 5235 3008 
C 5318 3008 5619 3008 5709 3008 
C 6067 3008 6182 3206 6221 3994 
C 6099 4026 5907 4096 5811 4173 
C 5798 3514 5779 3418 5658 3418 
C 5594 3418 5357 3418 5306 3418 
C 5197 3418 5171 3443 5171 3584 
L 5171 5120 
L 3059 5120 
z
M 5126 2170 
C 4909 1677 4589 1261 4198 922 
C 3821 1267 3526 1690 3334 2170 
L 5126 2170 
z
M 2675 2605 
L 2675 2170 
L 3238 2170 
L 2886 2061 
C 3110 1504 3424 1024 3814 634 
C 3309 288 2714 51 2099 -90 
C 2189 -192 2304 -390 2355 -518 
C 3014 -346 3642 -77 4179 307 
C 4659 -70 5242 -346 5920 -512 
C 5990 -384 6131 -186 6240 -83 
C 5594 58 5037 294 4570 621 
C 5101 1094 5510 1709 5754 2496 
L 5446 2624 
L 5357 2605 
L 2675 2605 
z
M 1222 5376 
L 1222 4109 
L 288 4109 
L 288 3661 
L 1222 3661 
L 1222 2234 
C 838 2118 480 2010 205 1939 
L 365 1446 
L 1222 1741 
L 1222 51 
C 1222 -38 1184 -64 1101 -70 
C 1018 -70 749 -70 461 -64 
C 525 -192 589 -390 608 -506 
C 1037 -512 1299 -493 1466 -422 
C 1632 -346 1696 -218 1696 58 
L 1696 1907 
L 2413 2157 
L 2349 2573 
L 1696 2374 
L 1696 3661 
L 2413 3661 
L 2413 4109 
L 1696 4109 
L 1696 5376 
L 1222 5376 
z
" transform="scale(0.015625)"/>
      <path id="NotoSansCJKjp-Regular-8d44" d="M 544 4813 
C 1011 4640 1594 4339 1882 4115 
L 2138 4486 
C 1837 4710 1248 4986 787 5146 
L 544 4813 
z
M 314 3168 
L 454 2726 
C 966 2899 1626 3110 2246 3322 
L 2170 3744 
C 1478 3520 787 3302 314 3168 
z
M 1165 2381 
L 1165 595 
L 1638 595 
L 1638 1933 
L 4813 1933 
L 4813 640 
L 5312 640 
L 5312 2381 
L 1165 2381 
z
M 3027 1747 
C 2842 685 2349 122 320 -128 
C 397 -230 499 -410 531 -525 
C 2694 -218 3283 467 3501 1747 
L 3027 1747 
z
M 3302 480 
C 4102 218 5165 -205 5702 -486 
L 5984 -90 
C 5427 192 4358 589 3565 832 
L 3302 480 
z
M 3098 5350 
C 2931 4902 2605 4365 2080 3974 
C 2189 3917 2342 3776 2419 3674 
C 2694 3898 2912 4147 3098 4410 
L 3853 4410 
C 3654 3738 3232 3149 2086 2842 
C 2176 2765 2298 2605 2342 2496 
C 3226 2758 3738 3181 4045 3699 
C 4448 3155 5069 2739 5786 2541 
C 5850 2662 5978 2829 6074 2918 
C 5280 3091 4582 3520 4230 4070 
C 4269 4179 4307 4294 4339 4410 
L 5293 4410 
C 5197 4198 5088 3987 4998 3840 
L 5414 3718 
C 5574 3968 5766 4358 5933 4710 
L 5581 4806 
L 5504 4781 
L 3322 4781 
C 3418 4947 3494 5120 3558 5286 
L 3098 5350 
z
" transform="scale(0.015625)"/>
      <path id="NotoSansCJKjp-Regular-673a" d="M 3187 5011 
L 3187 2957 
C 3187 1965 3098 691 2234 -205 
C 2342 -262 2528 -422 2598 -512 
C 3520 435 3654 1888 3654 2957 
L 3654 4557 
L 4858 4557 
L 4858 435 
C 4858 -115 4896 -230 5005 -326 
C 5101 -410 5242 -448 5370 -448 
C 5453 -448 5600 -448 5696 -448 
C 5830 -448 5946 -422 6035 -358 
C 6131 -294 6182 -186 6214 0 
C 6240 160 6266 634 6266 998 
C 6144 1037 5997 1114 5901 1203 
C 5894 774 5888 435 5869 288 
C 5862 141 5843 83 5805 45 
C 5779 13 5728 0 5677 0 
C 5613 0 5536 0 5491 0 
C 5440 0 5408 13 5376 38 
C 5344 64 5331 186 5331 397 
L 5331 5011 
L 3187 5011 
z
M 1395 5376 
L 1395 4006 
L 333 4006 
L 333 3546 
L 1331 3546 
C 1101 2656 634 1658 179 1120 
C 256 1005 378 813 429 685 
C 787 1126 1133 1850 1395 2598 
L 1395 -506 
L 1862 -506 
L 1862 2432 
C 2112 2112 2413 1715 2541 1498 
L 2842 1894 
C 2694 2061 2086 2746 1862 2970 
L 1862 3546 
L 2810 3546 
L 2810 4006 
L 1862 4006 
L 1862 5376 
L 1395 5376 
z
" transform="scale(0.015625)"/>
      <path id="NotoSansCJKjp-Regular-4f1a" d="M 1664 3392 
L 1664 2944 
L 4717 2944 
L 4717 3392 
L 1664 3392 
z
M 3174 4902 
C 3776 4077 4902 3213 5894 2739 
C 5984 2874 6099 3053 6208 3168 
C 5190 3584 4077 4416 3398 5370 
L 2899 5370 
C 2406 4550 1338 3616 230 3098 
C 333 2989 461 2816 518 2701 
C 1606 3245 2656 4128 3174 4902 
z
M 3840 1197 
C 4128 947 4429 640 4691 333 
L 2093 230 
C 2349 678 2624 1235 2854 1709 
L 5875 1709 
L 5875 2163 
L 570 2163 
L 570 1709 
L 2259 1709 
C 2080 1242 1811 653 1562 218 
L 621 186 
L 685 -288 
C 1792 -243 3456 -179 5037 -96 
C 5158 -256 5261 -403 5338 -531 
L 5766 -262 
C 5472 218 4838 915 4250 1421 
L 3840 1197 
z
" transform="scale(0.015625)"/>
     </defs>
     <use xlink:href="#NotoSansCJKjp-Regular-6295"/>
     <use xlink:href="#NotoSansCJKjp-Regular-8d44" transform="translate(99.999985 0)"/>
     <use xlink:href="#NotoSansCJKjp-Regular-673a" transform="translate(199.999969 0)"/>
     <use xlink:href="#NotoSansCJKjp-Regular-4f1a" transform="translate(299.999954 0)"/>
    </g>
    <!-- opportunity -->
    <g transform="translate(51.67875 271.084812) scale(0.12 -0.12)">
     <defs>
      <path id="NotoSansCJKjp-Regular-70" d="M 589 -1466 
L 1178 -1466 
L 1178 -288 
L 1158 320 
C 1472 58 1805 -83 2118 -83 
C 2912 -83 3629 602 3629 1792 
C 3629 2867 3142 3565 2246 3565 
C 1843 3565 1453 3334 1139 3072 
L 1126 3072 
L 1069 3475 
L 589 3475 
L 589 -1466 
z
M 2022 410 
C 1792 410 1485 499 1178 768 
L 1178 2598 
C 1510 2906 1811 3072 2099 3072 
C 2765 3072 3021 2560 3021 1786 
C 3021 928 2598 410 2022 410 
z
" transform="scale(0.015625)"/>
      <path id="NotoSansCJKjp-Regular-75" d="M 1606 -83 
C 2080 -83 2426 166 2752 544 
L 2771 544 
L 2816 0 
L 3302 0 
L 3302 3475 
L 2720 3475 
L 2720 1011 
C 2387 602 2138 422 1779 422 
C 1318 422 1126 698 1126 1344 
L 1126 3475 
L 538 3475 
L 538 1274 
C 538 384 870 -83 1606 -83 
z
" transform="scale(0.015625)"/>
      <path id="NotoSansCJKjp-Regular-69" d="M 589 0 
L 1178 0 
L 1178 3475 
L 589 3475 
L 589 0 
z
M 883 4192 
C 1114 4192 1274 4346 1274 4582 
C 1274 4806 1114 4960 883 4960 
C 653 4960 499 4806 499 4582 
C 499 4346 653 4192 883 4192 
z
" transform="scale(0.015625)"/>
      <path id="NotoSansCJKjp-Regular-79" d="M 646 -1498 
C 1338 -1498 1702 -973 1946 -294 
L 3251 3475 
L 2682 3475 
L 2054 1549 
C 1965 1235 1862 883 1773 563 
L 1741 563 
C 1619 890 1504 1242 1395 1549 
L 691 3475 
L 83 3475 
L 1478 -6 
L 1402 -269 
C 1254 -698 1011 -1018 621 -1018 
C 525 -1018 422 -986 352 -960 
L 237 -1427 
C 346 -1472 486 -1498 646 -1498 
z
" transform="scale(0.015625)"/>
     </defs>
     <use xlink:href="#NotoSansCJKjp-Regular-6f"/>
     <use xlink:href="#NotoSansCJKjp-Regular-70" transform="translate(60.599991 0)"/>
     <use xlink:href="#NotoSansCJKjp-Regular-70" transform="translate(122.599976 0)"/>
     <use xlink:href="#NotoSansCJKjp-Regular-6f" transform="translate(184.59996 0)"/>
     <use xlink:href="#NotoSansCJKjp-Regular-72" transform="translate(245.199951 0)"/>
     <use xlink:href="#NotoSansCJKjp-Regular-74" transform="translate(283.999939 0)"/>
     <use xlink:href="#NotoSansCJKjp-Regular-75" transform="translate(321.699936 0)"/>
     <use xlink:href="#NotoSansCJKjp-Regular-6e" transform="translate(382.399933 0)"/>
     <use xlink:href="#NotoSansCJKjp-Regular-69" transform="translate(443.399918 0)"/>
     <use xlink:href="#NotoSansCJKjp-Regular-74" transform="translate(470.899902 0)"/>
     <use xlink:href="#NotoSansCJKjp-Regular-79" transform="translate(508.599899 0)"/>
    </g>
   </g>
   <g id="text_4">
    <!-- 第一部分 -->
    <g transform="translate(217.56 132.772812) scale(0.12 -0.12)">
     <defs>
      <path id="NotoSansCJKjp-Regular-7b2c" d="M 1133 2566 
C 1037 2061 877 1421 742 1005 
L 1216 934 
L 1280 1158 
L 2547 1158 
C 1965 640 1069 198 275 -26 
C 378 -115 518 -288 589 -410 
C 1414 -134 2342 390 2963 1005 
L 2963 -512 
L 3430 -512 
L 3430 1158 
L 5363 1158 
C 5299 576 5229 326 5139 237 
C 5082 192 5024 186 4909 186 
C 4794 179 4493 186 4179 218 
C 4256 96 4307 -90 4314 -224 
C 4646 -243 4960 -243 5120 -230 
C 5299 -218 5421 -179 5530 -70 
C 5690 90 5779 480 5869 1376 
C 5875 1440 5882 1568 5882 1568 
L 3430 1568 
L 3430 2163 
L 5510 2163 
L 5510 3622 
L 826 3622 
L 826 3213 
L 2963 3213 
L 2963 2566 
L 1133 2566 
z
M 1523 2163 
L 2963 2163 
L 2963 1568 
L 1382 1568 
L 1523 2163 
z
M 3430 3213 
L 5037 3213 
L 5037 2566 
L 3430 2566 
L 3430 3213 
z
M 1178 5408 
C 966 4838 614 4269 211 3898 
C 326 3834 518 3706 608 3635 
C 819 3846 1024 4128 1210 4435 
L 1446 4435 
C 1581 4179 1702 3878 1747 3674 
L 2170 3840 
C 2125 3994 2029 4224 1926 4435 
L 3110 4435 
L 3110 4819 
L 1421 4819 
C 1498 4973 1562 5126 1626 5286 
L 1178 5408 
z
M 3699 5408 
C 3488 4832 3104 4294 2650 3942 
C 2765 3885 2963 3744 3046 3667 
C 3283 3872 3507 4141 3706 4435 
L 4160 4435 
C 4352 4179 4544 3872 4621 3661 
L 5043 3827 
C 4973 4000 4826 4230 4672 4435 
L 6099 4435 
L 6099 4819 
L 3936 4819 
C 4019 4973 4090 5133 4154 5293 
L 3699 5408 
z
" transform="scale(0.015625)"/>
      <path id="NotoSansCJKjp-Regular-4e00" d="M 282 2758 
L 282 2234 
L 6144 2234 
L 6144 2758 
L 282 2758 
z
" transform="scale(0.015625)"/>
      <path id="NotoSansCJKjp-Regular-90e8" d="M 269 2893 
L 269 2458 
L 3578 2458 
L 3578 2893 
L 269 2893 
z
M 832 4019 
C 960 3686 1075 3258 1101 2970 
L 1530 3078 
C 1491 3354 1376 3782 1229 4102 
L 832 4019 
z
M 2662 4147 
C 2586 3827 2432 3354 2304 3059 
L 2694 2950 
C 2829 3232 2982 3661 3123 4038 
L 2662 4147 
z
M 3840 4998 
L 3840 -512 
L 4307 -512 
L 4307 4544 
L 5523 4544 
C 5318 4032 5043 3334 4768 2797 
C 5421 2234 5606 1747 5613 1350 
C 5613 1114 5562 928 5427 838 
C 5350 794 5254 774 5146 768 
C 5024 762 4838 762 4646 781 
C 4730 640 4774 442 4781 307 
C 4973 294 5178 294 5344 314 
C 5504 333 5645 378 5760 454 
C 5984 602 6080 902 6080 1299 
C 6074 1754 5914 2259 5267 2861 
C 5568 3443 5901 4186 6157 4794 
L 5811 5018 
L 5728 4998 
L 3840 4998 
z
M 1715 5350 
L 1715 4666 
L 429 4666 
L 429 4237 
L 3488 4237 
L 3488 4666 
L 2182 4666 
L 2182 5350 
L 1715 5350 
z
M 698 1894 
L 698 -518 
L 1146 -518 
L 1146 -141 
L 2752 -141 
L 2752 -486 
L 3219 -486 
L 3219 1894 
L 698 1894 
z
M 1146 288 
L 1146 1472 
L 2752 1472 
L 2752 288 
L 1146 288 
z
" transform="scale(0.015625)"/>
      <path id="NotoSansCJKjp-Regular-5206" d="M 2074 5248 
C 1677 4256 966 3373 147 2829 
C 262 2739 474 2554 563 2451 
C 1363 3059 2118 4019 2586 5101 
L 2074 5248 
z
M 4307 5261 
L 3846 5075 
C 4326 4122 5139 3085 5850 2509 
C 5939 2643 6118 2829 6253 2931 
C 5549 3424 4723 4397 4307 5261 
z
M 1197 2957 
L 1197 2490 
L 2509 2490 
C 2368 1402 2010 378 486 -122 
C 595 -224 736 -416 800 -544 
C 2445 51 2854 1216 3027 2490 
L 4685 2490 
C 4608 864 4512 224 4346 58 
C 4282 -6 4205 -26 4077 -26 
C 3923 -26 3533 -19 3110 19 
C 3200 -115 3258 -320 3270 -461 
C 3674 -486 4070 -493 4288 -474 
C 4506 -454 4653 -410 4781 -243 
C 5005 0 5094 736 5190 2726 
C 5197 2790 5197 2957 5197 2957 
L 1197 2957 
z
" transform="scale(0.015625)"/>
     </defs>
     <use xlink:href="#NotoSansCJKjp-Regular-7b2c"/>
     <use xlink:href="#NotoSansCJKjp-Regular-4e00" transform="translate(99.999985 0)"/>
     <use xlink:href="#NotoSansCJKjp-Regular-90e8" transform="translate(199.999969 0)"/>
     <use xlink:href="#NotoSansCJKjp-Regular-5206" transform="translate(299.999954 0)"/>
    </g>
    <!-- 是否获得贷款 -->
    <g transform="translate(205.56 146.983062) scale(0.12 -0.12)">
     <defs>
      <path id="NotoSansCJKjp-Regular-662f" d="M 1510 3885 
L 4845 3885 
L 4845 3360 
L 1510 3360 
L 1510 3885 
z
M 1510 4749 
L 4845 4749 
L 4845 4230 
L 1510 4230 
L 1510 4749 
z
M 1050 5114 
L 1050 2995 
L 5331 2995 
L 5331 5114 
L 1050 5114 
z
M 1478 1914 
C 1312 979 902 256 224 -186 
C 333 -256 518 -435 589 -518 
C 1011 -218 1344 192 1587 698 
C 2112 -186 2938 -384 4230 -384 
L 5984 -384 
C 6010 -250 6086 -38 6163 77 
C 5830 70 4493 64 4250 70 
C 3981 70 3725 77 3494 102 
L 3494 986 
L 5619 986 
L 5619 1408 
L 3494 1408 
L 3494 2125 
L 6035 2125 
L 6035 2554 
L 378 2554 
L 378 2125 
L 3014 2125 
L 3014 186 
C 2458 326 2048 627 1798 1216 
C 1862 1414 1914 1626 1958 1850 
L 1478 1914 
z
" transform="scale(0.015625)"/>
      <path id="NotoSansCJKjp-Regular-5426" d="M 3706 3616 
C 4442 3309 5331 2790 5792 2419 
L 6138 2784 
C 5664 3136 4781 3642 4051 3936 
L 3706 3616 
z
M 1133 1907 
L 1133 -512 
L 1626 -512 
L 1626 -205 
L 4800 -205 
L 4800 -499 
L 5318 -499 
L 5318 1907 
L 1133 1907 
z
M 1626 224 
L 1626 1485 
L 4800 1485 
L 4800 224 
L 1626 224 
z
M 422 5011 
L 422 4557 
L 3258 4557 
C 2515 3776 1363 3142 224 2778 
C 333 2682 493 2458 563 2342 
C 1389 2656 2234 3098 2950 3648 
L 2950 2093 
L 3437 2093 
L 3437 4058 
C 3603 4218 3763 4384 3904 4557 
L 5978 4557 
L 5978 5011 
L 422 5011 
z
" transform="scale(0.015625)"/>
      <path id="NotoSansCJKjp-Regular-83b7" d="M 4538 3546 
C 4870 3315 5242 2976 5414 2733 
L 5760 2995 
C 5581 3238 5197 3565 4864 3776 
L 4538 3546 
z
M 3891 3814 
L 3891 2867 
L 3885 2643 
L 2387 2643 
L 2387 2195 
L 3846 2195 
C 3738 1408 3373 499 2208 -218 
C 2330 -301 2483 -422 2566 -525 
C 3526 70 3974 800 4179 1523 
C 4506 602 5018 -109 5786 -499 
C 5850 -378 5997 -205 6106 -115 
C 5216 275 4666 1126 4384 2195 
L 6029 2195 
L 6029 2643 
L 4339 2643 
L 4339 2867 
L 4339 3814 
L 3891 3814 
z
M 4051 5376 
L 4051 4864 
L 2387 4864 
L 2387 5376 
L 1914 5376 
L 1914 4864 
L 397 4864 
L 397 4429 
L 1914 4429 
L 1914 3904 
L 2387 3904 
L 2387 4429 
L 4051 4429 
L 4051 3936 
L 4525 3936 
L 4525 4429 
L 6029 4429 
L 6029 4864 
L 4525 4864 
L 4525 5376 
L 4051 5376 
z
M 2080 3776 
C 1946 3622 1779 3462 1587 3309 
C 1414 3507 1190 3699 915 3878 
L 602 3622 
C 870 3443 1075 3258 1235 3059 
C 934 2861 595 2675 262 2534 
C 352 2451 486 2310 550 2214 
C 864 2355 1178 2528 1472 2720 
C 1574 2534 1645 2336 1690 2138 
C 1376 1696 762 1216 250 998 
C 352 909 474 749 538 634 
C 947 858 1414 1229 1760 1606 
L 1766 1350 
C 1766 698 1715 243 1562 58 
C 1510 -6 1453 -38 1363 -45 
C 1222 -64 979 -64 691 -45 
C 774 -166 832 -339 838 -474 
C 1101 -486 1338 -486 1549 -448 
C 1690 -429 1805 -365 1888 -269 
C 2144 32 2214 595 2214 1325 
C 2214 1894 2157 2458 1837 2976 
C 2080 3162 2298 3360 2470 3558 
L 2080 3776 
z
" transform="scale(0.015625)"/>
      <path id="NotoSansCJKjp-Regular-8d37" d="M 2912 1914 
L 2912 1478 
C 2912 1018 2771 346 493 -109 
C 608 -205 755 -384 806 -486 
C 3168 58 3418 864 3418 1466 
L 3418 1914 
L 2912 1914 
z
M 3341 410 
C 4090 166 5069 -243 5562 -531 
L 5811 -128 
C 5299 154 4314 544 3578 762 
L 3341 410 
z
M 1229 2624 
L 1229 582 
L 1709 582 
L 1709 2182 
L 4685 2182 
L 4685 608 
L 5178 608 
L 5178 2624 
L 1229 2624 
z
M 4352 5190 
C 4608 5011 4922 4749 5069 4570 
L 5421 4813 
C 5267 4986 4947 5235 4698 5395 
L 4352 5190 
z
M 3053 5357 
C 3085 4992 3174 4659 3302 4352 
L 2170 4269 
L 2208 3878 
L 3494 3974 
C 3936 3245 4634 2790 5363 2790 
C 5779 2790 5952 2950 6029 3590 
C 5901 3629 5754 3699 5658 3789 
C 5626 3366 5574 3238 5376 3238 
C 4890 3226 4384 3520 4019 4019 
L 6067 4173 
L 6029 4557 
L 3789 4390 
C 3648 4672 3546 4998 3514 5357 
L 3053 5357 
z
M 1926 5376 
C 1542 4742 896 4147 250 3776 
C 352 3699 518 3526 595 3437 
C 832 3597 1075 3782 1312 4000 
L 1312 2835 
L 1779 2835 
L 1779 4461 
C 1997 4704 2195 4960 2355 5229 
L 1926 5376 
z
" transform="scale(0.015625)"/>
      <path id="NotoSansCJKjp-Regular-6b3e" d="M 742 1402 
C 627 915 429 435 154 109 
C 256 64 442 -32 525 -96 
C 787 256 1024 787 1158 1318 
L 742 1402 
z
M 2406 1254 
C 2586 941 2784 518 2867 262 
L 3245 442 
C 3162 691 2957 1101 2771 1402 
L 2406 1254 
z
M 1581 5357 
L 1581 4768 
L 326 4768 
L 326 4358 
L 1581 4358 
L 1581 3808 
L 474 3808 
L 474 3405 
L 3155 3405 
L 3155 3808 
L 2035 3808 
L 2035 4358 
L 3283 4358 
L 3283 4768 
L 2035 4768 
L 2035 5357 
L 1581 5357 
z
M 250 2029 
L 250 1619 
L 1587 1619 
L 1587 -19 
C 1587 -83 1568 -102 1491 -102 
C 1421 -109 1197 -109 941 -102 
C 998 -224 1062 -397 1082 -518 
C 1446 -518 1683 -512 1837 -442 
C 1997 -371 2035 -250 2035 -26 
L 2035 1619 
L 3347 1619 
L 3347 2029 
L 250 2029 
z
M 3834 5382 
C 3706 4384 3475 3405 3078 2771 
L 3078 2925 
L 544 2925 
L 544 2522 
L 3078 2522 
L 3078 2726 
C 3194 2662 3398 2522 3475 2451 
C 3686 2810 3859 3264 4006 3776 
L 4352 3776 
L 4352 2899 
C 4358 2368 4166 730 2816 -134 
C 2906 -224 3046 -416 3098 -518 
C 4147 173 4518 1363 4582 1914 
C 4653 1382 4979 134 5888 -512 
C 5958 -403 6099 -211 6189 -102 
C 5011 723 4813 2387 4819 2899 
L 4819 3776 
L 5574 3776 
C 5517 3354 5440 2899 5363 2598 
L 5741 2483 
C 5875 2906 5997 3584 6080 4147 
L 5766 4237 
L 5690 4218 
L 4115 4218 
C 4198 4570 4262 4934 4314 5312 
L 3834 5382 
z
" transform="scale(0.015625)"/>
     </defs>
     <use xlink:href="#NotoSansCJKjp-Regular-662f"/>
     <use xlink:href="#NotoSansCJKjp-Regular-5426" transform="translate(99.999985 0)"/>
     <use xlink:href="#NotoSansCJKjp-Regular-83b7" transform="translate(199.999969 0)"/>
     <use xlink:href="#NotoSansCJKjp-Regular-5f97" transform="translate(299.999954 0)"/>
     <use xlink:href="#NotoSansCJKjp-Regular-8d37" transform="translate(399.999939 0)"/>
     <use xlink:href="#NotoSansCJKjp-Regular-6b3e" transform="translate(499.999924 0)"/>
    </g>
    <!-- Pr(D=1|z) -->
    <g transform="translate(216.120937 161.798563) scale(0.12 -0.12)">
     <defs>
      <path id="NotoSansCJKjp-Regular-50" d="M 646 0 
L 1235 0 
L 1235 1869 
L 2010 1869 
C 3040 1869 3738 2323 3738 3315 
C 3738 4339 3034 4691 1984 4691 
L 646 4691 
L 646 0 
z
M 1235 2349 
L 1235 4211 
L 1907 4211 
C 2733 4211 3149 4000 3149 3315 
C 3149 2643 2758 2349 1933 2349 
L 1235 2349 
z
" transform="scale(0.015625)"/>
      <path id="NotoSansCJKjp-Regular-28" d="M 1530 -1254 
L 1888 -1094 
C 1338 -186 1075 902 1075 1990 
C 1075 3072 1338 4154 1888 5069 
L 1530 5235 
C 941 4275 589 3245 589 1990 
C 589 730 941 -301 1530 -1254 
z
" transform="scale(0.015625)"/>
      <path id="NotoSansCJKjp-Regular-44" d="M 646 0 
L 1843 0 
C 3258 0 4026 877 4026 2362 
C 4026 3859 3258 4691 1818 4691 
L 646 4691 
L 646 0 
z
M 1235 486 
L 1235 4211 
L 1766 4211 
C 2874 4211 3418 3552 3418 2362 
C 3418 1178 2874 486 1766 486 
L 1235 486 
z
" transform="scale(0.015625)"/>
      <path id="NotoSansCJKjp-Regular-3d" d="M 243 2912 
L 3315 2912 
L 3315 3347 
L 243 3347 
L 243 2912 
z
M 243 1376 
L 3315 1376 
L 3315 1811 
L 243 1811 
L 243 1376 
z
" transform="scale(0.015625)"/>
      <path id="NotoSansCJKjp-Regular-31" d="M 563 0 
L 3136 0 
L 3136 486 
L 2195 486 
L 2195 4691 
L 1747 4691 
C 1491 4544 1190 4435 774 4358 
L 774 3987 
L 1613 3987 
L 1613 486 
L 563 486 
L 563 0 
z
" transform="scale(0.015625)"/>
      <path id="NotoSansCJKjp-Regular-7c" d="M 659 -1786 
L 1069 -1786 
L 1069 5363 
L 659 5363 
L 659 -1786 
z
" transform="scale(0.015625)"/>
      <path id="NotoSansCJKjp-Regular-7a" d="M 224 0 
L 2854 0 
L 2854 474 
L 960 474 
L 2797 3162 
L 2797 3475 
L 422 3475 
L 422 3002 
L 2054 3002 
L 224 314 
L 224 0 
z
" transform="scale(0.015625)"/>
      <path id="NotoSansCJKjp-Regular-29" d="M 634 -1254 
C 1222 -301 1574 730 1574 1990 
C 1574 3245 1222 4275 634 5235 
L 269 5069 
C 819 4154 1094 3072 1094 1990 
C 1094 902 819 -186 269 -1094 
L 634 -1254 
z
" transform="scale(0.015625)"/>
     </defs>
     <use xlink:href="#NotoSansCJKjp-Regular-50"/>
     <use xlink:href="#NotoSansCJKjp-Regular-72" transform="translate(63.299988 0)"/>
     <use xlink:href="#NotoSansCJKjp-Regular-28" transform="translate(102.099976 0)"/>
     <use xlink:href="#NotoSansCJKjp-Regular-44" transform="translate(135.899963 0)"/>
     <use xlink:href="#NotoSansCJKjp-Regular-3d" transform="translate(204.699951 0)"/>
     <use xlink:href="#NotoSansCJKjp-Regular-31" transform="translate(260.199936 0)"/>
     <use xlink:href="#NotoSansCJKjp-Regular-7c" transform="translate(315.699921 0)"/>
     <use xlink:href="#NotoSansCJKjp-Regular-7a" transform="translate(342.699905 0)"/>
     <use xlink:href="#NotoSansCJKjp-Regular-29" transform="translate(390.19989 0)"/>
    </g>
   </g>
   <g id="text_5">
    <!-- 第二部分 -->
    <g transform="translate(217.56 221.476812) scale(0.12 -0.12)">
     <defs>
      <path id="NotoSansCJKjp-Regular-4e8c" d="M 902 4461 
L 902 3942 
L 5504 3942 
L 5504 4461 
L 902 4461 
z
M 365 666 
L 365 128 
L 6048 128 
L 6048 666 
L 365 666 
z
" transform="scale(0.015625)"/>
     </defs>
     <use xlink:href="#NotoSansCJKjp-Regular-7b2c"/>
     <use xlink:href="#NotoSansCJKjp-Regular-4e8c" transform="translate(99.999985 0)"/>
     <use xlink:href="#NotoSansCJKjp-Regular-90e8" transform="translate(199.999969 0)"/>
     <use xlink:href="#NotoSansCJKjp-Regular-5206" transform="translate(299.999954 0)"/>
    </g>
    <!-- 获贷后贷多少 -->
    <g transform="translate(205.56 235.687062) scale(0.12 -0.12)">
     <defs>
      <path id="NotoSansCJKjp-Regular-540e" d="M 5222 5325 
C 4352 5088 2829 4902 1446 4787 
L 954 4883 
L 954 3085 
C 954 2099 883 774 205 -198 
C 326 -256 512 -416 582 -518 
C 1338 538 1434 2048 1434 3078 
L 1434 3142 
L 6163 3142 
L 6163 3603 
L 1434 3603 
L 1434 4358 
C 2886 4461 4518 4653 5626 4947 
L 5222 5325 
z
M 1997 2227 
L 1997 -518 
L 2458 -518 
L 2458 -186 
L 5114 -186 
L 5114 -506 
L 5600 -506 
L 5600 2227 
L 1997 2227 
z
M 2458 262 
L 2458 1779 
L 5114 1779 
L 5114 262 
L 2458 262 
z
" transform="scale(0.015625)"/>
      <path id="NotoSansCJKjp-Regular-591a" d="M 2899 5389 
C 2458 4845 1619 4243 461 3840 
C 570 3763 723 3597 794 3482 
C 1120 3610 1427 3757 1709 3910 
C 2106 3706 2554 3424 2835 3187 
C 2086 2778 1222 2483 416 2336 
C 499 2227 602 2035 640 1907 
C 2336 2278 4224 3181 5056 4672 
L 4749 4858 
L 4666 4838 
L 3014 4838 
C 3174 4979 3315 5126 3443 5274 
L 2899 5389 
z
M 3251 3437 
C 2989 3661 2528 3942 2118 4154 
C 2259 4243 2394 4333 2522 4429 
L 4352 4429 
C 4070 4058 3686 3725 3251 3437 
z
M 3936 3194 
C 3443 2586 2464 1920 1114 1498 
C 1216 1414 1350 1242 1408 1126 
C 1798 1267 2157 1421 2490 1587 
C 2925 1344 3418 998 3712 723 
C 2893 288 1901 32 896 -90 
C 979 -198 1069 -390 1107 -525 
C 3194 -224 5190 582 6003 2445 
L 5690 2618 
L 5600 2598 
L 4006 2598 
C 4179 2752 4333 2912 4474 3072 
L 3936 3194 
z
M 4147 973 
C 3853 1242 3360 1574 2925 1818 
C 3123 1933 3309 2054 3488 2182 
L 5325 2182 
C 5043 1696 4634 1293 4147 973 
z
" transform="scale(0.015625)"/>
      <path id="NotoSansCJKjp-Regular-5c11" d="M 2950 5370 
L 2950 2125 
C 2950 2022 2918 1997 2810 1997 
C 2694 1997 2304 1990 1875 1997 
C 1952 1862 2029 1651 2054 1510 
C 2592 1510 2944 1517 3155 1600 
C 3373 1677 3443 1824 3443 2118 
L 3443 5370 
L 2950 5370 
z
M 4339 4403 
C 4890 3738 5478 2835 5696 2253 
L 6176 2515 
C 5933 3110 5331 3981 4774 4627 
L 4339 4403 
z
M 4762 2656 
C 4211 1011 2989 243 723 -51 
C 819 -179 928 -378 979 -525 
C 3354 -160 4659 698 5261 2502 
L 4762 2656 
z
M 1536 4563 
C 1299 3859 806 3002 243 2464 
C 371 2394 563 2266 672 2176 
C 1242 2758 1747 3661 2061 4435 
L 1536 4563 
z
" transform="scale(0.015625)"/>
     </defs>
     <use xlink:href="#NotoSansCJKjp-Regular-83b7"/>
     <use xlink:href="#NotoSansCJKjp-Regular-8d37" transform="translate(99.999985 0)"/>
     <use xlink:href="#NotoSansCJKjp-Regular-540e" transform="translate(199.999969 0)"/>
     <use xlink:href="#NotoSansCJKjp-Regular-8d37" transform="translate(299.999954 0)"/>
     <use xlink:href="#NotoSansCJKjp-Regular-591a" transform="translate(399.999939 0)"/>
     <use xlink:href="#NotoSansCJKjp-Regular-5c11" transform="translate(499.999924 0)"/>
    </g>
    <!-- E(B|B&gt;0,x) -->
    <g transform="translate(213.15 250.502563) scale(0.12 -0.12)">
     <defs>
      <path id="NotoSansCJKjp-Regular-45" d="M 646 0 
L 3418 0 
L 3418 506 
L 1235 506 
L 1235 2214 
L 3014 2214 
L 3014 2720 
L 1235 2720 
L 1235 4192 
L 3347 4192 
L 3347 4691 
L 646 4691 
L 646 0 
z
" transform="scale(0.015625)"/>
      <path id="NotoSansCJKjp-Regular-42" d="M 646 0 
L 2138 0 
C 3187 0 3917 454 3917 1376 
C 3917 2016 3520 2387 2963 2496 
L 2963 2528 
C 3405 2669 3648 3078 3648 3546 
C 3648 4371 2982 4691 2035 4691 
L 646 4691 
L 646 0 
z
M 1235 2701 
L 1235 4224 
L 1958 4224 
C 2694 4224 3066 4019 3066 3469 
C 3066 2989 2739 2701 1933 2701 
L 1235 2701 
z
M 1235 474 
L 1235 2240 
L 2054 2240 
C 2880 2240 3334 1978 3334 1395 
C 3334 762 2861 474 2054 474 
L 1235 474 
z
" transform="scale(0.015625)"/>
      <path id="NotoSansCJKjp-Regular-3e" d="M 243 934 
L 3315 2144 
L 3315 2605 
L 243 3814 
L 243 3309 
L 1754 2746 
L 2714 2387 
L 2714 2362 
L 1754 2003 
L 243 1446 
L 243 934 
z
" transform="scale(0.015625)"/>
      <path id="NotoSansCJKjp-Regular-30" d="M 1779 -83 
C 2669 -83 3238 723 3238 2362 
C 3238 3987 2669 4774 1779 4774 
C 883 4774 320 3987 320 2362 
C 320 723 883 -83 1779 -83 
z
M 1779 390 
C 1248 390 883 986 883 2362 
C 883 3731 1248 4314 1779 4314 
C 2310 4314 2675 3731 2675 2362 
C 2675 986 2310 390 1779 390 
z
" transform="scale(0.015625)"/>
      <path id="NotoSansCJKjp-Regular-2c" d="M 480 -1216 
C 1056 -973 1414 -493 1414 122 
C 1414 550 1229 806 922 806 
C 685 806 480 653 480 397 
C 480 141 678 -13 909 -13 
L 979 -6 
C 973 -390 736 -698 339 -870 
L 480 -1216 
z
" transform="scale(0.015625)"/>
      <path id="NotoSansCJKjp-Regular-78" d="M 96 0 
L 710 0 
L 1178 813 
C 1299 1024 1408 1235 1530 1434 
L 1562 1434 
C 1696 1235 1824 1024 1939 813 
L 2451 0 
L 3091 0 
L 1946 1754 
L 3002 3475 
L 2394 3475 
L 1965 2714 
C 1856 2515 1760 2330 1658 2131 
L 1626 2131 
C 1510 2330 1389 2515 1286 2714 
L 819 3475 
L 186 3475 
L 1242 1811 
L 96 0 
z
" transform="scale(0.015625)"/>
     </defs>
     <use xlink:href="#NotoSansCJKjp-Regular-45"/>
     <use xlink:href="#NotoSansCJKjp-Regular-28" transform="translate(58.899994 0)"/>
     <use xlink:href="#NotoSansCJKjp-Regular-42" transform="translate(92.699982 0)"/>
     <use xlink:href="#NotoSansCJKjp-Regular-7c" transform="translate(158.399979 0)"/>
     <use xlink:href="#NotoSansCJKjp-Regular-42" transform="translate(185.399963 0)"/>
     <use xlink:href="#NotoSansCJKjp-Regular-3e" transform="translate(251.09996 0)"/>
     <use xlink:href="#NotoSansCJKjp-Regular-30" transform="translate(306.599945 0)"/>
     <use xlink:href="#NotoSansCJKjp-Regular-2c" transform="translate(362.09993 0)"/>
     <use xlink:href="#NotoSansCJKjp-Regular-78" transform="translate(389.899918 0)"/>
     <use xlink:href="#NotoSansCJKjp-Regular-29" transform="translate(439.699905 0)"/>
    </g>
   </g>
   <g id="text_6">
    <!-- 非条件期望 -->
    <g transform="translate(367.8 184.229937) scale(0.12 -0.12)">
     <defs>
      <path id="NotoSansCJKjp-Regular-975e" d="M 3693 5344 
L 3693 -512 
L 4173 -512 
L 4173 1043 
L 6131 1043 
L 6131 1498 
L 4173 1498 
L 4173 2522 
L 5888 2522 
L 5888 2963 
L 4173 2963 
L 4173 3949 
L 6022 3949 
L 6022 4403 
L 4173 4403 
L 4173 5344 
L 3693 5344 
z
M 2163 5344 
L 2163 4403 
L 493 4403 
L 493 3949 
L 2163 3949 
L 2163 2963 
L 563 2963 
L 563 2522 
L 2163 2522 
L 2163 2355 
C 2163 2163 2144 1914 2086 1651 
C 1382 1536 730 1434 256 1363 
L 352 890 
L 1933 1178 
C 1709 653 1286 122 493 -218 
C 602 -314 762 -467 838 -582 
C 1811 -122 2272 602 2477 1274 
L 3155 1402 
L 3136 1830 
L 2579 1734 
C 2618 1958 2630 2170 2630 2355 
L 2630 5344 
L 2163 5344 
z
" transform="scale(0.015625)"/>
      <path id="NotoSansCJKjp-Regular-6761" d="M 4243 4371 
C 3981 4026 3635 3718 3226 3462 
C 2810 3712 2464 4006 2195 4346 
L 2227 4371 
L 4243 4371 
z
M 2419 5389 
C 2086 4806 1427 4141 474 3680 
C 582 3610 736 3443 819 3328 
C 1222 3546 1574 3782 1875 4045 
C 2131 3731 2438 3456 2790 3213 
C 2054 2835 1197 2586 371 2451 
C 454 2342 563 2144 595 2016 
C 1504 2195 2438 2490 3232 2944 
C 3974 2534 4858 2266 5830 2125 
C 5894 2253 6022 2451 6118 2554 
C 5210 2669 4378 2893 3674 3219 
C 4211 3597 4666 4058 4966 4621 
L 4646 4813 
L 4557 4787 
L 2592 4787 
C 2726 4954 2842 5120 2944 5286 
L 2419 5389 
z
M 2944 2509 
L 2944 1818 
L 365 1818 
L 365 1389 
L 2522 1389 
C 1958 787 1056 256 237 0 
C 346 -102 486 -282 557 -397 
C 1408 -77 2349 538 2944 1248 
L 2944 -512 
L 3430 -512 
L 3430 1242 
C 4032 544 4966 -64 5837 -371 
C 5914 -250 6054 -64 6163 32 
C 5318 288 4422 794 3859 1389 
L 6048 1389 
L 6048 1818 
L 3430 1818 
L 3430 2509 
L 2944 2509 
z
" transform="scale(0.015625)"/>
      <path id="NotoSansCJKjp-Regular-4ef6" d="M 2029 2182 
L 2029 1715 
L 3866 1715 
L 3866 -512 
L 4346 -512 
L 4346 1715 
L 6099 1715 
L 6099 2182 
L 4346 2182 
L 4346 3597 
L 5818 3597 
L 5818 4064 
L 4346 4064 
L 4346 5299 
L 3866 5299 
L 3866 4064 
L 3008 4064 
C 3091 4352 3162 4659 3226 4960 
L 2765 5056 
C 2618 4218 2349 3392 1978 2861 
C 2093 2803 2298 2688 2387 2618 
C 2560 2886 2720 3226 2854 3597 
L 3866 3597 
L 3866 2182 
L 2029 2182 
z
M 1715 5350 
C 1370 4384 806 3424 205 2797 
C 288 2688 429 2438 480 2323 
C 685 2541 877 2797 1069 3072 
L 1069 -499 
L 1530 -499 
L 1530 3821 
C 1773 4269 1990 4742 2170 5216 
L 1715 5350 
z
" transform="scale(0.015625)"/>
      <path id="NotoSansCJKjp-Regular-671f" d="M 1139 915 
C 947 486 608 58 250 -230 
C 365 -301 557 -435 646 -512 
C 992 -192 1363 301 1594 787 
L 1139 915 
z
M 2054 717 
C 2304 416 2598 -6 2714 -269 
L 3110 -38 
C 2976 224 2682 621 2426 915 
L 2054 717 
z
M 5472 4621 
L 5472 3590 
L 4160 3590 
L 4160 4621 
L 5472 4621 
z
M 3712 5056 
L 3712 2733 
C 3712 1811 3661 589 3123 -262 
C 3232 -314 3430 -454 3507 -538 
C 3891 70 4058 890 4122 1664 
L 5472 1664 
L 5472 109 
C 5472 6 5434 -19 5344 -26 
C 5248 -32 4922 -32 4582 -19 
C 4646 -147 4717 -358 4736 -486 
C 5203 -486 5510 -480 5690 -397 
C 5875 -320 5933 -173 5933 102 
L 5933 5056 
L 3712 5056 
z
M 5472 3162 
L 5472 2099 
L 4147 2099 
C 4160 2323 4160 2534 4160 2733 
L 4160 3162 
L 5472 3162 
z
M 2477 5299 
L 2477 4525 
L 1312 4525 
L 1312 5299 
L 877 5299 
L 877 4525 
L 333 4525 
L 333 4096 
L 877 4096 
L 877 1478 
L 243 1478 
L 243 1050 
L 3398 1050 
L 3398 1478 
L 2925 1478 
L 2925 4096 
L 3398 4096 
L 3398 4525 
L 2925 4525 
L 2925 5299 
L 2477 5299 
z
M 1312 4096 
L 2477 4096 
L 2477 3526 
L 1312 3526 
L 1312 4096 
z
M 1312 3142 
L 2477 3142 
L 2477 2515 
L 1312 2515 
L 1312 3142 
z
M 1312 2125 
L 2477 2125 
L 2477 1478 
L 1312 1478 
L 1312 2125 
z
" transform="scale(0.015625)"/>
      <path id="NotoSansCJKjp-Regular-671b" d="M 358 45 
L 358 -365 
L 6048 -365 
L 6048 45 
L 3437 45 
L 3437 602 
L 5344 602 
L 5344 998 
L 3437 998 
L 3437 1549 
L 5651 1549 
L 5651 1958 
L 794 1958 
L 794 1549 
L 2950 1549 
L 2950 998 
L 1069 998 
L 1069 602 
L 2950 602 
L 2950 45 
L 358 45 
z
M 1574 5370 
L 1574 4704 
L 250 4704 
L 250 4288 
L 723 4288 
L 723 3213 
C 723 2707 864 2528 1389 2528 
C 1504 2528 2323 2528 2496 2528 
C 2701 2528 2918 2534 3021 2566 
C 3002 2669 2982 2861 2970 2976 
C 2854 2957 2624 2944 2483 2944 
C 2317 2944 1549 2944 1389 2944 
C 1216 2944 1171 3008 1171 3206 
L 1171 4288 
L 3322 4288 
L 3322 4704 
L 2029 4704 
L 2029 5370 
L 1574 5370 
z
M 5498 4794 
L 5478 4346 
L 4128 4346 
L 4160 4794 
L 5498 4794 
z
M 3738 5152 
C 3699 3904 3610 2963 2880 2451 
C 2982 2381 3110 2234 3168 2131 
C 3539 2400 3776 2758 3923 3206 
L 5402 3206 
C 5363 2918 5325 2771 5274 2714 
C 5229 2650 5171 2630 5088 2637 
C 4986 2637 4762 2637 4499 2662 
C 4557 2560 4602 2394 4614 2285 
C 4883 2266 5139 2266 5280 2278 
C 5453 2298 5562 2342 5664 2464 
C 5818 2656 5882 3251 5946 4954 
C 5946 5018 5946 5152 5946 5152 
L 3738 5152 
z
M 5466 4006 
L 5434 3552 
L 4019 3552 
C 4051 3699 4077 3846 4096 4006 
L 5466 4006 
z
" transform="scale(0.015625)"/>
     </defs>
     <use xlink:href="#NotoSansCJKjp-Regular-975e"/>
     <use xlink:href="#NotoSansCJKjp-Regular-6761" transform="translate(99.999985 0)"/>
     <use xlink:href="#NotoSansCJKjp-Regular-4ef6" transform="translate(199.999969 0)"/>
     <use xlink:href="#NotoSansCJKjp-Regular-671f" transform="translate(299.999954 0)"/>
     <use xlink:href="#NotoSansCJKjp-Regular-671b" transform="translate(399.999939 0)"/>
    </g>
    <!-- E(B|z,x)=p·μ+ -->
    <g transform="translate(359.62875 199.045437) scale(0.12 -0.12)">
     <defs>
      <path id="NotoSansCJKjp-Regular-b7" d="M 1766 1875 
C 1997 1875 2195 2067 2195 2323 
C 2195 2592 1997 2778 1766 2778 
C 1536 2778 1350 2592 1350 2323 
C 1350 2067 1536 1875 1766 1875 
z
" transform="scale(0.015625)"/>
      <path id="NotoSansCJKjp-Regular-3bc" d="M 589 -1280 
L 1178 -1280 
C 1139 -730 1133 -422 1126 262 
C 1293 -13 1517 -70 1805 -70 
C 2182 -70 2522 141 2771 589 
L 2784 589 
C 2829 122 3014 -83 3411 -83 
C 3603 -83 3718 -45 3827 0 
L 3750 442 
C 3661 416 3597 403 3533 403 
C 3386 403 3283 480 3283 678 
C 3283 1517 3309 2534 3322 3475 
L 2733 3475 
L 2733 1094 
C 2413 525 2125 422 1811 422 
C 1363 422 1178 736 1178 1344 
L 1178 3475 
L 589 3475 
L 589 -1280 
z
" transform="scale(0.015625)"/>
      <path id="NotoSansCJKjp-Regular-2b" d="M 1542 742 
L 2010 742 
L 2010 2144 
L 3315 2144 
L 3315 2579 
L 2010 2579 
L 2010 3981 
L 1542 3981 
L 1542 2579 
L 243 2579 
L 243 2144 
L 1542 2144 
L 1542 742 
z
" transform="scale(0.015625)"/>
     </defs>
     <use xlink:href="#NotoSansCJKjp-Regular-45"/>
     <use xlink:href="#NotoSansCJKjp-Regular-28" transform="translate(58.899994 0)"/>
     <use xlink:href="#NotoSansCJKjp-Regular-42" transform="translate(92.699982 0)"/>
     <use xlink:href="#NotoSansCJKjp-Regular-7c" transform="translate(158.399979 0)"/>
     <use xlink:href="#NotoSansCJKjp-Regular-7a" transform="translate(185.399963 0)"/>
     <use xlink:href="#NotoSansCJKjp-Regular-2c" transform="translate(232.899948 0)"/>
     <use xlink:href="#NotoSansCJKjp-Regular-78" transform="translate(260.699936 0)"/>
     <use xlink:href="#NotoSansCJKjp-Regular-29" transform="translate(310.499924 0)"/>
     <use xlink:href="#NotoSansCJKjp-Regular-3d" transform="translate(344.299911 0)"/>
     <use xlink:href="#NotoSansCJKjp-Regular-70" transform="translate(399.799896 0)"/>
     <use xlink:href="#NotoSansCJKjp-Regular-b7" transform="translate(461.799881 0)"/>
     <use xlink:href="#NotoSansCJKjp-Regular-3bc" transform="translate(517.899872 0)"/>
     <use xlink:href="#NotoSansCJKjp-Regular-2b" transform="translate(580.69986 0)"/>
    </g>
   </g>
   <g id="text_7">
    <!-- Two-part model：概率渠道与强度渠道 -->
    <g transform="translate(118.947344 18.988437) scale(0.14 -0.14)">
     <defs>
      <path id="NotoSansCJKjp-Regular-54" d="M 1619 0 
L 2214 0 
L 2214 4192 
L 3635 4192 
L 3635 4691 
L 198 4691 
L 198 4192 
L 1619 4192 
L 1619 0 
z
" transform="scale(0.015625)"/>
      <path id="NotoSansCJKjp-Regular-77" d="M 1139 0 
L 1818 0 
L 2310 1862 
C 2400 2195 2470 2522 2547 2874 
L 2579 2874 
C 2662 2522 2726 2202 2816 1875 
L 3315 0 
L 4026 0 
L 4966 3475 
L 4403 3475 
L 3898 1466 
C 3821 1133 3757 819 3686 499 
L 3654 499 
C 3571 819 3494 1133 3411 1466 
L 2867 3475 
L 2298 3475 
L 1754 1466 
C 1670 1133 1594 819 1523 499 
L 1491 499 
C 1421 819 1357 1133 1286 1466 
L 768 3475 
L 173 3475 
L 1139 0 
z
" transform="scale(0.015625)"/>
      <path id="NotoSansCJKjp-Regular-2d" d="M 294 1568 
L 1933 1568 
L 1933 2016 
L 294 2016 
L 294 1568 
z
" transform="scale(0.015625)"/>
      <path id="NotoSansCJKjp-Regular-20" transform="scale(0.015625)"/>
      <path id="NotoSansCJKjp-Regular-6d" d="M 589 0 
L 1178 0 
L 1178 2522 
C 1491 2880 1786 3053 2048 3053 
C 2490 3053 2694 2778 2694 2125 
L 2694 0 
L 3277 0 
L 3277 2522 
C 3603 2880 3885 3053 4154 3053 
C 4595 3053 4800 2778 4800 2125 
L 4800 0 
L 5382 0 
L 5382 2202 
C 5382 3085 5043 3565 4333 3565 
C 3904 3565 3546 3290 3181 2899 
C 3040 3309 2758 3565 2221 3565 
C 1805 3565 1446 3302 1139 2970 
L 1126 2970 
L 1069 3475 
L 589 3475 
L 589 0 
z
" transform="scale(0.015625)"/>
      <path id="NotoSansCJKjp-Regular-64" d="M 1773 -83 
C 2189 -83 2560 141 2829 410 
L 2848 410 
L 2899 0 
L 3379 0 
L 3379 5094 
L 2790 5094 
L 2790 3757 
L 2822 3162 
C 2515 3411 2253 3565 1843 3565 
C 1050 3565 339 2861 339 1734 
C 339 576 902 -83 1773 -83 
z
M 1901 410 
C 1293 410 941 902 941 1741 
C 941 2534 1389 3072 1946 3072 
C 2234 3072 2502 2970 2790 2707 
L 2790 883 
C 2502 563 2221 410 1901 410 
z
" transform="scale(0.015625)"/>
      <path id="NotoSansCJKjp-Regular-ff1a" d="M 3200 3482 
C 3456 3482 3686 3667 3686 3962 
C 3686 4256 3456 4442 3200 4442 
C 2944 4442 2714 4256 2714 3962 
C 2714 3667 2944 3482 3200 3482 
z
M 3200 346 
C 3456 346 3686 538 3686 826 
C 3686 1120 3456 1312 3200 1312 
C 2944 1312 2714 1120 2714 826 
C 2714 538 2944 346 3200 346 
z
" transform="scale(0.015625)"/>
      <path id="NotoSansCJKjp-Regular-6982" d="M 2304 5018 
L 2304 678 
L 1862 544 
L 2061 109 
C 2515 275 3078 486 3629 698 
C 3680 557 3718 422 3744 307 
L 3981 410 
C 3776 192 3539 -13 3258 -211 
C 3360 -282 3507 -429 3578 -512 
C 4243 -32 4691 518 4992 1082 
L 4992 96 
C 4992 -192 5018 -288 5101 -371 
C 5184 -448 5312 -467 5434 -467 
C 5498 -467 5638 -467 5715 -467 
C 5818 -467 5926 -448 5997 -403 
C 6080 -352 6138 -269 6170 -141 
C 6195 -19 6221 333 6221 653 
C 6112 691 5971 762 5894 832 
C 5894 518 5888 243 5875 128 
C 5862 51 5837 -6 5811 -26 
C 5786 -51 5734 -58 5683 -58 
C 5632 -58 5574 -58 5530 -58 
C 5485 -58 5446 -51 5421 -26 
C 5395 -6 5389 32 5389 77 
L 5389 2093 
L 5434 2266 
L 6144 2266 
L 6144 2688 
L 5510 2688 
C 5587 3149 5600 3590 5600 3981 
L 5600 4602 
L 6074 4602 
L 6074 5024 
L 4019 5024 
L 4019 4602 
L 4275 4602 
L 4275 2688 
L 3962 2688 
L 3962 2266 
L 5005 2266 
C 4858 1696 4589 1107 4115 557 
C 4013 934 3776 1498 3546 1939 
L 3174 1805 
C 3290 1581 3398 1318 3501 1062 
L 2707 806 
L 2707 2310 
L 3859 2310 
L 3859 5018 
L 2304 5018 
z
M 4659 4602 
L 5190 4602 
L 5190 3981 
C 5190 3597 5178 3155 5094 2688 
L 4659 2688 
L 4659 4602 
z
M 3462 3494 
L 3462 2714 
L 2707 2714 
L 2707 3494 
L 3462 3494 
z
M 3462 3878 
L 2707 3878 
L 2707 4614 
L 3462 4614 
L 3462 3878 
z
M 1120 5376 
L 1120 4019 
L 314 4019 
L 314 3571 
L 1069 3571 
C 909 2688 550 1658 179 1101 
C 256 998 371 819 429 691 
C 691 1094 928 1722 1120 2381 
L 1120 -506 
L 1568 -506 
L 1568 2515 
C 1741 2278 1939 2003 2029 1850 
L 2291 2259 
C 2189 2381 1722 2893 1568 3034 
L 1568 3571 
L 2150 3571 
L 2150 4019 
L 1568 4019 
L 1568 5376 
L 1120 5376 
z
" transform="scale(0.015625)"/>
      <path id="NotoSansCJKjp-Regular-7387" d="M 5376 4038 
C 5139 3782 4704 3437 4384 3226 
L 4736 3014 
C 5056 3226 5472 3520 5798 3821 
L 5376 4038 
z
M 320 1997 
L 557 1613 
C 986 1798 1517 2048 2022 2291 
L 1933 2656 
C 1338 2406 730 2150 320 1997 
z
M 544 3680 
C 902 3482 1344 3174 1555 2957 
L 1888 3258 
C 1670 3469 1222 3757 864 3949 
L 544 3680 
z
M 4262 2458 
C 4768 2202 5408 1811 5715 1542 
L 6067 1850 
C 5734 2112 5094 2490 4595 2733 
L 4262 2458 
z
M 3526 2707 
C 3654 2566 3782 2400 3904 2227 
L 2810 2176 
C 3264 2618 3763 3168 4147 3642 
L 3770 3827 
C 3590 3571 3347 3270 3091 2976 
C 2957 3098 2784 3226 2598 3347 
C 2810 3578 3046 3878 3251 4154 
L 3110 4211 
L 5882 4211 
L 5882 4659 
L 3424 4659 
L 3424 5376 
L 2938 5376 
L 2938 4659 
L 538 4659 
L 538 4211 
L 2771 4211 
C 2643 4000 2470 3750 2310 3546 
L 2131 3654 
L 1894 3373 
C 2202 3174 2579 2906 2822 2682 
C 2650 2490 2470 2310 2304 2150 
L 1811 2131 
L 1882 1715 
L 4128 1882 
C 4211 1747 4275 1626 4320 1517 
L 4691 1709 
C 4550 2035 4192 2515 3872 2874 
L 3526 2707 
z
M 346 1222 
L 346 774 
L 2938 774 
L 2938 -531 
L 3424 -531 
L 3424 774 
L 6061 774 
L 6061 1222 
L 3424 1222 
L 3424 1722 
L 2938 1722 
L 2938 1222 
L 346 1222 
z
" transform="scale(0.015625)"/>
      <path id="NotoSansCJKjp-Regular-6e20" d="M 269 4160 
C 659 4038 1139 3821 1382 3648 
L 1619 4000 
C 1370 4173 877 4371 499 4480 
L 269 4160 
z
M 742 5069 
C 1120 4934 1587 4717 1824 4544 
L 2048 4883 
C 1811 5056 1331 5261 960 5370 
L 742 5069 
z
M 442 2246 
L 781 1907 
C 1197 2336 1677 2867 2074 3347 
L 1792 3674 
C 1350 3155 806 2586 442 2246 
z
M 5882 5158 
L 2387 5158 
L 2387 2202 
L 2944 2202 
L 2944 1683 
L 365 1683 
L 365 1261 
L 2483 1261 
C 1926 710 1043 224 237 -26 
C 339 -122 486 -301 557 -422 
C 1408 -122 2349 461 2944 1133 
L 2944 -518 
L 3430 -518 
L 3430 1101 
C 4032 454 4966 -102 5843 -378 
C 5914 -256 6061 -70 6170 32 
C 5325 256 4429 710 3866 1261 
L 6048 1261 
L 6048 1683 
L 3430 1683 
L 3430 2202 
L 6010 2202 
L 6010 2592 
L 2854 2592 
L 2854 3072 
L 5600 3072 
L 5600 4326 
L 2854 4326 
L 2854 4774 
L 5882 4774 
L 5882 5158 
z
M 2854 3981 
L 5126 3981 
L 5126 3424 
L 2854 3424 
L 2854 3981 
z
" transform="scale(0.015625)"/>
      <path id="NotoSansCJKjp-Regular-9053" d="M 384 4934 
C 794 4646 1274 4218 1478 3904 
L 1862 4224 
C 1632 4531 1152 4947 730 5222 
L 384 4934 
z
M 2957 2400 
L 5088 2400 
L 5088 1869 
L 2957 1869 
L 2957 2400 
z
M 2957 1517 
L 5088 1517 
L 5088 979 
L 2957 979 
L 2957 1517 
z
M 2957 3277 
L 5088 3277 
L 5088 2752 
L 2957 2752 
L 2957 3277 
z
M 2502 3648 
L 2502 602 
L 5562 602 
L 5562 3648 
L 4045 3648 
L 4224 4160 
L 6061 4160 
L 6061 4563 
L 4896 4563 
C 5037 4762 5197 5018 5344 5261 
L 4851 5376 
C 4755 5146 4563 4794 4416 4563 
L 3341 4563 
L 3520 4640 
C 3450 4845 3251 5152 3046 5363 
L 2669 5216 
C 2842 5024 3002 4762 3085 4563 
L 1990 4563 
L 1990 4160 
L 3706 4160 
C 3674 3994 3635 3808 3597 3648 
L 2502 3648 
z
M 1677 2848 
L 314 2848 
L 314 2400 
L 1210 2400 
L 1210 768 
C 890 499 518 230 230 32 
L 480 -461 
C 826 -173 1152 102 1459 378 
C 1869 -128 2445 -358 3283 -390 
C 3994 -416 5318 -403 6016 -371 
C 6035 -224 6118 6 6176 115 
C 5414 64 3981 45 3283 77 
C 2541 102 1978 326 1677 794 
L 1677 2848 
z
" transform="scale(0.015625)"/>
      <path id="NotoSansCJKjp-Regular-4e0e" d="M 1939 5389 
C 1773 4429 1485 3098 1267 2317 
L 1760 2272 
L 1843 2605 
L 4525 2605 
C 4486 2246 4454 1939 4416 1664 
L 346 1664 
L 346 1210 
L 4346 1210 
C 4230 518 4102 160 3949 26 
C 3866 -45 3776 -51 3616 -51 
C 3437 -51 2957 -51 2470 0 
C 2560 -134 2624 -339 2637 -480 
C 3098 -512 3558 -518 3789 -506 
C 4045 -486 4198 -442 4365 -282 
C 4570 -83 4710 346 4845 1210 
L 6074 1210 
L 6074 1664 
L 4902 1664 
C 4947 1997 4986 2374 5030 2816 
C 5037 2886 5050 3053 5050 3053 
L 1952 3053 
L 2163 4000 
L 5402 4000 
L 5402 4461 
L 2259 4461 
L 2432 5338 
L 1939 5389 
z
" transform="scale(0.015625)"/>
      <path id="NotoSansCJKjp-Regular-5f3a" d="M 3309 4621 
L 5184 4621 
L 5184 3757 
L 3309 3757 
L 3309 4621 
z
M 2867 5024 
L 2867 3347 
L 4006 3347 
L 4006 2861 
L 2733 2861 
L 2733 1178 
L 4006 1178 
L 4006 205 
L 2445 115 
L 2515 -352 
C 3328 -294 4480 -211 5587 -122 
C 5664 -275 5728 -422 5773 -550 
L 6195 -352 
C 6061 32 5702 602 5370 1037 
L 4973 858 
C 5101 685 5235 493 5350 294 
L 4461 237 
L 4461 1178 
L 5805 1178 
L 5805 2861 
L 4461 2861 
L 4461 3347 
L 5638 3347 
L 5638 5024 
L 2867 5024 
z
M 3155 2458 
L 4006 2458 
L 4006 1581 
L 3155 1581 
L 3155 2458 
z
M 4461 2458 
L 5363 2458 
L 5363 1581 
L 4461 1581 
L 4461 2458 
z
M 531 3571 
C 480 2950 378 2118 288 1613 
L 730 1555 
L 768 1811 
L 1907 1811 
C 1830 595 1741 115 1619 -13 
C 1562 -77 1498 -83 1395 -83 
C 1286 -83 1011 -83 717 -58 
C 787 -179 838 -365 851 -499 
C 1139 -512 1440 -518 1594 -506 
C 1779 -486 1901 -442 2010 -314 
C 2202 -102 2291 474 2387 2035 
C 2394 2106 2400 2246 2400 2246 
L 826 2246 
L 928 3130 
L 2330 3130 
L 2330 5043 
L 371 5043 
L 371 4602 
L 1882 4602 
L 1882 3571 
L 531 3571 
z
" transform="scale(0.015625)"/>
      <path id="NotoSansCJKjp-Regular-5ea6" d="M 2470 4141 
L 2470 3584 
L 1440 3584 
L 1440 3187 
L 2470 3187 
L 2470 2125 
L 4960 2125 
L 4960 3187 
L 5997 3187 
L 5997 3584 
L 4960 3584 
L 4960 4141 
L 4486 4141 
L 4486 3584 
L 2931 3584 
L 2931 4141 
L 2470 4141 
z
M 4486 3187 
L 4486 2509 
L 2931 2509 
L 2931 3187 
L 4486 3187 
z
M 4851 1318 
C 4582 986 4211 717 3770 506 
C 3334 723 2970 992 2720 1318 
L 4851 1318 
z
M 1530 1715 
L 1530 1318 
L 2502 1318 
L 2259 1222 
C 2515 858 2861 550 3270 301 
C 2662 90 1978 -38 1280 -109 
C 1357 -211 1453 -397 1485 -512 
C 2291 -416 3072 -243 3757 45 
C 4365 -237 5088 -422 5869 -525 
C 5933 -403 6048 -211 6150 -109 
C 5466 -38 4819 96 4269 294 
C 4813 608 5261 1024 5549 1574 
L 5248 1734 
L 5165 1715 
L 1530 1715 
z
M 774 4742 
L 774 2893 
C 774 1965 730 659 198 -256 
C 314 -307 512 -435 595 -518 
C 1152 448 1235 1901 1235 2893 
L 1235 4307 
L 6035 4307 
L 6035 4742 
L 3635 4742 
L 3635 5376 
L 3142 5376 
L 3142 4742 
L 774 4742 
z
" transform="scale(0.015625)"/>
     </defs>
     <use xlink:href="#NotoSansCJKjp-Regular-54"/>
     <use xlink:href="#NotoSansCJKjp-Regular-77" transform="translate(59.899994 0)"/>
     <use xlink:href="#NotoSansCJKjp-Regular-6f" transform="translate(140.099976 0)"/>
     <use xlink:href="#NotoSansCJKjp-Regular-2d" transform="translate(200.699966 0)"/>
     <use xlink:href="#NotoSansCJKjp-Regular-70" transform="translate(235.399963 0)"/>
     <use xlink:href="#NotoSansCJKjp-Regular-61" transform="translate(297.399948 0)"/>
     <use xlink:href="#NotoSansCJKjp-Regular-72" transform="translate(353.699936 0)"/>
     <use xlink:href="#NotoSansCJKjp-Regular-74" transform="translate(392.499924 0)"/>
     <use xlink:href="#NotoSansCJKjp-Regular-20" transform="translate(430.199921 0)"/>
     <use xlink:href="#NotoSansCJKjp-Regular-6d" transform="translate(452.599915 0)"/>
     <use xlink:href="#NotoSansCJKjp-Regular-6f" transform="translate(545.199905 0)"/>
     <use xlink:href="#NotoSansCJKjp-Regular-64" transform="translate(605.799896 0)"/>
     <use xlink:href="#NotoSansCJKjp-Regular-65" transform="translate(667.799881 0)"/>
     <use xlink:href="#NotoSansCJKjp-Regular-6c" transform="translate(723.199875 0)"/>
     <use xlink:href="#NotoSansCJKjp-Regular-ff1a" transform="translate(751.599869 0)"/>
     <use xlink:href="#NotoSansCJKjp-Regular-6982" transform="translate(851.599854 0)"/>
     <use xlink:href="#NotoSansCJKjp-Regular-7387" transform="translate(951.599838 0)"/>
     <use xlink:href="#NotoSansCJKjp-Regular-6e20" transform="translate(1051.599823 0)"/>
     <use xlink:href="#NotoSansCJKjp-Regular-9053" transform="translate(1151.599808 0)"/>
     <use xlink:href="#NotoSansCJKjp-Regular-4e0e" transform="translate(1251.599792 0)"/>
     <use xlink:href="#NotoSansCJKjp-Regular-5f3a" transform="translate(1351.599777 0)"/>
     <use xlink:href="#NotoSansCJKjp-Regular-5ea6" transform="translate(1451.599762 0)"/>
     <use xlink:href="#NotoSansCJKjp-Regular-6e20" transform="translate(1551.599747 0)"/>
     <use xlink:href="#NotoSansCJKjp-Regular-9053" transform="translate(1651.599731 0)"/>
    </g>
   </g>
  </g>
 </g>
 <defs>
  <clipPath id="p8cc3f5ea69">
   <rect x="7.2" y="24.988437" width="468.72" height="260.568"/>
  </clipPath>
 </defs>
</svg>
