<?xml version="1.0" encoding="utf-8" standalone="no"?>
<!DOCTYPE svg PUBLIC "-//W3C//DTD SVG 1.1//EN"
  "http://www.w3.org/Graphics/SVG/1.1/DTD/svg11.dtd">
<svg xmlns:xlink="http://www.w3.org/1999/xlink" width="455.7pt" height="302.848375pt" viewBox="0 0 455.7 302.848375" xmlns="http://www.w3.org/2000/svg" version="1.1">
 <metadata>
  <rdf:RDF xmlns:dc="http://purl.org/dc/elements/1.1/" xmlns:cc="http://creativecommons.org/ns#" xmlns:rdf="http://www.w3.org/1999/02/22-rdf-syntax-ns#">
   <cc:Work>
    <dc:type rdf:resource="http://purl.org/dc/dcmitype/StillImage"/>
    <dc:date>2026-04-29T04:11:32.548344</dc:date>
    <dc:format>image/svg+xml</dc:format>
    <dc:creator>
     <cc:Agent>
      <dc:title>Matplotlib v3.10.8, https://matplotlib.org/</dc:title>
     </cc:Agent>
    </dc:creator>
   </cc:Work>
  </rdf:RDF>
 </metadata>
 <defs>
  <style type="text/css">*{stroke-linejoin: round; stroke-linecap: butt}</style>
 </defs>
 <g id="figure_1">
  <g id="patch_1">
   <path d="M 0 302.848375 
L 455.7 302.848375 
L 455.7 0 
L 0 0 
z
" style="fill: #ffffff"/>
  </g>
  <g id="axes_1">
   <g id="patch_2">
    <path d="M 35.58 262.098375 
L 448.5 262.098375 
L 448.5 23.706375 
L 35.58 23.706375 
z
" style="fill: #ffffff"/>
   </g>
   <g id="patch_3">
    <path d="M 54.349091 262.098375 
L 62.690909 262.098375 
L 62.690909 261.908291 
L 54.349091 261.908291 
z
" clip-path="url(#pcb10a77e5b)" style="fill: #1f77b4; opacity: 0.5"/>
   </g>
   <g id="patch_4">
    <path d="M 62.690909 262.098375 
L 71.032727 262.098375 
L 71.032727 262.035014 
L 62.690909 262.035014 
z
" clip-path="url(#pcb10a77e5b)" style="fill: #1f77b4; opacity: 0.5"/>
   </g>
   <g id="patch_5">
    <path d="M 71.032727 262.098375 
L 79.374545 262.098375 
L 79.374545 261.654845 
L 71.032727 261.654845 
z
" clip-path="url(#pcb10a77e5b)" style="fill: #1f77b4; opacity: 0.5"/>
   </g>
   <g id="patch_6">
    <path d="M 79.374545 262.098375 
L 87.716364 262.098375 
L 87.716364 261.781568 
L 79.374545 261.781568 
z
" clip-path="url(#pcb10a77e5b)" style="fill: #1f77b4; opacity: 0.5"/>
   </g>
   <g id="patch_7">
    <path d="M 87.716364 262.098375 
L 96.058182 262.098375 
L 96.058182 261.718207 
L 87.716364 261.718207 
z
" clip-path="url(#pcb10a77e5b)" style="fill: #1f77b4; opacity: 0.5"/>
   </g>
   <g id="patch_8">
    <path d="M 96.058182 262.098375 
L 104.4 262.098375 
L 104.4 261.274677 
L 96.058182 261.274677 
z
" clip-path="url(#pcb10a77e5b)" style="fill: #1f77b4; opacity: 0.5"/>
   </g>
   <g id="patch_9">
    <path d="M 104.4 262.098375 
L 112.741818 262.098375 
L 112.741818 261.084593 
L 104.4 261.084593 
z
" clip-path="url(#pcb10a77e5b)" style="fill: #1f77b4; opacity: 0.5"/>
   </g>
   <g id="patch_10">
    <path d="M 112.741818 262.098375 
L 121.083636 262.098375 
L 121.083636 260.387618 
L 112.741818 260.387618 
z
" clip-path="url(#pcb10a77e5b)" style="fill: #1f77b4; opacity: 0.5"/>
   </g>
   <g id="patch_11">
    <path d="M 121.083636 262.098375 
L 129.425455 262.098375 
L 129.425455 259.500559 
L 121.083636 259.500559 
z
" clip-path="url(#pcb10a77e5b)" style="fill: #1f77b4; opacity: 0.5"/>
   </g>
   <g id="patch_12">
    <path d="M 129.425455 262.098375 
L 137.767273 262.098375 
L 137.767273 259.247113 
L 129.425455 259.247113 
z
" clip-path="url(#pcb10a77e5b)" style="fill: #1f77b4; opacity: 0.5"/>
   </g>
   <g id="patch_13">
    <path d="M 137.767273 262.098375 
L 146.109091 262.098375 
L 146.109091 259.12039 
L 137.767273 259.12039 
z
" clip-path="url(#pcb10a77e5b)" style="fill: #1f77b4; opacity: 0.5"/>
   </g>
   <g id="patch_14">
    <path d="M 146.109091 262.098375 
L 154.450909 262.098375 
L 154.450909 258.423415 
L 146.109091 258.423415 
z
" clip-path="url(#pcb10a77e5b)" style="fill: #1f77b4; opacity: 0.5"/>
   </g>
   <g id="patch_15">
    <path d="M 154.450909 262.098375 
L 162.792727 262.098375 
L 162.792727 257.156188 
L 154.450909 257.156188 
z
" clip-path="url(#pcb10a77e5b)" style="fill: #1f77b4; opacity: 0.5"/>
   </g>
   <g id="patch_16">
    <path d="M 162.792727 262.098375 
L 171.134545 262.098375 
L 171.134545 257.282911 
L 162.792727 257.282911 
z
" clip-path="url(#pcb10a77e5b)" style="fill: #1f77b4; opacity: 0.5"/>
   </g>
   <g id="patch_17">
    <path d="M 171.134545 262.098375 
L 179.476364 262.098375 
L 179.476364 256.33249 
L 171.134545 256.33249 
z
" clip-path="url(#pcb10a77e5b)" style="fill: #1f77b4; opacity: 0.5"/>
   </g>
   <g id="patch_18">
    <path d="M 179.476364 262.098375 
L 187.818182 262.098375 
L 187.818182 256.015683 
L 179.476364 256.015683 
z
" clip-path="url(#pcb10a77e5b)" style="fill: #1f77b4; opacity: 0.5"/>
   </g>
   <g id="patch_19">
    <path d="M 187.818182 262.098375 
L 196.16 262.098375 
L 196.16 253.988119 
L 187.818182 253.988119 
z
" clip-path="url(#pcb10a77e5b)" style="fill: #1f77b4; opacity: 0.5"/>
   </g>
   <g id="patch_20">
    <path d="M 196.16 262.098375 
L 204.501818 262.098375 
L 204.501818 254.241565 
L 196.16 254.241565 
z
" clip-path="url(#pcb10a77e5b)" style="fill: #1f77b4; opacity: 0.5"/>
   </g>
   <g id="patch_21">
    <path d="M 204.501818 262.098375 
L 212.843636 262.098375 
L 212.843636 253.671312 
L 204.501818 253.671312 
z
" clip-path="url(#pcb10a77e5b)" style="fill: #1f77b4; opacity: 0.5"/>
   </g>
   <g id="patch_22">
    <path d="M 212.843636 262.098375 
L 221.185455 262.098375 
L 221.185455 253.924758 
L 212.843636 253.924758 
z
" clip-path="url(#pcb10a77e5b)" style="fill: #1f77b4; opacity: 0.5"/>
   </g>
   <g id="patch_23">
    <path d="M 221.185455 262.098375 
L 229.527273 262.098375 
L 229.527273 253.544589 
L 221.185455 253.544589 
z
" clip-path="url(#pcb10a77e5b)" style="fill: #1f77b4; opacity: 0.5"/>
   </g>
   <g id="patch_24">
    <path d="M 229.527273 262.098375 
L 237.869091 262.098375 
L 237.869091 251.517025 
L 229.527273 251.517025 
z
" clip-path="url(#pcb10a77e5b)" style="fill: #1f77b4; opacity: 0.5"/>
   </g>
   <g id="patch_25">
    <path d="M 237.869091 262.098375 
L 246.210909 262.098375 
L 246.210909 252.974337 
L 237.869091 252.974337 
z
" clip-path="url(#pcb10a77e5b)" style="fill: #1f77b4; opacity: 0.5"/>
   </g>
   <g id="patch_26">
    <path d="M 246.210909 262.098375 
L 254.552727 262.098375 
L 254.552727 253.037698 
L 246.210909 253.037698 
z
" clip-path="url(#pcb10a77e5b)" style="fill: #1f77b4; opacity: 0.5"/>
   </g>
   <g id="patch_27">
    <path d="M 254.552727 262.098375 
L 262.894545 262.098375 
L 262.894545 252.530807 
L 254.552727 252.530807 
z
" clip-path="url(#pcb10a77e5b)" style="fill: #1f77b4; opacity: 0.5"/>
   </g>
   <g id="patch_28">
    <path d="M 262.894545 262.098375 
L 271.236364 262.098375 
L 271.236364 253.10106 
L 262.894545 253.10106 
z
" clip-path="url(#pcb10a77e5b)" style="fill: #1f77b4; opacity: 0.5"/>
   </g>
   <g id="patch_29">
    <path d="M 271.236364 262.098375 
L 279.578182 262.098375 
L 279.578182 252.784253 
L 271.236364 252.784253 
z
" clip-path="url(#pcb10a77e5b)" style="fill: #1f77b4; opacity: 0.5"/>
   </g>
   <g id="patch_30">
    <path d="M 279.578182 262.098375 
L 287.92 262.098375 
L 287.92 254.304926 
L 279.578182 254.304926 
z
" clip-path="url(#pcb10a77e5b)" style="fill: #1f77b4; opacity: 0.5"/>
   </g>
   <g id="patch_31">
    <path d="M 287.92 262.098375 
L 296.261818 262.098375 
L 296.261818 253.671312 
L 287.92 253.671312 
z
" clip-path="url(#pcb10a77e5b)" style="fill: #1f77b4; opacity: 0.5"/>
   </g>
   <g id="patch_32">
    <path d="M 296.261818 262.098375 
L 304.603636 262.098375 
L 304.603636 254.558371 
L 296.261818 254.558371 
z
" clip-path="url(#pcb10a77e5b)" style="fill: #1f77b4; opacity: 0.5"/>
   </g>
   <g id="patch_33">
    <path d="M 304.603636 262.098375 
L 312.945455 262.098375 
L 312.945455 256.395851 
L 304.603636 256.395851 
z
" clip-path="url(#pcb10a77e5b)" style="fill: #1f77b4; opacity: 0.5"/>
   </g>
   <g id="patch_34">
    <path d="M 312.945455 262.098375 
L 321.287273 262.098375 
L 321.287273 257.029465 
L 312.945455 257.029465 
z
" clip-path="url(#pcb10a77e5b)" style="fill: #1f77b4; opacity: 0.5"/>
   </g>
   <g id="patch_35">
    <path d="M 321.287273 262.098375 
L 329.629091 262.098375 
L 329.629091 257.853163 
L 321.287273 257.853163 
z
" clip-path="url(#pcb10a77e5b)" style="fill: #1f77b4; opacity: 0.5"/>
   </g>
   <g id="patch_36">
    <path d="M 329.629091 262.098375 
L 337.970909 262.098375 
L 337.970909 258.550138 
L 329.629091 258.550138 
z
" clip-path="url(#pcb10a77e5b)" style="fill: #1f77b4; opacity: 0.5"/>
   </g>
   <g id="patch_37">
    <path d="M 337.970909 262.098375 
L 346.312727 262.098375 
L 346.312727 258.676861 
L 337.970909 258.676861 
z
" clip-path="url(#pcb10a77e5b)" style="fill: #1f77b4; opacity: 0.5"/>
   </g>
   <g id="patch_38">
    <path d="M 346.312727 262.098375 
L 354.654545 262.098375 
L 354.654545 259.817366 
L 346.312727 259.817366 
z
" clip-path="url(#pcb10a77e5b)" style="fill: #1f77b4; opacity: 0.5"/>
   </g>
   <g id="patch_39">
    <path d="M 354.654545 262.098375 
L 362.996364 262.098375 
L 362.996364 260.00745 
L 354.654545 260.00745 
z
" clip-path="url(#pcb10a77e5b)" style="fill: #1f77b4; opacity: 0.5"/>
   </g>
   <g id="patch_40">
    <path d="M 362.996364 262.098375 
L 371.338182 262.098375 
L 371.338182 261.084593 
L 362.996364 261.084593 
z
" clip-path="url(#pcb10a77e5b)" style="fill: #1f77b4; opacity: 0.5"/>
   </g>
   <g id="patch_41">
    <path d="M 371.338182 262.098375 
L 379.68 262.098375 
L 379.68 261.4014 
L 371.338182 261.4014 
z
" clip-path="url(#pcb10a77e5b)" style="fill: #1f77b4; opacity: 0.5"/>
   </g>
   <g id="patch_42">
    <path d="M 379.68 262.098375 
L 388.021818 262.098375 
L 388.021818 261.4014 
L 379.68 261.4014 
z
" clip-path="url(#pcb10a77e5b)" style="fill: #1f77b4; opacity: 0.5"/>
   </g>
   <g id="patch_43">
    <path d="M 388.021818 262.098375 
L 396.363636 262.098375 
L 396.363636 261.591484 
L 388.021818 261.591484 
z
" clip-path="url(#pcb10a77e5b)" style="fill: #1f77b4; opacity: 0.5"/>
   </g>
   <g id="patch_44">
    <path d="M 396.363636 262.098375 
L 404.705455 262.098375 
L 404.705455 261.908291 
L 396.363636 261.908291 
z
" clip-path="url(#pcb10a77e5b)" style="fill: #1f77b4; opacity: 0.5"/>
   </g>
   <g id="patch_45">
    <path d="M 404.705455 262.098375 
L 413.047273 262.098375 
L 413.047273 261.781568 
L 404.705455 261.781568 
z
" clip-path="url(#pcb10a77e5b)" style="fill: #1f77b4; opacity: 0.5"/>
   </g>
   <g id="patch_46">
    <path d="M 413.047273 262.098375 
L 421.389091 262.098375 
L 421.389091 262.035014 
L 413.047273 262.035014 
z
" clip-path="url(#pcb10a77e5b)" style="fill: #1f77b4; opacity: 0.5"/>
   </g>
   <g id="patch_47">
    <path d="M 421.389091 262.098375 
L 429.730909 262.098375 
L 429.730909 262.035014 
L 421.389091 262.035014 
z
" clip-path="url(#pcb10a77e5b)" style="fill: #1f77b4; opacity: 0.5"/>
   </g>
   <g id="patch_48">
    <path d="M 250.486568 262.098375 
L 254.469775 262.098375 
L 254.469775 35.058375 
L 250.486568 35.058375 
z
" clip-path="url(#pcb10a77e5b)" style="fill: #ff7f0e; opacity: 0.45"/>
   </g>
   <g id="patch_49">
    <path d="M 254.469775 262.098375 
L 258.452983 262.098375 
L 258.452983 253.340549 
L 254.469775 253.340549 
z
" clip-path="url(#pcb10a77e5b)" style="fill: #ff7f0e; opacity: 0.45"/>
   </g>
   <g id="patch_50">
    <path d="M 258.452983 262.098375 
L 262.43619 262.098375 
L 262.43619 252.013606 
L 258.452983 252.013606 
z
" clip-path="url(#pcb10a77e5b)" style="fill: #ff7f0e; opacity: 0.45"/>
   </g>
   <g id="patch_51">
    <path d="M 262.43619 262.098375 
L 266.419398 262.098375 
L 266.419398 253.207855 
L 262.43619 253.207855 
z
" clip-path="url(#pcb10a77e5b)" style="fill: #ff7f0e; opacity: 0.45"/>
   </g>
   <g id="patch_52">
    <path d="M 266.419398 262.098375 
L 270.402605 262.098375 
L 270.402605 252.677078 
L 266.419398 252.677078 
z
" clip-path="url(#pcb10a77e5b)" style="fill: #ff7f0e; opacity: 0.45"/>
   </g>
   <g id="patch_53">
    <path d="M 270.402605 262.098375 
L 274.385813 262.098375 
L 274.385813 252.677078 
L 270.402605 252.677078 
z
" clip-path="url(#pcb10a77e5b)" style="fill: #ff7f0e; opacity: 0.45"/>
   </g>
   <g id="patch_54">
    <path d="M 274.385813 262.098375 
L 278.369021 262.098375 
L 278.369021 253.605938 
L 274.385813 253.605938 
z
" clip-path="url(#pcb10a77e5b)" style="fill: #ff7f0e; opacity: 0.45"/>
   </g>
   <g id="patch_55">
    <path d="M 278.369021 262.098375 
L 282.352228 262.098375 
L 282.352228 252.942466 
L 278.369021 252.942466 
z
" clip-path="url(#pcb10a77e5b)" style="fill: #ff7f0e; opacity: 0.45"/>
   </g>
   <g id="patch_56">
    <path d="M 282.352228 262.098375 
L 286.335436 262.098375 
L 286.335436 254.269409 
L 282.352228 254.269409 
z
" clip-path="url(#pcb10a77e5b)" style="fill: #ff7f0e; opacity: 0.45"/>
   </g>
   <g id="patch_57">
    <path d="M 286.335436 262.098375 
L 290.318643 262.098375 
L 290.318643 254.004021 
L 286.335436 254.004021 
z
" clip-path="url(#pcb10a77e5b)" style="fill: #ff7f0e; opacity: 0.45"/>
   </g>
   <g id="patch_58">
    <path d="M 290.318643 262.098375 
L 294.301851 262.098375 
L 294.301851 254.004021 
L 290.318643 254.004021 
z
" clip-path="url(#pcb10a77e5b)" style="fill: #ff7f0e; opacity: 0.45"/>
   </g>
   <g id="patch_59">
    <path d="M 294.301851 262.098375 
L 298.285059 262.098375 
L 298.285059 253.473243 
L 294.301851 253.473243 
z
" clip-path="url(#pcb10a77e5b)" style="fill: #ff7f0e; opacity: 0.45"/>
   </g>
   <g id="patch_60">
    <path d="M 298.285059 262.098375 
L 302.268266 262.098375 
L 302.268266 254.269409 
L 298.285059 254.269409 
z
" clip-path="url(#pcb10a77e5b)" style="fill: #ff7f0e; opacity: 0.45"/>
   </g>
   <g id="patch_61">
    <path d="M 302.268266 262.098375 
L 306.251474 262.098375 
L 306.251474 255.861741 
L 302.268266 255.861741 
z
" clip-path="url(#pcb10a77e5b)" style="fill: #ff7f0e; opacity: 0.45"/>
   </g>
   <g id="patch_62">
    <path d="M 306.251474 262.098375 
L 310.234681 262.098375 
L 310.234681 255.729047 
L 306.251474 255.729047 
z
" clip-path="url(#pcb10a77e5b)" style="fill: #ff7f0e; opacity: 0.45"/>
   </g>
   <g id="patch_63">
    <path d="M 310.234681 262.098375 
L 314.217889 262.098375 
L 314.217889 257.454073 
L 310.234681 257.454073 
z
" clip-path="url(#pcb10a77e5b)" style="fill: #ff7f0e; opacity: 0.45"/>
   </g>
   <g id="patch_64">
    <path d="M 314.217889 262.098375 
L 318.201097 262.098375 
L 318.201097 256.657907 
L 314.217889 256.657907 
z
" clip-path="url(#pcb10a77e5b)" style="fill: #ff7f0e; opacity: 0.45"/>
   </g>
   <g id="patch_65">
    <path d="M 318.201097 262.098375 
L 322.184304 262.098375 
L 322.184304 257.852156 
L 318.201097 257.852156 
z
" clip-path="url(#pcb10a77e5b)" style="fill: #ff7f0e; opacity: 0.45"/>
   </g>
   <g id="patch_66">
    <path d="M 322.184304 262.098375 
L 326.167512 262.098375 
L 326.167512 258.117545 
L 322.184304 258.117545 
z
" clip-path="url(#pcb10a77e5b)" style="fill: #ff7f0e; opacity: 0.45"/>
   </g>
   <g id="patch_67">
    <path d="M 326.167512 262.098375 
L 330.150719 262.098375 
L 330.150719 256.790602 
L 326.167512 256.790602 
z
" clip-path="url(#pcb10a77e5b)" style="fill: #ff7f0e; opacity: 0.45"/>
   </g>
   <g id="patch_68">
    <path d="M 330.150719 262.098375 
L 334.133927 262.098375 
L 334.133927 258.515628 
L 330.150719 258.515628 
z
" clip-path="url(#pcb10a77e5b)" style="fill: #ff7f0e; opacity: 0.45"/>
   </g>
   <g id="patch_69">
    <path d="M 334.133927 262.098375 
L 338.117135 262.098375 
L 338.117135 259.311794 
L 334.133927 259.311794 
z
" clip-path="url(#pcb10a77e5b)" style="fill: #ff7f0e; opacity: 0.45"/>
   </g>
   <g id="patch_70">
    <path d="M 338.117135 262.098375 
L 342.100342 262.098375 
L 342.100342 257.719462 
L 338.117135 257.719462 
z
" clip-path="url(#pcb10a77e5b)" style="fill: #ff7f0e; opacity: 0.45"/>
   </g>
   <g id="patch_71">
    <path d="M 342.100342 262.098375 
L 346.08355 262.098375 
L 346.08355 259.311794 
L 342.100342 259.311794 
z
" clip-path="url(#pcb10a77e5b)" style="fill: #ff7f0e; opacity: 0.45"/>
   </g>
   <g id="patch_72">
    <path d="M 346.08355 262.098375 
L 350.066757 262.098375 
L 350.066757 260.373349 
L 346.08355 260.373349 
z
" clip-path="url(#pcb10a77e5b)" style="fill: #ff7f0e; opacity: 0.45"/>
   </g>
   <g id="patch_73">
    <path d="M 350.066757 262.098375 
L 354.049965 262.098375 
L 354.049965 259.709877 
L 350.066757 259.709877 
z
" clip-path="url(#pcb10a77e5b)" style="fill: #ff7f0e; opacity: 0.45"/>
   </g>
   <g id="patch_74">
    <path d="M 354.049965 262.098375 
L 358.033172 262.098375 
L 358.033172 259.444488 
L 354.049965 259.444488 
z
" clip-path="url(#pcb10a77e5b)" style="fill: #ff7f0e; opacity: 0.45"/>
   </g>
   <g id="patch_75">
    <path d="M 358.033172 262.098375 
L 362.01638 262.098375 
L 362.01638 260.638737 
L 358.033172 260.638737 
z
" clip-path="url(#pcb10a77e5b)" style="fill: #ff7f0e; opacity: 0.45"/>
   </g>
   <g id="patch_76">
    <path d="M 362.01638 262.098375 
L 365.999588 262.098375 
L 365.999588 259.842571 
L 362.01638 259.842571 
z
" clip-path="url(#pcb10a77e5b)" style="fill: #ff7f0e; opacity: 0.45"/>
   </g>
   <g id="patch_77">
    <path d="M 365.999588 262.098375 
L 369.982795 262.098375 
L 369.982795 261.700292 
L 365.999588 261.700292 
z
" clip-path="url(#pcb10a77e5b)" style="fill: #ff7f0e; opacity: 0.45"/>
   </g>
   <g id="patch_78">
    <path d="M 369.982795 262.098375 
L 373.966003 262.098375 
L 373.966003 261.169515 
L 369.982795 261.169515 
z
" clip-path="url(#pcb10a77e5b)" style="fill: #ff7f0e; opacity: 0.45"/>
   </g>
   <g id="patch_79">
    <path d="M 373.966003 262.098375 
L 377.94921 262.098375 
L 377.94921 261.434903 
L 373.966003 261.434903 
z
" clip-path="url(#pcb10a77e5b)" style="fill: #ff7f0e; opacity: 0.45"/>
   </g>
   <g id="patch_80">
    <path d="M 377.94921 262.098375 
L 381.932418 262.098375 
L 381.932418 261.700292 
L 377.94921 261.700292 
z
" clip-path="url(#pcb10a77e5b)" style="fill: #ff7f0e; opacity: 0.45"/>
   </g>
   <g id="patch_81">
    <path d="M 381.932418 262.098375 
L 385.915626 262.098375 
L 385.915626 260.771432 
L 381.932418 260.771432 
z
" clip-path="url(#pcb10a77e5b)" style="fill: #ff7f0e; opacity: 0.45"/>
   </g>
   <g id="patch_82">
    <path d="M 385.915626 262.098375 
L 389.898833 262.098375 
L 389.898833 261.832986 
L 385.915626 261.832986 
z
" clip-path="url(#pcb10a77e5b)" style="fill: #ff7f0e; opacity: 0.45"/>
   </g>
   <g id="patch_83">
    <path d="M 389.898833 262.098375 
L 393.882041 262.098375 
L 393.882041 261.434903 
L 389.898833 261.434903 
z
" clip-path="url(#pcb10a77e5b)" style="fill: #ff7f0e; opacity: 0.45"/>
   </g>
   <g id="patch_84">
    <path d="M 393.882041 262.098375 
L 397.865248 262.098375 
L 397.865248 261.567598 
L 393.882041 261.567598 
z
" clip-path="url(#pcb10a77e5b)" style="fill: #ff7f0e; opacity: 0.45"/>
   </g>
   <g id="patch_85">
    <path d="M 397.865248 262.098375 
L 401.848456 262.098375 
L 401.848456 262.098375 
L 397.865248 262.098375 
z
" clip-path="url(#pcb10a77e5b)" style="fill: #ff7f0e; opacity: 0.45"/>
   </g>
   <g id="patch_86">
    <path d="M 401.848456 262.098375 
L 405.831664 262.098375 
L 405.831664 261.832986 
L 401.848456 261.832986 
z
" clip-path="url(#pcb10a77e5b)" style="fill: #ff7f0e; opacity: 0.45"/>
   </g>
   <g id="patch_87">
    <path d="M 405.831664 262.098375 
L 409.814871 262.098375 
L 409.814871 262.098375 
L 405.831664 262.098375 
z
" clip-path="url(#pcb10a77e5b)" style="fill: #ff7f0e; opacity: 0.45"/>
   </g>
   <g id="patch_88">
    <path d="M 409.814871 262.098375 
L 413.798079 262.098375 
L 413.798079 261.700292 
L 409.814871 261.700292 
z
" clip-path="url(#pcb10a77e5b)" style="fill: #ff7f0e; opacity: 0.45"/>
   </g>
   <g id="patch_89">
    <path d="M 413.798079 262.098375 
L 417.781286 262.098375 
L 417.781286 261.965681 
L 413.798079 261.965681 
z
" clip-path="url(#pcb10a77e5b)" style="fill: #ff7f0e; opacity: 0.45"/>
   </g>
   <g id="patch_90">
    <path d="M 417.781286 262.098375 
L 421.764494 262.098375 
L 421.764494 262.098375 
L 417.781286 262.098375 
z
" clip-path="url(#pcb10a77e5b)" style="fill: #ff7f0e; opacity: 0.45"/>
   </g>
   <g id="patch_91">
    <path d="M 421.764494 262.098375 
L 425.747702 262.098375 
L 425.747702 262.098375 
L 421.764494 262.098375 
z
" clip-path="url(#pcb10a77e5b)" style="fill: #ff7f0e; opacity: 0.45"/>
   </g>
   <g id="patch_92">
    <path d="M 425.747702 262.098375 
L 429.730909 262.098375 
L 429.730909 261.965681 
L 425.747702 261.965681 
z
" clip-path="url(#pcb10a77e5b)" style="fill: #ff7f0e; opacity: 0.45"/>
   </g>
   <g id="matplotlib.axis_1">
    <g id="xtick_1">
     <g id="line2d_1">
      <path d="M 47.730647 262.098375 
L 47.730647 23.706375 
" clip-path="url(#pcb10a77e5b)" style="fill: none; stroke: #b0b0b0; stroke-opacity: 0.25; stroke-width: 0.8; stroke-linecap: square"/>
     </g>
     <g id="line2d_2">
      <defs>
       <path id="m83ffb661b0" d="M 0 0 
L 0 3.5 
" style="stroke: #000000; stroke-width: 0.8"/>
      </defs>
      <g>
       <use xlink:href="#m83ffb661b0" x="47.730647" y="262.098375" style="stroke: #000000; stroke-width: 0.8"/>
      </g>
     </g>
     <g id="text_1">
      <!-- -6 -->
      <g transform="translate(42.769475 277.853687) scale(0.11 -0.11)">
       <defs>
        <path id="NotoSansCJKjp-Regular-2d" d="M 294 1568 
L 1933 1568 
L 1933 2016 
L 294 2016 
L 294 1568 
z
" transform="scale(0.015625)"/>
        <path id="NotoSansCJKjp-Regular-36" d="M 1926 -83 
C 2656 -83 3277 531 3277 1440 
C 3277 2426 2765 2912 1971 2912 
C 1606 2912 1197 2701 909 2349 
C 934 3802 1466 4294 2118 4294 
C 2400 4294 2682 4154 2861 3936 
L 3194 4294 
C 2931 4576 2579 4774 2093 4774 
C 1184 4774 358 4077 358 2240 
C 358 691 1030 -83 1926 -83 
z
M 922 1882 
C 1229 2317 1587 2477 1875 2477 
C 2445 2477 2720 2074 2720 1440 
C 2720 800 2374 378 1926 378 
C 1338 378 986 909 922 1882 
z
" transform="scale(0.015625)"/>
       </defs>
       <use xlink:href="#NotoSansCJKjp-Regular-2d"/>
       <use xlink:href="#NotoSansCJKjp-Regular-36" transform="translate(34.699997 0)"/>
      </g>
     </g>
    </g>
    <g id="xtick_2">
     <g id="line2d_3">
      <path d="M 115.315954 262.098375 
L 115.315954 23.706375 
" clip-path="url(#pcb10a77e5b)" style="fill: none; stroke: #b0b0b0; stroke-opacity: 0.25; stroke-width: 0.8; stroke-linecap: square"/>
     </g>
     <g id="line2d_4">
      <g>
       <use xlink:href="#m83ffb661b0" x="115.315954" y="262.098375" style="stroke: #000000; stroke-width: 0.8"/>
      </g>
     </g>
     <g id="text_2">
      <!-- -4 -->
      <g transform="translate(110.354782 277.853687) scale(0.11 -0.11)">
       <defs>
        <path id="NotoSansCJKjp-Regular-34" d="M 2176 0 
L 2726 0 
L 2726 1293 
L 3354 1293 
L 3354 1760 
L 2726 1760 
L 2726 4691 
L 2080 4691 
L 128 1677 
L 128 1293 
L 2176 1293 
L 2176 0 
z
M 2176 1760 
L 736 1760 
L 1805 3360 
C 1939 3590 2067 3827 2182 4051 
L 2208 4051 
C 2195 3814 2176 3430 2176 3200 
L 2176 1760 
z
" transform="scale(0.015625)"/>
       </defs>
       <use xlink:href="#NotoSansCJKjp-Regular-2d"/>
       <use xlink:href="#NotoSansCJKjp-Regular-34" transform="translate(34.699997 0)"/>
      </g>
     </g>
    </g>
    <g id="xtick_3">
     <g id="line2d_5">
      <path d="M 182.901261 262.098375 
L 182.901261 23.706375 
" clip-path="url(#pcb10a77e5b)" style="fill: none; stroke: #b0b0b0; stroke-opacity: 0.25; stroke-width: 0.8; stroke-linecap: square"/>
     </g>
     <g id="line2d_6">
      <g>
       <use xlink:href="#m83ffb661b0" x="182.901261" y="262.098375" style="stroke: #000000; stroke-width: 0.8"/>
      </g>
     </g>
     <g id="text_3">
      <!-- -2 -->
      <g transform="translate(177.940089 277.853687) scale(0.11 -0.11)">
       <defs>
        <path id="NotoSansCJKjp-Regular-32" d="M 282 0 
L 3232 0 
L 3232 506 
L 1933 506 
C 1696 506 1408 480 1165 461 
C 2266 1504 3008 2458 3008 3398 
C 3008 4230 2477 4774 1638 4774 
C 1043 4774 634 4506 256 4090 
L 595 3757 
C 858 4070 1184 4301 1568 4301 
C 2150 4301 2432 3910 2432 3373 
C 2432 2566 1754 1632 282 346 
L 282 0 
z
" transform="scale(0.015625)"/>
       </defs>
       <use xlink:href="#NotoSansCJKjp-Regular-2d"/>
       <use xlink:href="#NotoSansCJKjp-Regular-32" transform="translate(34.699997 0)"/>
      </g>
     </g>
    </g>
    <g id="xtick_4">
     <g id="line2d_7">
      <path d="M 250.486568 262.098375 
L 250.486568 23.706375 
" clip-path="url(#pcb10a77e5b)" style="fill: none; stroke: #b0b0b0; stroke-opacity: 0.25; stroke-width: 0.8; stroke-linecap: square"/>
     </g>
     <g id="line2d_8">
      <g>
       <use xlink:href="#m83ffb661b0" x="250.486568" y="262.098375" style="stroke: #000000; stroke-width: 0.8"/>
      </g>
     </g>
     <g id="text_4">
      <!-- 0 -->
      <g transform="translate(247.434068 277.853687) scale(0.11 -0.11)">
       <defs>
        <path id="NotoSansCJKjp-Regular-30" d="M 1779 -83 
C 2669 -83 3238 723 3238 2362 
C 3238 3987 2669 4774 1779 4774 
C 883 4774 320 3987 320 2362 
C 320 723 883 -83 1779 -83 
z
M 1779 390 
C 1248 390 883 986 883 2362 
C 883 3731 1248 4314 1779 4314 
C 2310 4314 2675 3731 2675 2362 
C 2675 986 2310 390 1779 390 
z
" transform="scale(0.015625)"/>
       </defs>
       <use xlink:href="#NotoSansCJKjp-Regular-30"/>
      </g>
     </g>
    </g>
    <g id="xtick_5">
     <g id="line2d_9">
      <path d="M 318.071874 262.098375 
L 318.071874 23.706375 
" clip-path="url(#pcb10a77e5b)" style="fill: none; stroke: #b0b0b0; stroke-opacity: 0.25; stroke-width: 0.8; stroke-linecap: square"/>
     </g>
     <g id="line2d_10">
      <g>
       <use xlink:href="#m83ffb661b0" x="318.071874" y="262.098375" style="stroke: #000000; stroke-width: 0.8"/>
      </g>
     </g>
     <g id="text_5">
      <!-- 2 -->
      <g transform="translate(315.019374 277.853687) scale(0.11 -0.11)">
       <use xlink:href="#NotoSansCJKjp-Regular-32"/>
      </g>
     </g>
    </g>
    <g id="xtick_6">
     <g id="line2d_11">
      <path d="M 385.657181 262.098375 
L 385.657181 23.706375 
" clip-path="url(#pcb10a77e5b)" style="fill: none; stroke: #b0b0b0; stroke-opacity: 0.25; stroke-width: 0.8; stroke-linecap: square"/>
     </g>
     <g id="line2d_12">
      <g>
       <use xlink:href="#m83ffb661b0" x="385.657181" y="262.098375" style="stroke: #000000; stroke-width: 0.8"/>
      </g>
     </g>
     <g id="text_6">
      <!-- 4 -->
      <g transform="translate(382.604681 277.853687) scale(0.11 -0.11)">
       <use xlink:href="#NotoSansCJKjp-Regular-34"/>
      </g>
     </g>
    </g>
    <g id="text_7">
     <!-- 标准化金额 -->
     <g transform="translate(214.54 293.128687) scale(0.11 -0.11)">
      <defs>
       <path id="NotoSansCJKjp-Regular-6807" d="M 2982 4890 
L 2982 4435 
L 5773 4435 
L 5773 4890 
L 2982 4890 
z
M 4986 2080 
C 5286 1440 5587 608 5683 102 
L 6125 262 
C 6016 768 5709 1581 5395 2208 
L 4986 2080 
z
M 3142 2189 
C 2976 1510 2688 826 2330 365 
C 2438 314 2630 179 2720 115 
C 3066 602 3386 1350 3584 2093 
L 3142 2189 
z
M 2701 3360 
L 2701 2906 
L 4070 2906 
L 4070 115 
C 4070 32 4045 6 3949 0 
C 3866 0 3565 -6 3232 6 
C 3296 -141 3366 -346 3386 -486 
C 3834 -486 4128 -474 4314 -397 
C 4499 -314 4557 -166 4557 109 
L 4557 2906 
L 6118 2906 
L 6118 3360 
L 2701 3360 
z
M 1293 5376 
L 1293 4019 
L 314 4019 
L 314 3571 
L 1190 3571 
C 979 2778 563 1856 154 1376 
C 243 1254 371 1056 422 928 
C 742 1338 1056 2010 1293 2701 
L 1293 -506 
L 1773 -506 
L 1773 2842 
C 1990 2528 2246 2131 2355 1926 
L 2637 2304 
C 2509 2483 1958 3187 1773 3398 
L 1773 3571 
L 2611 3571 
L 2611 4019 
L 1773 4019 
L 1773 5376 
L 1293 5376 
z
" transform="scale(0.015625)"/>
       <path id="NotoSansCJKjp-Regular-51c6" d="M 422 4646 
C 832 4378 1331 3962 1562 3686 
L 1888 4058 
C 1645 4339 1139 4717 730 4986 
L 422 4646 
z
M 230 307 
L 640 -19 
C 1011 518 1459 1235 1805 1843 
L 1453 2157 
C 1075 1504 576 749 230 307 
z
M 4122 2406 
L 4122 1555 
L 2989 1555 
L 2989 2406 
L 4122 2406 
z
M 3046 5376 
C 2733 4410 2208 3469 1606 2867 
C 1709 2790 1888 2592 1958 2502 
C 2157 2714 2349 2963 2528 3232 
L 2528 -512 
L 2989 -512 
L 2989 -205 
L 6144 -205 
L 6144 243 
L 4576 243 
L 4576 1120 
L 5837 1120 
L 5837 1555 
L 4576 1555 
L 4576 2406 
L 5837 2406 
L 5837 2842 
L 4576 2842 
L 4576 3674 
L 5997 3674 
L 5997 4109 
L 4659 4109 
C 4800 4442 4954 4851 5088 5210 
L 4595 5350 
C 4506 4986 4352 4480 4205 4109 
L 3034 4109 
C 3213 4474 3379 4858 3514 5248 
L 3046 5376 
z
M 4122 2842 
L 2989 2842 
L 2989 3674 
L 4122 3674 
L 4122 2842 
z
M 4122 1120 
L 4122 243 
L 2989 243 
L 2989 1120 
L 4122 1120 
z
" transform="scale(0.015625)"/>
       <path id="NotoSansCJKjp-Regular-5316" d="M 5517 4160 
C 5050 3725 4314 3232 3597 2829 
L 3597 5222 
L 3110 5222 
L 3110 480 
C 3110 -230 3315 -416 3987 -416 
C 4134 -416 5146 -416 5306 -416 
C 5978 -416 6112 -51 6189 998 
C 6048 1024 5856 1114 5734 1203 
C 5690 269 5638 32 5280 32 
C 5069 32 4192 32 4026 32 
C 3667 32 3597 109 3597 467 
L 3597 2342 
C 4390 2758 5254 3251 5862 3750 
L 5517 4160 
z
M 2003 5280 
C 1581 4262 870 3290 134 2675 
C 224 2560 371 2310 422 2189 
C 710 2451 998 2758 1267 3104 
L 1267 -499 
L 1747 -499 
L 1747 3776 
C 2022 4205 2272 4659 2470 5120 
L 2003 5280 
z
" transform="scale(0.015625)"/>
       <path id="NotoSansCJKjp-Regular-91d1" d="M 1293 1389 
C 1549 1024 1805 531 1882 211 
L 2298 390 
C 2214 710 1946 1190 1683 1542 
L 1293 1389 
z
M 4646 1555 
C 4480 1197 4186 685 3955 365 
L 4314 211 
C 4557 506 4851 973 5101 1376 
L 4646 1555 
z
M 467 115 
L 467 -307 
L 5939 -307 
L 5939 115 
L 3424 115 
L 3424 1715 
L 5632 1715 
L 5632 2138 
L 3424 2138 
L 3424 2995 
L 4800 2995 
L 4800 3392 
C 5152 3136 5517 2906 5869 2726 
C 5952 2867 6074 3040 6189 3155 
C 5184 3597 4077 4461 3392 5382 
L 2906 5382 
C 2406 4582 1344 3635 237 3078 
C 346 2976 474 2803 538 2694 
C 902 2886 1261 3117 1594 3366 
L 1594 2995 
L 2918 2995 
L 2918 2138 
L 762 2138 
L 762 1715 
L 2918 1715 
L 2918 115 
L 467 115 
z
M 3174 4915 
C 3552 4416 4128 3878 4755 3424 
L 1677 3424 
C 2298 3898 2835 4429 3174 4915 
z
" transform="scale(0.015625)"/>
       <path id="NotoSansCJKjp-Regular-989d" d="M 4435 3155 
C 4410 1171 4326 294 2931 -198 
C 3014 -275 3130 -429 3174 -538 
C 4685 13 4826 1030 4858 3155 
L 4435 3155 
z
M 4723 538 
C 5146 230 5683 -211 5952 -493 
L 6221 -154 
C 5952 109 5395 538 4979 832 
L 4723 538 
z
M 3398 3904 
L 3398 883 
L 3808 883 
L 3808 3514 
L 5440 3514 
L 5440 896 
L 5862 896 
L 5862 3904 
L 4659 3904 
C 4742 4102 4832 4339 4915 4570 
L 6099 4570 
L 6099 4992 
L 3296 4992 
L 3296 4570 
L 4480 4570 
C 4416 4352 4320 4102 4243 3904 
L 3398 3904 
z
M 1370 5254 
C 1453 5107 1549 4928 1626 4762 
L 390 4762 
L 390 3795 
L 813 3795 
L 813 4365 
L 2746 4365 
L 2746 3795 
L 3181 3795 
L 3181 4762 
L 2131 4762 
C 2042 4947 1914 5178 1805 5357 
L 1370 5254 
z
M 806 1491 
L 806 -467 
L 1242 -467 
L 1242 -256 
L 2362 -256 
L 2362 -454 
L 2810 -454 
L 2810 1491 
L 806 1491 
z
M 1242 134 
L 1242 1101 
L 2362 1101 
L 2362 134 
L 1242 134 
z
M 954 2662 
L 1434 2406 
C 1075 2157 666 1952 250 1818 
C 320 1728 410 1510 448 1389 
C 934 1574 1414 1837 1843 2182 
C 2246 1952 2637 1715 2880 1542 
L 3206 1875 
C 2957 2042 2573 2266 2170 2477 
C 2483 2790 2752 3149 2938 3552 
L 2675 3725 
L 2579 3706 
L 1600 3706 
C 1677 3827 1741 3955 1798 4077 
L 1363 4154 
C 1178 3725 806 3213 256 2842 
C 346 2778 480 2637 538 2541 
C 864 2771 1133 3046 1344 3328 
L 2330 3328 
C 2189 3091 1997 2880 1779 2682 
L 1261 2950 
L 954 2662 
z
" transform="scale(0.015625)"/>
      </defs>
      <use xlink:href="#NotoSansCJKjp-Regular-6807"/>
      <use xlink:href="#NotoSansCJKjp-Regular-51c6" transform="translate(99.999985 0)"/>
      <use xlink:href="#NotoSansCJKjp-Regular-5316" transform="translate(199.999969 0)"/>
      <use xlink:href="#NotoSansCJKjp-Regular-91d1" transform="translate(299.999954 0)"/>
      <use xlink:href="#NotoSansCJKjp-Regular-989d" transform="translate(399.999939 0)"/>
     </g>
    </g>
   </g>
   <g id="matplotlib.axis_2">
    <g id="ytick_1">
     <g id="line2d_13">
      <path d="M 35.58 262.098375 
L 448.5 262.098375 
" clip-path="url(#pcb10a77e5b)" style="fill: none; stroke: #b0b0b0; stroke-opacity: 0.25; stroke-width: 0.8; stroke-linecap: square"/>
     </g>
     <g id="line2d_14">
      <defs>
       <path id="m90a407f4ad" d="M 0 0 
L -3.5 0 
" style="stroke: #000000; stroke-width: 0.8"/>
      </defs>
      <g>
       <use xlink:href="#m90a407f4ad" x="35.58" y="262.098375" style="stroke: #000000; stroke-width: 0.8"/>
      </g>
     </g>
     <g id="text_8">
      <!-- 0 -->
      <g transform="translate(22.475 266.476031) scale(0.11 -0.11)">
       <use xlink:href="#NotoSansCJKjp-Regular-30"/>
      </g>
     </g>
    </g>
    <g id="ytick_2">
     <g id="line2d_15">
      <path d="M 35.58 215.175537 
L 448.5 215.175537 
" clip-path="url(#pcb10a77e5b)" style="fill: none; stroke: #b0b0b0; stroke-opacity: 0.25; stroke-width: 0.8; stroke-linecap: square"/>
     </g>
     <g id="line2d_16">
      <g>
       <use xlink:href="#m90a407f4ad" x="35.58" y="215.175537" style="stroke: #000000; stroke-width: 0.8"/>
      </g>
     </g>
     <g id="text_9">
      <!-- 1 -->
      <g transform="translate(22.475 219.553193) scale(0.11 -0.11)">
       <defs>
        <path id="NotoSansCJKjp-Regular-31" d="M 563 0 
L 3136 0 
L 3136 486 
L 2195 486 
L 2195 4691 
L 1747 4691 
C 1491 4544 1190 4435 774 4358 
L 774 3987 
L 1613 3987 
L 1613 486 
L 563 486 
L 563 0 
z
" transform="scale(0.015625)"/>
       </defs>
       <use xlink:href="#NotoSansCJKjp-Regular-31"/>
      </g>
     </g>
    </g>
    <g id="ytick_3">
     <g id="line2d_17">
      <path d="M 35.58 168.252699 
L 448.5 168.252699 
" clip-path="url(#pcb10a77e5b)" style="fill: none; stroke: #b0b0b0; stroke-opacity: 0.25; stroke-width: 0.8; stroke-linecap: square"/>
     </g>
     <g id="line2d_18">
      <g>
       <use xlink:href="#m90a407f4ad" x="35.58" y="168.252699" style="stroke: #000000; stroke-width: 0.8"/>
      </g>
     </g>
     <g id="text_10">
      <!-- 2 -->
      <g transform="translate(22.475 172.630356) scale(0.11 -0.11)">
       <use xlink:href="#NotoSansCJKjp-Regular-32"/>
      </g>
     </g>
    </g>
    <g id="ytick_4">
     <g id="line2d_19">
      <path d="M 35.58 121.329862 
L 448.5 121.329862 
" clip-path="url(#pcb10a77e5b)" style="fill: none; stroke: #b0b0b0; stroke-opacity: 0.25; stroke-width: 0.8; stroke-linecap: square"/>
     </g>
     <g id="line2d_20">
      <g>
       <use xlink:href="#m90a407f4ad" x="35.58" y="121.329862" style="stroke: #000000; stroke-width: 0.8"/>
      </g>
     </g>
     <g id="text_11">
      <!-- 3 -->
      <g transform="translate(22.475 125.707518) scale(0.11 -0.11)">
       <defs>
        <path id="NotoSansCJKjp-Regular-33" d="M 1683 -83 
C 2522 -83 3194 416 3194 1254 
C 3194 1901 2752 2310 2202 2445 
L 2202 2477 
C 2701 2650 3034 3034 3034 3603 
C 3034 4346 2458 4774 1664 4774 
C 1126 4774 710 4538 358 4218 
L 672 3846 
C 941 4115 1267 4301 1645 4301 
C 2138 4301 2438 4006 2438 3558 
C 2438 3053 2112 2662 1139 2662 
L 1139 2214 
C 2227 2214 2598 1843 2598 1274 
C 2598 736 2208 403 1645 403 
C 1114 403 762 659 486 941 
L 186 563 
C 493 224 954 -83 1683 -83 
z
" transform="scale(0.015625)"/>
       </defs>
       <use xlink:href="#NotoSansCJKjp-Regular-33"/>
      </g>
     </g>
    </g>
    <g id="ytick_5">
     <g id="line2d_21">
      <path d="M 35.58 74.407024 
L 448.5 74.407024 
" clip-path="url(#pcb10a77e5b)" style="fill: none; stroke: #b0b0b0; stroke-opacity: 0.25; stroke-width: 0.8; stroke-linecap: square"/>
     </g>
     <g id="line2d_22">
      <g>
       <use xlink:href="#m90a407f4ad" x="35.58" y="74.407024" style="stroke: #000000; stroke-width: 0.8"/>
      </g>
     </g>
     <g id="text_12">
      <!-- 4 -->
      <g transform="translate(22.475 78.78468) scale(0.11 -0.11)">
       <use xlink:href="#NotoSansCJKjp-Regular-34"/>
      </g>
     </g>
    </g>
    <g id="ytick_6">
     <g id="line2d_23">
      <path d="M 35.58 27.484186 
L 448.5 27.484186 
" clip-path="url(#pcb10a77e5b)" style="fill: none; stroke: #b0b0b0; stroke-opacity: 0.25; stroke-width: 0.8; stroke-linecap: square"/>
     </g>
     <g id="line2d_24">
      <g>
       <use xlink:href="#m90a407f4ad" x="35.58" y="27.484186" style="stroke: #000000; stroke-width: 0.8"/>
      </g>
     </g>
     <g id="text_13">
      <!-- 5 -->
      <g transform="translate(22.475 31.861842) scale(0.11 -0.11)">
       <defs>
        <path id="NotoSansCJKjp-Regular-35" d="M 1677 -83 
C 2464 -83 3213 499 3213 1523 
C 3213 2560 2573 3021 1798 3021 
C 1517 3021 1306 2950 1094 2835 
L 1216 4192 
L 2982 4192 
L 2982 4691 
L 704 4691 
L 550 2502 
L 864 2304 
C 1133 2483 1331 2579 1645 2579 
C 2234 2579 2618 2182 2618 1510 
C 2618 826 2176 403 1619 403 
C 1075 403 730 653 467 922 
L 173 538 
C 493 224 941 -83 1677 -83 
z
" transform="scale(0.015625)"/>
       </defs>
       <use xlink:href="#NotoSansCJKjp-Regular-35"/>
      </g>
     </g>
    </g>
    <g id="text_14">
     <!-- 密度 -->
     <g transform="translate(15.955313 153.902375) rotate(-90) scale(0.11 -0.11)">
      <defs>
       <path id="NotoSansCJKjp-Regular-5bc6" d="M 1165 3539 
C 1018 3098 736 2650 301 2400 
L 672 2138 
C 1139 2426 1402 2918 1568 3392 
L 1165 3539 
z
M 2253 4019 
C 2650 3834 3123 3539 3354 3315 
L 3610 3629 
C 3373 3840 2886 4128 2496 4301 
L 2253 4019 
z
M 4659 3270 
C 5094 2906 5574 2381 5779 2022 
L 6150 2285 
C 5933 2650 5440 3162 5005 3507 
L 4659 3270 
z
M 4339 4038 
C 3878 3411 3187 2893 2381 2496 
L 2381 3642 
L 1946 3642 
L 1946 2387 
L 1946 2291 
C 1408 2061 832 1875 243 1728 
C 333 1632 467 1434 525 1331 
C 1069 1485 1613 1677 2125 1907 
C 2253 1824 2458 1792 2778 1792 
C 2918 1792 3930 1792 4077 1792 
C 4608 1792 4742 1965 4800 2669 
C 4678 2694 4499 2758 4403 2829 
C 4371 2266 4326 2189 4038 2189 
C 3814 2189 2970 2189 2803 2189 
L 2707 2189 
C 3526 2624 4243 3174 4755 3853 
L 4339 4038 
z
M 4960 1325 
L 4960 211 
L 3430 211 
L 3430 1696 
L 2944 1696 
L 2944 211 
L 1504 211 
L 1504 1325 
L 1030 1325 
L 1030 -512 
L 1504 -512 
L 1504 -237 
L 4960 -237 
L 4960 -499 
L 5440 -499 
L 5440 1325 
L 4960 1325 
z
M 493 4826 
L 493 3571 
L 966 3571 
L 966 4390 
L 5434 4390 
L 5434 3571 
L 5920 3571 
L 5920 4826 
L 3430 4826 
L 3430 5376 
L 2938 5376 
L 2938 4826 
L 493 4826 
z
" transform="scale(0.015625)"/>
       <path id="NotoSansCJKjp-Regular-5ea6" d="M 2470 4141 
L 2470 3584 
L 1440 3584 
L 1440 3187 
L 2470 3187 
L 2470 2125 
L 4960 2125 
L 4960 3187 
L 5997 3187 
L 5997 3584 
L 4960 3584 
L 4960 4141 
L 4486 4141 
L 4486 3584 
L 2931 3584 
L 2931 4141 
L 2470 4141 
z
M 4486 3187 
L 4486 2509 
L 2931 2509 
L 2931 3187 
L 4486 3187 
z
M 4851 1318 
C 4582 986 4211 717 3770 506 
C 3334 723 2970 992 2720 1318 
L 4851 1318 
z
M 1530 1715 
L 1530 1318 
L 2502 1318 
L 2259 1222 
C 2515 858 2861 550 3270 301 
C 2662 90 1978 -38 1280 -109 
C 1357 -211 1453 -397 1485 -512 
C 2291 -416 3072 -243 3757 45 
C 4365 -237 5088 -422 5869 -525 
C 5933 -403 6048 -211 6150 -109 
C 5466 -38 4819 96 4269 294 
C 4813 608 5261 1024 5549 1574 
L 5248 1734 
L 5165 1715 
L 1530 1715 
z
M 774 4742 
L 774 2893 
C 774 1965 730 659 198 -256 
C 314 -307 512 -435 595 -518 
C 1152 448 1235 1901 1235 2893 
L 1235 4307 
L 6035 4307 
L 6035 4742 
L 3635 4742 
L 3635 5376 
L 3142 5376 
L 3142 4742 
L 774 4742 
z
" transform="scale(0.015625)"/>
      </defs>
      <use xlink:href="#NotoSansCJKjp-Regular-5bc6"/>
      <use xlink:href="#NotoSansCJKjp-Regular-5ea6" transform="translate(99.999985 0)"/>
     </g>
    </g>
   </g>
   <g id="line2d_25">
    <path d="M 250.486568 262.098375 
L 250.486568 23.706375 
" clip-path="url(#pcb10a77e5b)" style="fill: none; stroke-dasharray: 4.07,1.76; stroke-dashoffset: 0; stroke: #4c4c4c; stroke-width: 1.1"/>
   </g>
   <g id="patch_93">
    <path d="M 35.58 262.098375 
L 35.58 23.706375 
" style="fill: none; stroke: #000000; stroke-width: 0.8; stroke-linejoin: miter; stroke-linecap: square"/>
   </g>
   <g id="patch_94">
    <path d="M 35.58 262.098375 
L 448.5 262.098375 
" style="fill: none; stroke: #000000; stroke-width: 0.8; stroke-linejoin: miter; stroke-linecap: square"/>
   </g>
   <g id="text_15">
    <!-- 归并后，0 点附近出现大量堆积 -->
    <g transform="translate(151.098188 17.706375) scale(0.132 -0.132)">
     <defs>
      <path id="NotoSansCJKjp-Regular-5f52" d="M 582 4595 
L 582 1472 
L 1056 1472 
L 1056 4595 
L 582 4595 
z
M 1882 5370 
L 1882 2829 
C 1882 1664 1754 595 710 -192 
C 826 -262 1005 -435 1088 -538 
C 2214 326 2355 1530 2355 2829 
L 2355 5370 
L 1882 5370 
z
M 2886 4800 
L 2886 4339 
L 5344 4339 
L 5344 2739 
L 3078 2739 
L 3078 2266 
L 5344 2266 
L 5344 512 
L 2758 512 
L 2758 38 
L 5344 38 
L 5344 -410 
L 5830 -410 
L 5830 4800 
L 2886 4800 
z
" transform="scale(0.015625)"/>
      <path id="NotoSansCJKjp-Regular-5e76" d="M 4538 5395 
C 4390 5043 4109 4544 3885 4237 
L 4301 4083 
C 4531 4371 4826 4826 5069 5229 
L 4538 5395 
z
M 4109 3597 
L 4109 2202 
L 2304 2202 
L 2304 2355 
L 2304 3597 
L 4109 3597 
z
M 333 2202 
L 333 1741 
L 1792 1741 
C 1696 1024 1376 326 333 -192 
C 442 -275 602 -448 666 -557 
C 1843 45 2189 883 2278 1741 
L 4109 1741 
L 4109 -512 
L 4595 -512 
L 4595 1741 
L 6074 1741 
L 6074 2202 
L 4595 2202 
L 4595 3597 
L 5875 3597 
L 5875 4058 
L 570 4058 
L 570 3597 
L 1824 3597 
L 1824 2368 
L 1824 2202 
L 333 2202 
z
M 1395 5203 
C 1664 4851 1952 4371 2054 4058 
L 2509 4262 
C 2387 4570 2093 5030 1818 5376 
L 1395 5203 
z
" transform="scale(0.015625)"/>
      <path id="NotoSansCJKjp-Regular-540e" d="M 5222 5325 
C 4352 5088 2829 4902 1446 4787 
L 954 4883 
L 954 3085 
C 954 2099 883 774 205 -198 
C 326 -256 512 -416 582 -518 
C 1338 538 1434 2048 1434 3078 
L 1434 3142 
L 6163 3142 
L 6163 3603 
L 1434 3603 
L 1434 4358 
C 2886 4461 4518 4653 5626 4947 
L 5222 5325 
z
M 1997 2227 
L 1997 -518 
L 2458 -518 
L 2458 -186 
L 5114 -186 
L 5114 -506 
L 5600 -506 
L 5600 2227 
L 1997 2227 
z
M 2458 262 
L 2458 1779 
L 5114 1779 
L 5114 262 
L 2458 262 
z
" transform="scale(0.015625)"/>
      <path id="NotoSansCJKjp-Regular-ff0c" d="M 1005 -685 
C 1677 -448 2112 77 2112 768 
C 2112 1216 1920 1504 1568 1504 
C 1306 1504 1082 1344 1082 1043 
C 1082 742 1299 589 1562 589 
L 1670 602 
C 1638 160 1357 -141 864 -346 
L 1005 -685 
z
" transform="scale(0.015625)"/>
      <path id="NotoSansCJKjp-Regular-20" transform="scale(0.015625)"/>
      <path id="NotoSansCJKjp-Regular-70b9" d="M 1517 2976 
L 4864 2976 
L 4864 1830 
L 1517 1830 
L 1517 2976 
z
M 2176 819 
C 2259 403 2310 -134 2310 -454 
L 2797 -390 
C 2790 -83 2726 448 2630 858 
L 2176 819 
z
M 3501 813 
C 3686 416 3878 -122 3949 -442 
L 4416 -320 
C 4339 0 4134 518 3936 909 
L 3501 813 
z
M 4806 864 
C 5126 461 5485 -109 5632 -461 
L 6086 -269 
C 5926 83 5555 627 5235 1030 
L 4806 864 
z
M 1133 992 
C 934 518 608 0 269 -294 
L 704 -506 
C 1056 -166 1382 371 1587 870 
L 1133 992 
z
M 1062 3430 
L 1062 1382 
L 5344 1382 
L 5344 3430 
L 3392 3430 
L 3392 4243 
L 5824 4243 
L 5824 4698 
L 3392 4698 
L 3392 5376 
L 2912 5376 
L 2912 3430 
L 1062 3430 
z
" transform="scale(0.015625)"/>
      <path id="NotoSansCJKjp-Regular-9644" d="M 3674 2650 
C 3910 2189 4198 1568 4326 1178 
L 4723 1370 
C 4589 1760 4301 2355 4045 2816 
L 3674 2650 
z
M 5133 5299 
L 5133 3904 
L 3539 3904 
L 3539 3456 
L 5133 3456 
L 5133 102 
C 5133 0 5094 -26 4998 -32 
C 4902 -38 4602 -38 4256 -26 
C 4326 -160 4390 -378 4416 -499 
C 4890 -506 5171 -486 5350 -410 
C 5523 -326 5594 -179 5594 109 
L 5594 3456 
L 6163 3456 
L 6163 3904 
L 5594 3904 
L 5594 5299 
L 5133 5299 
z
M 3302 5370 
C 3034 4435 2566 3520 2029 2925 
C 2125 2829 2278 2624 2336 2528 
C 2496 2714 2650 2925 2797 3162 
L 2797 -480 
L 3232 -480 
L 3232 3949 
C 3430 4365 3603 4806 3744 5254 
L 3302 5370 
z
M 531 5101 
L 531 -512 
L 960 -512 
L 960 4666 
L 1747 4666 
C 1619 4218 1446 3629 1280 3155 
C 1702 2630 1798 2170 1798 1818 
C 1798 1606 1766 1421 1677 1350 
C 1632 1312 1562 1293 1491 1293 
C 1402 1286 1286 1286 1152 1299 
C 1229 1178 1261 998 1261 870 
C 1402 864 1549 864 1670 883 
C 1792 896 1901 934 1984 1005 
C 2157 1126 2227 1408 2227 1766 
C 2227 2176 2131 2656 1702 3206 
C 1901 3738 2125 4397 2291 4941 
L 1984 5126 
L 1907 5101 
L 531 5101 
z
" transform="scale(0.015625)"/>
      <path id="NotoSansCJKjp-Regular-8fd1" d="M 384 4934 
C 794 4646 1274 4218 1478 3904 
L 1862 4224 
C 1632 4531 1152 4947 730 5222 
L 384 4934 
z
M 5331 5350 
C 4806 5158 3885 4986 3040 4864 
L 2656 4947 
L 2656 3456 
C 2656 2662 2573 1645 1869 890 
C 1984 826 2157 659 2221 557 
C 2886 1267 3072 2240 3110 3040 
L 4429 3040 
L 4429 390 
L 4902 390 
L 4902 3040 
L 6093 3040 
L 6093 3488 
L 3123 3488 
L 3123 4461 
C 4026 4576 5043 4755 5747 4992 
L 5331 5350 
z
M 1677 2848 
L 314 2848 
L 314 2400 
L 1210 2400 
L 1210 768 
C 890 499 518 230 230 32 
L 480 -461 
C 826 -173 1152 102 1459 378 
C 1869 -128 2445 -358 3283 -390 
C 3994 -416 5318 -403 6016 -371 
C 6035 -224 6118 6 6176 115 
C 5414 64 3981 45 3283 77 
C 2541 102 1978 326 1677 794 
L 1677 2848 
z
" transform="scale(0.015625)"/>
      <path id="NotoSansCJKjp-Regular-51fa" d="M 966 4768 
L 966 2560 
L 2918 2560 
L 2918 365 
L 1203 365 
L 1203 2144 
L 723 2144 
L 723 -512 
L 1203 -512 
L 1203 -109 
L 5222 -109 
L 5222 -499 
L 5715 -499 
L 5715 2144 
L 5222 2144 
L 5222 365 
L 3418 365 
L 3418 2560 
L 5459 2560 
L 5459 4768 
L 4960 4768 
L 4960 3021 
L 3418 3021 
L 3418 5344 
L 2918 5344 
L 2918 3021 
L 1446 3021 
L 1446 4768 
L 966 4768 
z
" transform="scale(0.015625)"/>
      <path id="NotoSansCJKjp-Regular-73b0" d="M 2765 5062 
L 2765 1658 
L 3226 1658 
L 3226 4640 
L 5165 4640 
L 5165 1658 
L 5638 1658 
L 5638 5062 
L 2765 5062 
z
M 275 640 
L 384 173 
C 992 358 1805 602 2566 826 
L 2509 1274 
L 1670 1024 
L 1670 2643 
L 2342 2643 
L 2342 3091 
L 1670 3091 
L 1670 4493 
L 2470 4493 
L 2470 4941 
L 352 4941 
L 352 4493 
L 1210 4493 
L 1210 3091 
L 448 3091 
L 448 2643 
L 1210 2643 
L 1210 890 
C 858 794 538 704 275 640 
z
M 3949 4096 
L 3949 2861 
C 3949 1856 3744 646 2125 -186 
C 2221 -256 2374 -435 2426 -531 
C 3488 26 3994 787 4224 1555 
L 4224 205 
C 4224 -230 4390 -346 4838 -346 
L 5427 -346 
C 5978 -346 6054 -90 6112 922 
C 5990 947 5837 1018 5722 1114 
C 5690 198 5651 19 5427 19 
L 4902 19 
C 4723 19 4672 64 4672 250 
L 4672 1766 
L 4282 1766 
C 4371 2138 4397 2509 4397 2848 
L 4397 4096 
L 3949 4096 
z
" transform="scale(0.015625)"/>
      <path id="NotoSansCJKjp-Regular-5927" d="M 2950 5370 
C 2944 4864 2950 4218 2854 3539 
L 397 3539 
L 397 3046 
L 2771 3046 
C 2515 1830 1875 589 275 -102 
C 410 -205 563 -378 640 -499 
C 2202 218 2893 1446 3206 2682 
C 3706 1222 4531 90 5773 -499 
C 5856 -358 6010 -160 6131 -51 
C 4890 467 4051 1632 3603 3046 
L 6029 3046 
L 6029 3539 
L 3366 3539 
C 3456 4211 3462 4851 3469 5370 
L 2950 5370 
z
" transform="scale(0.015625)"/>
      <path id="NotoSansCJKjp-Regular-91cf" d="M 1600 4256 
L 4781 4256 
L 4781 3904 
L 1600 3904 
L 1600 4256 
z
M 1600 4883 
L 4781 4883 
L 4781 4538 
L 1600 4538 
L 1600 4883 
z
M 1133 5171 
L 1133 3616 
L 5261 3616 
L 5261 5171 
L 1133 5171 
z
M 333 3341 
L 333 2976 
L 6074 2976 
L 6074 3341 
L 333 3341 
z
M 1472 1747 
L 2957 1747 
L 2957 1376 
L 1472 1376 
L 1472 1747 
z
M 3424 1747 
L 4973 1747 
L 4973 1376 
L 3424 1376 
L 3424 1747 
z
M 1472 2387 
L 2957 2387 
L 2957 2029 
L 1472 2029 
L 1472 2387 
z
M 3424 2387 
L 4973 2387 
L 4973 2029 
L 3424 2029 
L 3424 2387 
z
M 301 19 
L 301 -352 
L 6112 -352 
L 6112 19 
L 3424 19 
L 3424 390 
L 5587 390 
L 5587 730 
L 3424 730 
L 3424 1082 
L 5446 1082 
L 5446 2688 
L 1018 2688 
L 1018 1082 
L 2957 1082 
L 2957 730 
L 838 730 
L 838 390 
L 2957 390 
L 2957 19 
L 301 19 
z
" transform="scale(0.015625)"/>
      <path id="NotoSansCJKjp-Regular-5806" d="M 4320 2445 
L 4320 1594 
L 3328 1594 
L 3328 2445 
L 4320 2445 
z
M 3328 5389 
C 3046 4435 2566 3520 1984 2931 
C 2086 2848 2266 2656 2342 2566 
C 2522 2765 2694 2995 2861 3245 
L 2861 -506 
L 3328 -506 
L 3328 -141 
L 6163 -141 
L 6163 301 
L 4794 301 
L 4794 1158 
L 5888 1158 
L 5888 1594 
L 4794 1594 
L 4794 2445 
L 5888 2445 
L 5888 2874 
L 4794 2874 
L 4794 3718 
L 6042 3718 
L 6042 4160 
L 4781 4160 
C 4954 4474 5133 4858 5280 5210 
L 4762 5325 
C 4659 4986 4480 4518 4307 4160 
L 3366 4160 
C 3533 4518 3674 4890 3795 5274 
L 3328 5389 
z
M 4320 2874 
L 3328 2874 
L 3328 3718 
L 4320 3718 
L 4320 2874 
z
M 4320 1158 
L 4320 301 
L 3328 301 
L 3328 1158 
L 4320 1158 
z
M 218 1024 
L 384 544 
C 960 774 1728 1088 2432 1382 
L 2342 1837 
L 1587 1542 
L 1587 3405 
L 2278 3405 
L 2278 3859 
L 1587 3859 
L 1587 5299 
L 1126 5299 
L 1126 3859 
L 333 3859 
L 333 3405 
L 1126 3405 
L 1126 1363 
L 218 1024 
z
" transform="scale(0.015625)"/>
      <path id="NotoSansCJKjp-Regular-79ef" d="M 4864 1312 
C 5197 755 5549 6 5690 -454 
L 6144 -262 
C 5997 192 5632 922 5286 1472 
L 4864 1312 
z
M 3552 1459 
C 3373 806 3046 179 2630 -230 
C 2752 -294 2950 -435 3040 -506 
C 3456 -64 3821 627 4032 1350 
L 3552 1459 
z
M 3558 4461 
L 5382 4461 
L 5382 2547 
L 3558 2547 
L 3558 4461 
z
M 3098 4922 
L 3098 2086 
L 5862 2086 
L 5862 4922 
L 3098 4922 
z
M 2541 5318 
C 1990 5101 1037 4915 224 4800 
C 282 4691 346 4525 365 4422 
C 704 4461 1069 4518 1427 4582 
L 1427 3539 
L 294 3539 
L 294 3091 
L 1357 3091 
C 1088 2355 634 1523 205 1069 
C 288 947 416 749 467 614 
C 806 1011 1152 1658 1427 2310 
L 1427 -518 
L 1888 -518 
L 1888 2458 
C 2131 2112 2445 1638 2566 1408 
L 2854 1811 
C 2720 2003 2086 2758 1888 2970 
L 1888 3091 
L 2899 3091 
L 2899 3539 
L 1888 3539 
L 1888 4672 
C 2234 4749 2554 4838 2816 4934 
L 2541 5318 
z
" transform="scale(0.015625)"/>
     </defs>
     <use xlink:href="#NotoSansCJKjp-Regular-5f52"/>
     <use xlink:href="#NotoSansCJKjp-Regular-5e76" transform="translate(99.999985 0)"/>
     <use xlink:href="#NotoSansCJKjp-Regular-540e" transform="translate(199.999969 0)"/>
     <use xlink:href="#NotoSansCJKjp-Regular-ff0c" transform="translate(299.999954 0)"/>
     <use xlink:href="#NotoSansCJKjp-Regular-30" transform="translate(399.999939 0)"/>
     <use xlink:href="#NotoSansCJKjp-Regular-20" transform="translate(455.499924 0)"/>
     <use xlink:href="#NotoSansCJKjp-Regular-70b9" transform="translate(477.899918 0)"/>
     <use xlink:href="#NotoSansCJKjp-Regular-9644" transform="translate(577.899902 0)"/>
     <use xlink:href="#NotoSansCJKjp-Regular-8fd1" transform="translate(677.899887 0)"/>
     <use xlink:href="#NotoSansCJKjp-Regular-51fa" transform="translate(777.899872 0)"/>
     <use xlink:href="#NotoSansCJKjp-Regular-73b0" transform="translate(877.899857 0)"/>
     <use xlink:href="#NotoSansCJKjp-Regular-5927" transform="translate(977.899841 0)"/>
     <use xlink:href="#NotoSansCJKjp-Regular-91cf" transform="translate(1077.899826 0)"/>
     <use xlink:href="#NotoSansCJKjp-Regular-5806" transform="translate(1177.899811 0)"/>
     <use xlink:href="#NotoSansCJKjp-Regular-79ef" transform="translate(1277.899796 0)"/>
    </g>
   </g>
   <g id="legend_1">
    <g id="patch_95">
     <path d="M 312.76 42.361687 
L 334.76 42.361687 
L 334.76 34.661687 
L 312.76 34.661687 
z
" style="fill: #1f77b4; opacity: 0.5"/>
    </g>
    <g id="text_16">
     <!-- 潜在净借款需求 $B^*$ -->
     <g transform="translate(343.56 42.361687) scale(0.11 -0.11)">
      <defs>
       <path id="NotoSansCJKjp-Regular-6f5c" d="M 563 4973 
C 960 4794 1446 4486 1690 4256 
L 1965 4653 
C 1722 4870 1229 5158 832 5325 
L 563 4973 
z
M 243 3238 
C 646 3072 1133 2784 1376 2573 
L 1658 2976 
C 1408 3181 909 3450 506 3603 
L 243 3238 
z
M 422 -134 
L 845 -429 
C 1184 166 1587 979 1888 1664 
L 1517 1952 
C 1184 1216 736 365 422 -134 
z
M 2822 736 
L 5146 736 
L 5146 179 
L 2822 179 
L 2822 736 
z
M 2822 1101 
L 2822 1638 
L 5146 1638 
L 5146 1101 
L 2822 1101 
z
M 2368 2029 
L 2368 -499 
L 2822 -499 
L 2822 -211 
L 5146 -211 
L 5146 -493 
L 5619 -493 
L 5619 2029 
L 2368 2029 
z
M 1894 3910 
L 1894 3520 
L 2682 3520 
C 2586 3078 2355 2618 1792 2291 
C 1888 2221 2022 2074 2086 1978 
C 2534 2266 2810 2630 2970 3008 
C 3168 2810 3411 2566 3514 2426 
L 3827 2758 
C 3718 2861 3296 3219 3091 3373 
L 3123 3520 
L 3840 3520 
L 3840 3910 
L 3174 3910 
L 3187 4224 
L 3187 4390 
L 3814 4390 
L 3814 4781 
L 3187 4781 
L 3187 5370 
L 2746 5370 
L 2746 4781 
L 2010 4781 
L 2010 4390 
L 2746 4390 
L 2746 4224 
L 2733 3910 
L 1894 3910 
z
M 4019 4781 
L 4019 4390 
L 4742 4390 
L 4742 4243 
C 4742 4141 4742 4026 4730 3910 
L 4019 3910 
L 4019 3520 
L 4659 3520 
C 4557 3123 4314 2726 3776 2445 
C 3872 2362 4006 2214 4070 2118 
C 4557 2406 4838 2784 4998 3168 
C 5203 2720 5510 2330 5894 2112 
C 5958 2221 6099 2381 6202 2464 
C 5773 2656 5453 3059 5261 3520 
L 6074 3520 
L 6074 3910 
L 5171 3910 
C 5178 4026 5184 4134 5184 4243 
L 5184 4390 
L 5990 4390 
L 5990 4781 
L 5184 4781 
L 5184 5363 
L 4742 5363 
L 4742 4781 
L 4019 4781 
z
" transform="scale(0.015625)"/>
       <path id="NotoSansCJKjp-Regular-5728" d="M 2502 5376 
C 2413 5050 2298 4710 2163 4384 
L 403 4384 
L 403 3923 
L 1952 3923 
C 1542 3104 979 2342 243 1830 
C 320 1722 442 1517 493 1389 
C 762 1581 1011 1798 1235 2035 
L 1235 -486 
L 1715 -486 
L 1715 2605 
C 2016 3014 2278 3462 2496 3923 
L 6010 3923 
L 6010 4384 
L 2694 4384 
C 2810 4672 2912 4966 3002 5254 
L 2502 5376 
z
M 3827 3590 
L 3827 2355 
L 2387 2355 
L 2387 1907 
L 3827 1907 
L 3827 90 
L 2131 90 
L 2131 -358 
L 6003 -358 
L 6003 90 
L 4307 90 
L 4307 1907 
L 5760 1907 
L 5760 2355 
L 4307 2355 
L 4307 3590 
L 3827 3590 
z
" transform="scale(0.015625)"/>
       <path id="NotoSansCJKjp-Regular-51c0" d="M 307 4896 
C 640 4442 1037 3821 1216 3443 
L 1664 3680 
C 1472 4051 1056 4653 723 5094 
L 307 4896 
z
M 307 13 
L 794 -211 
C 1094 397 1446 1222 1715 1939 
L 1293 2170 
C 998 1408 595 538 307 13 
z
M 3034 4403 
L 4339 4403 
C 4211 4160 4045 3904 3885 3706 
L 2534 3706 
C 2707 3923 2874 4154 3034 4403 
z
M 3027 5382 
C 2720 4659 2202 3942 1658 3482 
C 1766 3411 1952 3251 2029 3168 
C 2131 3258 2227 3360 2330 3469 
L 2330 3277 
L 3578 3277 
L 3578 2618 
L 1766 2618 
L 1766 2182 
L 3578 2182 
L 3578 1498 
L 2131 1498 
L 2131 1062 
L 3578 1062 
L 3578 70 
C 3578 -26 3546 -45 3443 -51 
C 3334 -58 2982 -58 2605 -45 
C 2669 -179 2739 -378 2765 -499 
C 3264 -506 3584 -493 3782 -422 
C 3981 -352 4045 -211 4045 64 
L 4045 1062 
L 5158 1062 
L 5158 800 
L 5613 800 
L 5613 2182 
L 6131 2182 
L 6131 2618 
L 5613 2618 
L 5613 3706 
L 4403 3706 
C 4621 3994 4838 4339 4986 4634 
L 4672 4851 
L 4595 4826 
L 3277 4826 
C 3354 4966 3424 5107 3488 5248 
L 3027 5382 
z
M 5158 1498 
L 4045 1498 
L 4045 2182 
L 5158 2182 
L 5158 1498 
z
M 5158 2618 
L 4045 2618 
L 4045 3277 
L 5158 3277 
L 5158 2618 
z
" transform="scale(0.015625)"/>
       <path id="NotoSansCJKjp-Regular-501f" d="M 4595 5318 
L 4595 4570 
L 3405 4570 
L 3405 5318 
L 2938 5318 
L 2938 4570 
L 2080 4570 
L 2080 4154 
L 2938 4154 
L 2938 3277 
L 1818 3277 
L 1818 2842 
L 6195 2842 
L 6195 3277 
L 5069 3277 
L 5069 4154 
L 5971 4154 
L 5971 4570 
L 5069 4570 
L 5069 5318 
L 4595 5318 
z
M 3405 4154 
L 4595 4154 
L 4595 3277 
L 3405 3277 
L 3405 4154 
z
M 2957 858 
L 5152 858 
L 5152 160 
L 2957 160 
L 2957 858 
z
M 2957 1242 
L 2957 1914 
L 5152 1914 
L 5152 1242 
L 2957 1242 
z
M 2496 2323 
L 2496 -531 
L 2957 -531 
L 2957 -243 
L 5152 -243 
L 5152 -506 
L 5632 -506 
L 5632 2323 
L 2496 2323 
z
M 1690 5350 
C 1331 4378 736 3418 102 2797 
C 192 2688 326 2438 371 2323 
C 595 2554 813 2822 1024 3117 
L 1024 -499 
L 1485 -499 
L 1485 3840 
C 1734 4282 1965 4749 2144 5216 
L 1690 5350 
z
" transform="scale(0.015625)"/>
       <path id="NotoSansCJKjp-Regular-6b3e" d="M 742 1402 
C 627 915 429 435 154 109 
C 256 64 442 -32 525 -96 
C 787 256 1024 787 1158 1318 
L 742 1402 
z
M 2406 1254 
C 2586 941 2784 518 2867 262 
L 3245 442 
C 3162 691 2957 1101 2771 1402 
L 2406 1254 
z
M 1581 5357 
L 1581 4768 
L 326 4768 
L 326 4358 
L 1581 4358 
L 1581 3808 
L 474 3808 
L 474 3405 
L 3155 3405 
L 3155 3808 
L 2035 3808 
L 2035 4358 
L 3283 4358 
L 3283 4768 
L 2035 4768 
L 2035 5357 
L 1581 5357 
z
M 250 2029 
L 250 1619 
L 1587 1619 
L 1587 -19 
C 1587 -83 1568 -102 1491 -102 
C 1421 -109 1197 -109 941 -102 
C 998 -224 1062 -397 1082 -518 
C 1446 -518 1683 -512 1837 -442 
C 1997 -371 2035 -250 2035 -26 
L 2035 1619 
L 3347 1619 
L 3347 2029 
L 250 2029 
z
M 3834 5382 
C 3706 4384 3475 3405 3078 2771 
L 3078 2925 
L 544 2925 
L 544 2522 
L 3078 2522 
L 3078 2726 
C 3194 2662 3398 2522 3475 2451 
C 3686 2810 3859 3264 4006 3776 
L 4352 3776 
L 4352 2899 
C 4358 2368 4166 730 2816 -134 
C 2906 -224 3046 -416 3098 -518 
C 4147 173 4518 1363 4582 1914 
C 4653 1382 4979 134 5888 -512 
C 5958 -403 6099 -211 6189 -102 
C 5011 723 4813 2387 4819 2899 
L 4819 3776 
L 5574 3776 
C 5517 3354 5440 2899 5363 2598 
L 5741 2483 
C 5875 2906 5997 3584 6080 4147 
L 5766 4237 
L 5690 4218 
L 4115 4218 
C 4198 4570 4262 4934 4314 5312 
L 3834 5382 
z
" transform="scale(0.015625)"/>
       <path id="NotoSansCJKjp-Regular-9700" d="M 1242 3654 
L 1242 3334 
L 2618 3334 
L 2618 3654 
L 1242 3654 
z
M 1101 2982 
L 1101 2662 
L 2624 2662 
L 2624 2982 
L 1101 2982 
z
M 3744 2982 
L 3744 2656 
L 5312 2656 
L 5312 2982 
L 3744 2982 
z
M 3744 3654 
L 3744 3334 
L 5158 3334 
L 5158 3654 
L 3744 3654 
z
M 486 4358 
L 486 3136 
L 922 3136 
L 922 4006 
L 2950 4006 
L 2950 2490 
L 3411 2490 
L 3411 4006 
L 5472 4006 
L 5472 3136 
L 5920 3136 
L 5920 4358 
L 3411 4358 
L 3411 4736 
L 5536 4736 
L 5536 5120 
L 858 5120 
L 858 4736 
L 2950 4736 
L 2950 4358 
L 486 4358 
z
M 915 1434 
L 915 -499 
L 1370 -499 
L 1370 1037 
L 2317 1037 
L 2317 -461 
L 2758 -461 
L 2758 1037 
L 3738 1037 
L 3738 -461 
L 4179 -461 
L 4179 1037 
L 5178 1037 
L 5178 -26 
C 5178 -90 5165 -109 5088 -109 
C 5024 -115 4806 -115 4544 -109 
C 4602 -224 4672 -390 4698 -512 
C 5043 -512 5286 -512 5446 -435 
C 5606 -371 5645 -256 5645 -32 
L 5645 1434 
L 3226 1434 
L 3398 1888 
L 6003 1888 
L 6003 2278 
L 416 2278 
L 416 1888 
L 2899 1888 
C 2861 1741 2816 1581 2765 1434 
L 915 1434 
z
" transform="scale(0.015625)"/>
       <path id="NotoSansCJKjp-Regular-6c42" d="M 762 3213 
C 1152 2854 1600 2349 1792 2010 
L 2176 2291 
C 1978 2630 1523 3117 1126 3456 
L 762 3213 
z
M 237 544 
L 538 109 
C 1107 435 1862 883 2554 1306 
L 2400 1734 
C 1619 1286 781 813 237 544 
z
M 2944 5363 
L 2944 4301 
L 416 4301 
L 416 3834 
L 2944 3834 
L 2944 141 
C 2944 13 2899 -19 2778 -26 
C 2650 -26 2234 -32 1792 -13 
C 1869 -160 1939 -384 1971 -525 
C 2534 -525 2918 -512 3136 -429 
C 3347 -346 3437 -198 3437 141 
L 3437 2669 
C 3987 1472 4794 474 5843 -38 
C 5926 96 6080 282 6195 384 
C 5478 698 4858 1248 4365 1926 
C 4800 2291 5331 2822 5728 3277 
L 5312 3571 
C 5018 3168 4531 2650 4128 2285 
C 3840 2739 3610 3232 3437 3750 
L 3437 3834 
L 6010 3834 
L 6010 4301 
L 5222 4301 
L 5517 4634 
C 5248 4845 4723 5152 4326 5350 
L 4038 5050 
C 4435 4845 4941 4525 5197 4301 
L 3437 4301 
L 3437 5363 
L 2944 5363 
z
" transform="scale(0.015625)"/>
       <path id="DejaVuSans-Oblique-42" d="M 1081 4666 
L 2694 4666 
Q 3350 4666 3675 4422 
Q 4000 4178 4000 3688 
Q 4000 3238 3720 2911 
Q 3441 2584 2988 2516 
Q 3375 2428 3569 2181 
Q 3763 1934 3763 1522 
Q 3763 819 3242 409 
Q 2722 0 1819 0 
L 172 0 
L 1081 4666 
z
M 1234 2228 
L 903 519 
L 1919 519 
Q 2491 519 2800 781 
Q 3109 1044 3109 1522 
Q 3109 1891 2904 2059 
Q 2700 2228 2247 2228 
L 1234 2228 
z
M 1606 4147 
L 1331 2741 
L 2272 2741 
Q 2775 2741 3058 2959 
Q 3341 3178 3341 3566 
Q 3341 3869 3150 4008 
Q 2959 4147 2541 4147 
L 1606 4147 
z
" transform="scale(0.015625)"/>
       <path id="DejaVuSans-2a" d="M 3009 3897 
L 1888 3291 
L 3009 2681 
L 2828 2375 
L 1778 3009 
L 1778 1831 
L 1422 1831 
L 1422 3009 
L 372 2375 
L 191 2681 
L 1313 3291 
L 191 3897 
L 372 4206 
L 1422 3572 
L 1422 4750 
L 1778 4750 
L 1778 3572 
L 2828 4206 
L 3009 3897 
z
" transform="scale(0.015625)"/>
      </defs>
      <use xlink:href="#NotoSansCJKjp-Regular-6f5c" transform="translate(0 0.765625)"/>
      <use xlink:href="#NotoSansCJKjp-Regular-5728" transform="translate(99.999985 0.765625)"/>
      <use xlink:href="#NotoSansCJKjp-Regular-51c0" transform="translate(199.999969 0.765625)"/>
      <use xlink:href="#NotoSansCJKjp-Regular-501f" transform="translate(299.999954 0.765625)"/>
      <use xlink:href="#NotoSansCJKjp-Regular-6b3e" transform="translate(399.999939 0.765625)"/>
      <use xlink:href="#NotoSansCJKjp-Regular-9700" transform="translate(499.999924 0.765625)"/>
      <use xlink:href="#NotoSansCJKjp-Regular-6c42" transform="translate(599.999908 0.765625)"/>
      <use xlink:href="#NotoSansCJKjp-Regular-20" transform="translate(699.999893 0.765625)"/>
      <use xlink:href="#DejaVuSans-Oblique-42" transform="translate(722.399887 0.765625)"/>
      <use xlink:href="#DejaVuSans-2a" transform="translate(811.657869 39.046875) scale(0.7)"/>
     </g>
    </g>
    <g id="patch_96">
     <path d="M 312.76 59.136687 
L 334.76 59.136687 
L 334.76 51.436687 
L 312.76 51.436687 
z
" style="fill: #ff7f0e; opacity: 0.45"/>
    </g>
    <g id="text_17">
     <!-- 观测贷款金额 $B/80$ -->
     <g transform="translate(343.56 59.136687) scale(0.11 -0.11)">
      <defs>
       <path id="NotoSansCJKjp-Regular-89c2" d="M 2957 5062 
L 2957 1658 
L 3411 1658 
L 3411 4634 
L 5299 4634 
L 5299 1658 
L 5773 1658 
L 5773 5062 
L 2957 5062 
z
M 4090 4096 
L 4090 2867 
C 4090 1875 3885 666 2278 -160 
C 2368 -230 2522 -410 2573 -506 
C 3654 51 4160 838 4384 1613 
L 4384 154 
C 4384 -275 4557 -390 4973 -390 
L 5517 -390 
C 6067 -390 6138 -134 6189 877 
C 6074 909 5914 973 5798 1062 
C 5766 147 5734 -26 5523 -26 
L 5050 -26 
C 4877 -26 4826 26 4826 198 
L 4826 1754 
L 4422 1754 
C 4512 2138 4544 2515 4544 2861 
L 4544 4096 
L 4090 4096 
z
M 365 3578 
C 730 3085 1114 2502 1434 1946 
C 1101 1158 685 525 218 115 
C 339 32 499 -134 576 -250 
C 1018 173 1408 730 1728 1414 
C 1926 1043 2080 698 2182 410 
L 2592 691 
C 2458 1050 2234 1498 1965 1965 
C 2272 2771 2496 3725 2618 4806 
L 2310 4902 
L 2227 4883 
L 333 4883 
L 333 4422 
L 2106 4422 
C 2010 3731 1850 3078 1645 2490 
C 1357 2957 1037 3418 730 3821 
L 365 3578 
z
" transform="scale(0.015625)"/>
       <path id="NotoSansCJKjp-Regular-6d4b" d="M 3110 589 
C 3437 269 3814 -179 3994 -467 
L 4307 -250 
C 4122 26 3738 461 3411 774 
L 3110 589 
z
M 1997 5005 
L 1997 986 
L 2374 986 
L 2374 4634 
L 3763 4634 
L 3763 1005 
L 4154 1005 
L 4154 5005 
L 1997 5005 
z
M 5549 5293 
L 5549 45 
C 5549 -51 5510 -83 5421 -83 
C 5331 -90 5030 -90 4691 -83 
C 4749 -198 4813 -384 4832 -486 
C 5280 -493 5555 -480 5722 -410 
C 5882 -339 5946 -218 5946 45 
L 5946 5293 
L 5549 5293 
z
M 4672 4800 
L 4672 966 
L 5056 966 
L 5056 4800 
L 4672 4800 
z
M 2854 4179 
L 2854 1914 
C 2854 1139 2726 339 1658 -205 
C 1728 -262 1850 -422 1894 -499 
C 3046 83 3226 1050 3226 1907 
L 3226 4179 
L 2854 4179 
z
M 518 4966 
C 877 4768 1338 4461 1555 4256 
L 1850 4646 
C 1619 4838 1152 5120 806 5306 
L 518 4966 
z
M 243 3238 
C 595 3040 1062 2752 1293 2560 
L 1581 2944 
C 1338 3130 864 3405 518 3584 
L 243 3238 
z
M 371 -173 
L 806 -429 
C 1075 160 1395 947 1626 1619 
L 1242 1869 
C 986 1152 627 320 371 -173 
z
" transform="scale(0.015625)"/>
       <path id="NotoSansCJKjp-Regular-8d37" d="M 2912 1914 
L 2912 1478 
C 2912 1018 2771 346 493 -109 
C 608 -205 755 -384 806 -486 
C 3168 58 3418 864 3418 1466 
L 3418 1914 
L 2912 1914 
z
M 3341 410 
C 4090 166 5069 -243 5562 -531 
L 5811 -128 
C 5299 154 4314 544 3578 762 
L 3341 410 
z
M 1229 2624 
L 1229 582 
L 1709 582 
L 1709 2182 
L 4685 2182 
L 4685 608 
L 5178 608 
L 5178 2624 
L 1229 2624 
z
M 4352 5190 
C 4608 5011 4922 4749 5069 4570 
L 5421 4813 
C 5267 4986 4947 5235 4698 5395 
L 4352 5190 
z
M 3053 5357 
C 3085 4992 3174 4659 3302 4352 
L 2170 4269 
L 2208 3878 
L 3494 3974 
C 3936 3245 4634 2790 5363 2790 
C 5779 2790 5952 2950 6029 3590 
C 5901 3629 5754 3699 5658 3789 
C 5626 3366 5574 3238 5376 3238 
C 4890 3226 4384 3520 4019 4019 
L 6067 4173 
L 6029 4557 
L 3789 4390 
C 3648 4672 3546 4998 3514 5357 
L 3053 5357 
z
M 1926 5376 
C 1542 4742 896 4147 250 3776 
C 352 3699 518 3526 595 3437 
C 832 3597 1075 3782 1312 4000 
L 1312 2835 
L 1779 2835 
L 1779 4461 
C 1997 4704 2195 4960 2355 5229 
L 1926 5376 
z
" transform="scale(0.015625)"/>
       <path id="DejaVuSans-2f" d="M 1625 4666 
L 2156 4666 
L 531 -594 
L 0 -594 
L 1625 4666 
z
" transform="scale(0.015625)"/>
       <path id="DejaVuSans-38" d="M 2034 2216 
Q 1584 2216 1326 1975 
Q 1069 1734 1069 1313 
Q 1069 891 1326 650 
Q 1584 409 2034 409 
Q 2484 409 2743 651 
Q 3003 894 3003 1313 
Q 3003 1734 2745 1975 
Q 2488 2216 2034 2216 
z
M 1403 2484 
Q 997 2584 770 2862 
Q 544 3141 544 3541 
Q 544 4100 942 4425 
Q 1341 4750 2034 4750 
Q 2731 4750 3128 4425 
Q 3525 4100 3525 3541 
Q 3525 3141 3298 2862 
Q 3072 2584 2669 2484 
Q 3125 2378 3379 2068 
Q 3634 1759 3634 1313 
Q 3634 634 3220 271 
Q 2806 -91 2034 -91 
Q 1263 -91 848 271 
Q 434 634 434 1313 
Q 434 1759 690 2068 
Q 947 2378 1403 2484 
z
M 1172 3481 
Q 1172 3119 1398 2916 
Q 1625 2713 2034 2713 
Q 2441 2713 2670 2916 
Q 2900 3119 2900 3481 
Q 2900 3844 2670 4047 
Q 2441 4250 2034 4250 
Q 1625 4250 1398 4047 
Q 1172 3844 1172 3481 
z
" transform="scale(0.015625)"/>
       <path id="DejaVuSans-30" d="M 2034 4250 
Q 1547 4250 1301 3770 
Q 1056 3291 1056 2328 
Q 1056 1369 1301 889 
Q 1547 409 2034 409 
Q 2525 409 2770 889 
Q 3016 1369 3016 2328 
Q 3016 3291 2770 3770 
Q 2525 4250 2034 4250 
z
M 2034 4750 
Q 2819 4750 3233 4129 
Q 3647 3509 3647 2328 
Q 3647 1150 3233 529 
Q 2819 -91 2034 -91 
Q 1250 -91 836 529 
Q 422 1150 422 2328 
Q 422 3509 836 4129 
Q 1250 4750 2034 4750 
z
" transform="scale(0.015625)"/>
      </defs>
      <use xlink:href="#NotoSansCJKjp-Regular-89c2" transform="translate(0 0.703125)"/>
      <use xlink:href="#NotoSansCJKjp-Regular-6d4b" transform="translate(99.999985 0.703125)"/>
      <use xlink:href="#NotoSansCJKjp-Regular-8d37" transform="translate(199.999969 0.703125)"/>
      <use xlink:href="#NotoSansCJKjp-Regular-6b3e" transform="translate(299.999954 0.703125)"/>
      <use xlink:href="#NotoSansCJKjp-Regular-91d1" transform="translate(399.999939 0.703125)"/>
      <use xlink:href="#NotoSansCJKjp-Regular-989d" transform="translate(499.999924 0.703125)"/>
      <use xlink:href="#NotoSansCJKjp-Regular-20" transform="translate(599.999908 0.703125)"/>
      <use xlink:href="#DejaVuSans-Oblique-42" transform="translate(622.399902 0.703125)"/>
      <use xlink:href="#DejaVuSans-2f" transform="translate(691.003418 0.703125)"/>
      <use xlink:href="#DejaVuSans-38" transform="translate(719.694824 0.703125)"/>
      <use xlink:href="#DejaVuSans-30" transform="translate(783.317871 0.703125)"/>
     </g>
    </g>
   </g>
  </g>
 </g>
 <defs>
  <clipPath id="pcb10a77e5b">
   <rect x="35.58" y="23.706375" width="412.92" height="238.392"/>
  </clipPath>
 </defs>
</svg>
