<?xml version="1.0" encoding="utf-8" standalone="no"?>
<!DOCTYPE svg PUBLIC "-//W3C//DTD SVG 1.1//EN"
  "http://www.w3.org/Graphics/SVG/1.1/DTD/svg11.dtd">
<svg xmlns:xlink="http://www.w3.org/1999/xlink" width="464.862656pt" height="303.388062pt" viewBox="0 0 464.862656 303.388062" xmlns="http://www.w3.org/2000/svg" version="1.1">
 <metadata>
  <rdf:RDF xmlns:dc="http://purl.org/dc/elements/1.1/" xmlns:cc="http://creativecommons.org/ns#" xmlns:rdf="http://www.w3.org/1999/02/22-rdf-syntax-ns#">
   <cc:Work>
    <dc:type rdf:resource="http://purl.org/dc/dcmitype/StillImage"/>
    <dc:date>2026-04-29T04:11:33.732740</dc:date>
    <dc:format>image/svg+xml</dc:format>
    <dc:creator>
     <cc:Agent>
      <dc:title>Matplotlib v3.10.8, https://matplotlib.org/</dc:title>
     </cc:Agent>
    </dc:creator>
   </cc:Work>
  </rdf:RDF>
 </metadata>
 <defs>
  <style type="text/css">*{stroke-linejoin: round; stroke-linecap: butt}</style>
 </defs>
 <g id="figure_1">
  <g id="patch_1">
   <path d="M 0 303.388062 
L 464.862656 303.388062 
L 464.862656 0 
L 0 0 
z
" style="fill: #ffffff"/>
  </g>
  <g id="axes_1">
   <g id="patch_2">
    <path d="M 44.742656 262.098375 
L 457.662656 262.098375 
L 457.662656 23.706375 
L 44.742656 23.706375 
z
" style="fill: #ffffff"/>
   </g>
   <g id="matplotlib.axis_1">
    <g id="xtick_1">
     <g id="line2d_1">
      <path d="M 101.049929 262.098375 
L 101.049929 23.706375 
" clip-path="url(#pc8b23206b8)" style="fill: none; stroke: #b0b0b0; stroke-opacity: 0.25; stroke-width: 0.8; stroke-linecap: square"/>
     </g>
     <g id="line2d_2">
      <defs>
       <path id="m0caac85ed5" d="M 0 0 
L 0 3.5 
" style="stroke: #000000; stroke-width: 0.8"/>
      </defs>
      <g>
       <use xlink:href="#m0caac85ed5" x="101.049929" y="262.098375" style="stroke: #000000; stroke-width: 0.8"/>
      </g>
     </g>
     <g id="text_1">
      <!-- -2 -->
      <g transform="translate(96.088757 277.853687) scale(0.11 -0.11)">
       <defs>
        <path id="NotoSansCJKjp-Regular-2d" d="M 294 1568 
L 1933 1568 
L 1933 2016 
L 294 2016 
L 294 1568 
z
" transform="scale(0.015625)"/>
        <path id="NotoSansCJKjp-Regular-32" d="M 282 0 
L 3232 0 
L 3232 506 
L 1933 506 
C 1696 506 1408 480 1165 461 
C 2266 1504 3008 2458 3008 3398 
C 3008 4230 2477 4774 1638 4774 
C 1043 4774 634 4506 256 4090 
L 595 3757 
C 858 4070 1184 4301 1568 4301 
C 2150 4301 2432 3910 2432 3373 
C 2432 2566 1754 1632 282 346 
L 282 0 
z
" transform="scale(0.015625)"/>
       </defs>
       <use xlink:href="#NotoSansCJKjp-Regular-2d"/>
       <use xlink:href="#NotoSansCJKjp-Regular-32" transform="translate(34.699997 0)"/>
      </g>
     </g>
    </g>
    <g id="xtick_2">
     <g id="line2d_3">
      <path d="M 176.126293 262.098375 
L 176.126293 23.706375 
" clip-path="url(#pc8b23206b8)" style="fill: none; stroke: #b0b0b0; stroke-opacity: 0.25; stroke-width: 0.8; stroke-linecap: square"/>
     </g>
     <g id="line2d_4">
      <g>
       <use xlink:href="#m0caac85ed5" x="176.126293" y="262.098375" style="stroke: #000000; stroke-width: 0.8"/>
      </g>
     </g>
     <g id="text_2">
      <!-- -1 -->
      <g transform="translate(171.165121 277.853687) scale(0.11 -0.11)">
       <defs>
        <path id="NotoSansCJKjp-Regular-31" d="M 563 0 
L 3136 0 
L 3136 486 
L 2195 486 
L 2195 4691 
L 1747 4691 
C 1491 4544 1190 4435 774 4358 
L 774 3987 
L 1613 3987 
L 1613 486 
L 563 486 
L 563 0 
z
" transform="scale(0.015625)"/>
       </defs>
       <use xlink:href="#NotoSansCJKjp-Regular-2d"/>
       <use xlink:href="#NotoSansCJKjp-Regular-31" transform="translate(34.699997 0)"/>
      </g>
     </g>
    </g>
    <g id="xtick_3">
     <g id="line2d_5">
      <path d="M 251.202656 262.098375 
L 251.202656 23.706375 
" clip-path="url(#pc8b23206b8)" style="fill: none; stroke: #b0b0b0; stroke-opacity: 0.25; stroke-width: 0.8; stroke-linecap: square"/>
     </g>
     <g id="line2d_6">
      <g>
       <use xlink:href="#m0caac85ed5" x="251.202656" y="262.098375" style="stroke: #000000; stroke-width: 0.8"/>
      </g>
     </g>
     <g id="text_3">
      <!-- 0 -->
      <g transform="translate(248.150156 277.853687) scale(0.11 -0.11)">
       <defs>
        <path id="NotoSansCJKjp-Regular-30" d="M 1779 -83 
C 2669 -83 3238 723 3238 2362 
C 3238 3987 2669 4774 1779 4774 
C 883 4774 320 3987 320 2362 
C 320 723 883 -83 1779 -83 
z
M 1779 390 
C 1248 390 883 986 883 2362 
C 883 3731 1248 4314 1779 4314 
C 2310 4314 2675 3731 2675 2362 
C 2675 986 2310 390 1779 390 
z
" transform="scale(0.015625)"/>
       </defs>
       <use xlink:href="#NotoSansCJKjp-Regular-30"/>
      </g>
     </g>
    </g>
    <g id="xtick_4">
     <g id="line2d_7">
      <path d="M 326.27902 262.098375 
L 326.27902 23.706375 
" clip-path="url(#pc8b23206b8)" style="fill: none; stroke: #b0b0b0; stroke-opacity: 0.25; stroke-width: 0.8; stroke-linecap: square"/>
     </g>
     <g id="line2d_8">
      <g>
       <use xlink:href="#m0caac85ed5" x="326.27902" y="262.098375" style="stroke: #000000; stroke-width: 0.8"/>
      </g>
     </g>
     <g id="text_4">
      <!-- 1 -->
      <g transform="translate(323.22652 277.853687) scale(0.11 -0.11)">
       <use xlink:href="#NotoSansCJKjp-Regular-31"/>
      </g>
     </g>
    </g>
    <g id="xtick_5">
     <g id="line2d_9">
      <path d="M 401.355384 262.098375 
L 401.355384 23.706375 
" clip-path="url(#pc8b23206b8)" style="fill: none; stroke: #b0b0b0; stroke-opacity: 0.25; stroke-width: 0.8; stroke-linecap: square"/>
     </g>
     <g id="line2d_10">
      <g>
       <use xlink:href="#m0caac85ed5" x="401.355384" y="262.098375" style="stroke: #000000; stroke-width: 0.8"/>
      </g>
     </g>
     <g id="text_5">
      <!-- 2 -->
      <g transform="translate(398.302884 277.853687) scale(0.11 -0.11)">
       <use xlink:href="#NotoSansCJKjp-Regular-32"/>
      </g>
     </g>
    </g>
    <g id="text_6">
     <!-- 投资机会 opportunity -->
     <g transform="translate(197.1325 293.613375) scale(0.11 -0.11)">
      <defs>
       <path id="NotoSansCJKjp-Regular-6295" d="M 3059 5120 
L 3059 4480 
C 3059 4032 2950 3488 2317 3085 
C 2406 3021 2579 2835 2637 2739 
C 3347 3206 3514 3904 3514 4467 
L 3514 4672 
L 4717 4672 
L 4717 3584 
C 4717 3130 4826 3008 5235 3008 
C 5318 3008 5619 3008 5709 3008 
C 6067 3008 6182 3206 6221 3994 
C 6099 4026 5907 4096 5811 4173 
C 5798 3514 5779 3418 5658 3418 
C 5594 3418 5357 3418 5306 3418 
C 5197 3418 5171 3443 5171 3584 
L 5171 5120 
L 3059 5120 
z
M 5126 2170 
C 4909 1677 4589 1261 4198 922 
C 3821 1267 3526 1690 3334 2170 
L 5126 2170 
z
M 2675 2605 
L 2675 2170 
L 3238 2170 
L 2886 2061 
C 3110 1504 3424 1024 3814 634 
C 3309 288 2714 51 2099 -90 
C 2189 -192 2304 -390 2355 -518 
C 3014 -346 3642 -77 4179 307 
C 4659 -70 5242 -346 5920 -512 
C 5990 -384 6131 -186 6240 -83 
C 5594 58 5037 294 4570 621 
C 5101 1094 5510 1709 5754 2496 
L 5446 2624 
L 5357 2605 
L 2675 2605 
z
M 1222 5376 
L 1222 4109 
L 288 4109 
L 288 3661 
L 1222 3661 
L 1222 2234 
C 838 2118 480 2010 205 1939 
L 365 1446 
L 1222 1741 
L 1222 51 
C 1222 -38 1184 -64 1101 -70 
C 1018 -70 749 -70 461 -64 
C 525 -192 589 -390 608 -506 
C 1037 -512 1299 -493 1466 -422 
C 1632 -346 1696 -218 1696 58 
L 1696 1907 
L 2413 2157 
L 2349 2573 
L 1696 2374 
L 1696 3661 
L 2413 3661 
L 2413 4109 
L 1696 4109 
L 1696 5376 
L 1222 5376 
z
" transform="scale(0.015625)"/>
       <path id="NotoSansCJKjp-Regular-8d44" d="M 544 4813 
C 1011 4640 1594 4339 1882 4115 
L 2138 4486 
C 1837 4710 1248 4986 787 5146 
L 544 4813 
z
M 314 3168 
L 454 2726 
C 966 2899 1626 3110 2246 3322 
L 2170 3744 
C 1478 3520 787 3302 314 3168 
z
M 1165 2381 
L 1165 595 
L 1638 595 
L 1638 1933 
L 4813 1933 
L 4813 640 
L 5312 640 
L 5312 2381 
L 1165 2381 
z
M 3027 1747 
C 2842 685 2349 122 320 -128 
C 397 -230 499 -410 531 -525 
C 2694 -218 3283 467 3501 1747 
L 3027 1747 
z
M 3302 480 
C 4102 218 5165 -205 5702 -486 
L 5984 -90 
C 5427 192 4358 589 3565 832 
L 3302 480 
z
M 3098 5350 
C 2931 4902 2605 4365 2080 3974 
C 2189 3917 2342 3776 2419 3674 
C 2694 3898 2912 4147 3098 4410 
L 3853 4410 
C 3654 3738 3232 3149 2086 2842 
C 2176 2765 2298 2605 2342 2496 
C 3226 2758 3738 3181 4045 3699 
C 4448 3155 5069 2739 5786 2541 
C 5850 2662 5978 2829 6074 2918 
C 5280 3091 4582 3520 4230 4070 
C 4269 4179 4307 4294 4339 4410 
L 5293 4410 
C 5197 4198 5088 3987 4998 3840 
L 5414 3718 
C 5574 3968 5766 4358 5933 4710 
L 5581 4806 
L 5504 4781 
L 3322 4781 
C 3418 4947 3494 5120 3558 5286 
L 3098 5350 
z
" transform="scale(0.015625)"/>
       <path id="NotoSansCJKjp-Regular-673a" d="M 3187 5011 
L 3187 2957 
C 3187 1965 3098 691 2234 -205 
C 2342 -262 2528 -422 2598 -512 
C 3520 435 3654 1888 3654 2957 
L 3654 4557 
L 4858 4557 
L 4858 435 
C 4858 -115 4896 -230 5005 -326 
C 5101 -410 5242 -448 5370 -448 
C 5453 -448 5600 -448 5696 -448 
C 5830 -448 5946 -422 6035 -358 
C 6131 -294 6182 -186 6214 0 
C 6240 160 6266 634 6266 998 
C 6144 1037 5997 1114 5901 1203 
C 5894 774 5888 435 5869 288 
C 5862 141 5843 83 5805 45 
C 5779 13 5728 0 5677 0 
C 5613 0 5536 0 5491 0 
C 5440 0 5408 13 5376 38 
C 5344 64 5331 186 5331 397 
L 5331 5011 
L 3187 5011 
z
M 1395 5376 
L 1395 4006 
L 333 4006 
L 333 3546 
L 1331 3546 
C 1101 2656 634 1658 179 1120 
C 256 1005 378 813 429 685 
C 787 1126 1133 1850 1395 2598 
L 1395 -506 
L 1862 -506 
L 1862 2432 
C 2112 2112 2413 1715 2541 1498 
L 2842 1894 
C 2694 2061 2086 2746 1862 2970 
L 1862 3546 
L 2810 3546 
L 2810 4006 
L 1862 4006 
L 1862 5376 
L 1395 5376 
z
" transform="scale(0.015625)"/>
       <path id="NotoSansCJKjp-Regular-4f1a" d="M 1664 3392 
L 1664 2944 
L 4717 2944 
L 4717 3392 
L 1664 3392 
z
M 3174 4902 
C 3776 4077 4902 3213 5894 2739 
C 5984 2874 6099 3053 6208 3168 
C 5190 3584 4077 4416 3398 5370 
L 2899 5370 
C 2406 4550 1338 3616 230 3098 
C 333 2989 461 2816 518 2701 
C 1606 3245 2656 4128 3174 4902 
z
M 3840 1197 
C 4128 947 4429 640 4691 333 
L 2093 230 
C 2349 678 2624 1235 2854 1709 
L 5875 1709 
L 5875 2163 
L 570 2163 
L 570 1709 
L 2259 1709 
C 2080 1242 1811 653 1562 218 
L 621 186 
L 685 -288 
C 1792 -243 3456 -179 5037 -96 
C 5158 -256 5261 -403 5338 -531 
L 5766 -262 
C 5472 218 4838 915 4250 1421 
L 3840 1197 
z
" transform="scale(0.015625)"/>
       <path id="NotoSansCJKjp-Regular-20" transform="scale(0.015625)"/>
       <path id="NotoSansCJKjp-Regular-6f" d="M 1939 -83 
C 2790 -83 3546 582 3546 1734 
C 3546 2893 2790 3565 1939 3565 
C 1088 3565 333 2893 333 1734 
C 333 582 1088 -83 1939 -83 
z
M 1939 403 
C 1338 403 934 934 934 1734 
C 934 2534 1338 3072 1939 3072 
C 2541 3072 2950 2534 2950 1734 
C 2950 934 2541 403 1939 403 
z
" transform="scale(0.015625)"/>
       <path id="NotoSansCJKjp-Regular-70" d="M 589 -1466 
L 1178 -1466 
L 1178 -288 
L 1158 320 
C 1472 58 1805 -83 2118 -83 
C 2912 -83 3629 602 3629 1792 
C 3629 2867 3142 3565 2246 3565 
C 1843 3565 1453 3334 1139 3072 
L 1126 3072 
L 1069 3475 
L 589 3475 
L 589 -1466 
z
M 2022 410 
C 1792 410 1485 499 1178 768 
L 1178 2598 
C 1510 2906 1811 3072 2099 3072 
C 2765 3072 3021 2560 3021 1786 
C 3021 928 2598 410 2022 410 
z
" transform="scale(0.015625)"/>
       <path id="NotoSansCJKjp-Regular-72" d="M 589 0 
L 1178 0 
L 1178 2234 
C 1408 2822 1760 3040 2048 3040 
C 2195 3040 2272 3021 2387 2982 
L 2496 3488 
C 2387 3546 2278 3565 2125 3565 
C 1741 3565 1382 3283 1139 2842 
L 1126 2842 
L 1069 3475 
L 589 3475 
L 589 0 
z
" transform="scale(0.015625)"/>
       <path id="NotoSansCJKjp-Regular-74" d="M 1677 -83 
C 1894 -83 2125 -19 2323 45 
L 2208 486 
C 2093 435 1939 390 1811 390 
C 1408 390 1274 634 1274 1056 
L 1274 3002 
L 2221 3002 
L 2221 3475 
L 1274 3475 
L 1274 4454 
L 787 4454 
L 723 3475 
L 173 3443 
L 173 3002 
L 691 3002 
L 691 1075 
C 691 378 941 -83 1677 -83 
z
" transform="scale(0.015625)"/>
       <path id="NotoSansCJKjp-Regular-75" d="M 1606 -83 
C 2080 -83 2426 166 2752 544 
L 2771 544 
L 2816 0 
L 3302 0 
L 3302 3475 
L 2720 3475 
L 2720 1011 
C 2387 602 2138 422 1779 422 
C 1318 422 1126 698 1126 1344 
L 1126 3475 
L 538 3475 
L 538 1274 
C 538 384 870 -83 1606 -83 
z
" transform="scale(0.015625)"/>
       <path id="NotoSansCJKjp-Regular-6e" d="M 589 0 
L 1178 0 
L 1178 2522 
C 1523 2874 1766 3053 2125 3053 
C 2586 3053 2784 2778 2784 2125 
L 2784 0 
L 3366 0 
L 3366 2202 
C 3366 3085 3034 3565 2304 3565 
C 1830 3565 1466 3302 1139 2970 
L 1126 2970 
L 1069 3475 
L 589 3475 
L 589 0 
z
" transform="scale(0.015625)"/>
       <path id="NotoSansCJKjp-Regular-69" d="M 589 0 
L 1178 0 
L 1178 3475 
L 589 3475 
L 589 0 
z
M 883 4192 
C 1114 4192 1274 4346 1274 4582 
C 1274 4806 1114 4960 883 4960 
C 653 4960 499 4806 499 4582 
C 499 4346 653 4192 883 4192 
z
" transform="scale(0.015625)"/>
       <path id="NotoSansCJKjp-Regular-79" d="M 646 -1498 
C 1338 -1498 1702 -973 1946 -294 
L 3251 3475 
L 2682 3475 
L 2054 1549 
C 1965 1235 1862 883 1773 563 
L 1741 563 
C 1619 890 1504 1242 1395 1549 
L 691 3475 
L 83 3475 
L 1478 -6 
L 1402 -269 
C 1254 -698 1011 -1018 621 -1018 
C 525 -1018 422 -986 352 -960 
L 237 -1427 
C 346 -1472 486 -1498 646 -1498 
z
" transform="scale(0.015625)"/>
      </defs>
      <use xlink:href="#NotoSansCJKjp-Regular-6295"/>
      <use xlink:href="#NotoSansCJKjp-Regular-8d44" transform="translate(99.999985 0)"/>
      <use xlink:href="#NotoSansCJKjp-Regular-673a" transform="translate(199.999969 0)"/>
      <use xlink:href="#NotoSansCJKjp-Regular-4f1a" transform="translate(299.999954 0)"/>
      <use xlink:href="#NotoSansCJKjp-Regular-20" transform="translate(399.999939 0)"/>
      <use xlink:href="#NotoSansCJKjp-Regular-6f" transform="translate(422.399933 0)"/>
      <use xlink:href="#NotoSansCJKjp-Regular-70" transform="translate(482.999924 0)"/>
      <use xlink:href="#NotoSansCJKjp-Regular-70" transform="translate(544.999908 0)"/>
      <use xlink:href="#NotoSansCJKjp-Regular-6f" transform="translate(606.999893 0)"/>
      <use xlink:href="#NotoSansCJKjp-Regular-72" transform="translate(667.599884 0)"/>
      <use xlink:href="#NotoSansCJKjp-Regular-74" transform="translate(706.399872 0)"/>
      <use xlink:href="#NotoSansCJKjp-Regular-75" transform="translate(744.099869 0)"/>
      <use xlink:href="#NotoSansCJKjp-Regular-6e" transform="translate(804.799866 0)"/>
      <use xlink:href="#NotoSansCJKjp-Regular-69" transform="translate(865.79985 0)"/>
      <use xlink:href="#NotoSansCJKjp-Regular-74" transform="translate(893.299835 0)"/>
      <use xlink:href="#NotoSansCJKjp-Regular-79" transform="translate(930.999832 0)"/>
     </g>
    </g>
   </g>
   <g id="matplotlib.axis_2">
    <g id="ytick_1">
     <g id="line2d_11">
      <path d="M 44.742656 251.593017 
L 457.662656 251.593017 
" clip-path="url(#pc8b23206b8)" style="fill: none; stroke: #b0b0b0; stroke-opacity: 0.25; stroke-width: 0.8; stroke-linecap: square"/>
     </g>
     <g id="line2d_12">
      <defs>
       <path id="m0878fbf4c5" d="M 0 0 
L -3.5 0 
" style="stroke: #000000; stroke-width: 0.8"/>
      </defs>
      <g>
       <use xlink:href="#m0878fbf4c5" x="44.742656" y="251.593017" style="stroke: #000000; stroke-width: 0.8"/>
      </g>
     </g>
     <g id="text_7">
      <!-- 0.0 -->
      <g transform="translate(22.475 255.970673) scale(0.11 -0.11)">
       <defs>
        <path id="NotoSansCJKjp-Regular-2e" d="M 890 -83 
C 1120 -83 1312 96 1312 358 
C 1312 627 1120 806 890 806 
C 653 806 467 627 467 358 
C 467 96 653 -83 890 -83 
z
" transform="scale(0.015625)"/>
       </defs>
       <use xlink:href="#NotoSansCJKjp-Regular-30"/>
       <use xlink:href="#NotoSansCJKjp-Regular-2e" transform="translate(55.499985 0)"/>
       <use xlink:href="#NotoSansCJKjp-Regular-30" transform="translate(83.299973 0)"/>
      </g>
     </g>
    </g>
    <g id="ytick_2">
     <g id="line2d_13">
      <path d="M 44.742656 205.764696 
L 457.662656 205.764696 
" clip-path="url(#pc8b23206b8)" style="fill: none; stroke: #b0b0b0; stroke-opacity: 0.25; stroke-width: 0.8; stroke-linecap: square"/>
     </g>
     <g id="line2d_14">
      <g>
       <use xlink:href="#m0878fbf4c5" x="44.742656" y="205.764696" style="stroke: #000000; stroke-width: 0.8"/>
      </g>
     </g>
     <g id="text_8">
      <!-- 0.2 -->
      <g transform="translate(22.475 210.142352) scale(0.11 -0.11)">
       <use xlink:href="#NotoSansCJKjp-Regular-30"/>
       <use xlink:href="#NotoSansCJKjp-Regular-2e" transform="translate(55.499985 0)"/>
       <use xlink:href="#NotoSansCJKjp-Regular-32" transform="translate(83.299973 0)"/>
      </g>
     </g>
    </g>
    <g id="ytick_3">
     <g id="line2d_15">
      <path d="M 44.742656 159.936375 
L 457.662656 159.936375 
" clip-path="url(#pc8b23206b8)" style="fill: none; stroke: #b0b0b0; stroke-opacity: 0.25; stroke-width: 0.8; stroke-linecap: square"/>
     </g>
     <g id="line2d_16">
      <g>
       <use xlink:href="#m0878fbf4c5" x="44.742656" y="159.936375" style="stroke: #000000; stroke-width: 0.8"/>
      </g>
     </g>
     <g id="text_9">
      <!-- 0.4 -->
      <g transform="translate(22.475 164.314032) scale(0.11 -0.11)">
       <defs>
        <path id="NotoSansCJKjp-Regular-34" d="M 2176 0 
L 2726 0 
L 2726 1293 
L 3354 1293 
L 3354 1760 
L 2726 1760 
L 2726 4691 
L 2080 4691 
L 128 1677 
L 128 1293 
L 2176 1293 
L 2176 0 
z
M 2176 1760 
L 736 1760 
L 1805 3360 
C 1939 3590 2067 3827 2182 4051 
L 2208 4051 
C 2195 3814 2176 3430 2176 3200 
L 2176 1760 
z
" transform="scale(0.015625)"/>
       </defs>
       <use xlink:href="#NotoSansCJKjp-Regular-30"/>
       <use xlink:href="#NotoSansCJKjp-Regular-2e" transform="translate(55.499985 0)"/>
       <use xlink:href="#NotoSansCJKjp-Regular-34" transform="translate(83.299973 0)"/>
      </g>
     </g>
    </g>
    <g id="ytick_4">
     <g id="line2d_17">
      <path d="M 44.742656 114.108054 
L 457.662656 114.108054 
" clip-path="url(#pc8b23206b8)" style="fill: none; stroke: #b0b0b0; stroke-opacity: 0.25; stroke-width: 0.8; stroke-linecap: square"/>
     </g>
     <g id="line2d_18">
      <g>
       <use xlink:href="#m0878fbf4c5" x="44.742656" y="114.108054" style="stroke: #000000; stroke-width: 0.8"/>
      </g>
     </g>
     <g id="text_10">
      <!-- 0.6 -->
      <g transform="translate(22.475 118.485711) scale(0.11 -0.11)">
       <defs>
        <path id="NotoSansCJKjp-Regular-36" d="M 1926 -83 
C 2656 -83 3277 531 3277 1440 
C 3277 2426 2765 2912 1971 2912 
C 1606 2912 1197 2701 909 2349 
C 934 3802 1466 4294 2118 4294 
C 2400 4294 2682 4154 2861 3936 
L 3194 4294 
C 2931 4576 2579 4774 2093 4774 
C 1184 4774 358 4077 358 2240 
C 358 691 1030 -83 1926 -83 
z
M 922 1882 
C 1229 2317 1587 2477 1875 2477 
C 2445 2477 2720 2074 2720 1440 
C 2720 800 2374 378 1926 378 
C 1338 378 986 909 922 1882 
z
" transform="scale(0.015625)"/>
       </defs>
       <use xlink:href="#NotoSansCJKjp-Regular-30"/>
       <use xlink:href="#NotoSansCJKjp-Regular-2e" transform="translate(55.499985 0)"/>
       <use xlink:href="#NotoSansCJKjp-Regular-36" transform="translate(83.299973 0)"/>
      </g>
     </g>
    </g>
    <g id="ytick_5">
     <g id="line2d_19">
      <path d="M 44.742656 68.279734 
L 457.662656 68.279734 
" clip-path="url(#pc8b23206b8)" style="fill: none; stroke: #b0b0b0; stroke-opacity: 0.25; stroke-width: 0.8; stroke-linecap: square"/>
     </g>
     <g id="line2d_20">
      <g>
       <use xlink:href="#m0878fbf4c5" x="44.742656" y="68.279734" style="stroke: #000000; stroke-width: 0.8"/>
      </g>
     </g>
     <g id="text_11">
      <!-- 0.8 -->
      <g transform="translate(22.475 72.65739) scale(0.11 -0.11)">
       <defs>
        <path id="NotoSansCJKjp-Regular-38" d="M 1792 -83 
C 2669 -83 3258 448 3258 1126 
C 3258 1773 2880 2125 2470 2362 
L 2470 2394 
C 2746 2611 3091 3034 3091 3526 
C 3091 4250 2605 4762 1805 4762 
C 1075 4762 518 4282 518 3571 
C 518 3078 813 2726 1152 2490 
L 1152 2464 
C 723 2234 294 1792 294 1165 
C 294 442 922 -83 1792 -83 
z
M 2112 2547 
C 1555 2765 1050 3014 1050 3571 
C 1050 4026 1363 4326 1798 4326 
C 2298 4326 2592 3962 2592 3494 
C 2592 3149 2426 2829 2112 2547 
z
M 1798 352 
C 1235 352 813 717 813 1216 
C 813 1664 1082 2035 1459 2278 
C 2125 2010 2701 1779 2701 1146 
C 2701 678 2342 352 1798 352 
z
" transform="scale(0.015625)"/>
       </defs>
       <use xlink:href="#NotoSansCJKjp-Regular-30"/>
       <use xlink:href="#NotoSansCJKjp-Regular-2e" transform="translate(55.499985 0)"/>
       <use xlink:href="#NotoSansCJKjp-Regular-38" transform="translate(83.299973 0)"/>
      </g>
     </g>
    </g>
    <g id="text_12">
     <!-- 边际效应 -->
     <g transform="translate(15.955313 164.902375) rotate(-90) scale(0.11 -0.11)">
      <defs>
       <path id="NotoSansCJKjp-Regular-8fb9" d="M 525 5018 
C 877 4685 1306 4218 1510 3917 
L 1901 4224 
C 1690 4512 1248 4960 896 5280 
L 525 5018 
z
M 3539 5280 
C 3533 4922 3526 4570 3507 4230 
L 2189 4230 
L 2189 3770 
L 3475 3770 
C 3366 2541 3046 1517 2003 896 
C 2131 813 2278 659 2349 544 
C 3482 1261 3840 2400 3974 3770 
L 5395 3770 
C 5312 1971 5222 1267 5062 1094 
C 4998 1024 4928 1011 4806 1018 
C 4659 1018 4301 1018 3923 1050 
C 4013 909 4077 704 4090 557 
C 4442 544 4806 531 4998 550 
C 5216 570 5357 621 5491 787 
C 5709 1050 5798 1824 5888 4000 
C 5894 4064 5894 4230 5894 4230 
L 4006 4230 
C 4026 4570 4038 4922 4045 5280 
L 3539 5280 
z
M 1587 3206 
L 269 3206 
L 269 2733 
L 1107 2733 
L 1107 742 
C 826 627 499 326 154 -58 
L 512 -525 
C 826 -77 1126 333 1331 333 
C 1472 333 1690 102 1958 -77 
C 2419 -371 2963 -442 3795 -442 
C 4442 -442 5626 -403 6080 -371 
C 6093 -224 6170 32 6234 166 
C 5587 96 4608 38 3814 38 
C 3066 38 2502 83 2080 358 
C 1856 499 1709 627 1587 704 
L 1587 3206 
z
" transform="scale(0.015625)"/>
       <path id="NotoSansCJKjp-Regular-9645" d="M 2957 4890 
L 2957 4435 
L 5754 4435 
L 5754 4890 
L 2957 4890 
z
M 4966 2080 
C 5267 1440 5562 608 5658 102 
L 6106 262 
C 5997 768 5683 1581 5376 2208 
L 4966 2080 
z
M 3123 2189 
C 2950 1510 2662 826 2310 365 
C 2413 314 2611 179 2694 115 
C 3040 602 3366 1350 3558 2093 
L 3123 2189 
z
M 550 5101 
L 550 -512 
L 1005 -512 
L 1005 4666 
L 1939 4666 
C 1798 4237 1606 3680 1421 3219 
C 1894 2707 2010 2266 2010 1914 
C 2010 1722 1971 1542 1869 1472 
C 1818 1434 1741 1414 1664 1414 
C 1562 1402 1434 1408 1280 1421 
C 1363 1299 1408 1114 1408 998 
C 1562 992 1728 992 1856 1005 
C 1997 1024 2112 1062 2208 1120 
C 2400 1254 2477 1530 2477 1875 
C 2477 2272 2362 2739 1882 3270 
C 2106 3782 2349 4410 2541 4934 
L 2202 5120 
L 2125 5101 
L 550 5101 
z
M 2682 3360 
L 2682 2906 
L 4045 2906 
L 4045 102 
C 4045 19 4019 -6 3930 -6 
C 3840 -13 3539 -13 3206 -6 
C 3277 -154 3341 -358 3360 -499 
C 3808 -499 4102 -486 4288 -410 
C 4480 -326 4531 -179 4531 96 
L 4531 2906 
L 6099 2906 
L 6099 3360 
L 2682 3360 
z
" transform="scale(0.015625)"/>
       <path id="NotoSansCJKjp-Regular-6548" d="M 1050 3859 
C 864 3392 557 2925 218 2598 
C 326 2534 518 2394 602 2317 
C 934 2669 1286 3213 1504 3744 
L 1050 3859 
z
M 2195 3661 
C 2470 3354 2771 2918 2893 2643 
L 3277 2874 
C 3149 3155 2842 3565 2560 3866 
L 2195 3661 
z
M 1626 5350 
L 1626 4506 
L 275 4506 
L 275 4070 
L 3482 4070 
L 3482 4506 
L 2093 4506 
L 2093 5350 
L 1626 5350 
z
M 774 2182 
C 1075 1933 1389 1632 1677 1331 
C 1312 717 845 211 269 -147 
C 378 -237 563 -422 634 -518 
C 1171 -134 1632 365 2010 966 
C 2278 659 2509 358 2656 109 
L 3046 435 
C 2867 717 2586 1062 2259 1408 
C 2445 1773 2605 2170 2733 2592 
L 2259 2701 
C 2163 2368 2048 2054 1907 1760 
C 1651 2016 1382 2253 1126 2464 
L 774 2182 
z
M 4166 3738 
L 5261 3738 
C 5146 2931 4966 2246 4691 1677 
C 4442 2266 4262 2944 4141 3661 
L 4166 3738 
z
M 4064 5376 
C 3885 4256 3571 3162 3053 2470 
C 3168 2400 3360 2227 3437 2144 
C 3590 2368 3731 2624 3859 2912 
C 4000 2278 4179 1696 4416 1184 
C 4051 634 3558 205 2886 -109 
C 2982 -211 3123 -416 3168 -525 
C 3795 -198 4282 211 4659 717 
C 4973 198 5357 -224 5843 -518 
C 5920 -390 6067 -211 6176 -122 
C 5664 154 5261 595 4947 1158 
C 5338 1850 5581 2694 5741 3738 
L 6150 3738 
L 6150 4186 
L 4294 4186 
C 4390 4544 4467 4922 4538 5306 
L 4064 5376 
z
" transform="scale(0.015625)"/>
       <path id="NotoSansCJKjp-Regular-5e94" d="M 1690 3136 
C 1952 2445 2259 1530 2381 934 
L 2835 1120 
C 2694 1715 2387 2605 2106 3309 
L 1690 3136 
z
M 3078 3494 
C 3283 2797 3520 1888 3610 1293 
L 4070 1434 
C 3974 2029 3738 2918 3514 3616 
L 3078 3494 
z
M 2995 5299 
C 3117 5075 3245 4781 3334 4550 
L 774 4550 
L 774 2803 
C 774 1894 730 621 230 -288 
C 346 -333 563 -474 653 -557 
C 1178 397 1261 1830 1261 2803 
L 1261 4096 
L 6029 4096 
L 6029 4550 
L 3878 4550 
C 3795 4781 3616 5146 3462 5427 
L 2995 5299 
z
M 1338 250 
L 1338 -211 
L 6112 -211 
L 6112 250 
L 4378 250 
C 4966 1242 5440 2406 5747 3469 
L 5242 3654 
C 4998 2547 4506 1242 3885 250 
L 1338 250 
z
" transform="scale(0.015625)"/>
      </defs>
      <use xlink:href="#NotoSansCJKjp-Regular-8fb9"/>
      <use xlink:href="#NotoSansCJKjp-Regular-9645" transform="translate(99.999985 0)"/>
      <use xlink:href="#NotoSansCJKjp-Regular-6548" transform="translate(199.999969 0)"/>
      <use xlink:href="#NotoSansCJKjp-Regular-5e94" transform="translate(299.999954 0)"/>
     </g>
    </g>
   </g>
   <g id="line2d_21">
    <path d="M 63.511747 251.262375 
L 78.627794 250.938147 
L 91.224499 250.473307 
L 101.301863 249.909863 
L 111.379227 249.11046 
L 118.937251 248.311244 
L 126.495274 247.300182 
L 134.053297 246.036063 
L 141.61132 244.474014 
L 146.650002 243.243673 
L 151.688684 241.845194 
L 156.727366 240.263884 
L 161.766049 238.485161 
L 166.804731 236.494808 
L 171.843413 234.279254 
L 176.882095 231.825872 
L 181.920777 229.123294 
L 186.959459 226.161725 
L 191.998141 222.933262 
L 197.036823 219.432196 
L 202.075506 215.655298 
L 207.114188 211.602075 
L 212.15287 207.274981 
L 217.191552 202.679589 
L 222.230234 197.824701 
L 227.268916 192.722397 
L 232.307598 187.388018 
L 239.865621 178.992635 
L 247.423645 170.19239 
L 254.981668 161.075528 
L 267.578373 145.449434 
L 285.213761 123.511629 
L 292.771784 114.390631 
L 300.329807 105.584797 
L 307.88783 97.182559 
L 312.926512 91.843014 
L 317.965194 86.735151 
L 323.003877 81.874386 
L 328.042559 77.272874 
L 333.081241 72.939492 
L 338.119923 68.879889 
L 343.158605 65.096588 
L 348.197287 61.589162 
L 353.235969 58.354443 
L 358.274651 55.386776 
L 363.313333 52.678306 
L 368.352016 50.219278 
L 373.390698 47.998356 
L 378.42938 46.002939 
L 383.468062 44.219475 
L 388.506744 42.633759 
L 393.545426 41.231213 
L 398.584108 39.997145 
L 406.142132 38.430129 
L 413.700155 37.161761 
L 421.258178 36.147116 
L 428.816201 35.344924 
L 438.893565 34.542375 
L 438.893565 34.542375 
" clip-path="url(#pc8b23206b8)" style="fill: none; stroke: #1f77b4; stroke-width: 2.2; stroke-linecap: square"/>
   </g>
   <g id="line2d_22">
    <path d="M 63.511747 250.379911 
L 73.589111 249.74972 
L 81.147135 249.104689 
L 88.705158 248.273223 
L 96.263181 247.215722 
L 103.821204 245.888855 
L 111.379227 244.246709 
L 116.417909 242.95364 
L 121.456592 241.485949 
L 126.495274 239.830577 
L 131.533956 237.975463 
L 136.572638 235.909978 
L 141.61132 233.625387 
L 146.650002 231.115334 
L 151.688684 228.376328 
L 156.727366 225.40822 
L 161.766049 222.214654 
L 166.804731 218.80347 
L 171.843413 215.18704 
L 179.401436 209.416441 
L 186.959459 203.302571 
L 197.036823 194.799231 
L 212.15287 181.941416 
L 219.710893 175.808036 
L 224.749575 171.944142 
L 229.788257 168.31975 
L 234.826939 164.984419 
L 239.865621 161.985206 
L 244.904304 159.365573 
L 249.942986 157.164334 
L 254.981668 155.414708 
L 257.501009 154.71789 
L 260.02035 154.143476 
L 262.539691 153.693698 
L 265.059032 153.370308 
L 267.578373 153.174571 
L 270.097714 153.107251 
L 272.617055 153.168614 
L 275.136396 153.358418 
L 277.655737 153.675921 
L 280.175078 154.119882 
L 282.69442 154.68857 
L 285.213761 155.379776 
L 290.252443 157.118603 
L 295.291125 159.309738 
L 300.329807 161.920103 
L 305.368489 164.911003 
L 310.407171 168.239072 
L 315.445853 171.857325 
L 320.484535 175.716247 
L 328.042559 181.844392 
L 338.119923 190.382721 
L 353.235969 203.206027 
L 360.793992 209.324446 
L 368.352016 215.101007 
L 373.390698 218.722005 
L 378.42938 222.138099 
L 383.468062 225.336808 
L 388.506744 228.310193 
L 393.545426 231.054515 
L 398.584108 233.569842 
L 403.62279 235.859591 
L 408.661473 237.930059 
L 413.700155 239.789929 
L 418.738837 241.449794 
L 423.777519 242.921685 
L 428.816201 244.218645 
L 436.374224 245.866024 
L 438.893565 246.342623 
L 438.893565 246.342623 
" clip-path="url(#pc8b23206b8)" style="fill: none; stroke-dasharray: 7.4,3.2; stroke-dashoffset: 0; stroke: #ff7f0e; stroke-width: 2"/>
   </g>
   <g id="line2d_23">
    <path d="M 63.511747 235.917939 
L 78.627794 234.287906 
L 93.74384 232.423643 
L 106.340545 230.662287 
L 118.937251 228.68323 
L 131.533956 226.455321 
L 141.61132 224.470078 
L 151.688684 222.282487 
L 161.766049 219.870056 
L 171.843413 217.208159 
L 181.920777 214.270042 
L 189.4788 211.867948 
L 197.036823 209.281526 
L 204.594847 206.497505 
L 212.15287 203.502282 
L 219.710893 200.282116 
L 227.268916 196.823372 
L 234.826939 193.112834 
L 242.384963 189.138103 
L 249.942986 184.888066 
L 257.501009 180.353468 
L 265.059032 175.527561 
L 272.617055 170.406843 
L 280.175078 164.991868 
L 287.733102 159.288093 
L 295.291125 153.306735 
L 302.849148 147.065583 
L 312.926512 138.384342 
L 323.003877 129.367694 
L 338.119923 115.452565 
L 355.75531 99.183123 
L 365.832675 90.177012 
L 373.390698 83.686489 
L 380.948721 77.494995 
L 388.506744 71.661137 
L 393.545426 67.995499 
L 398.584108 64.523066 
L 403.62279 61.253407 
L 408.661473 58.193523 
L 413.700155 55.34777 
L 418.738837 52.717863 
L 423.777519 50.302952 
L 428.816201 48.099764 
L 433.854883 46.102804 
L 438.893565 44.304608 
L 438.893565 44.304608 
" clip-path="url(#pc8b23206b8)" style="fill: none; stroke-dasharray: 2,3.3; stroke-dashoffset: 0; stroke: #2ca02c; stroke-width: 2"/>
   </g>
   <g id="patch_3">
    <path d="M 44.742656 262.098375 
L 44.742656 23.706375 
" style="fill: none; stroke: #000000; stroke-width: 0.8; stroke-linejoin: miter; stroke-linecap: square"/>
   </g>
   <g id="patch_4">
    <path d="M 44.742656 262.098375 
L 457.662656 262.098375 
" style="fill: none; stroke: #000000; stroke-width: 0.8; stroke-linejoin: miter; stroke-linecap: square"/>
   </g>
   <g id="text_13">
    <!-- Tobit 的边际效应不是只有一种 -->
    <g transform="translate(160.788844 17.706375) scale(0.132 -0.132)">
     <defs>
      <path id="NotoSansCJKjp-Regular-54" d="M 1619 0 
L 2214 0 
L 2214 4192 
L 3635 4192 
L 3635 4691 
L 198 4691 
L 198 4192 
L 1619 4192 
L 1619 0 
z
" transform="scale(0.015625)"/>
      <path id="NotoSansCJKjp-Regular-62" d="M 2118 -83 
C 2912 -83 3629 602 3629 1792 
C 3629 2867 3142 3565 2246 3565 
C 1856 3565 1472 3347 1152 3078 
L 1178 3699 
L 1178 5094 
L 589 5094 
L 589 0 
L 1056 0 
L 1107 358 
L 1133 358 
C 1434 83 1798 -83 2118 -83 
z
M 2022 410 
C 1792 410 1478 499 1178 768 
L 1178 2598 
C 1504 2906 1811 3072 2099 3072 
C 2765 3072 3021 2560 3021 1786 
C 3021 928 2598 410 2022 410 
z
" transform="scale(0.015625)"/>
      <path id="NotoSansCJKjp-Regular-7684" d="M 3533 2707 
C 3885 2240 4320 1600 4512 1210 
L 4922 1466 
C 4710 1843 4269 2464 3904 2918 
L 3533 2707 
z
M 1536 5389 
C 1485 5082 1376 4659 1274 4346 
L 557 4346 
L 557 -346 
L 998 -346 
L 998 160 
L 2784 160 
L 2784 4346 
L 1715 4346 
C 1824 4621 1946 4979 2054 5299 
L 1536 5389 
z
M 998 3917 
L 2342 3917 
L 2342 2566 
L 998 2566 
L 998 3917 
z
M 998 595 
L 998 2144 
L 2342 2144 
L 2342 595 
L 998 595 
z
M 3827 5402 
C 3622 4518 3277 3635 2835 3066 
C 2950 3002 3149 2867 3238 2790 
C 3456 3098 3661 3488 3840 3923 
L 5478 3923 
C 5402 1357 5299 371 5094 154 
C 5018 64 4947 45 4819 45 
C 4672 45 4288 51 3866 83 
C 3955 -38 4013 -243 4026 -378 
C 4384 -397 4762 -410 4979 -390 
C 5210 -365 5350 -314 5498 -122 
C 5754 192 5843 1184 5939 4122 
C 5946 4186 5946 4365 5946 4365 
L 4013 4365 
C 4115 4666 4211 4986 4288 5299 
L 3827 5402 
z
" transform="scale(0.015625)"/>
      <path id="NotoSansCJKjp-Regular-4e0d" d="M 3578 3059 
C 4339 2547 5299 1792 5754 1299 
L 6144 1670 
C 5664 2163 4691 2880 3936 3366 
L 3578 3059 
z
M 442 4928 
L 442 4435 
L 3290 4435 
C 2656 3341 1555 2259 282 1632 
C 384 1523 531 1331 608 1210 
C 1498 1677 2291 2336 2938 3078 
L 2938 -499 
L 3456 -499 
L 3456 3738 
C 3622 3962 3770 4198 3904 4435 
L 5958 4435 
L 5958 4928 
L 442 4928 
z
" transform="scale(0.015625)"/>
      <path id="NotoSansCJKjp-Regular-662f" d="M 1510 3885 
L 4845 3885 
L 4845 3360 
L 1510 3360 
L 1510 3885 
z
M 1510 4749 
L 4845 4749 
L 4845 4230 
L 1510 4230 
L 1510 4749 
z
M 1050 5114 
L 1050 2995 
L 5331 2995 
L 5331 5114 
L 1050 5114 
z
M 1478 1914 
C 1312 979 902 256 224 -186 
C 333 -256 518 -435 589 -518 
C 1011 -218 1344 192 1587 698 
C 2112 -186 2938 -384 4230 -384 
L 5984 -384 
C 6010 -250 6086 -38 6163 77 
C 5830 70 4493 64 4250 70 
C 3981 70 3725 77 3494 102 
L 3494 986 
L 5619 986 
L 5619 1408 
L 3494 1408 
L 3494 2125 
L 6035 2125 
L 6035 2554 
L 378 2554 
L 378 2125 
L 3014 2125 
L 3014 186 
C 2458 326 2048 627 1798 1216 
C 1862 1414 1914 1626 1958 1850 
L 1478 1914 
z
" transform="scale(0.015625)"/>
      <path id="NotoSansCJKjp-Regular-53ea" d="M 3776 1011 
C 4410 557 5184 -102 5549 -531 
L 5971 -230 
C 5581 205 4787 838 4160 1267 
L 3776 1011 
z
M 2163 1280 
C 1792 768 1043 186 371 -179 
C 486 -262 659 -416 755 -518 
C 1440 -134 2195 493 2675 1082 
L 2163 1280 
z
M 1062 4941 
L 1062 1491 
L 1542 1491 
L 1542 1722 
L 4973 1722 
L 4973 1523 
L 5472 1523 
L 5472 4941 
L 1062 4941 
z
M 1542 2182 
L 1542 4474 
L 4973 4474 
L 4973 2182 
L 1542 2182 
z
" transform="scale(0.015625)"/>
      <path id="NotoSansCJKjp-Regular-6709" d="M 2502 5376 
C 2426 5101 2336 4819 2221 4544 
L 403 4544 
L 403 4096 
L 2022 4096 
C 1613 3251 1024 2470 256 1946 
C 346 1856 499 1683 563 1574 
C 966 1862 1325 2208 1632 2598 
L 1632 -506 
L 2106 -506 
L 2106 762 
L 4787 762 
L 4787 96 
C 4787 0 4755 -38 4646 -38 
C 4525 -45 4134 -51 3712 -32 
C 3776 -166 3846 -365 3872 -493 
C 4422 -493 4774 -493 4986 -422 
C 5197 -339 5261 -192 5261 90 
L 5261 3354 
L 2150 3354 
C 2298 3597 2426 3840 2541 4096 
L 6010 4096 
L 6010 4544 
L 2733 4544 
C 2829 4781 2912 5024 2989 5261 
L 2502 5376 
z
M 2106 1850 
L 4787 1850 
L 4787 1178 
L 2106 1178 
L 2106 1850 
z
M 2106 2259 
L 2106 2918 
L 4787 2918 
L 4787 2259 
L 2106 2259 
z
" transform="scale(0.015625)"/>
      <path id="NotoSansCJKjp-Regular-4e00" d="M 282 2758 
L 282 2234 
L 6144 2234 
L 6144 2758 
L 282 2758 
z
" transform="scale(0.015625)"/>
      <path id="NotoSansCJKjp-Regular-79cd" d="M 4179 3558 
L 4179 2035 
L 3277 2035 
L 3277 3558 
L 4179 3558 
z
M 4659 3558 
L 5542 3558 
L 5542 2035 
L 4659 2035 
L 4659 3558 
z
M 4179 5363 
L 4179 4026 
L 2822 4026 
L 2822 1178 
L 3277 1178 
L 3277 1568 
L 4179 1568 
L 4179 -499 
L 4659 -499 
L 4659 1568 
L 5542 1568 
L 5542 1216 
L 6010 1216 
L 6010 4026 
L 4659 4026 
L 4659 5363 
L 4179 5363 
z
M 2349 5286 
C 1862 5075 1018 4883 294 4768 
C 352 4666 416 4506 435 4397 
C 717 4435 1024 4480 1325 4544 
L 1325 3571 
L 294 3571 
L 294 3123 
L 1254 3123 
C 998 2387 550 1555 147 1101 
C 224 986 339 794 384 659 
C 717 1056 1062 1696 1325 2349 
L 1325 -499 
L 1792 -499 
L 1792 2458 
C 2003 2144 2266 1741 2368 1542 
L 2656 1914 
C 2534 2086 1971 2784 1792 2982 
L 1792 3123 
L 2611 3123 
L 2611 3571 
L 1792 3571 
L 1792 4640 
C 2106 4717 2394 4806 2637 4902 
L 2349 5286 
z
" transform="scale(0.015625)"/>
     </defs>
     <use xlink:href="#NotoSansCJKjp-Regular-54"/>
     <use xlink:href="#NotoSansCJKjp-Regular-6f" transform="translate(59.899994 0)"/>
     <use xlink:href="#NotoSansCJKjp-Regular-62" transform="translate(120.499985 0)"/>
     <use xlink:href="#NotoSansCJKjp-Regular-69" transform="translate(182.299973 0)"/>
     <use xlink:href="#NotoSansCJKjp-Regular-74" transform="translate(209.799957 0)"/>
     <use xlink:href="#NotoSansCJKjp-Regular-20" transform="translate(247.499954 0)"/>
     <use xlink:href="#NotoSansCJKjp-Regular-7684" transform="translate(269.899948 0)"/>
     <use xlink:href="#NotoSansCJKjp-Regular-8fb9" transform="translate(369.899933 0)"/>
     <use xlink:href="#NotoSansCJKjp-Regular-9645" transform="translate(469.899918 0)"/>
     <use xlink:href="#NotoSansCJKjp-Regular-6548" transform="translate(569.899902 0)"/>
     <use xlink:href="#NotoSansCJKjp-Regular-5e94" transform="translate(669.899887 0)"/>
     <use xlink:href="#NotoSansCJKjp-Regular-4e0d" transform="translate(769.899872 0)"/>
     <use xlink:href="#NotoSansCJKjp-Regular-662f" transform="translate(869.899857 0)"/>
     <use xlink:href="#NotoSansCJKjp-Regular-53ea" transform="translate(969.899841 0)"/>
     <use xlink:href="#NotoSansCJKjp-Regular-6709" transform="translate(1069.899826 0)"/>
     <use xlink:href="#NotoSansCJKjp-Regular-4e00" transform="translate(1169.899811 0)"/>
     <use xlink:href="#NotoSansCJKjp-Regular-79cd" transform="translate(1269.899796 0)"/>
    </g>
   </g>
   <g id="legend_1">
    <g id="line2d_24">
     <path d="M 54.642656 38.511687 
L 65.642656 38.511687 
L 76.642656 38.511687 
" style="fill: none; stroke: #1f77b4; stroke-width: 2.2; stroke-linecap: square"/>
    </g>
    <g id="text_14">
     <!-- 对非条件期望的边际效应 -->
     <g transform="translate(85.442656 42.361687) scale(0.11 -0.11)">
      <defs>
       <path id="NotoSansCJKjp-Regular-5bf9" d="M 3213 2522 
C 3514 2067 3802 1459 3904 1075 
L 4326 1286 
C 4224 1670 3917 2259 3603 2701 
L 3213 2522 
z
M 582 2899 
C 973 2547 1389 2131 1760 1709 
C 1376 890 870 269 288 -109 
C 403 -205 550 -384 627 -499 
C 1216 -77 1715 512 2106 1299 
C 2394 941 2630 602 2784 314 
L 3168 666 
C 2982 998 2682 1395 2330 1798 
C 2624 2534 2835 3411 2944 4448 
L 2630 4538 
L 2547 4518 
L 448 4518 
L 448 4064 
L 2419 4064 
C 2323 3373 2170 2752 1965 2202 
C 1626 2554 1267 2899 922 3200 
L 582 2899 
z
M 4896 5376 
L 4896 3834 
L 3085 3834 
L 3085 3373 
L 4896 3373 
L 4896 141 
C 4896 26 4851 -6 4742 -13 
C 4634 -13 4275 -19 3872 0 
C 3936 -147 4006 -371 4032 -506 
C 4576 -506 4902 -493 5094 -410 
C 5293 -326 5370 -179 5370 141 
L 5370 3373 
L 6138 3373 
L 6138 3834 
L 5370 3834 
L 5370 5376 
L 4896 5376 
z
" transform="scale(0.015625)"/>
       <path id="NotoSansCJKjp-Regular-975e" d="M 3693 5344 
L 3693 -512 
L 4173 -512 
L 4173 1043 
L 6131 1043 
L 6131 1498 
L 4173 1498 
L 4173 2522 
L 5888 2522 
L 5888 2963 
L 4173 2963 
L 4173 3949 
L 6022 3949 
L 6022 4403 
L 4173 4403 
L 4173 5344 
L 3693 5344 
z
M 2163 5344 
L 2163 4403 
L 493 4403 
L 493 3949 
L 2163 3949 
L 2163 2963 
L 563 2963 
L 563 2522 
L 2163 2522 
L 2163 2355 
C 2163 2163 2144 1914 2086 1651 
C 1382 1536 730 1434 256 1363 
L 352 890 
L 1933 1178 
C 1709 653 1286 122 493 -218 
C 602 -314 762 -467 838 -582 
C 1811 -122 2272 602 2477 1274 
L 3155 1402 
L 3136 1830 
L 2579 1734 
C 2618 1958 2630 2170 2630 2355 
L 2630 5344 
L 2163 5344 
z
" transform="scale(0.015625)"/>
       <path id="NotoSansCJKjp-Regular-6761" d="M 4243 4371 
C 3981 4026 3635 3718 3226 3462 
C 2810 3712 2464 4006 2195 4346 
L 2227 4371 
L 4243 4371 
z
M 2419 5389 
C 2086 4806 1427 4141 474 3680 
C 582 3610 736 3443 819 3328 
C 1222 3546 1574 3782 1875 4045 
C 2131 3731 2438 3456 2790 3213 
C 2054 2835 1197 2586 371 2451 
C 454 2342 563 2144 595 2016 
C 1504 2195 2438 2490 3232 2944 
C 3974 2534 4858 2266 5830 2125 
C 5894 2253 6022 2451 6118 2554 
C 5210 2669 4378 2893 3674 3219 
C 4211 3597 4666 4058 4966 4621 
L 4646 4813 
L 4557 4787 
L 2592 4787 
C 2726 4954 2842 5120 2944 5286 
L 2419 5389 
z
M 2944 2509 
L 2944 1818 
L 365 1818 
L 365 1389 
L 2522 1389 
C 1958 787 1056 256 237 0 
C 346 -102 486 -282 557 -397 
C 1408 -77 2349 538 2944 1248 
L 2944 -512 
L 3430 -512 
L 3430 1242 
C 4032 544 4966 -64 5837 -371 
C 5914 -250 6054 -64 6163 32 
C 5318 288 4422 794 3859 1389 
L 6048 1389 
L 6048 1818 
L 3430 1818 
L 3430 2509 
L 2944 2509 
z
" transform="scale(0.015625)"/>
       <path id="NotoSansCJKjp-Regular-4ef6" d="M 2029 2182 
L 2029 1715 
L 3866 1715 
L 3866 -512 
L 4346 -512 
L 4346 1715 
L 6099 1715 
L 6099 2182 
L 4346 2182 
L 4346 3597 
L 5818 3597 
L 5818 4064 
L 4346 4064 
L 4346 5299 
L 3866 5299 
L 3866 4064 
L 3008 4064 
C 3091 4352 3162 4659 3226 4960 
L 2765 5056 
C 2618 4218 2349 3392 1978 2861 
C 2093 2803 2298 2688 2387 2618 
C 2560 2886 2720 3226 2854 3597 
L 3866 3597 
L 3866 2182 
L 2029 2182 
z
M 1715 5350 
C 1370 4384 806 3424 205 2797 
C 288 2688 429 2438 480 2323 
C 685 2541 877 2797 1069 3072 
L 1069 -499 
L 1530 -499 
L 1530 3821 
C 1773 4269 1990 4742 2170 5216 
L 1715 5350 
z
" transform="scale(0.015625)"/>
       <path id="NotoSansCJKjp-Regular-671f" d="M 1139 915 
C 947 486 608 58 250 -230 
C 365 -301 557 -435 646 -512 
C 992 -192 1363 301 1594 787 
L 1139 915 
z
M 2054 717 
C 2304 416 2598 -6 2714 -269 
L 3110 -38 
C 2976 224 2682 621 2426 915 
L 2054 717 
z
M 5472 4621 
L 5472 3590 
L 4160 3590 
L 4160 4621 
L 5472 4621 
z
M 3712 5056 
L 3712 2733 
C 3712 1811 3661 589 3123 -262 
C 3232 -314 3430 -454 3507 -538 
C 3891 70 4058 890 4122 1664 
L 5472 1664 
L 5472 109 
C 5472 6 5434 -19 5344 -26 
C 5248 -32 4922 -32 4582 -19 
C 4646 -147 4717 -358 4736 -486 
C 5203 -486 5510 -480 5690 -397 
C 5875 -320 5933 -173 5933 102 
L 5933 5056 
L 3712 5056 
z
M 5472 3162 
L 5472 2099 
L 4147 2099 
C 4160 2323 4160 2534 4160 2733 
L 4160 3162 
L 5472 3162 
z
M 2477 5299 
L 2477 4525 
L 1312 4525 
L 1312 5299 
L 877 5299 
L 877 4525 
L 333 4525 
L 333 4096 
L 877 4096 
L 877 1478 
L 243 1478 
L 243 1050 
L 3398 1050 
L 3398 1478 
L 2925 1478 
L 2925 4096 
L 3398 4096 
L 3398 4525 
L 2925 4525 
L 2925 5299 
L 2477 5299 
z
M 1312 4096 
L 2477 4096 
L 2477 3526 
L 1312 3526 
L 1312 4096 
z
M 1312 3142 
L 2477 3142 
L 2477 2515 
L 1312 2515 
L 1312 3142 
z
M 1312 2125 
L 2477 2125 
L 2477 1478 
L 1312 1478 
L 1312 2125 
z
" transform="scale(0.015625)"/>
       <path id="NotoSansCJKjp-Regular-671b" d="M 358 45 
L 358 -365 
L 6048 -365 
L 6048 45 
L 3437 45 
L 3437 602 
L 5344 602 
L 5344 998 
L 3437 998 
L 3437 1549 
L 5651 1549 
L 5651 1958 
L 794 1958 
L 794 1549 
L 2950 1549 
L 2950 998 
L 1069 998 
L 1069 602 
L 2950 602 
L 2950 45 
L 358 45 
z
M 1574 5370 
L 1574 4704 
L 250 4704 
L 250 4288 
L 723 4288 
L 723 3213 
C 723 2707 864 2528 1389 2528 
C 1504 2528 2323 2528 2496 2528 
C 2701 2528 2918 2534 3021 2566 
C 3002 2669 2982 2861 2970 2976 
C 2854 2957 2624 2944 2483 2944 
C 2317 2944 1549 2944 1389 2944 
C 1216 2944 1171 3008 1171 3206 
L 1171 4288 
L 3322 4288 
L 3322 4704 
L 2029 4704 
L 2029 5370 
L 1574 5370 
z
M 5498 4794 
L 5478 4346 
L 4128 4346 
L 4160 4794 
L 5498 4794 
z
M 3738 5152 
C 3699 3904 3610 2963 2880 2451 
C 2982 2381 3110 2234 3168 2131 
C 3539 2400 3776 2758 3923 3206 
L 5402 3206 
C 5363 2918 5325 2771 5274 2714 
C 5229 2650 5171 2630 5088 2637 
C 4986 2637 4762 2637 4499 2662 
C 4557 2560 4602 2394 4614 2285 
C 4883 2266 5139 2266 5280 2278 
C 5453 2298 5562 2342 5664 2464 
C 5818 2656 5882 3251 5946 4954 
C 5946 5018 5946 5152 5946 5152 
L 3738 5152 
z
M 5466 4006 
L 5434 3552 
L 4019 3552 
C 4051 3699 4077 3846 4096 4006 
L 5466 4006 
z
" transform="scale(0.015625)"/>
      </defs>
      <use xlink:href="#NotoSansCJKjp-Regular-5bf9"/>
      <use xlink:href="#NotoSansCJKjp-Regular-975e" transform="translate(99.999985 0)"/>
      <use xlink:href="#NotoSansCJKjp-Regular-6761" transform="translate(199.999969 0)"/>
      <use xlink:href="#NotoSansCJKjp-Regular-4ef6" transform="translate(299.999954 0)"/>
      <use xlink:href="#NotoSansCJKjp-Regular-671f" transform="translate(399.999939 0)"/>
      <use xlink:href="#NotoSansCJKjp-Regular-671b" transform="translate(499.999924 0)"/>
      <use xlink:href="#NotoSansCJKjp-Regular-7684" transform="translate(599.999908 0)"/>
      <use xlink:href="#NotoSansCJKjp-Regular-8fb9" transform="translate(699.999893 0)"/>
      <use xlink:href="#NotoSansCJKjp-Regular-9645" transform="translate(799.999878 0)"/>
      <use xlink:href="#NotoSansCJKjp-Regular-6548" transform="translate(899.999863 0)"/>
      <use xlink:href="#NotoSansCJKjp-Regular-5e94" transform="translate(999.999847 0)"/>
     </g>
    </g>
    <g id="line2d_25">
     <path d="M 54.642656 55.286687 
L 65.642656 55.286687 
L 76.642656 55.286687 
" style="fill: none; stroke-dasharray: 7.4,3.2; stroke-dashoffset: 0; stroke: #ff7f0e; stroke-width: 2"/>
    </g>
    <g id="text_15">
     <!-- 对正贷款概率的边际效应 -->
     <g transform="translate(85.442656 59.136687) scale(0.11 -0.11)">
      <defs>
       <path id="NotoSansCJKjp-Regular-6b63" d="M 1203 3264 
L 1203 243 
L 333 243 
L 333 -224 
L 6080 -224 
L 6080 243 
L 3616 243 
L 3616 2259 
L 5619 2259 
L 5619 2726 
L 3616 2726 
L 3616 4435 
L 5869 4435 
L 5869 4909 
L 576 4909 
L 576 4435 
L 3110 4435 
L 3110 243 
L 1696 243 
L 1696 3264 
L 1203 3264 
z
" transform="scale(0.015625)"/>
       <path id="NotoSansCJKjp-Regular-8d37" d="M 2912 1914 
L 2912 1478 
C 2912 1018 2771 346 493 -109 
C 608 -205 755 -384 806 -486 
C 3168 58 3418 864 3418 1466 
L 3418 1914 
L 2912 1914 
z
M 3341 410 
C 4090 166 5069 -243 5562 -531 
L 5811 -128 
C 5299 154 4314 544 3578 762 
L 3341 410 
z
M 1229 2624 
L 1229 582 
L 1709 582 
L 1709 2182 
L 4685 2182 
L 4685 608 
L 5178 608 
L 5178 2624 
L 1229 2624 
z
M 4352 5190 
C 4608 5011 4922 4749 5069 4570 
L 5421 4813 
C 5267 4986 4947 5235 4698 5395 
L 4352 5190 
z
M 3053 5357 
C 3085 4992 3174 4659 3302 4352 
L 2170 4269 
L 2208 3878 
L 3494 3974 
C 3936 3245 4634 2790 5363 2790 
C 5779 2790 5952 2950 6029 3590 
C 5901 3629 5754 3699 5658 3789 
C 5626 3366 5574 3238 5376 3238 
C 4890 3226 4384 3520 4019 4019 
L 6067 4173 
L 6029 4557 
L 3789 4390 
C 3648 4672 3546 4998 3514 5357 
L 3053 5357 
z
M 1926 5376 
C 1542 4742 896 4147 250 3776 
C 352 3699 518 3526 595 3437 
C 832 3597 1075 3782 1312 4000 
L 1312 2835 
L 1779 2835 
L 1779 4461 
C 1997 4704 2195 4960 2355 5229 
L 1926 5376 
z
" transform="scale(0.015625)"/>
       <path id="NotoSansCJKjp-Regular-6b3e" d="M 742 1402 
C 627 915 429 435 154 109 
C 256 64 442 -32 525 -96 
C 787 256 1024 787 1158 1318 
L 742 1402 
z
M 2406 1254 
C 2586 941 2784 518 2867 262 
L 3245 442 
C 3162 691 2957 1101 2771 1402 
L 2406 1254 
z
M 1581 5357 
L 1581 4768 
L 326 4768 
L 326 4358 
L 1581 4358 
L 1581 3808 
L 474 3808 
L 474 3405 
L 3155 3405 
L 3155 3808 
L 2035 3808 
L 2035 4358 
L 3283 4358 
L 3283 4768 
L 2035 4768 
L 2035 5357 
L 1581 5357 
z
M 250 2029 
L 250 1619 
L 1587 1619 
L 1587 -19 
C 1587 -83 1568 -102 1491 -102 
C 1421 -109 1197 -109 941 -102 
C 998 -224 1062 -397 1082 -518 
C 1446 -518 1683 -512 1837 -442 
C 1997 -371 2035 -250 2035 -26 
L 2035 1619 
L 3347 1619 
L 3347 2029 
L 250 2029 
z
M 3834 5382 
C 3706 4384 3475 3405 3078 2771 
L 3078 2925 
L 544 2925 
L 544 2522 
L 3078 2522 
L 3078 2726 
C 3194 2662 3398 2522 3475 2451 
C 3686 2810 3859 3264 4006 3776 
L 4352 3776 
L 4352 2899 
C 4358 2368 4166 730 2816 -134 
C 2906 -224 3046 -416 3098 -518 
C 4147 173 4518 1363 4582 1914 
C 4653 1382 4979 134 5888 -512 
C 5958 -403 6099 -211 6189 -102 
C 5011 723 4813 2387 4819 2899 
L 4819 3776 
L 5574 3776 
C 5517 3354 5440 2899 5363 2598 
L 5741 2483 
C 5875 2906 5997 3584 6080 4147 
L 5766 4237 
L 5690 4218 
L 4115 4218 
C 4198 4570 4262 4934 4314 5312 
L 3834 5382 
z
" transform="scale(0.015625)"/>
       <path id="NotoSansCJKjp-Regular-6982" d="M 2304 5018 
L 2304 678 
L 1862 544 
L 2061 109 
C 2515 275 3078 486 3629 698 
C 3680 557 3718 422 3744 307 
L 3981 410 
C 3776 192 3539 -13 3258 -211 
C 3360 -282 3507 -429 3578 -512 
C 4243 -32 4691 518 4992 1082 
L 4992 96 
C 4992 -192 5018 -288 5101 -371 
C 5184 -448 5312 -467 5434 -467 
C 5498 -467 5638 -467 5715 -467 
C 5818 -467 5926 -448 5997 -403 
C 6080 -352 6138 -269 6170 -141 
C 6195 -19 6221 333 6221 653 
C 6112 691 5971 762 5894 832 
C 5894 518 5888 243 5875 128 
C 5862 51 5837 -6 5811 -26 
C 5786 -51 5734 -58 5683 -58 
C 5632 -58 5574 -58 5530 -58 
C 5485 -58 5446 -51 5421 -26 
C 5395 -6 5389 32 5389 77 
L 5389 2093 
L 5434 2266 
L 6144 2266 
L 6144 2688 
L 5510 2688 
C 5587 3149 5600 3590 5600 3981 
L 5600 4602 
L 6074 4602 
L 6074 5024 
L 4019 5024 
L 4019 4602 
L 4275 4602 
L 4275 2688 
L 3962 2688 
L 3962 2266 
L 5005 2266 
C 4858 1696 4589 1107 4115 557 
C 4013 934 3776 1498 3546 1939 
L 3174 1805 
C 3290 1581 3398 1318 3501 1062 
L 2707 806 
L 2707 2310 
L 3859 2310 
L 3859 5018 
L 2304 5018 
z
M 4659 4602 
L 5190 4602 
L 5190 3981 
C 5190 3597 5178 3155 5094 2688 
L 4659 2688 
L 4659 4602 
z
M 3462 3494 
L 3462 2714 
L 2707 2714 
L 2707 3494 
L 3462 3494 
z
M 3462 3878 
L 2707 3878 
L 2707 4614 
L 3462 4614 
L 3462 3878 
z
M 1120 5376 
L 1120 4019 
L 314 4019 
L 314 3571 
L 1069 3571 
C 909 2688 550 1658 179 1101 
C 256 998 371 819 429 691 
C 691 1094 928 1722 1120 2381 
L 1120 -506 
L 1568 -506 
L 1568 2515 
C 1741 2278 1939 2003 2029 1850 
L 2291 2259 
C 2189 2381 1722 2893 1568 3034 
L 1568 3571 
L 2150 3571 
L 2150 4019 
L 1568 4019 
L 1568 5376 
L 1120 5376 
z
" transform="scale(0.015625)"/>
       <path id="NotoSansCJKjp-Regular-7387" d="M 5376 4038 
C 5139 3782 4704 3437 4384 3226 
L 4736 3014 
C 5056 3226 5472 3520 5798 3821 
L 5376 4038 
z
M 320 1997 
L 557 1613 
C 986 1798 1517 2048 2022 2291 
L 1933 2656 
C 1338 2406 730 2150 320 1997 
z
M 544 3680 
C 902 3482 1344 3174 1555 2957 
L 1888 3258 
C 1670 3469 1222 3757 864 3949 
L 544 3680 
z
M 4262 2458 
C 4768 2202 5408 1811 5715 1542 
L 6067 1850 
C 5734 2112 5094 2490 4595 2733 
L 4262 2458 
z
M 3526 2707 
C 3654 2566 3782 2400 3904 2227 
L 2810 2176 
C 3264 2618 3763 3168 4147 3642 
L 3770 3827 
C 3590 3571 3347 3270 3091 2976 
C 2957 3098 2784 3226 2598 3347 
C 2810 3578 3046 3878 3251 4154 
L 3110 4211 
L 5882 4211 
L 5882 4659 
L 3424 4659 
L 3424 5376 
L 2938 5376 
L 2938 4659 
L 538 4659 
L 538 4211 
L 2771 4211 
C 2643 4000 2470 3750 2310 3546 
L 2131 3654 
L 1894 3373 
C 2202 3174 2579 2906 2822 2682 
C 2650 2490 2470 2310 2304 2150 
L 1811 2131 
L 1882 1715 
L 4128 1882 
C 4211 1747 4275 1626 4320 1517 
L 4691 1709 
C 4550 2035 4192 2515 3872 2874 
L 3526 2707 
z
M 346 1222 
L 346 774 
L 2938 774 
L 2938 -531 
L 3424 -531 
L 3424 774 
L 6061 774 
L 6061 1222 
L 3424 1222 
L 3424 1722 
L 2938 1722 
L 2938 1222 
L 346 1222 
z
" transform="scale(0.015625)"/>
      </defs>
      <use xlink:href="#NotoSansCJKjp-Regular-5bf9"/>
      <use xlink:href="#NotoSansCJKjp-Regular-6b63" transform="translate(99.999985 0)"/>
      <use xlink:href="#NotoSansCJKjp-Regular-8d37" transform="translate(199.999969 0)"/>
      <use xlink:href="#NotoSansCJKjp-Regular-6b3e" transform="translate(299.999954 0)"/>
      <use xlink:href="#NotoSansCJKjp-Regular-6982" transform="translate(399.999939 0)"/>
      <use xlink:href="#NotoSansCJKjp-Regular-7387" transform="translate(499.999924 0)"/>
      <use xlink:href="#NotoSansCJKjp-Regular-7684" transform="translate(599.999908 0)"/>
      <use xlink:href="#NotoSansCJKjp-Regular-8fb9" transform="translate(699.999893 0)"/>
      <use xlink:href="#NotoSansCJKjp-Regular-9645" transform="translate(799.999878 0)"/>
      <use xlink:href="#NotoSansCJKjp-Regular-6548" transform="translate(899.999863 0)"/>
      <use xlink:href="#NotoSansCJKjp-Regular-5e94" transform="translate(999.999847 0)"/>
     </g>
    </g>
    <g id="line2d_26">
     <path d="M 54.642656 72.061687 
L 65.642656 72.061687 
L 76.642656 72.061687 
" style="fill: none; stroke-dasharray: 2,3.3; stroke-dashoffset: 0; stroke: #2ca02c; stroke-width: 2"/>
    </g>
    <g id="text_16">
     <!-- 对正值条件均值的边际效应 -->
     <g transform="translate(85.442656 75.911687) scale(0.11 -0.11)">
      <defs>
       <path id="NotoSansCJKjp-Regular-503c" d="M 3834 5376 
C 3814 5184 3782 4954 3750 4723 
L 2106 4723 
L 2106 4294 
L 3674 4294 
C 3635 4077 3597 3872 3552 3699 
L 2445 3699 
L 2445 90 
L 1830 90 
L 1830 -326 
L 6131 -326 
L 6131 90 
L 5562 90 
L 5562 3699 
L 3987 3699 
C 4038 3872 4090 4077 4134 4294 
L 5939 4294 
L 5939 4723 
L 4230 4723 
L 4346 5344 
L 3834 5376 
z
M 2880 90 
L 2880 621 
L 5114 621 
L 5114 90 
L 2880 90 
z
M 2880 2426 
L 5114 2426 
L 5114 1875 
L 2880 1875 
L 2880 2426 
z
M 2880 2784 
L 2880 3322 
L 5114 3322 
L 5114 2784 
L 2880 2784 
z
M 2880 1530 
L 5114 1530 
L 5114 973 
L 2880 973 
L 2880 1530 
z
M 1690 5370 
C 1350 4397 794 3443 205 2816 
C 288 2701 422 2451 474 2342 
C 659 2547 845 2784 1018 3040 
L 1018 -512 
L 1466 -512 
L 1466 3770 
C 1722 4230 1946 4730 2131 5229 
L 1690 5370 
z
" transform="scale(0.015625)"/>
       <path id="NotoSansCJKjp-Regular-5747" d="M 2803 3021 
L 2803 2579 
L 4794 2579 
L 4794 3021 
L 2803 3021 
z
M 2509 954 
L 2707 506 
C 3334 742 4173 1075 4954 1389 
L 4870 1805 
C 4000 1478 3091 1146 2509 954 
z
M 3245 5376 
C 3002 4480 2586 3610 2054 3053 
C 2176 2982 2381 2835 2477 2746 
C 2726 3046 2970 3430 3181 3853 
L 5542 3853 
C 5459 1254 5357 269 5152 51 
C 5075 -32 5005 -58 4877 -51 
C 4723 -51 4326 -51 3898 -13 
C 3981 -154 4045 -358 4058 -499 
C 4442 -518 4838 -531 5062 -506 
C 5293 -486 5440 -429 5587 -237 
C 5843 77 5939 1101 6029 4058 
C 6035 4128 6035 4314 6035 4314 
L 3392 4314 
C 3526 4621 3635 4941 3731 5267 
L 3245 5376 
z
M 218 1030 
L 390 550 
C 986 794 1773 1126 2509 1440 
L 2406 1894 
L 1606 1568 
L 1606 3430 
L 2362 3430 
L 2362 3885 
L 1606 3885 
L 1606 5338 
L 1139 5338 
L 1139 3885 
L 333 3885 
L 333 3430 
L 1139 3430 
L 1139 1382 
C 794 1248 474 1120 218 1030 
z
" transform="scale(0.015625)"/>
      </defs>
      <use xlink:href="#NotoSansCJKjp-Regular-5bf9"/>
      <use xlink:href="#NotoSansCJKjp-Regular-6b63" transform="translate(99.999985 0)"/>
      <use xlink:href="#NotoSansCJKjp-Regular-503c" transform="translate(199.999969 0)"/>
      <use xlink:href="#NotoSansCJKjp-Regular-6761" transform="translate(299.999954 0)"/>
      <use xlink:href="#NotoSansCJKjp-Regular-4ef6" transform="translate(399.999939 0)"/>
      <use xlink:href="#NotoSansCJKjp-Regular-5747" transform="translate(499.999924 0)"/>
      <use xlink:href="#NotoSansCJKjp-Regular-503c" transform="translate(599.999908 0)"/>
      <use xlink:href="#NotoSansCJKjp-Regular-7684" transform="translate(699.999893 0)"/>
      <use xlink:href="#NotoSansCJKjp-Regular-8fb9" transform="translate(799.999878 0)"/>
      <use xlink:href="#NotoSansCJKjp-Regular-9645" transform="translate(899.999863 0)"/>
      <use xlink:href="#NotoSansCJKjp-Regular-6548" transform="translate(999.999847 0)"/>
      <use xlink:href="#NotoSansCJKjp-Regular-5e94" transform="translate(1099.999832 0)"/>
     </g>
    </g>
   </g>
  </g>
 </g>
 <defs>
  <clipPath id="pc8b23206b8">
   <rect x="44.742656" y="23.706375" width="412.92" height="238.392"/>
  </clipPath>
 </defs>
</svg>
