<?xml version="1.0" encoding="utf-8" standalone="no"?>
<!DOCTYPE svg PUBLIC "-//W3C//DTD SVG 1.1//EN"
  "http://www.w3.org/Graphics/SVG/1.1/DTD/svg11.dtd">
<svg xmlns:xlink="http://www.w3.org/1999/xlink" width="470.442656pt" height="303.388062pt" viewBox="0 0 470.442656 303.388062" xmlns="http://www.w3.org/2000/svg" version="1.1">
 <metadata>
  <rdf:RDF xmlns:dc="http://purl.org/dc/elements/1.1/" xmlns:cc="http://creativecommons.org/ns#" xmlns:rdf="http://www.w3.org/1999/02/22-rdf-syntax-ns#">
   <cc:Work>
    <dc:type rdf:resource="http://purl.org/dc/dcmitype/StillImage"/>
    <dc:date>2026-04-29T04:11:59.983257</dc:date>
    <dc:format>image/svg+xml</dc:format>
    <dc:creator>
     <cc:Agent>
      <dc:title>Matplotlib v3.10.8, https://matplotlib.org/</dc:title>
     </cc:Agent>
    </dc:creator>
   </cc:Work>
  </rdf:RDF>
 </metadata>
 <defs>
  <style type="text/css">*{stroke-linejoin: round; stroke-linecap: butt}</style>
 </defs>
 <g id="figure_1">
  <g id="patch_1">
   <path d="M 0 303.388062 
L 470.442656 303.388062 
L 470.442656 0 
L 0 0 
z
" style="fill: #ffffff"/>
  </g>
  <g id="axes_1">
   <g id="patch_2">
    <path d="M 44.742656 262.098375 
L 463.242656 262.098375 
L 463.242656 23.706375 
L 44.742656 23.706375 
z
" style="fill: #ffffff"/>
   </g>
   <g id="matplotlib.axis_1">
    <g id="xtick_1">
     <g id="line2d_1">
      <path d="M 101.810838 262.098375 
L 101.810838 23.706375 
" clip-path="url(#pc10f64dc92)" style="fill: none; stroke: #b0b0b0; stroke-opacity: 0.25; stroke-width: 0.8; stroke-linecap: square"/>
     </g>
     <g id="line2d_2">
      <defs>
       <path id="m8a31511b5d" d="M 0 0 
L 0 3.5 
" style="stroke: #000000; stroke-width: 0.8"/>
      </defs>
      <g>
       <use xlink:href="#m8a31511b5d" x="101.810838" y="262.098375" style="stroke: #000000; stroke-width: 0.8"/>
      </g>
     </g>
     <g id="text_1">
      <!-- -2 -->
      <g transform="translate(96.849666 277.853687) scale(0.11 -0.11)">
       <defs>
        <path id="NotoSansCJKjp-Regular-2d" d="M 294 1568 
L 1933 1568 
L 1933 2016 
L 294 2016 
L 294 1568 
z
" transform="scale(0.015625)"/>
        <path id="NotoSansCJKjp-Regular-32" d="M 282 0 
L 3232 0 
L 3232 506 
L 1933 506 
C 1696 506 1408 480 1165 461 
C 2266 1504 3008 2458 3008 3398 
C 3008 4230 2477 4774 1638 4774 
C 1043 4774 634 4506 256 4090 
L 595 3757 
C 858 4070 1184 4301 1568 4301 
C 2150 4301 2432 3910 2432 3373 
C 2432 2566 1754 1632 282 346 
L 282 0 
z
" transform="scale(0.015625)"/>
       </defs>
       <use xlink:href="#NotoSansCJKjp-Regular-2d"/>
       <use xlink:href="#NotoSansCJKjp-Regular-32" transform="translate(34.699997 0)"/>
      </g>
     </g>
    </g>
    <g id="xtick_2">
     <g id="line2d_3">
      <path d="M 177.901747 262.098375 
L 177.901747 23.706375 
" clip-path="url(#pc10f64dc92)" style="fill: none; stroke: #b0b0b0; stroke-opacity: 0.25; stroke-width: 0.8; stroke-linecap: square"/>
     </g>
     <g id="line2d_4">
      <g>
       <use xlink:href="#m8a31511b5d" x="177.901747" y="262.098375" style="stroke: #000000; stroke-width: 0.8"/>
      </g>
     </g>
     <g id="text_2">
      <!-- -1 -->
      <g transform="translate(172.940575 277.853687) scale(0.11 -0.11)">
       <defs>
        <path id="NotoSansCJKjp-Regular-31" d="M 563 0 
L 3136 0 
L 3136 486 
L 2195 486 
L 2195 4691 
L 1747 4691 
C 1491 4544 1190 4435 774 4358 
L 774 3987 
L 1613 3987 
L 1613 486 
L 563 486 
L 563 0 
z
" transform="scale(0.015625)"/>
       </defs>
       <use xlink:href="#NotoSansCJKjp-Regular-2d"/>
       <use xlink:href="#NotoSansCJKjp-Regular-31" transform="translate(34.699997 0)"/>
      </g>
     </g>
    </g>
    <g id="xtick_3">
     <g id="line2d_5">
      <path d="M 253.992656 262.098375 
L 253.992656 23.706375 
" clip-path="url(#pc10f64dc92)" style="fill: none; stroke: #b0b0b0; stroke-opacity: 0.25; stroke-width: 0.8; stroke-linecap: square"/>
     </g>
     <g id="line2d_6">
      <g>
       <use xlink:href="#m8a31511b5d" x="253.992656" y="262.098375" style="stroke: #000000; stroke-width: 0.8"/>
      </g>
     </g>
     <g id="text_3">
      <!-- 0 -->
      <g transform="translate(250.940156 277.853687) scale(0.11 -0.11)">
       <defs>
        <path id="NotoSansCJKjp-Regular-30" d="M 1779 -83 
C 2669 -83 3238 723 3238 2362 
C 3238 3987 2669 4774 1779 4774 
C 883 4774 320 3987 320 2362 
C 320 723 883 -83 1779 -83 
z
M 1779 390 
C 1248 390 883 986 883 2362 
C 883 3731 1248 4314 1779 4314 
C 2310 4314 2675 3731 2675 2362 
C 2675 986 2310 390 1779 390 
z
" transform="scale(0.015625)"/>
       </defs>
       <use xlink:href="#NotoSansCJKjp-Regular-30"/>
      </g>
     </g>
    </g>
    <g id="xtick_4">
     <g id="line2d_7">
      <path d="M 330.083565 262.098375 
L 330.083565 23.706375 
" clip-path="url(#pc10f64dc92)" style="fill: none; stroke: #b0b0b0; stroke-opacity: 0.25; stroke-width: 0.8; stroke-linecap: square"/>
     </g>
     <g id="line2d_8">
      <g>
       <use xlink:href="#m8a31511b5d" x="330.083565" y="262.098375" style="stroke: #000000; stroke-width: 0.8"/>
      </g>
     </g>
     <g id="text_4">
      <!-- 1 -->
      <g transform="translate(327.031065 277.853687) scale(0.11 -0.11)">
       <use xlink:href="#NotoSansCJKjp-Regular-31"/>
      </g>
     </g>
    </g>
    <g id="xtick_5">
     <g id="line2d_9">
      <path d="M 406.174474 262.098375 
L 406.174474 23.706375 
" clip-path="url(#pc10f64dc92)" style="fill: none; stroke: #b0b0b0; stroke-opacity: 0.25; stroke-width: 0.8; stroke-linecap: square"/>
     </g>
     <g id="line2d_10">
      <g>
       <use xlink:href="#m8a31511b5d" x="406.174474" y="262.098375" style="stroke: #000000; stroke-width: 0.8"/>
      </g>
     </g>
     <g id="text_5">
      <!-- 2 -->
      <g transform="translate(403.121974 277.853687) scale(0.11 -0.11)">
       <use xlink:href="#NotoSansCJKjp-Regular-32"/>
      </g>
     </g>
    </g>
    <g id="text_6">
     <!-- 投资机会 opportunity -->
     <g transform="translate(199.9225 293.613375) scale(0.11 -0.11)">
      <defs>
       <path id="NotoSansCJKjp-Regular-6295" d="M 3059 5120 
L 3059 4480 
C 3059 4032 2950 3488 2317 3085 
C 2406 3021 2579 2835 2637 2739 
C 3347 3206 3514 3904 3514 4467 
L 3514 4672 
L 4717 4672 
L 4717 3584 
C 4717 3130 4826 3008 5235 3008 
C 5318 3008 5619 3008 5709 3008 
C 6067 3008 6182 3206 6221 3994 
C 6099 4026 5907 4096 5811 4173 
C 5798 3514 5779 3418 5658 3418 
C 5594 3418 5357 3418 5306 3418 
C 5197 3418 5171 3443 5171 3584 
L 5171 5120 
L 3059 5120 
z
M 5126 2170 
C 4909 1677 4589 1261 4198 922 
C 3821 1267 3526 1690 3334 2170 
L 5126 2170 
z
M 2675 2605 
L 2675 2170 
L 3238 2170 
L 2886 2061 
C 3110 1504 3424 1024 3814 634 
C 3309 288 2714 51 2099 -90 
C 2189 -192 2304 -390 2355 -518 
C 3014 -346 3642 -77 4179 307 
C 4659 -70 5242 -346 5920 -512 
C 5990 -384 6131 -186 6240 -83 
C 5594 58 5037 294 4570 621 
C 5101 1094 5510 1709 5754 2496 
L 5446 2624 
L 5357 2605 
L 2675 2605 
z
M 1222 5376 
L 1222 4109 
L 288 4109 
L 288 3661 
L 1222 3661 
L 1222 2234 
C 838 2118 480 2010 205 1939 
L 365 1446 
L 1222 1741 
L 1222 51 
C 1222 -38 1184 -64 1101 -70 
C 1018 -70 749 -70 461 -64 
C 525 -192 589 -390 608 -506 
C 1037 -512 1299 -493 1466 -422 
C 1632 -346 1696 -218 1696 58 
L 1696 1907 
L 2413 2157 
L 2349 2573 
L 1696 2374 
L 1696 3661 
L 2413 3661 
L 2413 4109 
L 1696 4109 
L 1696 5376 
L 1222 5376 
z
" transform="scale(0.015625)"/>
       <path id="NotoSansCJKjp-Regular-8d44" d="M 544 4813 
C 1011 4640 1594 4339 1882 4115 
L 2138 4486 
C 1837 4710 1248 4986 787 5146 
L 544 4813 
z
M 314 3168 
L 454 2726 
C 966 2899 1626 3110 2246 3322 
L 2170 3744 
C 1478 3520 787 3302 314 3168 
z
M 1165 2381 
L 1165 595 
L 1638 595 
L 1638 1933 
L 4813 1933 
L 4813 640 
L 5312 640 
L 5312 2381 
L 1165 2381 
z
M 3027 1747 
C 2842 685 2349 122 320 -128 
C 397 -230 499 -410 531 -525 
C 2694 -218 3283 467 3501 1747 
L 3027 1747 
z
M 3302 480 
C 4102 218 5165 -205 5702 -486 
L 5984 -90 
C 5427 192 4358 589 3565 832 
L 3302 480 
z
M 3098 5350 
C 2931 4902 2605 4365 2080 3974 
C 2189 3917 2342 3776 2419 3674 
C 2694 3898 2912 4147 3098 4410 
L 3853 4410 
C 3654 3738 3232 3149 2086 2842 
C 2176 2765 2298 2605 2342 2496 
C 3226 2758 3738 3181 4045 3699 
C 4448 3155 5069 2739 5786 2541 
C 5850 2662 5978 2829 6074 2918 
C 5280 3091 4582 3520 4230 4070 
C 4269 4179 4307 4294 4339 4410 
L 5293 4410 
C 5197 4198 5088 3987 4998 3840 
L 5414 3718 
C 5574 3968 5766 4358 5933 4710 
L 5581 4806 
L 5504 4781 
L 3322 4781 
C 3418 4947 3494 5120 3558 5286 
L 3098 5350 
z
" transform="scale(0.015625)"/>
       <path id="NotoSansCJKjp-Regular-673a" d="M 3187 5011 
L 3187 2957 
C 3187 1965 3098 691 2234 -205 
C 2342 -262 2528 -422 2598 -512 
C 3520 435 3654 1888 3654 2957 
L 3654 4557 
L 4858 4557 
L 4858 435 
C 4858 -115 4896 -230 5005 -326 
C 5101 -410 5242 -448 5370 -448 
C 5453 -448 5600 -448 5696 -448 
C 5830 -448 5946 -422 6035 -358 
C 6131 -294 6182 -186 6214 0 
C 6240 160 6266 634 6266 998 
C 6144 1037 5997 1114 5901 1203 
C 5894 774 5888 435 5869 288 
C 5862 141 5843 83 5805 45 
C 5779 13 5728 0 5677 0 
C 5613 0 5536 0 5491 0 
C 5440 0 5408 13 5376 38 
C 5344 64 5331 186 5331 397 
L 5331 5011 
L 3187 5011 
z
M 1395 5376 
L 1395 4006 
L 333 4006 
L 333 3546 
L 1331 3546 
C 1101 2656 634 1658 179 1120 
C 256 1005 378 813 429 685 
C 787 1126 1133 1850 1395 2598 
L 1395 -506 
L 1862 -506 
L 1862 2432 
C 2112 2112 2413 1715 2541 1498 
L 2842 1894 
C 2694 2061 2086 2746 1862 2970 
L 1862 3546 
L 2810 3546 
L 2810 4006 
L 1862 4006 
L 1862 5376 
L 1395 5376 
z
" transform="scale(0.015625)"/>
       <path id="NotoSansCJKjp-Regular-4f1a" d="M 1664 3392 
L 1664 2944 
L 4717 2944 
L 4717 3392 
L 1664 3392 
z
M 3174 4902 
C 3776 4077 4902 3213 5894 2739 
C 5984 2874 6099 3053 6208 3168 
C 5190 3584 4077 4416 3398 5370 
L 2899 5370 
C 2406 4550 1338 3616 230 3098 
C 333 2989 461 2816 518 2701 
C 1606 3245 2656 4128 3174 4902 
z
M 3840 1197 
C 4128 947 4429 640 4691 333 
L 2093 230 
C 2349 678 2624 1235 2854 1709 
L 5875 1709 
L 5875 2163 
L 570 2163 
L 570 1709 
L 2259 1709 
C 2080 1242 1811 653 1562 218 
L 621 186 
L 685 -288 
C 1792 -243 3456 -179 5037 -96 
C 5158 -256 5261 -403 5338 -531 
L 5766 -262 
C 5472 218 4838 915 4250 1421 
L 3840 1197 
z
" transform="scale(0.015625)"/>
       <path id="NotoSansCJKjp-Regular-20" transform="scale(0.015625)"/>
       <path id="NotoSansCJKjp-Regular-6f" d="M 1939 -83 
C 2790 -83 3546 582 3546 1734 
C 3546 2893 2790 3565 1939 3565 
C 1088 3565 333 2893 333 1734 
C 333 582 1088 -83 1939 -83 
z
M 1939 403 
C 1338 403 934 934 934 1734 
C 934 2534 1338 3072 1939 3072 
C 2541 3072 2950 2534 2950 1734 
C 2950 934 2541 403 1939 403 
z
" transform="scale(0.015625)"/>
       <path id="NotoSansCJKjp-Regular-70" d="M 589 -1466 
L 1178 -1466 
L 1178 -288 
L 1158 320 
C 1472 58 1805 -83 2118 -83 
C 2912 -83 3629 602 3629 1792 
C 3629 2867 3142 3565 2246 3565 
C 1843 3565 1453 3334 1139 3072 
L 1126 3072 
L 1069 3475 
L 589 3475 
L 589 -1466 
z
M 2022 410 
C 1792 410 1485 499 1178 768 
L 1178 2598 
C 1510 2906 1811 3072 2099 3072 
C 2765 3072 3021 2560 3021 1786 
C 3021 928 2598 410 2022 410 
z
" transform="scale(0.015625)"/>
       <path id="NotoSansCJKjp-Regular-72" d="M 589 0 
L 1178 0 
L 1178 2234 
C 1408 2822 1760 3040 2048 3040 
C 2195 3040 2272 3021 2387 2982 
L 2496 3488 
C 2387 3546 2278 3565 2125 3565 
C 1741 3565 1382 3283 1139 2842 
L 1126 2842 
L 1069 3475 
L 589 3475 
L 589 0 
z
" transform="scale(0.015625)"/>
       <path id="NotoSansCJKjp-Regular-74" d="M 1677 -83 
C 1894 -83 2125 -19 2323 45 
L 2208 486 
C 2093 435 1939 390 1811 390 
C 1408 390 1274 634 1274 1056 
L 1274 3002 
L 2221 3002 
L 2221 3475 
L 1274 3475 
L 1274 4454 
L 787 4454 
L 723 3475 
L 173 3443 
L 173 3002 
L 691 3002 
L 691 1075 
C 691 378 941 -83 1677 -83 
z
" transform="scale(0.015625)"/>
       <path id="NotoSansCJKjp-Regular-75" d="M 1606 -83 
C 2080 -83 2426 166 2752 544 
L 2771 544 
L 2816 0 
L 3302 0 
L 3302 3475 
L 2720 3475 
L 2720 1011 
C 2387 602 2138 422 1779 422 
C 1318 422 1126 698 1126 1344 
L 1126 3475 
L 538 3475 
L 538 1274 
C 538 384 870 -83 1606 -83 
z
" transform="scale(0.015625)"/>
       <path id="NotoSansCJKjp-Regular-6e" d="M 589 0 
L 1178 0 
L 1178 2522 
C 1523 2874 1766 3053 2125 3053 
C 2586 3053 2784 2778 2784 2125 
L 2784 0 
L 3366 0 
L 3366 2202 
C 3366 3085 3034 3565 2304 3565 
C 1830 3565 1466 3302 1139 2970 
L 1126 2970 
L 1069 3475 
L 589 3475 
L 589 0 
z
" transform="scale(0.015625)"/>
       <path id="NotoSansCJKjp-Regular-69" d="M 589 0 
L 1178 0 
L 1178 3475 
L 589 3475 
L 589 0 
z
M 883 4192 
C 1114 4192 1274 4346 1274 4582 
C 1274 4806 1114 4960 883 4960 
C 653 4960 499 4806 499 4582 
C 499 4346 653 4192 883 4192 
z
" transform="scale(0.015625)"/>
       <path id="NotoSansCJKjp-Regular-79" d="M 646 -1498 
C 1338 -1498 1702 -973 1946 -294 
L 3251 3475 
L 2682 3475 
L 2054 1549 
C 1965 1235 1862 883 1773 563 
L 1741 563 
C 1619 890 1504 1242 1395 1549 
L 691 3475 
L 83 3475 
L 1478 -6 
L 1402 -269 
C 1254 -698 1011 -1018 621 -1018 
C 525 -1018 422 -986 352 -960 
L 237 -1427 
C 346 -1472 486 -1498 646 -1498 
z
" transform="scale(0.015625)"/>
      </defs>
      <use xlink:href="#NotoSansCJKjp-Regular-6295"/>
      <use xlink:href="#NotoSansCJKjp-Regular-8d44" transform="translate(99.999985 0)"/>
      <use xlink:href="#NotoSansCJKjp-Regular-673a" transform="translate(199.999969 0)"/>
      <use xlink:href="#NotoSansCJKjp-Regular-4f1a" transform="translate(299.999954 0)"/>
      <use xlink:href="#NotoSansCJKjp-Regular-20" transform="translate(399.999939 0)"/>
      <use xlink:href="#NotoSansCJKjp-Regular-6f" transform="translate(422.399933 0)"/>
      <use xlink:href="#NotoSansCJKjp-Regular-70" transform="translate(482.999924 0)"/>
      <use xlink:href="#NotoSansCJKjp-Regular-70" transform="translate(544.999908 0)"/>
      <use xlink:href="#NotoSansCJKjp-Regular-6f" transform="translate(606.999893 0)"/>
      <use xlink:href="#NotoSansCJKjp-Regular-72" transform="translate(667.599884 0)"/>
      <use xlink:href="#NotoSansCJKjp-Regular-74" transform="translate(706.399872 0)"/>
      <use xlink:href="#NotoSansCJKjp-Regular-75" transform="translate(744.099869 0)"/>
      <use xlink:href="#NotoSansCJKjp-Regular-6e" transform="translate(804.799866 0)"/>
      <use xlink:href="#NotoSansCJKjp-Regular-69" transform="translate(865.79985 0)"/>
      <use xlink:href="#NotoSansCJKjp-Regular-74" transform="translate(893.299835 0)"/>
      <use xlink:href="#NotoSansCJKjp-Regular-79" transform="translate(930.999832 0)"/>
     </g>
    </g>
   </g>
   <g id="matplotlib.axis_2">
    <g id="ytick_1">
     <g id="line2d_11">
      <path d="M 44.742656 251.35566 
L 463.242656 251.35566 
" clip-path="url(#pc10f64dc92)" style="fill: none; stroke: #b0b0b0; stroke-opacity: 0.25; stroke-width: 0.8; stroke-linecap: square"/>
     </g>
     <g id="line2d_12">
      <defs>
       <path id="m2a97f7eb70" d="M 0 0 
L -3.5 0 
" style="stroke: #000000; stroke-width: 0.8"/>
      </defs>
      <g>
       <use xlink:href="#m2a97f7eb70" x="44.742656" y="251.35566" style="stroke: #000000; stroke-width: 0.8"/>
      </g>
     </g>
     <g id="text_7">
      <!-- 0.0 -->
      <g transform="translate(22.475 255.733316) scale(0.11 -0.11)">
       <defs>
        <path id="NotoSansCJKjp-Regular-2e" d="M 890 -83 
C 1120 -83 1312 96 1312 358 
C 1312 627 1120 806 890 806 
C 653 806 467 627 467 358 
C 467 96 653 -83 890 -83 
z
" transform="scale(0.015625)"/>
       </defs>
       <use xlink:href="#NotoSansCJKjp-Regular-30"/>
       <use xlink:href="#NotoSansCJKjp-Regular-2e" transform="translate(55.499985 0)"/>
       <use xlink:href="#NotoSansCJKjp-Regular-30" transform="translate(83.299973 0)"/>
      </g>
     </g>
    </g>
    <g id="ytick_2">
     <g id="line2d_13">
      <path d="M 44.742656 198.772526 
L 463.242656 198.772526 
" clip-path="url(#pc10f64dc92)" style="fill: none; stroke: #b0b0b0; stroke-opacity: 0.25; stroke-width: 0.8; stroke-linecap: square"/>
     </g>
     <g id="line2d_14">
      <g>
       <use xlink:href="#m2a97f7eb70" x="44.742656" y="198.772526" style="stroke: #000000; stroke-width: 0.8"/>
      </g>
     </g>
     <g id="text_8">
      <!-- 0.5 -->
      <g transform="translate(22.475 203.150182) scale(0.11 -0.11)">
       <defs>
        <path id="NotoSansCJKjp-Regular-35" d="M 1677 -83 
C 2464 -83 3213 499 3213 1523 
C 3213 2560 2573 3021 1798 3021 
C 1517 3021 1306 2950 1094 2835 
L 1216 4192 
L 2982 4192 
L 2982 4691 
L 704 4691 
L 550 2502 
L 864 2304 
C 1133 2483 1331 2579 1645 2579 
C 2234 2579 2618 2182 2618 1510 
C 2618 826 2176 403 1619 403 
C 1075 403 730 653 467 922 
L 173 538 
C 493 224 941 -83 1677 -83 
z
" transform="scale(0.015625)"/>
       </defs>
       <use xlink:href="#NotoSansCJKjp-Regular-30"/>
       <use xlink:href="#NotoSansCJKjp-Regular-2e" transform="translate(55.499985 0)"/>
       <use xlink:href="#NotoSansCJKjp-Regular-35" transform="translate(83.299973 0)"/>
      </g>
     </g>
    </g>
    <g id="ytick_3">
     <g id="line2d_15">
      <path d="M 44.742656 146.189391 
L 463.242656 146.189391 
" clip-path="url(#pc10f64dc92)" style="fill: none; stroke: #b0b0b0; stroke-opacity: 0.25; stroke-width: 0.8; stroke-linecap: square"/>
     </g>
     <g id="line2d_16">
      <g>
       <use xlink:href="#m2a97f7eb70" x="44.742656" y="146.189391" style="stroke: #000000; stroke-width: 0.8"/>
      </g>
     </g>
     <g id="text_9">
      <!-- 1.0 -->
      <g transform="translate(22.475 150.567048) scale(0.11 -0.11)">
       <use xlink:href="#NotoSansCJKjp-Regular-31"/>
       <use xlink:href="#NotoSansCJKjp-Regular-2e" transform="translate(55.499985 0)"/>
       <use xlink:href="#NotoSansCJKjp-Regular-30" transform="translate(83.299973 0)"/>
      </g>
     </g>
    </g>
    <g id="ytick_4">
     <g id="line2d_17">
      <path d="M 44.742656 93.606257 
L 463.242656 93.606257 
" clip-path="url(#pc10f64dc92)" style="fill: none; stroke: #b0b0b0; stroke-opacity: 0.25; stroke-width: 0.8; stroke-linecap: square"/>
     </g>
     <g id="line2d_18">
      <g>
       <use xlink:href="#m2a97f7eb70" x="44.742656" y="93.606257" style="stroke: #000000; stroke-width: 0.8"/>
      </g>
     </g>
     <g id="text_10">
      <!-- 1.5 -->
      <g transform="translate(22.475 97.983913) scale(0.11 -0.11)">
       <use xlink:href="#NotoSansCJKjp-Regular-31"/>
       <use xlink:href="#NotoSansCJKjp-Regular-2e" transform="translate(55.499985 0)"/>
       <use xlink:href="#NotoSansCJKjp-Regular-35" transform="translate(83.299973 0)"/>
      </g>
     </g>
    </g>
    <g id="ytick_5">
     <g id="line2d_19">
      <path d="M 44.742656 41.023122 
L 463.242656 41.023122 
" clip-path="url(#pc10f64dc92)" style="fill: none; stroke: #b0b0b0; stroke-opacity: 0.25; stroke-width: 0.8; stroke-linecap: square"/>
     </g>
     <g id="line2d_20">
      <g>
       <use xlink:href="#m2a97f7eb70" x="44.742656" y="41.023122" style="stroke: #000000; stroke-width: 0.8"/>
      </g>
     </g>
     <g id="text_11">
      <!-- 2.0 -->
      <g transform="translate(22.475 45.400779) scale(0.11 -0.11)">
       <use xlink:href="#NotoSansCJKjp-Regular-32"/>
       <use xlink:href="#NotoSansCJKjp-Regular-2e" transform="translate(55.499985 0)"/>
       <use xlink:href="#NotoSansCJKjp-Regular-30" transform="translate(83.299973 0)"/>
      </g>
     </g>
    </g>
    <g id="text_12">
     <!-- 预测贷款金额 -->
     <g transform="translate(15.955312 175.902375) rotate(-90) scale(0.11 -0.11)">
      <defs>
       <path id="NotoSansCJKjp-Regular-9884" d="M 4288 3168 
L 4288 1888 
C 4288 1229 4141 365 2624 -134 
C 2733 -224 2861 -384 2918 -480 
C 4544 115 4742 1075 4742 1882 
L 4742 3168 
L 4288 3168 
z
M 4640 563 
C 5043 243 5562 -218 5811 -506 
L 6144 -166 
C 5888 109 5357 550 4960 858 
L 4640 563 
z
M 563 3891 
C 954 3629 1453 3277 1805 3008 
L 243 3008 
L 243 2579 
L 1299 2579 
L 1299 64 
C 1299 -19 1274 -38 1178 -45 
C 1088 -45 794 -45 461 -38 
C 531 -173 595 -365 614 -499 
C 1056 -499 1344 -493 1523 -416 
C 1709 -339 1760 -205 1760 51 
L 1760 2579 
L 2445 2579 
C 2330 2234 2202 1882 2086 1638 
L 2451 1542 
C 2624 1888 2822 2451 2989 2944 
L 2688 3027 
L 2618 3008 
L 2182 3008 
L 2310 3174 
C 2163 3290 1958 3443 1728 3597 
C 2106 3936 2522 4429 2797 4890 
L 2502 5094 
L 2419 5069 
L 378 5069 
L 378 4640 
L 2099 4640 
C 1901 4352 1638 4038 1395 3827 
L 826 4198 
L 563 3891 
z
M 3200 4019 
L 3200 973 
L 3648 973 
L 3648 3578 
L 5414 3578 
L 5414 986 
L 5882 986 
L 5882 4019 
L 4634 4019 
L 4858 4659 
L 6138 4659 
L 6138 5094 
L 2970 5094 
L 2970 4659 
L 4333 4659 
C 4288 4448 4230 4218 4173 4019 
L 3200 4019 
z
" transform="scale(0.015625)"/>
       <path id="NotoSansCJKjp-Regular-6d4b" d="M 3110 589 
C 3437 269 3814 -179 3994 -467 
L 4307 -250 
C 4122 26 3738 461 3411 774 
L 3110 589 
z
M 1997 5005 
L 1997 986 
L 2374 986 
L 2374 4634 
L 3763 4634 
L 3763 1005 
L 4154 1005 
L 4154 5005 
L 1997 5005 
z
M 5549 5293 
L 5549 45 
C 5549 -51 5510 -83 5421 -83 
C 5331 -90 5030 -90 4691 -83 
C 4749 -198 4813 -384 4832 -486 
C 5280 -493 5555 -480 5722 -410 
C 5882 -339 5946 -218 5946 45 
L 5946 5293 
L 5549 5293 
z
M 4672 4800 
L 4672 966 
L 5056 966 
L 5056 4800 
L 4672 4800 
z
M 2854 4179 
L 2854 1914 
C 2854 1139 2726 339 1658 -205 
C 1728 -262 1850 -422 1894 -499 
C 3046 83 3226 1050 3226 1907 
L 3226 4179 
L 2854 4179 
z
M 518 4966 
C 877 4768 1338 4461 1555 4256 
L 1850 4646 
C 1619 4838 1152 5120 806 5306 
L 518 4966 
z
M 243 3238 
C 595 3040 1062 2752 1293 2560 
L 1581 2944 
C 1338 3130 864 3405 518 3584 
L 243 3238 
z
M 371 -173 
L 806 -429 
C 1075 160 1395 947 1626 1619 
L 1242 1869 
C 986 1152 627 320 371 -173 
z
" transform="scale(0.015625)"/>
       <path id="NotoSansCJKjp-Regular-8d37" d="M 2912 1914 
L 2912 1478 
C 2912 1018 2771 346 493 -109 
C 608 -205 755 -384 806 -486 
C 3168 58 3418 864 3418 1466 
L 3418 1914 
L 2912 1914 
z
M 3341 410 
C 4090 166 5069 -243 5562 -531 
L 5811 -128 
C 5299 154 4314 544 3578 762 
L 3341 410 
z
M 1229 2624 
L 1229 582 
L 1709 582 
L 1709 2182 
L 4685 2182 
L 4685 608 
L 5178 608 
L 5178 2624 
L 1229 2624 
z
M 4352 5190 
C 4608 5011 4922 4749 5069 4570 
L 5421 4813 
C 5267 4986 4947 5235 4698 5395 
L 4352 5190 
z
M 3053 5357 
C 3085 4992 3174 4659 3302 4352 
L 2170 4269 
L 2208 3878 
L 3494 3974 
C 3936 3245 4634 2790 5363 2790 
C 5779 2790 5952 2950 6029 3590 
C 5901 3629 5754 3699 5658 3789 
C 5626 3366 5574 3238 5376 3238 
C 4890 3226 4384 3520 4019 4019 
L 6067 4173 
L 6029 4557 
L 3789 4390 
C 3648 4672 3546 4998 3514 5357 
L 3053 5357 
z
M 1926 5376 
C 1542 4742 896 4147 250 3776 
C 352 3699 518 3526 595 3437 
C 832 3597 1075 3782 1312 4000 
L 1312 2835 
L 1779 2835 
L 1779 4461 
C 1997 4704 2195 4960 2355 5229 
L 1926 5376 
z
" transform="scale(0.015625)"/>
       <path id="NotoSansCJKjp-Regular-6b3e" d="M 742 1402 
C 627 915 429 435 154 109 
C 256 64 442 -32 525 -96 
C 787 256 1024 787 1158 1318 
L 742 1402 
z
M 2406 1254 
C 2586 941 2784 518 2867 262 
L 3245 442 
C 3162 691 2957 1101 2771 1402 
L 2406 1254 
z
M 1581 5357 
L 1581 4768 
L 326 4768 
L 326 4358 
L 1581 4358 
L 1581 3808 
L 474 3808 
L 474 3405 
L 3155 3405 
L 3155 3808 
L 2035 3808 
L 2035 4358 
L 3283 4358 
L 3283 4768 
L 2035 4768 
L 2035 5357 
L 1581 5357 
z
M 250 2029 
L 250 1619 
L 1587 1619 
L 1587 -19 
C 1587 -83 1568 -102 1491 -102 
C 1421 -109 1197 -109 941 -102 
C 998 -224 1062 -397 1082 -518 
C 1446 -518 1683 -512 1837 -442 
C 1997 -371 2035 -250 2035 -26 
L 2035 1619 
L 3347 1619 
L 3347 2029 
L 250 2029 
z
M 3834 5382 
C 3706 4384 3475 3405 3078 2771 
L 3078 2925 
L 544 2925 
L 544 2522 
L 3078 2522 
L 3078 2726 
C 3194 2662 3398 2522 3475 2451 
C 3686 2810 3859 3264 4006 3776 
L 4352 3776 
L 4352 2899 
C 4358 2368 4166 730 2816 -134 
C 2906 -224 3046 -416 3098 -518 
C 4147 173 4518 1363 4582 1914 
C 4653 1382 4979 134 5888 -512 
C 5958 -403 6099 -211 6189 -102 
C 5011 723 4813 2387 4819 2899 
L 4819 3776 
L 5574 3776 
C 5517 3354 5440 2899 5363 2598 
L 5741 2483 
C 5875 2906 5997 3584 6080 4147 
L 5766 4237 
L 5690 4218 
L 4115 4218 
C 4198 4570 4262 4934 4314 5312 
L 3834 5382 
z
" transform="scale(0.015625)"/>
       <path id="NotoSansCJKjp-Regular-91d1" d="M 1293 1389 
C 1549 1024 1805 531 1882 211 
L 2298 390 
C 2214 710 1946 1190 1683 1542 
L 1293 1389 
z
M 4646 1555 
C 4480 1197 4186 685 3955 365 
L 4314 211 
C 4557 506 4851 973 5101 1376 
L 4646 1555 
z
M 467 115 
L 467 -307 
L 5939 -307 
L 5939 115 
L 3424 115 
L 3424 1715 
L 5632 1715 
L 5632 2138 
L 3424 2138 
L 3424 2995 
L 4800 2995 
L 4800 3392 
C 5152 3136 5517 2906 5869 2726 
C 5952 2867 6074 3040 6189 3155 
C 5184 3597 4077 4461 3392 5382 
L 2906 5382 
C 2406 4582 1344 3635 237 3078 
C 346 2976 474 2803 538 2694 
C 902 2886 1261 3117 1594 3366 
L 1594 2995 
L 2918 2995 
L 2918 2138 
L 762 2138 
L 762 1715 
L 2918 1715 
L 2918 115 
L 467 115 
z
M 3174 4915 
C 3552 4416 4128 3878 4755 3424 
L 1677 3424 
C 2298 3898 2835 4429 3174 4915 
z
" transform="scale(0.015625)"/>
       <path id="NotoSansCJKjp-Regular-989d" d="M 4435 3155 
C 4410 1171 4326 294 2931 -198 
C 3014 -275 3130 -429 3174 -538 
C 4685 13 4826 1030 4858 3155 
L 4435 3155 
z
M 4723 538 
C 5146 230 5683 -211 5952 -493 
L 6221 -154 
C 5952 109 5395 538 4979 832 
L 4723 538 
z
M 3398 3904 
L 3398 883 
L 3808 883 
L 3808 3514 
L 5440 3514 
L 5440 896 
L 5862 896 
L 5862 3904 
L 4659 3904 
C 4742 4102 4832 4339 4915 4570 
L 6099 4570 
L 6099 4992 
L 3296 4992 
L 3296 4570 
L 4480 4570 
C 4416 4352 4320 4102 4243 3904 
L 3398 3904 
z
M 1370 5254 
C 1453 5107 1549 4928 1626 4762 
L 390 4762 
L 390 3795 
L 813 3795 
L 813 4365 
L 2746 4365 
L 2746 3795 
L 3181 3795 
L 3181 4762 
L 2131 4762 
C 2042 4947 1914 5178 1805 5357 
L 1370 5254 
z
M 806 1491 
L 806 -467 
L 1242 -467 
L 1242 -256 
L 2362 -256 
L 2362 -454 
L 2810 -454 
L 2810 1491 
L 806 1491 
z
M 1242 134 
L 1242 1101 
L 2362 1101 
L 2362 134 
L 1242 134 
z
M 954 2662 
L 1434 2406 
C 1075 2157 666 1952 250 1818 
C 320 1728 410 1510 448 1389 
C 934 1574 1414 1837 1843 2182 
C 2246 1952 2637 1715 2880 1542 
L 3206 1875 
C 2957 2042 2573 2266 2170 2477 
C 2483 2790 2752 3149 2938 3552 
L 2675 3725 
L 2579 3706 
L 1600 3706 
C 1677 3827 1741 3955 1798 4077 
L 1363 4154 
C 1178 3725 806 3213 256 2842 
C 346 2778 480 2637 538 2541 
C 864 2771 1133 3046 1344 3328 
L 2330 3328 
C 2189 3091 1997 2880 1779 2682 
L 1261 2950 
L 954 2662 
z
" transform="scale(0.015625)"/>
      </defs>
      <use xlink:href="#NotoSansCJKjp-Regular-9884"/>
      <use xlink:href="#NotoSansCJKjp-Regular-6d4b" transform="translate(99.999985 0)"/>
      <use xlink:href="#NotoSansCJKjp-Regular-8d37" transform="translate(199.999969 0)"/>
      <use xlink:href="#NotoSansCJKjp-Regular-6b3e" transform="translate(299.999954 0)"/>
      <use xlink:href="#NotoSansCJKjp-Regular-91d1" transform="translate(399.999939 0)"/>
      <use xlink:href="#NotoSansCJKjp-Regular-989d" transform="translate(499.999924 0)"/>
     </g>
    </g>
   </g>
   <g id="line2d_21">
    <path d="M 63.765384 251.262375 
L 94.87173 251.022473 
L 114.014097 250.675809 
L 128.370872 250.234159 
L 142.727648 249.558209 
L 154.691627 248.749624 
L 164.262811 247.896235 
L 173.833994 246.818797 
L 183.405178 245.476341 
L 190.583565 244.269451 
L 197.761953 242.870026 
L 204.940341 241.258881 
L 212.118728 239.416977 
L 219.297116 237.325792 
L 226.475504 234.967696 
L 233.653891 232.326342 
L 240.832279 229.387042 
L 248.010667 226.137118 
L 255.189054 222.566219 
L 262.367442 218.666582 
L 269.545829 214.433236 
L 276.724217 209.864131 
L 283.902605 204.960196 
L 291.080992 199.725309 
L 298.25938 194.166196 
L 305.437768 188.292261 
L 312.616155 182.115336 
L 319.794543 175.649389 
L 326.972931 168.910184 
L 334.151318 161.914912 
L 343.722502 152.221167 
L 353.293685 142.149534 
L 362.864869 131.745401 
L 372.436052 121.053282 
L 384.400032 107.347569 
L 398.756807 90.500677 
L 415.506378 70.436504 
L 434.648745 47.140685 
L 444.219929 35.395012 
L 444.219929 35.395012 
" clip-path="url(#pc10f64dc92)" style="fill: none; stroke: #1f77b4; stroke-width: 2.2; stroke-linecap: square"/>
   </g>
   <g id="line2d_22">
    <path d="M 63.765384 218.927196 
L 80.514955 216.097946 
L 97.264526 213.021855 
L 111.621301 210.172466 
L 125.978076 207.11128 
L 140.334852 203.822552 
L 154.691627 200.28937 
L 169.048402 196.493563 
L 181.012382 193.115734 
L 192.976361 189.529934 
L 204.940341 185.723358 
L 216.90432 181.682413 
L 228.868299 177.392669 
L 240.832279 172.838808 
L 252.796258 168.004569 
L 262.367442 163.923739 
L 271.938625 159.643114 
L 281.509809 155.152911 
L 291.080992 150.442871 
L 300.652176 145.502229 
L 310.22336 140.319695 
L 319.794543 134.883428 
L 329.365727 129.181003 
L 338.93691 123.19939 
L 348.508094 116.92492 
L 358.079277 110.343255 
L 367.650461 103.439355 
L 377.221644 96.197443 
L 386.792828 88.600971 
L 396.364011 80.632579 
L 403.542399 74.401292 
L 410.720787 67.942567 
L 417.899174 61.248102 
L 425.077562 54.309294 
L 432.25595 47.117224 
L 439.434337 39.662647 
L 444.219929 34.542375 
L 444.219929 34.542375 
" clip-path="url(#pc10f64dc92)" style="fill: none; stroke-dasharray: 8.14,3.52; stroke-dashoffset: 0; stroke: #ff7f0e; stroke-width: 2.2"/>
   </g>
   <g id="patch_3">
    <path d="M 44.742656 262.098375 
L 44.742656 23.706375 
" style="fill: none; stroke: #000000; stroke-width: 0.8; stroke-linejoin: miter; stroke-linecap: square"/>
   </g>
   <g id="patch_4">
    <path d="M 44.742656 262.098375 
L 463.242656 262.098375 
" style="fill: none; stroke: #000000; stroke-width: 0.8; stroke-linejoin: miter; stroke-linecap: square"/>
   </g>
   <g id="text_13">
    <!-- 同一个贷款背景，可以对应不同数据生成机制 -->
    <g transform="translate(121.992656 17.706375) scale(0.132 -0.132)">
     <defs>
      <path id="NotoSansCJKjp-Regular-540c" d="M 1587 3917 
L 1587 3501 
L 4838 3501 
L 4838 3917 
L 1587 3917 
z
M 2355 2419 
L 4045 2419 
L 4045 1203 
L 2355 1203 
L 2355 2419 
z
M 1914 2829 
L 1914 326 
L 2355 326 
L 2355 794 
L 4493 794 
L 4493 2829 
L 1914 2829 
z
M 563 5043 
L 563 -525 
L 1030 -525 
L 1030 4589 
L 5376 4589 
L 5376 102 
C 5376 -13 5338 -51 5222 -58 
C 5114 -58 4742 -64 4339 -51 
C 4416 -173 4486 -390 4512 -518 
C 5062 -518 5389 -506 5581 -429 
C 5779 -352 5850 -198 5850 96 
L 5850 5043 
L 563 5043 
z
" transform="scale(0.015625)"/>
      <path id="NotoSansCJKjp-Regular-4e00" d="M 282 2758 
L 282 2234 
L 6144 2234 
L 6144 2758 
L 282 2758 
z
" transform="scale(0.015625)"/>
      <path id="NotoSansCJKjp-Regular-4e2a" d="M 3174 4858 
C 3770 4026 4941 3014 5990 2406 
C 6080 2554 6189 2720 6317 2842 
C 5261 3373 4090 4365 3398 5357 
L 2893 5357 
C 2387 4493 1274 3411 115 2758 
C 224 2656 358 2483 422 2368 
C 1562 3040 2650 4051 3174 4858 
z
M 2925 3264 
L 2925 -512 
L 3430 -512 
L 3430 3264 
L 2925 3264 
z
" transform="scale(0.015625)"/>
      <path id="NotoSansCJKjp-Regular-80cc" d="M 4704 2419 
L 4704 1875 
L 1747 1875 
L 1747 2419 
L 4704 2419 
z
M 1267 2790 
L 1267 -512 
L 1747 -512 
L 1747 595 
L 4704 595 
L 4704 26 
C 4704 -64 4666 -96 4563 -102 
C 4461 -102 4083 -102 3712 -90 
C 3776 -211 3846 -390 3872 -518 
C 4384 -518 4717 -512 4922 -442 
C 5120 -371 5190 -243 5190 19 
L 5190 2790 
L 1267 2790 
z
M 1747 1523 
L 4704 1523 
L 4704 947 
L 1747 947 
L 1747 1523 
z
M 2112 5382 
L 2112 4819 
L 506 4819 
L 506 4429 
L 2112 4429 
L 2112 3853 
C 1440 3738 800 3635 346 3571 
L 422 3155 
L 2112 3475 
L 2112 3002 
L 2586 3002 
L 2586 5382 
L 2112 5382 
z
M 3520 5376 
L 3520 3686 
C 3520 3194 3674 3059 4288 3059 
C 4410 3059 5242 3059 5376 3059 
C 5850 3059 5990 3226 6048 3853 
C 5914 3878 5722 3949 5619 4019 
C 5594 3552 5549 3475 5331 3475 
C 5152 3475 4467 3475 4339 3475 
C 4051 3475 4000 3507 4000 3686 
L 4000 4186 
C 4614 4326 5299 4531 5792 4742 
L 5453 5088 
C 5107 4915 4538 4723 4000 4570 
L 4000 5376 
L 3520 5376 
z
" transform="scale(0.015625)"/>
      <path id="NotoSansCJKjp-Regular-666f" d="M 1574 4096 
L 4813 4096 
L 4813 3686 
L 1574 3686 
L 1574 4096 
z
M 1574 4819 
L 4813 4819 
L 4813 4416 
L 1574 4416 
L 1574 4819 
z
M 1715 1869 
L 4691 1869 
L 4691 1235 
L 1715 1235 
L 1715 1869 
z
M 4019 474 
C 4602 243 5331 -128 5690 -390 
L 6022 -83 
C 5638 179 4902 538 4333 742 
L 4019 474 
z
M 1862 736 
C 1478 429 845 134 282 -58 
C 390 -134 557 -314 640 -403 
C 1184 -179 1869 192 2298 563 
L 1862 736 
z
M 358 2950 
L 358 2560 
L 6022 2560 
L 6022 2950 
L 3430 2950 
L 3430 3354 
L 5293 3354 
L 5293 5146 
L 1107 5146 
L 1107 3354 
L 2944 3354 
L 2944 2950 
L 358 2950 
z
M 1254 2227 
L 1254 877 
L 2957 877 
L 2957 -38 
C 2957 -109 2938 -128 2848 -134 
C 2758 -141 2445 -141 2112 -128 
C 2176 -237 2240 -390 2259 -512 
C 2714 -512 3008 -512 3194 -448 
C 3386 -390 3443 -288 3443 -51 
L 3443 877 
L 5171 877 
L 5171 2227 
L 1254 2227 
z
" transform="scale(0.015625)"/>
      <path id="NotoSansCJKjp-Regular-ff0c" d="M 1005 -685 
C 1677 -448 2112 77 2112 768 
C 2112 1216 1920 1504 1568 1504 
C 1306 1504 1082 1344 1082 1043 
C 1082 742 1299 589 1562 589 
L 1670 602 
C 1638 160 1357 -141 864 -346 
L 1005 -685 
z
" transform="scale(0.015625)"/>
      <path id="NotoSansCJKjp-Regular-53ef" d="M 358 4922 
L 358 4442 
L 4781 4442 
L 4781 186 
C 4781 51 4736 13 4595 0 
C 4442 0 3917 -6 3405 19 
C 3482 -122 3571 -358 3603 -499 
C 4237 -499 4685 -499 4941 -416 
C 5190 -333 5280 -166 5280 179 
L 5280 4442 
L 6067 4442 
L 6067 4922 
L 358 4922 
z
M 1478 3040 
L 3162 3040 
L 3162 1568 
L 1478 1568 
L 1478 3040 
z
M 1011 3501 
L 1011 595 
L 1478 595 
L 1478 1107 
L 3635 1107 
L 3635 3501 
L 1011 3501 
z
" transform="scale(0.015625)"/>
      <path id="NotoSansCJKjp-Regular-4ee5" d="M 2336 4371 
C 2739 3898 3155 3238 3322 2797 
L 3782 3040 
C 3603 3482 3187 4109 2765 4576 
L 2336 4371 
z
M 1005 5030 
L 1114 1043 
C 781 902 480 781 230 685 
L 403 186 
C 1107 493 2086 922 2976 1325 
L 2867 1792 
L 1600 1248 
L 1498 5050 
L 1005 5030 
z
M 4954 5050 
C 4672 2259 3994 698 1779 -115 
C 1894 -218 2093 -422 2163 -531 
C 3168 -109 3872 448 4371 1210 
C 4915 634 5510 -45 5805 -493 
L 6214 -115 
C 5882 358 5203 1075 4634 1658 
C 5075 2522 5325 3616 5478 4998 
L 4954 5050 
z
" transform="scale(0.015625)"/>
      <path id="NotoSansCJKjp-Regular-5bf9" d="M 3213 2522 
C 3514 2067 3802 1459 3904 1075 
L 4326 1286 
C 4224 1670 3917 2259 3603 2701 
L 3213 2522 
z
M 582 2899 
C 973 2547 1389 2131 1760 1709 
C 1376 890 870 269 288 -109 
C 403 -205 550 -384 627 -499 
C 1216 -77 1715 512 2106 1299 
C 2394 941 2630 602 2784 314 
L 3168 666 
C 2982 998 2682 1395 2330 1798 
C 2624 2534 2835 3411 2944 4448 
L 2630 4538 
L 2547 4518 
L 448 4518 
L 448 4064 
L 2419 4064 
C 2323 3373 2170 2752 1965 2202 
C 1626 2554 1267 2899 922 3200 
L 582 2899 
z
M 4896 5376 
L 4896 3834 
L 3085 3834 
L 3085 3373 
L 4896 3373 
L 4896 141 
C 4896 26 4851 -6 4742 -13 
C 4634 -13 4275 -19 3872 0 
C 3936 -147 4006 -371 4032 -506 
C 4576 -506 4902 -493 5094 -410 
C 5293 -326 5370 -179 5370 141 
L 5370 3373 
L 6138 3373 
L 6138 3834 
L 5370 3834 
L 5370 5376 
L 4896 5376 
z
" transform="scale(0.015625)"/>
      <path id="NotoSansCJKjp-Regular-5e94" d="M 1690 3136 
C 1952 2445 2259 1530 2381 934 
L 2835 1120 
C 2694 1715 2387 2605 2106 3309 
L 1690 3136 
z
M 3078 3494 
C 3283 2797 3520 1888 3610 1293 
L 4070 1434 
C 3974 2029 3738 2918 3514 3616 
L 3078 3494 
z
M 2995 5299 
C 3117 5075 3245 4781 3334 4550 
L 774 4550 
L 774 2803 
C 774 1894 730 621 230 -288 
C 346 -333 563 -474 653 -557 
C 1178 397 1261 1830 1261 2803 
L 1261 4096 
L 6029 4096 
L 6029 4550 
L 3878 4550 
C 3795 4781 3616 5146 3462 5427 
L 2995 5299 
z
M 1338 250 
L 1338 -211 
L 6112 -211 
L 6112 250 
L 4378 250 
C 4966 1242 5440 2406 5747 3469 
L 5242 3654 
C 4998 2547 4506 1242 3885 250 
L 1338 250 
z
" transform="scale(0.015625)"/>
      <path id="NotoSansCJKjp-Regular-4e0d" d="M 3578 3059 
C 4339 2547 5299 1792 5754 1299 
L 6144 1670 
C 5664 2163 4691 2880 3936 3366 
L 3578 3059 
z
M 442 4928 
L 442 4435 
L 3290 4435 
C 2656 3341 1555 2259 282 1632 
C 384 1523 531 1331 608 1210 
C 1498 1677 2291 2336 2938 3078 
L 2938 -499 
L 3456 -499 
L 3456 3738 
C 3622 3962 3770 4198 3904 4435 
L 5958 4435 
L 5958 4928 
L 442 4928 
z
" transform="scale(0.015625)"/>
      <path id="NotoSansCJKjp-Regular-6570" d="M 2803 5254 
C 2688 4998 2483 4627 2317 4403 
L 2643 4243 
C 2816 4454 3027 4781 3219 5075 
L 2803 5254 
z
M 531 5075 
C 704 4806 870 4454 928 4230 
L 1312 4397 
C 1248 4627 1075 4973 890 5222 
L 531 5075 
z
M 4026 5382 
C 3846 4243 3507 3162 2970 2490 
C 3078 2413 3283 2246 3360 2163 
C 3533 2394 3693 2669 3827 2970 
C 3974 2310 4160 1709 4410 1184 
C 4090 698 3667 314 3110 19 
C 2912 166 2656 326 2374 480 
C 2598 774 2746 1126 2829 1562 
L 3398 1562 
L 3398 1958 
L 1677 1958 
L 1894 2413 
L 1779 2438 
L 2061 2438 
L 2061 3398 
C 2374 3168 2771 2854 2938 2701 
L 3206 3046 
C 3034 3174 2336 3616 2061 3776 
L 2061 3802 
L 3373 3802 
L 3373 4198 
L 2061 4198 
L 2061 5382 
L 1613 5382 
L 1613 4198 
L 288 4198 
L 288 3802 
L 1485 3802 
C 1171 3379 678 2982 218 2784 
C 314 2694 422 2528 480 2419 
C 870 2637 1293 2989 1613 3373 
L 1613 2477 
L 1440 2515 
L 1178 1958 
L 250 1958 
L 250 1562 
L 979 1562 
C 806 1222 627 896 486 653 
L 909 506 
L 1005 678 
C 1222 589 1434 493 1638 384 
C 1306 147 858 -13 269 -109 
C 352 -211 448 -384 480 -512 
C 1171 -365 1683 -154 2061 160 
C 2355 -13 2611 -186 2810 -352 
L 2963 -192 
C 3046 -301 3136 -448 3174 -531 
C 3802 -205 4288 205 4666 710 
C 4979 192 5370 -224 5862 -512 
C 5939 -378 6093 -192 6208 -96 
C 5690 173 5280 614 4960 1165 
C 5350 1856 5594 2707 5754 3750 
L 6144 3750 
L 6144 4198 
L 4262 4198 
C 4358 4557 4442 4928 4506 5312 
L 4026 5382 
z
M 1478 1562 
L 2368 1562 
C 2285 1216 2157 928 1965 698 
C 1715 819 1459 934 1197 1030 
L 1478 1562 
z
M 4134 3750 
L 5254 3750 
C 5139 2950 4966 2266 4698 1696 
C 4435 2298 4250 3002 4134 3750 
z
" transform="scale(0.015625)"/>
      <path id="NotoSansCJKjp-Regular-636e" d="M 3098 1523 
L 3098 -518 
L 3520 -518 
L 3520 -256 
L 5491 -256 
L 5491 -493 
L 5933 -493 
L 5933 1523 
L 4698 1523 
L 4698 2317 
L 6131 2317 
L 6131 2733 
L 4698 2733 
L 4698 3437 
L 5907 3437 
L 5907 5094 
L 2528 5094 
L 2528 3162 
C 2528 2144 2470 749 1805 -237 
C 1914 -288 2112 -429 2202 -506 
C 2733 275 2912 1363 2970 2317 
L 4243 2317 
L 4243 1523 
L 3098 1523 
z
M 2995 4678 
L 5446 4678 
L 5446 3859 
L 2995 3859 
L 2995 4678 
z
M 2995 3437 
L 4243 3437 
L 4243 2733 
L 2989 2733 
L 2995 3162 
L 2995 3437 
z
M 3520 141 
L 3520 1114 
L 5491 1114 
L 5491 141 
L 3520 141 
z
M 1069 5370 
L 1069 4083 
L 269 4083 
L 269 3635 
L 1069 3635 
L 1069 2234 
C 736 2131 429 2042 186 1978 
L 314 1504 
L 1069 1747 
L 1069 90 
C 1069 0 1037 -26 960 -26 
C 883 -32 634 -32 358 -26 
C 416 -154 480 -352 493 -467 
C 896 -474 1146 -454 1299 -378 
C 1459 -307 1517 -173 1517 90 
L 1517 1894 
L 2253 2138 
L 2182 2579 
L 1517 2368 
L 1517 3635 
L 2240 3635 
L 2240 4083 
L 1517 4083 
L 1517 5370 
L 1069 5370 
z
" transform="scale(0.015625)"/>
      <path id="NotoSansCJKjp-Regular-751f" d="M 1530 5274 
C 1286 4358 870 3469 346 2899 
C 467 2835 678 2694 774 2611 
C 1018 2899 1242 3264 1446 3667 
L 2963 3667 
L 2963 2253 
L 1056 2253 
L 1056 1792 
L 2963 1792 
L 2963 160 
L 352 160 
L 352 -307 
L 6074 -307 
L 6074 160 
L 3462 160 
L 3462 1792 
L 5536 1792 
L 5536 2253 
L 3462 2253 
L 3462 3667 
L 5766 3667 
L 5766 4134 
L 3462 4134 
L 3462 5376 
L 2963 5376 
L 2963 4134 
L 1658 4134 
C 1798 4461 1920 4813 2016 5165 
L 1530 5274 
z
" transform="scale(0.015625)"/>
      <path id="NotoSansCJKjp-Regular-6210" d="M 3482 5370 
C 3482 5005 3494 4640 3514 4288 
L 819 4288 
L 819 2490 
C 819 1658 762 550 230 -237 
C 346 -294 550 -461 634 -557 
C 1222 288 1318 1581 1318 2483 
L 1318 2528 
L 2490 2528 
C 2464 1427 2432 1018 2349 922 
C 2298 864 2240 851 2144 851 
C 2035 851 1760 851 1466 883 
C 1542 762 1594 570 1600 435 
C 1914 416 2208 416 2374 429 
C 2547 448 2656 493 2758 614 
C 2893 787 2925 1331 2957 2771 
C 2957 2835 2963 2976 2963 2976 
L 1318 2976 
L 1318 3821 
L 3546 3821 
C 3622 2784 3776 1837 4019 1101 
C 3597 614 3104 218 2534 -83 
C 2637 -179 2810 -378 2886 -480 
C 3379 -186 3821 166 4211 589 
C 4506 -70 4890 -467 5382 -467 
C 5875 -467 6054 -147 6138 947 
C 6010 992 5830 1101 5722 1210 
C 5683 358 5606 26 5421 26 
C 5094 26 4806 390 4570 1018 
C 5043 1632 5421 2362 5696 3200 
L 5216 3322 
C 5011 2675 4736 2093 4390 1581 
C 4224 2202 4102 2963 4032 3821 
L 6086 3821 
L 6086 4288 
L 4006 4288 
C 3987 4640 3981 4998 3981 5370 
L 3482 5370 
z
M 4294 5056 
C 4704 4845 5197 4518 5440 4288 
L 5741 4621 
C 5491 4838 4986 5152 4582 5350 
L 4294 5056 
z
" transform="scale(0.015625)"/>
      <path id="NotoSansCJKjp-Regular-5236" d="M 4326 4787 
L 4326 1242 
L 4781 1242 
L 4781 4787 
L 4326 4787 
z
M 5466 5312 
L 5466 147 
C 5466 45 5434 13 5338 13 
C 5216 6 4858 6 4480 19 
C 4544 -128 4614 -352 4640 -486 
C 5120 -486 5472 -474 5664 -397 
C 5862 -307 5939 -166 5939 154 
L 5939 5312 
L 5466 5312 
z
M 909 5222 
C 774 4602 557 3962 262 3533 
C 384 3488 595 3405 691 3354 
C 800 3539 909 3763 1011 4013 
L 1850 4013 
L 1850 3341 
L 288 3341 
L 288 2899 
L 1850 2899 
L 1850 2246 
L 582 2246 
L 582 13 
L 1018 13 
L 1018 1811 
L 1850 1811 
L 1850 -506 
L 2310 -506 
L 2310 1811 
L 3200 1811 
L 3200 499 
C 3200 429 3181 410 3110 410 
C 3040 403 2829 403 2560 416 
C 2618 294 2675 122 2694 -6 
C 3046 -6 3296 0 3443 70 
C 3603 147 3642 269 3642 486 
L 3642 2246 
L 2310 2246 
L 2310 2899 
L 3866 2899 
L 3866 3341 
L 2310 3341 
L 2310 4013 
L 3616 4013 
L 3616 4454 
L 2310 4454 
L 2310 5350 
L 1850 5350 
L 1850 4454 
L 1171 4454 
C 1242 4672 1306 4902 1357 5133 
L 909 5222 
z
" transform="scale(0.015625)"/>
     </defs>
     <use xlink:href="#NotoSansCJKjp-Regular-540c"/>
     <use xlink:href="#NotoSansCJKjp-Regular-4e00" transform="translate(99.999985 0)"/>
     <use xlink:href="#NotoSansCJKjp-Regular-4e2a" transform="translate(199.999969 0)"/>
     <use xlink:href="#NotoSansCJKjp-Regular-8d37" transform="translate(299.999954 0)"/>
     <use xlink:href="#NotoSansCJKjp-Regular-6b3e" transform="translate(399.999939 0)"/>
     <use xlink:href="#NotoSansCJKjp-Regular-80cc" transform="translate(499.999924 0)"/>
     <use xlink:href="#NotoSansCJKjp-Regular-666f" transform="translate(599.999908 0)"/>
     <use xlink:href="#NotoSansCJKjp-Regular-ff0c" transform="translate(699.999893 0)"/>
     <use xlink:href="#NotoSansCJKjp-Regular-53ef" transform="translate(799.999878 0)"/>
     <use xlink:href="#NotoSansCJKjp-Regular-4ee5" transform="translate(899.999863 0)"/>
     <use xlink:href="#NotoSansCJKjp-Regular-5bf9" transform="translate(999.999847 0)"/>
     <use xlink:href="#NotoSansCJKjp-Regular-5e94" transform="translate(1099.999832 0)"/>
     <use xlink:href="#NotoSansCJKjp-Regular-4e0d" transform="translate(1199.999817 0)"/>
     <use xlink:href="#NotoSansCJKjp-Regular-540c" transform="translate(1299.999802 0)"/>
     <use xlink:href="#NotoSansCJKjp-Regular-6570" transform="translate(1399.999786 0)"/>
     <use xlink:href="#NotoSansCJKjp-Regular-636e" transform="translate(1499.999771 0)"/>
     <use xlink:href="#NotoSansCJKjp-Regular-751f" transform="translate(1599.999756 0)"/>
     <use xlink:href="#NotoSansCJKjp-Regular-6210" transform="translate(1699.999741 0)"/>
     <use xlink:href="#NotoSansCJKjp-Regular-673a" transform="translate(1799.999725 0)"/>
     <use xlink:href="#NotoSansCJKjp-Regular-5236" transform="translate(1899.99971 0)"/>
    </g>
   </g>
   <g id="legend_1">
    <g id="line2d_23">
     <path d="M 54.642656 38.511687 
L 65.642656 38.511687 
L 76.642656 38.511687 
" style="fill: none; stroke: #1f77b4; stroke-width: 2.2; stroke-linecap: square"/>
    </g>
    <g id="text_14">
     <!-- Tobit：同一潜在机制 -->
     <g transform="translate(85.442656 42.361687) scale(0.11 -0.11)">
      <defs>
       <path id="NotoSansCJKjp-Regular-54" d="M 1619 0 
L 2214 0 
L 2214 4192 
L 3635 4192 
L 3635 4691 
L 198 4691 
L 198 4192 
L 1619 4192 
L 1619 0 
z
" transform="scale(0.015625)"/>
       <path id="NotoSansCJKjp-Regular-62" d="M 2118 -83 
C 2912 -83 3629 602 3629 1792 
C 3629 2867 3142 3565 2246 3565 
C 1856 3565 1472 3347 1152 3078 
L 1178 3699 
L 1178 5094 
L 589 5094 
L 589 0 
L 1056 0 
L 1107 358 
L 1133 358 
C 1434 83 1798 -83 2118 -83 
z
M 2022 410 
C 1792 410 1478 499 1178 768 
L 1178 2598 
C 1504 2906 1811 3072 2099 3072 
C 2765 3072 3021 2560 3021 1786 
C 3021 928 2598 410 2022 410 
z
" transform="scale(0.015625)"/>
       <path id="NotoSansCJKjp-Regular-ff1a" d="M 3200 3482 
C 3456 3482 3686 3667 3686 3962 
C 3686 4256 3456 4442 3200 4442 
C 2944 4442 2714 4256 2714 3962 
C 2714 3667 2944 3482 3200 3482 
z
M 3200 346 
C 3456 346 3686 538 3686 826 
C 3686 1120 3456 1312 3200 1312 
C 2944 1312 2714 1120 2714 826 
C 2714 538 2944 346 3200 346 
z
" transform="scale(0.015625)"/>
       <path id="NotoSansCJKjp-Regular-6f5c" d="M 563 4973 
C 960 4794 1446 4486 1690 4256 
L 1965 4653 
C 1722 4870 1229 5158 832 5325 
L 563 4973 
z
M 243 3238 
C 646 3072 1133 2784 1376 2573 
L 1658 2976 
C 1408 3181 909 3450 506 3603 
L 243 3238 
z
M 422 -134 
L 845 -429 
C 1184 166 1587 979 1888 1664 
L 1517 1952 
C 1184 1216 736 365 422 -134 
z
M 2822 736 
L 5146 736 
L 5146 179 
L 2822 179 
L 2822 736 
z
M 2822 1101 
L 2822 1638 
L 5146 1638 
L 5146 1101 
L 2822 1101 
z
M 2368 2029 
L 2368 -499 
L 2822 -499 
L 2822 -211 
L 5146 -211 
L 5146 -493 
L 5619 -493 
L 5619 2029 
L 2368 2029 
z
M 1894 3910 
L 1894 3520 
L 2682 3520 
C 2586 3078 2355 2618 1792 2291 
C 1888 2221 2022 2074 2086 1978 
C 2534 2266 2810 2630 2970 3008 
C 3168 2810 3411 2566 3514 2426 
L 3827 2758 
C 3718 2861 3296 3219 3091 3373 
L 3123 3520 
L 3840 3520 
L 3840 3910 
L 3174 3910 
L 3187 4224 
L 3187 4390 
L 3814 4390 
L 3814 4781 
L 3187 4781 
L 3187 5370 
L 2746 5370 
L 2746 4781 
L 2010 4781 
L 2010 4390 
L 2746 4390 
L 2746 4224 
L 2733 3910 
L 1894 3910 
z
M 4019 4781 
L 4019 4390 
L 4742 4390 
L 4742 4243 
C 4742 4141 4742 4026 4730 3910 
L 4019 3910 
L 4019 3520 
L 4659 3520 
C 4557 3123 4314 2726 3776 2445 
C 3872 2362 4006 2214 4070 2118 
C 4557 2406 4838 2784 4998 3168 
C 5203 2720 5510 2330 5894 2112 
C 5958 2221 6099 2381 6202 2464 
C 5773 2656 5453 3059 5261 3520 
L 6074 3520 
L 6074 3910 
L 5171 3910 
C 5178 4026 5184 4134 5184 4243 
L 5184 4390 
L 5990 4390 
L 5990 4781 
L 5184 4781 
L 5184 5363 
L 4742 5363 
L 4742 4781 
L 4019 4781 
z
" transform="scale(0.015625)"/>
       <path id="NotoSansCJKjp-Regular-5728" d="M 2502 5376 
C 2413 5050 2298 4710 2163 4384 
L 403 4384 
L 403 3923 
L 1952 3923 
C 1542 3104 979 2342 243 1830 
C 320 1722 442 1517 493 1389 
C 762 1581 1011 1798 1235 2035 
L 1235 -486 
L 1715 -486 
L 1715 2605 
C 2016 3014 2278 3462 2496 3923 
L 6010 3923 
L 6010 4384 
L 2694 4384 
C 2810 4672 2912 4966 3002 5254 
L 2502 5376 
z
M 3827 3590 
L 3827 2355 
L 2387 2355 
L 2387 1907 
L 3827 1907 
L 3827 90 
L 2131 90 
L 2131 -358 
L 6003 -358 
L 6003 90 
L 4307 90 
L 4307 1907 
L 5760 1907 
L 5760 2355 
L 4307 2355 
L 4307 3590 
L 3827 3590 
z
" transform="scale(0.015625)"/>
      </defs>
      <use xlink:href="#NotoSansCJKjp-Regular-54"/>
      <use xlink:href="#NotoSansCJKjp-Regular-6f" transform="translate(59.899994 0)"/>
      <use xlink:href="#NotoSansCJKjp-Regular-62" transform="translate(120.499985 0)"/>
      <use xlink:href="#NotoSansCJKjp-Regular-69" transform="translate(182.299973 0)"/>
      <use xlink:href="#NotoSansCJKjp-Regular-74" transform="translate(209.799957 0)"/>
      <use xlink:href="#NotoSansCJKjp-Regular-ff1a" transform="translate(247.499954 0)"/>
      <use xlink:href="#NotoSansCJKjp-Regular-540c" transform="translate(347.499939 0)"/>
      <use xlink:href="#NotoSansCJKjp-Regular-4e00" transform="translate(447.499924 0)"/>
      <use xlink:href="#NotoSansCJKjp-Regular-6f5c" transform="translate(547.499908 0)"/>
      <use xlink:href="#NotoSansCJKjp-Regular-5728" transform="translate(647.499893 0)"/>
      <use xlink:href="#NotoSansCJKjp-Regular-673a" transform="translate(747.499878 0)"/>
      <use xlink:href="#NotoSansCJKjp-Regular-5236" transform="translate(847.499863 0)"/>
     </g>
    </g>
    <g id="line2d_24">
     <path d="M 54.642656 55.793719 
L 65.642656 55.793719 
L 76.642656 55.793719 
" style="fill: none; stroke-dasharray: 8.14,3.52; stroke-dashoffset: 0; stroke: #ff7f0e; stroke-width: 2.2"/>
    </g>
    <g id="text_15">
     <!-- Two-part：概率与强度可分开 -->
     <g transform="translate(85.442656 59.643719) scale(0.11 -0.11)">
      <defs>
       <path id="NotoSansCJKjp-Regular-77" d="M 1139 0 
L 1818 0 
L 2310 1862 
C 2400 2195 2470 2522 2547 2874 
L 2579 2874 
C 2662 2522 2726 2202 2816 1875 
L 3315 0 
L 4026 0 
L 4966 3475 
L 4403 3475 
L 3898 1466 
C 3821 1133 3757 819 3686 499 
L 3654 499 
C 3571 819 3494 1133 3411 1466 
L 2867 3475 
L 2298 3475 
L 1754 1466 
C 1670 1133 1594 819 1523 499 
L 1491 499 
C 1421 819 1357 1133 1286 1466 
L 768 3475 
L 173 3475 
L 1139 0 
z
" transform="scale(0.015625)"/>
       <path id="NotoSansCJKjp-Regular-61" d="M 1389 -83 
C 1818 -83 2208 141 2541 416 
L 2560 416 
L 2611 0 
L 3091 0 
L 3091 2138 
C 3091 3002 2739 3565 1888 3565 
C 1325 3565 838 3315 525 3110 
L 749 2707 
C 1024 2893 1389 3078 1792 3078 
C 2362 3078 2509 2650 2509 2202 
C 1030 2035 378 1658 378 902 
C 378 275 806 -83 1389 -83 
z
M 1555 390 
C 1210 390 941 544 941 941 
C 941 1389 1338 1677 2509 1811 
L 2509 845 
C 2170 544 1888 390 1555 390 
z
" transform="scale(0.015625)"/>
       <path id="NotoSansCJKjp-Regular-6982" d="M 2304 5018 
L 2304 678 
L 1862 544 
L 2061 109 
C 2515 275 3078 486 3629 698 
C 3680 557 3718 422 3744 307 
L 3981 410 
C 3776 192 3539 -13 3258 -211 
C 3360 -282 3507 -429 3578 -512 
C 4243 -32 4691 518 4992 1082 
L 4992 96 
C 4992 -192 5018 -288 5101 -371 
C 5184 -448 5312 -467 5434 -467 
C 5498 -467 5638 -467 5715 -467 
C 5818 -467 5926 -448 5997 -403 
C 6080 -352 6138 -269 6170 -141 
C 6195 -19 6221 333 6221 653 
C 6112 691 5971 762 5894 832 
C 5894 518 5888 243 5875 128 
C 5862 51 5837 -6 5811 -26 
C 5786 -51 5734 -58 5683 -58 
C 5632 -58 5574 -58 5530 -58 
C 5485 -58 5446 -51 5421 -26 
C 5395 -6 5389 32 5389 77 
L 5389 2093 
L 5434 2266 
L 6144 2266 
L 6144 2688 
L 5510 2688 
C 5587 3149 5600 3590 5600 3981 
L 5600 4602 
L 6074 4602 
L 6074 5024 
L 4019 5024 
L 4019 4602 
L 4275 4602 
L 4275 2688 
L 3962 2688 
L 3962 2266 
L 5005 2266 
C 4858 1696 4589 1107 4115 557 
C 4013 934 3776 1498 3546 1939 
L 3174 1805 
C 3290 1581 3398 1318 3501 1062 
L 2707 806 
L 2707 2310 
L 3859 2310 
L 3859 5018 
L 2304 5018 
z
M 4659 4602 
L 5190 4602 
L 5190 3981 
C 5190 3597 5178 3155 5094 2688 
L 4659 2688 
L 4659 4602 
z
M 3462 3494 
L 3462 2714 
L 2707 2714 
L 2707 3494 
L 3462 3494 
z
M 3462 3878 
L 2707 3878 
L 2707 4614 
L 3462 4614 
L 3462 3878 
z
M 1120 5376 
L 1120 4019 
L 314 4019 
L 314 3571 
L 1069 3571 
C 909 2688 550 1658 179 1101 
C 256 998 371 819 429 691 
C 691 1094 928 1722 1120 2381 
L 1120 -506 
L 1568 -506 
L 1568 2515 
C 1741 2278 1939 2003 2029 1850 
L 2291 2259 
C 2189 2381 1722 2893 1568 3034 
L 1568 3571 
L 2150 3571 
L 2150 4019 
L 1568 4019 
L 1568 5376 
L 1120 5376 
z
" transform="scale(0.015625)"/>
       <path id="NotoSansCJKjp-Regular-7387" d="M 5376 4038 
C 5139 3782 4704 3437 4384 3226 
L 4736 3014 
C 5056 3226 5472 3520 5798 3821 
L 5376 4038 
z
M 320 1997 
L 557 1613 
C 986 1798 1517 2048 2022 2291 
L 1933 2656 
C 1338 2406 730 2150 320 1997 
z
M 544 3680 
C 902 3482 1344 3174 1555 2957 
L 1888 3258 
C 1670 3469 1222 3757 864 3949 
L 544 3680 
z
M 4262 2458 
C 4768 2202 5408 1811 5715 1542 
L 6067 1850 
C 5734 2112 5094 2490 4595 2733 
L 4262 2458 
z
M 3526 2707 
C 3654 2566 3782 2400 3904 2227 
L 2810 2176 
C 3264 2618 3763 3168 4147 3642 
L 3770 3827 
C 3590 3571 3347 3270 3091 2976 
C 2957 3098 2784 3226 2598 3347 
C 2810 3578 3046 3878 3251 4154 
L 3110 4211 
L 5882 4211 
L 5882 4659 
L 3424 4659 
L 3424 5376 
L 2938 5376 
L 2938 4659 
L 538 4659 
L 538 4211 
L 2771 4211 
C 2643 4000 2470 3750 2310 3546 
L 2131 3654 
L 1894 3373 
C 2202 3174 2579 2906 2822 2682 
C 2650 2490 2470 2310 2304 2150 
L 1811 2131 
L 1882 1715 
L 4128 1882 
C 4211 1747 4275 1626 4320 1517 
L 4691 1709 
C 4550 2035 4192 2515 3872 2874 
L 3526 2707 
z
M 346 1222 
L 346 774 
L 2938 774 
L 2938 -531 
L 3424 -531 
L 3424 774 
L 6061 774 
L 6061 1222 
L 3424 1222 
L 3424 1722 
L 2938 1722 
L 2938 1222 
L 346 1222 
z
" transform="scale(0.015625)"/>
       <path id="NotoSansCJKjp-Regular-4e0e" d="M 1939 5389 
C 1773 4429 1485 3098 1267 2317 
L 1760 2272 
L 1843 2605 
L 4525 2605 
C 4486 2246 4454 1939 4416 1664 
L 346 1664 
L 346 1210 
L 4346 1210 
C 4230 518 4102 160 3949 26 
C 3866 -45 3776 -51 3616 -51 
C 3437 -51 2957 -51 2470 0 
C 2560 -134 2624 -339 2637 -480 
C 3098 -512 3558 -518 3789 -506 
C 4045 -486 4198 -442 4365 -282 
C 4570 -83 4710 346 4845 1210 
L 6074 1210 
L 6074 1664 
L 4902 1664 
C 4947 1997 4986 2374 5030 2816 
C 5037 2886 5050 3053 5050 3053 
L 1952 3053 
L 2163 4000 
L 5402 4000 
L 5402 4461 
L 2259 4461 
L 2432 5338 
L 1939 5389 
z
" transform="scale(0.015625)"/>
       <path id="NotoSansCJKjp-Regular-5f3a" d="M 3309 4621 
L 5184 4621 
L 5184 3757 
L 3309 3757 
L 3309 4621 
z
M 2867 5024 
L 2867 3347 
L 4006 3347 
L 4006 2861 
L 2733 2861 
L 2733 1178 
L 4006 1178 
L 4006 205 
L 2445 115 
L 2515 -352 
C 3328 -294 4480 -211 5587 -122 
C 5664 -275 5728 -422 5773 -550 
L 6195 -352 
C 6061 32 5702 602 5370 1037 
L 4973 858 
C 5101 685 5235 493 5350 294 
L 4461 237 
L 4461 1178 
L 5805 1178 
L 5805 2861 
L 4461 2861 
L 4461 3347 
L 5638 3347 
L 5638 5024 
L 2867 5024 
z
M 3155 2458 
L 4006 2458 
L 4006 1581 
L 3155 1581 
L 3155 2458 
z
M 4461 2458 
L 5363 2458 
L 5363 1581 
L 4461 1581 
L 4461 2458 
z
M 531 3571 
C 480 2950 378 2118 288 1613 
L 730 1555 
L 768 1811 
L 1907 1811 
C 1830 595 1741 115 1619 -13 
C 1562 -77 1498 -83 1395 -83 
C 1286 -83 1011 -83 717 -58 
C 787 -179 838 -365 851 -499 
C 1139 -512 1440 -518 1594 -506 
C 1779 -486 1901 -442 2010 -314 
C 2202 -102 2291 474 2387 2035 
C 2394 2106 2400 2246 2400 2246 
L 826 2246 
L 928 3130 
L 2330 3130 
L 2330 5043 
L 371 5043 
L 371 4602 
L 1882 4602 
L 1882 3571 
L 531 3571 
z
" transform="scale(0.015625)"/>
       <path id="NotoSansCJKjp-Regular-5ea6" d="M 2470 4141 
L 2470 3584 
L 1440 3584 
L 1440 3187 
L 2470 3187 
L 2470 2125 
L 4960 2125 
L 4960 3187 
L 5997 3187 
L 5997 3584 
L 4960 3584 
L 4960 4141 
L 4486 4141 
L 4486 3584 
L 2931 3584 
L 2931 4141 
L 2470 4141 
z
M 4486 3187 
L 4486 2509 
L 2931 2509 
L 2931 3187 
L 4486 3187 
z
M 4851 1318 
C 4582 986 4211 717 3770 506 
C 3334 723 2970 992 2720 1318 
L 4851 1318 
z
M 1530 1715 
L 1530 1318 
L 2502 1318 
L 2259 1222 
C 2515 858 2861 550 3270 301 
C 2662 90 1978 -38 1280 -109 
C 1357 -211 1453 -397 1485 -512 
C 2291 -416 3072 -243 3757 45 
C 4365 -237 5088 -422 5869 -525 
C 5933 -403 6048 -211 6150 -109 
C 5466 -38 4819 96 4269 294 
C 4813 608 5261 1024 5549 1574 
L 5248 1734 
L 5165 1715 
L 1530 1715 
z
M 774 4742 
L 774 2893 
C 774 1965 730 659 198 -256 
C 314 -307 512 -435 595 -518 
C 1152 448 1235 1901 1235 2893 
L 1235 4307 
L 6035 4307 
L 6035 4742 
L 3635 4742 
L 3635 5376 
L 3142 5376 
L 3142 4742 
L 774 4742 
z
" transform="scale(0.015625)"/>
       <path id="NotoSansCJKjp-Regular-5206" d="M 2074 5248 
C 1677 4256 966 3373 147 2829 
C 262 2739 474 2554 563 2451 
C 1363 3059 2118 4019 2586 5101 
L 2074 5248 
z
M 4307 5261 
L 3846 5075 
C 4326 4122 5139 3085 5850 2509 
C 5939 2643 6118 2829 6253 2931 
C 5549 3424 4723 4397 4307 5261 
z
M 1197 2957 
L 1197 2490 
L 2509 2490 
C 2368 1402 2010 378 486 -122 
C 595 -224 736 -416 800 -544 
C 2445 51 2854 1216 3027 2490 
L 4685 2490 
C 4608 864 4512 224 4346 58 
C 4282 -6 4205 -26 4077 -26 
C 3923 -26 3533 -19 3110 19 
C 3200 -115 3258 -320 3270 -461 
C 3674 -486 4070 -493 4288 -474 
C 4506 -454 4653 -410 4781 -243 
C 5005 0 5094 736 5190 2726 
C 5197 2790 5197 2957 5197 2957 
L 1197 2957 
z
" transform="scale(0.015625)"/>
       <path id="NotoSansCJKjp-Regular-5f00" d="M 4154 4499 
L 4154 2675 
L 2362 2675 
L 2362 2950 
L 2362 4499 
L 4154 4499 
z
M 333 2675 
L 333 2214 
L 1843 2214 
C 1754 1338 1427 480 346 -179 
C 474 -262 646 -422 730 -538 
C 1914 211 2246 1210 2336 2214 
L 4154 2214 
L 4154 -518 
L 4646 -518 
L 4646 2214 
L 6074 2214 
L 6074 2675 
L 4646 2675 
L 4646 4499 
L 5875 4499 
L 5875 4960 
L 570 4960 
L 570 4499 
L 1875 4499 
L 1875 2950 
L 1869 2675 
L 333 2675 
z
" transform="scale(0.015625)"/>
      </defs>
      <use xlink:href="#NotoSansCJKjp-Regular-54"/>
      <use xlink:href="#NotoSansCJKjp-Regular-77" transform="translate(59.899994 0)"/>
      <use xlink:href="#NotoSansCJKjp-Regular-6f" transform="translate(140.099976 0)"/>
      <use xlink:href="#NotoSansCJKjp-Regular-2d" transform="translate(200.699966 0)"/>
      <use xlink:href="#NotoSansCJKjp-Regular-70" transform="translate(235.399963 0)"/>
      <use xlink:href="#NotoSansCJKjp-Regular-61" transform="translate(297.399948 0)"/>
      <use xlink:href="#NotoSansCJKjp-Regular-72" transform="translate(353.699936 0)"/>
      <use xlink:href="#NotoSansCJKjp-Regular-74" transform="translate(392.499924 0)"/>
      <use xlink:href="#NotoSansCJKjp-Regular-ff1a" transform="translate(430.199921 0)"/>
      <use xlink:href="#NotoSansCJKjp-Regular-6982" transform="translate(530.199905 0)"/>
      <use xlink:href="#NotoSansCJKjp-Regular-7387" transform="translate(630.19989 0)"/>
      <use xlink:href="#NotoSansCJKjp-Regular-4e0e" transform="translate(730.199875 0)"/>
      <use xlink:href="#NotoSansCJKjp-Regular-5f3a" transform="translate(830.19986 0)"/>
      <use xlink:href="#NotoSansCJKjp-Regular-5ea6" transform="translate(930.199844 0)"/>
      <use xlink:href="#NotoSansCJKjp-Regular-53ef" transform="translate(1030.199829 0)"/>
      <use xlink:href="#NotoSansCJKjp-Regular-5206" transform="translate(1130.199814 0)"/>
      <use xlink:href="#NotoSansCJKjp-Regular-5f00" transform="translate(1230.199799 0)"/>
     </g>
    </g>
   </g>
  </g>
 </g>
 <defs>
  <clipPath id="pc10f64dc92">
   <rect x="44.742656" y="23.706375" width="418.5" height="238.392"/>
  </clipPath>
 </defs>
</svg>
