<?xml version="1.0" encoding="utf-8" standalone="no"?>
<!DOCTYPE svg PUBLIC "-//W3C//DTD SVG 1.1//EN"
  "http://www.w3.org/Graphics/SVG/1.1/DTD/svg11.dtd">
<svg xmlns:xlink="http://www.w3.org/1999/xlink" width="460.892344pt" height="303.388062pt" viewBox="0 0 460.892344 303.388062" xmlns="http://www.w3.org/2000/svg" version="1.1">
 <metadata>
  <rdf:RDF xmlns:dc="http://purl.org/dc/elements/1.1/" xmlns:cc="http://creativecommons.org/ns#" xmlns:rdf="http://www.w3.org/1999/02/22-rdf-syntax-ns#">
   <cc:Work>
    <dc:type rdf:resource="http://purl.org/dc/dcmitype/StillImage"/>
    <dc:date>2026-04-29T04:11:33.084671</dc:date>
    <dc:format>image/svg+xml</dc:format>
    <dc:creator>
     <cc:Agent>
      <dc:title>Matplotlib v3.10.8, https://matplotlib.org/</dc:title>
     </cc:Agent>
    </dc:creator>
   </cc:Work>
  </rdf:RDF>
 </metadata>
 <defs>
  <style type="text/css">*{stroke-linejoin: round; stroke-linecap: butt}</style>
 </defs>
 <g id="figure_1">
  <g id="patch_1">
   <path d="M 0 303.388062 
L 460.892344 303.388062 
L 460.892344 0 
L 0 0 
z
" style="fill: #ffffff"/>
  </g>
  <g id="axes_1">
   <g id="patch_2">
    <path d="M 40.772344 262.098375 
L 453.692344 262.098375 
L 453.692344 23.706375 
L 40.772344 23.706375 
z
" style="fill: #ffffff"/>
   </g>
   <g id="matplotlib.axis_1">
    <g id="xtick_1">
     <g id="line2d_1">
      <path d="M 97.079616 262.098375 
L 97.079616 23.706375 
" clip-path="url(#pde7584a2a8)" style="fill: none; stroke: #b0b0b0; stroke-opacity: 0.25; stroke-width: 0.8; stroke-linecap: square"/>
     </g>
     <g id="line2d_2">
      <defs>
       <path id="m927918c8bc" d="M 0 0 
L 0 3.5 
" style="stroke: #000000; stroke-width: 0.8"/>
      </defs>
      <g>
       <use xlink:href="#m927918c8bc" x="97.079616" y="262.098375" style="stroke: #000000; stroke-width: 0.8"/>
      </g>
     </g>
     <g id="text_1">
      <!-- -2 -->
      <g transform="translate(92.118445 277.853687) scale(0.11 -0.11)">
       <defs>
        <path id="NotoSansCJKjp-Regular-2d" d="M 294 1568 
L 1933 1568 
L 1933 2016 
L 294 2016 
L 294 1568 
z
" transform="scale(0.015625)"/>
        <path id="NotoSansCJKjp-Regular-32" d="M 282 0 
L 3232 0 
L 3232 506 
L 1933 506 
C 1696 506 1408 480 1165 461 
C 2266 1504 3008 2458 3008 3398 
C 3008 4230 2477 4774 1638 4774 
C 1043 4774 634 4506 256 4090 
L 595 3757 
C 858 4070 1184 4301 1568 4301 
C 2150 4301 2432 3910 2432 3373 
C 2432 2566 1754 1632 282 346 
L 282 0 
z
" transform="scale(0.015625)"/>
       </defs>
       <use xlink:href="#NotoSansCJKjp-Regular-2d"/>
       <use xlink:href="#NotoSansCJKjp-Regular-32" transform="translate(34.699997 0)"/>
      </g>
     </g>
    </g>
    <g id="xtick_2">
     <g id="line2d_3">
      <path d="M 172.15598 262.098375 
L 172.15598 23.706375 
" clip-path="url(#pde7584a2a8)" style="fill: none; stroke: #b0b0b0; stroke-opacity: 0.25; stroke-width: 0.8; stroke-linecap: square"/>
     </g>
     <g id="line2d_4">
      <g>
       <use xlink:href="#m927918c8bc" x="172.15598" y="262.098375" style="stroke: #000000; stroke-width: 0.8"/>
      </g>
     </g>
     <g id="text_2">
      <!-- -1 -->
      <g transform="translate(167.194808 277.853687) scale(0.11 -0.11)">
       <defs>
        <path id="NotoSansCJKjp-Regular-31" d="M 563 0 
L 3136 0 
L 3136 486 
L 2195 486 
L 2195 4691 
L 1747 4691 
C 1491 4544 1190 4435 774 4358 
L 774 3987 
L 1613 3987 
L 1613 486 
L 563 486 
L 563 0 
z
" transform="scale(0.015625)"/>
       </defs>
       <use xlink:href="#NotoSansCJKjp-Regular-2d"/>
       <use xlink:href="#NotoSansCJKjp-Regular-31" transform="translate(34.699997 0)"/>
      </g>
     </g>
    </g>
    <g id="xtick_3">
     <g id="line2d_5">
      <path d="M 247.232344 262.098375 
L 247.232344 23.706375 
" clip-path="url(#pde7584a2a8)" style="fill: none; stroke: #b0b0b0; stroke-opacity: 0.25; stroke-width: 0.8; stroke-linecap: square"/>
     </g>
     <g id="line2d_6">
      <g>
       <use xlink:href="#m927918c8bc" x="247.232344" y="262.098375" style="stroke: #000000; stroke-width: 0.8"/>
      </g>
     </g>
     <g id="text_3">
      <!-- 0 -->
      <g transform="translate(244.179844 277.853687) scale(0.11 -0.11)">
       <defs>
        <path id="NotoSansCJKjp-Regular-30" d="M 1779 -83 
C 2669 -83 3238 723 3238 2362 
C 3238 3987 2669 4774 1779 4774 
C 883 4774 320 3987 320 2362 
C 320 723 883 -83 1779 -83 
z
M 1779 390 
C 1248 390 883 986 883 2362 
C 883 3731 1248 4314 1779 4314 
C 2310 4314 2675 3731 2675 2362 
C 2675 986 2310 390 1779 390 
z
" transform="scale(0.015625)"/>
       </defs>
       <use xlink:href="#NotoSansCJKjp-Regular-30"/>
      </g>
     </g>
    </g>
    <g id="xtick_4">
     <g id="line2d_7">
      <path d="M 322.308707 262.098375 
L 322.308707 23.706375 
" clip-path="url(#pde7584a2a8)" style="fill: none; stroke: #b0b0b0; stroke-opacity: 0.25; stroke-width: 0.8; stroke-linecap: square"/>
     </g>
     <g id="line2d_8">
      <g>
       <use xlink:href="#m927918c8bc" x="322.308707" y="262.098375" style="stroke: #000000; stroke-width: 0.8"/>
      </g>
     </g>
     <g id="text_4">
      <!-- 1 -->
      <g transform="translate(319.256207 277.853687) scale(0.11 -0.11)">
       <use xlink:href="#NotoSansCJKjp-Regular-31"/>
      </g>
     </g>
    </g>
    <g id="xtick_5">
     <g id="line2d_9">
      <path d="M 397.385071 262.098375 
L 397.385071 23.706375 
" clip-path="url(#pde7584a2a8)" style="fill: none; stroke: #b0b0b0; stroke-opacity: 0.25; stroke-width: 0.8; stroke-linecap: square"/>
     </g>
     <g id="line2d_10">
      <g>
       <use xlink:href="#m927918c8bc" x="397.385071" y="262.098375" style="stroke: #000000; stroke-width: 0.8"/>
      </g>
     </g>
     <g id="text_5">
      <!-- 2 -->
      <g transform="translate(394.332571 277.853687) scale(0.11 -0.11)">
       <use xlink:href="#NotoSansCJKjp-Regular-32"/>
      </g>
     </g>
    </g>
    <g id="text_6">
     <!-- 投资机会 opportunity -->
     <g transform="translate(193.162188 293.613375) scale(0.11 -0.11)">
      <defs>
       <path id="NotoSansCJKjp-Regular-6295" d="M 3059 5120 
L 3059 4480 
C 3059 4032 2950 3488 2317 3085 
C 2406 3021 2579 2835 2637 2739 
C 3347 3206 3514 3904 3514 4467 
L 3514 4672 
L 4717 4672 
L 4717 3584 
C 4717 3130 4826 3008 5235 3008 
C 5318 3008 5619 3008 5709 3008 
C 6067 3008 6182 3206 6221 3994 
C 6099 4026 5907 4096 5811 4173 
C 5798 3514 5779 3418 5658 3418 
C 5594 3418 5357 3418 5306 3418 
C 5197 3418 5171 3443 5171 3584 
L 5171 5120 
L 3059 5120 
z
M 5126 2170 
C 4909 1677 4589 1261 4198 922 
C 3821 1267 3526 1690 3334 2170 
L 5126 2170 
z
M 2675 2605 
L 2675 2170 
L 3238 2170 
L 2886 2061 
C 3110 1504 3424 1024 3814 634 
C 3309 288 2714 51 2099 -90 
C 2189 -192 2304 -390 2355 -518 
C 3014 -346 3642 -77 4179 307 
C 4659 -70 5242 -346 5920 -512 
C 5990 -384 6131 -186 6240 -83 
C 5594 58 5037 294 4570 621 
C 5101 1094 5510 1709 5754 2496 
L 5446 2624 
L 5357 2605 
L 2675 2605 
z
M 1222 5376 
L 1222 4109 
L 288 4109 
L 288 3661 
L 1222 3661 
L 1222 2234 
C 838 2118 480 2010 205 1939 
L 365 1446 
L 1222 1741 
L 1222 51 
C 1222 -38 1184 -64 1101 -70 
C 1018 -70 749 -70 461 -64 
C 525 -192 589 -390 608 -506 
C 1037 -512 1299 -493 1466 -422 
C 1632 -346 1696 -218 1696 58 
L 1696 1907 
L 2413 2157 
L 2349 2573 
L 1696 2374 
L 1696 3661 
L 2413 3661 
L 2413 4109 
L 1696 4109 
L 1696 5376 
L 1222 5376 
z
" transform="scale(0.015625)"/>
       <path id="NotoSansCJKjp-Regular-8d44" d="M 544 4813 
C 1011 4640 1594 4339 1882 4115 
L 2138 4486 
C 1837 4710 1248 4986 787 5146 
L 544 4813 
z
M 314 3168 
L 454 2726 
C 966 2899 1626 3110 2246 3322 
L 2170 3744 
C 1478 3520 787 3302 314 3168 
z
M 1165 2381 
L 1165 595 
L 1638 595 
L 1638 1933 
L 4813 1933 
L 4813 640 
L 5312 640 
L 5312 2381 
L 1165 2381 
z
M 3027 1747 
C 2842 685 2349 122 320 -128 
C 397 -230 499 -410 531 -525 
C 2694 -218 3283 467 3501 1747 
L 3027 1747 
z
M 3302 480 
C 4102 218 5165 -205 5702 -486 
L 5984 -90 
C 5427 192 4358 589 3565 832 
L 3302 480 
z
M 3098 5350 
C 2931 4902 2605 4365 2080 3974 
C 2189 3917 2342 3776 2419 3674 
C 2694 3898 2912 4147 3098 4410 
L 3853 4410 
C 3654 3738 3232 3149 2086 2842 
C 2176 2765 2298 2605 2342 2496 
C 3226 2758 3738 3181 4045 3699 
C 4448 3155 5069 2739 5786 2541 
C 5850 2662 5978 2829 6074 2918 
C 5280 3091 4582 3520 4230 4070 
C 4269 4179 4307 4294 4339 4410 
L 5293 4410 
C 5197 4198 5088 3987 4998 3840 
L 5414 3718 
C 5574 3968 5766 4358 5933 4710 
L 5581 4806 
L 5504 4781 
L 3322 4781 
C 3418 4947 3494 5120 3558 5286 
L 3098 5350 
z
" transform="scale(0.015625)"/>
       <path id="NotoSansCJKjp-Regular-673a" d="M 3187 5011 
L 3187 2957 
C 3187 1965 3098 691 2234 -205 
C 2342 -262 2528 -422 2598 -512 
C 3520 435 3654 1888 3654 2957 
L 3654 4557 
L 4858 4557 
L 4858 435 
C 4858 -115 4896 -230 5005 -326 
C 5101 -410 5242 -448 5370 -448 
C 5453 -448 5600 -448 5696 -448 
C 5830 -448 5946 -422 6035 -358 
C 6131 -294 6182 -186 6214 0 
C 6240 160 6266 634 6266 998 
C 6144 1037 5997 1114 5901 1203 
C 5894 774 5888 435 5869 288 
C 5862 141 5843 83 5805 45 
C 5779 13 5728 0 5677 0 
C 5613 0 5536 0 5491 0 
C 5440 0 5408 13 5376 38 
C 5344 64 5331 186 5331 397 
L 5331 5011 
L 3187 5011 
z
M 1395 5376 
L 1395 4006 
L 333 4006 
L 333 3546 
L 1331 3546 
C 1101 2656 634 1658 179 1120 
C 256 1005 378 813 429 685 
C 787 1126 1133 1850 1395 2598 
L 1395 -506 
L 1862 -506 
L 1862 2432 
C 2112 2112 2413 1715 2541 1498 
L 2842 1894 
C 2694 2061 2086 2746 1862 2970 
L 1862 3546 
L 2810 3546 
L 2810 4006 
L 1862 4006 
L 1862 5376 
L 1395 5376 
z
" transform="scale(0.015625)"/>
       <path id="NotoSansCJKjp-Regular-4f1a" d="M 1664 3392 
L 1664 2944 
L 4717 2944 
L 4717 3392 
L 1664 3392 
z
M 3174 4902 
C 3776 4077 4902 3213 5894 2739 
C 5984 2874 6099 3053 6208 3168 
C 5190 3584 4077 4416 3398 5370 
L 2899 5370 
C 2406 4550 1338 3616 230 3098 
C 333 2989 461 2816 518 2701 
C 1606 3245 2656 4128 3174 4902 
z
M 3840 1197 
C 4128 947 4429 640 4691 333 
L 2093 230 
C 2349 678 2624 1235 2854 1709 
L 5875 1709 
L 5875 2163 
L 570 2163 
L 570 1709 
L 2259 1709 
C 2080 1242 1811 653 1562 218 
L 621 186 
L 685 -288 
C 1792 -243 3456 -179 5037 -96 
C 5158 -256 5261 -403 5338 -531 
L 5766 -262 
C 5472 218 4838 915 4250 1421 
L 3840 1197 
z
" transform="scale(0.015625)"/>
       <path id="NotoSansCJKjp-Regular-20" transform="scale(0.015625)"/>
       <path id="NotoSansCJKjp-Regular-6f" d="M 1939 -83 
C 2790 -83 3546 582 3546 1734 
C 3546 2893 2790 3565 1939 3565 
C 1088 3565 333 2893 333 1734 
C 333 582 1088 -83 1939 -83 
z
M 1939 403 
C 1338 403 934 934 934 1734 
C 934 2534 1338 3072 1939 3072 
C 2541 3072 2950 2534 2950 1734 
C 2950 934 2541 403 1939 403 
z
" transform="scale(0.015625)"/>
       <path id="NotoSansCJKjp-Regular-70" d="M 589 -1466 
L 1178 -1466 
L 1178 -288 
L 1158 320 
C 1472 58 1805 -83 2118 -83 
C 2912 -83 3629 602 3629 1792 
C 3629 2867 3142 3565 2246 3565 
C 1843 3565 1453 3334 1139 3072 
L 1126 3072 
L 1069 3475 
L 589 3475 
L 589 -1466 
z
M 2022 410 
C 1792 410 1485 499 1178 768 
L 1178 2598 
C 1510 2906 1811 3072 2099 3072 
C 2765 3072 3021 2560 3021 1786 
C 3021 928 2598 410 2022 410 
z
" transform="scale(0.015625)"/>
       <path id="NotoSansCJKjp-Regular-72" d="M 589 0 
L 1178 0 
L 1178 2234 
C 1408 2822 1760 3040 2048 3040 
C 2195 3040 2272 3021 2387 2982 
L 2496 3488 
C 2387 3546 2278 3565 2125 3565 
C 1741 3565 1382 3283 1139 2842 
L 1126 2842 
L 1069 3475 
L 589 3475 
L 589 0 
z
" transform="scale(0.015625)"/>
       <path id="NotoSansCJKjp-Regular-74" d="M 1677 -83 
C 1894 -83 2125 -19 2323 45 
L 2208 486 
C 2093 435 1939 390 1811 390 
C 1408 390 1274 634 1274 1056 
L 1274 3002 
L 2221 3002 
L 2221 3475 
L 1274 3475 
L 1274 4454 
L 787 4454 
L 723 3475 
L 173 3443 
L 173 3002 
L 691 3002 
L 691 1075 
C 691 378 941 -83 1677 -83 
z
" transform="scale(0.015625)"/>
       <path id="NotoSansCJKjp-Regular-75" d="M 1606 -83 
C 2080 -83 2426 166 2752 544 
L 2771 544 
L 2816 0 
L 3302 0 
L 3302 3475 
L 2720 3475 
L 2720 1011 
C 2387 602 2138 422 1779 422 
C 1318 422 1126 698 1126 1344 
L 1126 3475 
L 538 3475 
L 538 1274 
C 538 384 870 -83 1606 -83 
z
" transform="scale(0.015625)"/>
       <path id="NotoSansCJKjp-Regular-6e" d="M 589 0 
L 1178 0 
L 1178 2522 
C 1523 2874 1766 3053 2125 3053 
C 2586 3053 2784 2778 2784 2125 
L 2784 0 
L 3366 0 
L 3366 2202 
C 3366 3085 3034 3565 2304 3565 
C 1830 3565 1466 3302 1139 2970 
L 1126 2970 
L 1069 3475 
L 589 3475 
L 589 0 
z
" transform="scale(0.015625)"/>
       <path id="NotoSansCJKjp-Regular-69" d="M 589 0 
L 1178 0 
L 1178 3475 
L 589 3475 
L 589 0 
z
M 883 4192 
C 1114 4192 1274 4346 1274 4582 
C 1274 4806 1114 4960 883 4960 
C 653 4960 499 4806 499 4582 
C 499 4346 653 4192 883 4192 
z
" transform="scale(0.015625)"/>
       <path id="NotoSansCJKjp-Regular-79" d="M 646 -1498 
C 1338 -1498 1702 -973 1946 -294 
L 3251 3475 
L 2682 3475 
L 2054 1549 
C 1965 1235 1862 883 1773 563 
L 1741 563 
C 1619 890 1504 1242 1395 1549 
L 691 3475 
L 83 3475 
L 1478 -6 
L 1402 -269 
C 1254 -698 1011 -1018 621 -1018 
C 525 -1018 422 -986 352 -960 
L 237 -1427 
C 346 -1472 486 -1498 646 -1498 
z
" transform="scale(0.015625)"/>
      </defs>
      <use xlink:href="#NotoSansCJKjp-Regular-6295"/>
      <use xlink:href="#NotoSansCJKjp-Regular-8d44" transform="translate(99.999985 0)"/>
      <use xlink:href="#NotoSansCJKjp-Regular-673a" transform="translate(199.999969 0)"/>
      <use xlink:href="#NotoSansCJKjp-Regular-4f1a" transform="translate(299.999954 0)"/>
      <use xlink:href="#NotoSansCJKjp-Regular-20" transform="translate(399.999939 0)"/>
      <use xlink:href="#NotoSansCJKjp-Regular-6f" transform="translate(422.399933 0)"/>
      <use xlink:href="#NotoSansCJKjp-Regular-70" transform="translate(482.999924 0)"/>
      <use xlink:href="#NotoSansCJKjp-Regular-70" transform="translate(544.999908 0)"/>
      <use xlink:href="#NotoSansCJKjp-Regular-6f" transform="translate(606.999893 0)"/>
      <use xlink:href="#NotoSansCJKjp-Regular-72" transform="translate(667.599884 0)"/>
      <use xlink:href="#NotoSansCJKjp-Regular-74" transform="translate(706.399872 0)"/>
      <use xlink:href="#NotoSansCJKjp-Regular-75" transform="translate(744.099869 0)"/>
      <use xlink:href="#NotoSansCJKjp-Regular-6e" transform="translate(804.799866 0)"/>
      <use xlink:href="#NotoSansCJKjp-Regular-69" transform="translate(865.79985 0)"/>
      <use xlink:href="#NotoSansCJKjp-Regular-74" transform="translate(893.299835 0)"/>
      <use xlink:href="#NotoSansCJKjp-Regular-79" transform="translate(930.999832 0)"/>
     </g>
    </g>
   </g>
   <g id="matplotlib.axis_2">
    <g id="ytick_1">
     <g id="line2d_11">
      <path d="M 40.772344 258.27849 
L 453.692344 258.27849 
" clip-path="url(#pde7584a2a8)" style="fill: none; stroke: #b0b0b0; stroke-opacity: 0.25; stroke-width: 0.8; stroke-linecap: square"/>
     </g>
     <g id="line2d_12">
      <defs>
       <path id="mab948063be" d="M 0 0 
L -3.5 0 
" style="stroke: #000000; stroke-width: 0.8"/>
      </defs>
      <g>
       <use xlink:href="#mab948063be" x="40.772344" y="258.27849" style="stroke: #000000; stroke-width: 0.8"/>
      </g>
     </g>
     <g id="text_7">
      <!-- -4 -->
      <g transform="translate(23.85 262.656146) scale(0.11 -0.11)">
       <defs>
        <path id="NotoSansCJKjp-Regular-34" d="M 2176 0 
L 2726 0 
L 2726 1293 
L 3354 1293 
L 3354 1760 
L 2726 1760 
L 2726 4691 
L 2080 4691 
L 128 1677 
L 128 1293 
L 2176 1293 
L 2176 0 
z
M 2176 1760 
L 736 1760 
L 1805 3360 
C 1939 3590 2067 3827 2182 4051 
L 2208 4051 
C 2195 3814 2176 3430 2176 3200 
L 2176 1760 
z
" transform="scale(0.015625)"/>
       </defs>
       <use xlink:href="#NotoSansCJKjp-Regular-2d"/>
       <use xlink:href="#NotoSansCJKjp-Regular-34" transform="translate(34.699997 0)"/>
      </g>
     </g>
    </g>
    <g id="ytick_2">
     <g id="line2d_13">
      <path d="M 40.772344 227.095756 
L 453.692344 227.095756 
" clip-path="url(#pde7584a2a8)" style="fill: none; stroke: #b0b0b0; stroke-opacity: 0.25; stroke-width: 0.8; stroke-linecap: square"/>
     </g>
     <g id="line2d_14">
      <g>
       <use xlink:href="#mab948063be" x="40.772344" y="227.095756" style="stroke: #000000; stroke-width: 0.8"/>
      </g>
     </g>
     <g id="text_8">
      <!-- -3 -->
      <g transform="translate(23.85 231.473413) scale(0.11 -0.11)">
       <defs>
        <path id="NotoSansCJKjp-Regular-33" d="M 1683 -83 
C 2522 -83 3194 416 3194 1254 
C 3194 1901 2752 2310 2202 2445 
L 2202 2477 
C 2701 2650 3034 3034 3034 3603 
C 3034 4346 2458 4774 1664 4774 
C 1126 4774 710 4538 358 4218 
L 672 3846 
C 941 4115 1267 4301 1645 4301 
C 2138 4301 2438 4006 2438 3558 
C 2438 3053 2112 2662 1139 2662 
L 1139 2214 
C 2227 2214 2598 1843 2598 1274 
C 2598 736 2208 403 1645 403 
C 1114 403 762 659 486 941 
L 186 563 
C 493 224 954 -83 1683 -83 
z
" transform="scale(0.015625)"/>
       </defs>
       <use xlink:href="#NotoSansCJKjp-Regular-2d"/>
       <use xlink:href="#NotoSansCJKjp-Regular-33" transform="translate(34.699997 0)"/>
      </g>
     </g>
    </g>
    <g id="ytick_3">
     <g id="line2d_15">
      <path d="M 40.772344 195.913022 
L 453.692344 195.913022 
" clip-path="url(#pde7584a2a8)" style="fill: none; stroke: #b0b0b0; stroke-opacity: 0.25; stroke-width: 0.8; stroke-linecap: square"/>
     </g>
     <g id="line2d_16">
      <g>
       <use xlink:href="#mab948063be" x="40.772344" y="195.913022" style="stroke: #000000; stroke-width: 0.8"/>
      </g>
     </g>
     <g id="text_9">
      <!-- -2 -->
      <g transform="translate(23.85 200.290679) scale(0.11 -0.11)">
       <use xlink:href="#NotoSansCJKjp-Regular-2d"/>
       <use xlink:href="#NotoSansCJKjp-Regular-32" transform="translate(34.699997 0)"/>
      </g>
     </g>
    </g>
    <g id="ytick_4">
     <g id="line2d_17">
      <path d="M 40.772344 164.730289 
L 453.692344 164.730289 
" clip-path="url(#pde7584a2a8)" style="fill: none; stroke: #b0b0b0; stroke-opacity: 0.25; stroke-width: 0.8; stroke-linecap: square"/>
     </g>
     <g id="line2d_18">
      <g>
       <use xlink:href="#mab948063be" x="40.772344" y="164.730289" style="stroke: #000000; stroke-width: 0.8"/>
      </g>
     </g>
     <g id="text_10">
      <!-- -1 -->
      <g transform="translate(23.85 169.107945) scale(0.11 -0.11)">
       <use xlink:href="#NotoSansCJKjp-Regular-2d"/>
       <use xlink:href="#NotoSansCJKjp-Regular-31" transform="translate(34.699997 0)"/>
      </g>
     </g>
    </g>
    <g id="ytick_5">
     <g id="line2d_19">
      <path d="M 40.772344 133.547555 
L 453.692344 133.547555 
" clip-path="url(#pde7584a2a8)" style="fill: none; stroke: #b0b0b0; stroke-opacity: 0.25; stroke-width: 0.8; stroke-linecap: square"/>
     </g>
     <g id="line2d_20">
      <g>
       <use xlink:href="#mab948063be" x="40.772344" y="133.547555" style="stroke: #000000; stroke-width: 0.8"/>
      </g>
     </g>
     <g id="text_11">
      <!-- 0 -->
      <g transform="translate(27.667344 137.925211) scale(0.11 -0.11)">
       <use xlink:href="#NotoSansCJKjp-Regular-30"/>
      </g>
     </g>
    </g>
    <g id="ytick_6">
     <g id="line2d_21">
      <path d="M 40.772344 102.364821 
L 453.692344 102.364821 
" clip-path="url(#pde7584a2a8)" style="fill: none; stroke: #b0b0b0; stroke-opacity: 0.25; stroke-width: 0.8; stroke-linecap: square"/>
     </g>
     <g id="line2d_22">
      <g>
       <use xlink:href="#mab948063be" x="40.772344" y="102.364821" style="stroke: #000000; stroke-width: 0.8"/>
      </g>
     </g>
     <g id="text_12">
      <!-- 1 -->
      <g transform="translate(27.667344 106.742477) scale(0.11 -0.11)">
       <use xlink:href="#NotoSansCJKjp-Regular-31"/>
      </g>
     </g>
    </g>
    <g id="ytick_7">
     <g id="line2d_23">
      <path d="M 40.772344 71.182087 
L 453.692344 71.182087 
" clip-path="url(#pde7584a2a8)" style="fill: none; stroke: #b0b0b0; stroke-opacity: 0.25; stroke-width: 0.8; stroke-linecap: square"/>
     </g>
     <g id="line2d_24">
      <g>
       <use xlink:href="#mab948063be" x="40.772344" y="71.182087" style="stroke: #000000; stroke-width: 0.8"/>
      </g>
     </g>
     <g id="text_13">
      <!-- 2 -->
      <g transform="translate(27.667344 75.559743) scale(0.11 -0.11)">
       <use xlink:href="#NotoSansCJKjp-Regular-32"/>
      </g>
     </g>
    </g>
    <g id="ytick_8">
     <g id="line2d_25">
      <path d="M 40.772344 39.999353 
L 453.692344 39.999353 
" clip-path="url(#pde7584a2a8)" style="fill: none; stroke: #b0b0b0; stroke-opacity: 0.25; stroke-width: 0.8; stroke-linecap: square"/>
     </g>
     <g id="line2d_26">
      <g>
       <use xlink:href="#mab948063be" x="40.772344" y="39.999353" style="stroke: #000000; stroke-width: 0.8"/>
      </g>
     </g>
     <g id="text_14">
      <!-- 3 -->
      <g transform="translate(27.667344 44.37701) scale(0.11 -0.11)">
       <use xlink:href="#NotoSansCJKjp-Regular-33"/>
      </g>
     </g>
    </g>
    <g id="text_15">
     <!-- 潜在净借款需求 $E(B^*|x)$ -->
     <g transform="translate(17.21 203.292375) rotate(-90) scale(0.11 -0.11)">
      <defs>
       <path id="NotoSansCJKjp-Regular-6f5c" d="M 563 4973 
C 960 4794 1446 4486 1690 4256 
L 1965 4653 
C 1722 4870 1229 5158 832 5325 
L 563 4973 
z
M 243 3238 
C 646 3072 1133 2784 1376 2573 
L 1658 2976 
C 1408 3181 909 3450 506 3603 
L 243 3238 
z
M 422 -134 
L 845 -429 
C 1184 166 1587 979 1888 1664 
L 1517 1952 
C 1184 1216 736 365 422 -134 
z
M 2822 736 
L 5146 736 
L 5146 179 
L 2822 179 
L 2822 736 
z
M 2822 1101 
L 2822 1638 
L 5146 1638 
L 5146 1101 
L 2822 1101 
z
M 2368 2029 
L 2368 -499 
L 2822 -499 
L 2822 -211 
L 5146 -211 
L 5146 -493 
L 5619 -493 
L 5619 2029 
L 2368 2029 
z
M 1894 3910 
L 1894 3520 
L 2682 3520 
C 2586 3078 2355 2618 1792 2291 
C 1888 2221 2022 2074 2086 1978 
C 2534 2266 2810 2630 2970 3008 
C 3168 2810 3411 2566 3514 2426 
L 3827 2758 
C 3718 2861 3296 3219 3091 3373 
L 3123 3520 
L 3840 3520 
L 3840 3910 
L 3174 3910 
L 3187 4224 
L 3187 4390 
L 3814 4390 
L 3814 4781 
L 3187 4781 
L 3187 5370 
L 2746 5370 
L 2746 4781 
L 2010 4781 
L 2010 4390 
L 2746 4390 
L 2746 4224 
L 2733 3910 
L 1894 3910 
z
M 4019 4781 
L 4019 4390 
L 4742 4390 
L 4742 4243 
C 4742 4141 4742 4026 4730 3910 
L 4019 3910 
L 4019 3520 
L 4659 3520 
C 4557 3123 4314 2726 3776 2445 
C 3872 2362 4006 2214 4070 2118 
C 4557 2406 4838 2784 4998 3168 
C 5203 2720 5510 2330 5894 2112 
C 5958 2221 6099 2381 6202 2464 
C 5773 2656 5453 3059 5261 3520 
L 6074 3520 
L 6074 3910 
L 5171 3910 
C 5178 4026 5184 4134 5184 4243 
L 5184 4390 
L 5990 4390 
L 5990 4781 
L 5184 4781 
L 5184 5363 
L 4742 5363 
L 4742 4781 
L 4019 4781 
z
" transform="scale(0.015625)"/>
       <path id="NotoSansCJKjp-Regular-5728" d="M 2502 5376 
C 2413 5050 2298 4710 2163 4384 
L 403 4384 
L 403 3923 
L 1952 3923 
C 1542 3104 979 2342 243 1830 
C 320 1722 442 1517 493 1389 
C 762 1581 1011 1798 1235 2035 
L 1235 -486 
L 1715 -486 
L 1715 2605 
C 2016 3014 2278 3462 2496 3923 
L 6010 3923 
L 6010 4384 
L 2694 4384 
C 2810 4672 2912 4966 3002 5254 
L 2502 5376 
z
M 3827 3590 
L 3827 2355 
L 2387 2355 
L 2387 1907 
L 3827 1907 
L 3827 90 
L 2131 90 
L 2131 -358 
L 6003 -358 
L 6003 90 
L 4307 90 
L 4307 1907 
L 5760 1907 
L 5760 2355 
L 4307 2355 
L 4307 3590 
L 3827 3590 
z
" transform="scale(0.015625)"/>
       <path id="NotoSansCJKjp-Regular-51c0" d="M 307 4896 
C 640 4442 1037 3821 1216 3443 
L 1664 3680 
C 1472 4051 1056 4653 723 5094 
L 307 4896 
z
M 307 13 
L 794 -211 
C 1094 397 1446 1222 1715 1939 
L 1293 2170 
C 998 1408 595 538 307 13 
z
M 3034 4403 
L 4339 4403 
C 4211 4160 4045 3904 3885 3706 
L 2534 3706 
C 2707 3923 2874 4154 3034 4403 
z
M 3027 5382 
C 2720 4659 2202 3942 1658 3482 
C 1766 3411 1952 3251 2029 3168 
C 2131 3258 2227 3360 2330 3469 
L 2330 3277 
L 3578 3277 
L 3578 2618 
L 1766 2618 
L 1766 2182 
L 3578 2182 
L 3578 1498 
L 2131 1498 
L 2131 1062 
L 3578 1062 
L 3578 70 
C 3578 -26 3546 -45 3443 -51 
C 3334 -58 2982 -58 2605 -45 
C 2669 -179 2739 -378 2765 -499 
C 3264 -506 3584 -493 3782 -422 
C 3981 -352 4045 -211 4045 64 
L 4045 1062 
L 5158 1062 
L 5158 800 
L 5613 800 
L 5613 2182 
L 6131 2182 
L 6131 2618 
L 5613 2618 
L 5613 3706 
L 4403 3706 
C 4621 3994 4838 4339 4986 4634 
L 4672 4851 
L 4595 4826 
L 3277 4826 
C 3354 4966 3424 5107 3488 5248 
L 3027 5382 
z
M 5158 1498 
L 4045 1498 
L 4045 2182 
L 5158 2182 
L 5158 1498 
z
M 5158 2618 
L 4045 2618 
L 4045 3277 
L 5158 3277 
L 5158 2618 
z
" transform="scale(0.015625)"/>
       <path id="NotoSansCJKjp-Regular-501f" d="M 4595 5318 
L 4595 4570 
L 3405 4570 
L 3405 5318 
L 2938 5318 
L 2938 4570 
L 2080 4570 
L 2080 4154 
L 2938 4154 
L 2938 3277 
L 1818 3277 
L 1818 2842 
L 6195 2842 
L 6195 3277 
L 5069 3277 
L 5069 4154 
L 5971 4154 
L 5971 4570 
L 5069 4570 
L 5069 5318 
L 4595 5318 
z
M 3405 4154 
L 4595 4154 
L 4595 3277 
L 3405 3277 
L 3405 4154 
z
M 2957 858 
L 5152 858 
L 5152 160 
L 2957 160 
L 2957 858 
z
M 2957 1242 
L 2957 1914 
L 5152 1914 
L 5152 1242 
L 2957 1242 
z
M 2496 2323 
L 2496 -531 
L 2957 -531 
L 2957 -243 
L 5152 -243 
L 5152 -506 
L 5632 -506 
L 5632 2323 
L 2496 2323 
z
M 1690 5350 
C 1331 4378 736 3418 102 2797 
C 192 2688 326 2438 371 2323 
C 595 2554 813 2822 1024 3117 
L 1024 -499 
L 1485 -499 
L 1485 3840 
C 1734 4282 1965 4749 2144 5216 
L 1690 5350 
z
" transform="scale(0.015625)"/>
       <path id="NotoSansCJKjp-Regular-6b3e" d="M 742 1402 
C 627 915 429 435 154 109 
C 256 64 442 -32 525 -96 
C 787 256 1024 787 1158 1318 
L 742 1402 
z
M 2406 1254 
C 2586 941 2784 518 2867 262 
L 3245 442 
C 3162 691 2957 1101 2771 1402 
L 2406 1254 
z
M 1581 5357 
L 1581 4768 
L 326 4768 
L 326 4358 
L 1581 4358 
L 1581 3808 
L 474 3808 
L 474 3405 
L 3155 3405 
L 3155 3808 
L 2035 3808 
L 2035 4358 
L 3283 4358 
L 3283 4768 
L 2035 4768 
L 2035 5357 
L 1581 5357 
z
M 250 2029 
L 250 1619 
L 1587 1619 
L 1587 -19 
C 1587 -83 1568 -102 1491 -102 
C 1421 -109 1197 -109 941 -102 
C 998 -224 1062 -397 1082 -518 
C 1446 -518 1683 -512 1837 -442 
C 1997 -371 2035 -250 2035 -26 
L 2035 1619 
L 3347 1619 
L 3347 2029 
L 250 2029 
z
M 3834 5382 
C 3706 4384 3475 3405 3078 2771 
L 3078 2925 
L 544 2925 
L 544 2522 
L 3078 2522 
L 3078 2726 
C 3194 2662 3398 2522 3475 2451 
C 3686 2810 3859 3264 4006 3776 
L 4352 3776 
L 4352 2899 
C 4358 2368 4166 730 2816 -134 
C 2906 -224 3046 -416 3098 -518 
C 4147 173 4518 1363 4582 1914 
C 4653 1382 4979 134 5888 -512 
C 5958 -403 6099 -211 6189 -102 
C 5011 723 4813 2387 4819 2899 
L 4819 3776 
L 5574 3776 
C 5517 3354 5440 2899 5363 2598 
L 5741 2483 
C 5875 2906 5997 3584 6080 4147 
L 5766 4237 
L 5690 4218 
L 4115 4218 
C 4198 4570 4262 4934 4314 5312 
L 3834 5382 
z
" transform="scale(0.015625)"/>
       <path id="NotoSansCJKjp-Regular-9700" d="M 1242 3654 
L 1242 3334 
L 2618 3334 
L 2618 3654 
L 1242 3654 
z
M 1101 2982 
L 1101 2662 
L 2624 2662 
L 2624 2982 
L 1101 2982 
z
M 3744 2982 
L 3744 2656 
L 5312 2656 
L 5312 2982 
L 3744 2982 
z
M 3744 3654 
L 3744 3334 
L 5158 3334 
L 5158 3654 
L 3744 3654 
z
M 486 4358 
L 486 3136 
L 922 3136 
L 922 4006 
L 2950 4006 
L 2950 2490 
L 3411 2490 
L 3411 4006 
L 5472 4006 
L 5472 3136 
L 5920 3136 
L 5920 4358 
L 3411 4358 
L 3411 4736 
L 5536 4736 
L 5536 5120 
L 858 5120 
L 858 4736 
L 2950 4736 
L 2950 4358 
L 486 4358 
z
M 915 1434 
L 915 -499 
L 1370 -499 
L 1370 1037 
L 2317 1037 
L 2317 -461 
L 2758 -461 
L 2758 1037 
L 3738 1037 
L 3738 -461 
L 4179 -461 
L 4179 1037 
L 5178 1037 
L 5178 -26 
C 5178 -90 5165 -109 5088 -109 
C 5024 -115 4806 -115 4544 -109 
C 4602 -224 4672 -390 4698 -512 
C 5043 -512 5286 -512 5446 -435 
C 5606 -371 5645 -256 5645 -32 
L 5645 1434 
L 3226 1434 
L 3398 1888 
L 6003 1888 
L 6003 2278 
L 416 2278 
L 416 1888 
L 2899 1888 
C 2861 1741 2816 1581 2765 1434 
L 915 1434 
z
" transform="scale(0.015625)"/>
       <path id="NotoSansCJKjp-Regular-6c42" d="M 762 3213 
C 1152 2854 1600 2349 1792 2010 
L 2176 2291 
C 1978 2630 1523 3117 1126 3456 
L 762 3213 
z
M 237 544 
L 538 109 
C 1107 435 1862 883 2554 1306 
L 2400 1734 
C 1619 1286 781 813 237 544 
z
M 2944 5363 
L 2944 4301 
L 416 4301 
L 416 3834 
L 2944 3834 
L 2944 141 
C 2944 13 2899 -19 2778 -26 
C 2650 -26 2234 -32 1792 -13 
C 1869 -160 1939 -384 1971 -525 
C 2534 -525 2918 -512 3136 -429 
C 3347 -346 3437 -198 3437 141 
L 3437 2669 
C 3987 1472 4794 474 5843 -38 
C 5926 96 6080 282 6195 384 
C 5478 698 4858 1248 4365 1926 
C 4800 2291 5331 2822 5728 3277 
L 5312 3571 
C 5018 3168 4531 2650 4128 2285 
C 3840 2739 3610 3232 3437 3750 
L 3437 3834 
L 6010 3834 
L 6010 4301 
L 5222 4301 
L 5517 4634 
C 5248 4845 4723 5152 4326 5350 
L 4038 5050 
C 4435 4845 4941 4525 5197 4301 
L 3437 4301 
L 3437 5363 
L 2944 5363 
z
" transform="scale(0.015625)"/>
       <path id="DejaVuSans-Oblique-45" d="M 1081 4666 
L 4031 4666 
L 3928 4134 
L 1606 4134 
L 1338 2753 
L 3566 2753 
L 3463 2222 
L 1234 2222 
L 909 531 
L 3284 531 
L 3181 0 
L 172 0 
L 1081 4666 
z
" transform="scale(0.015625)"/>
       <path id="DejaVuSans-28" d="M 1984 4856 
Q 1566 4138 1362 3434 
Q 1159 2731 1159 2009 
Q 1159 1288 1364 580 
Q 1569 -128 1984 -844 
L 1484 -844 
Q 1016 -109 783 600 
Q 550 1309 550 2009 
Q 550 2706 781 3412 
Q 1013 4119 1484 4856 
L 1984 4856 
z
" transform="scale(0.015625)"/>
       <path id="DejaVuSans-Oblique-42" d="M 1081 4666 
L 2694 4666 
Q 3350 4666 3675 4422 
Q 4000 4178 4000 3688 
Q 4000 3238 3720 2911 
Q 3441 2584 2988 2516 
Q 3375 2428 3569 2181 
Q 3763 1934 3763 1522 
Q 3763 819 3242 409 
Q 2722 0 1819 0 
L 172 0 
L 1081 4666 
z
M 1234 2228 
L 903 519 
L 1919 519 
Q 2491 519 2800 781 
Q 3109 1044 3109 1522 
Q 3109 1891 2904 2059 
Q 2700 2228 2247 2228 
L 1234 2228 
z
M 1606 4147 
L 1331 2741 
L 2272 2741 
Q 2775 2741 3058 2959 
Q 3341 3178 3341 3566 
Q 3341 3869 3150 4008 
Q 2959 4147 2541 4147 
L 1606 4147 
z
" transform="scale(0.015625)"/>
       <path id="DejaVuSans-2a" d="M 3009 3897 
L 1888 3291 
L 3009 2681 
L 2828 2375 
L 1778 3009 
L 1778 1831 
L 1422 1831 
L 1422 3009 
L 372 2375 
L 191 2681 
L 1313 3291 
L 191 3897 
L 372 4206 
L 1422 3572 
L 1422 4750 
L 1778 4750 
L 1778 3572 
L 2828 4206 
L 3009 3897 
z
" transform="scale(0.015625)"/>
       <path id="DejaVuSans-7c" d="M 1344 4891 
L 1344 -1509 
L 813 -1509 
L 813 4891 
L 1344 4891 
z
" transform="scale(0.015625)"/>
       <path id="DejaVuSans-Oblique-78" d="M 3841 3500 
L 2234 1784 
L 3219 0 
L 2559 0 
L 1819 1388 
L 531 0 
L -166 0 
L 1556 1844 
L 641 3500 
L 1300 3500 
L 1972 2234 
L 3144 3500 
L 3841 3500 
z
" transform="scale(0.015625)"/>
       <path id="DejaVuSans-29" d="M 513 4856 
L 1013 4856 
Q 1481 4119 1714 3412 
Q 1947 2706 1947 2009 
Q 1947 1309 1714 600 
Q 1481 -109 1013 -844 
L 513 -844 
Q 928 -128 1133 580 
Q 1338 1288 1338 2009 
Q 1338 2731 1133 3434 
Q 928 4138 513 4856 
z
" transform="scale(0.015625)"/>
      </defs>
      <use xlink:href="#NotoSansCJKjp-Regular-6f5c" transform="translate(0 0.765625)"/>
      <use xlink:href="#NotoSansCJKjp-Regular-5728" transform="translate(99.999985 0.765625)"/>
      <use xlink:href="#NotoSansCJKjp-Regular-51c0" transform="translate(199.999969 0.765625)"/>
      <use xlink:href="#NotoSansCJKjp-Regular-501f" transform="translate(299.999954 0.765625)"/>
      <use xlink:href="#NotoSansCJKjp-Regular-6b3e" transform="translate(399.999939 0.765625)"/>
      <use xlink:href="#NotoSansCJKjp-Regular-9700" transform="translate(499.999924 0.765625)"/>
      <use xlink:href="#NotoSansCJKjp-Regular-6c42" transform="translate(599.999908 0.765625)"/>
      <use xlink:href="#NotoSansCJKjp-Regular-20" transform="translate(699.999893 0.765625)"/>
      <use xlink:href="#DejaVuSans-Oblique-45" transform="translate(722.399887 0.765625)"/>
      <use xlink:href="#DejaVuSans-28" transform="translate(785.583481 0.765625)"/>
      <use xlink:href="#DejaVuSans-Oblique-42" transform="translate(824.597153 0.765625)"/>
      <use xlink:href="#DejaVuSans-2a" transform="translate(913.855134 39.046875) scale(0.7)"/>
      <use xlink:href="#DejaVuSans-7c" transform="translate(965.227205 0.765625)"/>
      <use xlink:href="#DejaVuSans-Oblique-78" transform="translate(998.918611 0.765625)"/>
      <use xlink:href="#DejaVuSans-29" transform="translate(1058.098299 0.765625)"/>
     </g>
    </g>
   </g>
   <g id="line2d_27">
    <path d="M 59.541435 251.262375 
L 62.695904 250.017686 
L 65.850373 248.772997 
L 69.004842 247.528308 
L 72.159311 246.283619 
L 75.31378 245.03893 
L 78.468249 243.794241 
L 81.622718 242.549552 
L 84.777187 241.304863 
L 87.931656 240.060174 
L 91.086125 238.815485 
L 94.240594 237.570796 
L 97.395063 236.326108 
L 100.549532 235.081419 
L 103.704002 233.83673 
L 106.858471 232.592041 
L 110.01294 231.347352 
L 113.167409 230.102663 
L 116.321878 228.857974 
L 119.476347 227.613285 
L 122.630816 226.368596 
L 125.785285 225.123907 
L 128.939754 223.879218 
L 132.094223 222.634529 
L 135.248692 221.38984 
L 138.403161 220.145151 
L 141.55763 218.900462 
L 144.712099 217.655773 
L 147.866568 216.411084 
L 151.021037 215.166395 
L 154.175506 213.921706 
L 157.329976 212.677017 
L 160.484445 211.432328 
L 163.638914 210.187639 
L 166.793383 208.942951 
L 169.947852 207.698262 
L 173.102321 206.453573 
L 176.25679 205.208884 
L 179.411259 203.964195 
L 182.565728 202.719506 
L 185.720197 201.474817 
L 188.874666 200.230128 
L 192.029135 198.985439 
L 195.183604 197.74075 
L 198.338073 196.496061 
L 201.492542 195.251372 
L 204.647011 194.006683 
L 207.80148 192.761994 
L 210.95595 191.517305 
L 214.110419 190.272616 
L 217.264888 189.027927 
L 220.419357 187.783238 
L 223.573826 186.538549 
L 226.728295 185.29386 
L 229.882764 184.049171 
L 233.037233 182.804482 
L 236.191702 181.559794 
L 239.346171 180.315105 
L 242.50064 179.070416 
L 245.655109 177.825727 
L 248.809578 176.581038 
L 251.964047 175.336349 
L 255.118516 174.09166 
L 258.272985 172.846971 
L 261.427455 171.602282 
L 264.581924 170.357593 
L 267.736393 169.112904 
L 270.890862 167.868215 
L 274.045331 166.623526 
L 277.1998 165.378837 
L 280.354269 164.134148 
L 283.508738 162.889459 
L 286.663207 161.64477 
L 289.817676 160.400081 
L 292.972145 159.155392 
L 296.126614 157.910703 
L 299.281083 156.666014 
L 302.435552 155.421325 
L 305.590021 154.176637 
L 308.74449 152.931948 
L 311.898959 151.687259 
L 315.053429 150.44257 
L 318.207898 149.197881 
L 321.362367 147.953192 
L 324.516836 146.708503 
L 327.671305 145.463814 
L 330.825774 144.219125 
L 333.980243 142.974436 
L 337.134712 141.729747 
L 340.289181 140.485058 
L 343.44365 139.240369 
L 346.598119 137.99568 
L 349.752588 136.750991 
L 352.907057 135.506302 
L 356.061526 134.261613 
L 359.215995 133.016924 
L 362.370464 131.772235 
L 365.524934 130.527546 
L 368.679403 129.282857 
L 371.833872 128.038168 
L 374.988341 126.79348 
L 378.14281 125.548791 
L 381.297279 124.304102 
L 384.451748 123.059413 
L 387.606217 121.814724 
L 390.760686 120.570035 
L 393.915155 119.325346 
L 397.069624 118.080657 
L 400.224093 116.835968 
L 403.378562 115.591279 
L 406.533031 114.34659 
L 409.6875 113.101901 
L 412.841969 111.857212 
L 415.996438 110.612523 
L 419.150908 109.367834 
L 422.305377 108.123145 
L 425.459846 106.878456 
L 428.614315 105.633767 
L 431.768784 104.389078 
L 434.923253 103.144389 
" clip-path="url(#pde7584a2a8)" style="fill: none; stroke: #1f77b4; stroke-width: 2.1; stroke-linecap: square"/>
   </g>
   <g id="line2d_28">
    <path d="M 59.541435 216.961368 
L 62.695904 215.716679 
L 65.850373 214.47199 
L 69.004842 213.227301 
L 72.159311 211.982612 
L 75.31378 210.737923 
L 78.468249 209.493234 
L 81.622718 208.248545 
L 84.777187 207.003856 
L 87.931656 205.759167 
L 91.086125 204.514478 
L 94.240594 203.269789 
L 97.395063 202.0251 
L 100.549532 200.780411 
L 103.704002 199.535722 
L 106.858471 198.291033 
L 110.01294 197.046345 
L 113.167409 195.801656 
L 116.321878 194.556967 
L 119.476347 193.312278 
L 122.630816 192.067589 
L 125.785285 190.8229 
L 128.939754 189.578211 
L 132.094223 188.333522 
L 135.248692 187.088833 
L 138.403161 185.844144 
L 141.55763 184.599455 
L 144.712099 183.354766 
L 147.866568 182.110077 
L 151.021037 180.865388 
L 154.175506 179.620699 
L 157.329976 178.37601 
L 160.484445 177.131321 
L 163.638914 175.886632 
L 166.793383 174.641943 
L 169.947852 173.397254 
L 173.102321 172.152565 
L 176.25679 170.907876 
L 179.411259 169.663188 
L 182.565728 168.418499 
L 185.720197 167.17381 
L 188.874666 165.929121 
L 192.029135 164.684432 
L 195.183604 163.439743 
L 198.338073 162.195054 
L 201.492542 160.950365 
L 204.647011 159.705676 
L 207.80148 158.460987 
L 210.95595 157.216298 
L 214.110419 155.971609 
L 217.264888 154.72692 
L 220.419357 153.482231 
L 223.573826 152.237542 
L 226.728295 150.992853 
L 229.882764 149.748164 
L 233.037233 148.503475 
L 236.191702 147.258786 
L 239.346171 146.014097 
L 242.50064 144.769408 
L 245.655109 143.524719 
L 248.809578 142.280031 
L 251.964047 141.035342 
L 255.118516 139.790653 
L 258.272985 138.545964 
L 261.427455 137.301275 
L 264.581924 136.056586 
L 267.736393 134.811897 
L 270.890862 133.567208 
L 274.045331 132.322519 
L 277.1998 131.07783 
L 280.354269 129.833141 
L 283.508738 128.588452 
L 286.663207 127.343763 
L 289.817676 126.099074 
L 292.972145 124.854385 
L 296.126614 123.609696 
L 299.281083 122.365007 
L 302.435552 121.120318 
L 305.590021 119.875629 
L 308.74449 118.63094 
L 311.898959 117.386251 
L 315.053429 116.141562 
L 318.207898 114.896874 
L 321.362367 113.652185 
L 324.516836 112.407496 
L 327.671305 111.162807 
L 330.825774 109.918118 
L 333.980243 108.673429 
L 337.134712 107.42874 
L 340.289181 106.184051 
L 343.44365 104.939362 
L 346.598119 103.694673 
L 349.752588 102.449984 
L 352.907057 101.205295 
L 356.061526 99.960606 
L 359.215995 98.715917 
L 362.370464 97.471228 
L 365.524934 96.226539 
L 368.679403 94.98185 
L 371.833872 93.737161 
L 374.988341 92.492472 
L 378.14281 91.247783 
L 381.297279 90.003094 
L 384.451748 88.758405 
L 387.606217 87.513717 
L 390.760686 86.269028 
L 393.915155 85.024339 
L 397.069624 83.77965 
L 400.224093 82.534961 
L 403.378562 81.290272 
L 406.533031 80.045583 
L 409.6875 78.800894 
L 412.841969 77.556205 
L 415.996438 76.311516 
L 419.150908 75.066827 
L 422.305377 73.822138 
L 425.459846 72.577449 
L 428.614315 71.33276 
L 431.768784 70.088071 
L 434.923253 68.843382 
" clip-path="url(#pde7584a2a8)" style="fill: none; stroke: #ff7f0e; stroke-width: 2.1; stroke-linecap: square"/>
   </g>
   <g id="line2d_29">
    <path d="M 59.541435 182.660361 
L 62.695904 181.415672 
L 65.850373 180.170983 
L 69.004842 178.926294 
L 72.159311 177.681605 
L 75.31378 176.436916 
L 78.468249 175.192227 
L 81.622718 173.947538 
L 84.777187 172.702849 
L 87.931656 171.45816 
L 91.086125 170.213471 
L 94.240594 168.968782 
L 97.395063 167.724093 
L 100.549532 166.479404 
L 103.704002 165.234715 
L 106.858471 163.990026 
L 110.01294 162.745337 
L 113.167409 161.500648 
L 116.321878 160.255959 
L 119.476347 159.01127 
L 122.630816 157.766582 
L 125.785285 156.521893 
L 128.939754 155.277204 
L 132.094223 154.032515 
L 135.248692 152.787826 
L 138.403161 151.543137 
L 141.55763 150.298448 
L 144.712099 149.053759 
L 147.866568 147.80907 
L 151.021037 146.564381 
L 154.175506 145.319692 
L 157.329976 144.075003 
L 160.484445 142.830314 
L 163.638914 141.585625 
L 166.793383 140.340936 
L 169.947852 139.096247 
L 173.102321 137.851558 
L 176.25679 136.606869 
L 179.411259 135.36218 
L 182.565728 134.117491 
L 185.720197 132.872802 
L 188.874666 131.628113 
L 192.029135 130.383425 
L 195.183604 129.138736 
L 198.338073 127.894047 
L 201.492542 126.649358 
L 204.647011 125.404669 
L 207.80148 124.15998 
L 210.95595 122.915291 
L 214.110419 121.670602 
L 217.264888 120.425913 
L 220.419357 119.181224 
L 223.573826 117.936535 
L 226.728295 116.691846 
L 229.882764 115.447157 
L 233.037233 114.202468 
L 236.191702 112.957779 
L 239.346171 111.71309 
L 242.50064 110.468401 
L 245.655109 109.223712 
L 248.809578 107.979023 
L 251.964047 106.734334 
L 255.118516 105.489645 
L 258.272985 104.244956 
L 261.427455 103.000268 
L 264.581924 101.755579 
L 267.736393 100.51089 
L 270.890862 99.266201 
L 274.045331 98.021512 
L 277.1998 96.776823 
L 280.354269 95.532134 
L 283.508738 94.287445 
L 286.663207 93.042756 
L 289.817676 91.798067 
L 292.972145 90.553378 
L 296.126614 89.308689 
L 299.281083 88.064 
L 302.435552 86.819311 
L 305.590021 85.574622 
L 308.74449 84.329933 
L 311.898959 83.085244 
L 315.053429 81.840555 
L 318.207898 80.595866 
L 321.362367 79.351177 
L 324.516836 78.106488 
L 327.671305 76.861799 
L 330.825774 75.617111 
L 333.980243 74.372422 
L 337.134712 73.127733 
L 340.289181 71.883044 
L 343.44365 70.638355 
L 346.598119 69.393666 
L 349.752588 68.148977 
L 352.907057 66.904288 
L 356.061526 65.659599 
L 359.215995 64.41491 
L 362.370464 63.170221 
L 365.524934 61.925532 
L 368.679403 60.680843 
L 371.833872 59.436154 
L 374.988341 58.191465 
L 378.14281 56.946776 
L 381.297279 55.702087 
L 384.451748 54.457398 
L 387.606217 53.212709 
L 390.760686 51.96802 
L 393.915155 50.723331 
L 397.069624 49.478642 
L 400.224093 48.233954 
L 403.378562 46.989265 
L 406.533031 45.744576 
L 409.6875 44.499887 
L 412.841969 43.255198 
L 415.996438 42.010509 
L 419.150908 40.76582 
L 422.305377 39.521131 
L 425.459846 38.276442 
L 428.614315 37.031753 
L 431.768784 35.787064 
L 434.923253 34.542375 
" clip-path="url(#pde7584a2a8)" style="fill: none; stroke: #2ca02c; stroke-width: 2.1; stroke-linecap: square"/>
   </g>
   <g id="line2d_30">
    <path d="M 40.772344 133.547555 
L 453.692344 133.547555 
" clip-path="url(#pde7584a2a8)" style="fill: none; stroke-dasharray: 4.07,1.76; stroke-dashoffset: 0; stroke: #4c4c4c; stroke-width: 1.1"/>
   </g>
   <g id="patch_3">
    <path d="M 40.772344 262.098375 
L 40.772344 23.706375 
" style="fill: none; stroke: #000000; stroke-width: 0.8; stroke-linejoin: miter; stroke-linecap: square"/>
   </g>
   <g id="patch_4">
    <path d="M 40.772344 262.098375 
L 453.692344 262.098375 
" style="fill: none; stroke: #000000; stroke-width: 0.8; stroke-linejoin: miter; stroke-linecap: square"/>
   </g>
   <g id="text_16">
    <!-- 同一组 x 同时影响是否为 0 与正值大小 -->
    <g transform="translate(135.3675 17.706375) scale(0.132 -0.132)">
     <defs>
      <path id="NotoSansCJKjp-Regular-540c" d="M 1587 3917 
L 1587 3501 
L 4838 3501 
L 4838 3917 
L 1587 3917 
z
M 2355 2419 
L 4045 2419 
L 4045 1203 
L 2355 1203 
L 2355 2419 
z
M 1914 2829 
L 1914 326 
L 2355 326 
L 2355 794 
L 4493 794 
L 4493 2829 
L 1914 2829 
z
M 563 5043 
L 563 -525 
L 1030 -525 
L 1030 4589 
L 5376 4589 
L 5376 102 
C 5376 -13 5338 -51 5222 -58 
C 5114 -58 4742 -64 4339 -51 
C 4416 -173 4486 -390 4512 -518 
C 5062 -518 5389 -506 5581 -429 
C 5779 -352 5850 -198 5850 96 
L 5850 5043 
L 563 5043 
z
" transform="scale(0.015625)"/>
      <path id="NotoSansCJKjp-Regular-4e00" d="M 282 2758 
L 282 2234 
L 6144 2234 
L 6144 2758 
L 282 2758 
z
" transform="scale(0.015625)"/>
      <path id="NotoSansCJKjp-Regular-7ec4" d="M 307 371 
L 403 -90 
C 1005 64 1805 269 2566 467 
L 2522 877 
C 1702 678 858 486 307 371 
z
M 3078 5056 
L 3078 70 
L 2432 70 
L 2432 -371 
L 6138 -371 
L 6138 70 
L 5581 70 
L 5581 5056 
L 3078 5056 
z
M 3539 70 
L 3539 1325 
L 5107 1325 
L 5107 70 
L 3539 70 
z
M 3539 2982 
L 5107 2982 
L 5107 1754 
L 3539 1754 
L 3539 2982 
z
M 3539 3424 
L 3539 4614 
L 5107 4614 
L 5107 3424 
L 3539 3424 
z
M 422 2707 
C 518 2752 672 2797 1549 2906 
C 1242 2483 960 2144 832 2016 
C 621 1779 454 1619 314 1594 
C 371 1478 442 1261 467 1165 
C 602 1242 826 1306 2566 1658 
C 2560 1754 2560 1933 2573 2054 
L 1165 1798 
C 1696 2368 2214 3072 2656 3782 
L 2272 4019 
C 2138 3782 1990 3552 1843 3328 
L 915 3226 
C 1325 3776 1722 4486 2035 5178 
L 1600 5376 
C 1312 4602 806 3763 653 3552 
C 506 3334 384 3181 269 3155 
C 320 3027 397 2803 422 2707 
z
" transform="scale(0.015625)"/>
      <path id="NotoSansCJKjp-Regular-78" d="M 96 0 
L 710 0 
L 1178 813 
C 1299 1024 1408 1235 1530 1434 
L 1562 1434 
C 1696 1235 1824 1024 1939 813 
L 2451 0 
L 3091 0 
L 1946 1754 
L 3002 3475 
L 2394 3475 
L 1965 2714 
C 1856 2515 1760 2330 1658 2131 
L 1626 2131 
C 1510 2330 1389 2515 1286 2714 
L 819 3475 
L 186 3475 
L 1242 1811 
L 96 0 
z
" transform="scale(0.015625)"/>
      <path id="NotoSansCJKjp-Regular-65f6" d="M 3034 2893 
C 3373 2400 3808 1722 4013 1331 
L 4435 1574 
C 4218 1965 3776 2618 3430 3104 
L 3034 2893 
z
M 2074 2573 
L 2074 1114 
L 979 1114 
L 979 2573 
L 2074 2573 
z
M 2074 3002 
L 979 3002 
L 979 4403 
L 2074 4403 
L 2074 3002 
z
M 518 4838 
L 518 160 
L 979 160 
L 979 678 
L 2522 678 
L 2522 4838 
L 518 4838 
z
M 4890 5344 
L 4890 4096 
L 2816 4096 
L 2816 3622 
L 4890 3622 
L 4890 211 
C 4890 83 4838 38 4710 38 
C 4570 26 4096 26 3597 45 
C 3667 -96 3744 -314 3776 -448 
C 4416 -448 4826 -442 5056 -358 
C 5286 -282 5376 -141 5376 211 
L 5376 3622 
L 6157 3622 
L 6157 4096 
L 5376 4096 
L 5376 5344 
L 4890 5344 
z
" transform="scale(0.015625)"/>
      <path id="NotoSansCJKjp-Regular-5f71" d="M 1203 1939 
L 3078 1939 
L 3078 1344 
L 1203 1344 
L 1203 1939 
z
M 1165 4141 
L 3117 4141 
L 3117 3738 
L 1165 3738 
L 1165 4141 
z
M 1165 4826 
L 3117 4826 
L 3117 4435 
L 1165 4435 
L 1165 4826 
z
M 979 838 
C 819 499 557 154 262 -83 
C 365 -141 544 -262 621 -326 
C 909 -64 1210 339 1389 736 
L 979 838 
z
M 5421 5267 
C 5062 4774 4397 4250 3840 3949 
C 3962 3859 4102 3712 4186 3610 
C 4781 3955 5446 4518 5875 5082 
L 5421 5267 
z
M 5594 3494 
C 5197 2976 4474 2426 3872 2106 
C 3994 2016 4134 1869 4218 1766 
C 4858 2131 5574 2714 6035 3302 
L 5594 3494 
z
M 730 5133 
L 730 3430 
L 1901 3430 
L 1901 3040 
L 294 3040 
L 294 2656 
L 3942 2656 
L 3942 3040 
L 2342 3040 
L 2342 3430 
L 3571 3430 
L 3571 5133 
L 730 5133 
z
M 781 2278 
L 781 1005 
L 1901 1005 
L 1901 -45 
C 1901 -109 1888 -128 1805 -128 
C 1722 -141 1485 -134 1197 -128 
C 1261 -237 1344 -397 1376 -512 
C 1734 -512 1971 -512 2138 -442 
C 2298 -378 2342 -269 2342 -51 
L 2342 1005 
L 3520 1005 
L 3520 2278 
L 781 2278 
z
M 5760 1683 
C 5357 979 4595 346 3795 -32 
C 3661 211 3366 570 3117 832 
L 2752 646 
C 3002 378 3290 0 3424 -243 
L 3629 -128 
C 3744 -237 3878 -397 3955 -506 
C 4877 -64 5722 659 6227 1510 
L 5760 1683 
z
" transform="scale(0.015625)"/>
      <path id="NotoSansCJKjp-Regular-54cd" d="M 474 4768 
L 474 576 
L 902 576 
L 902 1190 
L 2074 1190 
L 2074 4768 
L 474 4768 
z
M 902 4320 
L 1664 4320 
L 1664 1638 
L 902 1638 
L 902 4320 
z
M 4006 5389 
C 3930 5069 3789 4634 3648 4301 
L 2554 4301 
L 2554 -467 
L 3008 -467 
L 3008 3878 
L 5510 3878 
L 5510 58 
C 5510 -26 5485 -51 5402 -51 
C 5318 -58 5056 -58 4774 -45 
C 4832 -166 4902 -365 4922 -486 
C 5318 -493 5587 -480 5760 -403 
C 5926 -326 5978 -192 5978 51 
L 5978 4301 
L 4147 4301 
C 4282 4595 4429 4960 4557 5274 
L 4006 5389 
z
M 3878 2790 
L 4640 2790 
L 4640 1376 
L 3878 1376 
L 3878 2790 
z
M 3539 3149 
L 3539 653 
L 3878 653 
L 3878 1018 
L 4986 1018 
L 4986 3149 
L 3539 3149 
z
" transform="scale(0.015625)"/>
      <path id="NotoSansCJKjp-Regular-662f" d="M 1510 3885 
L 4845 3885 
L 4845 3360 
L 1510 3360 
L 1510 3885 
z
M 1510 4749 
L 4845 4749 
L 4845 4230 
L 1510 4230 
L 1510 4749 
z
M 1050 5114 
L 1050 2995 
L 5331 2995 
L 5331 5114 
L 1050 5114 
z
M 1478 1914 
C 1312 979 902 256 224 -186 
C 333 -256 518 -435 589 -518 
C 1011 -218 1344 192 1587 698 
C 2112 -186 2938 -384 4230 -384 
L 5984 -384 
C 6010 -250 6086 -38 6163 77 
C 5830 70 4493 64 4250 70 
C 3981 70 3725 77 3494 102 
L 3494 986 
L 5619 986 
L 5619 1408 
L 3494 1408 
L 3494 2125 
L 6035 2125 
L 6035 2554 
L 378 2554 
L 378 2125 
L 3014 2125 
L 3014 186 
C 2458 326 2048 627 1798 1216 
C 1862 1414 1914 1626 1958 1850 
L 1478 1914 
z
" transform="scale(0.015625)"/>
      <path id="NotoSansCJKjp-Regular-5426" d="M 3706 3616 
C 4442 3309 5331 2790 5792 2419 
L 6138 2784 
C 5664 3136 4781 3642 4051 3936 
L 3706 3616 
z
M 1133 1907 
L 1133 -512 
L 1626 -512 
L 1626 -205 
L 4800 -205 
L 4800 -499 
L 5318 -499 
L 5318 1907 
L 1133 1907 
z
M 1626 224 
L 1626 1485 
L 4800 1485 
L 4800 224 
L 1626 224 
z
M 422 5011 
L 422 4557 
L 3258 4557 
C 2515 3776 1363 3142 224 2778 
C 333 2682 493 2458 563 2342 
C 1389 2656 2234 3098 2950 3648 
L 2950 2093 
L 3437 2093 
L 3437 4058 
C 3603 4218 3763 4384 3904 4557 
L 5978 4557 
L 5978 5011 
L 422 5011 
z
" transform="scale(0.015625)"/>
      <path id="NotoSansCJKjp-Regular-4e3a" d="M 1037 5018 
C 1293 4717 1581 4307 1709 4045 
L 2144 4256 
C 2010 4518 1709 4915 1446 5197 
L 1037 5018 
z
M 3194 2374 
C 3520 1984 3898 1446 4064 1107 
L 4486 1338 
C 4314 1670 3923 2189 3590 2566 
L 3194 2374 
z
M 2630 5363 
L 2630 4608 
C 2630 4365 2624 4109 2605 3834 
L 525 3834 
L 525 3354 
L 2554 3354 
C 2394 2214 1888 928 352 -70 
C 467 -147 646 -314 730 -422 
C 2368 666 2893 2099 3046 3354 
L 5254 3354 
C 5165 1178 5062 320 4870 122 
C 4800 45 4730 26 4589 32 
C 4435 32 4032 32 3597 70 
C 3693 -70 3757 -282 3763 -429 
C 4160 -448 4563 -461 4787 -442 
C 5024 -416 5171 -365 5318 -179 
C 5568 115 5658 1018 5760 3584 
C 5760 3661 5766 3834 5766 3834 
L 3098 3834 
C 3110 4102 3117 4365 3117 4602 
L 3117 5363 
L 2630 5363 
z
" transform="scale(0.015625)"/>
      <path id="NotoSansCJKjp-Regular-4e0e" d="M 1939 5389 
C 1773 4429 1485 3098 1267 2317 
L 1760 2272 
L 1843 2605 
L 4525 2605 
C 4486 2246 4454 1939 4416 1664 
L 346 1664 
L 346 1210 
L 4346 1210 
C 4230 518 4102 160 3949 26 
C 3866 -45 3776 -51 3616 -51 
C 3437 -51 2957 -51 2470 0 
C 2560 -134 2624 -339 2637 -480 
C 3098 -512 3558 -518 3789 -506 
C 4045 -486 4198 -442 4365 -282 
C 4570 -83 4710 346 4845 1210 
L 6074 1210 
L 6074 1664 
L 4902 1664 
C 4947 1997 4986 2374 5030 2816 
C 5037 2886 5050 3053 5050 3053 
L 1952 3053 
L 2163 4000 
L 5402 4000 
L 5402 4461 
L 2259 4461 
L 2432 5338 
L 1939 5389 
z
" transform="scale(0.015625)"/>
      <path id="NotoSansCJKjp-Regular-6b63" d="M 1203 3264 
L 1203 243 
L 333 243 
L 333 -224 
L 6080 -224 
L 6080 243 
L 3616 243 
L 3616 2259 
L 5619 2259 
L 5619 2726 
L 3616 2726 
L 3616 4435 
L 5869 4435 
L 5869 4909 
L 576 4909 
L 576 4435 
L 3110 4435 
L 3110 243 
L 1696 243 
L 1696 3264 
L 1203 3264 
z
" transform="scale(0.015625)"/>
      <path id="NotoSansCJKjp-Regular-503c" d="M 3834 5376 
C 3814 5184 3782 4954 3750 4723 
L 2106 4723 
L 2106 4294 
L 3674 4294 
C 3635 4077 3597 3872 3552 3699 
L 2445 3699 
L 2445 90 
L 1830 90 
L 1830 -326 
L 6131 -326 
L 6131 90 
L 5562 90 
L 5562 3699 
L 3987 3699 
C 4038 3872 4090 4077 4134 4294 
L 5939 4294 
L 5939 4723 
L 4230 4723 
L 4346 5344 
L 3834 5376 
z
M 2880 90 
L 2880 621 
L 5114 621 
L 5114 90 
L 2880 90 
z
M 2880 2426 
L 5114 2426 
L 5114 1875 
L 2880 1875 
L 2880 2426 
z
M 2880 2784 
L 2880 3322 
L 5114 3322 
L 5114 2784 
L 2880 2784 
z
M 2880 1530 
L 5114 1530 
L 5114 973 
L 2880 973 
L 2880 1530 
z
M 1690 5370 
C 1350 4397 794 3443 205 2816 
C 288 2701 422 2451 474 2342 
C 659 2547 845 2784 1018 3040 
L 1018 -512 
L 1466 -512 
L 1466 3770 
C 1722 4230 1946 4730 2131 5229 
L 1690 5370 
z
" transform="scale(0.015625)"/>
      <path id="NotoSansCJKjp-Regular-5927" d="M 2950 5370 
C 2944 4864 2950 4218 2854 3539 
L 397 3539 
L 397 3046 
L 2771 3046 
C 2515 1830 1875 589 275 -102 
C 410 -205 563 -378 640 -499 
C 2202 218 2893 1446 3206 2682 
C 3706 1222 4531 90 5773 -499 
C 5856 -358 6010 -160 6131 -51 
C 4890 467 4051 1632 3603 3046 
L 6029 3046 
L 6029 3539 
L 3366 3539 
C 3456 4211 3462 4851 3469 5370 
L 2950 5370 
z
" transform="scale(0.015625)"/>
      <path id="NotoSansCJKjp-Regular-5c0f" d="M 2970 5286 
L 2970 154 
C 2970 26 2918 -13 2790 -19 
C 2656 -26 2195 -32 1728 -13 
C 1805 -147 1894 -378 1926 -512 
C 2528 -518 2925 -506 3162 -422 
C 3392 -346 3488 -198 3488 154 
L 3488 5286 
L 2970 5286 
z
M 4512 3654 
C 5062 2733 5581 1536 5728 774 
L 6246 986 
C 6080 1754 5536 2931 4973 3827 
L 4512 3654 
z
M 1293 3782 
C 1133 2925 774 1818 205 1139 
C 339 1082 550 966 659 883 
C 1242 1594 1619 2752 1830 3693 
L 1293 3782 
z
" transform="scale(0.015625)"/>
     </defs>
     <use xlink:href="#NotoSansCJKjp-Regular-540c"/>
     <use xlink:href="#NotoSansCJKjp-Regular-4e00" transform="translate(99.999985 0)"/>
     <use xlink:href="#NotoSansCJKjp-Regular-7ec4" transform="translate(199.999969 0)"/>
     <use xlink:href="#NotoSansCJKjp-Regular-20" transform="translate(299.999954 0)"/>
     <use xlink:href="#NotoSansCJKjp-Regular-78" transform="translate(322.399948 0)"/>
     <use xlink:href="#NotoSansCJKjp-Regular-20" transform="translate(372.199936 0)"/>
     <use xlink:href="#NotoSansCJKjp-Regular-540c" transform="translate(394.59993 0)"/>
     <use xlink:href="#NotoSansCJKjp-Regular-65f6" transform="translate(494.599915 0)"/>
     <use xlink:href="#NotoSansCJKjp-Regular-5f71" transform="translate(594.599899 0)"/>
     <use xlink:href="#NotoSansCJKjp-Regular-54cd" transform="translate(694.599884 0)"/>
     <use xlink:href="#NotoSansCJKjp-Regular-662f" transform="translate(794.599869 0)"/>
     <use xlink:href="#NotoSansCJKjp-Regular-5426" transform="translate(894.599854 0)"/>
     <use xlink:href="#NotoSansCJKjp-Regular-4e3a" transform="translate(994.599838 0)"/>
     <use xlink:href="#NotoSansCJKjp-Regular-20" transform="translate(1094.599823 0)"/>
     <use xlink:href="#NotoSansCJKjp-Regular-30" transform="translate(1116.999817 0)"/>
     <use xlink:href="#NotoSansCJKjp-Regular-20" transform="translate(1172.499802 0)"/>
     <use xlink:href="#NotoSansCJKjp-Regular-4e0e" transform="translate(1194.899796 0)"/>
     <use xlink:href="#NotoSansCJKjp-Regular-6b63" transform="translate(1294.89978 0)"/>
     <use xlink:href="#NotoSansCJKjp-Regular-503c" transform="translate(1394.899765 0)"/>
     <use xlink:href="#NotoSansCJKjp-Regular-5927" transform="translate(1494.89975 0)"/>
     <use xlink:href="#NotoSansCJKjp-Regular-5c0f" transform="translate(1594.899734 0)"/>
    </g>
   </g>
   <g id="legend_1">
    <g id="line2d_31">
     <path d="M 50.672344 38.511687 
L 61.672344 38.511687 
L 72.672344 38.511687 
" style="fill: none; stroke: #1f77b4; stroke-width: 2.1; stroke-linecap: square"/>
    </g>
    <g id="text_17">
     <!-- 抵押能力较低 -->
     <g transform="translate(81.472344 42.361687) scale(0.11 -0.11)">
      <defs>
       <path id="NotoSansCJKjp-Regular-62b5" d="M 2163 141 
L 2163 -294 
L 4698 -294 
L 4698 141 
L 2163 141 
z
M 2074 992 
L 2182 538 
C 2790 646 3616 787 4397 922 
L 4365 1350 
L 3142 1152 
L 3142 2758 
L 4416 2758 
C 4570 922 4902 -326 5638 -352 
C 5882 -352 6106 -83 6234 883 
C 6144 922 5958 1037 5875 1126 
C 5830 544 5754 211 5638 218 
C 5261 237 4998 1274 4870 2758 
L 6048 2758 
L 6048 3206 
L 4838 3206 
C 4806 3642 4787 4109 4781 4595 
C 5158 4666 5510 4742 5811 4832 
L 5466 5216 
C 4896 5030 3930 4864 3053 4755 
L 2675 4877 
L 2675 1082 
L 2074 992 
z
M 3142 3206 
L 3142 4365 
C 3526 4403 3930 4454 4320 4518 
C 4333 4058 4352 3622 4378 3206 
L 3142 3206 
z
M 1197 5376 
L 1197 4083 
L 282 4083 
L 282 3629 
L 1197 3629 
L 1197 2259 
L 179 1984 
L 320 1517 
L 1197 1779 
L 1197 51 
C 1197 -38 1158 -64 1075 -70 
C 992 -70 723 -70 435 -64 
C 499 -192 563 -390 582 -506 
C 1011 -512 1267 -493 1440 -422 
C 1600 -346 1664 -218 1664 58 
L 1664 1920 
L 2477 2170 
L 2419 2618 
L 1664 2394 
L 1664 3629 
L 2406 3629 
L 2406 4083 
L 1664 4083 
L 1664 5376 
L 1197 5376 
z
" transform="scale(0.015625)"/>
       <path id="NotoSansCJKjp-Regular-62bc" d="M 3053 3136 
L 4026 3136 
L 4026 2150 
L 3053 2150 
L 3053 3136 
z
M 3053 3578 
L 3053 4538 
L 4026 4538 
L 4026 3578 
L 3053 3578 
z
M 5472 3136 
L 5472 2150 
L 4480 2150 
L 4480 3136 
L 5472 3136 
z
M 5472 3578 
L 4480 3578 
L 4480 4538 
L 5472 4538 
L 5472 3578 
z
M 2586 4986 
L 2586 1350 
L 3053 1350 
L 3053 1702 
L 4026 1702 
L 4026 -506 
L 4480 -506 
L 4480 1702 
L 5472 1702 
L 5472 1370 
L 5952 1370 
L 5952 4986 
L 2586 4986 
z
M 1114 5376 
L 1114 4083 
L 326 4083 
L 326 3635 
L 1114 3635 
L 1114 2221 
L 243 1990 
L 384 1523 
L 1114 1734 
L 1114 77 
C 1114 -13 1088 -38 1005 -38 
C 928 -38 678 -45 403 -38 
C 461 -160 525 -352 544 -467 
C 947 -467 1197 -461 1357 -384 
C 1517 -314 1581 -186 1581 77 
L 1581 1875 
L 2323 2106 
L 2259 2541 
L 1581 2349 
L 1581 3635 
L 2285 3635 
L 2285 4083 
L 1581 4083 
L 1581 5376 
L 1114 5376 
z
" transform="scale(0.015625)"/>
       <path id="NotoSansCJKjp-Regular-80fd" d="M 2131 4774 
C 2278 4576 2432 4339 2560 4109 
L 1248 4058 
C 1446 4422 1651 4864 1824 5261 
L 1331 5382 
C 1197 4979 966 4442 742 4038 
L 256 4019 
L 294 3552 
C 960 3590 1882 3635 2784 3693 
C 2854 3552 2912 3424 2950 3309 
L 3366 3494 
C 3226 3891 2867 4486 2528 4928 
L 2131 4774 
z
M 2451 2688 
L 2451 2138 
L 1088 2138 
L 1088 2688 
L 2451 2688 
z
M 640 3098 
L 640 -506 
L 1088 -506 
L 1088 800 
L 2451 800 
L 2451 51 
C 2451 -32 2432 -58 2349 -58 
C 2253 -64 1984 -64 1683 -51 
C 1747 -179 1818 -365 1843 -493 
C 2246 -493 2522 -486 2701 -416 
C 2874 -339 2925 -205 2925 45 
L 2925 3098 
L 640 3098 
z
M 1088 1760 
L 2451 1760 
L 2451 1178 
L 1088 1178 
L 1088 1760 
z
M 5491 4896 
C 5126 4704 4550 4474 4006 4288 
L 4006 5363 
L 3526 5363 
L 3526 3238 
C 3526 2707 3686 2566 4307 2566 
C 4429 2566 5267 2566 5408 2566 
C 5920 2566 6061 2771 6118 3558 
C 5984 3590 5786 3661 5683 3744 
C 5658 3110 5613 3002 5363 3002 
C 5184 3002 4480 3002 4352 3002 
C 4058 3002 4006 3040 4006 3245 
L 4006 3904 
C 4621 4083 5306 4307 5811 4538 
L 5491 4896 
z
M 5568 2042 
C 5197 1805 4582 1555 4000 1363 
L 4000 2387 
L 3526 2387 
L 3526 224 
C 3526 -314 3693 -454 4320 -454 
C 4454 -454 5318 -454 5459 -454 
C 5997 -454 6138 -224 6195 634 
C 6061 666 5875 742 5760 819 
C 5734 96 5690 -26 5421 -26 
C 5229 -26 4506 -26 4365 -26 
C 4058 -26 4000 13 4000 224 
L 4000 966 
C 4646 1146 5382 1395 5882 1683 
L 5568 2042 
z
" transform="scale(0.015625)"/>
       <path id="NotoSansCJKjp-Regular-529b" d="M 2624 5363 
L 2624 4256 
L 2624 3981 
L 531 3981 
L 531 3488 
L 2598 3488 
C 2502 2285 2080 877 339 -160 
C 461 -243 634 -422 710 -538 
C 2573 595 3008 2157 3098 3488 
L 5293 3488 
C 5165 1229 5024 320 4794 102 
C 4717 19 4634 0 4499 0 
C 4339 0 3930 6 3488 45 
C 3584 -96 3642 -307 3654 -448 
C 4051 -467 4461 -480 4678 -461 
C 4928 -435 5075 -390 5229 -198 
C 5517 115 5645 1075 5792 3725 
C 5798 3795 5805 3981 5805 3981 
L 3123 3981 
L 3123 4256 
L 3123 5363 
L 2624 5363 
z
" transform="scale(0.015625)"/>
       <path id="NotoSansCJKjp-Regular-8f83" d="M 4883 3661 
C 5222 3213 5619 2611 5798 2240 
L 6176 2483 
C 5990 2848 5581 3430 5235 3859 
L 4883 3661 
z
M 3667 3853 
C 3456 3386 3110 2886 2784 2547 
C 2880 2458 3034 2272 3098 2189 
C 3443 2573 3827 3174 4096 3712 
L 3667 3853 
z
M 518 2125 
C 570 2176 768 2214 979 2214 
L 1581 2214 
L 1581 1267 
L 256 1069 
L 352 602 
L 1581 813 
L 1581 -480 
L 2010 -480 
L 2010 890 
L 2675 1011 
L 2656 1440 
L 2010 1331 
L 2010 2214 
L 2560 2214 
L 2560 2650 
L 2010 2650 
L 2010 3642 
L 1581 3642 
L 1581 2650 
L 947 2650 
C 1126 3091 1306 3616 1459 4160 
L 2547 4160 
L 2547 4621 
L 1581 4621 
C 1632 4838 1683 5062 1722 5280 
L 1254 5376 
C 1222 5126 1171 4870 1114 4621 
L 301 4621 
L 301 4160 
L 1005 4160 
C 870 3648 736 3226 672 3066 
C 563 2784 480 2579 371 2547 
C 422 2432 493 2214 518 2125 
z
M 3936 5229 
C 4090 4992 4269 4672 4358 4461 
L 2854 4461 
L 2854 4019 
L 6029 4019 
L 6029 4461 
L 4435 4461 
L 4794 4640 
C 4704 4845 4518 5171 4346 5408 
L 3936 5229 
z
M 5011 2669 
C 4890 2182 4698 1741 4448 1344 
C 4173 1741 3962 2189 3808 2656 
L 3386 2541 
C 3578 1958 3840 1427 4160 960 
C 3770 493 3270 109 2662 -179 
C 2765 -262 2906 -429 2970 -518 
C 3558 -230 4045 141 4442 595 
C 4832 134 5293 -237 5830 -480 
C 5907 -358 6048 -179 6157 -90 
C 5606 134 5126 506 4730 973 
C 5050 1434 5293 1958 5453 2560 
L 5011 2669 
z
" transform="scale(0.015625)"/>
       <path id="NotoSansCJKjp-Regular-4f4e" d="M 2093 83 
L 2093 -346 
L 4819 -346 
L 4819 83 
L 2093 83 
z
M 1901 902 
L 2010 448 
C 2650 563 3501 730 4307 883 
L 4282 1312 
C 3776 1216 3264 1126 2803 1043 
L 2803 2694 
L 4211 2694 
C 4429 992 4896 -262 5619 -262 
C 6029 -262 6195 -26 6259 845 
C 6144 890 5978 992 5875 1094 
C 5850 467 5792 205 5658 205 
C 5267 205 4877 1222 4685 2694 
L 6138 2694 
L 6138 3136 
L 4634 3136 
C 4595 3565 4570 4019 4563 4493 
C 5037 4582 5472 4685 5837 4794 
L 5466 5165 
C 4819 4941 3686 4742 2669 4621 
L 2336 4730 
L 2336 966 
L 1901 902 
z
M 2803 4230 
C 3219 4282 3661 4339 4090 4410 
C 4102 3974 4128 3546 4166 3136 
L 2803 3136 
L 2803 4230 
z
M 1690 5350 
C 1331 4378 736 3418 102 2797 
C 192 2688 326 2438 371 2323 
C 595 2554 813 2822 1024 3117 
L 1024 -499 
L 1485 -499 
L 1485 3840 
C 1734 4282 1965 4749 2144 5216 
L 1690 5350 
z
" transform="scale(0.015625)"/>
      </defs>
      <use xlink:href="#NotoSansCJKjp-Regular-62b5"/>
      <use xlink:href="#NotoSansCJKjp-Regular-62bc" transform="translate(99.999985 0)"/>
      <use xlink:href="#NotoSansCJKjp-Regular-80fd" transform="translate(199.999969 0)"/>
      <use xlink:href="#NotoSansCJKjp-Regular-529b" transform="translate(299.999954 0)"/>
      <use xlink:href="#NotoSansCJKjp-Regular-8f83" transform="translate(399.999939 0)"/>
      <use xlink:href="#NotoSansCJKjp-Regular-4f4e" transform="translate(499.999924 0)"/>
     </g>
    </g>
    <g id="line2d_32">
     <path d="M 50.672344 55.286687 
L 61.672344 55.286687 
L 72.672344 55.286687 
" style="fill: none; stroke: #ff7f0e; stroke-width: 2.1; stroke-linecap: square"/>
    </g>
    <g id="text_18">
     <!-- 抵押能力中等 -->
     <g transform="translate(81.472344 59.136687) scale(0.11 -0.11)">
      <defs>
       <path id="NotoSansCJKjp-Regular-4e2d" d="M 2931 5376 
L 2931 4230 
L 614 4230 
L 614 1190 
L 1094 1190 
L 1094 1587 
L 2931 1587 
L 2931 -506 
L 3437 -506 
L 3437 1587 
L 5280 1587 
L 5280 1222 
L 5773 1222 
L 5773 4230 
L 3437 4230 
L 3437 5376 
L 2931 5376 
z
M 1094 2061 
L 1094 3763 
L 2931 3763 
L 2931 2061 
L 1094 2061 
z
M 5280 2061 
L 3437 2061 
L 3437 3763 
L 5280 3763 
L 5280 2061 
z
" transform="scale(0.015625)"/>
       <path id="NotoSansCJKjp-Regular-7b49" d="M 3699 5408 
C 3514 4864 3168 4352 2771 4019 
L 2944 3910 
L 2944 3469 
L 941 3469 
L 941 3066 
L 2944 3066 
L 2944 2490 
L 307 2490 
L 307 2067 
L 4256 2067 
L 4256 1504 
L 512 1504 
L 512 1082 
L 4256 1082 
L 4256 64 
C 4256 -26 4224 -51 4109 -58 
C 3994 -64 3616 -64 3181 -51 
C 3251 -179 3334 -371 3360 -506 
C 3885 -506 4243 -499 4461 -435 
C 4678 -358 4742 -224 4742 58 
L 4742 1082 
L 5946 1082 
L 5946 1504 
L 4742 1504 
L 4742 2067 
L 6118 2067 
L 6118 2490 
L 3437 2490 
L 3437 3066 
L 5510 3066 
L 5510 3469 
L 3437 3469 
L 3437 3910 
L 3334 3910 
C 3475 4064 3610 4237 3731 4429 
L 4166 4429 
C 4358 4179 4544 3878 4621 3667 
L 5037 3846 
C 4966 4013 4832 4224 4685 4429 
L 6048 4429 
L 6048 4838 
L 3962 4838 
C 4038 4986 4102 5139 4160 5299 
L 3699 5408 
z
M 1427 806 
C 1843 531 2304 122 2515 -179 
L 2886 122 
C 2669 422 2195 819 1779 1082 
L 1427 806 
z
M 1190 5408 
C 973 4838 614 4282 211 3904 
C 326 3846 525 3712 614 3635 
C 826 3846 1030 4122 1222 4429 
L 1478 4429 
C 1600 4179 1715 3891 1754 3699 
L 2182 3859 
C 2144 4006 2054 4224 1958 4429 
L 3123 4429 
L 3123 4838 
L 1446 4838 
C 1517 4986 1587 5133 1645 5286 
L 1190 5408 
z
" transform="scale(0.015625)"/>
      </defs>
      <use xlink:href="#NotoSansCJKjp-Regular-62b5"/>
      <use xlink:href="#NotoSansCJKjp-Regular-62bc" transform="translate(99.999985 0)"/>
      <use xlink:href="#NotoSansCJKjp-Regular-80fd" transform="translate(199.999969 0)"/>
      <use xlink:href="#NotoSansCJKjp-Regular-529b" transform="translate(299.999954 0)"/>
      <use xlink:href="#NotoSansCJKjp-Regular-4e2d" transform="translate(399.999939 0)"/>
      <use xlink:href="#NotoSansCJKjp-Regular-7b49" transform="translate(499.999924 0)"/>
     </g>
    </g>
    <g id="line2d_33">
     <path d="M 50.672344 72.061687 
L 61.672344 72.061687 
L 72.672344 72.061687 
" style="fill: none; stroke: #2ca02c; stroke-width: 2.1; stroke-linecap: square"/>
    </g>
    <g id="text_19">
     <!-- 抵押能力较高 -->
     <g transform="translate(81.472344 75.911687) scale(0.11 -0.11)">
      <defs>
       <path id="NotoSansCJKjp-Regular-9ad8" d="M 1939 3635 
L 4448 3635 
L 4448 3021 
L 1939 3021 
L 1939 3635 
z
M 1478 3987 
L 1478 2662 
L 4928 2662 
L 4928 3987 
L 1478 3987 
z
M 2918 5382 
L 2918 4768 
L 416 4768 
L 416 4346 
L 5978 4346 
L 5978 4768 
L 3411 4768 
L 3411 5382 
L 2918 5382 
z
M 704 2266 
L 704 -512 
L 1171 -512 
L 1171 1856 
L 5261 1856 
L 5261 70 
C 5261 -19 5235 -45 5120 -51 
C 5018 -58 4653 -58 4237 -45 
C 4301 -179 4371 -365 4390 -499 
C 4922 -499 5267 -499 5478 -422 
C 5683 -346 5741 -205 5741 64 
L 5741 2266 
L 704 2266 
z
M 2406 1088 
L 3994 1088 
L 3994 435 
L 2406 435 
L 2406 1088 
z
M 1984 1440 
L 1984 -243 
L 2406 -243 
L 2406 83 
L 4422 83 
L 4422 1440 
L 1984 1440 
z
" transform="scale(0.015625)"/>
      </defs>
      <use xlink:href="#NotoSansCJKjp-Regular-62b5"/>
      <use xlink:href="#NotoSansCJKjp-Regular-62bc" transform="translate(99.999985 0)"/>
      <use xlink:href="#NotoSansCJKjp-Regular-80fd" transform="translate(199.999969 0)"/>
      <use xlink:href="#NotoSansCJKjp-Regular-529b" transform="translate(299.999954 0)"/>
      <use xlink:href="#NotoSansCJKjp-Regular-8f83" transform="translate(399.999939 0)"/>
      <use xlink:href="#NotoSansCJKjp-Regular-9ad8" transform="translate(499.999924 0)"/>
     </g>
    </g>
   </g>
  </g>
 </g>
 <defs>
  <clipPath id="pde7584a2a8">
   <rect x="40.772344" y="23.706375" width="412.92" height="238.392"/>
  </clipPath>
 </defs>
</svg>
