<?xml version="1.0" encoding="utf-8" standalone="no"?>
<!DOCTYPE svg PUBLIC "-//W3C//DTD SVG 1.1//EN"
  "http://www.w3.org/Graphics/SVG/1.1/DTD/svg11.dtd">
<svg xmlns:xlink="http://www.w3.org/1999/xlink" width="453.702656pt" height="297.304375pt" viewBox="0 0 453.702656 297.304375" xmlns="http://www.w3.org/2000/svg" version="1.1">
 <metadata>
  <rdf:RDF xmlns:dc="http://purl.org/dc/elements/1.1/" xmlns:cc="http://creativecommons.org/ns#" xmlns:rdf="http://www.w3.org/1999/02/22-rdf-syntax-ns#">
   <cc:Work>
    <dc:type rdf:resource="http://purl.org/dc/dcmitype/StillImage"/>
    <dc:date>2026-04-29T04:11:31.894660</dc:date>
    <dc:format>image/svg+xml</dc:format>
    <dc:creator>
     <cc:Agent>
      <dc:title>Matplotlib v3.10.8, https://matplotlib.org/</dc:title>
     </cc:Agent>
    </dc:creator>
   </cc:Work>
  </rdf:RDF>
 </metadata>
 <defs>
  <style type="text/css">*{stroke-linejoin: round; stroke-linecap: butt}</style>
 </defs>
 <g id="figure_1">
  <g id="patch_1">
   <path d="M 0 297.304375 
L 453.702656 297.304375 
L 453.702656 0 
L 0 0 
z
" style="fill: #ffffff"/>
  </g>
  <g id="axes_1">
   <g id="patch_2">
    <path d="M 44.742656 256.554375 
L 446.502656 256.554375 
L 446.502656 23.706375 
L 44.742656 23.706375 
z
" style="fill: #ffffff"/>
   </g>
   <g id="matplotlib.axis_1">
    <g id="xtick_1">
     <g id="line2d_1">
      <path d="M 63.004474 256.554375 
L 63.004474 23.706375 
" clip-path="url(#paf0a31f323)" style="fill: none; stroke: #b0b0b0; stroke-opacity: 0.25; stroke-width: 0.8; stroke-linecap: square"/>
     </g>
     <g id="line2d_2">
      <defs>
       <path id="m72c43dc9f5" d="M 0 0 
L 0 3.5 
" style="stroke: #000000; stroke-width: 0.8"/>
      </defs>
      <g>
       <use xlink:href="#m72c43dc9f5" x="63.004474" y="256.554375" style="stroke: #000000; stroke-width: 0.8"/>
      </g>
     </g>
     <g id="text_1">
      <!-- -3 -->
      <g transform="translate(58.043303 272.309688) scale(0.11 -0.11)">
       <defs>
        <path id="NotoSansCJKjp-Regular-2d" d="M 294 1568 
L 1933 1568 
L 1933 2016 
L 294 2016 
L 294 1568 
z
" transform="scale(0.015625)"/>
        <path id="NotoSansCJKjp-Regular-33" d="M 1683 -83 
C 2522 -83 3194 416 3194 1254 
C 3194 1901 2752 2310 2202 2445 
L 2202 2477 
C 2701 2650 3034 3034 3034 3603 
C 3034 4346 2458 4774 1664 4774 
C 1126 4774 710 4538 358 4218 
L 672 3846 
C 941 4115 1267 4301 1645 4301 
C 2138 4301 2438 4006 2438 3558 
C 2438 3053 2112 2662 1139 2662 
L 1139 2214 
C 2227 2214 2598 1843 2598 1274 
C 2598 736 2208 403 1645 403 
C 1114 403 762 659 486 941 
L 186 563 
C 493 224 954 -83 1683 -83 
z
" transform="scale(0.015625)"/>
       </defs>
       <use xlink:href="#NotoSansCJKjp-Regular-2d"/>
       <use xlink:href="#NotoSansCJKjp-Regular-33" transform="translate(34.699997 0)"/>
      </g>
     </g>
    </g>
    <g id="xtick_2">
     <g id="line2d_3">
      <path d="M 115.181098 256.554375 
L 115.181098 23.706375 
" clip-path="url(#paf0a31f323)" style="fill: none; stroke: #b0b0b0; stroke-opacity: 0.25; stroke-width: 0.8; stroke-linecap: square"/>
     </g>
     <g id="line2d_4">
      <g>
       <use xlink:href="#m72c43dc9f5" x="115.181098" y="256.554375" style="stroke: #000000; stroke-width: 0.8"/>
      </g>
     </g>
     <g id="text_2">
      <!-- -2 -->
      <g transform="translate(110.219926 272.309688) scale(0.11 -0.11)">
       <defs>
        <path id="NotoSansCJKjp-Regular-32" d="M 282 0 
L 3232 0 
L 3232 506 
L 1933 506 
C 1696 506 1408 480 1165 461 
C 2266 1504 3008 2458 3008 3398 
C 3008 4230 2477 4774 1638 4774 
C 1043 4774 634 4506 256 4090 
L 595 3757 
C 858 4070 1184 4301 1568 4301 
C 2150 4301 2432 3910 2432 3373 
C 2432 2566 1754 1632 282 346 
L 282 0 
z
" transform="scale(0.015625)"/>
       </defs>
       <use xlink:href="#NotoSansCJKjp-Regular-2d"/>
       <use xlink:href="#NotoSansCJKjp-Regular-32" transform="translate(34.699997 0)"/>
      </g>
     </g>
    </g>
    <g id="xtick_3">
     <g id="line2d_5">
      <path d="M 167.357721 256.554375 
L 167.357721 23.706375 
" clip-path="url(#paf0a31f323)" style="fill: none; stroke: #b0b0b0; stroke-opacity: 0.25; stroke-width: 0.8; stroke-linecap: square"/>
     </g>
     <g id="line2d_6">
      <g>
       <use xlink:href="#m72c43dc9f5" x="167.357721" y="256.554375" style="stroke: #000000; stroke-width: 0.8"/>
      </g>
     </g>
     <g id="text_3">
      <!-- -1 -->
      <g transform="translate(162.396549 272.309688) scale(0.11 -0.11)">
       <defs>
        <path id="NotoSansCJKjp-Regular-31" d="M 563 0 
L 3136 0 
L 3136 486 
L 2195 486 
L 2195 4691 
L 1747 4691 
C 1491 4544 1190 4435 774 4358 
L 774 3987 
L 1613 3987 
L 1613 486 
L 563 486 
L 563 0 
z
" transform="scale(0.015625)"/>
       </defs>
       <use xlink:href="#NotoSansCJKjp-Regular-2d"/>
       <use xlink:href="#NotoSansCJKjp-Regular-31" transform="translate(34.699997 0)"/>
      </g>
     </g>
    </g>
    <g id="xtick_4">
     <g id="line2d_7">
      <path d="M 219.534345 256.554375 
L 219.534345 23.706375 
" clip-path="url(#paf0a31f323)" style="fill: none; stroke: #b0b0b0; stroke-opacity: 0.25; stroke-width: 0.8; stroke-linecap: square"/>
     </g>
     <g id="line2d_8">
      <g>
       <use xlink:href="#m72c43dc9f5" x="219.534345" y="256.554375" style="stroke: #000000; stroke-width: 0.8"/>
      </g>
     </g>
     <g id="text_4">
      <!-- 0 -->
      <g transform="translate(216.481845 272.309688) scale(0.11 -0.11)">
       <defs>
        <path id="NotoSansCJKjp-Regular-30" d="M 1779 -83 
C 2669 -83 3238 723 3238 2362 
C 3238 3987 2669 4774 1779 4774 
C 883 4774 320 3987 320 2362 
C 320 723 883 -83 1779 -83 
z
M 1779 390 
C 1248 390 883 986 883 2362 
C 883 3731 1248 4314 1779 4314 
C 2310 4314 2675 3731 2675 2362 
C 2675 986 2310 390 1779 390 
z
" transform="scale(0.015625)"/>
       </defs>
       <use xlink:href="#NotoSansCJKjp-Regular-30"/>
      </g>
     </g>
    </g>
    <g id="xtick_5">
     <g id="line2d_9">
      <path d="M 271.710968 256.554375 
L 271.710968 23.706375 
" clip-path="url(#paf0a31f323)" style="fill: none; stroke: #b0b0b0; stroke-opacity: 0.25; stroke-width: 0.8; stroke-linecap: square"/>
     </g>
     <g id="line2d_10">
      <g>
       <use xlink:href="#m72c43dc9f5" x="271.710968" y="256.554375" style="stroke: #000000; stroke-width: 0.8"/>
      </g>
     </g>
     <g id="text_5">
      <!-- 1 -->
      <g transform="translate(268.658468 272.309688) scale(0.11 -0.11)">
       <use xlink:href="#NotoSansCJKjp-Regular-31"/>
      </g>
     </g>
    </g>
    <g id="xtick_6">
     <g id="line2d_11">
      <path d="M 323.887591 256.554375 
L 323.887591 23.706375 
" clip-path="url(#paf0a31f323)" style="fill: none; stroke: #b0b0b0; stroke-opacity: 0.25; stroke-width: 0.8; stroke-linecap: square"/>
     </g>
     <g id="line2d_12">
      <g>
       <use xlink:href="#m72c43dc9f5" x="323.887591" y="256.554375" style="stroke: #000000; stroke-width: 0.8"/>
      </g>
     </g>
     <g id="text_6">
      <!-- 2 -->
      <g transform="translate(320.835091 272.309688) scale(0.11 -0.11)">
       <use xlink:href="#NotoSansCJKjp-Regular-32"/>
      </g>
     </g>
    </g>
    <g id="xtick_7">
     <g id="line2d_13">
      <path d="M 376.064215 256.554375 
L 376.064215 23.706375 
" clip-path="url(#paf0a31f323)" style="fill: none; stroke: #b0b0b0; stroke-opacity: 0.25; stroke-width: 0.8; stroke-linecap: square"/>
     </g>
     <g id="line2d_14">
      <g>
       <use xlink:href="#m72c43dc9f5" x="376.064215" y="256.554375" style="stroke: #000000; stroke-width: 0.8"/>
      </g>
     </g>
     <g id="text_7">
      <!-- 3 -->
      <g transform="translate(373.011715 272.309688) scale(0.11 -0.11)">
       <use xlink:href="#NotoSansCJKjp-Regular-33"/>
      </g>
     </g>
    </g>
    <g id="xtick_8">
     <g id="line2d_15">
      <path d="M 428.240838 256.554375 
L 428.240838 23.706375 
" clip-path="url(#paf0a31f323)" style="fill: none; stroke: #b0b0b0; stroke-opacity: 0.25; stroke-width: 0.8; stroke-linecap: square"/>
     </g>
     <g id="line2d_16">
      <g>
       <use xlink:href="#m72c43dc9f5" x="428.240838" y="256.554375" style="stroke: #000000; stroke-width: 0.8"/>
      </g>
     </g>
     <g id="text_8">
      <!-- 4 -->
      <g transform="translate(425.188338 272.309688) scale(0.11 -0.11)">
       <defs>
        <path id="NotoSansCJKjp-Regular-34" d="M 2176 0 
L 2726 0 
L 2726 1293 
L 3354 1293 
L 3354 1760 
L 2726 1760 
L 2726 4691 
L 2080 4691 
L 128 1677 
L 128 1293 
L 2176 1293 
L 2176 0 
z
M 2176 1760 
L 736 1760 
L 1805 3360 
C 1939 3590 2067 3827 2182 4051 
L 2208 4051 
C 2195 3814 2176 3430 2176 3200 
L 2176 1760 
z
" transform="scale(0.015625)"/>
       </defs>
       <use xlink:href="#NotoSansCJKjp-Regular-34"/>
      </g>
     </g>
    </g>
    <g id="text_9">
     <!-- 潜在净借款需求 $B^*$ -->
     <g transform="translate(198.102656 287.584688) scale(0.11 -0.11)">
      <defs>
       <path id="NotoSansCJKjp-Regular-6f5c" d="M 563 4973 
C 960 4794 1446 4486 1690 4256 
L 1965 4653 
C 1722 4870 1229 5158 832 5325 
L 563 4973 
z
M 243 3238 
C 646 3072 1133 2784 1376 2573 
L 1658 2976 
C 1408 3181 909 3450 506 3603 
L 243 3238 
z
M 422 -134 
L 845 -429 
C 1184 166 1587 979 1888 1664 
L 1517 1952 
C 1184 1216 736 365 422 -134 
z
M 2822 736 
L 5146 736 
L 5146 179 
L 2822 179 
L 2822 736 
z
M 2822 1101 
L 2822 1638 
L 5146 1638 
L 5146 1101 
L 2822 1101 
z
M 2368 2029 
L 2368 -499 
L 2822 -499 
L 2822 -211 
L 5146 -211 
L 5146 -493 
L 5619 -493 
L 5619 2029 
L 2368 2029 
z
M 1894 3910 
L 1894 3520 
L 2682 3520 
C 2586 3078 2355 2618 1792 2291 
C 1888 2221 2022 2074 2086 1978 
C 2534 2266 2810 2630 2970 3008 
C 3168 2810 3411 2566 3514 2426 
L 3827 2758 
C 3718 2861 3296 3219 3091 3373 
L 3123 3520 
L 3840 3520 
L 3840 3910 
L 3174 3910 
L 3187 4224 
L 3187 4390 
L 3814 4390 
L 3814 4781 
L 3187 4781 
L 3187 5370 
L 2746 5370 
L 2746 4781 
L 2010 4781 
L 2010 4390 
L 2746 4390 
L 2746 4224 
L 2733 3910 
L 1894 3910 
z
M 4019 4781 
L 4019 4390 
L 4742 4390 
L 4742 4243 
C 4742 4141 4742 4026 4730 3910 
L 4019 3910 
L 4019 3520 
L 4659 3520 
C 4557 3123 4314 2726 3776 2445 
C 3872 2362 4006 2214 4070 2118 
C 4557 2406 4838 2784 4998 3168 
C 5203 2720 5510 2330 5894 2112 
C 5958 2221 6099 2381 6202 2464 
C 5773 2656 5453 3059 5261 3520 
L 6074 3520 
L 6074 3910 
L 5171 3910 
C 5178 4026 5184 4134 5184 4243 
L 5184 4390 
L 5990 4390 
L 5990 4781 
L 5184 4781 
L 5184 5363 
L 4742 5363 
L 4742 4781 
L 4019 4781 
z
" transform="scale(0.015625)"/>
       <path id="NotoSansCJKjp-Regular-5728" d="M 2502 5376 
C 2413 5050 2298 4710 2163 4384 
L 403 4384 
L 403 3923 
L 1952 3923 
C 1542 3104 979 2342 243 1830 
C 320 1722 442 1517 493 1389 
C 762 1581 1011 1798 1235 2035 
L 1235 -486 
L 1715 -486 
L 1715 2605 
C 2016 3014 2278 3462 2496 3923 
L 6010 3923 
L 6010 4384 
L 2694 4384 
C 2810 4672 2912 4966 3002 5254 
L 2502 5376 
z
M 3827 3590 
L 3827 2355 
L 2387 2355 
L 2387 1907 
L 3827 1907 
L 3827 90 
L 2131 90 
L 2131 -358 
L 6003 -358 
L 6003 90 
L 4307 90 
L 4307 1907 
L 5760 1907 
L 5760 2355 
L 4307 2355 
L 4307 3590 
L 3827 3590 
z
" transform="scale(0.015625)"/>
       <path id="NotoSansCJKjp-Regular-51c0" d="M 307 4896 
C 640 4442 1037 3821 1216 3443 
L 1664 3680 
C 1472 4051 1056 4653 723 5094 
L 307 4896 
z
M 307 13 
L 794 -211 
C 1094 397 1446 1222 1715 1939 
L 1293 2170 
C 998 1408 595 538 307 13 
z
M 3034 4403 
L 4339 4403 
C 4211 4160 4045 3904 3885 3706 
L 2534 3706 
C 2707 3923 2874 4154 3034 4403 
z
M 3027 5382 
C 2720 4659 2202 3942 1658 3482 
C 1766 3411 1952 3251 2029 3168 
C 2131 3258 2227 3360 2330 3469 
L 2330 3277 
L 3578 3277 
L 3578 2618 
L 1766 2618 
L 1766 2182 
L 3578 2182 
L 3578 1498 
L 2131 1498 
L 2131 1062 
L 3578 1062 
L 3578 70 
C 3578 -26 3546 -45 3443 -51 
C 3334 -58 2982 -58 2605 -45 
C 2669 -179 2739 -378 2765 -499 
C 3264 -506 3584 -493 3782 -422 
C 3981 -352 4045 -211 4045 64 
L 4045 1062 
L 5158 1062 
L 5158 800 
L 5613 800 
L 5613 2182 
L 6131 2182 
L 6131 2618 
L 5613 2618 
L 5613 3706 
L 4403 3706 
C 4621 3994 4838 4339 4986 4634 
L 4672 4851 
L 4595 4826 
L 3277 4826 
C 3354 4966 3424 5107 3488 5248 
L 3027 5382 
z
M 5158 1498 
L 4045 1498 
L 4045 2182 
L 5158 2182 
L 5158 1498 
z
M 5158 2618 
L 4045 2618 
L 4045 3277 
L 5158 3277 
L 5158 2618 
z
" transform="scale(0.015625)"/>
       <path id="NotoSansCJKjp-Regular-501f" d="M 4595 5318 
L 4595 4570 
L 3405 4570 
L 3405 5318 
L 2938 5318 
L 2938 4570 
L 2080 4570 
L 2080 4154 
L 2938 4154 
L 2938 3277 
L 1818 3277 
L 1818 2842 
L 6195 2842 
L 6195 3277 
L 5069 3277 
L 5069 4154 
L 5971 4154 
L 5971 4570 
L 5069 4570 
L 5069 5318 
L 4595 5318 
z
M 3405 4154 
L 4595 4154 
L 4595 3277 
L 3405 3277 
L 3405 4154 
z
M 2957 858 
L 5152 858 
L 5152 160 
L 2957 160 
L 2957 858 
z
M 2957 1242 
L 2957 1914 
L 5152 1914 
L 5152 1242 
L 2957 1242 
z
M 2496 2323 
L 2496 -531 
L 2957 -531 
L 2957 -243 
L 5152 -243 
L 5152 -506 
L 5632 -506 
L 5632 2323 
L 2496 2323 
z
M 1690 5350 
C 1331 4378 736 3418 102 2797 
C 192 2688 326 2438 371 2323 
C 595 2554 813 2822 1024 3117 
L 1024 -499 
L 1485 -499 
L 1485 3840 
C 1734 4282 1965 4749 2144 5216 
L 1690 5350 
z
" transform="scale(0.015625)"/>
       <path id="NotoSansCJKjp-Regular-6b3e" d="M 742 1402 
C 627 915 429 435 154 109 
C 256 64 442 -32 525 -96 
C 787 256 1024 787 1158 1318 
L 742 1402 
z
M 2406 1254 
C 2586 941 2784 518 2867 262 
L 3245 442 
C 3162 691 2957 1101 2771 1402 
L 2406 1254 
z
M 1581 5357 
L 1581 4768 
L 326 4768 
L 326 4358 
L 1581 4358 
L 1581 3808 
L 474 3808 
L 474 3405 
L 3155 3405 
L 3155 3808 
L 2035 3808 
L 2035 4358 
L 3283 4358 
L 3283 4768 
L 2035 4768 
L 2035 5357 
L 1581 5357 
z
M 250 2029 
L 250 1619 
L 1587 1619 
L 1587 -19 
C 1587 -83 1568 -102 1491 -102 
C 1421 -109 1197 -109 941 -102 
C 998 -224 1062 -397 1082 -518 
C 1446 -518 1683 -512 1837 -442 
C 1997 -371 2035 -250 2035 -26 
L 2035 1619 
L 3347 1619 
L 3347 2029 
L 250 2029 
z
M 3834 5382 
C 3706 4384 3475 3405 3078 2771 
L 3078 2925 
L 544 2925 
L 544 2522 
L 3078 2522 
L 3078 2726 
C 3194 2662 3398 2522 3475 2451 
C 3686 2810 3859 3264 4006 3776 
L 4352 3776 
L 4352 2899 
C 4358 2368 4166 730 2816 -134 
C 2906 -224 3046 -416 3098 -518 
C 4147 173 4518 1363 4582 1914 
C 4653 1382 4979 134 5888 -512 
C 5958 -403 6099 -211 6189 -102 
C 5011 723 4813 2387 4819 2899 
L 4819 3776 
L 5574 3776 
C 5517 3354 5440 2899 5363 2598 
L 5741 2483 
C 5875 2906 5997 3584 6080 4147 
L 5766 4237 
L 5690 4218 
L 4115 4218 
C 4198 4570 4262 4934 4314 5312 
L 3834 5382 
z
" transform="scale(0.015625)"/>
       <path id="NotoSansCJKjp-Regular-9700" d="M 1242 3654 
L 1242 3334 
L 2618 3334 
L 2618 3654 
L 1242 3654 
z
M 1101 2982 
L 1101 2662 
L 2624 2662 
L 2624 2982 
L 1101 2982 
z
M 3744 2982 
L 3744 2656 
L 5312 2656 
L 5312 2982 
L 3744 2982 
z
M 3744 3654 
L 3744 3334 
L 5158 3334 
L 5158 3654 
L 3744 3654 
z
M 486 4358 
L 486 3136 
L 922 3136 
L 922 4006 
L 2950 4006 
L 2950 2490 
L 3411 2490 
L 3411 4006 
L 5472 4006 
L 5472 3136 
L 5920 3136 
L 5920 4358 
L 3411 4358 
L 3411 4736 
L 5536 4736 
L 5536 5120 
L 858 5120 
L 858 4736 
L 2950 4736 
L 2950 4358 
L 486 4358 
z
M 915 1434 
L 915 -499 
L 1370 -499 
L 1370 1037 
L 2317 1037 
L 2317 -461 
L 2758 -461 
L 2758 1037 
L 3738 1037 
L 3738 -461 
L 4179 -461 
L 4179 1037 
L 5178 1037 
L 5178 -26 
C 5178 -90 5165 -109 5088 -109 
C 5024 -115 4806 -115 4544 -109 
C 4602 -224 4672 -390 4698 -512 
C 5043 -512 5286 -512 5446 -435 
C 5606 -371 5645 -256 5645 -32 
L 5645 1434 
L 3226 1434 
L 3398 1888 
L 6003 1888 
L 6003 2278 
L 416 2278 
L 416 1888 
L 2899 1888 
C 2861 1741 2816 1581 2765 1434 
L 915 1434 
z
" transform="scale(0.015625)"/>
       <path id="NotoSansCJKjp-Regular-6c42" d="M 762 3213 
C 1152 2854 1600 2349 1792 2010 
L 2176 2291 
C 1978 2630 1523 3117 1126 3456 
L 762 3213 
z
M 237 544 
L 538 109 
C 1107 435 1862 883 2554 1306 
L 2400 1734 
C 1619 1286 781 813 237 544 
z
M 2944 5363 
L 2944 4301 
L 416 4301 
L 416 3834 
L 2944 3834 
L 2944 141 
C 2944 13 2899 -19 2778 -26 
C 2650 -26 2234 -32 1792 -13 
C 1869 -160 1939 -384 1971 -525 
C 2534 -525 2918 -512 3136 -429 
C 3347 -346 3437 -198 3437 141 
L 3437 2669 
C 3987 1472 4794 474 5843 -38 
C 5926 96 6080 282 6195 384 
C 5478 698 4858 1248 4365 1926 
C 4800 2291 5331 2822 5728 3277 
L 5312 3571 
C 5018 3168 4531 2650 4128 2285 
C 3840 2739 3610 3232 3437 3750 
L 3437 3834 
L 6010 3834 
L 6010 4301 
L 5222 4301 
L 5517 4634 
C 5248 4845 4723 5152 4326 5350 
L 4038 5050 
C 4435 4845 4941 4525 5197 4301 
L 3437 4301 
L 3437 5363 
L 2944 5363 
z
" transform="scale(0.015625)"/>
       <path id="NotoSansCJKjp-Regular-20" transform="scale(0.015625)"/>
       <path id="DejaVuSans-Oblique-42" d="M 1081 4666 
L 2694 4666 
Q 3350 4666 3675 4422 
Q 4000 4178 4000 3688 
Q 4000 3238 3720 2911 
Q 3441 2584 2988 2516 
Q 3375 2428 3569 2181 
Q 3763 1934 3763 1522 
Q 3763 819 3242 409 
Q 2722 0 1819 0 
L 172 0 
L 1081 4666 
z
M 1234 2228 
L 903 519 
L 1919 519 
Q 2491 519 2800 781 
Q 3109 1044 3109 1522 
Q 3109 1891 2904 2059 
Q 2700 2228 2247 2228 
L 1234 2228 
z
M 1606 4147 
L 1331 2741 
L 2272 2741 
Q 2775 2741 3058 2959 
Q 3341 3178 3341 3566 
Q 3341 3869 3150 4008 
Q 2959 4147 2541 4147 
L 1606 4147 
z
" transform="scale(0.015625)"/>
       <path id="DejaVuSans-2a" d="M 3009 3897 
L 1888 3291 
L 3009 2681 
L 2828 2375 
L 1778 3009 
L 1778 1831 
L 1422 1831 
L 1422 3009 
L 372 2375 
L 191 2681 
L 1313 3291 
L 191 3897 
L 372 4206 
L 1422 3572 
L 1422 4750 
L 1778 4750 
L 1778 3572 
L 2828 4206 
L 3009 3897 
z
" transform="scale(0.015625)"/>
      </defs>
      <use xlink:href="#NotoSansCJKjp-Regular-6f5c" transform="translate(0 0.765625)"/>
      <use xlink:href="#NotoSansCJKjp-Regular-5728" transform="translate(99.999985 0.765625)"/>
      <use xlink:href="#NotoSansCJKjp-Regular-51c0" transform="translate(199.999969 0.765625)"/>
      <use xlink:href="#NotoSansCJKjp-Regular-501f" transform="translate(299.999954 0.765625)"/>
      <use xlink:href="#NotoSansCJKjp-Regular-6b3e" transform="translate(399.999939 0.765625)"/>
      <use xlink:href="#NotoSansCJKjp-Regular-9700" transform="translate(499.999924 0.765625)"/>
      <use xlink:href="#NotoSansCJKjp-Regular-6c42" transform="translate(599.999908 0.765625)"/>
      <use xlink:href="#NotoSansCJKjp-Regular-20" transform="translate(699.999893 0.765625)"/>
      <use xlink:href="#DejaVuSans-Oblique-42" transform="translate(722.399887 0.765625)"/>
      <use xlink:href="#DejaVuSans-2a" transform="translate(811.657869 39.046875) scale(0.7)"/>
     </g>
    </g>
   </g>
   <g id="matplotlib.axis_2">
    <g id="ytick_1">
     <g id="line2d_17">
      <path d="M 44.742656 245.970375 
L 446.502656 245.970375 
" clip-path="url(#paf0a31f323)" style="fill: none; stroke: #b0b0b0; stroke-opacity: 0.25; stroke-width: 0.8; stroke-linecap: square"/>
     </g>
     <g id="line2d_18">
      <defs>
       <path id="mc7b542f513" d="M 0 0 
L -3.5 0 
" style="stroke: #000000; stroke-width: 0.8"/>
      </defs>
      <g>
       <use xlink:href="#mc7b542f513" x="44.742656" y="245.970375" style="stroke: #000000; stroke-width: 0.8"/>
      </g>
     </g>
     <g id="text_10">
      <!-- 0.0 -->
      <g transform="translate(22.475 250.348031) scale(0.11 -0.11)">
       <defs>
        <path id="NotoSansCJKjp-Regular-2e" d="M 890 -83 
C 1120 -83 1312 96 1312 358 
C 1312 627 1120 806 890 806 
C 653 806 467 627 467 358 
C 467 96 653 -83 890 -83 
z
" transform="scale(0.015625)"/>
       </defs>
       <use xlink:href="#NotoSansCJKjp-Regular-30"/>
       <use xlink:href="#NotoSansCJKjp-Regular-2e" transform="translate(55.499985 0)"/>
       <use xlink:href="#NotoSansCJKjp-Regular-30" transform="translate(83.299973 0)"/>
      </g>
     </g>
    </g>
    <g id="ytick_2">
     <g id="line2d_19">
      <path d="M 44.742656 219.510375 
L 446.502656 219.510375 
" clip-path="url(#paf0a31f323)" style="fill: none; stroke: #b0b0b0; stroke-opacity: 0.25; stroke-width: 0.8; stroke-linecap: square"/>
     </g>
     <g id="line2d_20">
      <g>
       <use xlink:href="#mc7b542f513" x="44.742656" y="219.510375" style="stroke: #000000; stroke-width: 0.8"/>
      </g>
     </g>
     <g id="text_11">
      <!-- 0.5 -->
      <g transform="translate(22.475 223.888031) scale(0.11 -0.11)">
       <defs>
        <path id="NotoSansCJKjp-Regular-35" d="M 1677 -83 
C 2464 -83 3213 499 3213 1523 
C 3213 2560 2573 3021 1798 3021 
C 1517 3021 1306 2950 1094 2835 
L 1216 4192 
L 2982 4192 
L 2982 4691 
L 704 4691 
L 550 2502 
L 864 2304 
C 1133 2483 1331 2579 1645 2579 
C 2234 2579 2618 2182 2618 1510 
C 2618 826 2176 403 1619 403 
C 1075 403 730 653 467 922 
L 173 538 
C 493 224 941 -83 1677 -83 
z
" transform="scale(0.015625)"/>
       </defs>
       <use xlink:href="#NotoSansCJKjp-Regular-30"/>
       <use xlink:href="#NotoSansCJKjp-Regular-2e" transform="translate(55.499985 0)"/>
       <use xlink:href="#NotoSansCJKjp-Regular-35" transform="translate(83.299973 0)"/>
      </g>
     </g>
    </g>
    <g id="ytick_3">
     <g id="line2d_21">
      <path d="M 44.742656 193.050375 
L 446.502656 193.050375 
" clip-path="url(#paf0a31f323)" style="fill: none; stroke: #b0b0b0; stroke-opacity: 0.25; stroke-width: 0.8; stroke-linecap: square"/>
     </g>
     <g id="line2d_22">
      <g>
       <use xlink:href="#mc7b542f513" x="44.742656" y="193.050375" style="stroke: #000000; stroke-width: 0.8"/>
      </g>
     </g>
     <g id="text_12">
      <!-- 1.0 -->
      <g transform="translate(22.475 197.428031) scale(0.11 -0.11)">
       <use xlink:href="#NotoSansCJKjp-Regular-31"/>
       <use xlink:href="#NotoSansCJKjp-Regular-2e" transform="translate(55.499985 0)"/>
       <use xlink:href="#NotoSansCJKjp-Regular-30" transform="translate(83.299973 0)"/>
      </g>
     </g>
    </g>
    <g id="ytick_4">
     <g id="line2d_23">
      <path d="M 44.742656 166.590375 
L 446.502656 166.590375 
" clip-path="url(#paf0a31f323)" style="fill: none; stroke: #b0b0b0; stroke-opacity: 0.25; stroke-width: 0.8; stroke-linecap: square"/>
     </g>
     <g id="line2d_24">
      <g>
       <use xlink:href="#mc7b542f513" x="44.742656" y="166.590375" style="stroke: #000000; stroke-width: 0.8"/>
      </g>
     </g>
     <g id="text_13">
      <!-- 1.5 -->
      <g transform="translate(22.475 170.968031) scale(0.11 -0.11)">
       <use xlink:href="#NotoSansCJKjp-Regular-31"/>
       <use xlink:href="#NotoSansCJKjp-Regular-2e" transform="translate(55.499985 0)"/>
       <use xlink:href="#NotoSansCJKjp-Regular-35" transform="translate(83.299973 0)"/>
      </g>
     </g>
    </g>
    <g id="ytick_5">
     <g id="line2d_25">
      <path d="M 44.742656 140.130375 
L 446.502656 140.130375 
" clip-path="url(#paf0a31f323)" style="fill: none; stroke: #b0b0b0; stroke-opacity: 0.25; stroke-width: 0.8; stroke-linecap: square"/>
     </g>
     <g id="line2d_26">
      <g>
       <use xlink:href="#mc7b542f513" x="44.742656" y="140.130375" style="stroke: #000000; stroke-width: 0.8"/>
      </g>
     </g>
     <g id="text_14">
      <!-- 2.0 -->
      <g transform="translate(22.475 144.508031) scale(0.11 -0.11)">
       <use xlink:href="#NotoSansCJKjp-Regular-32"/>
       <use xlink:href="#NotoSansCJKjp-Regular-2e" transform="translate(55.499985 0)"/>
       <use xlink:href="#NotoSansCJKjp-Regular-30" transform="translate(83.299973 0)"/>
      </g>
     </g>
    </g>
    <g id="ytick_6">
     <g id="line2d_27">
      <path d="M 44.742656 113.670375 
L 446.502656 113.670375 
" clip-path="url(#paf0a31f323)" style="fill: none; stroke: #b0b0b0; stroke-opacity: 0.25; stroke-width: 0.8; stroke-linecap: square"/>
     </g>
     <g id="line2d_28">
      <g>
       <use xlink:href="#mc7b542f513" x="44.742656" y="113.670375" style="stroke: #000000; stroke-width: 0.8"/>
      </g>
     </g>
     <g id="text_15">
      <!-- 2.5 -->
      <g transform="translate(22.475 118.048031) scale(0.11 -0.11)">
       <use xlink:href="#NotoSansCJKjp-Regular-32"/>
       <use xlink:href="#NotoSansCJKjp-Regular-2e" transform="translate(55.499985 0)"/>
       <use xlink:href="#NotoSansCJKjp-Regular-35" transform="translate(83.299973 0)"/>
      </g>
     </g>
    </g>
    <g id="ytick_7">
     <g id="line2d_29">
      <path d="M 44.742656 87.210375 
L 446.502656 87.210375 
" clip-path="url(#paf0a31f323)" style="fill: none; stroke: #b0b0b0; stroke-opacity: 0.25; stroke-width: 0.8; stroke-linecap: square"/>
     </g>
     <g id="line2d_30">
      <g>
       <use xlink:href="#mc7b542f513" x="44.742656" y="87.210375" style="stroke: #000000; stroke-width: 0.8"/>
      </g>
     </g>
     <g id="text_16">
      <!-- 3.0 -->
      <g transform="translate(22.475 91.588031) scale(0.11 -0.11)">
       <use xlink:href="#NotoSansCJKjp-Regular-33"/>
       <use xlink:href="#NotoSansCJKjp-Regular-2e" transform="translate(55.499985 0)"/>
       <use xlink:href="#NotoSansCJKjp-Regular-30" transform="translate(83.299973 0)"/>
      </g>
     </g>
    </g>
    <g id="ytick_8">
     <g id="line2d_31">
      <path d="M 44.742656 60.750375 
L 446.502656 60.750375 
" clip-path="url(#paf0a31f323)" style="fill: none; stroke: #b0b0b0; stroke-opacity: 0.25; stroke-width: 0.8; stroke-linecap: square"/>
     </g>
     <g id="line2d_32">
      <g>
       <use xlink:href="#mc7b542f513" x="44.742656" y="60.750375" style="stroke: #000000; stroke-width: 0.8"/>
      </g>
     </g>
     <g id="text_17">
      <!-- 3.5 -->
      <g transform="translate(22.475 65.128031) scale(0.11 -0.11)">
       <use xlink:href="#NotoSansCJKjp-Regular-33"/>
       <use xlink:href="#NotoSansCJKjp-Regular-2e" transform="translate(55.499985 0)"/>
       <use xlink:href="#NotoSansCJKjp-Regular-35" transform="translate(83.299973 0)"/>
      </g>
     </g>
    </g>
    <g id="ytick_9">
     <g id="line2d_33">
      <path d="M 44.742656 34.290375 
L 446.502656 34.290375 
" clip-path="url(#paf0a31f323)" style="fill: none; stroke: #b0b0b0; stroke-opacity: 0.25; stroke-width: 0.8; stroke-linecap: square"/>
     </g>
     <g id="line2d_34">
      <g>
       <use xlink:href="#mc7b542f513" x="44.742656" y="34.290375" style="stroke: #000000; stroke-width: 0.8"/>
      </g>
     </g>
     <g id="text_18">
      <!-- 4.0 -->
      <g transform="translate(22.475 38.668031) scale(0.11 -0.11)">
       <use xlink:href="#NotoSansCJKjp-Regular-34"/>
       <use xlink:href="#NotoSansCJKjp-Regular-2e" transform="translate(55.499985 0)"/>
       <use xlink:href="#NotoSansCJKjp-Regular-30" transform="translate(83.299973 0)"/>
      </g>
     </g>
    </g>
    <g id="text_19">
     <!-- 观测银行贷款金额 $B$ -->
     <g transform="translate(15.955313 189.190375) rotate(-90) scale(0.11 -0.11)">
      <defs>
       <path id="NotoSansCJKjp-Regular-89c2" d="M 2957 5062 
L 2957 1658 
L 3411 1658 
L 3411 4634 
L 5299 4634 
L 5299 1658 
L 5773 1658 
L 5773 5062 
L 2957 5062 
z
M 4090 4096 
L 4090 2867 
C 4090 1875 3885 666 2278 -160 
C 2368 -230 2522 -410 2573 -506 
C 3654 51 4160 838 4384 1613 
L 4384 154 
C 4384 -275 4557 -390 4973 -390 
L 5517 -390 
C 6067 -390 6138 -134 6189 877 
C 6074 909 5914 973 5798 1062 
C 5766 147 5734 -26 5523 -26 
L 5050 -26 
C 4877 -26 4826 26 4826 198 
L 4826 1754 
L 4422 1754 
C 4512 2138 4544 2515 4544 2861 
L 4544 4096 
L 4090 4096 
z
M 365 3578 
C 730 3085 1114 2502 1434 1946 
C 1101 1158 685 525 218 115 
C 339 32 499 -134 576 -250 
C 1018 173 1408 730 1728 1414 
C 1926 1043 2080 698 2182 410 
L 2592 691 
C 2458 1050 2234 1498 1965 1965 
C 2272 2771 2496 3725 2618 4806 
L 2310 4902 
L 2227 4883 
L 333 4883 
L 333 4422 
L 2106 4422 
C 2010 3731 1850 3078 1645 2490 
C 1357 2957 1037 3418 730 3821 
L 365 3578 
z
" transform="scale(0.015625)"/>
       <path id="NotoSansCJKjp-Regular-6d4b" d="M 3110 589 
C 3437 269 3814 -179 3994 -467 
L 4307 -250 
C 4122 26 3738 461 3411 774 
L 3110 589 
z
M 1997 5005 
L 1997 986 
L 2374 986 
L 2374 4634 
L 3763 4634 
L 3763 1005 
L 4154 1005 
L 4154 5005 
L 1997 5005 
z
M 5549 5293 
L 5549 45 
C 5549 -51 5510 -83 5421 -83 
C 5331 -90 5030 -90 4691 -83 
C 4749 -198 4813 -384 4832 -486 
C 5280 -493 5555 -480 5722 -410 
C 5882 -339 5946 -218 5946 45 
L 5946 5293 
L 5549 5293 
z
M 4672 4800 
L 4672 966 
L 5056 966 
L 5056 4800 
L 4672 4800 
z
M 2854 4179 
L 2854 1914 
C 2854 1139 2726 339 1658 -205 
C 1728 -262 1850 -422 1894 -499 
C 3046 83 3226 1050 3226 1907 
L 3226 4179 
L 2854 4179 
z
M 518 4966 
C 877 4768 1338 4461 1555 4256 
L 1850 4646 
C 1619 4838 1152 5120 806 5306 
L 518 4966 
z
M 243 3238 
C 595 3040 1062 2752 1293 2560 
L 1581 2944 
C 1338 3130 864 3405 518 3584 
L 243 3238 
z
M 371 -173 
L 806 -429 
C 1075 160 1395 947 1626 1619 
L 1242 1869 
C 986 1152 627 320 371 -173 
z
" transform="scale(0.015625)"/>
       <path id="NotoSansCJKjp-Regular-94f6" d="M 5306 3494 
L 5306 2714 
L 3430 2714 
L 3430 3494 
L 5306 3494 
z
M 5306 3898 
L 3430 3898 
L 3430 4672 
L 5306 4672 
L 5306 3898 
z
M 2944 -512 
C 3066 -429 3264 -358 4589 0 
C 4570 102 4563 301 4563 435 
L 3430 160 
L 3430 2291 
L 4013 2291 
C 4320 1011 4902 19 5888 -467 
C 5958 -333 6093 -147 6202 -51 
C 5702 160 5299 518 4992 973 
C 5344 1178 5766 1466 6086 1734 
L 5779 2074 
C 5530 1830 5126 1530 4794 1306 
C 4634 1606 4506 1939 4410 2291 
L 5747 2291 
L 5747 5094 
L 2963 5094 
L 2963 339 
C 2963 70 2829 -58 2726 -115 
C 2797 -211 2906 -403 2944 -512 
z
M 1139 5357 
C 947 4762 602 4186 218 3808 
C 294 3706 422 3462 467 3360 
C 691 3584 902 3872 1088 4186 
L 2592 4186 
L 2592 4646 
L 1331 4646 
C 1427 4838 1504 5037 1574 5235 
L 1139 5357 
z
M 1222 -467 
C 1338 -358 1517 -256 2720 371 
C 2688 467 2650 653 2637 781 
L 1728 339 
L 1728 1760 
L 2650 1760 
L 2650 2202 
L 1728 2202 
L 1728 3066 
L 2509 3066 
L 2509 3501 
L 704 3501 
L 704 3066 
L 1267 3066 
L 1267 2202 
L 371 2202 
L 371 1760 
L 1267 1760 
L 1267 358 
C 1267 109 1126 0 1024 -51 
C 1101 -154 1197 -352 1222 -467 
z
" transform="scale(0.015625)"/>
       <path id="NotoSansCJKjp-Regular-884c" d="M 2784 4992 
L 2784 4531 
L 5933 4531 
L 5933 4992 
L 2784 4992 
z
M 1709 5382 
C 1382 4915 762 4346 224 3981 
C 307 3891 442 3706 506 3597 
C 1082 4006 1741 4634 2170 5190 
L 1709 5382 
z
M 2502 3226 
L 2502 2765 
L 4659 2765 
L 4659 109 
C 4659 6 4614 -26 4493 -32 
C 4378 -38 3942 -38 3488 -19 
C 3558 -160 3629 -358 3648 -493 
C 4275 -493 4640 -493 4858 -422 
C 5069 -339 5146 -192 5146 102 
L 5146 2765 
L 6112 2765 
L 6112 3226 
L 2502 3226 
z
M 1965 4006 
C 1523 3277 819 2534 160 2061 
C 256 1965 429 1754 499 1658 
C 736 1850 986 2080 1229 2330 
L 1229 -531 
L 1702 -531 
L 1702 2854 
C 1971 3174 2214 3507 2419 3840 
L 1965 4006 
z
" transform="scale(0.015625)"/>
       <path id="NotoSansCJKjp-Regular-8d37" d="M 2912 1914 
L 2912 1478 
C 2912 1018 2771 346 493 -109 
C 608 -205 755 -384 806 -486 
C 3168 58 3418 864 3418 1466 
L 3418 1914 
L 2912 1914 
z
M 3341 410 
C 4090 166 5069 -243 5562 -531 
L 5811 -128 
C 5299 154 4314 544 3578 762 
L 3341 410 
z
M 1229 2624 
L 1229 582 
L 1709 582 
L 1709 2182 
L 4685 2182 
L 4685 608 
L 5178 608 
L 5178 2624 
L 1229 2624 
z
M 4352 5190 
C 4608 5011 4922 4749 5069 4570 
L 5421 4813 
C 5267 4986 4947 5235 4698 5395 
L 4352 5190 
z
M 3053 5357 
C 3085 4992 3174 4659 3302 4352 
L 2170 4269 
L 2208 3878 
L 3494 3974 
C 3936 3245 4634 2790 5363 2790 
C 5779 2790 5952 2950 6029 3590 
C 5901 3629 5754 3699 5658 3789 
C 5626 3366 5574 3238 5376 3238 
C 4890 3226 4384 3520 4019 4019 
L 6067 4173 
L 6029 4557 
L 3789 4390 
C 3648 4672 3546 4998 3514 5357 
L 3053 5357 
z
M 1926 5376 
C 1542 4742 896 4147 250 3776 
C 352 3699 518 3526 595 3437 
C 832 3597 1075 3782 1312 4000 
L 1312 2835 
L 1779 2835 
L 1779 4461 
C 1997 4704 2195 4960 2355 5229 
L 1926 5376 
z
" transform="scale(0.015625)"/>
       <path id="NotoSansCJKjp-Regular-91d1" d="M 1293 1389 
C 1549 1024 1805 531 1882 211 
L 2298 390 
C 2214 710 1946 1190 1683 1542 
L 1293 1389 
z
M 4646 1555 
C 4480 1197 4186 685 3955 365 
L 4314 211 
C 4557 506 4851 973 5101 1376 
L 4646 1555 
z
M 467 115 
L 467 -307 
L 5939 -307 
L 5939 115 
L 3424 115 
L 3424 1715 
L 5632 1715 
L 5632 2138 
L 3424 2138 
L 3424 2995 
L 4800 2995 
L 4800 3392 
C 5152 3136 5517 2906 5869 2726 
C 5952 2867 6074 3040 6189 3155 
C 5184 3597 4077 4461 3392 5382 
L 2906 5382 
C 2406 4582 1344 3635 237 3078 
C 346 2976 474 2803 538 2694 
C 902 2886 1261 3117 1594 3366 
L 1594 2995 
L 2918 2995 
L 2918 2138 
L 762 2138 
L 762 1715 
L 2918 1715 
L 2918 115 
L 467 115 
z
M 3174 4915 
C 3552 4416 4128 3878 4755 3424 
L 1677 3424 
C 2298 3898 2835 4429 3174 4915 
z
" transform="scale(0.015625)"/>
       <path id="NotoSansCJKjp-Regular-989d" d="M 4435 3155 
C 4410 1171 4326 294 2931 -198 
C 3014 -275 3130 -429 3174 -538 
C 4685 13 4826 1030 4858 3155 
L 4435 3155 
z
M 4723 538 
C 5146 230 5683 -211 5952 -493 
L 6221 -154 
C 5952 109 5395 538 4979 832 
L 4723 538 
z
M 3398 3904 
L 3398 883 
L 3808 883 
L 3808 3514 
L 5440 3514 
L 5440 896 
L 5862 896 
L 5862 3904 
L 4659 3904 
C 4742 4102 4832 4339 4915 4570 
L 6099 4570 
L 6099 4992 
L 3296 4992 
L 3296 4570 
L 4480 4570 
C 4416 4352 4320 4102 4243 3904 
L 3398 3904 
z
M 1370 5254 
C 1453 5107 1549 4928 1626 4762 
L 390 4762 
L 390 3795 
L 813 3795 
L 813 4365 
L 2746 4365 
L 2746 3795 
L 3181 3795 
L 3181 4762 
L 2131 4762 
C 2042 4947 1914 5178 1805 5357 
L 1370 5254 
z
M 806 1491 
L 806 -467 
L 1242 -467 
L 1242 -256 
L 2362 -256 
L 2362 -454 
L 2810 -454 
L 2810 1491 
L 806 1491 
z
M 1242 134 
L 1242 1101 
L 2362 1101 
L 2362 134 
L 1242 134 
z
M 954 2662 
L 1434 2406 
C 1075 2157 666 1952 250 1818 
C 320 1728 410 1510 448 1389 
C 934 1574 1414 1837 1843 2182 
C 2246 1952 2637 1715 2880 1542 
L 3206 1875 
C 2957 2042 2573 2266 2170 2477 
C 2483 2790 2752 3149 2938 3552 
L 2675 3725 
L 2579 3706 
L 1600 3706 
C 1677 3827 1741 3955 1798 4077 
L 1363 4154 
C 1178 3725 806 3213 256 2842 
C 346 2778 480 2637 538 2541 
C 864 2771 1133 3046 1344 3328 
L 2330 3328 
C 2189 3091 1997 2880 1779 2682 
L 1261 2950 
L 954 2662 
z
" transform="scale(0.015625)"/>
      </defs>
      <use xlink:href="#NotoSansCJKjp-Regular-89c2" transform="translate(0 0.703125)"/>
      <use xlink:href="#NotoSansCJKjp-Regular-6d4b" transform="translate(99.999985 0.703125)"/>
      <use xlink:href="#NotoSansCJKjp-Regular-94f6" transform="translate(199.999969 0.703125)"/>
      <use xlink:href="#NotoSansCJKjp-Regular-884c" transform="translate(299.999954 0.703125)"/>
      <use xlink:href="#NotoSansCJKjp-Regular-8d37" transform="translate(399.999939 0.703125)"/>
      <use xlink:href="#NotoSansCJKjp-Regular-6b3e" transform="translate(499.999924 0.703125)"/>
      <use xlink:href="#NotoSansCJKjp-Regular-91d1" transform="translate(599.999908 0.703125)"/>
      <use xlink:href="#NotoSansCJKjp-Regular-989d" transform="translate(699.999893 0.703125)"/>
      <use xlink:href="#NotoSansCJKjp-Regular-20" transform="translate(799.999878 0.703125)"/>
      <use xlink:href="#DejaVuSans-Oblique-42" transform="translate(822.399872 0.703125)"/>
     </g>
    </g>
   </g>
   <g id="line2d_35">
    <path d="M 63.004474 245.970375 
L 219.359841 245.970375 
L 220.581367 244.908435 
L 428.240838 34.290375 
L 428.240838 34.290375 
" clip-path="url(#paf0a31f323)" style="fill: none; stroke: #1f77b4; stroke-width: 2.5; stroke-linecap: square"/>
   </g>
   <g id="line2d_36">
    <path d="M 219.534345 256.554375 
L 219.534345 23.706375 
" clip-path="url(#paf0a31f323)" style="fill: none; stroke-dasharray: 4.44,1.92; stroke-dashoffset: 0; stroke: #4c4c4c; stroke-width: 1.2"/>
   </g>
   <g id="line2d_37">
    <path d="M 44.742656 245.970375 
L 446.502656 245.970375 
" clip-path="url(#paf0a31f323)" style="fill: none; stroke: #4c4c4c; stroke-linecap: square"/>
   </g>
   <g id="patch_3">
    <path d="M 44.742656 256.554375 
L 44.742656 23.706375 
" style="fill: none; stroke: #000000; stroke-width: 0.8; stroke-linejoin: miter; stroke-linecap: square"/>
   </g>
   <g id="patch_4">
    <path d="M 44.742656 256.554375 
L 446.502656 256.554375 
" style="fill: none; stroke: #000000; stroke-width: 0.8; stroke-linejoin: miter; stroke-linecap: square"/>
   </g>
   <g id="text_20">
    <!-- 潜在净借款需求为负 -->
    <g transform="translate(73.439799 214.422313) scale(0.11 -0.11)">
     <defs>
      <path id="NotoSansCJKjp-Regular-4e3a" d="M 1037 5018 
C 1293 4717 1581 4307 1709 4045 
L 2144 4256 
C 2010 4518 1709 4915 1446 5197 
L 1037 5018 
z
M 3194 2374 
C 3520 1984 3898 1446 4064 1107 
L 4486 1338 
C 4314 1670 3923 2189 3590 2566 
L 3194 2374 
z
M 2630 5363 
L 2630 4608 
C 2630 4365 2624 4109 2605 3834 
L 525 3834 
L 525 3354 
L 2554 3354 
C 2394 2214 1888 928 352 -70 
C 467 -147 646 -314 730 -422 
C 2368 666 2893 2099 3046 3354 
L 5254 3354 
C 5165 1178 5062 320 4870 122 
C 4800 45 4730 26 4589 32 
C 4435 32 4032 32 3597 70 
C 3693 -70 3757 -282 3763 -429 
C 4160 -448 4563 -461 4787 -442 
C 5024 -416 5171 -365 5318 -179 
C 5568 115 5658 1018 5760 3584 
C 5760 3661 5766 3834 5766 3834 
L 3098 3834 
C 3110 4102 3117 4365 3117 4602 
L 3117 5363 
L 2630 5363 
z
" transform="scale(0.015625)"/>
      <path id="NotoSansCJKjp-Regular-8d1f" d="M 3347 589 
C 4173 230 5018 -198 5530 -512 
L 5894 -179 
C 5350 128 4461 557 3642 896 
L 3347 589 
z
M 3014 2643 
C 2906 1056 2637 250 397 -102 
C 486 -198 602 -384 634 -506 
C 3014 -90 3386 858 3514 2643 
L 3014 2643 
z
M 2182 4397 
L 3859 4397 
C 3699 4109 3494 3795 3290 3539 
L 1440 3539 
C 1715 3814 1965 4102 2182 4397 
z
M 2221 5370 
C 1888 4698 1242 3859 346 3251 
C 461 3181 621 3027 704 2918 
C 902 3066 1094 3219 1267 3379 
L 1267 762 
L 1747 762 
L 1747 3110 
L 4774 3110 
L 4774 762 
L 5274 762 
L 5274 3539 
L 3834 3539 
C 4090 3872 4346 4269 4518 4614 
L 4198 4826 
L 4115 4800 
L 2464 4800 
C 2566 4960 2662 5120 2746 5280 
L 2221 5370 
z
" transform="scale(0.015625)"/>
     </defs>
     <use xlink:href="#NotoSansCJKjp-Regular-6f5c"/>
     <use xlink:href="#NotoSansCJKjp-Regular-5728" transform="translate(99.999985 0)"/>
     <use xlink:href="#NotoSansCJKjp-Regular-51c0" transform="translate(199.999969 0)"/>
     <use xlink:href="#NotoSansCJKjp-Regular-501f" transform="translate(299.999954 0)"/>
     <use xlink:href="#NotoSansCJKjp-Regular-6b3e" transform="translate(399.999939 0)"/>
     <use xlink:href="#NotoSansCJKjp-Regular-9700" transform="translate(499.999924 0)"/>
     <use xlink:href="#NotoSansCJKjp-Regular-6c42" transform="translate(599.999908 0)"/>
     <use xlink:href="#NotoSansCJKjp-Regular-4e3a" transform="translate(699.999893 0)"/>
     <use xlink:href="#NotoSansCJKjp-Regular-8d1f" transform="translate(799.999878 0)"/>
    </g>
    <!-- 观测贷款金额归并为 0 -->
    <g transform="translate(73.439799 227.448375) scale(0.11 -0.11)">
     <defs>
      <path id="NotoSansCJKjp-Regular-5f52" d="M 582 4595 
L 582 1472 
L 1056 1472 
L 1056 4595 
L 582 4595 
z
M 1882 5370 
L 1882 2829 
C 1882 1664 1754 595 710 -192 
C 826 -262 1005 -435 1088 -538 
C 2214 326 2355 1530 2355 2829 
L 2355 5370 
L 1882 5370 
z
M 2886 4800 
L 2886 4339 
L 5344 4339 
L 5344 2739 
L 3078 2739 
L 3078 2266 
L 5344 2266 
L 5344 512 
L 2758 512 
L 2758 38 
L 5344 38 
L 5344 -410 
L 5830 -410 
L 5830 4800 
L 2886 4800 
z
" transform="scale(0.015625)"/>
      <path id="NotoSansCJKjp-Regular-5e76" d="M 4538 5395 
C 4390 5043 4109 4544 3885 4237 
L 4301 4083 
C 4531 4371 4826 4826 5069 5229 
L 4538 5395 
z
M 4109 3597 
L 4109 2202 
L 2304 2202 
L 2304 2355 
L 2304 3597 
L 4109 3597 
z
M 333 2202 
L 333 1741 
L 1792 1741 
C 1696 1024 1376 326 333 -192 
C 442 -275 602 -448 666 -557 
C 1843 45 2189 883 2278 1741 
L 4109 1741 
L 4109 -512 
L 4595 -512 
L 4595 1741 
L 6074 1741 
L 6074 2202 
L 4595 2202 
L 4595 3597 
L 5875 3597 
L 5875 4058 
L 570 4058 
L 570 3597 
L 1824 3597 
L 1824 2368 
L 1824 2202 
L 333 2202 
z
M 1395 5203 
C 1664 4851 1952 4371 2054 4058 
L 2509 4262 
C 2387 4570 2093 5030 1818 5376 
L 1395 5203 
z
" transform="scale(0.015625)"/>
     </defs>
     <use xlink:href="#NotoSansCJKjp-Regular-89c2"/>
     <use xlink:href="#NotoSansCJKjp-Regular-6d4b" transform="translate(99.999985 0)"/>
     <use xlink:href="#NotoSansCJKjp-Regular-8d37" transform="translate(199.999969 0)"/>
     <use xlink:href="#NotoSansCJKjp-Regular-6b3e" transform="translate(299.999954 0)"/>
     <use xlink:href="#NotoSansCJKjp-Regular-91d1" transform="translate(399.999939 0)"/>
     <use xlink:href="#NotoSansCJKjp-Regular-989d" transform="translate(499.999924 0)"/>
     <use xlink:href="#NotoSansCJKjp-Regular-5f52" transform="translate(599.999908 0)"/>
     <use xlink:href="#NotoSansCJKjp-Regular-5e76" transform="translate(699.999893 0)"/>
     <use xlink:href="#NotoSansCJKjp-Regular-4e3a" transform="translate(799.999878 0)"/>
     <use xlink:href="#NotoSansCJKjp-Regular-20" transform="translate(899.999863 0)"/>
     <use xlink:href="#NotoSansCJKjp-Regular-30" transform="translate(922.399857 0)"/>
    </g>
   </g>
   <g id="text_21">
    <!-- 潜在净借款需求为正 -->
    <g transform="translate(276.92863 90.060313) scale(0.11 -0.11)">
     <defs>
      <path id="NotoSansCJKjp-Regular-6b63" d="M 1203 3264 
L 1203 243 
L 333 243 
L 333 -224 
L 6080 -224 
L 6080 243 
L 3616 243 
L 3616 2259 
L 5619 2259 
L 5619 2726 
L 3616 2726 
L 3616 4435 
L 5869 4435 
L 5869 4909 
L 576 4909 
L 576 4435 
L 3110 4435 
L 3110 243 
L 1696 243 
L 1696 3264 
L 1203 3264 
z
" transform="scale(0.015625)"/>
     </defs>
     <use xlink:href="#NotoSansCJKjp-Regular-6f5c"/>
     <use xlink:href="#NotoSansCJKjp-Regular-5728" transform="translate(99.999985 0)"/>
     <use xlink:href="#NotoSansCJKjp-Regular-51c0" transform="translate(199.999969 0)"/>
     <use xlink:href="#NotoSansCJKjp-Regular-501f" transform="translate(299.999954 0)"/>
     <use xlink:href="#NotoSansCJKjp-Regular-6b3e" transform="translate(399.999939 0)"/>
     <use xlink:href="#NotoSansCJKjp-Regular-9700" transform="translate(499.999924 0)"/>
     <use xlink:href="#NotoSansCJKjp-Regular-6c42" transform="translate(599.999908 0)"/>
     <use xlink:href="#NotoSansCJKjp-Regular-4e3a" transform="translate(699.999893 0)"/>
     <use xlink:href="#NotoSansCJKjp-Regular-6b63" transform="translate(799.999878 0)"/>
    </g>
    <!-- 观测到正贷款金额 -->
    <g transform="translate(276.92863 103.086375) scale(0.11 -0.11)">
     <defs>
      <path id="NotoSansCJKjp-Regular-5230" d="M 3885 4608 
L 3885 1056 
L 4352 1056 
L 4352 4608 
L 3885 4608 
z
M 5402 5197 
L 5402 134 
C 5402 19 5370 -13 5254 -19 
C 5126 -19 4723 -26 4294 -13 
C 4371 -154 4442 -378 4467 -512 
C 4986 -512 5370 -499 5587 -422 
C 5792 -346 5869 -198 5869 134 
L 5869 5197 
L 5402 5197 
z
M 2349 3994 
C 2522 3795 2701 3565 2861 3334 
L 1382 3264 
C 1562 3648 1747 4115 1914 4518 
L 3610 4518 
L 3610 4960 
L 326 4960 
L 326 4518 
L 1370 4518 
C 1248 4115 1069 3622 896 3245 
L 307 3219 
L 346 2765 
L 3136 2925 
C 3226 2778 3296 2643 3354 2528 
L 3731 2758 
C 3546 3149 3098 3750 2714 4192 
L 2349 3994 
z
M 256 160 
L 326 -320 
C 1184 -205 2445 -19 3635 147 
L 3622 595 
L 2208 410 
L 2208 1472 
L 3424 1472 
L 3424 1907 
L 2208 1907 
L 2208 2675 
L 1734 2675 
L 1734 1907 
L 512 1907 
L 512 1472 
L 1734 1472 
L 1734 346 
L 256 160 
z
" transform="scale(0.015625)"/>
     </defs>
     <use xlink:href="#NotoSansCJKjp-Regular-89c2"/>
     <use xlink:href="#NotoSansCJKjp-Regular-6d4b" transform="translate(99.999985 0)"/>
     <use xlink:href="#NotoSansCJKjp-Regular-5230" transform="translate(199.999969 0)"/>
     <use xlink:href="#NotoSansCJKjp-Regular-6b63" transform="translate(299.999954 0)"/>
     <use xlink:href="#NotoSansCJKjp-Regular-8d37" transform="translate(399.999939 0)"/>
     <use xlink:href="#NotoSansCJKjp-Regular-6b3e" transform="translate(499.999924 0)"/>
     <use xlink:href="#NotoSansCJKjp-Regular-91d1" transform="translate(599.999908 0)"/>
     <use xlink:href="#NotoSansCJKjp-Regular-989d" transform="translate(699.999893 0)"/>
    </g>
   </g>
   <g id="text_22">
    <!-- Tobit 机制：潜在净借款需求被归并到 0 -->
    <g transform="translate(130.267031 17.706375) scale(0.132 -0.132)">
     <defs>
      <path id="NotoSansCJKjp-Regular-54" d="M 1619 0 
L 2214 0 
L 2214 4192 
L 3635 4192 
L 3635 4691 
L 198 4691 
L 198 4192 
L 1619 4192 
L 1619 0 
z
" transform="scale(0.015625)"/>
      <path id="NotoSansCJKjp-Regular-6f" d="M 1939 -83 
C 2790 -83 3546 582 3546 1734 
C 3546 2893 2790 3565 1939 3565 
C 1088 3565 333 2893 333 1734 
C 333 582 1088 -83 1939 -83 
z
M 1939 403 
C 1338 403 934 934 934 1734 
C 934 2534 1338 3072 1939 3072 
C 2541 3072 2950 2534 2950 1734 
C 2950 934 2541 403 1939 403 
z
" transform="scale(0.015625)"/>
      <path id="NotoSansCJKjp-Regular-62" d="M 2118 -83 
C 2912 -83 3629 602 3629 1792 
C 3629 2867 3142 3565 2246 3565 
C 1856 3565 1472 3347 1152 3078 
L 1178 3699 
L 1178 5094 
L 589 5094 
L 589 0 
L 1056 0 
L 1107 358 
L 1133 358 
C 1434 83 1798 -83 2118 -83 
z
M 2022 410 
C 1792 410 1478 499 1178 768 
L 1178 2598 
C 1504 2906 1811 3072 2099 3072 
C 2765 3072 3021 2560 3021 1786 
C 3021 928 2598 410 2022 410 
z
" transform="scale(0.015625)"/>
      <path id="NotoSansCJKjp-Regular-69" d="M 589 0 
L 1178 0 
L 1178 3475 
L 589 3475 
L 589 0 
z
M 883 4192 
C 1114 4192 1274 4346 1274 4582 
C 1274 4806 1114 4960 883 4960 
C 653 4960 499 4806 499 4582 
C 499 4346 653 4192 883 4192 
z
" transform="scale(0.015625)"/>
      <path id="NotoSansCJKjp-Regular-74" d="M 1677 -83 
C 1894 -83 2125 -19 2323 45 
L 2208 486 
C 2093 435 1939 390 1811 390 
C 1408 390 1274 634 1274 1056 
L 1274 3002 
L 2221 3002 
L 2221 3475 
L 1274 3475 
L 1274 4454 
L 787 4454 
L 723 3475 
L 173 3443 
L 173 3002 
L 691 3002 
L 691 1075 
C 691 378 941 -83 1677 -83 
z
" transform="scale(0.015625)"/>
      <path id="NotoSansCJKjp-Regular-673a" d="M 3187 5011 
L 3187 2957 
C 3187 1965 3098 691 2234 -205 
C 2342 -262 2528 -422 2598 -512 
C 3520 435 3654 1888 3654 2957 
L 3654 4557 
L 4858 4557 
L 4858 435 
C 4858 -115 4896 -230 5005 -326 
C 5101 -410 5242 -448 5370 -448 
C 5453 -448 5600 -448 5696 -448 
C 5830 -448 5946 -422 6035 -358 
C 6131 -294 6182 -186 6214 0 
C 6240 160 6266 634 6266 998 
C 6144 1037 5997 1114 5901 1203 
C 5894 774 5888 435 5869 288 
C 5862 141 5843 83 5805 45 
C 5779 13 5728 0 5677 0 
C 5613 0 5536 0 5491 0 
C 5440 0 5408 13 5376 38 
C 5344 64 5331 186 5331 397 
L 5331 5011 
L 3187 5011 
z
M 1395 5376 
L 1395 4006 
L 333 4006 
L 333 3546 
L 1331 3546 
C 1101 2656 634 1658 179 1120 
C 256 1005 378 813 429 685 
C 787 1126 1133 1850 1395 2598 
L 1395 -506 
L 1862 -506 
L 1862 2432 
C 2112 2112 2413 1715 2541 1498 
L 2842 1894 
C 2694 2061 2086 2746 1862 2970 
L 1862 3546 
L 2810 3546 
L 2810 4006 
L 1862 4006 
L 1862 5376 
L 1395 5376 
z
" transform="scale(0.015625)"/>
      <path id="NotoSansCJKjp-Regular-5236" d="M 4326 4787 
L 4326 1242 
L 4781 1242 
L 4781 4787 
L 4326 4787 
z
M 5466 5312 
L 5466 147 
C 5466 45 5434 13 5338 13 
C 5216 6 4858 6 4480 19 
C 4544 -128 4614 -352 4640 -486 
C 5120 -486 5472 -474 5664 -397 
C 5862 -307 5939 -166 5939 154 
L 5939 5312 
L 5466 5312 
z
M 909 5222 
C 774 4602 557 3962 262 3533 
C 384 3488 595 3405 691 3354 
C 800 3539 909 3763 1011 4013 
L 1850 4013 
L 1850 3341 
L 288 3341 
L 288 2899 
L 1850 2899 
L 1850 2246 
L 582 2246 
L 582 13 
L 1018 13 
L 1018 1811 
L 1850 1811 
L 1850 -506 
L 2310 -506 
L 2310 1811 
L 3200 1811 
L 3200 499 
C 3200 429 3181 410 3110 410 
C 3040 403 2829 403 2560 416 
C 2618 294 2675 122 2694 -6 
C 3046 -6 3296 0 3443 70 
C 3603 147 3642 269 3642 486 
L 3642 2246 
L 2310 2246 
L 2310 2899 
L 3866 2899 
L 3866 3341 
L 2310 3341 
L 2310 4013 
L 3616 4013 
L 3616 4454 
L 2310 4454 
L 2310 5350 
L 1850 5350 
L 1850 4454 
L 1171 4454 
C 1242 4672 1306 4902 1357 5133 
L 909 5222 
z
" transform="scale(0.015625)"/>
      <path id="NotoSansCJKjp-Regular-ff1a" d="M 3200 3482 
C 3456 3482 3686 3667 3686 3962 
C 3686 4256 3456 4442 3200 4442 
C 2944 4442 2714 4256 2714 3962 
C 2714 3667 2944 3482 3200 3482 
z
M 3200 346 
C 3456 346 3686 538 3686 826 
C 3686 1120 3456 1312 3200 1312 
C 2944 1312 2714 1120 2714 826 
C 2714 538 2944 346 3200 346 
z
" transform="scale(0.015625)"/>
      <path id="NotoSansCJKjp-Regular-88ab" d="M 4205 2848 
L 3277 2848 
L 3277 3942 
L 4205 3942 
L 4205 2848 
z
M 2822 4384 
L 2822 2842 
C 2822 1920 2752 640 2086 -269 
C 2202 -320 2394 -435 2477 -518 
C 3078 307 3238 1485 3270 2426 
L 3315 2426 
C 3520 1747 3821 1158 4218 672 
C 3834 314 3392 45 2931 -122 
C 3034 -218 3155 -397 3219 -518 
C 3693 -320 4141 -45 4531 320 
C 4909 -45 5363 -333 5888 -531 
C 5958 -397 6099 -211 6214 -109 
C 5690 58 5235 320 4864 666 
C 5325 1203 5683 1894 5875 2758 
L 5568 2874 
L 5485 2848 
L 4678 2848 
L 4678 3942 
L 5574 3942 
C 5504 3648 5421 3341 5338 3136 
L 5747 3046 
C 5888 3366 6029 3878 6138 4326 
L 5805 4403 
L 5722 4384 
L 4678 4384 
L 4678 5370 
L 4205 5370 
L 4205 4384 
L 2822 4384 
z
M 3763 2426 
L 5306 2426 
C 5133 1882 4864 1402 4538 1011 
C 4205 1414 3942 1888 3763 2426 
z
M 2394 3040 
C 2291 2848 2112 2586 1952 2381 
L 1734 2624 
C 2054 3059 2323 3539 2515 4032 
L 2259 4205 
L 2176 4186 
L 1632 4186 
L 1632 5357 
L 1178 5357 
L 1178 4186 
L 314 4186 
L 314 3750 
L 1933 3750 
C 1542 2931 832 2138 160 1696 
C 237 1613 358 1395 410 1274 
C 672 1466 941 1702 1197 1978 
L 1197 -518 
L 1651 -518 
L 1651 2182 
C 1888 1882 2170 1510 2291 1306 
L 2579 1632 
L 2157 2144 
C 2330 2336 2522 2586 2694 2822 
L 2394 3040 
z
" transform="scale(0.015625)"/>
     </defs>
     <use xlink:href="#NotoSansCJKjp-Regular-54"/>
     <use xlink:href="#NotoSansCJKjp-Regular-6f" transform="translate(59.899994 0)"/>
     <use xlink:href="#NotoSansCJKjp-Regular-62" transform="translate(120.499985 0)"/>
     <use xlink:href="#NotoSansCJKjp-Regular-69" transform="translate(182.299973 0)"/>
     <use xlink:href="#NotoSansCJKjp-Regular-74" transform="translate(209.799957 0)"/>
     <use xlink:href="#NotoSansCJKjp-Regular-20" transform="translate(247.499954 0)"/>
     <use xlink:href="#NotoSansCJKjp-Regular-673a" transform="translate(269.899948 0)"/>
     <use xlink:href="#NotoSansCJKjp-Regular-5236" transform="translate(369.899933 0)"/>
     <use xlink:href="#NotoSansCJKjp-Regular-ff1a" transform="translate(469.899918 0)"/>
     <use xlink:href="#NotoSansCJKjp-Regular-6f5c" transform="translate(569.899902 0)"/>
     <use xlink:href="#NotoSansCJKjp-Regular-5728" transform="translate(669.899887 0)"/>
     <use xlink:href="#NotoSansCJKjp-Regular-51c0" transform="translate(769.899872 0)"/>
     <use xlink:href="#NotoSansCJKjp-Regular-501f" transform="translate(869.899857 0)"/>
     <use xlink:href="#NotoSansCJKjp-Regular-6b3e" transform="translate(969.899841 0)"/>
     <use xlink:href="#NotoSansCJKjp-Regular-9700" transform="translate(1069.899826 0)"/>
     <use xlink:href="#NotoSansCJKjp-Regular-6c42" transform="translate(1169.899811 0)"/>
     <use xlink:href="#NotoSansCJKjp-Regular-88ab" transform="translate(1269.899796 0)"/>
     <use xlink:href="#NotoSansCJKjp-Regular-5f52" transform="translate(1369.89978 0)"/>
     <use xlink:href="#NotoSansCJKjp-Regular-5e76" transform="translate(1469.899765 0)"/>
     <use xlink:href="#NotoSansCJKjp-Regular-5230" transform="translate(1569.89975 0)"/>
     <use xlink:href="#NotoSansCJKjp-Regular-20" transform="translate(1669.899734 0)"/>
     <use xlink:href="#NotoSansCJKjp-Regular-30" transform="translate(1692.299728 0)"/>
    </g>
   </g>
   <g id="legend_1">
    <g id="line2d_38">
     <path d="M 54.642656 38.786688 
L 65.642656 38.786688 
L 76.642656 38.786688 
" style="fill: none; stroke: #1f77b4; stroke-width: 2.5; stroke-linecap: square"/>
    </g>
    <g id="text_23">
     <!-- $B=\max(0,B^*)$ -->
     <g transform="translate(85.442656 42.636688) scale(0.11 -0.11)">
      <defs>
       <path id="DejaVuSans-3d" d="M 678 2906 
L 4684 2906 
L 4684 2381 
L 678 2381 
L 678 2906 
z
M 678 1631 
L 4684 1631 
L 4684 1100 
L 678 1100 
L 678 1631 
z
" transform="scale(0.015625)"/>
       <path id="DejaVuSans-6d" d="M 3328 2828 
Q 3544 3216 3844 3400 
Q 4144 3584 4550 3584 
Q 5097 3584 5394 3201 
Q 5691 2819 5691 2113 
L 5691 0 
L 5113 0 
L 5113 2094 
Q 5113 2597 4934 2840 
Q 4756 3084 4391 3084 
Q 3944 3084 3684 2787 
Q 3425 2491 3425 1978 
L 3425 0 
L 2847 0 
L 2847 2094 
Q 2847 2600 2669 2842 
Q 2491 3084 2119 3084 
Q 1678 3084 1418 2786 
Q 1159 2488 1159 1978 
L 1159 0 
L 581 0 
L 581 3500 
L 1159 3500 
L 1159 2956 
Q 1356 3278 1631 3431 
Q 1906 3584 2284 3584 
Q 2666 3584 2933 3390 
Q 3200 3197 3328 2828 
z
" transform="scale(0.015625)"/>
       <path id="DejaVuSans-61" d="M 2194 1759 
Q 1497 1759 1228 1600 
Q 959 1441 959 1056 
Q 959 750 1161 570 
Q 1363 391 1709 391 
Q 2188 391 2477 730 
Q 2766 1069 2766 1631 
L 2766 1759 
L 2194 1759 
z
M 3341 1997 
L 3341 0 
L 2766 0 
L 2766 531 
Q 2569 213 2275 61 
Q 1981 -91 1556 -91 
Q 1019 -91 701 211 
Q 384 513 384 1019 
Q 384 1609 779 1909 
Q 1175 2209 1959 2209 
L 2766 2209 
L 2766 2266 
Q 2766 2663 2505 2880 
Q 2244 3097 1772 3097 
Q 1472 3097 1187 3025 
Q 903 2953 641 2809 
L 641 3341 
Q 956 3463 1253 3523 
Q 1550 3584 1831 3584 
Q 2591 3584 2966 3190 
Q 3341 2797 3341 1997 
z
" transform="scale(0.015625)"/>
       <path id="DejaVuSans-78" d="M 3513 3500 
L 2247 1797 
L 3578 0 
L 2900 0 
L 1881 1375 
L 863 0 
L 184 0 
L 1544 1831 
L 300 3500 
L 978 3500 
L 1906 2253 
L 2834 3500 
L 3513 3500 
z
" transform="scale(0.015625)"/>
       <path id="DejaVuSans-28" d="M 1984 4856 
Q 1566 4138 1362 3434 
Q 1159 2731 1159 2009 
Q 1159 1288 1364 580 
Q 1569 -128 1984 -844 
L 1484 -844 
Q 1016 -109 783 600 
Q 550 1309 550 2009 
Q 550 2706 781 3412 
Q 1013 4119 1484 4856 
L 1984 4856 
z
" transform="scale(0.015625)"/>
       <path id="DejaVuSans-30" d="M 2034 4250 
Q 1547 4250 1301 3770 
Q 1056 3291 1056 2328 
Q 1056 1369 1301 889 
Q 1547 409 2034 409 
Q 2525 409 2770 889 
Q 3016 1369 3016 2328 
Q 3016 3291 2770 3770 
Q 2525 4250 2034 4250 
z
M 2034 4750 
Q 2819 4750 3233 4129 
Q 3647 3509 3647 2328 
Q 3647 1150 3233 529 
Q 2819 -91 2034 -91 
Q 1250 -91 836 529 
Q 422 1150 422 2328 
Q 422 3509 836 4129 
Q 1250 4750 2034 4750 
z
" transform="scale(0.015625)"/>
       <path id="DejaVuSans-2c" d="M 750 794 
L 1409 794 
L 1409 256 
L 897 -744 
L 494 -744 
L 750 256 
L 750 794 
z
" transform="scale(0.015625)"/>
       <path id="DejaVuSans-29" d="M 513 4856 
L 1013 4856 
Q 1481 4119 1714 3412 
Q 1947 2706 1947 2009 
Q 1947 1309 1714 600 
Q 1481 -109 1013 -844 
L 513 -844 
Q 928 -128 1133 580 
Q 1338 1288 1338 2009 
Q 1338 2731 1133 3434 
Q 928 4138 513 4856 
z
" transform="scale(0.015625)"/>
      </defs>
      <use xlink:href="#DejaVuSans-Oblique-42" transform="translate(0 0.765625)"/>
      <use xlink:href="#DejaVuSans-3d" transform="translate(88.085938 0.765625)"/>
      <use xlink:href="#DejaVuSans-6d" transform="translate(191.357422 0.765625)"/>
      <use xlink:href="#DejaVuSans-61" transform="translate(288.769531 0.765625)"/>
      <use xlink:href="#DejaVuSans-78" transform="translate(350.048828 0.765625)"/>
      <use xlink:href="#DejaVuSans-28" transform="translate(409.228516 0.765625)"/>
      <use xlink:href="#DejaVuSans-30" transform="translate(448.242188 0.765625)"/>
      <use xlink:href="#DejaVuSans-2c" transform="translate(511.865234 0.765625)"/>
      <use xlink:href="#DejaVuSans-Oblique-42" transform="translate(563.134766 0.765625)"/>
      <use xlink:href="#DejaVuSans-2a" transform="translate(652.392747 39.046875) scale(0.7)"/>
      <use xlink:href="#DejaVuSans-29" transform="translate(703.764818 0.765625)"/>
     </g>
    </g>
   </g>
  </g>
 </g>
 <defs>
  <clipPath id="paf0a31f323">
   <rect x="44.742656" y="23.706375" width="401.76" height="232.848"/>
  </clipPath>
 </defs>
</svg>
