<?xml version="1.0" encoding="utf-8" standalone="no"?>
<!DOCTYPE svg PUBLIC "-//W3C//DTD SVG 1.1//EN"
  "http://www.w3.org/Graphics/SVG/1.1/DTD/svg11.dtd">
<svg xmlns:xlink="http://www.w3.org/1999/xlink" width="483.12pt" height="288.567125pt" viewBox="0 0 483.12 288.567125" xmlns="http://www.w3.org/2000/svg" version="1.1">
 <metadata>
  <rdf:RDF xmlns:dc="http://purl.org/dc/elements/1.1/" xmlns:cc="http://creativecommons.org/ns#" xmlns:rdf="http://www.w3.org/1999/02/22-rdf-syntax-ns#">
   <cc:Work>
    <dc:type rdf:resource="http://purl.org/dc/dcmitype/StillImage"/>
    <dc:date>2026-04-29T04:12:40.477196</dc:date>
    <dc:format>image/svg+xml</dc:format>
    <dc:creator>
     <cc:Agent>
      <dc:title>Matplotlib v3.10.8, https://matplotlib.org/</dc:title>
     </cc:Agent>
    </dc:creator>
   </cc:Work>
  </rdf:RDF>
 </metadata>
 <defs>
  <style type="text/css">*{stroke-linejoin: round; stroke-linecap: butt}</style>
 </defs>
 <g id="figure_1">
  <g id="patch_1">
   <path d="M 0 288.567125 
L 483.12 288.567125 
L 483.12 0 
L 0 0 
z
" style="fill: #ffffff"/>
  </g>
  <g id="axes_1">
   <g id="patch_2">
    <path d="M 33.426 130.015925 
L 120.474 130.015925 
Q 124.938 130.015925 124.938 125.580725 
L 124.938 82.337525 
Q 124.938 77.902325 120.474 77.902325 
L 33.426 77.902325 
Q 28.962 77.902325 28.962 82.337525 
L 28.962 125.580725 
Q 28.962 130.015925 33.426 130.015925 
z
" clip-path="url(#p3f4b68eec1)" style="fill: #e8f6f3; stroke: #45b39d; stroke-width: 1.25; stroke-linejoin: miter"/>
   </g>
   <g id="patch_3">
    <path d="M 27.846 196.543925 
L 126.054 196.543925 
Q 130.518 196.543925 130.518 192.108725 
L 130.518 148.865525 
Q 130.518 144.430325 126.054 144.430325 
L 27.846 144.430325 
Q 23.382 144.430325 23.382 148.865525 
L 23.382 192.108725 
Q 23.382 196.543925 27.846 196.543925 
z
" clip-path="url(#p3f4b68eec1)" style="fill: #fef9e7; stroke: #d4ac0d; stroke-width: 1.25; stroke-linejoin: miter"/>
   </g>
   <g id="patch_4">
    <path d="M 36.216 263.071925 
L 117.684 263.071925 
Q 122.148 263.071925 122.148 258.636725 
L 122.148 215.393525 
Q 122.148 210.958325 117.684 210.958325 
L 36.216 210.958325 
Q 31.752 210.958325 31.752 215.393525 
L 31.752 258.636725 
Q 31.752 263.071925 36.216 263.071925 
z
" clip-path="url(#p3f4b68eec1)" style="fill: #fdedec; stroke: #cd6155; stroke-width: 1.25; stroke-linejoin: miter"/>
   </g>
   <g id="patch_5">
    <path d="M 175.716 166.883525 
L 290.664 166.883525 
Q 295.128 166.883525 295.128 162.448325 
L 295.128 106.453925 
Q 295.128 102.018725 290.664 102.018725 
L 175.716 102.018725 
Q 171.252 102.018725 171.252 106.453925 
L 171.252 162.448325 
Q 171.252 166.883525 175.716 166.883525 
z
" clip-path="url(#p3f4b68eec1)" style="fill: #d6eaf8; stroke: #5dade2; stroke-width: 1.25; stroke-linejoin: miter"/>
   </g>
   <g id="patch_6">
    <path d="M 170.136 255.587525 
L 296.244 255.587525 
Q 300.708 255.587525 300.708 251.152325 
L 300.708 195.157925 
Q 300.708 190.722725 296.244 190.722725 
L 170.136 190.722725 
Q 165.672 190.722725 165.672 195.157925 
L 165.672 251.152325 
Q 165.672 255.587525 170.136 255.587525 
z
" clip-path="url(#p3f4b68eec1)" style="fill: #ebdef0; stroke: #af7ac5; stroke-width: 1.25; stroke-linejoin: miter"/>
   </g>
   <g id="patch_7">
    <path d="M 337.536 212.067125 
L 458.064 212.067125 
Q 462.528 212.067125 462.528 207.631925 
L 462.528 149.974325 
Q 462.528 145.539125 458.064 145.539125 
L 337.536 145.539125 
Q 333.072 145.539125 333.072 149.974325 
L 333.072 207.631925 
Q 333.072 212.067125 337.536 212.067125 
z
" clip-path="url(#p3f4b68eec1)" style="fill: #d5f5e3; stroke: #58d68d; stroke-width: 1.25; stroke-linejoin: miter"/>
   </g>
   <g id="patch_8">
    <path d="M 128.52362 107.947428 
Q 148.095676 119.205514 166.553219 129.822518 
" clip-path="url(#p3f4b68eec1)" style="fill: none; stroke: #404040; stroke-width: 1.15; stroke-linecap: round"/>
    <path d="M 163.589113 125.348809 
L 166.553219 129.822518 
L 161.195788 129.509578 
z
" clip-path="url(#p3f4b68eec1)" style="fill: #404040; stroke: #404040; stroke-width: 1.15; stroke-linecap: round"/>
   </g>
   <g id="patch_9">
    <path d="M 124.547138 111.390687 
Q 145.304895 163.556861 165.587288 214.5284 
" clip-path="url(#p3f4b68eec1)" style="fill: none; stroke: #404040; stroke-width: 1.15; stroke-linecap: round"/>
    <path d="M 166.042571 209.181184 
L 165.587288 214.5284 
L 161.582685 210.955844 
z
" clip-path="url(#p3f4b68eec1)" style="fill: #404040; stroke: #404040; stroke-width: 1.15; stroke-linecap: round"/>
   </g>
   <g id="patch_10">
    <path d="M 133.541669 165.646107 
Q 150.88696 152.467636 167.208481 140.066997 
" clip-path="url(#p3f4b68eec1)" style="fill: none; stroke: #404040; stroke-width: 1.15; stroke-linecap: round"/>
    <path d="M 161.934559 141.059846 
L 167.208481 140.066997 
L 164.838407 144.881843 
z
" clip-path="url(#p3f4b68eec1)" style="fill: #404040; stroke: #404040; stroke-width: 1.15; stroke-linecap: round"/>
   </g>
   <g id="patch_11">
    <path d="M 122.622968 229.988264 
Q 146.699304 185.734405 170.161184 142.609956 
" clip-path="url(#p3f4b68eec1)" style="fill: none; stroke: #404040; stroke-width: 1.15; stroke-linecap: round"/>
    <path d="M 165.759065 145.679377 
L 170.161184 142.609956 
L 169.97545 147.973304 
z
" clip-path="url(#p3f4b68eec1)" style="fill: #404040; stroke: #404040; stroke-width: 1.15; stroke-linecap: round"/>
   </g>
   <g id="patch_12">
    <path d="M 126.508942 234.887568 
Q 143.907495 230.085816 160.066645 225.626123 
" clip-path="url(#p3f4b68eec1)" style="fill: none; stroke: #404040; stroke-width: 1.15; stroke-linecap: round"/>
    <path d="M 154.801132 224.589604 
L 160.066645 225.626123 
L 156.078122 229.216622 
z
" clip-path="url(#p3f4b68eec1)" style="fill: #404040; stroke: #404040; stroke-width: 1.15; stroke-linecap: round"/>
   </g>
   <g id="patch_13">
    <path d="M 297.455361 140.089871 
Q 314.099284 156.626413 329.831114 172.256748 
" clip-path="url(#p3f4b68eec1)" style="fill: none; stroke: #404040; stroke-width: 1.15; stroke-linecap: round"/>
    <path d="M 328.11759 167.171098 
L 329.831114 172.256748 
L 324.734479 170.576176 
z
" clip-path="url(#p3f4b68eec1)" style="fill: #404040; stroke: #404040; stroke-width: 1.15; stroke-linecap: round"/>
   </g>
   <g id="patch_14">
    <path d="M 302.645402 217.153637 
Q 316.888907 200.980366 330.282646 185.771991 
" clip-path="url(#p3f4b68eec1)" style="fill: none; stroke: #404040; stroke-width: 1.15; stroke-linecap: round"/>
    <path d="M 325.309145 187.787999 
L 330.282646 185.771991 
L 328.911351 190.960397 
z
" clip-path="url(#p3f4b68eec1)" style="fill: #404040; stroke: #404040; stroke-width: 1.15; stroke-linecap: round"/>
   </g>
   <g id="text_1">
    <!-- 抵押能力 -->
    <g transform="translate(52.95 100.25525) scale(0.12 -0.12)">
     <defs>
      <path id="NotoSansCJKjp-Regular-62b5" d="M 2163 141 
L 2163 -294 
L 4698 -294 
L 4698 141 
L 2163 141 
z
M 2074 992 
L 2182 538 
C 2790 646 3616 787 4397 922 
L 4365 1350 
L 3142 1152 
L 3142 2758 
L 4416 2758 
C 4570 922 4902 -326 5638 -352 
C 5882 -352 6106 -83 6234 883 
C 6144 922 5958 1037 5875 1126 
C 5830 544 5754 211 5638 218 
C 5261 237 4998 1274 4870 2758 
L 6048 2758 
L 6048 3206 
L 4838 3206 
C 4806 3642 4787 4109 4781 4595 
C 5158 4666 5510 4742 5811 4832 
L 5466 5216 
C 4896 5030 3930 4864 3053 4755 
L 2675 4877 
L 2675 1082 
L 2074 992 
z
M 3142 3206 
L 3142 4365 
C 3526 4403 3930 4454 4320 4518 
C 4333 4058 4352 3622 4378 3206 
L 3142 3206 
z
M 1197 5376 
L 1197 4083 
L 282 4083 
L 282 3629 
L 1197 3629 
L 1197 2259 
L 179 1984 
L 320 1517 
L 1197 1779 
L 1197 51 
C 1197 -38 1158 -64 1075 -70 
C 992 -70 723 -70 435 -64 
C 499 -192 563 -390 582 -506 
C 1011 -512 1267 -493 1440 -422 
C 1600 -346 1664 -218 1664 58 
L 1664 1920 
L 2477 2170 
L 2419 2618 
L 1664 2394 
L 1664 3629 
L 2406 3629 
L 2406 4083 
L 1664 4083 
L 1664 5376 
L 1197 5376 
z
" transform="scale(0.015625)"/>
      <path id="NotoSansCJKjp-Regular-62bc" d="M 3053 3136 
L 4026 3136 
L 4026 2150 
L 3053 2150 
L 3053 3136 
z
M 3053 3578 
L 3053 4538 
L 4026 4538 
L 4026 3578 
L 3053 3578 
z
M 5472 3136 
L 5472 2150 
L 4480 2150 
L 4480 3136 
L 5472 3136 
z
M 5472 3578 
L 4480 3578 
L 4480 4538 
L 5472 4538 
L 5472 3578 
z
M 2586 4986 
L 2586 1350 
L 3053 1350 
L 3053 1702 
L 4026 1702 
L 4026 -506 
L 4480 -506 
L 4480 1702 
L 5472 1702 
L 5472 1370 
L 5952 1370 
L 5952 4986 
L 2586 4986 
z
M 1114 5376 
L 1114 4083 
L 326 4083 
L 326 3635 
L 1114 3635 
L 1114 2221 
L 243 1990 
L 384 1523 
L 1114 1734 
L 1114 77 
C 1114 -13 1088 -38 1005 -38 
C 928 -38 678 -45 403 -38 
C 461 -160 525 -352 544 -467 
C 947 -467 1197 -461 1357 -384 
C 1517 -314 1581 -186 1581 77 
L 1581 1875 
L 2323 2106 
L 2259 2541 
L 1581 2349 
L 1581 3635 
L 2285 3635 
L 2285 4083 
L 1581 4083 
L 1581 5376 
L 1114 5376 
z
" transform="scale(0.015625)"/>
      <path id="NotoSansCJKjp-Regular-80fd" d="M 2131 4774 
C 2278 4576 2432 4339 2560 4109 
L 1248 4058 
C 1446 4422 1651 4864 1824 5261 
L 1331 5382 
C 1197 4979 966 4442 742 4038 
L 256 4019 
L 294 3552 
C 960 3590 1882 3635 2784 3693 
C 2854 3552 2912 3424 2950 3309 
L 3366 3494 
C 3226 3891 2867 4486 2528 4928 
L 2131 4774 
z
M 2451 2688 
L 2451 2138 
L 1088 2138 
L 1088 2688 
L 2451 2688 
z
M 640 3098 
L 640 -506 
L 1088 -506 
L 1088 800 
L 2451 800 
L 2451 51 
C 2451 -32 2432 -58 2349 -58 
C 2253 -64 1984 -64 1683 -51 
C 1747 -179 1818 -365 1843 -493 
C 2246 -493 2522 -486 2701 -416 
C 2874 -339 2925 -205 2925 45 
L 2925 3098 
L 640 3098 
z
M 1088 1760 
L 2451 1760 
L 2451 1178 
L 1088 1178 
L 1088 1760 
z
M 5491 4896 
C 5126 4704 4550 4474 4006 4288 
L 4006 5363 
L 3526 5363 
L 3526 3238 
C 3526 2707 3686 2566 4307 2566 
C 4429 2566 5267 2566 5408 2566 
C 5920 2566 6061 2771 6118 3558 
C 5984 3590 5786 3661 5683 3744 
C 5658 3110 5613 3002 5363 3002 
C 5184 3002 4480 3002 4352 3002 
C 4058 3002 4006 3040 4006 3245 
L 4006 3904 
C 4621 4083 5306 4307 5811 4538 
L 5491 4896 
z
M 5568 2042 
C 5197 1805 4582 1555 4000 1363 
L 4000 2387 
L 3526 2387 
L 3526 224 
C 3526 -314 3693 -454 4320 -454 
C 4454 -454 5318 -454 5459 -454 
C 5997 -454 6138 -224 6195 634 
C 6061 666 5875 742 5760 819 
C 5734 96 5690 -26 5421 -26 
C 5229 -26 4506 -26 4365 -26 
C 4058 -26 4000 13 4000 224 
L 4000 966 
C 4646 1146 5382 1395 5882 1683 
L 5568 2042 
z
" transform="scale(0.015625)"/>
      <path id="NotoSansCJKjp-Regular-529b" d="M 2624 5363 
L 2624 4256 
L 2624 3981 
L 531 3981 
L 531 3488 
L 2598 3488 
C 2502 2285 2080 877 339 -160 
C 461 -243 634 -422 710 -538 
C 2573 595 3008 2157 3098 3488 
L 5293 3488 
C 5165 1229 5024 320 4794 102 
C 4717 19 4634 0 4499 0 
C 4339 0 3930 6 3488 45 
C 3584 -96 3642 -307 3654 -448 
C 4051 -467 4461 -480 4678 -461 
C 4928 -435 5075 -390 5229 -198 
C 5517 115 5645 1075 5792 3725 
C 5798 3795 5805 3981 5805 3981 
L 3123 3981 
L 3123 4256 
L 3123 5363 
L 2624 5363 
z
" transform="scale(0.015625)"/>
     </defs>
     <use xlink:href="#NotoSansCJKjp-Regular-62b5"/>
     <use xlink:href="#NotoSansCJKjp-Regular-62bc" transform="translate(99.999985 0)"/>
     <use xlink:href="#NotoSansCJKjp-Regular-80fd" transform="translate(199.999969 0)"/>
     <use xlink:href="#NotoSansCJKjp-Regular-529b" transform="translate(299.999954 0)"/>
    </g>
    <!-- collateral -->
    <g transform="translate(50.47125 114.4655) scale(0.12 -0.12)">
     <defs>
      <path id="NotoSansCJKjp-Regular-63" d="M 1958 -83 
C 2374 -83 2771 83 3085 352 
L 2829 749 
C 2611 557 2330 403 2010 403 
C 1370 403 934 934 934 1734 
C 934 2534 1395 3072 2029 3072 
C 2298 3072 2522 2950 2720 2771 
L 3014 3155 
C 2771 3373 2458 3565 2003 3565 
C 1107 3565 333 2893 333 1734 
C 333 582 1037 -83 1958 -83 
z
" transform="scale(0.015625)"/>
      <path id="NotoSansCJKjp-Regular-6f" d="M 1939 -83 
C 2790 -83 3546 582 3546 1734 
C 3546 2893 2790 3565 1939 3565 
C 1088 3565 333 2893 333 1734 
C 333 582 1088 -83 1939 -83 
z
M 1939 403 
C 1338 403 934 934 934 1734 
C 934 2534 1338 3072 1939 3072 
C 2541 3072 2950 2534 2950 1734 
C 2950 934 2541 403 1939 403 
z
" transform="scale(0.015625)"/>
      <path id="NotoSansCJKjp-Regular-6c" d="M 1203 -83 
C 1363 -83 1459 -58 1542 -32 
L 1459 416 
C 1395 403 1370 403 1338 403 
C 1248 403 1178 474 1178 653 
L 1178 5094 
L 589 5094 
L 589 691 
C 589 198 768 -83 1203 -83 
z
" transform="scale(0.015625)"/>
      <path id="NotoSansCJKjp-Regular-61" d="M 1389 -83 
C 1818 -83 2208 141 2541 416 
L 2560 416 
L 2611 0 
L 3091 0 
L 3091 2138 
C 3091 3002 2739 3565 1888 3565 
C 1325 3565 838 3315 525 3110 
L 749 2707 
C 1024 2893 1389 3078 1792 3078 
C 2362 3078 2509 2650 2509 2202 
C 1030 2035 378 1658 378 902 
C 378 275 806 -83 1389 -83 
z
M 1555 390 
C 1210 390 941 544 941 941 
C 941 1389 1338 1677 2509 1811 
L 2509 845 
C 2170 544 1888 390 1555 390 
z
" transform="scale(0.015625)"/>
      <path id="NotoSansCJKjp-Regular-74" d="M 1677 -83 
C 1894 -83 2125 -19 2323 45 
L 2208 486 
C 2093 435 1939 390 1811 390 
C 1408 390 1274 634 1274 1056 
L 1274 3002 
L 2221 3002 
L 2221 3475 
L 1274 3475 
L 1274 4454 
L 787 4454 
L 723 3475 
L 173 3443 
L 173 3002 
L 691 3002 
L 691 1075 
C 691 378 941 -83 1677 -83 
z
" transform="scale(0.015625)"/>
      <path id="NotoSansCJKjp-Regular-65" d="M 1997 -83 
C 2464 -83 2835 70 3136 269 
L 2931 659 
C 2669 486 2400 384 2061 384 
C 1402 384 947 858 909 1600 
L 3251 1600 
C 3264 1690 3277 1805 3277 1933 
C 3277 2925 2778 3565 1888 3565 
C 1094 3565 333 2867 333 1734 
C 333 589 1069 -83 1997 -83 
z
M 902 2016 
C 973 2707 1408 3098 1901 3098 
C 2445 3098 2765 2720 2765 2016 
L 902 2016 
z
" transform="scale(0.015625)"/>
      <path id="NotoSansCJKjp-Regular-72" d="M 589 0 
L 1178 0 
L 1178 2234 
C 1408 2822 1760 3040 2048 3040 
C 2195 3040 2272 3021 2387 2982 
L 2496 3488 
C 2387 3546 2278 3565 2125 3565 
C 1741 3565 1382 3283 1139 2842 
L 1126 2842 
L 1069 3475 
L 589 3475 
L 589 0 
z
" transform="scale(0.015625)"/>
     </defs>
     <use xlink:href="#NotoSansCJKjp-Regular-63"/>
     <use xlink:href="#NotoSansCJKjp-Regular-6f" transform="translate(50.999985 0)"/>
     <use xlink:href="#NotoSansCJKjp-Regular-6c" transform="translate(111.599976 0)"/>
     <use xlink:href="#NotoSansCJKjp-Regular-6c" transform="translate(139.999969 0)"/>
     <use xlink:href="#NotoSansCJKjp-Regular-61" transform="translate(168.399963 0)"/>
     <use xlink:href="#NotoSansCJKjp-Regular-74" transform="translate(224.699951 0)"/>
     <use xlink:href="#NotoSansCJKjp-Regular-65" transform="translate(262.399948 0)"/>
     <use xlink:href="#NotoSansCJKjp-Regular-72" transform="translate(317.799942 0)"/>
     <use xlink:href="#NotoSansCJKjp-Regular-61" transform="translate(356.59993 0)"/>
     <use xlink:href="#NotoSansCJKjp-Regular-6c" transform="translate(412.899918 0)"/>
    </g>
   </g>
   <g id="text_2">
    <!-- 银行可得性 -->
    <g transform="translate(46.95 166.78325) scale(0.12 -0.12)">
     <defs>
      <path id="NotoSansCJKjp-Regular-94f6" d="M 5306 3494 
L 5306 2714 
L 3430 2714 
L 3430 3494 
L 5306 3494 
z
M 5306 3898 
L 3430 3898 
L 3430 4672 
L 5306 4672 
L 5306 3898 
z
M 2944 -512 
C 3066 -429 3264 -358 4589 0 
C 4570 102 4563 301 4563 435 
L 3430 160 
L 3430 2291 
L 4013 2291 
C 4320 1011 4902 19 5888 -467 
C 5958 -333 6093 -147 6202 -51 
C 5702 160 5299 518 4992 973 
C 5344 1178 5766 1466 6086 1734 
L 5779 2074 
C 5530 1830 5126 1530 4794 1306 
C 4634 1606 4506 1939 4410 2291 
L 5747 2291 
L 5747 5094 
L 2963 5094 
L 2963 339 
C 2963 70 2829 -58 2726 -115 
C 2797 -211 2906 -403 2944 -512 
z
M 1139 5357 
C 947 4762 602 4186 218 3808 
C 294 3706 422 3462 467 3360 
C 691 3584 902 3872 1088 4186 
L 2592 4186 
L 2592 4646 
L 1331 4646 
C 1427 4838 1504 5037 1574 5235 
L 1139 5357 
z
M 1222 -467 
C 1338 -358 1517 -256 2720 371 
C 2688 467 2650 653 2637 781 
L 1728 339 
L 1728 1760 
L 2650 1760 
L 2650 2202 
L 1728 2202 
L 1728 3066 
L 2509 3066 
L 2509 3501 
L 704 3501 
L 704 3066 
L 1267 3066 
L 1267 2202 
L 371 2202 
L 371 1760 
L 1267 1760 
L 1267 358 
C 1267 109 1126 0 1024 -51 
C 1101 -154 1197 -352 1222 -467 
z
" transform="scale(0.015625)"/>
      <path id="NotoSansCJKjp-Regular-884c" d="M 2784 4992 
L 2784 4531 
L 5933 4531 
L 5933 4992 
L 2784 4992 
z
M 1709 5382 
C 1382 4915 762 4346 224 3981 
C 307 3891 442 3706 506 3597 
C 1082 4006 1741 4634 2170 5190 
L 1709 5382 
z
M 2502 3226 
L 2502 2765 
L 4659 2765 
L 4659 109 
C 4659 6 4614 -26 4493 -32 
C 4378 -38 3942 -38 3488 -19 
C 3558 -160 3629 -358 3648 -493 
C 4275 -493 4640 -493 4858 -422 
C 5069 -339 5146 -192 5146 102 
L 5146 2765 
L 6112 2765 
L 6112 3226 
L 2502 3226 
z
M 1965 4006 
C 1523 3277 819 2534 160 2061 
C 256 1965 429 1754 499 1658 
C 736 1850 986 2080 1229 2330 
L 1229 -531 
L 1702 -531 
L 1702 2854 
C 1971 3174 2214 3507 2419 3840 
L 1965 4006 
z
" transform="scale(0.015625)"/>
      <path id="NotoSansCJKjp-Regular-53ef" d="M 358 4922 
L 358 4442 
L 4781 4442 
L 4781 186 
C 4781 51 4736 13 4595 0 
C 4442 0 3917 -6 3405 19 
C 3482 -122 3571 -358 3603 -499 
C 4237 -499 4685 -499 4941 -416 
C 5190 -333 5280 -166 5280 179 
L 5280 4442 
L 6067 4442 
L 6067 4922 
L 358 4922 
z
M 1478 3040 
L 3162 3040 
L 3162 1568 
L 1478 1568 
L 1478 3040 
z
M 1011 3501 
L 1011 595 
L 1478 595 
L 1478 1107 
L 3635 1107 
L 3635 3501 
L 1011 3501 
z
" transform="scale(0.015625)"/>
      <path id="NotoSansCJKjp-Regular-5f97" d="M 3085 3949 
L 5203 3949 
L 5203 3424 
L 3085 3424 
L 3085 3949 
z
M 3085 4813 
L 5203 4813 
L 5203 4301 
L 3085 4301 
L 3085 4813 
z
M 2618 5178 
L 2618 3059 
L 5683 3059 
L 5683 5178 
L 2618 5178 
z
M 2630 922 
C 2918 640 3264 243 3424 -13 
L 3789 250 
C 3622 499 3270 877 2970 1146 
L 2630 922 
z
M 1606 5363 
C 1325 4909 749 4371 243 4045 
C 320 3949 442 3757 499 3648 
C 1069 4032 1683 4627 2061 5184 
L 1606 5363 
z
M 2074 1664 
L 2074 1248 
L 4659 1248 
L 4659 26 
C 4659 -58 4634 -77 4531 -83 
C 4435 -96 4122 -96 3757 -83 
C 3821 -211 3891 -384 3917 -518 
C 4390 -518 4698 -512 4890 -442 
C 5088 -371 5139 -243 5139 19 
L 5139 1248 
L 6099 1248 
L 6099 1664 
L 5139 1664 
L 5139 2214 
L 5990 2214 
L 5990 2624 
L 2221 2624 
L 2221 2214 
L 4659 2214 
L 4659 1664 
L 2074 1664 
z
M 1722 3949 
C 1338 3290 723 2630 141 2208 
C 218 2093 352 1843 390 1741 
C 640 1939 896 2182 1146 2445 
L 1146 -506 
L 1613 -506 
L 1613 2995 
C 1811 3251 1990 3514 2144 3782 
L 1722 3949 
z
" transform="scale(0.015625)"/>
      <path id="NotoSansCJKjp-Regular-6027" d="M 1101 5376 
L 1101 -506 
L 1581 -506 
L 1581 5376 
L 1101 5376 
z
M 512 4160 
C 467 3642 352 2938 179 2509 
L 557 2381 
C 723 2848 838 3584 877 4109 
L 512 4160 
z
M 1626 4198 
C 1811 3846 2003 3379 2067 3091 
L 2426 3277 
C 2355 3546 2157 4000 1965 4346 
L 1626 4198 
z
M 2138 173 
L 2138 -282 
L 6074 -282 
L 6074 173 
L 4461 173 
L 4461 1779 
L 5779 1779 
L 5779 2227 
L 4461 2227 
L 4461 3558 
L 5920 3558 
L 5920 4019 
L 4461 4019 
L 4461 5350 
L 3974 5350 
L 3974 4019 
L 3181 4019 
C 3264 4333 3341 4672 3405 5005 
L 2938 5082 
C 2790 4211 2534 3341 2163 2784 
C 2278 2733 2496 2624 2592 2560 
C 2758 2835 2906 3174 3034 3558 
L 3974 3558 
L 3974 2227 
L 2618 2227 
L 2618 1779 
L 3974 1779 
L 3974 173 
L 2138 173 
z
" transform="scale(0.015625)"/>
     </defs>
     <use xlink:href="#NotoSansCJKjp-Regular-94f6"/>
     <use xlink:href="#NotoSansCJKjp-Regular-884c" transform="translate(99.999985 0)"/>
     <use xlink:href="#NotoSansCJKjp-Regular-53ef" transform="translate(199.999969 0)"/>
     <use xlink:href="#NotoSansCJKjp-Regular-5f97" transform="translate(299.999954 0)"/>
     <use xlink:href="#NotoSansCJKjp-Regular-6027" transform="translate(399.999939 0)"/>
    </g>
    <!-- bank_access -->
    <g transform="translate(41.1 180.9935) scale(0.12 -0.12)">
     <defs>
      <path id="NotoSansCJKjp-Regular-62" d="M 2118 -83 
C 2912 -83 3629 602 3629 1792 
C 3629 2867 3142 3565 2246 3565 
C 1856 3565 1472 3347 1152 3078 
L 1178 3699 
L 1178 5094 
L 589 5094 
L 589 0 
L 1056 0 
L 1107 358 
L 1133 358 
C 1434 83 1798 -83 2118 -83 
z
M 2022 410 
C 1792 410 1478 499 1178 768 
L 1178 2598 
C 1504 2906 1811 3072 2099 3072 
C 2765 3072 3021 2560 3021 1786 
C 3021 928 2598 410 2022 410 
z
" transform="scale(0.015625)"/>
      <path id="NotoSansCJKjp-Regular-6e" d="M 589 0 
L 1178 0 
L 1178 2522 
C 1523 2874 1766 3053 2125 3053 
C 2586 3053 2784 2778 2784 2125 
L 2784 0 
L 3366 0 
L 3366 2202 
C 3366 3085 3034 3565 2304 3565 
C 1830 3565 1466 3302 1139 2970 
L 1126 2970 
L 1069 3475 
L 589 3475 
L 589 0 
z
" transform="scale(0.015625)"/>
      <path id="NotoSansCJKjp-Regular-6b" d="M 589 0 
L 1165 0 
L 1165 915 
L 1818 1677 
L 2835 0 
L 3469 0 
L 2157 2074 
L 3315 3475 
L 2662 3475 
L 1190 1645 
L 1165 1645 
L 1165 5094 
L 589 5094 
L 589 0 
z
" transform="scale(0.015625)"/>
      <path id="NotoSansCJKjp-Regular-5f" d="M 83 -896 
L 3488 -896 
L 3488 -512 
L 83 -512 
L 83 -896 
z
" transform="scale(0.015625)"/>
      <path id="NotoSansCJKjp-Regular-73" d="M 1498 -83 
C 2317 -83 2758 384 2758 947 
C 2758 1606 2208 1811 1702 2003 
C 1312 2150 954 2278 954 2605 
C 954 2880 1158 3110 1600 3110 
C 1907 3110 2150 2976 2387 2803 
L 2669 3168 
C 2406 3386 2022 3565 1594 3565 
C 832 3565 397 3130 397 2579 
C 397 1984 922 1754 1408 1574 
C 1792 1434 2202 1267 2202 915 
C 2202 614 1978 371 1517 371 
C 1101 371 794 538 486 787 
L 205 397 
C 531 122 1005 -83 1498 -83 
z
" transform="scale(0.015625)"/>
     </defs>
     <use xlink:href="#NotoSansCJKjp-Regular-62"/>
     <use xlink:href="#NotoSansCJKjp-Regular-61" transform="translate(61.799988 0)"/>
     <use xlink:href="#NotoSansCJKjp-Regular-6e" transform="translate(118.099976 0)"/>
     <use xlink:href="#NotoSansCJKjp-Regular-6b" transform="translate(179.09996 0)"/>
     <use xlink:href="#NotoSansCJKjp-Regular-5f" transform="translate(234.299957 0)"/>
     <use xlink:href="#NotoSansCJKjp-Regular-61" transform="translate(290.199951 0)"/>
     <use xlink:href="#NotoSansCJKjp-Regular-63" transform="translate(346.499939 0)"/>
     <use xlink:href="#NotoSansCJKjp-Regular-63" transform="translate(397.499924 0)"/>
     <use xlink:href="#NotoSansCJKjp-Regular-65" transform="translate(448.499908 0)"/>
     <use xlink:href="#NotoSansCJKjp-Regular-73" transform="translate(503.899902 0)"/>
     <use xlink:href="#NotoSansCJKjp-Regular-73" transform="translate(550.69989 0)"/>
    </g>
   </g>
   <g id="text_3">
    <!-- 企业风险 -->
    <g transform="translate(52.95 233.31125) scale(0.12 -0.12)">
     <defs>
      <path id="NotoSansCJKjp-Regular-4f01" d="M 3174 4915 
C 3757 4045 4877 3059 5882 2477 
C 5965 2611 6086 2778 6208 2893 
C 5190 3411 4064 4384 3392 5395 
L 2899 5395 
C 2406 4506 1331 3450 218 2816 
C 326 2714 461 2547 525 2438 
C 1613 3085 2656 4090 3174 4915 
z
M 1293 2490 
L 1293 109 
L 480 109 
L 480 -326 
L 5939 -326 
L 5939 109 
L 3488 109 
L 3488 1709 
L 5338 1709 
L 5338 2150 
L 3488 2150 
L 3488 3648 
L 2982 3648 
L 2982 109 
L 1766 109 
L 1766 2490 
L 1293 2490 
z
" transform="scale(0.015625)"/>
      <path id="NotoSansCJKjp-Regular-4e1a" d="M 5466 3885 
C 5210 3181 4755 2246 4403 1664 
L 4800 1459 
C 5158 2054 5594 2938 5901 3680 
L 5466 3885 
z
M 525 3770 
C 864 3053 1242 2074 1402 1510 
L 1882 1690 
C 1702 2253 1306 3194 973 3904 
L 525 3770 
z
M 3744 5293 
L 3744 294 
L 2669 294 
L 2669 5299 
L 2176 5299 
L 2176 294 
L 384 294 
L 384 -179 
L 6035 -179 
L 6035 294 
L 4230 294 
L 4230 5293 
L 3744 5293 
z
" transform="scale(0.015625)"/>
      <path id="NotoSansCJKjp-Regular-98ce" d="M 1018 5069 
L 1018 3168 
C 1018 2157 954 768 256 -198 
C 365 -256 570 -429 653 -518 
C 1395 506 1510 2093 1510 3168 
L 1510 4608 
L 4864 4608 
C 4877 1274 4877 -448 5715 -448 
C 6067 -448 6170 -166 6214 685 
C 6125 755 5984 909 5901 1018 
C 5888 493 5850 51 5754 51 
C 5325 51 5325 2048 5344 5069 
L 1018 5069 
z
M 3904 4154 
C 3738 3642 3514 3117 3245 2630 
C 2899 3072 2534 3507 2202 3891 
L 1805 3680 
C 2189 3232 2605 2714 2989 2195 
C 2566 1523 2067 947 1530 589 
C 1645 499 1805 333 1894 218 
C 2406 595 2880 1152 3283 1792 
C 3686 1235 4038 710 4256 307 
L 4704 563 
C 4442 1024 4019 1626 3546 2240 
C 3859 2803 4122 3411 4326 4032 
L 3904 4154 
z
" transform="scale(0.015625)"/>
      <path id="NotoSansCJKjp-Regular-9669" d="M 2694 2272 
C 2886 1786 3059 1146 3110 723 
L 3507 838 
C 3450 1248 3264 1882 3078 2368 
L 2694 2272 
z
M 3917 2451 
C 4032 1965 4147 1331 4179 915 
L 4576 979 
C 4538 1395 4429 2016 4301 2502 
L 3917 2451 
z
M 544 5120 
L 544 -493 
L 979 -493 
L 979 4685 
L 1786 4685 
C 1651 4256 1466 3693 1280 3232 
C 1741 2720 1856 2285 1856 1933 
C 1856 1734 1818 1555 1722 1485 
C 1670 1446 1600 1434 1523 1427 
C 1414 1421 1293 1427 1152 1434 
C 1222 1312 1261 1126 1267 1011 
C 1414 1005 1568 1005 1696 1018 
C 1830 1037 1946 1069 2035 1139 
C 2208 1267 2285 1542 2285 1888 
C 2285 2291 2176 2752 1715 3290 
C 1926 3795 2163 4429 2349 4954 
L 2035 5139 
L 1965 5120 
L 544 5120 
z
M 4090 5421 
C 3674 4525 2931 3725 2144 3232 
C 2227 3136 2381 2938 2432 2842 
C 2650 2995 2861 3168 3072 3360 
L 3072 2976 
L 5242 2976 
L 5242 3392 
L 3110 3392 
C 3501 3757 3866 4192 4166 4659 
C 4646 4019 5376 3322 6016 2886 
C 6067 3014 6176 3213 6266 3322 
C 5613 3712 4826 4422 4397 5050 
L 4512 5274 
L 4090 5421 
z
M 2349 224 
L 2349 -205 
L 6118 -205 
L 6118 224 
L 4915 224 
C 5248 826 5632 1696 5907 2387 
L 5478 2502 
C 5254 1818 4851 838 4512 224 
L 2349 224 
z
" transform="scale(0.015625)"/>
     </defs>
     <use xlink:href="#NotoSansCJKjp-Regular-4f01"/>
     <use xlink:href="#NotoSansCJKjp-Regular-4e1a" transform="translate(99.999985 0)"/>
     <use xlink:href="#NotoSansCJKjp-Regular-98ce" transform="translate(199.999969 0)"/>
     <use xlink:href="#NotoSansCJKjp-Regular-9669" transform="translate(299.999954 0)"/>
    </g>
    <!-- risk -->
    <g transform="translate(66.852187 247.5215) scale(0.12 -0.12)">
     <defs>
      <path id="NotoSansCJKjp-Regular-69" d="M 589 0 
L 1178 0 
L 1178 3475 
L 589 3475 
L 589 0 
z
M 883 4192 
C 1114 4192 1274 4346 1274 4582 
C 1274 4806 1114 4960 883 4960 
C 653 4960 499 4806 499 4582 
C 499 4346 653 4192 883 4192 
z
" transform="scale(0.015625)"/>
     </defs>
     <use xlink:href="#NotoSansCJKjp-Regular-72"/>
     <use xlink:href="#NotoSansCJKjp-Regular-69" transform="translate(38.799988 0)"/>
     <use xlink:href="#NotoSansCJKjp-Regular-73" transform="translate(66.299973 0)"/>
     <use xlink:href="#NotoSansCJKjp-Regular-6b" transform="translate(113.09996 0)"/>
    </g>
   </g>
   <g id="text_4">
    <!-- 选择方程 -->
    <g transform="translate(209.19 123.642125) scale(0.12 -0.12)">
     <defs>
      <path id="NotoSansCJKjp-Regular-9009" d="M 390 4896 
C 762 4582 1197 4134 1382 3821 
L 1779 4122 
C 1574 4429 1133 4864 755 5158 
L 390 4896 
z
M 2854 5184 
C 2701 4614 2432 4051 2086 3674 
C 2202 3616 2406 3488 2496 3418 
C 2643 3597 2784 3821 2912 4070 
L 3859 4070 
L 3859 3136 
L 2048 3136 
L 2048 2707 
L 3206 2707 
C 3098 1869 2835 1261 1875 922 
C 1978 832 2118 653 2170 531 
C 3245 954 3565 1690 3686 2707 
L 4346 2707 
L 4346 1222 
C 4346 736 4454 595 4934 595 
C 5030 595 5466 595 5562 595 
C 5965 595 6093 800 6138 1613 
C 6003 1645 5805 1715 5715 1805 
C 5696 1133 5670 1043 5510 1043 
C 5421 1043 5069 1043 5005 1043 
C 4838 1043 4819 1062 4819 1222 
L 4819 2707 
L 6086 2707 
L 6086 3136 
L 4339 3136 
L 4339 4070 
L 5818 4070 
L 5818 4486 
L 4339 4486 
L 4339 5350 
L 3859 5350 
L 3859 4486 
L 3104 4486 
C 3187 4678 3258 4883 3315 5088 
L 2854 5184 
z
M 1606 2918 
L 358 2918 
L 358 2470 
L 1146 2470 
L 1146 531 
C 870 403 576 173 288 -96 
L 608 -512 
C 973 -115 1318 218 1555 218 
C 1696 218 1894 32 2144 -122 
C 2566 -371 3098 -435 3840 -435 
C 4467 -435 5549 -403 6048 -371 
C 6054 -230 6131 6 6182 128 
C 5549 64 4576 19 3846 19 
C 3168 19 2630 58 2234 294 
C 1926 474 1779 627 1606 640 
L 1606 2918 
z
" transform="scale(0.015625)"/>
      <path id="NotoSansCJKjp-Regular-62e9" d="M 1133 5370 
L 1133 4090 
L 294 4090 
L 294 3642 
L 1133 3642 
L 1133 2278 
C 794 2176 480 2086 230 2016 
L 352 1549 
L 1133 1798 
L 1133 77 
C 1133 -6 1101 -32 1024 -38 
C 947 -38 698 -45 422 -32 
C 486 -166 544 -365 563 -486 
C 973 -486 1222 -480 1382 -397 
C 1542 -320 1600 -186 1600 77 
L 1600 1952 
L 2342 2195 
L 2278 2637 
L 1600 2426 
L 1600 3642 
L 2362 3642 
L 2362 4090 
L 1600 4090 
L 1600 5370 
L 1133 5370 
z
M 5146 4602 
C 4915 4269 4602 3974 4237 3718 
C 3904 3974 3622 4269 3405 4602 
L 5146 4602 
z
M 2534 5037 
L 2534 4602 
L 2944 4602 
C 3181 4173 3494 3802 3866 3482 
C 3366 3181 2803 2957 2259 2822 
C 2349 2726 2464 2547 2515 2432 
C 3098 2605 3693 2861 4224 3200 
C 4723 2854 5306 2592 5939 2426 
C 6003 2554 6138 2733 6234 2829 
C 5632 2957 5082 3174 4608 3469 
C 5114 3853 5542 4333 5818 4896 
L 5530 5056 
L 5446 5037 
L 2534 5037 
z
M 3968 2637 
L 3968 2074 
L 2669 2074 
L 2669 1638 
L 3968 1638 
L 3968 979 
L 2342 979 
L 2342 544 
L 3968 544 
L 3968 -525 
L 4448 -525 
L 4448 544 
L 6125 544 
L 6125 979 
L 4448 979 
L 4448 1638 
L 5664 1638 
L 5664 2074 
L 4448 2074 
L 4448 2637 
L 3968 2637 
z
" transform="scale(0.015625)"/>
      <path id="NotoSansCJKjp-Regular-65b9" d="M 2931 5395 
L 2931 4269 
L 339 4269 
L 339 3808 
L 2310 3808 
C 2240 2330 2054 666 269 -147 
C 397 -243 544 -416 621 -538 
C 1926 90 2438 1152 2669 2298 
L 4787 2298 
C 4685 819 4557 186 4371 19 
C 4294 -51 4211 -58 4064 -58 
C 3898 -58 3443 -51 2982 -13 
C 3078 -147 3142 -346 3155 -480 
C 3584 -506 4013 -512 4230 -499 
C 4480 -486 4634 -435 4781 -282 
C 5030 -26 5165 685 5293 2522 
C 5306 2598 5312 2758 5312 2758 
L 2746 2758 
C 2790 3110 2822 3462 2842 3808 
L 6067 3808 
L 6067 4269 
L 3424 4269 
L 3424 5395 
L 2931 5395 
z
" transform="scale(0.015625)"/>
      <path id="NotoSansCJKjp-Regular-7a0b" d="M 3405 4691 
L 5338 4691 
L 5338 3514 
L 3405 3514 
L 3405 4691 
z
M 2957 5107 
L 2957 3098 
L 5805 3098 
L 5805 5107 
L 2957 5107 
z
M 2867 1338 
L 2867 922 
L 4122 922 
L 4122 83 
L 2438 83 
L 2438 -339 
L 6163 -339 
L 6163 83 
L 4595 83 
L 4595 922 
L 5882 922 
L 5882 1338 
L 4595 1338 
L 4595 2112 
L 6022 2112 
L 6022 2534 
L 2720 2534 
L 2720 2112 
L 4122 2112 
L 4122 1338 
L 2867 1338 
z
M 2310 5286 
C 1837 5069 992 4883 275 4762 
C 333 4659 397 4499 416 4397 
C 717 4435 1037 4493 1357 4557 
L 1357 3571 
L 314 3571 
L 314 3123 
L 1293 3123 
C 1037 2387 595 1555 179 1101 
C 262 986 378 794 429 659 
C 755 1056 1094 1690 1357 2336 
L 1357 -499 
L 1830 -499 
L 1830 2259 
C 2048 1990 2304 1645 2413 1466 
L 2701 1843 
C 2573 1990 2016 2566 1830 2726 
L 1830 3123 
L 2630 3123 
L 2630 3571 
L 1830 3571 
L 1830 4666 
C 2131 4736 2413 4819 2643 4915 
L 2310 5286 
z
" transform="scale(0.015625)"/>
     </defs>
     <use xlink:href="#NotoSansCJKjp-Regular-9009"/>
     <use xlink:href="#NotoSansCJKjp-Regular-62e9" transform="translate(99.999985 0)"/>
     <use xlink:href="#NotoSansCJKjp-Regular-65b9" transform="translate(199.999969 0)"/>
     <use xlink:href="#NotoSansCJKjp-Regular-7a0b" transform="translate(299.999954 0)"/>
    </g>
    <!-- 是否获得贷款 -->
    <g transform="translate(197.19 137.852375) scale(0.12 -0.12)">
     <defs>
      <path id="NotoSansCJKjp-Regular-662f" d="M 1510 3885 
L 4845 3885 
L 4845 3360 
L 1510 3360 
L 1510 3885 
z
M 1510 4749 
L 4845 4749 
L 4845 4230 
L 1510 4230 
L 1510 4749 
z
M 1050 5114 
L 1050 2995 
L 5331 2995 
L 5331 5114 
L 1050 5114 
z
M 1478 1914 
C 1312 979 902 256 224 -186 
C 333 -256 518 -435 589 -518 
C 1011 -218 1344 192 1587 698 
C 2112 -186 2938 -384 4230 -384 
L 5984 -384 
C 6010 -250 6086 -38 6163 77 
C 5830 70 4493 64 4250 70 
C 3981 70 3725 77 3494 102 
L 3494 986 
L 5619 986 
L 5619 1408 
L 3494 1408 
L 3494 2125 
L 6035 2125 
L 6035 2554 
L 378 2554 
L 378 2125 
L 3014 2125 
L 3014 186 
C 2458 326 2048 627 1798 1216 
C 1862 1414 1914 1626 1958 1850 
L 1478 1914 
z
" transform="scale(0.015625)"/>
      <path id="NotoSansCJKjp-Regular-5426" d="M 3706 3616 
C 4442 3309 5331 2790 5792 2419 
L 6138 2784 
C 5664 3136 4781 3642 4051 3936 
L 3706 3616 
z
M 1133 1907 
L 1133 -512 
L 1626 -512 
L 1626 -205 
L 4800 -205 
L 4800 -499 
L 5318 -499 
L 5318 1907 
L 1133 1907 
z
M 1626 224 
L 1626 1485 
L 4800 1485 
L 4800 224 
L 1626 224 
z
M 422 5011 
L 422 4557 
L 3258 4557 
C 2515 3776 1363 3142 224 2778 
C 333 2682 493 2458 563 2342 
C 1389 2656 2234 3098 2950 3648 
L 2950 2093 
L 3437 2093 
L 3437 4058 
C 3603 4218 3763 4384 3904 4557 
L 5978 4557 
L 5978 5011 
L 422 5011 
z
" transform="scale(0.015625)"/>
      <path id="NotoSansCJKjp-Regular-83b7" d="M 4538 3546 
C 4870 3315 5242 2976 5414 2733 
L 5760 2995 
C 5581 3238 5197 3565 4864 3776 
L 4538 3546 
z
M 3891 3814 
L 3891 2867 
L 3885 2643 
L 2387 2643 
L 2387 2195 
L 3846 2195 
C 3738 1408 3373 499 2208 -218 
C 2330 -301 2483 -422 2566 -525 
C 3526 70 3974 800 4179 1523 
C 4506 602 5018 -109 5786 -499 
C 5850 -378 5997 -205 6106 -115 
C 5216 275 4666 1126 4384 2195 
L 6029 2195 
L 6029 2643 
L 4339 2643 
L 4339 2867 
L 4339 3814 
L 3891 3814 
z
M 4051 5376 
L 4051 4864 
L 2387 4864 
L 2387 5376 
L 1914 5376 
L 1914 4864 
L 397 4864 
L 397 4429 
L 1914 4429 
L 1914 3904 
L 2387 3904 
L 2387 4429 
L 4051 4429 
L 4051 3936 
L 4525 3936 
L 4525 4429 
L 6029 4429 
L 6029 4864 
L 4525 4864 
L 4525 5376 
L 4051 5376 
z
M 2080 3776 
C 1946 3622 1779 3462 1587 3309 
C 1414 3507 1190 3699 915 3878 
L 602 3622 
C 870 3443 1075 3258 1235 3059 
C 934 2861 595 2675 262 2534 
C 352 2451 486 2310 550 2214 
C 864 2355 1178 2528 1472 2720 
C 1574 2534 1645 2336 1690 2138 
C 1376 1696 762 1216 250 998 
C 352 909 474 749 538 634 
C 947 858 1414 1229 1760 1606 
L 1766 1350 
C 1766 698 1715 243 1562 58 
C 1510 -6 1453 -38 1363 -45 
C 1222 -64 979 -64 691 -45 
C 774 -166 832 -339 838 -474 
C 1101 -486 1338 -486 1549 -448 
C 1690 -429 1805 -365 1888 -269 
C 2144 32 2214 595 2214 1325 
C 2214 1894 2157 2458 1837 2976 
C 2080 3162 2298 3360 2470 3558 
L 2080 3776 
z
" transform="scale(0.015625)"/>
      <path id="NotoSansCJKjp-Regular-8d37" d="M 2912 1914 
L 2912 1478 
C 2912 1018 2771 346 493 -109 
C 608 -205 755 -384 806 -486 
C 3168 58 3418 864 3418 1466 
L 3418 1914 
L 2912 1914 
z
M 3341 410 
C 4090 166 5069 -243 5562 -531 
L 5811 -128 
C 5299 154 4314 544 3578 762 
L 3341 410 
z
M 1229 2624 
L 1229 582 
L 1709 582 
L 1709 2182 
L 4685 2182 
L 4685 608 
L 5178 608 
L 5178 2624 
L 1229 2624 
z
M 4352 5190 
C 4608 5011 4922 4749 5069 4570 
L 5421 4813 
C 5267 4986 4947 5235 4698 5395 
L 4352 5190 
z
M 3053 5357 
C 3085 4992 3174 4659 3302 4352 
L 2170 4269 
L 2208 3878 
L 3494 3974 
C 3936 3245 4634 2790 5363 2790 
C 5779 2790 5952 2950 6029 3590 
C 5901 3629 5754 3699 5658 3789 
C 5626 3366 5574 3238 5376 3238 
C 4890 3226 4384 3520 4019 4019 
L 6067 4173 
L 6029 4557 
L 3789 4390 
C 3648 4672 3546 4998 3514 5357 
L 3053 5357 
z
M 1926 5376 
C 1542 4742 896 4147 250 3776 
C 352 3699 518 3526 595 3437 
C 832 3597 1075 3782 1312 4000 
L 1312 2835 
L 1779 2835 
L 1779 4461 
C 1997 4704 2195 4960 2355 5229 
L 1926 5376 
z
" transform="scale(0.015625)"/>
      <path id="NotoSansCJKjp-Regular-6b3e" d="M 742 1402 
C 627 915 429 435 154 109 
C 256 64 442 -32 525 -96 
C 787 256 1024 787 1158 1318 
L 742 1402 
z
M 2406 1254 
C 2586 941 2784 518 2867 262 
L 3245 442 
C 3162 691 2957 1101 2771 1402 
L 2406 1254 
z
M 1581 5357 
L 1581 4768 
L 326 4768 
L 326 4358 
L 1581 4358 
L 1581 3808 
L 474 3808 
L 474 3405 
L 3155 3405 
L 3155 3808 
L 2035 3808 
L 2035 4358 
L 3283 4358 
L 3283 4768 
L 2035 4768 
L 2035 5357 
L 1581 5357 
z
M 250 2029 
L 250 1619 
L 1587 1619 
L 1587 -19 
C 1587 -83 1568 -102 1491 -102 
C 1421 -109 1197 -109 941 -102 
C 998 -224 1062 -397 1082 -518 
C 1446 -518 1683 -512 1837 -442 
C 1997 -371 2035 -250 2035 -26 
L 2035 1619 
L 3347 1619 
L 3347 2029 
L 250 2029 
z
M 3834 5382 
C 3706 4384 3475 3405 3078 2771 
L 3078 2925 
L 544 2925 
L 544 2522 
L 3078 2522 
L 3078 2726 
C 3194 2662 3398 2522 3475 2451 
C 3686 2810 3859 3264 4006 3776 
L 4352 3776 
L 4352 2899 
C 4358 2368 4166 730 2816 -134 
C 2906 -224 3046 -416 3098 -518 
C 4147 173 4518 1363 4582 1914 
C 4653 1382 4979 134 5888 -512 
C 5958 -403 6099 -211 6189 -102 
C 5011 723 4813 2387 4819 2899 
L 4819 3776 
L 5574 3776 
C 5517 3354 5440 2899 5363 2598 
L 5741 2483 
C 5875 2906 5997 3584 6080 4147 
L 5766 4237 
L 5690 4218 
L 4115 4218 
C 4198 4570 4262 4934 4314 5312 
L 3834 5382 
z
" transform="scale(0.015625)"/>
     </defs>
     <use xlink:href="#NotoSansCJKjp-Regular-662f"/>
     <use xlink:href="#NotoSansCJKjp-Regular-5426" transform="translate(99.999985 0)"/>
     <use xlink:href="#NotoSansCJKjp-Regular-83b7" transform="translate(199.999969 0)"/>
     <use xlink:href="#NotoSansCJKjp-Regular-5f97" transform="translate(299.999954 0)"/>
     <use xlink:href="#NotoSansCJKjp-Regular-8d37" transform="translate(399.999939 0)"/>
     <use xlink:href="#NotoSansCJKjp-Regular-6b3e" transform="translate(499.999924 0)"/>
    </g>
    <!-- D=1(S*&gt;0) -->
    <g transform="translate(205.30875 152.062625) scale(0.12 -0.12)">
     <defs>
      <path id="NotoSansCJKjp-Regular-44" d="M 646 0 
L 1843 0 
C 3258 0 4026 877 4026 2362 
C 4026 3859 3258 4691 1818 4691 
L 646 4691 
L 646 0 
z
M 1235 486 
L 1235 4211 
L 1766 4211 
C 2874 4211 3418 3552 3418 2362 
C 3418 1178 2874 486 1766 486 
L 1235 486 
z
" transform="scale(0.015625)"/>
      <path id="NotoSansCJKjp-Regular-3d" d="M 243 2912 
L 3315 2912 
L 3315 3347 
L 243 3347 
L 243 2912 
z
M 243 1376 
L 3315 1376 
L 3315 1811 
L 243 1811 
L 243 1376 
z
" transform="scale(0.015625)"/>
      <path id="NotoSansCJKjp-Regular-31" d="M 563 0 
L 3136 0 
L 3136 486 
L 2195 486 
L 2195 4691 
L 1747 4691 
C 1491 4544 1190 4435 774 4358 
L 774 3987 
L 1613 3987 
L 1613 486 
L 563 486 
L 563 0 
z
" transform="scale(0.015625)"/>
      <path id="NotoSansCJKjp-Regular-28" d="M 1530 -1254 
L 1888 -1094 
C 1338 -186 1075 902 1075 1990 
C 1075 3072 1338 4154 1888 5069 
L 1530 5235 
C 941 4275 589 3245 589 1990 
C 589 730 941 -301 1530 -1254 
z
" transform="scale(0.015625)"/>
      <path id="NotoSansCJKjp-Regular-53" d="M 1946 -83 
C 2925 -83 3539 506 3539 1248 
C 3539 1946 3117 2266 2573 2502 
L 1907 2790 
C 1542 2944 1126 3117 1126 3578 
C 1126 3994 1472 4256 2003 4256 
C 2438 4256 2784 4090 3072 3821 
L 3379 4198 
C 3053 4538 2560 4774 2003 4774 
C 1152 4774 525 4256 525 3533 
C 525 2848 1043 2515 1478 2330 
L 2150 2035 
C 2598 1837 2938 1683 2938 1197 
C 2938 742 2573 435 1952 435 
C 1466 435 992 666 659 1018 
L 307 608 
C 710 186 1280 -83 1946 -83 
z
" transform="scale(0.015625)"/>
      <path id="NotoSansCJKjp-Regular-2a" d="M 986 3014 
L 1498 3622 
L 1997 3014 
L 2278 3213 
L 1869 3885 
L 2566 4179 
L 2458 4506 
L 1728 4326 
L 1664 5094 
L 1318 5094 
L 1254 4320 
L 525 4506 
L 416 4179 
L 1107 3885 
L 704 3213 
L 986 3014 
z
" transform="scale(0.015625)"/>
      <path id="NotoSansCJKjp-Regular-3e" d="M 243 934 
L 3315 2144 
L 3315 2605 
L 243 3814 
L 243 3309 
L 1754 2746 
L 2714 2387 
L 2714 2362 
L 1754 2003 
L 243 1446 
L 243 934 
z
" transform="scale(0.015625)"/>
      <path id="NotoSansCJKjp-Regular-30" d="M 1779 -83 
C 2669 -83 3238 723 3238 2362 
C 3238 3987 2669 4774 1779 4774 
C 883 4774 320 3987 320 2362 
C 320 723 883 -83 1779 -83 
z
M 1779 390 
C 1248 390 883 986 883 2362 
C 883 3731 1248 4314 1779 4314 
C 2310 4314 2675 3731 2675 2362 
C 2675 986 2310 390 1779 390 
z
" transform="scale(0.015625)"/>
      <path id="NotoSansCJKjp-Regular-29" d="M 634 -1254 
C 1222 -301 1574 730 1574 1990 
C 1574 3245 1222 4275 634 5235 
L 269 5069 
C 819 4154 1094 3072 1094 1990 
C 1094 902 819 -186 269 -1094 
L 634 -1254 
z
" transform="scale(0.015625)"/>
     </defs>
     <use xlink:href="#NotoSansCJKjp-Regular-44"/>
     <use xlink:href="#NotoSansCJKjp-Regular-3d" transform="translate(68.799988 0)"/>
     <use xlink:href="#NotoSansCJKjp-Regular-31" transform="translate(124.299973 0)"/>
     <use xlink:href="#NotoSansCJKjp-Regular-28" transform="translate(179.799957 0)"/>
     <use xlink:href="#NotoSansCJKjp-Regular-53" transform="translate(213.599945 0)"/>
     <use xlink:href="#NotoSansCJKjp-Regular-2a" transform="translate(273.199936 0)"/>
     <use xlink:href="#NotoSansCJKjp-Regular-3e" transform="translate(319.899933 0)"/>
     <use xlink:href="#NotoSansCJKjp-Regular-30" transform="translate(375.399918 0)"/>
     <use xlink:href="#NotoSansCJKjp-Regular-29" transform="translate(430.899902 0)"/>
    </g>
   </g>
   <g id="text_5">
    <!-- 结果方程 -->
    <g transform="translate(209.19 212.346125) scale(0.12 -0.12)">
     <defs>
      <path id="NotoSansCJKjp-Regular-7ed3" d="M 224 339 
L 307 -154 
C 941 -13 1792 166 2598 352 
L 2560 794 
C 1702 621 819 435 224 339 
z
M 358 2733 
C 454 2778 614 2810 1427 2906 
C 1139 2502 870 2182 749 2061 
C 538 1830 390 1677 243 1645 
C 301 1517 378 1280 403 1178 
C 557 1261 787 1312 2573 1638 
C 2560 1741 2541 1933 2547 2061 
L 1120 1830 
C 1638 2387 2144 3066 2579 3757 
L 2138 4026 
C 2016 3795 1875 3565 1728 3341 
L 877 3270 
C 1254 3802 1626 4480 1914 5133 
L 1421 5338 
C 1165 4589 704 3795 557 3590 
C 422 3386 307 3238 192 3213 
C 250 3078 333 2835 358 2733 
z
M 4090 5382 
L 4090 4518 
L 2611 4518 
L 2611 4058 
L 4090 4058 
L 4090 3059 
L 2771 3059 
L 2771 2598 
L 5926 2598 
L 5926 3059 
L 4582 3059 
L 4582 4058 
L 6035 4058 
L 6035 4518 
L 4582 4518 
L 4582 5382 
L 4090 5382 
z
M 2938 1946 
L 2938 -506 
L 3405 -506 
L 3405 -230 
L 5286 -230 
L 5286 -480 
L 5766 -480 
L 5766 1946 
L 2938 1946 
z
M 3405 205 
L 3405 1510 
L 5286 1510 
L 5286 205 
L 3405 205 
z
" transform="scale(0.015625)"/>
      <path id="NotoSansCJKjp-Regular-679c" d="M 1018 5069 
L 1018 2522 
L 2950 2522 
L 2950 1978 
L 397 1978 
L 397 1536 
L 2560 1536 
C 1984 922 1069 371 230 96 
C 339 -6 486 -179 563 -301 
C 1408 19 2330 627 2950 1331 
L 2950 -512 
L 3456 -512 
L 3456 1363 
C 4090 678 5024 58 5850 -269 
C 5920 -147 6074 32 6176 134 
C 5370 403 4442 947 3846 1536 
L 6010 1536 
L 6010 1978 
L 3456 1978 
L 3456 2522 
L 5427 2522 
L 5427 5069 
L 1018 5069 
z
M 1510 3603 
L 2950 3603 
L 2950 2938 
L 1510 2938 
L 1510 3603 
z
M 3456 3603 
L 4909 3603 
L 4909 2938 
L 3456 2938 
L 3456 3603 
z
M 1510 4653 
L 2950 4653 
L 2950 4000 
L 1510 4000 
L 1510 4653 
z
M 3456 4653 
L 4909 4653 
L 4909 4000 
L 3456 4000 
L 3456 4653 
z
" transform="scale(0.015625)"/>
     </defs>
     <use xlink:href="#NotoSansCJKjp-Regular-7ed3"/>
     <use xlink:href="#NotoSansCJKjp-Regular-679c" transform="translate(99.999985 0)"/>
     <use xlink:href="#NotoSansCJKjp-Regular-65b9" transform="translate(199.999969 0)"/>
     <use xlink:href="#NotoSansCJKjp-Regular-7a0b" transform="translate(299.999954 0)"/>
    </g>
    <!-- 贷款利率 rate -->
    <g transform="translate(196.553438 226.556375) scale(0.12 -0.12)">
     <defs>
      <path id="NotoSansCJKjp-Regular-5229" d="M 3795 4614 
L 3795 1082 
L 4262 1082 
L 4262 4614 
L 3795 4614 
z
M 5363 5254 
L 5363 128 
C 5363 6 5318 -32 5197 -38 
C 5069 -38 4672 -45 4218 -32 
C 4288 -166 4365 -384 4397 -518 
C 4986 -518 5344 -506 5555 -429 
C 5754 -346 5843 -205 5843 128 
L 5843 5254 
L 5363 5254 
z
M 2931 5338 
C 2330 5075 1216 4851 269 4717 
C 333 4614 397 4454 422 4339 
C 819 4390 1242 4454 1658 4538 
L 1658 3450 
L 320 3450 
L 320 3002 
L 1555 3002 
C 1248 2202 685 1312 173 832 
C 256 710 384 512 435 378 
C 870 813 1318 1542 1658 2272 
L 1658 -499 
L 2131 -499 
L 2131 2035 
C 2458 1728 2874 1318 3066 1107 
L 3341 1510 
C 3155 1677 2432 2304 2131 2534 
L 2131 3002 
L 3366 3002 
L 3366 3450 
L 2131 3450 
L 2131 4634 
C 2566 4730 2970 4845 3290 4973 
L 2931 5338 
z
" transform="scale(0.015625)"/>
      <path id="NotoSansCJKjp-Regular-7387" d="M 5376 4038 
C 5139 3782 4704 3437 4384 3226 
L 4736 3014 
C 5056 3226 5472 3520 5798 3821 
L 5376 4038 
z
M 320 1997 
L 557 1613 
C 986 1798 1517 2048 2022 2291 
L 1933 2656 
C 1338 2406 730 2150 320 1997 
z
M 544 3680 
C 902 3482 1344 3174 1555 2957 
L 1888 3258 
C 1670 3469 1222 3757 864 3949 
L 544 3680 
z
M 4262 2458 
C 4768 2202 5408 1811 5715 1542 
L 6067 1850 
C 5734 2112 5094 2490 4595 2733 
L 4262 2458 
z
M 3526 2707 
C 3654 2566 3782 2400 3904 2227 
L 2810 2176 
C 3264 2618 3763 3168 4147 3642 
L 3770 3827 
C 3590 3571 3347 3270 3091 2976 
C 2957 3098 2784 3226 2598 3347 
C 2810 3578 3046 3878 3251 4154 
L 3110 4211 
L 5882 4211 
L 5882 4659 
L 3424 4659 
L 3424 5376 
L 2938 5376 
L 2938 4659 
L 538 4659 
L 538 4211 
L 2771 4211 
C 2643 4000 2470 3750 2310 3546 
L 2131 3654 
L 1894 3373 
C 2202 3174 2579 2906 2822 2682 
C 2650 2490 2470 2310 2304 2150 
L 1811 2131 
L 1882 1715 
L 4128 1882 
C 4211 1747 4275 1626 4320 1517 
L 4691 1709 
C 4550 2035 4192 2515 3872 2874 
L 3526 2707 
z
M 346 1222 
L 346 774 
L 2938 774 
L 2938 -531 
L 3424 -531 
L 3424 774 
L 6061 774 
L 6061 1222 
L 3424 1222 
L 3424 1722 
L 2938 1722 
L 2938 1222 
L 346 1222 
z
" transform="scale(0.015625)"/>
      <path id="NotoSansCJKjp-Regular-20" transform="scale(0.015625)"/>
     </defs>
     <use xlink:href="#NotoSansCJKjp-Regular-8d37"/>
     <use xlink:href="#NotoSansCJKjp-Regular-6b3e" transform="translate(99.999985 0)"/>
     <use xlink:href="#NotoSansCJKjp-Regular-5229" transform="translate(199.999969 0)"/>
     <use xlink:href="#NotoSansCJKjp-Regular-7387" transform="translate(299.999954 0)"/>
     <use xlink:href="#NotoSansCJKjp-Regular-20" transform="translate(399.999939 0)"/>
     <use xlink:href="#NotoSansCJKjp-Regular-72" transform="translate(422.399933 0)"/>
     <use xlink:href="#NotoSansCJKjp-Regular-61" transform="translate(461.199921 0)"/>
     <use xlink:href="#NotoSansCJKjp-Regular-74" transform="translate(517.499908 0)"/>
     <use xlink:href="#NotoSansCJKjp-Regular-65" transform="translate(555.199905 0)"/>
    </g>
    <!-- 仅 D=1 可观测 -->
    <g transform="translate(195.713437 240.766625) scale(0.12 -0.12)">
     <defs>
      <path id="NotoSansCJKjp-Regular-4ec5" d="M 2330 4672 
L 2330 4218 
L 2650 4218 
L 2560 4198 
C 2829 3014 3226 1997 3808 1184 
C 3258 582 2605 154 1907 -109 
C 2003 -205 2131 -384 2195 -506 
C 2899 -211 3552 211 4102 800 
C 4582 243 5171 -192 5894 -480 
C 5971 -365 6106 -179 6214 -90 
C 5485 179 4896 608 4416 1158 
C 5088 2010 5594 3136 5837 4595 
L 5523 4698 
L 5440 4672 
L 2330 4672 
z
M 3014 4218 
L 5293 4218 
C 5062 3142 4653 2253 4115 1549 
C 3597 2285 3245 3194 3014 4218 
z
M 1888 5338 
C 1491 4326 845 3347 160 2720 
C 250 2605 403 2355 454 2240 
C 710 2483 954 2771 1190 3091 
L 1190 -499 
L 1664 -499 
L 1664 3802 
C 1933 4243 2163 4717 2355 5190 
L 1888 5338 
z
" transform="scale(0.015625)"/>
      <path id="NotoSansCJKjp-Regular-89c2" d="M 2957 5062 
L 2957 1658 
L 3411 1658 
L 3411 4634 
L 5299 4634 
L 5299 1658 
L 5773 1658 
L 5773 5062 
L 2957 5062 
z
M 4090 4096 
L 4090 2867 
C 4090 1875 3885 666 2278 -160 
C 2368 -230 2522 -410 2573 -506 
C 3654 51 4160 838 4384 1613 
L 4384 154 
C 4384 -275 4557 -390 4973 -390 
L 5517 -390 
C 6067 -390 6138 -134 6189 877 
C 6074 909 5914 973 5798 1062 
C 5766 147 5734 -26 5523 -26 
L 5050 -26 
C 4877 -26 4826 26 4826 198 
L 4826 1754 
L 4422 1754 
C 4512 2138 4544 2515 4544 2861 
L 4544 4096 
L 4090 4096 
z
M 365 3578 
C 730 3085 1114 2502 1434 1946 
C 1101 1158 685 525 218 115 
C 339 32 499 -134 576 -250 
C 1018 173 1408 730 1728 1414 
C 1926 1043 2080 698 2182 410 
L 2592 691 
C 2458 1050 2234 1498 1965 1965 
C 2272 2771 2496 3725 2618 4806 
L 2310 4902 
L 2227 4883 
L 333 4883 
L 333 4422 
L 2106 4422 
C 2010 3731 1850 3078 1645 2490 
C 1357 2957 1037 3418 730 3821 
L 365 3578 
z
" transform="scale(0.015625)"/>
      <path id="NotoSansCJKjp-Regular-6d4b" d="M 3110 589 
C 3437 269 3814 -179 3994 -467 
L 4307 -250 
C 4122 26 3738 461 3411 774 
L 3110 589 
z
M 1997 5005 
L 1997 986 
L 2374 986 
L 2374 4634 
L 3763 4634 
L 3763 1005 
L 4154 1005 
L 4154 5005 
L 1997 5005 
z
M 5549 5293 
L 5549 45 
C 5549 -51 5510 -83 5421 -83 
C 5331 -90 5030 -90 4691 -83 
C 4749 -198 4813 -384 4832 -486 
C 5280 -493 5555 -480 5722 -410 
C 5882 -339 5946 -218 5946 45 
L 5946 5293 
L 5549 5293 
z
M 4672 4800 
L 4672 966 
L 5056 966 
L 5056 4800 
L 4672 4800 
z
M 2854 4179 
L 2854 1914 
C 2854 1139 2726 339 1658 -205 
C 1728 -262 1850 -422 1894 -499 
C 3046 83 3226 1050 3226 1907 
L 3226 4179 
L 2854 4179 
z
M 518 4966 
C 877 4768 1338 4461 1555 4256 
L 1850 4646 
C 1619 4838 1152 5120 806 5306 
L 518 4966 
z
M 243 3238 
C 595 3040 1062 2752 1293 2560 
L 1581 2944 
C 1338 3130 864 3405 518 3584 
L 243 3238 
z
M 371 -173 
L 806 -429 
C 1075 160 1395 947 1626 1619 
L 1242 1869 
C 986 1152 627 320 371 -173 
z
" transform="scale(0.015625)"/>
     </defs>
     <use xlink:href="#NotoSansCJKjp-Regular-4ec5"/>
     <use xlink:href="#NotoSansCJKjp-Regular-20" transform="translate(99.999985 0)"/>
     <use xlink:href="#NotoSansCJKjp-Regular-44" transform="translate(122.399979 0)"/>
     <use xlink:href="#NotoSansCJKjp-Regular-3d" transform="translate(191.199966 0)"/>
     <use xlink:href="#NotoSansCJKjp-Regular-31" transform="translate(246.699951 0)"/>
     <use xlink:href="#NotoSansCJKjp-Regular-20" transform="translate(302.199936 0)"/>
     <use xlink:href="#NotoSansCJKjp-Regular-53ef" transform="translate(324.59993 0)"/>
     <use xlink:href="#NotoSansCJKjp-Regular-89c2" transform="translate(424.599915 0)"/>
     <use xlink:href="#NotoSansCJKjp-Regular-6d4b" transform="translate(524.599899 0)"/>
    </g>
   </g>
   <g id="text_6">
    <!-- 观测样本 -->
    <g transform="translate(373.8 167.565875) scale(0.12 -0.12)">
     <defs>
      <path id="NotoSansCJKjp-Regular-6837" d="M 2822 5190 
C 3040 4864 3270 4429 3360 4154 
L 3808 4339 
C 3712 4614 3469 5030 3245 5350 
L 2822 5190 
z
M 5261 5395 
C 5120 5018 4877 4506 4659 4147 
L 2554 4147 
L 2554 3706 
L 3994 3706 
L 3994 2822 
L 2752 2822 
L 2752 2381 
L 3994 2381 
L 3994 1478 
L 2310 1478 
L 2310 1024 
L 3994 1024 
L 3994 -506 
L 4474 -506 
L 4474 1024 
L 6061 1024 
L 6061 1478 
L 4474 1478 
L 4474 2381 
L 5728 2381 
L 5728 2822 
L 4474 2822 
L 4474 3706 
L 5939 3706 
L 5939 4147 
L 5165 4147 
C 5357 4467 5568 4870 5747 5229 
L 5261 5395 
z
M 1171 5376 
L 1171 4141 
L 352 4141 
L 352 3693 
L 1171 3693 
C 986 2822 595 1798 198 1261 
C 282 1146 403 934 454 794 
C 717 1184 973 1798 1171 2445 
L 1171 -506 
L 1632 -506 
L 1632 2816 
C 1805 2496 2003 2125 2086 1914 
L 2387 2272 
C 2278 2451 1805 3187 1632 3418 
L 1632 3693 
L 2310 3693 
L 2310 4141 
L 1632 4141 
L 1632 5376 
L 1171 5376 
z
" transform="scale(0.015625)"/>
      <path id="NotoSansCJKjp-Regular-672c" d="M 2944 5370 
L 2944 4026 
L 416 4026 
L 416 3539 
L 2643 3539 
C 2099 2438 1171 1402 198 896 
C 307 800 461 621 544 499 
C 1478 1050 2355 2016 2944 3130 
L 2944 1171 
L 1690 1171 
L 1690 685 
L 2944 685 
L 2944 -512 
L 3450 -512 
L 3450 685 
L 4672 685 
L 4672 1171 
L 3450 1171 
L 3450 3123 
C 4026 2016 4896 1043 5856 512 
C 5939 646 6106 838 6221 934 
C 5210 1427 4288 2438 3744 3539 
L 5997 3539 
L 5997 4026 
L 3450 4026 
L 3450 5370 
L 2944 5370 
z
" transform="scale(0.015625)"/>
     </defs>
     <use xlink:href="#NotoSansCJKjp-Regular-89c2"/>
     <use xlink:href="#NotoSansCJKjp-Regular-6d4b" transform="translate(99.999985 0)"/>
     <use xlink:href="#NotoSansCJKjp-Regular-6837" transform="translate(199.999969 0)"/>
     <use xlink:href="#NotoSansCJKjp-Regular-672c" transform="translate(299.999954 0)"/>
    </g>
    <!-- rate 不是 0 -->
    <g transform="translate(368.489062 181.776125) scale(0.12 -0.12)">
     <defs>
      <path id="NotoSansCJKjp-Regular-4e0d" d="M 3578 3059 
C 4339 2547 5299 1792 5754 1299 
L 6144 1670 
C 5664 2163 4691 2880 3936 3366 
L 3578 3059 
z
M 442 4928 
L 442 4435 
L 3290 4435 
C 2656 3341 1555 2259 282 1632 
C 384 1523 531 1331 608 1210 
C 1498 1677 2291 2336 2938 3078 
L 2938 -499 
L 3456 -499 
L 3456 3738 
C 3622 3962 3770 4198 3904 4435 
L 5958 4435 
L 5958 4928 
L 442 4928 
z
" transform="scale(0.015625)"/>
     </defs>
     <use xlink:href="#NotoSansCJKjp-Regular-72"/>
     <use xlink:href="#NotoSansCJKjp-Regular-61" transform="translate(38.799988 0)"/>
     <use xlink:href="#NotoSansCJKjp-Regular-74" transform="translate(95.099976 0)"/>
     <use xlink:href="#NotoSansCJKjp-Regular-65" transform="translate(132.799973 0)"/>
     <use xlink:href="#NotoSansCJKjp-Regular-20" transform="translate(188.199966 0)"/>
     <use xlink:href="#NotoSansCJKjp-Regular-4e0d" transform="translate(210.59996 0)"/>
     <use xlink:href="#NotoSansCJKjp-Regular-662f" transform="translate(310.599945 0)"/>
     <use xlink:href="#NotoSansCJKjp-Regular-20" transform="translate(410.59993 0)"/>
     <use xlink:href="#NotoSansCJKjp-Regular-30" transform="translate(432.999924 0)"/>
    </g>
    <!-- 而是 missing 或可见 -->
    <g transform="translate(343.595625 196.591625) scale(0.12 -0.12)">
     <defs>
      <path id="NotoSansCJKjp-Regular-800c" d="M 346 5043 
L 346 4557 
L 2842 4557 
C 2784 4256 2701 3917 2618 3635 
L 672 3635 
L 672 -512 
L 1158 -512 
L 1158 3181 
L 2176 3181 
L 2176 -307 
L 2650 -307 
L 2650 3181 
L 3706 3181 
L 3706 -307 
L 4186 -307 
L 4186 3181 
L 5267 3181 
L 5267 90 
C 5267 0 5242 -26 5146 -26 
C 5050 -32 4723 -38 4365 -26 
C 4435 -147 4506 -352 4525 -480 
C 4986 -480 5312 -474 5510 -397 
C 5696 -320 5754 -179 5754 90 
L 5754 3635 
L 3123 3635 
C 3219 3910 3322 4237 3411 4557 
L 6086 4557 
L 6086 5043 
L 346 5043 
z
" transform="scale(0.015625)"/>
      <path id="NotoSansCJKjp-Regular-6d" d="M 589 0 
L 1178 0 
L 1178 2522 
C 1491 2880 1786 3053 2048 3053 
C 2490 3053 2694 2778 2694 2125 
L 2694 0 
L 3277 0 
L 3277 2522 
C 3603 2880 3885 3053 4154 3053 
C 4595 3053 4800 2778 4800 2125 
L 4800 0 
L 5382 0 
L 5382 2202 
C 5382 3085 5043 3565 4333 3565 
C 3904 3565 3546 3290 3181 2899 
C 3040 3309 2758 3565 2221 3565 
C 1805 3565 1446 3302 1139 2970 
L 1126 2970 
L 1069 3475 
L 589 3475 
L 589 0 
z
" transform="scale(0.015625)"/>
      <path id="NotoSansCJKjp-Regular-67" d="M 1760 -1600 
C 2835 -1600 3520 -1043 3520 -397 
C 3520 179 3110 429 2310 429 
L 1626 429 
C 1158 429 1018 589 1018 806 
C 1018 998 1114 1114 1242 1222 
C 1395 1146 1587 1101 1754 1101 
C 2470 1101 3027 1568 3027 2310 
C 3027 2611 2912 2867 2746 3027 
L 3456 3027 
L 3456 3475 
L 2246 3475 
C 2125 3526 1952 3565 1754 3565 
C 1056 3565 454 3085 454 2323 
C 454 1907 678 1568 909 1389 
L 909 1363 
C 723 1235 525 1005 525 717 
C 525 442 659 256 838 147 
L 838 115 
C 512 -83 326 -371 326 -672 
C 326 -1267 915 -1600 1760 -1600 
z
M 1754 1498 
C 1357 1498 1018 1818 1018 2323 
C 1018 2835 1350 3136 1754 3136 
C 2170 3136 2496 2835 2496 2323 
C 2496 1818 2157 1498 1754 1498 
z
M 1843 -1197 
C 1210 -1197 838 -960 838 -589 
C 838 -390 941 -179 1190 0 
C 1344 -38 1510 -51 1638 -51 
L 2240 -51 
C 2701 -51 2944 -166 2944 -493 
C 2944 -851 2515 -1197 1843 -1197 
z
" transform="scale(0.015625)"/>
      <path id="NotoSansCJKjp-Regular-6216" d="M 4429 5062 
C 4819 4870 5293 4576 5523 4358 
L 5818 4691 
C 5581 4909 5101 5190 4710 5357 
L 4429 5062 
z
M 397 422 
L 493 -70 
C 1235 90 2285 320 3270 538 
L 3232 992 
C 2189 774 1094 550 397 422 
z
M 1248 2893 
L 2554 2893 
L 2554 1779 
L 1248 1779 
L 1248 2893 
z
M 800 3315 
L 800 1363 
L 3021 1363 
L 3021 3315 
L 800 3315 
z
M 435 4352 
L 435 3878 
L 3590 3878 
C 3667 2835 3814 1875 4045 1120 
C 3616 602 3098 179 2502 -141 
C 2611 -230 2797 -416 2874 -512 
C 3379 -211 3834 160 4230 602 
C 4518 -96 4902 -518 5395 -518 
C 5888 -518 6067 -198 6157 902 
C 6022 954 5843 1062 5734 1178 
C 5696 320 5619 -19 5440 -19 
C 5120 -19 4832 378 4602 1050 
C 5075 1683 5459 2438 5741 3302 
L 5261 3418 
C 5056 2752 4774 2157 4429 1632 
C 4269 2259 4154 3027 4096 3878 
L 5990 3878 
L 5990 4352 
L 4064 4352 
C 4051 4678 4045 5018 4045 5363 
L 3533 5363 
C 3533 5024 3546 4685 3565 4352 
L 435 4352 
z
" transform="scale(0.015625)"/>
      <path id="NotoSansCJKjp-Regular-89c1" d="M 3315 1907 
L 3315 314 
C 3315 -218 3501 -358 4128 -358 
C 4256 -358 5126 -358 5267 -358 
C 5856 -358 5997 -115 6061 890 
C 5926 915 5728 992 5619 1075 
C 5594 211 5542 90 5235 90 
C 5043 90 4314 90 4160 90 
C 3840 90 3789 122 3789 320 
L 3789 1907 
L 3315 1907 
z
M 2893 3936 
C 2835 1670 2752 448 294 -102 
C 397 -205 525 -390 576 -512 
C 3155 115 3328 1510 3398 3936 
L 2893 3936 
z
M 1139 5018 
L 1139 1357 
L 1638 1357 
L 1638 4531 
L 4730 4531 
L 4730 1357 
L 5248 1357 
L 5248 5018 
L 1139 5018 
z
" transform="scale(0.015625)"/>
     </defs>
     <use xlink:href="#NotoSansCJKjp-Regular-800c"/>
     <use xlink:href="#NotoSansCJKjp-Regular-662f" transform="translate(99.999985 0)"/>
     <use xlink:href="#NotoSansCJKjp-Regular-20" transform="translate(199.999969 0)"/>
     <use xlink:href="#NotoSansCJKjp-Regular-6d" transform="translate(222.399963 0)"/>
     <use xlink:href="#NotoSansCJKjp-Regular-69" transform="translate(314.999954 0)"/>
     <use xlink:href="#NotoSansCJKjp-Regular-73" transform="translate(342.499939 0)"/>
     <use xlink:href="#NotoSansCJKjp-Regular-73" transform="translate(389.299927 0)"/>
     <use xlink:href="#NotoSansCJKjp-Regular-69" transform="translate(436.099915 0)"/>
     <use xlink:href="#NotoSansCJKjp-Regular-6e" transform="translate(463.599899 0)"/>
     <use xlink:href="#NotoSansCJKjp-Regular-67" transform="translate(524.599884 0)"/>
     <use xlink:href="#NotoSansCJKjp-Regular-20" transform="translate(580.999878 0)"/>
     <use xlink:href="#NotoSansCJKjp-Regular-6216" transform="translate(603.399872 0)"/>
     <use xlink:href="#NotoSansCJKjp-Regular-53ef" transform="translate(703.399857 0)"/>
     <use xlink:href="#NotoSansCJKjp-Regular-89c1" transform="translate(803.399841 0)"/>
    </g>
   </g>
   <g id="text_7">
    <!-- Heckman selection：贷款利率只在获得贷款样本中可观测 -->
    <g transform="translate(60.223906 18.343125) scale(0.14 -0.14)">
     <defs>
      <path id="NotoSansCJKjp-Regular-48" d="M 646 0 
L 1235 0 
L 1235 2214 
L 3424 2214 
L 3424 0 
L 4019 0 
L 4019 4691 
L 3424 4691 
L 3424 2726 
L 1235 2726 
L 1235 4691 
L 646 4691 
L 646 0 
z
" transform="scale(0.015625)"/>
      <path id="NotoSansCJKjp-Regular-ff1a" d="M 3200 3482 
C 3456 3482 3686 3667 3686 3962 
C 3686 4256 3456 4442 3200 4442 
C 2944 4442 2714 4256 2714 3962 
C 2714 3667 2944 3482 3200 3482 
z
M 3200 346 
C 3456 346 3686 538 3686 826 
C 3686 1120 3456 1312 3200 1312 
C 2944 1312 2714 1120 2714 826 
C 2714 538 2944 346 3200 346 
z
" transform="scale(0.015625)"/>
      <path id="NotoSansCJKjp-Regular-53ea" d="M 3776 1011 
C 4410 557 5184 -102 5549 -531 
L 5971 -230 
C 5581 205 4787 838 4160 1267 
L 3776 1011 
z
M 2163 1280 
C 1792 768 1043 186 371 -179 
C 486 -262 659 -416 755 -518 
C 1440 -134 2195 493 2675 1082 
L 2163 1280 
z
M 1062 4941 
L 1062 1491 
L 1542 1491 
L 1542 1722 
L 4973 1722 
L 4973 1523 
L 5472 1523 
L 5472 4941 
L 1062 4941 
z
M 1542 2182 
L 1542 4474 
L 4973 4474 
L 4973 2182 
L 1542 2182 
z
" transform="scale(0.015625)"/>
      <path id="NotoSansCJKjp-Regular-5728" d="M 2502 5376 
C 2413 5050 2298 4710 2163 4384 
L 403 4384 
L 403 3923 
L 1952 3923 
C 1542 3104 979 2342 243 1830 
C 320 1722 442 1517 493 1389 
C 762 1581 1011 1798 1235 2035 
L 1235 -486 
L 1715 -486 
L 1715 2605 
C 2016 3014 2278 3462 2496 3923 
L 6010 3923 
L 6010 4384 
L 2694 4384 
C 2810 4672 2912 4966 3002 5254 
L 2502 5376 
z
M 3827 3590 
L 3827 2355 
L 2387 2355 
L 2387 1907 
L 3827 1907 
L 3827 90 
L 2131 90 
L 2131 -358 
L 6003 -358 
L 6003 90 
L 4307 90 
L 4307 1907 
L 5760 1907 
L 5760 2355 
L 4307 2355 
L 4307 3590 
L 3827 3590 
z
" transform="scale(0.015625)"/>
      <path id="NotoSansCJKjp-Regular-4e2d" d="M 2931 5376 
L 2931 4230 
L 614 4230 
L 614 1190 
L 1094 1190 
L 1094 1587 
L 2931 1587 
L 2931 -506 
L 3437 -506 
L 3437 1587 
L 5280 1587 
L 5280 1222 
L 5773 1222 
L 5773 4230 
L 3437 4230 
L 3437 5376 
L 2931 5376 
z
M 1094 2061 
L 1094 3763 
L 2931 3763 
L 2931 2061 
L 1094 2061 
z
M 5280 2061 
L 3437 2061 
L 3437 3763 
L 5280 3763 
L 5280 2061 
z
" transform="scale(0.015625)"/>
     </defs>
     <use xlink:href="#NotoSansCJKjp-Regular-48"/>
     <use xlink:href="#NotoSansCJKjp-Regular-65" transform="translate(72.799988 0)"/>
     <use xlink:href="#NotoSansCJKjp-Regular-63" transform="translate(128.199982 0)"/>
     <use xlink:href="#NotoSansCJKjp-Regular-6b" transform="translate(179.199966 0)"/>
     <use xlink:href="#NotoSansCJKjp-Regular-6d" transform="translate(234.399963 0)"/>
     <use xlink:href="#NotoSansCJKjp-Regular-61" transform="translate(326.999954 0)"/>
     <use xlink:href="#NotoSansCJKjp-Regular-6e" transform="translate(383.299942 0)"/>
     <use xlink:href="#NotoSansCJKjp-Regular-20" transform="translate(444.299927 0)"/>
     <use xlink:href="#NotoSansCJKjp-Regular-73" transform="translate(466.699921 0)"/>
     <use xlink:href="#NotoSansCJKjp-Regular-65" transform="translate(513.499908 0)"/>
     <use xlink:href="#NotoSansCJKjp-Regular-6c" transform="translate(568.899902 0)"/>
     <use xlink:href="#NotoSansCJKjp-Regular-65" transform="translate(597.299896 0)"/>
     <use xlink:href="#NotoSansCJKjp-Regular-63" transform="translate(652.69989 0)"/>
     <use xlink:href="#NotoSansCJKjp-Regular-74" transform="translate(703.699875 0)"/>
     <use xlink:href="#NotoSansCJKjp-Regular-69" transform="translate(741.399872 0)"/>
     <use xlink:href="#NotoSansCJKjp-Regular-6f" transform="translate(768.899857 0)"/>
     <use xlink:href="#NotoSansCJKjp-Regular-6e" transform="translate(829.499847 0)"/>
     <use xlink:href="#NotoSansCJKjp-Regular-ff1a" transform="translate(890.499832 0)"/>
     <use xlink:href="#NotoSansCJKjp-Regular-8d37" transform="translate(990.499817 0)"/>
     <use xlink:href="#NotoSansCJKjp-Regular-6b3e" transform="translate(1090.499802 0)"/>
     <use xlink:href="#NotoSansCJKjp-Regular-5229" transform="translate(1190.499786 0)"/>
     <use xlink:href="#NotoSansCJKjp-Regular-7387" transform="translate(1290.499771 0)"/>
     <use xlink:href="#NotoSansCJKjp-Regular-53ea" transform="translate(1390.499756 0)"/>
     <use xlink:href="#NotoSansCJKjp-Regular-5728" transform="translate(1490.499741 0)"/>
     <use xlink:href="#NotoSansCJKjp-Regular-83b7" transform="translate(1590.499725 0)"/>
     <use xlink:href="#NotoSansCJKjp-Regular-5f97" transform="translate(1690.49971 0)"/>
     <use xlink:href="#NotoSansCJKjp-Regular-8d37" transform="translate(1790.499695 0)"/>
     <use xlink:href="#NotoSansCJKjp-Regular-6b3e" transform="translate(1890.49968 0)"/>
     <use xlink:href="#NotoSansCJKjp-Regular-6837" transform="translate(1990.499664 0)"/>
     <use xlink:href="#NotoSansCJKjp-Regular-672c" transform="translate(2090.499649 0)"/>
     <use xlink:href="#NotoSansCJKjp-Regular-4e2d" transform="translate(2190.499634 0)"/>
     <use xlink:href="#NotoSansCJKjp-Regular-53ef" transform="translate(2290.499619 0)"/>
     <use xlink:href="#NotoSansCJKjp-Regular-89c2" transform="translate(2390.499603 0)"/>
     <use xlink:href="#NotoSansCJKjp-Regular-6d4b" transform="translate(2490.499588 0)"/>
    </g>
   </g>
  </g>
 </g>
 <defs>
  <clipPath id="p3f4b68eec1">
   <rect x="7.2" y="26.343125" width="468.72" height="255.024"/>
  </clipPath>
 </defs>
</svg>
