<?xml version="1.0" encoding="utf-8" standalone="no"?>
<!DOCTYPE svg PUBLIC "-//W3C//DTD SVG 1.1//EN"
  "http://www.w3.org/Graphics/SVG/1.1/DTD/svg11.dtd">
<svg xmlns:xlink="http://www.w3.org/1999/xlink" width="717.48pt" height="347.04pt" viewBox="0 0 717.48 347.04" xmlns="http://www.w3.org/2000/svg" version="1.1">
 <metadata>
  <rdf:RDF xmlns:dc="http://purl.org/dc/elements/1.1/" xmlns:cc="http://creativecommons.org/ns#" xmlns:rdf="http://www.w3.org/1999/02/22-rdf-syntax-ns#">
   <cc:Work>
    <dc:type rdf:resource="http://purl.org/dc/dcmitype/StillImage"/>
    <dc:date>2026-04-29T04:11:59.105552</dc:date>
    <dc:format>image/svg+xml</dc:format>
    <dc:creator>
     <cc:Agent>
      <dc:title>Matplotlib v3.10.8, https://matplotlib.org/</dc:title>
     </cc:Agent>
    </dc:creator>
   </cc:Work>
  </rdf:RDF>
 </metadata>
 <defs>
  <style type="text/css">*{stroke-linejoin: round; stroke-linecap: butt}</style>
 </defs>
 <g id="figure_1">
  <g id="patch_1">
   <path d="M 0 347.04 
L 717.48 347.04 
L 717.48 -0 
L 0 -0 
z
" style="fill: #ffffff"/>
  </g>
  <g id="axes_1">
   <g id="patch_2">
    <path d="M 26.451 72.0648 
L 127.449 72.0648 
Q 131.913 72.0648 131.913 67.6296 
L 131.913 24.3864 
Q 131.913 19.9512 127.449 19.9512 
L 26.451 19.9512 
Q 21.987 19.9512 21.987 24.3864 
L 21.987 67.6296 
Q 21.987 72.0648 26.451 72.0648 
z
" clip-path="url(#p8fe28cdda5)" style="fill: #d7eafb; stroke: #5b8fc6; stroke-width: 1.25; stroke-linejoin: miter"/>
   </g>
   <g id="patch_3">
    <path d="M 168.741 72.0648 
L 275.319 72.0648 
Q 279.783 72.0648 279.783 67.6296 
L 279.783 24.3864 
Q 279.783 19.9512 275.319 19.9512 
L 168.741 19.9512 
Q 164.277 19.9512 164.277 24.3864 
L 164.277 67.6296 
Q 164.277 72.0648 168.741 72.0648 
z
" clip-path="url(#p8fe28cdda5)" style="fill: #fff1c9; stroke: #d5a537; stroke-width: 1.25; stroke-linejoin: miter"/>
   </g>
   <g id="patch_4">
    <path d="M 306.846 72.0648 
L 472.014 72.0648 
Q 476.478 72.0648 476.478 67.6296 
L 476.478 24.3864 
Q 476.478 19.9512 472.014 19.9512 
L 306.846 19.9512 
Q 302.382 19.9512 302.382 24.3864 
L 302.382 67.6296 
Q 302.382 72.0648 306.846 72.0648 
z
" clip-path="url(#p8fe28cdda5)" style="fill: #fadbd8; stroke: #b7645c; stroke-width: 1.25; stroke-linejoin: miter"/>
   </g>
   <g id="patch_5">
    <path d="M 157.581 141.3648 
L 286.479 141.3648 
Q 290.943 141.3648 290.943 136.9296 
L 290.943 93.6864 
Q 290.943 89.2512 286.479 89.2512 
L 157.581 89.2512 
Q 153.117 89.2512 153.117 93.6864 
L 153.117 136.9296 
Q 153.117 141.3648 157.581 141.3648 
z
" clip-path="url(#p8fe28cdda5)" style="fill: #dff0d8; stroke: #6ba35d; stroke-width: 1.25; stroke-linejoin: miter"/>
   </g>
   <g id="patch_6">
    <path d="M 22.266 213.4368 
L 142.794 213.4368 
Q 147.258 213.4368 147.258 209.0016 
L 147.258 165.7584 
Q 147.258 161.3232 142.794 161.3232 
L 22.266 161.3232 
Q 17.802 161.3232 17.802 165.7584 
L 17.802 209.0016 
Q 17.802 213.4368 22.266 213.4368 
z
" clip-path="url(#p8fe28cdda5)" style="fill: #e8daef; stroke: #8e6aa7; stroke-width: 1.25; stroke-linejoin: miter"/>
   </g>
   <g id="patch_7">
    <path d="M 168.741 213.4368 
L 297.639 213.4368 
Q 302.103 213.4368 302.103 209.0016 
L 302.103 165.7584 
Q 302.103 161.3232 297.639 161.3232 
L 168.741 161.3232 
Q 164.277 161.3232 164.277 165.7584 
L 164.277 209.0016 
Q 164.277 213.4368 168.741 213.4368 
z
" clip-path="url(#p8fe28cdda5)" style="fill: #d7eafb; stroke: #5b8fc6; stroke-width: 1.25; stroke-linejoin: miter"/>
   </g>
   <g id="patch_8">
    <path d="M 327.771 213.4368 
L 473.409 213.4368 
Q 477.873 213.4368 477.873 209.0016 
L 477.873 165.7584 
Q 477.873 161.3232 473.409 161.3232 
L 327.771 161.3232 
Q 323.307 161.3232 323.307 165.7584 
L 323.307 209.0016 
Q 323.307 213.4368 327.771 213.4368 
z
" clip-path="url(#p8fe28cdda5)" style="fill: #fdebd0; stroke: #d49a45; stroke-width: 1.25; stroke-linejoin: miter"/>
   </g>
   <g id="patch_9">
    <path d="M 500.751 213.4368 
L 635.229 213.4368 
Q 639.693 213.4368 639.693 209.0016 
L 639.693 165.7584 
Q 639.693 161.3232 635.229 161.3232 
L 500.751 161.3232 
Q 496.287 161.3232 496.287 165.7584 
L 496.287 209.0016 
Q 496.287 213.4368 500.751 213.4368 
z
" clip-path="url(#p8fe28cdda5)" style="fill: #d5f5e3; stroke: #4e9a73; stroke-width: 1.25; stroke-linejoin: miter"/>
   </g>
   <g id="patch_10">
    <path d="M 246.861 306.576 
L 492.939 306.576 
Q 497.403 306.576 497.403 302.1408 
L 497.403 255.5712 
Q 497.403 251.136 492.939 251.136 
L 246.861 251.136 
Q 242.397 251.136 242.397 255.5712 
L 242.397 302.1408 
Q 242.397 306.576 246.861 306.576 
z
" clip-path="url(#p8fe28cdda5)" style="fill: #f2f3f4; stroke-dasharray: 4.625,2; stroke-dashoffset: 0; stroke: #8a8a8a; stroke-width: 1.25; stroke-linejoin: miter"/>
   </g>
   <g id="patch_11">
    <path d="M 136.561047 46.008 
Q 148.094374 46.008 158.341962 46.008 
" clip-path="url(#p8fe28cdda5)" style="fill: none; stroke: #404040; stroke-width: 1.15; stroke-linecap: round"/>
    <path d="M 153.541962 43.608 
L 158.341962 46.008 
L 153.541962 48.408 
z
" clip-path="url(#p8fe28cdda5)" style="fill: #404040; stroke: #404040; stroke-width: 1.15; stroke-linecap: round"/>
   </g>
   <g id="patch_12">
    <path d="M 284.434623 46.008 
Q 291.08293 46.008 296.445497 46.008 
" clip-path="url(#p8fe28cdda5)" style="fill: none; stroke: #404040; stroke-width: 1.15; stroke-linecap: round"/>
    <path d="M 291.645497 43.608 
L 296.445497 46.008 
L 291.645497 48.408 
z
" clip-path="url(#p8fe28cdda5)" style="fill: #404040; stroke: #404040; stroke-width: 1.15; stroke-linecap: round"/>
   </g>
   <g id="patch_13">
    <path d="M 222.03 76.738151 
Q 222.03 80.657409 222.03 83.290928 
" clip-path="url(#p8fe28cdda5)" style="fill: none; stroke: #404040; stroke-width: 1.15; stroke-linecap: round"/>
    <path d="M 224.43 78.490928 
L 222.03 83.290928 
L 219.63 78.490928 
z
" clip-path="url(#p8fe28cdda5)" style="fill: #404040; stroke: #404040; stroke-width: 1.15; stroke-linecap: round"/>
   </g>
   <g id="patch_14">
    <path d="M 149.435586 119.12721 
Q 117.432856 136.885431 89.761369 158.825264 
" clip-path="url(#p8fe28cdda5)" style="fill: none; stroke: #404040; stroke-width: 1.15; stroke-linecap: round"/>
    <path d="M 95.013665 157.723724 
L 89.761369 158.825264 
L 92.031514 153.962504 
z
" clip-path="url(#p8fe28cdda5)" style="fill: #404040; stroke: #404040; stroke-width: 1.15; stroke-linecap: round"/>
   </g>
   <g id="patch_15">
    <path d="M 225.123794 145.415602 
Q 227.609528 151.342876 229.598016 156.084456 
" clip-path="url(#p8fe28cdda5)" style="fill: none; stroke: #404040; stroke-width: 1.15; stroke-linecap: round"/>
    <path d="M 229.954915 150.729773 
L 229.598016 156.084456 
L 225.528409 152.586127 
z
" clip-path="url(#p8fe28cdda5)" style="fill: #404040; stroke: #404040; stroke-width: 1.15; stroke-linecap: round"/>
   </g>
   <g id="patch_16">
    <path d="M 306.755134 187.38 
Q 312.704203 187.38 317.367533 187.38 
" clip-path="url(#p8fe28cdda5)" style="fill: none; stroke: #404040; stroke-width: 1.15; stroke-linecap: round"/>
    <path d="M 312.567533 184.98 
L 317.367533 187.38 
L 312.567533 189.78 
z
" clip-path="url(#p8fe28cdda5)" style="fill: #404040; stroke: #404040; stroke-width: 1.15; stroke-linecap: round"/>
   </g>
   <g id="patch_17">
    <path d="M 482.522069 187.38 
Q 487.078136 187.38 490.348464 187.38 
" clip-path="url(#p8fe28cdda5)" style="fill: none; stroke: #404040; stroke-width: 1.15; stroke-linecap: round"/>
    <path d="M 485.548464 184.98 
L 490.348464 187.38 
L 485.548464 189.78 
z
" clip-path="url(#p8fe28cdda5)" style="fill: #404040; stroke: #404040; stroke-width: 1.15; stroke-linecap: round"/>
   </g>
   <g id="text_1">
    <!-- 因变量受限 -->
    <g transform="translate(46.95 42.304125) scale(0.12 -0.12)">
     <defs>
      <path id="NotoSansCJKjp-Regular-56e0" d="M 2963 4346 
C 2950 3981 2938 3648 2906 3334 
L 1357 3334 
L 1357 2899 
L 2854 2899 
C 2694 1971 2310 1318 1280 928 
C 1376 838 1510 672 1568 557 
C 2547 954 2995 1581 3213 2426 
C 3494 1530 3987 909 4806 576 
C 4870 704 5005 883 5107 973 
C 4230 1274 3731 1939 3501 2899 
L 5043 2899 
L 5043 3334 
L 3360 3334 
C 3386 3648 3405 3987 3418 4346 
L 2963 4346 
z
M 525 5075 
L 525 -512 
L 1005 -512 
L 1005 -218 
L 5395 -218 
L 5395 -512 
L 5894 -512 
L 5894 5075 
L 525 5075 
z
M 1005 243 
L 1005 4614 
L 5395 4614 
L 5395 243 
L 1005 243 
z
" transform="scale(0.015625)"/>
      <path id="NotoSansCJKjp-Regular-53d8" d="M 1427 4026 
C 1235 3571 915 3110 563 2803 
C 672 2746 851 2618 941 2541 
C 1280 2880 1645 3392 1856 3910 
L 1427 4026 
z
M 4422 3782 
C 4813 3418 5280 2880 5510 2534 
L 5888 2784 
C 5664 3117 5197 3629 4781 3987 
L 4422 3782 
z
M 2765 5318 
C 2880 5139 3008 4909 3091 4723 
L 448 4723 
L 448 4294 
L 2221 4294 
L 2221 2349 
L 2701 2349 
L 2701 4294 
L 3686 4294 
L 3686 2355 
L 4166 2355 
L 4166 4294 
L 5952 4294 
L 5952 4723 
L 3629 4723 
C 3546 4922 3373 5222 3226 5434 
L 2765 5318 
z
M 851 2170 
L 851 1741 
L 1363 1741 
C 1702 1235 2163 819 2714 480 
C 1997 192 1171 6 333 -102 
C 416 -205 531 -403 570 -525 
C 1491 -378 2400 -141 3194 218 
C 3949 -154 4851 -397 5843 -525 
C 5901 -397 6016 -211 6118 -102 
C 5216 -6 4390 186 3686 474 
C 4352 851 4902 1344 5267 1978 
L 4960 2189 
L 4877 2170 
L 851 2170 
z
M 1894 1741 
L 4538 1741 
C 4211 1318 3744 973 3200 698 
C 2662 979 2221 1325 1894 1741 
z
" transform="scale(0.015625)"/>
      <path id="NotoSansCJKjp-Regular-91cf" d="M 1600 4256 
L 4781 4256 
L 4781 3904 
L 1600 3904 
L 1600 4256 
z
M 1600 4883 
L 4781 4883 
L 4781 4538 
L 1600 4538 
L 1600 4883 
z
M 1133 5171 
L 1133 3616 
L 5261 3616 
L 5261 5171 
L 1133 5171 
z
M 333 3341 
L 333 2976 
L 6074 2976 
L 6074 3341 
L 333 3341 
z
M 1472 1747 
L 2957 1747 
L 2957 1376 
L 1472 1376 
L 1472 1747 
z
M 3424 1747 
L 4973 1747 
L 4973 1376 
L 3424 1376 
L 3424 1747 
z
M 1472 2387 
L 2957 2387 
L 2957 2029 
L 1472 2029 
L 1472 2387 
z
M 3424 2387 
L 4973 2387 
L 4973 2029 
L 3424 2029 
L 3424 2387 
z
M 301 19 
L 301 -352 
L 6112 -352 
L 6112 19 
L 3424 19 
L 3424 390 
L 5587 390 
L 5587 730 
L 3424 730 
L 3424 1082 
L 5446 1082 
L 5446 2688 
L 1018 2688 
L 1018 1082 
L 2957 1082 
L 2957 730 
L 838 730 
L 838 390 
L 2957 390 
L 2957 19 
L 301 19 
z
" transform="scale(0.015625)"/>
      <path id="NotoSansCJKjp-Regular-53d7" d="M 5248 5402 
C 4147 5165 2176 4998 525 4928 
C 570 4819 627 4634 634 4512 
C 2304 4582 4294 4742 5581 5011 
L 5248 5402 
z
M 2765 4518 
C 2912 4218 3046 3814 3085 3565 
L 3533 3680 
C 3494 3930 3347 4320 3194 4614 
L 2765 4518 
z
M 4947 4627 
C 4806 4294 4563 3846 4358 3526 
L 1549 3526 
L 1926 3654 
C 1856 3885 1658 4237 1478 4499 
L 1062 4378 
C 1229 4115 1414 3763 1485 3526 
L 461 3526 
L 461 2221 
L 915 2221 
L 915 3104 
L 5472 3104 
L 5472 2221 
L 5946 2221 
L 5946 3526 
L 4845 3526 
C 5043 3814 5261 4160 5440 4480 
L 4947 4627 
z
M 4442 1933 
C 4141 1478 3725 1114 3219 819 
C 2694 1120 2272 1491 1958 1933 
L 4442 1933 
z
M 1242 2381 
L 1242 1933 
L 1510 1933 
L 1446 1907 
C 1779 1382 2221 941 2752 582 
C 2042 262 1203 58 333 -64 
C 429 -166 557 -371 608 -493 
C 1542 -339 2438 -90 3213 307 
C 3936 -83 4806 -352 5773 -493 
C 5837 -352 5965 -154 6067 -45 
C 5178 64 4371 269 3686 582 
C 4314 986 4826 1510 5158 2195 
L 4838 2400 
L 4749 2381 
L 1242 2381 
z
" transform="scale(0.015625)"/>
      <path id="NotoSansCJKjp-Regular-9650" d="M 3309 3482 
L 5261 3482 
L 5261 2675 
L 3309 2675 
L 3309 3482 
z
M 3309 3885 
L 3309 4672 
L 5261 4672 
L 5261 3885 
L 3309 3885 
z
M 5632 2106 
C 5414 1862 5082 1562 4774 1325 
C 4634 1613 4518 1926 4422 2253 
L 5734 2253 
L 5734 5094 
L 2842 5094 
L 2842 179 
L 2118 45 
L 2278 -422 
C 2906 -282 3757 -90 4570 96 
L 4531 512 
L 3309 269 
L 3309 2253 
L 4000 2253 
C 4314 992 4896 -6 5850 -493 
C 5920 -371 6061 -186 6170 -96 
C 5670 128 5274 506 4966 986 
C 5299 1222 5696 1536 6003 1830 
L 5632 2106 
z
M 525 5101 
L 525 -512 
L 979 -512 
L 979 4666 
L 1920 4666 
C 1766 4224 1555 3635 1350 3168 
C 1856 2662 1990 2240 1990 1888 
C 1990 1696 1952 1530 1850 1459 
C 1779 1414 1702 1402 1619 1389 
C 1504 1389 1363 1389 1197 1408 
C 1274 1280 1318 1088 1325 966 
C 1485 960 1664 954 1805 973 
C 1939 992 2067 1024 2163 1094 
C 2349 1222 2438 1485 2432 1843 
C 2432 2240 2310 2694 1792 3226 
C 2035 3731 2298 4390 2502 4922 
L 2182 5120 
L 2106 5101 
L 525 5101 
z
" transform="scale(0.015625)"/>
     </defs>
     <use xlink:href="#NotoSansCJKjp-Regular-56e0"/>
     <use xlink:href="#NotoSansCJKjp-Regular-53d8" transform="translate(99.999985 0)"/>
     <use xlink:href="#NotoSansCJKjp-Regular-91cf" transform="translate(199.999969 0)"/>
     <use xlink:href="#NotoSansCJKjp-Regular-53d7" transform="translate(299.999954 0)"/>
     <use xlink:href="#NotoSansCJKjp-Regular-9650" transform="translate(399.999939 0)"/>
    </g>
    <!-- 或有大量 0 -->
    <g transform="translate(48.275625 56.514375) scale(0.12 -0.12)">
     <defs>
      <path id="NotoSansCJKjp-Regular-6216" d="M 4429 5062 
C 4819 4870 5293 4576 5523 4358 
L 5818 4691 
C 5581 4909 5101 5190 4710 5357 
L 4429 5062 
z
M 397 422 
L 493 -70 
C 1235 90 2285 320 3270 538 
L 3232 992 
C 2189 774 1094 550 397 422 
z
M 1248 2893 
L 2554 2893 
L 2554 1779 
L 1248 1779 
L 1248 2893 
z
M 800 3315 
L 800 1363 
L 3021 1363 
L 3021 3315 
L 800 3315 
z
M 435 4352 
L 435 3878 
L 3590 3878 
C 3667 2835 3814 1875 4045 1120 
C 3616 602 3098 179 2502 -141 
C 2611 -230 2797 -416 2874 -512 
C 3379 -211 3834 160 4230 602 
C 4518 -96 4902 -518 5395 -518 
C 5888 -518 6067 -198 6157 902 
C 6022 954 5843 1062 5734 1178 
C 5696 320 5619 -19 5440 -19 
C 5120 -19 4832 378 4602 1050 
C 5075 1683 5459 2438 5741 3302 
L 5261 3418 
C 5056 2752 4774 2157 4429 1632 
C 4269 2259 4154 3027 4096 3878 
L 5990 3878 
L 5990 4352 
L 4064 4352 
C 4051 4678 4045 5018 4045 5363 
L 3533 5363 
C 3533 5024 3546 4685 3565 4352 
L 435 4352 
z
" transform="scale(0.015625)"/>
      <path id="NotoSansCJKjp-Regular-6709" d="M 2502 5376 
C 2426 5101 2336 4819 2221 4544 
L 403 4544 
L 403 4096 
L 2022 4096 
C 1613 3251 1024 2470 256 1946 
C 346 1856 499 1683 563 1574 
C 966 1862 1325 2208 1632 2598 
L 1632 -506 
L 2106 -506 
L 2106 762 
L 4787 762 
L 4787 96 
C 4787 0 4755 -38 4646 -38 
C 4525 -45 4134 -51 3712 -32 
C 3776 -166 3846 -365 3872 -493 
C 4422 -493 4774 -493 4986 -422 
C 5197 -339 5261 -192 5261 90 
L 5261 3354 
L 2150 3354 
C 2298 3597 2426 3840 2541 4096 
L 6010 4096 
L 6010 4544 
L 2733 4544 
C 2829 4781 2912 5024 2989 5261 
L 2502 5376 
z
M 2106 1850 
L 4787 1850 
L 4787 1178 
L 2106 1178 
L 2106 1850 
z
M 2106 2259 
L 2106 2918 
L 4787 2918 
L 4787 2259 
L 2106 2259 
z
" transform="scale(0.015625)"/>
      <path id="NotoSansCJKjp-Regular-5927" d="M 2950 5370 
C 2944 4864 2950 4218 2854 3539 
L 397 3539 
L 397 3046 
L 2771 3046 
C 2515 1830 1875 589 275 -102 
C 410 -205 563 -378 640 -499 
C 2202 218 2893 1446 3206 2682 
C 3706 1222 4531 90 5773 -499 
C 5856 -358 6010 -160 6131 -51 
C 4890 467 4051 1632 3603 3046 
L 6029 3046 
L 6029 3539 
L 3366 3539 
C 3456 4211 3462 4851 3469 5370 
L 2950 5370 
z
" transform="scale(0.015625)"/>
      <path id="NotoSansCJKjp-Regular-20" transform="scale(0.015625)"/>
      <path id="NotoSansCJKjp-Regular-30" d="M 1779 -83 
C 2669 -83 3238 723 3238 2362 
C 3238 3987 2669 4774 1779 4774 
C 883 4774 320 3987 320 2362 
C 320 723 883 -83 1779 -83 
z
M 1779 390 
C 1248 390 883 986 883 2362 
C 883 3731 1248 4314 1779 4314 
C 2310 4314 2675 3731 2675 2362 
C 2675 986 2310 390 1779 390 
z
" transform="scale(0.015625)"/>
     </defs>
     <use xlink:href="#NotoSansCJKjp-Regular-6216"/>
     <use xlink:href="#NotoSansCJKjp-Regular-6709" transform="translate(99.999985 0)"/>
     <use xlink:href="#NotoSansCJKjp-Regular-5927" transform="translate(199.999969 0)"/>
     <use xlink:href="#NotoSansCJKjp-Regular-91cf" transform="translate(299.999954 0)"/>
     <use xlink:href="#NotoSansCJKjp-Regular-20" transform="translate(399.999939 0)"/>
     <use xlink:href="#NotoSansCJKjp-Regular-30" transform="translate(422.399933 0)"/>
    </g>
   </g>
   <g id="text_2">
    <!-- 样本是否 -->
    <g transform="translate(198.03 42.304125) scale(0.12 -0.12)">
     <defs>
      <path id="NotoSansCJKjp-Regular-6837" d="M 2822 5190 
C 3040 4864 3270 4429 3360 4154 
L 3808 4339 
C 3712 4614 3469 5030 3245 5350 
L 2822 5190 
z
M 5261 5395 
C 5120 5018 4877 4506 4659 4147 
L 2554 4147 
L 2554 3706 
L 3994 3706 
L 3994 2822 
L 2752 2822 
L 2752 2381 
L 3994 2381 
L 3994 1478 
L 2310 1478 
L 2310 1024 
L 3994 1024 
L 3994 -506 
L 4474 -506 
L 4474 1024 
L 6061 1024 
L 6061 1478 
L 4474 1478 
L 4474 2381 
L 5728 2381 
L 5728 2822 
L 4474 2822 
L 4474 3706 
L 5939 3706 
L 5939 4147 
L 5165 4147 
C 5357 4467 5568 4870 5747 5229 
L 5261 5395 
z
M 1171 5376 
L 1171 4141 
L 352 4141 
L 352 3693 
L 1171 3693 
C 986 2822 595 1798 198 1261 
C 282 1146 403 934 454 794 
C 717 1184 973 1798 1171 2445 
L 1171 -506 
L 1632 -506 
L 1632 2816 
C 1805 2496 2003 2125 2086 1914 
L 2387 2272 
C 2278 2451 1805 3187 1632 3418 
L 1632 3693 
L 2310 3693 
L 2310 4141 
L 1632 4141 
L 1632 5376 
L 1171 5376 
z
" transform="scale(0.015625)"/>
      <path id="NotoSansCJKjp-Regular-672c" d="M 2944 5370 
L 2944 4026 
L 416 4026 
L 416 3539 
L 2643 3539 
C 2099 2438 1171 1402 198 896 
C 307 800 461 621 544 499 
C 1478 1050 2355 2016 2944 3130 
L 2944 1171 
L 1690 1171 
L 1690 685 
L 2944 685 
L 2944 -512 
L 3450 -512 
L 3450 685 
L 4672 685 
L 4672 1171 
L 3450 1171 
L 3450 3123 
C 4026 2016 4896 1043 5856 512 
C 5939 646 6106 838 6221 934 
C 5210 1427 4288 2438 3744 3539 
L 5997 3539 
L 5997 4026 
L 3450 4026 
L 3450 5370 
L 2944 5370 
z
" transform="scale(0.015625)"/>
      <path id="NotoSansCJKjp-Regular-662f" d="M 1510 3885 
L 4845 3885 
L 4845 3360 
L 1510 3360 
L 1510 3885 
z
M 1510 4749 
L 4845 4749 
L 4845 4230 
L 1510 4230 
L 1510 4749 
z
M 1050 5114 
L 1050 2995 
L 5331 2995 
L 5331 5114 
L 1050 5114 
z
M 1478 1914 
C 1312 979 902 256 224 -186 
C 333 -256 518 -435 589 -518 
C 1011 -218 1344 192 1587 698 
C 2112 -186 2938 -384 4230 -384 
L 5984 -384 
C 6010 -250 6086 -38 6163 77 
C 5830 70 4493 64 4250 70 
C 3981 70 3725 77 3494 102 
L 3494 986 
L 5619 986 
L 5619 1408 
L 3494 1408 
L 3494 2125 
L 6035 2125 
L 6035 2554 
L 378 2554 
L 378 2125 
L 3014 2125 
L 3014 186 
C 2458 326 2048 627 1798 1216 
C 1862 1414 1914 1626 1958 1850 
L 1478 1914 
z
" transform="scale(0.015625)"/>
      <path id="NotoSansCJKjp-Regular-5426" d="M 3706 3616 
C 4442 3309 5331 2790 5792 2419 
L 6138 2784 
C 5664 3136 4781 3642 4051 3936 
L 3706 3616 
z
M 1133 1907 
L 1133 -512 
L 1626 -512 
L 1626 -205 
L 4800 -205 
L 4800 -499 
L 5318 -499 
L 5318 1907 
L 1133 1907 
z
M 1626 224 
L 1626 1485 
L 4800 1485 
L 4800 224 
L 1626 224 
z
M 422 5011 
L 422 4557 
L 3258 4557 
C 2515 3776 1363 3142 224 2778 
C 333 2682 493 2458 563 2342 
C 1389 2656 2234 3098 2950 3648 
L 2950 2093 
L 3437 2093 
L 3437 4058 
C 3603 4218 3763 4384 3904 4557 
L 5978 4557 
L 5978 5011 
L 422 5011 
z
" transform="scale(0.015625)"/>
     </defs>
     <use xlink:href="#NotoSansCJKjp-Regular-6837"/>
     <use xlink:href="#NotoSansCJKjp-Regular-672c" transform="translate(99.999985 0)"/>
     <use xlink:href="#NotoSansCJKjp-Regular-662f" transform="translate(199.999969 0)"/>
     <use xlink:href="#NotoSansCJKjp-Regular-5426" transform="translate(299.999954 0)"/>
    </g>
    <!-- 仍在数据中？ -->
    <g transform="translate(186.03 56.514375) scale(0.12 -0.12)">
     <defs>
      <path id="NotoSansCJKjp-Regular-4ecd" d="M 2221 4915 
L 2221 4474 
L 2957 4474 
C 2931 2835 2835 845 1722 -205 
C 1850 -282 2010 -416 2093 -531 
C 3270 627 3411 2707 3450 4474 
L 4634 4474 
C 4576 3744 4493 2906 4416 2368 
L 4877 2330 
L 4928 2765 
L 5594 2765 
C 5504 934 5395 224 5216 45 
C 5152 -26 5075 -38 4947 -38 
C 4800 -38 4435 -38 4032 0 
C 4115 -128 4173 -326 4179 -474 
C 4570 -486 4941 -493 5139 -480 
C 5363 -454 5498 -416 5632 -256 
C 5862 6 5965 813 6074 2976 
C 6080 3046 6086 3200 6086 3200 
L 4979 3200 
C 5030 3757 5082 4390 5120 4915 
L 2221 4915 
z
M 1773 5357 
C 1395 4390 774 3437 128 2822 
C 211 2714 346 2458 397 2349 
C 640 2592 877 2880 1107 3194 
L 1107 -499 
L 1568 -499 
L 1568 3898 
C 1818 4320 2042 4768 2221 5216 
L 1773 5357 
z
" transform="scale(0.015625)"/>
      <path id="NotoSansCJKjp-Regular-5728" d="M 2502 5376 
C 2413 5050 2298 4710 2163 4384 
L 403 4384 
L 403 3923 
L 1952 3923 
C 1542 3104 979 2342 243 1830 
C 320 1722 442 1517 493 1389 
C 762 1581 1011 1798 1235 2035 
L 1235 -486 
L 1715 -486 
L 1715 2605 
C 2016 3014 2278 3462 2496 3923 
L 6010 3923 
L 6010 4384 
L 2694 4384 
C 2810 4672 2912 4966 3002 5254 
L 2502 5376 
z
M 3827 3590 
L 3827 2355 
L 2387 2355 
L 2387 1907 
L 3827 1907 
L 3827 90 
L 2131 90 
L 2131 -358 
L 6003 -358 
L 6003 90 
L 4307 90 
L 4307 1907 
L 5760 1907 
L 5760 2355 
L 4307 2355 
L 4307 3590 
L 3827 3590 
z
" transform="scale(0.015625)"/>
      <path id="NotoSansCJKjp-Regular-6570" d="M 2803 5254 
C 2688 4998 2483 4627 2317 4403 
L 2643 4243 
C 2816 4454 3027 4781 3219 5075 
L 2803 5254 
z
M 531 5075 
C 704 4806 870 4454 928 4230 
L 1312 4397 
C 1248 4627 1075 4973 890 5222 
L 531 5075 
z
M 4026 5382 
C 3846 4243 3507 3162 2970 2490 
C 3078 2413 3283 2246 3360 2163 
C 3533 2394 3693 2669 3827 2970 
C 3974 2310 4160 1709 4410 1184 
C 4090 698 3667 314 3110 19 
C 2912 166 2656 326 2374 480 
C 2598 774 2746 1126 2829 1562 
L 3398 1562 
L 3398 1958 
L 1677 1958 
L 1894 2413 
L 1779 2438 
L 2061 2438 
L 2061 3398 
C 2374 3168 2771 2854 2938 2701 
L 3206 3046 
C 3034 3174 2336 3616 2061 3776 
L 2061 3802 
L 3373 3802 
L 3373 4198 
L 2061 4198 
L 2061 5382 
L 1613 5382 
L 1613 4198 
L 288 4198 
L 288 3802 
L 1485 3802 
C 1171 3379 678 2982 218 2784 
C 314 2694 422 2528 480 2419 
C 870 2637 1293 2989 1613 3373 
L 1613 2477 
L 1440 2515 
L 1178 1958 
L 250 1958 
L 250 1562 
L 979 1562 
C 806 1222 627 896 486 653 
L 909 506 
L 1005 678 
C 1222 589 1434 493 1638 384 
C 1306 147 858 -13 269 -109 
C 352 -211 448 -384 480 -512 
C 1171 -365 1683 -154 2061 160 
C 2355 -13 2611 -186 2810 -352 
L 2963 -192 
C 3046 -301 3136 -448 3174 -531 
C 3802 -205 4288 205 4666 710 
C 4979 192 5370 -224 5862 -512 
C 5939 -378 6093 -192 6208 -96 
C 5690 173 5280 614 4960 1165 
C 5350 1856 5594 2707 5754 3750 
L 6144 3750 
L 6144 4198 
L 4262 4198 
C 4358 4557 4442 4928 4506 5312 
L 4026 5382 
z
M 1478 1562 
L 2368 1562 
C 2285 1216 2157 928 1965 698 
C 1715 819 1459 934 1197 1030 
L 1478 1562 
z
M 4134 3750 
L 5254 3750 
C 5139 2950 4966 2266 4698 1696 
C 4435 2298 4250 3002 4134 3750 
z
" transform="scale(0.015625)"/>
      <path id="NotoSansCJKjp-Regular-636e" d="M 3098 1523 
L 3098 -518 
L 3520 -518 
L 3520 -256 
L 5491 -256 
L 5491 -493 
L 5933 -493 
L 5933 1523 
L 4698 1523 
L 4698 2317 
L 6131 2317 
L 6131 2733 
L 4698 2733 
L 4698 3437 
L 5907 3437 
L 5907 5094 
L 2528 5094 
L 2528 3162 
C 2528 2144 2470 749 1805 -237 
C 1914 -288 2112 -429 2202 -506 
C 2733 275 2912 1363 2970 2317 
L 4243 2317 
L 4243 1523 
L 3098 1523 
z
M 2995 4678 
L 5446 4678 
L 5446 3859 
L 2995 3859 
L 2995 4678 
z
M 2995 3437 
L 4243 3437 
L 4243 2733 
L 2989 2733 
L 2995 3162 
L 2995 3437 
z
M 3520 141 
L 3520 1114 
L 5491 1114 
L 5491 141 
L 3520 141 
z
M 1069 5370 
L 1069 4083 
L 269 4083 
L 269 3635 
L 1069 3635 
L 1069 2234 
C 736 2131 429 2042 186 1978 
L 314 1504 
L 1069 1747 
L 1069 90 
C 1069 0 1037 -26 960 -26 
C 883 -32 634 -32 358 -26 
C 416 -154 480 -352 493 -467 
C 896 -474 1146 -454 1299 -378 
C 1459 -307 1517 -173 1517 90 
L 1517 1894 
L 2253 2138 
L 2182 2579 
L 1517 2368 
L 1517 3635 
L 2240 3635 
L 2240 4083 
L 1517 4083 
L 1517 5370 
L 1069 5370 
z
" transform="scale(0.015625)"/>
      <path id="NotoSansCJKjp-Regular-4e2d" d="M 2931 5376 
L 2931 4230 
L 614 4230 
L 614 1190 
L 1094 1190 
L 1094 1587 
L 2931 1587 
L 2931 -506 
L 3437 -506 
L 3437 1587 
L 5280 1587 
L 5280 1222 
L 5773 1222 
L 5773 4230 
L 3437 4230 
L 3437 5376 
L 2931 5376 
z
M 1094 2061 
L 1094 3763 
L 2931 3763 
L 2931 2061 
L 1094 2061 
z
M 5280 2061 
L 3437 2061 
L 3437 3763 
L 5280 3763 
L 5280 2061 
z
" transform="scale(0.015625)"/>
      <path id="NotoSansCJKjp-Regular-ff1f" d="M 2848 1549 
L 3373 1549 
C 3200 2509 4730 2707 4730 3674 
C 4730 4410 4154 4870 3251 4870 
C 2554 4870 2054 4576 1632 4128 
L 1978 3808 
C 2349 4198 2752 4390 3187 4390 
C 3840 4390 4160 4070 4160 3622 
C 4160 2899 2650 2611 2848 1549 
z
M 3123 -32 
C 3347 -32 3533 134 3533 390 
C 3533 646 3347 819 3123 819 
C 2893 819 2707 646 2707 390 
C 2707 134 2893 -32 3123 -32 
z
" transform="scale(0.015625)"/>
     </defs>
     <use xlink:href="#NotoSansCJKjp-Regular-4ecd"/>
     <use xlink:href="#NotoSansCJKjp-Regular-5728" transform="translate(99.999985 0)"/>
     <use xlink:href="#NotoSansCJKjp-Regular-6570" transform="translate(199.999969 0)"/>
     <use xlink:href="#NotoSansCJKjp-Regular-636e" transform="translate(299.999954 0)"/>
     <use xlink:href="#NotoSansCJKjp-Regular-4e2d" transform="translate(399.999939 0)"/>
     <use xlink:href="#NotoSansCJKjp-Regular-ff1f" transform="translate(499.999924 0)"/>
    </g>
   </g>
   <g id="text_3">
    <!-- 否：样本被截断 -->
    <g transform="translate(347.43 42.1785) scale(0.12 -0.12)">
     <defs>
      <path id="NotoSansCJKjp-Regular-ff1a" d="M 3200 3482 
C 3456 3482 3686 3667 3686 3962 
C 3686 4256 3456 4442 3200 4442 
C 2944 4442 2714 4256 2714 3962 
C 2714 3667 2944 3482 3200 3482 
z
M 3200 346 
C 3456 346 3686 538 3686 826 
C 3686 1120 3456 1312 3200 1312 
C 2944 1312 2714 1120 2714 826 
C 2714 538 2944 346 3200 346 
z
" transform="scale(0.015625)"/>
      <path id="NotoSansCJKjp-Regular-88ab" d="M 4205 2848 
L 3277 2848 
L 3277 3942 
L 4205 3942 
L 4205 2848 
z
M 2822 4384 
L 2822 2842 
C 2822 1920 2752 640 2086 -269 
C 2202 -320 2394 -435 2477 -518 
C 3078 307 3238 1485 3270 2426 
L 3315 2426 
C 3520 1747 3821 1158 4218 672 
C 3834 314 3392 45 2931 -122 
C 3034 -218 3155 -397 3219 -518 
C 3693 -320 4141 -45 4531 320 
C 4909 -45 5363 -333 5888 -531 
C 5958 -397 6099 -211 6214 -109 
C 5690 58 5235 320 4864 666 
C 5325 1203 5683 1894 5875 2758 
L 5568 2874 
L 5485 2848 
L 4678 2848 
L 4678 3942 
L 5574 3942 
C 5504 3648 5421 3341 5338 3136 
L 5747 3046 
C 5888 3366 6029 3878 6138 4326 
L 5805 4403 
L 5722 4384 
L 4678 4384 
L 4678 5370 
L 4205 5370 
L 4205 4384 
L 2822 4384 
z
M 3763 2426 
L 5306 2426 
C 5133 1882 4864 1402 4538 1011 
C 4205 1414 3942 1888 3763 2426 
z
M 2394 3040 
C 2291 2848 2112 2586 1952 2381 
L 1734 2624 
C 2054 3059 2323 3539 2515 4032 
L 2259 4205 
L 2176 4186 
L 1632 4186 
L 1632 5357 
L 1178 5357 
L 1178 4186 
L 314 4186 
L 314 3750 
L 1933 3750 
C 1542 2931 832 2138 160 1696 
C 237 1613 358 1395 410 1274 
C 672 1466 941 1702 1197 1978 
L 1197 -518 
L 1651 -518 
L 1651 2182 
C 1888 1882 2170 1510 2291 1306 
L 2579 1632 
L 2157 2144 
C 2330 2336 2522 2586 2694 2822 
L 2394 3040 
z
" transform="scale(0.015625)"/>
      <path id="NotoSansCJKjp-Regular-622a" d="M 4627 5005 
C 4992 4730 5408 4326 5587 4045 
L 5946 4326 
C 5747 4602 5331 4992 4966 5254 
L 4627 5005 
z
M 5331 3027 
C 5146 2438 4890 1875 4563 1382 
C 4429 1914 4326 2566 4262 3315 
L 6074 3315 
L 6074 3750 
L 4230 3750 
C 4198 4256 4186 4800 4192 5370 
L 3712 5370 
C 3718 4813 3731 4269 3763 3750 
L 2259 3750 
L 2259 4378 
L 3430 4378 
L 3430 4781 
L 2259 4781 
L 2259 5376 
L 1805 5376 
L 1805 4781 
L 608 4781 
L 608 4378 
L 1805 4378 
L 1805 3750 
L 333 3750 
L 333 3315 
L 3795 3315 
C 3872 2381 4006 1549 4211 902 
C 3968 608 3699 339 3405 122 
L 3405 288 
L 2426 288 
L 2426 742 
L 3309 742 
L 3309 1062 
L 2426 1062 
L 2426 1498 
L 3309 1498 
L 3309 1818 
L 2426 1818 
L 2426 2234 
L 3411 2234 
L 3411 2611 
L 2515 2611 
L 2784 3117 
L 2349 3219 
C 2298 3053 2202 2816 2106 2611 
L 1363 2611 
C 1459 2790 1549 2970 1626 3155 
L 1210 3270 
C 992 2714 621 2157 211 1792 
C 314 1722 486 1581 563 1510 
C 646 1594 736 1690 819 1798 
L 819 -442 
L 1242 -442 
L 1242 -109 
L 3072 -109 
L 3008 -147 
C 3130 -243 3277 -403 3354 -518 
C 3744 -269 4096 38 4403 390 
C 4666 -179 5011 -512 5453 -512 
C 5920 -512 6093 -211 6176 813 
C 6048 851 5882 954 5773 1056 
C 5741 269 5664 -38 5485 -38 
C 5197 -38 4941 269 4742 806 
C 5184 1414 5530 2125 5773 2893 
L 5331 3027 
z
M 2022 1498 
L 2022 1062 
L 1242 1062 
L 1242 1498 
L 2022 1498 
z
M 2022 1818 
L 1242 1818 
L 1242 2234 
L 2022 2234 
L 2022 1818 
z
M 2022 742 
L 2022 288 
L 1242 288 
L 1242 742 
L 2022 742 
z
" transform="scale(0.015625)"/>
      <path id="NotoSansCJKjp-Regular-65ad" d="M 2963 4947 
C 2874 4614 2701 4115 2560 3802 
L 2854 3699 
C 3002 3987 3194 4448 3347 4832 
L 2963 4947 
z
M 1197 4832 
C 1338 4480 1446 4019 1472 3712 
L 1811 3827 
C 1786 4128 1658 4589 1510 4934 
L 1197 4832 
z
M 2035 5331 
L 2035 3450 
L 1114 3450 
L 1114 3034 
L 1978 3034 
C 1747 2464 1363 1856 998 1523 
C 1069 1421 1165 1248 1210 1126 
C 1510 1414 1805 1888 2035 2381 
L 2035 781 
L 2445 781 
L 2445 2355 
C 2669 2112 2938 1805 3046 1651 
L 3322 1984 
C 3187 2118 2624 2630 2445 2790 
L 2445 3034 
L 3347 3034 
L 3347 3450 
L 2445 3450 
L 2445 5331 
L 2035 5331 
z
M 5709 5274 
C 5306 5069 4602 4864 3955 4723 
L 3616 4826 
L 3616 2586 
C 3616 1952 3578 1216 3283 550 
L 3283 627 
L 947 627 
L 947 5146 
L 518 5146 
L 518 -282 
L 947 -282 
L 947 205 
L 3104 205 
C 3014 51 2899 -96 2771 -237 
C 2886 -294 3053 -461 3117 -570 
C 3955 326 4070 1626 4070 2579 
L 4070 2778 
L 5024 2778 
L 5024 -512 
L 5478 -512 
L 5478 2778 
L 6202 2778 
L 6202 3226 
L 4070 3226 
L 4070 4339 
C 4774 4480 5555 4678 6099 4922 
L 5709 5274 
z
" transform="scale(0.015625)"/>
     </defs>
     <use xlink:href="#NotoSansCJKjp-Regular-5426"/>
     <use xlink:href="#NotoSansCJKjp-Regular-ff1a" transform="translate(99.999985 0)"/>
     <use xlink:href="#NotoSansCJKjp-Regular-6837" transform="translate(199.999969 0)"/>
     <use xlink:href="#NotoSansCJKjp-Regular-672c" transform="translate(299.999954 0)"/>
     <use xlink:href="#NotoSansCJKjp-Regular-88ab" transform="translate(399.999939 0)"/>
     <use xlink:href="#NotoSansCJKjp-Regular-622a" transform="translate(499.999924 0)"/>
     <use xlink:href="#NotoSansCJKjp-Regular-65ad" transform="translate(599.999908 0)"/>
    </g>
    <!-- Truncated regression -->
    <g transform="translate(329.866875 56.38875) scale(0.12 -0.12)">
     <defs>
      <path id="NotoSansCJKjp-Regular-54" d="M 1619 0 
L 2214 0 
L 2214 4192 
L 3635 4192 
L 3635 4691 
L 198 4691 
L 198 4192 
L 1619 4192 
L 1619 0 
z
" transform="scale(0.015625)"/>
      <path id="NotoSansCJKjp-Regular-72" d="M 589 0 
L 1178 0 
L 1178 2234 
C 1408 2822 1760 3040 2048 3040 
C 2195 3040 2272 3021 2387 2982 
L 2496 3488 
C 2387 3546 2278 3565 2125 3565 
C 1741 3565 1382 3283 1139 2842 
L 1126 2842 
L 1069 3475 
L 589 3475 
L 589 0 
z
" transform="scale(0.015625)"/>
      <path id="NotoSansCJKjp-Regular-75" d="M 1606 -83 
C 2080 -83 2426 166 2752 544 
L 2771 544 
L 2816 0 
L 3302 0 
L 3302 3475 
L 2720 3475 
L 2720 1011 
C 2387 602 2138 422 1779 422 
C 1318 422 1126 698 1126 1344 
L 1126 3475 
L 538 3475 
L 538 1274 
C 538 384 870 -83 1606 -83 
z
" transform="scale(0.015625)"/>
      <path id="NotoSansCJKjp-Regular-6e" d="M 589 0 
L 1178 0 
L 1178 2522 
C 1523 2874 1766 3053 2125 3053 
C 2586 3053 2784 2778 2784 2125 
L 2784 0 
L 3366 0 
L 3366 2202 
C 3366 3085 3034 3565 2304 3565 
C 1830 3565 1466 3302 1139 2970 
L 1126 2970 
L 1069 3475 
L 589 3475 
L 589 0 
z
" transform="scale(0.015625)"/>
      <path id="NotoSansCJKjp-Regular-63" d="M 1958 -83 
C 2374 -83 2771 83 3085 352 
L 2829 749 
C 2611 557 2330 403 2010 403 
C 1370 403 934 934 934 1734 
C 934 2534 1395 3072 2029 3072 
C 2298 3072 2522 2950 2720 2771 
L 3014 3155 
C 2771 3373 2458 3565 2003 3565 
C 1107 3565 333 2893 333 1734 
C 333 582 1037 -83 1958 -83 
z
" transform="scale(0.015625)"/>
      <path id="NotoSansCJKjp-Regular-61" d="M 1389 -83 
C 1818 -83 2208 141 2541 416 
L 2560 416 
L 2611 0 
L 3091 0 
L 3091 2138 
C 3091 3002 2739 3565 1888 3565 
C 1325 3565 838 3315 525 3110 
L 749 2707 
C 1024 2893 1389 3078 1792 3078 
C 2362 3078 2509 2650 2509 2202 
C 1030 2035 378 1658 378 902 
C 378 275 806 -83 1389 -83 
z
M 1555 390 
C 1210 390 941 544 941 941 
C 941 1389 1338 1677 2509 1811 
L 2509 845 
C 2170 544 1888 390 1555 390 
z
" transform="scale(0.015625)"/>
      <path id="NotoSansCJKjp-Regular-74" d="M 1677 -83 
C 1894 -83 2125 -19 2323 45 
L 2208 486 
C 2093 435 1939 390 1811 390 
C 1408 390 1274 634 1274 1056 
L 1274 3002 
L 2221 3002 
L 2221 3475 
L 1274 3475 
L 1274 4454 
L 787 4454 
L 723 3475 
L 173 3443 
L 173 3002 
L 691 3002 
L 691 1075 
C 691 378 941 -83 1677 -83 
z
" transform="scale(0.015625)"/>
      <path id="NotoSansCJKjp-Regular-65" d="M 1997 -83 
C 2464 -83 2835 70 3136 269 
L 2931 659 
C 2669 486 2400 384 2061 384 
C 1402 384 947 858 909 1600 
L 3251 1600 
C 3264 1690 3277 1805 3277 1933 
C 3277 2925 2778 3565 1888 3565 
C 1094 3565 333 2867 333 1734 
C 333 589 1069 -83 1997 -83 
z
M 902 2016 
C 973 2707 1408 3098 1901 3098 
C 2445 3098 2765 2720 2765 2016 
L 902 2016 
z
" transform="scale(0.015625)"/>
      <path id="NotoSansCJKjp-Regular-64" d="M 1773 -83 
C 2189 -83 2560 141 2829 410 
L 2848 410 
L 2899 0 
L 3379 0 
L 3379 5094 
L 2790 5094 
L 2790 3757 
L 2822 3162 
C 2515 3411 2253 3565 1843 3565 
C 1050 3565 339 2861 339 1734 
C 339 576 902 -83 1773 -83 
z
M 1901 410 
C 1293 410 941 902 941 1741 
C 941 2534 1389 3072 1946 3072 
C 2234 3072 2502 2970 2790 2707 
L 2790 883 
C 2502 563 2221 410 1901 410 
z
" transform="scale(0.015625)"/>
      <path id="NotoSansCJKjp-Regular-67" d="M 1760 -1600 
C 2835 -1600 3520 -1043 3520 -397 
C 3520 179 3110 429 2310 429 
L 1626 429 
C 1158 429 1018 589 1018 806 
C 1018 998 1114 1114 1242 1222 
C 1395 1146 1587 1101 1754 1101 
C 2470 1101 3027 1568 3027 2310 
C 3027 2611 2912 2867 2746 3027 
L 3456 3027 
L 3456 3475 
L 2246 3475 
C 2125 3526 1952 3565 1754 3565 
C 1056 3565 454 3085 454 2323 
C 454 1907 678 1568 909 1389 
L 909 1363 
C 723 1235 525 1005 525 717 
C 525 442 659 256 838 147 
L 838 115 
C 512 -83 326 -371 326 -672 
C 326 -1267 915 -1600 1760 -1600 
z
M 1754 1498 
C 1357 1498 1018 1818 1018 2323 
C 1018 2835 1350 3136 1754 3136 
C 2170 3136 2496 2835 2496 2323 
C 2496 1818 2157 1498 1754 1498 
z
M 1843 -1197 
C 1210 -1197 838 -960 838 -589 
C 838 -390 941 -179 1190 0 
C 1344 -38 1510 -51 1638 -51 
L 2240 -51 
C 2701 -51 2944 -166 2944 -493 
C 2944 -851 2515 -1197 1843 -1197 
z
" transform="scale(0.015625)"/>
      <path id="NotoSansCJKjp-Regular-73" d="M 1498 -83 
C 2317 -83 2758 384 2758 947 
C 2758 1606 2208 1811 1702 2003 
C 1312 2150 954 2278 954 2605 
C 954 2880 1158 3110 1600 3110 
C 1907 3110 2150 2976 2387 2803 
L 2669 3168 
C 2406 3386 2022 3565 1594 3565 
C 832 3565 397 3130 397 2579 
C 397 1984 922 1754 1408 1574 
C 1792 1434 2202 1267 2202 915 
C 2202 614 1978 371 1517 371 
C 1101 371 794 538 486 787 
L 205 397 
C 531 122 1005 -83 1498 -83 
z
" transform="scale(0.015625)"/>
      <path id="NotoSansCJKjp-Regular-69" d="M 589 0 
L 1178 0 
L 1178 3475 
L 589 3475 
L 589 0 
z
M 883 4192 
C 1114 4192 1274 4346 1274 4582 
C 1274 4806 1114 4960 883 4960 
C 653 4960 499 4806 499 4582 
C 499 4346 653 4192 883 4192 
z
" transform="scale(0.015625)"/>
      <path id="NotoSansCJKjp-Regular-6f" d="M 1939 -83 
C 2790 -83 3546 582 3546 1734 
C 3546 2893 2790 3565 1939 3565 
C 1088 3565 333 2893 333 1734 
C 333 582 1088 -83 1939 -83 
z
M 1939 403 
C 1338 403 934 934 934 1734 
C 934 2534 1338 3072 1939 3072 
C 2541 3072 2950 2534 2950 1734 
C 2950 934 2541 403 1939 403 
z
" transform="scale(0.015625)"/>
     </defs>
     <use xlink:href="#NotoSansCJKjp-Regular-54"/>
     <use xlink:href="#NotoSansCJKjp-Regular-72" transform="translate(59.899994 0)"/>
     <use xlink:href="#NotoSansCJKjp-Regular-75" transform="translate(98.699982 0)"/>
     <use xlink:href="#NotoSansCJKjp-Regular-6e" transform="translate(159.399979 0)"/>
     <use xlink:href="#NotoSansCJKjp-Regular-63" transform="translate(220.399963 0)"/>
     <use xlink:href="#NotoSansCJKjp-Regular-61" transform="translate(271.399948 0)"/>
     <use xlink:href="#NotoSansCJKjp-Regular-74" transform="translate(327.699936 0)"/>
     <use xlink:href="#NotoSansCJKjp-Regular-65" transform="translate(365.399933 0)"/>
     <use xlink:href="#NotoSansCJKjp-Regular-64" transform="translate(420.799927 0)"/>
     <use xlink:href="#NotoSansCJKjp-Regular-20" transform="translate(482.799911 0)"/>
     <use xlink:href="#NotoSansCJKjp-Regular-72" transform="translate(505.199905 0)"/>
     <use xlink:href="#NotoSansCJKjp-Regular-65" transform="translate(543.999893 0)"/>
     <use xlink:href="#NotoSansCJKjp-Regular-67" transform="translate(599.399887 0)"/>
     <use xlink:href="#NotoSansCJKjp-Regular-72" transform="translate(655.799881 0)"/>
     <use xlink:href="#NotoSansCJKjp-Regular-65" transform="translate(694.599869 0)"/>
     <use xlink:href="#NotoSansCJKjp-Regular-73" transform="translate(749.999863 0)"/>
     <use xlink:href="#NotoSansCJKjp-Regular-73" transform="translate(796.79985 0)"/>
     <use xlink:href="#NotoSansCJKjp-Regular-69" transform="translate(843.599838 0)"/>
     <use xlink:href="#NotoSansCJKjp-Regular-6f" transform="translate(871.099823 0)"/>
     <use xlink:href="#NotoSansCJKjp-Regular-6e" transform="translate(931.699814 0)"/>
    </g>
   </g>
   <g id="text_4">
    <!-- 是：0 或 missing -->
    <g transform="translate(176.495625 111.730687) scale(0.12 -0.12)">
     <defs>
      <path id="NotoSansCJKjp-Regular-6d" d="M 589 0 
L 1178 0 
L 1178 2522 
C 1491 2880 1786 3053 2048 3053 
C 2490 3053 2694 2778 2694 2125 
L 2694 0 
L 3277 0 
L 3277 2522 
C 3603 2880 3885 3053 4154 3053 
C 4595 3053 4800 2778 4800 2125 
L 4800 0 
L 5382 0 
L 5382 2202 
C 5382 3085 5043 3565 4333 3565 
C 3904 3565 3546 3290 3181 2899 
C 3040 3309 2758 3565 2221 3565 
C 1805 3565 1446 3302 1139 2970 
L 1126 2970 
L 1069 3475 
L 589 3475 
L 589 0 
z
" transform="scale(0.015625)"/>
     </defs>
     <use xlink:href="#NotoSansCJKjp-Regular-662f"/>
     <use xlink:href="#NotoSansCJKjp-Regular-ff1a" transform="translate(99.999985 0)"/>
     <use xlink:href="#NotoSansCJKjp-Regular-30" transform="translate(199.999969 0)"/>
     <use xlink:href="#NotoSansCJKjp-Regular-20" transform="translate(255.499954 0)"/>
     <use xlink:href="#NotoSansCJKjp-Regular-6216" transform="translate(277.899948 0)"/>
     <use xlink:href="#NotoSansCJKjp-Regular-20" transform="translate(377.899933 0)"/>
     <use xlink:href="#NotoSansCJKjp-Regular-6d" transform="translate(400.299927 0)"/>
     <use xlink:href="#NotoSansCJKjp-Regular-69" transform="translate(492.899918 0)"/>
     <use xlink:href="#NotoSansCJKjp-Regular-73" transform="translate(520.399902 0)"/>
     <use xlink:href="#NotoSansCJKjp-Regular-73" transform="translate(567.19989 0)"/>
     <use xlink:href="#NotoSansCJKjp-Regular-69" transform="translate(613.999878 0)"/>
     <use xlink:href="#NotoSansCJKjp-Regular-6e" transform="translate(641.499863 0)"/>
     <use xlink:href="#NotoSansCJKjp-Regular-67" transform="translate(702.499847 0)"/>
    </g>
    <!-- 如何产生？ -->
    <g transform="translate(192.03 126.192187) scale(0.12 -0.12)">
     <defs>
      <path id="NotoSansCJKjp-Regular-5982" d="M 3405 4685 
L 3405 -352 
L 3866 -352 
L 3866 134 
L 5434 134 
L 5434 -250 
L 5914 -250 
L 5914 4685 
L 3405 4685 
z
M 3866 589 
L 3866 4230 
L 5434 4230 
L 5434 589 
L 3866 589 
z
M 1363 5382 
C 1280 4986 1184 4531 1075 4070 
L 282 4070 
L 282 3603 
L 966 3603 
C 774 2797 563 2003 390 1446 
L 800 1248 
L 883 1530 
C 1152 1376 1421 1197 1683 1018 
C 1338 480 896 109 371 -122 
C 474 -218 595 -397 659 -518 
C 1229 -230 1702 166 2067 730 
C 2394 480 2675 224 2861 6 
L 3149 410 
C 2950 640 2650 896 2304 1146 
C 2662 1862 2893 2797 2989 4019 
L 2688 4077 
L 2605 4070 
L 1549 4070 
L 1837 5325 
L 1363 5382 
z
M 1434 3603 
L 2490 3603 
C 2387 2714 2195 1997 1914 1421 
C 1613 1619 1306 1805 1005 1965 
C 1146 2464 1293 3034 1434 3603 
z
" transform="scale(0.015625)"/>
      <path id="NotoSansCJKjp-Regular-4f55" d="M 2176 4755 
L 2176 4294 
L 5210 4294 
L 5210 154 
C 5210 26 5171 -13 5037 -13 
C 4896 -26 4422 -26 3910 -6 
C 3987 -154 4064 -365 4083 -506 
C 4710 -506 5139 -493 5370 -422 
C 5606 -339 5690 -192 5690 147 
L 5690 4294 
L 6163 4294 
L 6163 4755 
L 2176 4755 
z
M 2816 2963 
L 3923 2963 
L 3923 1600 
L 2816 1600 
L 2816 2963 
z
M 2362 3392 
L 2362 730 
L 2816 730 
L 2816 1178 
L 4371 1178 
L 4371 3392 
L 2362 3392 
z
M 1709 5370 
C 1376 4416 826 3456 237 2842 
C 326 2733 467 2477 512 2368 
C 717 2592 915 2854 1107 3136 
L 1107 -506 
L 1581 -506 
L 1581 3930 
C 1805 4352 1997 4794 2157 5235 
L 1709 5370 
z
" transform="scale(0.015625)"/>
      <path id="NotoSansCJKjp-Regular-4ea7" d="M 1683 3917 
C 1894 3629 2131 3238 2227 2982 
L 2662 3181 
C 2560 3430 2310 3814 2099 4090 
L 1683 3917 
z
M 4410 4058 
C 4294 3731 4070 3270 3885 2970 
L 794 2970 
L 794 2093 
C 794 1414 736 467 224 -230 
C 333 -288 544 -461 621 -557 
C 1184 198 1293 1318 1293 2080 
L 1293 2496 
L 5939 2496 
L 5939 2970 
L 4371 2970 
C 4550 3238 4755 3578 4928 3878 
L 4410 4058 
z
M 2720 5254 
C 2867 5062 3021 4813 3110 4608 
L 704 4608 
L 704 4147 
L 5773 4147 
L 5773 4608 
L 3661 4608 
L 3680 4614 
C 3590 4832 3392 5152 3200 5382 
L 2720 5254 
z
" transform="scale(0.015625)"/>
      <path id="NotoSansCJKjp-Regular-751f" d="M 1530 5274 
C 1286 4358 870 3469 346 2899 
C 467 2835 678 2694 774 2611 
C 1018 2899 1242 3264 1446 3667 
L 2963 3667 
L 2963 2253 
L 1056 2253 
L 1056 1792 
L 2963 1792 
L 2963 160 
L 352 160 
L 352 -307 
L 6074 -307 
L 6074 160 
L 3462 160 
L 3462 1792 
L 5536 1792 
L 5536 2253 
L 3462 2253 
L 3462 3667 
L 5766 3667 
L 5766 4134 
L 3462 4134 
L 3462 5376 
L 2963 5376 
L 2963 4134 
L 1658 4134 
C 1798 4461 1920 4813 2016 5165 
L 1530 5274 
z
" transform="scale(0.015625)"/>
     </defs>
     <use xlink:href="#NotoSansCJKjp-Regular-5982"/>
     <use xlink:href="#NotoSansCJKjp-Regular-4f55" transform="translate(99.999985 0)"/>
     <use xlink:href="#NotoSansCJKjp-Regular-4ea7" transform="translate(199.999969 0)"/>
     <use xlink:href="#NotoSansCJKjp-Regular-751f" transform="translate(299.999954 0)"/>
     <use xlink:href="#NotoSansCJKjp-Regular-ff1f" transform="translate(399.999939 0)"/>
    </g>
   </g>
   <g id="text_5">
    <!-- 边界外取值被归并 -->
    <g transform="translate(34.53 183.676125) scale(0.12 -0.12)">
     <defs>
      <path id="NotoSansCJKjp-Regular-8fb9" d="M 525 5018 
C 877 4685 1306 4218 1510 3917 
L 1901 4224 
C 1690 4512 1248 4960 896 5280 
L 525 5018 
z
M 3539 5280 
C 3533 4922 3526 4570 3507 4230 
L 2189 4230 
L 2189 3770 
L 3475 3770 
C 3366 2541 3046 1517 2003 896 
C 2131 813 2278 659 2349 544 
C 3482 1261 3840 2400 3974 3770 
L 5395 3770 
C 5312 1971 5222 1267 5062 1094 
C 4998 1024 4928 1011 4806 1018 
C 4659 1018 4301 1018 3923 1050 
C 4013 909 4077 704 4090 557 
C 4442 544 4806 531 4998 550 
C 5216 570 5357 621 5491 787 
C 5709 1050 5798 1824 5888 4000 
C 5894 4064 5894 4230 5894 4230 
L 4006 4230 
C 4026 4570 4038 4922 4045 5280 
L 3539 5280 
z
M 1587 3206 
L 269 3206 
L 269 2733 
L 1107 2733 
L 1107 742 
C 826 627 499 326 154 -58 
L 512 -525 
C 826 -77 1126 333 1331 333 
C 1472 333 1690 102 1958 -77 
C 2419 -371 2963 -442 3795 -442 
C 4442 -442 5626 -403 6080 -371 
C 6093 -224 6170 32 6234 166 
C 5587 96 4608 38 3814 38 
C 3066 38 2502 83 2080 358 
C 1856 499 1709 627 1587 704 
L 1587 3206 
z
" transform="scale(0.015625)"/>
      <path id="NotoSansCJKjp-Regular-754c" d="M 1990 1734 
L 1990 1357 
C 1990 877 1882 256 755 -166 
C 858 -256 1018 -429 1082 -550 
C 2330 -51 2483 730 2483 1344 
L 2483 1734 
L 1990 1734 
z
M 1478 3699 
L 2950 3699 
L 2950 3002 
L 1478 3002 
L 1478 3699 
z
M 3430 3699 
L 4915 3699 
L 4915 3002 
L 3430 3002 
L 3430 3699 
z
M 1478 4762 
L 2950 4762 
L 2950 4077 
L 1478 4077 
L 1478 4762 
z
M 3430 4762 
L 4915 4762 
L 4915 4077 
L 3430 4077 
L 3430 4762 
z
M 4026 1734 
L 4026 -499 
L 4518 -499 
L 4518 1722 
C 4922 1446 5376 1222 5830 1082 
C 5901 1203 6048 1389 6157 1491 
C 5395 1690 4627 2099 4134 2598 
L 5408 2598 
L 5408 5171 
L 1005 5171 
L 1005 2598 
L 2285 2598 
C 1792 2093 1024 1664 288 1453 
C 397 1350 538 1178 608 1050 
C 1453 1350 2342 1926 2874 2598 
L 3578 2598 
C 3821 2278 4141 1984 4499 1734 
L 4026 1734 
z
" transform="scale(0.015625)"/>
      <path id="NotoSansCJKjp-Regular-5916" d="M 1715 3942 
L 2963 3942 
C 2848 3290 2669 2714 2438 2208 
C 2131 2477 1664 2803 1242 3046 
C 1414 3322 1574 3622 1715 3942 
z
M 3661 3859 
L 3418 3763 
C 3450 3942 3488 4122 3514 4307 
L 3200 4416 
L 3110 4397 
L 1901 4397 
C 2010 4678 2106 4979 2189 5280 
L 1715 5382 
C 1414 4224 883 3162 166 2502 
C 288 2432 493 2278 576 2195 
C 723 2342 864 2509 992 2688 
C 1440 2413 1926 2054 2221 1766 
C 1734 902 1082 282 320 -122 
C 435 -192 614 -371 698 -480 
C 1914 205 2893 1491 3360 3520 
C 3622 3078 3955 2650 4320 2259 
L 4320 -499 
L 4813 -499 
L 4813 1786 
C 5184 1459 5574 1184 5965 986 
C 6042 1114 6189 1299 6304 1395 
C 5792 1626 5274 1984 4813 2413 
L 4813 5370 
L 4320 5370 
L 4320 2925 
C 4058 3219 3834 3539 3661 3859 
z
" transform="scale(0.015625)"/>
      <path id="NotoSansCJKjp-Regular-53d6" d="M 3853 4000 
L 3392 3910 
C 3603 2854 3904 1926 4346 1165 
C 3968 634 3507 237 3002 -26 
C 3110 -122 3245 -301 3315 -422 
C 3808 -134 4256 243 4634 723 
C 4986 243 5408 -154 5920 -442 
C 5997 -320 6144 -134 6253 -45 
C 5722 230 5286 640 4928 1152 
C 5446 1971 5811 3046 5971 4429 
L 5664 4512 
L 5581 4493 
L 3270 4493 
L 3270 4026 
L 5440 4026 
C 5286 3078 5011 2272 4640 1619 
C 4275 2304 4019 3110 3853 4000 
z
M 173 787 
L 262 314 
C 870 403 1702 531 2515 666 
L 2515 -499 
L 2982 -499 
L 2982 4525 
L 3430 4525 
L 3430 4979 
L 307 4979 
L 307 4525 
L 800 4525 
L 800 870 
L 173 787 
z
M 1261 4525 
L 2515 4525 
L 2515 3674 
L 1261 3674 
L 1261 4525 
z
M 1261 3238 
L 2515 3238 
L 2515 2342 
L 1261 2342 
L 1261 3238 
z
M 1261 1907 
L 2515 1907 
L 2515 1114 
L 1261 934 
L 1261 1907 
z
" transform="scale(0.015625)"/>
      <path id="NotoSansCJKjp-Regular-503c" d="M 3834 5376 
C 3814 5184 3782 4954 3750 4723 
L 2106 4723 
L 2106 4294 
L 3674 4294 
C 3635 4077 3597 3872 3552 3699 
L 2445 3699 
L 2445 90 
L 1830 90 
L 1830 -326 
L 6131 -326 
L 6131 90 
L 5562 90 
L 5562 3699 
L 3987 3699 
C 4038 3872 4090 4077 4134 4294 
L 5939 4294 
L 5939 4723 
L 4230 4723 
L 4346 5344 
L 3834 5376 
z
M 2880 90 
L 2880 621 
L 5114 621 
L 5114 90 
L 2880 90 
z
M 2880 2426 
L 5114 2426 
L 5114 1875 
L 2880 1875 
L 2880 2426 
z
M 2880 2784 
L 2880 3322 
L 5114 3322 
L 5114 2784 
L 2880 2784 
z
M 2880 1530 
L 5114 1530 
L 5114 973 
L 2880 973 
L 2880 1530 
z
M 1690 5370 
C 1350 4397 794 3443 205 2816 
C 288 2701 422 2451 474 2342 
C 659 2547 845 2784 1018 3040 
L 1018 -512 
L 1466 -512 
L 1466 3770 
C 1722 4230 1946 4730 2131 5229 
L 1690 5370 
z
" transform="scale(0.015625)"/>
      <path id="NotoSansCJKjp-Regular-5f52" d="M 582 4595 
L 582 1472 
L 1056 1472 
L 1056 4595 
L 582 4595 
z
M 1882 5370 
L 1882 2829 
C 1882 1664 1754 595 710 -192 
C 826 -262 1005 -435 1088 -538 
C 2214 326 2355 1530 2355 2829 
L 2355 5370 
L 1882 5370 
z
M 2886 4800 
L 2886 4339 
L 5344 4339 
L 5344 2739 
L 3078 2739 
L 3078 2266 
L 5344 2266 
L 5344 512 
L 2758 512 
L 2758 38 
L 5344 38 
L 5344 -410 
L 5830 -410 
L 5830 4800 
L 2886 4800 
z
" transform="scale(0.015625)"/>
      <path id="NotoSansCJKjp-Regular-5e76" d="M 4538 5395 
C 4390 5043 4109 4544 3885 4237 
L 4301 4083 
C 4531 4371 4826 4826 5069 5229 
L 4538 5395 
z
M 4109 3597 
L 4109 2202 
L 2304 2202 
L 2304 2355 
L 2304 3597 
L 4109 3597 
z
M 333 2202 
L 333 1741 
L 1792 1741 
C 1696 1024 1376 326 333 -192 
C 442 -275 602 -448 666 -557 
C 1843 45 2189 883 2278 1741 
L 4109 1741 
L 4109 -512 
L 4595 -512 
L 4595 1741 
L 6074 1741 
L 6074 2202 
L 4595 2202 
L 4595 3597 
L 5875 3597 
L 5875 4058 
L 570 4058 
L 570 3597 
L 1824 3597 
L 1824 2368 
L 1824 2202 
L 333 2202 
z
M 1395 5203 
C 1664 4851 1952 4371 2054 4058 
L 2509 4262 
C 2387 4570 2093 5030 1818 5376 
L 1395 5203 
z
" transform="scale(0.015625)"/>
     </defs>
     <use xlink:href="#NotoSansCJKjp-Regular-8fb9"/>
     <use xlink:href="#NotoSansCJKjp-Regular-754c" transform="translate(99.999985 0)"/>
     <use xlink:href="#NotoSansCJKjp-Regular-5916" transform="translate(199.999969 0)"/>
     <use xlink:href="#NotoSansCJKjp-Regular-53d6" transform="translate(299.999954 0)"/>
     <use xlink:href="#NotoSansCJKjp-Regular-503c" transform="translate(399.999939 0)"/>
     <use xlink:href="#NotoSansCJKjp-Regular-88ab" transform="translate(499.999924 0)"/>
     <use xlink:href="#NotoSansCJKjp-Regular-5f52" transform="translate(599.999908 0)"/>
     <use xlink:href="#NotoSansCJKjp-Regular-5e76" transform="translate(699.999893 0)"/>
    </g>
    <!-- Tobit -->
    <g transform="translate(67.68 197.886375) scale(0.12 -0.12)">
     <defs>
      <path id="NotoSansCJKjp-Regular-62" d="M 2118 -83 
C 2912 -83 3629 602 3629 1792 
C 3629 2867 3142 3565 2246 3565 
C 1856 3565 1472 3347 1152 3078 
L 1178 3699 
L 1178 5094 
L 589 5094 
L 589 0 
L 1056 0 
L 1107 358 
L 1133 358 
C 1434 83 1798 -83 2118 -83 
z
M 2022 410 
C 1792 410 1478 499 1178 768 
L 1178 2598 
C 1504 2906 1811 3072 2099 3072 
C 2765 3072 3021 2560 3021 1786 
C 3021 928 2598 410 2022 410 
z
" transform="scale(0.015625)"/>
     </defs>
     <use xlink:href="#NotoSansCJKjp-Regular-54"/>
     <use xlink:href="#NotoSansCJKjp-Regular-6f" transform="translate(59.899994 0)"/>
     <use xlink:href="#NotoSansCJKjp-Regular-62" transform="translate(120.499985 0)"/>
     <use xlink:href="#NotoSansCJKjp-Regular-69" transform="translate(182.299973 0)"/>
     <use xlink:href="#NotoSansCJKjp-Regular-74" transform="translate(209.799957 0)"/>
    </g>
   </g>
   <g id="text_6">
    <!-- 0 是真实选择 -->
    <g transform="translate(198.515625 183.676125) scale(0.12 -0.12)">
     <defs>
      <path id="NotoSansCJKjp-Regular-771f" d="M 3795 269 
C 4512 13 5242 -301 5683 -525 
L 6086 -198 
C 5606 26 4819 333 4109 576 
L 3795 269 
z
M 365 1094 
L 365 685 
L 6048 685 
L 6048 1094 
L 365 1094 
z
M 1792 2957 
L 4710 2957 
L 4710 2528 
L 1792 2528 
L 1792 2957 
z
M 1792 2221 
L 4710 2221 
L 4710 1786 
L 1792 1786 
L 1792 2221 
z
M 1792 3680 
L 4710 3680 
L 4710 3264 
L 1792 3264 
L 1792 3680 
z
M 2214 563 
C 1805 294 1005 -13 365 -186 
C 467 -275 614 -429 691 -525 
C 1325 -346 2131 -26 2637 288 
L 2214 563 
z
M 1325 4006 
L 1325 1472 
L 5197 1472 
L 5197 4006 
L 3437 4006 
L 3437 4429 
L 5888 4429 
L 5888 4838 
L 3437 4838 
L 3437 5382 
L 2938 5382 
L 2938 4838 
L 544 4838 
L 544 4429 
L 2938 4429 
L 2938 4006 
L 1325 4006 
z
" transform="scale(0.015625)"/>
      <path id="NotoSansCJKjp-Regular-5b9e" d="M 3443 685 
C 4294 365 5146 -77 5664 -474 
L 5958 -96 
C 5427 282 4531 723 3674 1037 
L 3443 685 
z
M 1536 3565 
C 1882 3360 2291 3040 2477 2816 
L 2784 3162 
C 2586 3392 2170 3680 1824 3872 
L 1536 3565 
z
M 896 2566 
C 1261 2368 1690 2048 1894 1818 
L 2189 2182 
C 1978 2406 1542 2701 1184 2886 
L 896 2566 
z
M 576 4646 
L 576 3347 
L 1056 3347 
L 1056 4198 
L 5338 4198 
L 5338 3347 
L 5837 3347 
L 5837 4646 
L 3642 4646 
C 3546 4870 3379 5184 3219 5421 
L 2746 5274 
C 2861 5082 2982 4851 3072 4646 
L 576 4646 
z
M 454 1638 
L 454 1222 
L 2765 1222 
C 2406 602 1747 186 518 -70 
C 621 -179 742 -365 794 -493 
C 2234 -160 2950 397 3315 1222 
L 5984 1222 
L 5984 1638 
L 3462 1638 
C 3648 2259 3693 3002 3718 3878 
L 3219 3878 
C 3194 2970 3155 2234 2950 1638 
L 454 1638 
z
" transform="scale(0.015625)"/>
      <path id="NotoSansCJKjp-Regular-9009" d="M 390 4896 
C 762 4582 1197 4134 1382 3821 
L 1779 4122 
C 1574 4429 1133 4864 755 5158 
L 390 4896 
z
M 2854 5184 
C 2701 4614 2432 4051 2086 3674 
C 2202 3616 2406 3488 2496 3418 
C 2643 3597 2784 3821 2912 4070 
L 3859 4070 
L 3859 3136 
L 2048 3136 
L 2048 2707 
L 3206 2707 
C 3098 1869 2835 1261 1875 922 
C 1978 832 2118 653 2170 531 
C 3245 954 3565 1690 3686 2707 
L 4346 2707 
L 4346 1222 
C 4346 736 4454 595 4934 595 
C 5030 595 5466 595 5562 595 
C 5965 595 6093 800 6138 1613 
C 6003 1645 5805 1715 5715 1805 
C 5696 1133 5670 1043 5510 1043 
C 5421 1043 5069 1043 5005 1043 
C 4838 1043 4819 1062 4819 1222 
L 4819 2707 
L 6086 2707 
L 6086 3136 
L 4339 3136 
L 4339 4070 
L 5818 4070 
L 5818 4486 
L 4339 4486 
L 4339 5350 
L 3859 5350 
L 3859 4486 
L 3104 4486 
C 3187 4678 3258 4883 3315 5088 
L 2854 5184 
z
M 1606 2918 
L 358 2918 
L 358 2470 
L 1146 2470 
L 1146 531 
C 870 403 576 173 288 -96 
L 608 -512 
C 973 -115 1318 218 1555 218 
C 1696 218 1894 32 2144 -122 
C 2566 -371 3098 -435 3840 -435 
C 4467 -435 5549 -403 6048 -371 
C 6054 -230 6131 6 6182 128 
C 5549 64 4576 19 3846 19 
C 3168 19 2630 58 2234 294 
C 1926 474 1779 627 1606 640 
L 1606 2918 
z
" transform="scale(0.015625)"/>
      <path id="NotoSansCJKjp-Regular-62e9" d="M 1133 5370 
L 1133 4090 
L 294 4090 
L 294 3642 
L 1133 3642 
L 1133 2278 
C 794 2176 480 2086 230 2016 
L 352 1549 
L 1133 1798 
L 1133 77 
C 1133 -6 1101 -32 1024 -38 
C 947 -38 698 -45 422 -32 
C 486 -166 544 -365 563 -486 
C 973 -486 1222 -480 1382 -397 
C 1542 -320 1600 -186 1600 77 
L 1600 1952 
L 2342 2195 
L 2278 2637 
L 1600 2426 
L 1600 3642 
L 2362 3642 
L 2362 4090 
L 1600 4090 
L 1600 5370 
L 1133 5370 
z
M 5146 4602 
C 4915 4269 4602 3974 4237 3718 
C 3904 3974 3622 4269 3405 4602 
L 5146 4602 
z
M 2534 5037 
L 2534 4602 
L 2944 4602 
C 3181 4173 3494 3802 3866 3482 
C 3366 3181 2803 2957 2259 2822 
C 2349 2726 2464 2547 2515 2432 
C 3098 2605 3693 2861 4224 3200 
C 4723 2854 5306 2592 5939 2426 
C 6003 2554 6138 2733 6234 2829 
C 5632 2957 5082 3174 4608 3469 
C 5114 3853 5542 4333 5818 4896 
L 5530 5056 
L 5446 5037 
L 2534 5037 
z
M 3968 2637 
L 3968 2074 
L 2669 2074 
L 2669 1638 
L 3968 1638 
L 3968 979 
L 2342 979 
L 2342 544 
L 3968 544 
L 3968 -525 
L 4448 -525 
L 4448 544 
L 6125 544 
L 6125 979 
L 4448 979 
L 4448 1638 
L 5664 1638 
L 5664 2074 
L 4448 2074 
L 4448 2637 
L 3968 2637 
z
" transform="scale(0.015625)"/>
     </defs>
     <use xlink:href="#NotoSansCJKjp-Regular-30"/>
     <use xlink:href="#NotoSansCJKjp-Regular-20" transform="translate(55.499985 0)"/>
     <use xlink:href="#NotoSansCJKjp-Regular-662f" transform="translate(77.899979 0)"/>
     <use xlink:href="#NotoSansCJKjp-Regular-771f" transform="translate(177.899963 0)"/>
     <use xlink:href="#NotoSansCJKjp-Regular-5b9e" transform="translate(277.899948 0)"/>
     <use xlink:href="#NotoSansCJKjp-Regular-9009" transform="translate(377.899933 0)"/>
     <use xlink:href="#NotoSansCJKjp-Regular-62e9" transform="translate(477.899918 0)"/>
    </g>
    <!-- Two-part model -->
    <g transform="translate(188.093437 197.886375) scale(0.12 -0.12)">
     <defs>
      <path id="NotoSansCJKjp-Regular-77" d="M 1139 0 
L 1818 0 
L 2310 1862 
C 2400 2195 2470 2522 2547 2874 
L 2579 2874 
C 2662 2522 2726 2202 2816 1875 
L 3315 0 
L 4026 0 
L 4966 3475 
L 4403 3475 
L 3898 1466 
C 3821 1133 3757 819 3686 499 
L 3654 499 
C 3571 819 3494 1133 3411 1466 
L 2867 3475 
L 2298 3475 
L 1754 1466 
C 1670 1133 1594 819 1523 499 
L 1491 499 
C 1421 819 1357 1133 1286 1466 
L 768 3475 
L 173 3475 
L 1139 0 
z
" transform="scale(0.015625)"/>
      <path id="NotoSansCJKjp-Regular-2d" d="M 294 1568 
L 1933 1568 
L 1933 2016 
L 294 2016 
L 294 1568 
z
" transform="scale(0.015625)"/>
      <path id="NotoSansCJKjp-Regular-70" d="M 589 -1466 
L 1178 -1466 
L 1178 -288 
L 1158 320 
C 1472 58 1805 -83 2118 -83 
C 2912 -83 3629 602 3629 1792 
C 3629 2867 3142 3565 2246 3565 
C 1843 3565 1453 3334 1139 3072 
L 1126 3072 
L 1069 3475 
L 589 3475 
L 589 -1466 
z
M 2022 410 
C 1792 410 1485 499 1178 768 
L 1178 2598 
C 1510 2906 1811 3072 2099 3072 
C 2765 3072 3021 2560 3021 1786 
C 3021 928 2598 410 2022 410 
z
" transform="scale(0.015625)"/>
      <path id="NotoSansCJKjp-Regular-6c" d="M 1203 -83 
C 1363 -83 1459 -58 1542 -32 
L 1459 416 
C 1395 403 1370 403 1338 403 
C 1248 403 1178 474 1178 653 
L 1178 5094 
L 589 5094 
L 589 691 
C 589 198 768 -83 1203 -83 
z
" transform="scale(0.015625)"/>
     </defs>
     <use xlink:href="#NotoSansCJKjp-Regular-54"/>
     <use xlink:href="#NotoSansCJKjp-Regular-77" transform="translate(59.899994 0)"/>
     <use xlink:href="#NotoSansCJKjp-Regular-6f" transform="translate(140.099976 0)"/>
     <use xlink:href="#NotoSansCJKjp-Regular-2d" transform="translate(200.699966 0)"/>
     <use xlink:href="#NotoSansCJKjp-Regular-70" transform="translate(235.399963 0)"/>
     <use xlink:href="#NotoSansCJKjp-Regular-61" transform="translate(297.399948 0)"/>
     <use xlink:href="#NotoSansCJKjp-Regular-72" transform="translate(353.699936 0)"/>
     <use xlink:href="#NotoSansCJKjp-Regular-74" transform="translate(392.499924 0)"/>
     <use xlink:href="#NotoSansCJKjp-Regular-20" transform="translate(430.199921 0)"/>
     <use xlink:href="#NotoSansCJKjp-Regular-6d" transform="translate(452.599915 0)"/>
     <use xlink:href="#NotoSansCJKjp-Regular-6f" transform="translate(545.199905 0)"/>
     <use xlink:href="#NotoSansCJKjp-Regular-64" transform="translate(605.799896 0)"/>
     <use xlink:href="#NotoSansCJKjp-Regular-65" transform="translate(667.799881 0)"/>
     <use xlink:href="#NotoSansCJKjp-Regular-6c" transform="translate(723.199875 0)"/>
    </g>
   </g>
   <g id="text_7">
    <!-- 结果是计数 -->
    <g transform="translate(370.59 183.676125) scale(0.12 -0.12)">
     <defs>
      <path id="NotoSansCJKjp-Regular-7ed3" d="M 224 339 
L 307 -154 
C 941 -13 1792 166 2598 352 
L 2560 794 
C 1702 621 819 435 224 339 
z
M 358 2733 
C 454 2778 614 2810 1427 2906 
C 1139 2502 870 2182 749 2061 
C 538 1830 390 1677 243 1645 
C 301 1517 378 1280 403 1178 
C 557 1261 787 1312 2573 1638 
C 2560 1741 2541 1933 2547 2061 
L 1120 1830 
C 1638 2387 2144 3066 2579 3757 
L 2138 4026 
C 2016 3795 1875 3565 1728 3341 
L 877 3270 
C 1254 3802 1626 4480 1914 5133 
L 1421 5338 
C 1165 4589 704 3795 557 3590 
C 422 3386 307 3238 192 3213 
C 250 3078 333 2835 358 2733 
z
M 4090 5382 
L 4090 4518 
L 2611 4518 
L 2611 4058 
L 4090 4058 
L 4090 3059 
L 2771 3059 
L 2771 2598 
L 5926 2598 
L 5926 3059 
L 4582 3059 
L 4582 4058 
L 6035 4058 
L 6035 4518 
L 4582 4518 
L 4582 5382 
L 4090 5382 
z
M 2938 1946 
L 2938 -506 
L 3405 -506 
L 3405 -230 
L 5286 -230 
L 5286 -480 
L 5766 -480 
L 5766 1946 
L 2938 1946 
z
M 3405 205 
L 3405 1510 
L 5286 1510 
L 5286 205 
L 3405 205 
z
" transform="scale(0.015625)"/>
      <path id="NotoSansCJKjp-Regular-679c" d="M 1018 5069 
L 1018 2522 
L 2950 2522 
L 2950 1978 
L 397 1978 
L 397 1536 
L 2560 1536 
C 1984 922 1069 371 230 96 
C 339 -6 486 -179 563 -301 
C 1408 19 2330 627 2950 1331 
L 2950 -512 
L 3456 -512 
L 3456 1363 
C 4090 678 5024 58 5850 -269 
C 5920 -147 6074 32 6176 134 
C 5370 403 4442 947 3846 1536 
L 6010 1536 
L 6010 1978 
L 3456 1978 
L 3456 2522 
L 5427 2522 
L 5427 5069 
L 1018 5069 
z
M 1510 3603 
L 2950 3603 
L 2950 2938 
L 1510 2938 
L 1510 3603 
z
M 3456 3603 
L 4909 3603 
L 4909 2938 
L 3456 2938 
L 3456 3603 
z
M 1510 4653 
L 2950 4653 
L 2950 4000 
L 1510 4000 
L 1510 4653 
z
M 3456 4653 
L 4909 4653 
L 4909 4000 
L 3456 4000 
L 3456 4653 
z
" transform="scale(0.015625)"/>
      <path id="NotoSansCJKjp-Regular-8ba1" d="M 877 4960 
C 1235 4659 1683 4224 1888 3949 
L 2214 4307 
C 1997 4570 1542 4979 1190 5267 
L 877 4960 
z
M 294 3366 
L 294 2893 
L 1312 2893 
L 1312 595 
C 1312 320 1114 128 992 51 
C 1082 -45 1210 -262 1254 -390 
C 1357 -256 1536 -115 2746 742 
C 2694 832 2618 1037 2586 1165 
L 1798 627 
L 1798 3366 
L 294 3366 
z
M 4006 5357 
L 4006 3251 
L 2381 3251 
L 2381 2758 
L 4006 2758 
L 4006 -512 
L 4512 -512 
L 4512 2758 
L 6138 2758 
L 6138 3251 
L 4512 3251 
L 4512 5357 
L 4006 5357 
z
" transform="scale(0.015625)"/>
     </defs>
     <use xlink:href="#NotoSansCJKjp-Regular-7ed3"/>
     <use xlink:href="#NotoSansCJKjp-Regular-679c" transform="translate(99.999985 0)"/>
     <use xlink:href="#NotoSansCJKjp-Regular-662f" transform="translate(199.999969 0)"/>
     <use xlink:href="#NotoSansCJKjp-Regular-8ba1" transform="translate(299.999954 0)"/>
     <use xlink:href="#NotoSansCJKjp-Regular-6570" transform="translate(399.999939 0)"/>
    </g>
    <!-- Hurdle / Zero-inflated -->
    <g transform="translate(339.825937 197.886375) scale(0.12 -0.12)">
     <defs>
      <path id="NotoSansCJKjp-Regular-48" d="M 646 0 
L 1235 0 
L 1235 2214 
L 3424 2214 
L 3424 0 
L 4019 0 
L 4019 4691 
L 3424 4691 
L 3424 2726 
L 1235 2726 
L 1235 4691 
L 646 4691 
L 646 0 
z
" transform="scale(0.015625)"/>
      <path id="NotoSansCJKjp-Regular-2f" d="M 70 -1146 
L 499 -1146 
L 2413 5082 
L 1990 5082 
L 70 -1146 
z
" transform="scale(0.015625)"/>
      <path id="NotoSansCJKjp-Regular-5a" d="M 320 0 
L 3558 0 
L 3558 506 
L 1050 506 
L 3526 4339 
L 3526 4691 
L 544 4691 
L 544 4192 
L 2797 4192 
L 320 358 
L 320 0 
z
" transform="scale(0.015625)"/>
      <path id="NotoSansCJKjp-Regular-66" d="M 211 3002 
L 685 3002 
L 685 0 
L 1267 0 
L 1267 3002 
L 2003 3002 
L 2003 3475 
L 1267 3475 
L 1267 4026 
C 1267 4474 1427 4710 1760 4710 
C 1882 4710 2022 4678 2150 4614 
L 2278 5069 
C 2118 5133 1914 5178 1696 5178 
C 1005 5178 685 4736 685 4032 
L 685 3475 
L 211 3443 
L 211 3002 
z
" transform="scale(0.015625)"/>
     </defs>
     <use xlink:href="#NotoSansCJKjp-Regular-48"/>
     <use xlink:href="#NotoSansCJKjp-Regular-75" transform="translate(72.799988 0)"/>
     <use xlink:href="#NotoSansCJKjp-Regular-72" transform="translate(133.499985 0)"/>
     <use xlink:href="#NotoSansCJKjp-Regular-64" transform="translate(172.299973 0)"/>
     <use xlink:href="#NotoSansCJKjp-Regular-6c" transform="translate(234.299957 0)"/>
     <use xlink:href="#NotoSansCJKjp-Regular-65" transform="translate(262.699951 0)"/>
     <use xlink:href="#NotoSansCJKjp-Regular-20" transform="translate(318.099945 0)"/>
     <use xlink:href="#NotoSansCJKjp-Regular-2f" transform="translate(340.499939 0)"/>
     <use xlink:href="#NotoSansCJKjp-Regular-20" transform="translate(379.699936 0)"/>
     <use xlink:href="#NotoSansCJKjp-Regular-5a" transform="translate(402.09993 0)"/>
     <use xlink:href="#NotoSansCJKjp-Regular-65" transform="translate(462.399918 0)"/>
     <use xlink:href="#NotoSansCJKjp-Regular-72" transform="translate(517.799911 0)"/>
     <use xlink:href="#NotoSansCJKjp-Regular-6f" transform="translate(556.599899 0)"/>
     <use xlink:href="#NotoSansCJKjp-Regular-2d" transform="translate(617.19989 0)"/>
     <use xlink:href="#NotoSansCJKjp-Regular-69" transform="translate(651.899887 0)"/>
     <use xlink:href="#NotoSansCJKjp-Regular-6e" transform="translate(679.399872 0)"/>
     <use xlink:href="#NotoSansCJKjp-Regular-66" transform="translate(740.399857 0)"/>
     <use xlink:href="#NotoSansCJKjp-Regular-6c" transform="translate(772.899841 0)"/>
     <use xlink:href="#NotoSansCJKjp-Regular-61" transform="translate(801.299835 0)"/>
     <use xlink:href="#NotoSansCJKjp-Regular-74" transform="translate(857.599823 0)"/>
     <use xlink:href="#NotoSansCJKjp-Regular-65" transform="translate(895.29982 0)"/>
     <use xlink:href="#NotoSansCJKjp-Regular-64" transform="translate(950.699814 0)"/>
    </g>
   </g>
   <g id="text_8">
    <!-- 结果是比例 -->
    <g transform="translate(537.99 183.676125) scale(0.12 -0.12)">
     <defs>
      <path id="NotoSansCJKjp-Regular-6bd4" d="M 250 128 
L 397 -371 
C 1197 -179 2278 77 3290 326 
L 3245 787 
C 2694 659 2125 525 1600 410 
L 1600 2925 
L 3046 2925 
L 3046 3398 
L 1600 3398 
L 1600 5344 
L 1107 5344 
L 1107 301 
L 250 128 
z
M 3520 5344 
L 3520 512 
C 3520 -186 3693 -371 4320 -371 
C 4448 -371 5261 -371 5395 -371 
C 6003 -371 6138 -13 6202 1037 
C 6061 1069 5869 1152 5747 1248 
C 5709 320 5670 83 5370 83 
C 5190 83 4506 83 4371 83 
C 4064 83 4013 147 4013 499 
L 4013 2586 
C 4691 2874 5414 3219 5952 3571 
L 5594 3974 
C 5216 3674 4608 3328 4013 3046 
L 4013 5344 
L 3520 5344 
z
" transform="scale(0.015625)"/>
      <path id="NotoSansCJKjp-Regular-4f8b" d="M 4320 4653 
L 4320 954 
L 4755 954 
L 4755 4653 
L 4320 4653 
z
M 5491 5274 
L 5491 90 
C 5491 -19 5453 -45 5350 -51 
C 5242 -58 4902 -58 4512 -45 
C 4582 -179 4646 -390 4672 -518 
C 5178 -518 5491 -506 5683 -422 
C 5869 -346 5939 -211 5939 96 
L 5939 5274 
L 5491 5274 
z
M 1958 5050 
L 1958 4621 
L 2547 4621 
C 2413 3680 2131 2573 1562 1894 
C 1651 1818 1792 1658 1856 1568 
C 2016 1754 2157 1971 2285 2208 
C 2579 1997 2906 1722 3110 1510 
C 2790 762 2349 205 1818 -160 
C 1920 -237 2067 -416 2138 -525 
C 3117 179 3827 1549 4077 3635 
L 3795 3731 
L 3718 3712 
L 2822 3712 
C 2899 4019 2963 4326 3014 4621 
L 4288 4621 
L 4288 5050 
L 1958 5050 
z
M 2707 3283 
L 3584 3283 
C 3514 2797 3411 2355 3277 1958 
C 3072 2157 2752 2406 2464 2592 
C 2554 2810 2637 3046 2707 3283 
z
M 1491 5350 
C 1184 4365 672 3392 115 2752 
C 198 2630 320 2374 371 2266 
C 582 2509 781 2797 973 3110 
L 973 -512 
L 1421 -512 
L 1421 3942 
C 1619 4358 1792 4794 1933 5222 
L 1491 5350 
z
" transform="scale(0.015625)"/>
     </defs>
     <use xlink:href="#NotoSansCJKjp-Regular-7ed3"/>
     <use xlink:href="#NotoSansCJKjp-Regular-679c" transform="translate(99.999985 0)"/>
     <use xlink:href="#NotoSansCJKjp-Regular-662f" transform="translate(199.999969 0)"/>
     <use xlink:href="#NotoSansCJKjp-Regular-6bd4" transform="translate(299.999954 0)"/>
     <use xlink:href="#NotoSansCJKjp-Regular-4f8b" transform="translate(399.999939 0)"/>
    </g>
    <!-- Fractional response -->
    <g transform="translate(512.67 197.886375) scale(0.12 -0.12)">
     <defs>
      <path id="NotoSansCJKjp-Regular-46" d="M 646 0 
L 1235 0 
L 1235 2106 
L 3027 2106 
L 3027 2605 
L 1235 2605 
L 1235 4192 
L 3347 4192 
L 3347 4691 
L 646 4691 
L 646 0 
z
" transform="scale(0.015625)"/>
     </defs>
     <use xlink:href="#NotoSansCJKjp-Regular-46"/>
     <use xlink:href="#NotoSansCJKjp-Regular-72" transform="translate(55.199997 0)"/>
     <use xlink:href="#NotoSansCJKjp-Regular-61" transform="translate(93.999985 0)"/>
     <use xlink:href="#NotoSansCJKjp-Regular-63" transform="translate(150.299973 0)"/>
     <use xlink:href="#NotoSansCJKjp-Regular-74" transform="translate(201.299957 0)"/>
     <use xlink:href="#NotoSansCJKjp-Regular-69" transform="translate(238.999954 0)"/>
     <use xlink:href="#NotoSansCJKjp-Regular-6f" transform="translate(266.499939 0)"/>
     <use xlink:href="#NotoSansCJKjp-Regular-6e" transform="translate(327.09993 0)"/>
     <use xlink:href="#NotoSansCJKjp-Regular-61" transform="translate(388.099915 0)"/>
     <use xlink:href="#NotoSansCJKjp-Regular-6c" transform="translate(444.399902 0)"/>
     <use xlink:href="#NotoSansCJKjp-Regular-20" transform="translate(472.799896 0)"/>
     <use xlink:href="#NotoSansCJKjp-Regular-72" transform="translate(495.19989 0)"/>
     <use xlink:href="#NotoSansCJKjp-Regular-65" transform="translate(533.999878 0)"/>
     <use xlink:href="#NotoSansCJKjp-Regular-73" transform="translate(589.399872 0)"/>
     <use xlink:href="#NotoSansCJKjp-Regular-70" transform="translate(636.19986 0)"/>
     <use xlink:href="#NotoSansCJKjp-Regular-6f" transform="translate(698.199844 0)"/>
     <use xlink:href="#NotoSansCJKjp-Regular-6e" transform="translate(758.799835 0)"/>
     <use xlink:href="#NotoSansCJKjp-Regular-73" transform="translate(819.79982 0)"/>
     <use xlink:href="#NotoSansCJKjp-Regular-65" transform="translate(866.599808 0)"/>
    </g>
   </g>
   <g id="text_9">
    <!-- 结果变量只在被选择样本中可观测 -->
    <g transform="translate(279.9 274.9935) scale(0.12 -0.12)">
     <defs>
      <path id="NotoSansCJKjp-Regular-53ea" d="M 3776 1011 
C 4410 557 5184 -102 5549 -531 
L 5971 -230 
C 5581 205 4787 838 4160 1267 
L 3776 1011 
z
M 2163 1280 
C 1792 768 1043 186 371 -179 
C 486 -262 659 -416 755 -518 
C 1440 -134 2195 493 2675 1082 
L 2163 1280 
z
M 1062 4941 
L 1062 1491 
L 1542 1491 
L 1542 1722 
L 4973 1722 
L 4973 1523 
L 5472 1523 
L 5472 4941 
L 1062 4941 
z
M 1542 2182 
L 1542 4474 
L 4973 4474 
L 4973 2182 
L 1542 2182 
z
" transform="scale(0.015625)"/>
      <path id="NotoSansCJKjp-Regular-53ef" d="M 358 4922 
L 358 4442 
L 4781 4442 
L 4781 186 
C 4781 51 4736 13 4595 0 
C 4442 0 3917 -6 3405 19 
C 3482 -122 3571 -358 3603 -499 
C 4237 -499 4685 -499 4941 -416 
C 5190 -333 5280 -166 5280 179 
L 5280 4442 
L 6067 4442 
L 6067 4922 
L 358 4922 
z
M 1478 3040 
L 3162 3040 
L 3162 1568 
L 1478 1568 
L 1478 3040 
z
M 1011 3501 
L 1011 595 
L 1478 595 
L 1478 1107 
L 3635 1107 
L 3635 3501 
L 1011 3501 
z
" transform="scale(0.015625)"/>
      <path id="NotoSansCJKjp-Regular-89c2" d="M 2957 5062 
L 2957 1658 
L 3411 1658 
L 3411 4634 
L 5299 4634 
L 5299 1658 
L 5773 1658 
L 5773 5062 
L 2957 5062 
z
M 4090 4096 
L 4090 2867 
C 4090 1875 3885 666 2278 -160 
C 2368 -230 2522 -410 2573 -506 
C 3654 51 4160 838 4384 1613 
L 4384 154 
C 4384 -275 4557 -390 4973 -390 
L 5517 -390 
C 6067 -390 6138 -134 6189 877 
C 6074 909 5914 973 5798 1062 
C 5766 147 5734 -26 5523 -26 
L 5050 -26 
C 4877 -26 4826 26 4826 198 
L 4826 1754 
L 4422 1754 
C 4512 2138 4544 2515 4544 2861 
L 4544 4096 
L 4090 4096 
z
M 365 3578 
C 730 3085 1114 2502 1434 1946 
C 1101 1158 685 525 218 115 
C 339 32 499 -134 576 -250 
C 1018 173 1408 730 1728 1414 
C 1926 1043 2080 698 2182 410 
L 2592 691 
C 2458 1050 2234 1498 1965 1965 
C 2272 2771 2496 3725 2618 4806 
L 2310 4902 
L 2227 4883 
L 333 4883 
L 333 4422 
L 2106 4422 
C 2010 3731 1850 3078 1645 2490 
C 1357 2957 1037 3418 730 3821 
L 365 3578 
z
" transform="scale(0.015625)"/>
      <path id="NotoSansCJKjp-Regular-6d4b" d="M 3110 589 
C 3437 269 3814 -179 3994 -467 
L 4307 -250 
C 4122 26 3738 461 3411 774 
L 3110 589 
z
M 1997 5005 
L 1997 986 
L 2374 986 
L 2374 4634 
L 3763 4634 
L 3763 1005 
L 4154 1005 
L 4154 5005 
L 1997 5005 
z
M 5549 5293 
L 5549 45 
C 5549 -51 5510 -83 5421 -83 
C 5331 -90 5030 -90 4691 -83 
C 4749 -198 4813 -384 4832 -486 
C 5280 -493 5555 -480 5722 -410 
C 5882 -339 5946 -218 5946 45 
L 5946 5293 
L 5549 5293 
z
M 4672 4800 
L 4672 966 
L 5056 966 
L 5056 4800 
L 4672 4800 
z
M 2854 4179 
L 2854 1914 
C 2854 1139 2726 339 1658 -205 
C 1728 -262 1850 -422 1894 -499 
C 3046 83 3226 1050 3226 1907 
L 3226 4179 
L 2854 4179 
z
M 518 4966 
C 877 4768 1338 4461 1555 4256 
L 1850 4646 
C 1619 4838 1152 5120 806 5306 
L 518 4966 
z
M 243 3238 
C 595 3040 1062 2752 1293 2560 
L 1581 2944 
C 1338 3130 864 3405 518 3584 
L 243 3238 
z
M 371 -173 
L 806 -429 
C 1075 160 1395 947 1626 1619 
L 1242 1869 
C 986 1152 627 320 371 -173 
z
" transform="scale(0.015625)"/>
     </defs>
     <use xlink:href="#NotoSansCJKjp-Regular-7ed3"/>
     <use xlink:href="#NotoSansCJKjp-Regular-679c" transform="translate(99.999985 0)"/>
     <use xlink:href="#NotoSansCJKjp-Regular-53d8" transform="translate(199.999969 0)"/>
     <use xlink:href="#NotoSansCJKjp-Regular-91cf" transform="translate(299.999954 0)"/>
     <use xlink:href="#NotoSansCJKjp-Regular-53ea" transform="translate(399.999939 0)"/>
     <use xlink:href="#NotoSansCJKjp-Regular-5728" transform="translate(499.999924 0)"/>
     <use xlink:href="#NotoSansCJKjp-Regular-88ab" transform="translate(599.999908 0)"/>
     <use xlink:href="#NotoSansCJKjp-Regular-9009" transform="translate(699.999893 0)"/>
     <use xlink:href="#NotoSansCJKjp-Regular-62e9" transform="translate(799.999878 0)"/>
     <use xlink:href="#NotoSansCJKjp-Regular-6837" transform="translate(899.999863 0)"/>
     <use xlink:href="#NotoSansCJKjp-Regular-672c" transform="translate(999.999847 0)"/>
     <use xlink:href="#NotoSansCJKjp-Regular-4e2d" transform="translate(1099.999832 0)"/>
     <use xlink:href="#NotoSansCJKjp-Regular-53ef" transform="translate(1199.999817 0)"/>
     <use xlink:href="#NotoSansCJKjp-Regular-89c2" transform="translate(1299.999802 0)"/>
     <use xlink:href="#NotoSansCJKjp-Regular-6d4b" transform="translate(1399.999786 0)"/>
    </g>
    <!-- Heckman selection (Chap. 06) -->
    <g transform="translate(286.829062 289.521) scale(0.12 -0.12)">
     <defs>
      <path id="NotoSansCJKjp-Regular-6b" d="M 589 0 
L 1165 0 
L 1165 915 
L 1818 1677 
L 2835 0 
L 3469 0 
L 2157 2074 
L 3315 3475 
L 2662 3475 
L 1190 1645 
L 1165 1645 
L 1165 5094 
L 589 5094 
L 589 0 
z
" transform="scale(0.015625)"/>
      <path id="NotoSansCJKjp-Regular-28" d="M 1530 -1254 
L 1888 -1094 
C 1338 -186 1075 902 1075 1990 
C 1075 3072 1338 4154 1888 5069 
L 1530 5235 
C 941 4275 589 3245 589 1990 
C 589 730 941 -301 1530 -1254 
z
" transform="scale(0.015625)"/>
      <path id="NotoSansCJKjp-Regular-43" d="M 2413 -83 
C 3021 -83 3482 160 3853 589 
L 3526 966 
C 3226 634 2886 435 2438 435 
C 1542 435 979 1178 979 2362 
C 979 3533 1574 4256 2458 4256 
C 2861 4256 3168 4077 3418 3814 
L 3738 4198 
C 3469 4499 3021 4774 2451 4774 
C 1261 4774 371 3859 371 2342 
C 371 819 1242 -83 2413 -83 
z
" transform="scale(0.015625)"/>
      <path id="NotoSansCJKjp-Regular-68" d="M 589 0 
L 1178 0 
L 1178 2522 
C 1523 2874 1766 3053 2125 3053 
C 2586 3053 2784 2778 2784 2125 
L 2784 0 
L 3366 0 
L 3366 2202 
C 3366 3085 3034 3565 2304 3565 
C 1830 3565 1472 3302 1152 2982 
L 1178 3699 
L 1178 5094 
L 589 5094 
L 589 0 
z
" transform="scale(0.015625)"/>
      <path id="NotoSansCJKjp-Regular-2e" d="M 890 -83 
C 1120 -83 1312 96 1312 358 
C 1312 627 1120 806 890 806 
C 653 806 467 627 467 358 
C 467 96 653 -83 890 -83 
z
" transform="scale(0.015625)"/>
      <path id="NotoSansCJKjp-Regular-36" d="M 1926 -83 
C 2656 -83 3277 531 3277 1440 
C 3277 2426 2765 2912 1971 2912 
C 1606 2912 1197 2701 909 2349 
C 934 3802 1466 4294 2118 4294 
C 2400 4294 2682 4154 2861 3936 
L 3194 4294 
C 2931 4576 2579 4774 2093 4774 
C 1184 4774 358 4077 358 2240 
C 358 691 1030 -83 1926 -83 
z
M 922 1882 
C 1229 2317 1587 2477 1875 2477 
C 2445 2477 2720 2074 2720 1440 
C 2720 800 2374 378 1926 378 
C 1338 378 986 909 922 1882 
z
" transform="scale(0.015625)"/>
      <path id="NotoSansCJKjp-Regular-29" d="M 634 -1254 
C 1222 -301 1574 730 1574 1990 
C 1574 3245 1222 4275 634 5235 
L 269 5069 
C 819 4154 1094 3072 1094 1990 
C 1094 902 819 -186 269 -1094 
L 634 -1254 
z
" transform="scale(0.015625)"/>
     </defs>
     <use xlink:href="#NotoSansCJKjp-Regular-48"/>
     <use xlink:href="#NotoSansCJKjp-Regular-65" transform="translate(72.799988 0)"/>
     <use xlink:href="#NotoSansCJKjp-Regular-63" transform="translate(128.199982 0)"/>
     <use xlink:href="#NotoSansCJKjp-Regular-6b" transform="translate(179.199966 0)"/>
     <use xlink:href="#NotoSansCJKjp-Regular-6d" transform="translate(234.399963 0)"/>
     <use xlink:href="#NotoSansCJKjp-Regular-61" transform="translate(326.999954 0)"/>
     <use xlink:href="#NotoSansCJKjp-Regular-6e" transform="translate(383.299942 0)"/>
     <use xlink:href="#NotoSansCJKjp-Regular-20" transform="translate(444.299927 0)"/>
     <use xlink:href="#NotoSansCJKjp-Regular-73" transform="translate(466.699921 0)"/>
     <use xlink:href="#NotoSansCJKjp-Regular-65" transform="translate(513.499908 0)"/>
     <use xlink:href="#NotoSansCJKjp-Regular-6c" transform="translate(568.899902 0)"/>
     <use xlink:href="#NotoSansCJKjp-Regular-65" transform="translate(597.299896 0)"/>
     <use xlink:href="#NotoSansCJKjp-Regular-63" transform="translate(652.69989 0)"/>
     <use xlink:href="#NotoSansCJKjp-Regular-74" transform="translate(703.699875 0)"/>
     <use xlink:href="#NotoSansCJKjp-Regular-69" transform="translate(741.399872 0)"/>
     <use xlink:href="#NotoSansCJKjp-Regular-6f" transform="translate(768.899857 0)"/>
     <use xlink:href="#NotoSansCJKjp-Regular-6e" transform="translate(829.499847 0)"/>
     <use xlink:href="#NotoSansCJKjp-Regular-20" transform="translate(890.499832 0)"/>
     <use xlink:href="#NotoSansCJKjp-Regular-28" transform="translate(912.899826 0)"/>
     <use xlink:href="#NotoSansCJKjp-Regular-43" transform="translate(946.699814 0)"/>
     <use xlink:href="#NotoSansCJKjp-Regular-68" transform="translate(1010.499802 0)"/>
     <use xlink:href="#NotoSansCJKjp-Regular-61" transform="translate(1071.199799 0)"/>
     <use xlink:href="#NotoSansCJKjp-Regular-70" transform="translate(1127.499786 0)"/>
     <use xlink:href="#NotoSansCJKjp-Regular-2e" transform="translate(1189.499771 0)"/>
     <use xlink:href="#NotoSansCJKjp-Regular-20" transform="translate(1217.299759 0)"/>
     <use xlink:href="#NotoSansCJKjp-Regular-30" transform="translate(1239.699753 0)"/>
     <use xlink:href="#NotoSansCJKjp-Regular-36" transform="translate(1295.199738 0)"/>
     <use xlink:href="#NotoSansCJKjp-Regular-29" transform="translate(1350.699722 0)"/>
    </g>
   </g>
   <g id="text_10">
    <!-- 注：灰色虚线框为下一章样本选择模型的入口，本章不展开。 -->
    <g style="fill: #595959" transform="translate(21.15 325.98) scale(0.1 -0.1)">
     <defs>
      <path id="NotoSansCJKjp-Regular-6ce8" d="M 614 4973 
C 1050 4794 1568 4486 1824 4256 
L 2106 4653 
C 1837 4883 1306 5165 877 5325 
L 614 4973 
z
M 243 3226 
C 685 3072 1222 2797 1491 2586 
L 1754 2995 
C 1478 3200 922 3456 493 3597 
L 243 3226 
z
M 486 -102 
L 890 -429 
C 1267 166 1715 966 2054 1645 
L 1702 1958 
C 1331 1235 826 390 486 -102 
z
M 2163 3994 
L 2163 3533 
L 3802 3533 
L 3802 2163 
L 2400 2163 
L 2400 1696 
L 3802 1696 
L 3802 141 
L 1946 141 
L 1946 -314 
L 6157 -314 
L 6157 141 
L 4294 141 
L 4294 1696 
L 5786 1696 
L 5786 2163 
L 4294 2163 
L 4294 3533 
L 6016 3533 
L 6016 3994 
L 4461 3994 
L 4787 4390 
C 4474 4704 3821 5126 3290 5389 
L 2982 5030 
C 3507 4755 4128 4320 4435 3994 
L 2163 3994 
z
" transform="scale(0.015625)"/>
      <path id="NotoSansCJKjp-Regular-7070" d="M 2182 3392 
C 2074 2835 1856 2259 1453 1914 
L 1856 1690 
C 2285 2054 2490 2682 2611 3277 
L 2182 3392 
z
M 5325 3475 
C 5139 3027 4794 2406 4512 2016 
L 4934 1830 
C 5210 2214 5549 2784 5811 3283 
L 5325 3475 
z
M 832 4979 
L 832 3053 
C 832 2061 781 698 211 -269 
C 333 -314 538 -435 627 -518 
C 1229 499 1312 2003 1312 3053 
L 1312 4518 
L 6029 4518 
L 6029 4979 
L 832 4979 
z
M 3328 4205 
C 3277 2182 3206 595 1197 -141 
C 1293 -230 1427 -403 1485 -518 
C 2867 13 3405 928 3635 2112 
C 3962 800 4576 -64 5818 -506 
C 5882 -384 6016 -192 6118 -102 
C 4493 416 3994 1741 3795 3782 
L 3808 4205 
L 3328 4205 
z
" transform="scale(0.015625)"/>
      <path id="NotoSansCJKjp-Regular-8272" d="M 3008 2182 
L 1485 2182 
L 1485 3354 
L 3008 3354 
L 3008 2182 
z
M 3494 2182 
L 3494 3354 
L 5126 3354 
L 5126 2182 
L 3494 2182 
z
M 2093 5395 
C 1741 4755 1094 3962 224 3366 
C 339 3290 499 3130 582 3021 
C 730 3130 870 3238 1005 3354 
L 1005 512 
C 1005 -262 1325 -442 2362 -442 
C 2598 -442 4602 -442 4858 -442 
C 5811 -442 6010 -166 6118 781 
C 5978 806 5766 877 5645 960 
C 5568 173 5466 6 4851 6 
C 4416 6 2669 6 2330 6 
C 1626 6 1485 102 1485 506 
L 1485 1741 
L 5126 1741 
L 5126 1459 
L 5613 1459 
L 5613 3789 
L 3795 3789 
C 4019 4090 4243 4435 4410 4762 
L 4077 4979 
L 3987 4947 
L 2400 4947 
L 2624 5299 
L 2093 5395 
z
M 1485 3789 
L 1466 3789 
C 1702 4026 1914 4275 2099 4525 
L 3725 4525 
C 3584 4269 3405 4000 3232 3789 
L 1485 3789 
z
" transform="scale(0.015625)"/>
      <path id="NotoSansCJKjp-Regular-865a" d="M 1517 1453 
C 1728 1094 1939 608 2016 301 
L 2438 467 
C 2355 768 2125 1235 1907 1587 
L 1517 1453 
z
M 5114 1632 
C 4966 1280 4685 768 4467 448 
L 4806 314 
C 5043 608 5338 1075 5581 1472 
L 5114 1632 
z
M 826 4064 
L 826 2528 
C 826 1709 774 563 269 -256 
C 384 -301 589 -429 678 -506 
C 1210 352 1299 1638 1299 2528 
L 1299 3654 
L 2893 3654 
L 2893 3174 
L 1606 3059 
L 1645 2707 
L 2893 2822 
L 2893 2662 
C 2893 2202 3078 2093 3782 2093 
C 3936 2093 5094 2093 5261 2093 
C 5773 2093 5914 2227 5971 2752 
C 5850 2771 5670 2829 5568 2893 
C 5536 2522 5491 2464 5216 2464 
C 4966 2464 3987 2464 3802 2464 
C 3411 2464 3341 2496 3341 2662 
L 3341 2861 
L 4915 3008 
L 4883 3347 
L 3341 3213 
L 3341 3654 
L 5382 3654 
C 5325 3462 5261 3277 5197 3136 
L 5626 2995 
C 5747 3245 5888 3635 5997 3981 
L 5638 4083 
L 5555 4064 
L 3366 4064 
L 3366 4486 
L 5562 4486 
L 5562 4883 
L 3366 4883 
L 3366 5376 
L 2893 5376 
L 2893 4064 
L 826 4064 
z
M 3840 1875 
L 3840 32 
L 3110 32 
L 3110 1875 
L 2656 1875 
L 2656 32 
L 1171 32 
L 1171 -378 
L 5952 -378 
L 5952 32 
L 4288 32 
L 4288 1875 
L 3840 1875 
z
" transform="scale(0.015625)"/>
      <path id="NotoSansCJKjp-Regular-7ebf" d="M 346 346 
L 448 -115 
C 1037 64 1805 294 2547 512 
L 2477 922 
C 1690 698 877 474 346 346 
z
M 4506 4992 
C 4826 4838 5229 4589 5434 4410 
L 5715 4710 
C 5510 4883 5101 5120 4787 5261 
L 4506 4992 
z
M 461 2707 
C 550 2752 704 2790 1485 2893 
C 1203 2477 954 2157 832 2029 
C 634 1792 486 1632 346 1606 
C 403 1485 474 1261 499 1165 
C 634 1242 851 1306 2458 1632 
C 2445 1728 2445 1907 2458 2035 
L 1184 1805 
C 1670 2381 2157 3085 2566 3789 
L 2163 4032 
C 2042 3795 1901 3552 1760 3322 
L 947 3238 
C 1331 3782 1702 4474 1978 5146 
L 1530 5357 
C 1274 4589 806 3770 666 3558 
C 525 3341 416 3194 301 3162 
C 358 3034 435 2803 461 2707 
z
M 5677 2234 
C 5421 1830 5075 1459 4659 1139 
C 4557 1478 4467 1888 4403 2349 
L 6035 2656 
L 5958 3078 
L 4346 2778 
C 4314 3046 4282 3328 4262 3622 
L 5856 3866 
L 5779 4288 
L 4237 4058 
C 4218 4486 4211 4928 4211 5389 
L 3738 5389 
C 3744 4909 3757 4442 3782 3987 
L 2771 3840 
L 2848 3405 
L 3808 3552 
C 3827 3258 3859 2970 3891 2694 
L 2643 2464 
L 2720 2029 
L 3949 2259 
C 4026 1728 4128 1248 4262 851 
C 3718 486 3091 198 2438 0 
C 2554 -109 2675 -282 2739 -397 
C 3341 -186 3910 90 4422 422 
C 4685 -154 5030 -493 5485 -493 
C 5926 -493 6074 -282 6163 435 
C 6054 480 5901 582 5805 691 
C 5773 122 5709 -26 5536 -26 
C 5254 -26 5018 237 4819 704 
C 5325 1088 5760 1542 6080 2042 
L 5677 2234 
z
" transform="scale(0.015625)"/>
      <path id="NotoSansCJKjp-Regular-6846" d="M 3309 1280 
L 3309 858 
L 6010 858 
L 6010 1280 
L 4858 1280 
L 4858 2285 
L 5798 2285 
L 5798 2694 
L 4858 2694 
L 4858 3584 
L 5869 3584 
L 5869 4006 
L 3411 4006 
L 3411 3584 
L 4403 3584 
L 4403 2694 
L 3514 2694 
L 3514 2285 
L 4403 2285 
L 4403 1280 
L 3309 1280 
z
M 2579 5043 
L 2579 -512 
L 3040 -512 
L 3040 -154 
L 6163 -154 
L 6163 301 
L 3040 301 
L 3040 4602 
L 6074 4602 
L 6074 5043 
L 2579 5043 
z
M 1229 5376 
L 1229 3987 
L 333 3987 
L 333 3539 
L 1178 3539 
C 992 2669 602 1658 198 1120 
C 275 1011 390 832 442 704 
C 736 1120 1011 1792 1229 2483 
L 1229 -506 
L 1670 -506 
L 1670 2592 
C 1856 2272 2080 1882 2170 1677 
L 2438 2035 
C 2323 2208 1843 2938 1670 3168 
L 1670 3539 
L 2387 3539 
L 2387 3987 
L 1670 3987 
L 1670 5376 
L 1229 5376 
z
" transform="scale(0.015625)"/>
      <path id="NotoSansCJKjp-Regular-4e3a" d="M 1037 5018 
C 1293 4717 1581 4307 1709 4045 
L 2144 4256 
C 2010 4518 1709 4915 1446 5197 
L 1037 5018 
z
M 3194 2374 
C 3520 1984 3898 1446 4064 1107 
L 4486 1338 
C 4314 1670 3923 2189 3590 2566 
L 3194 2374 
z
M 2630 5363 
L 2630 4608 
C 2630 4365 2624 4109 2605 3834 
L 525 3834 
L 525 3354 
L 2554 3354 
C 2394 2214 1888 928 352 -70 
C 467 -147 646 -314 730 -422 
C 2368 666 2893 2099 3046 3354 
L 5254 3354 
C 5165 1178 5062 320 4870 122 
C 4800 45 4730 26 4589 32 
C 4435 32 4032 32 3597 70 
C 3693 -70 3757 -282 3763 -429 
C 4160 -448 4563 -461 4787 -442 
C 5024 -416 5171 -365 5318 -179 
C 5568 115 5658 1018 5760 3584 
C 5760 3661 5766 3834 5766 3834 
L 3098 3834 
C 3110 4102 3117 4365 3117 4602 
L 3117 5363 
L 2630 5363 
z
" transform="scale(0.015625)"/>
      <path id="NotoSansCJKjp-Regular-4e0b" d="M 352 4902 
L 352 4422 
L 2822 4422 
L 2822 -506 
L 3328 -506 
L 3328 2886 
C 4064 2490 4922 1958 5370 1600 
L 5709 2035 
C 5197 2426 4179 3002 3418 3373 
L 3328 3270 
L 3328 4422 
L 6054 4422 
L 6054 4902 
L 352 4902 
z
" transform="scale(0.015625)"/>
      <path id="NotoSansCJKjp-Regular-4e00" d="M 282 2758 
L 282 2234 
L 6144 2234 
L 6144 2758 
L 282 2758 
z
" transform="scale(0.015625)"/>
      <path id="NotoSansCJKjp-Regular-7ae0" d="M 1517 1901 
L 4870 1901 
L 4870 1440 
L 1517 1440 
L 1517 1901 
z
M 1517 2688 
L 4870 2688 
L 4870 2234 
L 1517 2234 
L 1517 2688 
z
M 1050 3040 
L 1050 1088 
L 2938 1088 
L 2938 666 
L 301 666 
L 301 269 
L 2938 269 
L 2938 -506 
L 3437 -506 
L 3437 269 
L 6074 269 
L 6074 666 
L 3437 666 
L 3437 1088 
L 5357 1088 
L 5357 3040 
L 1050 3040 
z
M 1664 4429 
C 1798 4237 1926 3974 1997 3770 
L 314 3770 
L 314 3373 
L 6086 3373 
L 6086 3770 
L 4390 3770 
C 4512 3955 4653 4205 4781 4442 
L 4691 4461 
L 5683 4461 
L 5683 4858 
L 3437 4858 
L 3437 5376 
L 2931 5376 
L 2931 4858 
L 736 4858 
L 736 4461 
L 1811 4461 
L 1664 4429 
z
M 4243 4461 
C 4147 4243 4000 3962 3885 3770 
L 2451 3770 
L 2502 3782 
C 2451 3974 2310 4243 2157 4461 
L 4243 4461 
z
" transform="scale(0.015625)"/>
      <path id="NotoSansCJKjp-Regular-6a21" d="M 3021 2669 
L 5248 2669 
L 5248 2208 
L 3021 2208 
L 3021 2669 
z
M 3021 3469 
L 5248 3469 
L 5248 3021 
L 3021 3021 
L 3021 3469 
z
M 4685 5376 
L 4685 4845 
L 3699 4845 
L 3699 5376 
L 3245 5376 
L 3245 4845 
L 2304 4845 
L 2304 4435 
L 3245 4435 
L 3245 3955 
L 3699 3955 
L 3699 4435 
L 4685 4435 
L 4685 3955 
L 5152 3955 
L 5152 4435 
L 6048 4435 
L 6048 4845 
L 5152 4845 
L 5152 5376 
L 4685 5376 
z
M 2573 3834 
L 2573 1850 
L 3878 1850 
C 3853 1658 3827 1485 3782 1318 
L 2176 1318 
L 2176 909 
L 3642 909 
C 3398 416 2938 77 1997 -128 
C 2086 -224 2208 -403 2253 -512 
C 3366 -243 3885 218 4141 896 
C 4461 192 5056 -288 5888 -512 
C 5952 -390 6080 -211 6182 -115 
C 5459 38 4909 390 4602 909 
L 6035 909 
L 6035 1318 
L 4262 1318 
C 4294 1485 4326 1664 4346 1850 
L 5715 1850 
L 5715 3834 
L 2573 3834 
z
M 1120 5376 
L 1120 4141 
L 320 4141 
L 320 3693 
L 1120 3693 
L 1120 3686 
C 947 2816 576 1798 205 1261 
C 288 1146 403 934 461 794 
C 704 1171 934 1754 1120 2381 
L 1120 -506 
L 1581 -506 
L 1581 2790 
C 1754 2451 1952 2042 2035 1830 
L 2342 2176 
C 2234 2374 1747 3174 1581 3424 
L 1581 3693 
L 2240 3693 
L 2240 4141 
L 1581 4141 
L 1581 5376 
L 1120 5376 
z
" transform="scale(0.015625)"/>
      <path id="NotoSansCJKjp-Regular-578b" d="M 4064 5011 
L 4064 2867 
L 4506 2867 
L 4506 5011 
L 4064 5011 
z
M 5261 5338 
L 5261 2477 
C 5261 2394 5235 2368 5133 2362 
C 5037 2355 4717 2355 4352 2368 
C 4422 2240 4486 2054 4512 1926 
C 4966 1926 5280 1933 5472 2010 
C 5664 2080 5715 2202 5715 2470 
L 5715 5338 
L 5261 5338 
z
M 2483 4691 
L 2483 3808 
L 1690 3808 
L 1690 3846 
L 1690 4691 
L 2483 4691 
z
M 429 3808 
L 429 3379 
L 1210 3379 
C 1139 2950 928 2515 378 2176 
C 467 2112 627 1933 691 1843 
C 1344 2246 1587 2822 1658 3379 
L 2483 3379 
L 2483 2003 
L 2938 2003 
L 2938 3379 
L 3667 3379 
L 3667 3808 
L 2938 3808 
L 2938 4691 
L 3533 4691 
L 3533 5114 
L 640 5114 
L 640 4691 
L 1248 4691 
L 1248 3853 
L 1248 3808 
L 429 3808 
z
M 2989 2125 
L 2989 1414 
L 966 1414 
L 966 973 
L 2989 973 
L 2989 160 
L 301 160 
L 301 -288 
L 6093 -288 
L 6093 160 
L 3482 160 
L 3482 973 
L 5427 973 
L 5427 1414 
L 3482 1414 
L 3482 2125 
L 2989 2125 
z
" transform="scale(0.015625)"/>
      <path id="NotoSansCJKjp-Regular-7684" d="M 3533 2707 
C 3885 2240 4320 1600 4512 1210 
L 4922 1466 
C 4710 1843 4269 2464 3904 2918 
L 3533 2707 
z
M 1536 5389 
C 1485 5082 1376 4659 1274 4346 
L 557 4346 
L 557 -346 
L 998 -346 
L 998 160 
L 2784 160 
L 2784 4346 
L 1715 4346 
C 1824 4621 1946 4979 2054 5299 
L 1536 5389 
z
M 998 3917 
L 2342 3917 
L 2342 2566 
L 998 2566 
L 998 3917 
z
M 998 595 
L 998 2144 
L 2342 2144 
L 2342 595 
L 998 595 
z
M 3827 5402 
C 3622 4518 3277 3635 2835 3066 
C 2950 3002 3149 2867 3238 2790 
C 3456 3098 3661 3488 3840 3923 
L 5478 3923 
C 5402 1357 5299 371 5094 154 
C 5018 64 4947 45 4819 45 
C 4672 45 4288 51 3866 83 
C 3955 -38 4013 -243 4026 -378 
C 4384 -397 4762 -410 4979 -390 
C 5210 -365 5350 -314 5498 -122 
C 5754 192 5843 1184 5939 4122 
C 5946 4186 5946 4365 5946 4365 
L 4013 4365 
C 4115 4666 4211 4986 4288 5299 
L 3827 5402 
z
" transform="scale(0.015625)"/>
      <path id="NotoSansCJKjp-Regular-5165" d="M 2842 3731 
C 2451 1920 1651 627 230 -115 
C 358 -205 582 -403 666 -499 
C 1946 250 2758 1427 3238 3085 
C 3533 1869 4218 461 5798 -493 
C 5882 -371 6074 -173 6189 -83 
C 3661 1414 3514 3846 3514 4986 
L 1459 4986 
L 1459 4499 
L 3040 4499 
C 3053 4256 3078 3981 3123 3680 
L 2842 3731 
z
" transform="scale(0.015625)"/>
      <path id="NotoSansCJKjp-Regular-53e3" d="M 813 4704 
L 813 -352 
L 1312 -352 
L 1312 192 
L 5094 192 
L 5094 -326 
L 5606 -326 
L 5606 4704 
L 813 4704 
z
M 1312 685 
L 1312 4224 
L 5094 4224 
L 5094 685 
L 1312 685 
z
" transform="scale(0.015625)"/>
      <path id="NotoSansCJKjp-Regular-ff0c" d="M 1005 -685 
C 1677 -448 2112 77 2112 768 
C 2112 1216 1920 1504 1568 1504 
C 1306 1504 1082 1344 1082 1043 
C 1082 742 1299 589 1562 589 
L 1670 602 
C 1638 160 1357 -141 864 -346 
L 1005 -685 
z
" transform="scale(0.015625)"/>
      <path id="NotoSansCJKjp-Regular-4e0d" d="M 3578 3059 
C 4339 2547 5299 1792 5754 1299 
L 6144 1670 
C 5664 2163 4691 2880 3936 3366 
L 3578 3059 
z
M 442 4928 
L 442 4435 
L 3290 4435 
C 2656 3341 1555 2259 282 1632 
C 384 1523 531 1331 608 1210 
C 1498 1677 2291 2336 2938 3078 
L 2938 -499 
L 3456 -499 
L 3456 3738 
C 3622 3962 3770 4198 3904 4435 
L 5958 4435 
L 5958 4928 
L 442 4928 
z
" transform="scale(0.015625)"/>
      <path id="NotoSansCJKjp-Regular-5c55" d="M 5376 1389 
C 5133 1184 4742 928 4416 736 
C 4211 934 4038 1165 3904 1421 
L 6086 1421 
L 6086 1843 
L 4742 1843 
L 4742 2496 
L 5824 2496 
L 5824 2906 
L 4742 2906 
L 4742 3494 
L 5702 3494 
L 5702 5069 
L 902 5069 
L 902 3187 
C 902 2163 845 736 198 -269 
C 320 -320 531 -442 627 -518 
C 1293 531 1382 2099 1382 3187 
L 1382 3494 
L 2560 3494 
L 2560 2906 
L 1594 2906 
L 1594 2496 
L 2560 2496 
L 2560 1843 
L 1395 1843 
L 1395 1421 
L 2214 1421 
L 2214 122 
L 1478 19 
L 1555 -429 
C 2221 -314 3155 -160 4038 -6 
L 4019 410 
L 2662 192 
L 2662 1421 
L 3450 1421 
C 3891 429 4704 -237 5856 -525 
C 5920 -403 6048 -224 6150 -128 
C 5587 -13 5101 198 4710 486 
C 5043 659 5434 902 5741 1133 
L 5376 1389 
z
M 3002 2496 
L 4288 2496 
L 4288 1843 
L 3002 1843 
L 3002 2496 
z
M 3002 2906 
L 3002 3494 
L 4288 3494 
L 4288 2906 
L 3002 2906 
z
M 1382 4653 
L 5222 4653 
L 5222 3910 
L 1382 3910 
L 1382 4653 
z
" transform="scale(0.015625)"/>
      <path id="NotoSansCJKjp-Regular-5f00" d="M 4154 4499 
L 4154 2675 
L 2362 2675 
L 2362 2950 
L 2362 4499 
L 4154 4499 
z
M 333 2675 
L 333 2214 
L 1843 2214 
C 1754 1338 1427 480 346 -179 
C 474 -262 646 -422 730 -538 
C 1914 211 2246 1210 2336 2214 
L 4154 2214 
L 4154 -518 
L 4646 -518 
L 4646 2214 
L 6074 2214 
L 6074 2675 
L 4646 2675 
L 4646 4499 
L 5875 4499 
L 5875 4960 
L 570 4960 
L 570 4499 
L 1875 4499 
L 1875 2950 
L 1869 2675 
L 333 2675 
z
" transform="scale(0.015625)"/>
      <path id="NotoSansCJKjp-Regular-3002" d="M 1242 1562 
C 710 1562 269 1126 269 589 
C 269 45 710 -390 1242 -390 
C 1786 -390 2221 45 2221 589 
C 2221 1126 1786 1562 1242 1562 
z
M 1242 -64 
C 890 -64 595 224 595 589 
C 595 941 890 1235 1242 1235 
C 1606 1235 1894 941 1894 589 
C 1894 224 1606 -64 1242 -64 
z
" transform="scale(0.015625)"/>
     </defs>
     <use xlink:href="#NotoSansCJKjp-Regular-6ce8"/>
     <use xlink:href="#NotoSansCJKjp-Regular-ff1a" transform="translate(99.999985 0)"/>
     <use xlink:href="#NotoSansCJKjp-Regular-7070" transform="translate(199.999969 0)"/>
     <use xlink:href="#NotoSansCJKjp-Regular-8272" transform="translate(299.999954 0)"/>
     <use xlink:href="#NotoSansCJKjp-Regular-865a" transform="translate(399.999939 0)"/>
     <use xlink:href="#NotoSansCJKjp-Regular-7ebf" transform="translate(499.999924 0)"/>
     <use xlink:href="#NotoSansCJKjp-Regular-6846" transform="translate(599.999908 0)"/>
     <use xlink:href="#NotoSansCJKjp-Regular-4e3a" transform="translate(699.999893 0)"/>
     <use xlink:href="#NotoSansCJKjp-Regular-4e0b" transform="translate(799.999878 0)"/>
     <use xlink:href="#NotoSansCJKjp-Regular-4e00" transform="translate(899.999863 0)"/>
     <use xlink:href="#NotoSansCJKjp-Regular-7ae0" transform="translate(999.999847 0)"/>
     <use xlink:href="#NotoSansCJKjp-Regular-6837" transform="translate(1099.999832 0)"/>
     <use xlink:href="#NotoSansCJKjp-Regular-672c" transform="translate(1199.999817 0)"/>
     <use xlink:href="#NotoSansCJKjp-Regular-9009" transform="translate(1299.999802 0)"/>
     <use xlink:href="#NotoSansCJKjp-Regular-62e9" transform="translate(1399.999786 0)"/>
     <use xlink:href="#NotoSansCJKjp-Regular-6a21" transform="translate(1499.999771 0)"/>
     <use xlink:href="#NotoSansCJKjp-Regular-578b" transform="translate(1599.999756 0)"/>
     <use xlink:href="#NotoSansCJKjp-Regular-7684" transform="translate(1699.999741 0)"/>
     <use xlink:href="#NotoSansCJKjp-Regular-5165" transform="translate(1799.999725 0)"/>
     <use xlink:href="#NotoSansCJKjp-Regular-53e3" transform="translate(1899.99971 0)"/>
     <use xlink:href="#NotoSansCJKjp-Regular-ff0c" transform="translate(1999.999695 0)"/>
     <use xlink:href="#NotoSansCJKjp-Regular-672c" transform="translate(2099.99968 0)"/>
     <use xlink:href="#NotoSansCJKjp-Regular-7ae0" transform="translate(2199.999664 0)"/>
     <use xlink:href="#NotoSansCJKjp-Regular-4e0d" transform="translate(2299.999649 0)"/>
     <use xlink:href="#NotoSansCJKjp-Regular-5c55" transform="translate(2399.999634 0)"/>
     <use xlink:href="#NotoSansCJKjp-Regular-5f00" transform="translate(2499.999619 0)"/>
     <use xlink:href="#NotoSansCJKjp-Regular-3002" transform="translate(2599.999603 0)"/>
    </g>
   </g>
  </g>
 </g>
 <defs>
  <clipPath id="p8fe28cdda5">
   <rect x="7.2" y="7.2" width="703.08" height="332.64"/>
  </clipPath>
 </defs>
</svg>
