<?xml version="1.0" encoding="utf-8" standalone="no"?>
<!DOCTYPE svg PUBLIC "-//W3C//DTD SVG 1.1//EN"
  "http://www.w3.org/Graphics/SVG/1.1/DTD/svg11.dtd">
<svg xmlns:xlink="http://www.w3.org/1999/xlink" width="494.86pt" height="242.370625pt" viewBox="0 0 494.86 242.370625" xmlns="http://www.w3.org/2000/svg" version="1.1">
 <metadata>
  <rdf:RDF xmlns:dc="http://purl.org/dc/elements/1.1/" xmlns:cc="http://creativecommons.org/ns#" xmlns:rdf="http://www.w3.org/1999/02/22-rdf-syntax-ns#">
   <cc:Work>
    <dc:type rdf:resource="http://purl.org/dc/dcmitype/StillImage"/>
    <dc:date>2026-04-30T03:13:40.484041</dc:date>
    <dc:format>image/svg+xml</dc:format>
    <dc:creator>
     <cc:Agent>
      <dc:title>Matplotlib v3.10.8, https://matplotlib.org/</dc:title>
     </cc:Agent>
    </dc:creator>
   </cc:Work>
  </rdf:RDF>
 </metadata>
 <defs>
  <style type="text/css">*{stroke-linejoin: round; stroke-linecap: butt}</style>
 </defs>
 <g id="figure_1">
  <g id="patch_1">
   <path d="M 0 242.370625 
L 494.86 242.370625 
L 494.86 0 
L 0 0 
z
" style="fill: #ffffff"/>
  </g>
  <g id="axes_1">
   <g id="patch_2">
    <path d="M 52.7 204.490937 
L 487.66 204.490937 
L 487.66 23.873438 
L 52.7 23.873438 
z
" style="fill: #ffffff"/>
   </g>
   <g id="patch_3">
    <path d="M 52.7 196.281051 
L 56.025531 196.281051 
L 56.025531 163.441506 
L 52.7 163.441506 
z
" clip-path="url(#p2d91b5e1f3)" style="fill: #4878cf; opacity: 0.8"/>
   </g>
   <g id="patch_4">
    <path d="M 52.7 130.60196 
L 249.757356 130.60196 
L 249.757356 97.762415 
L 52.7 97.762415 
z
" clip-path="url(#p2d91b5e1f3)" style="fill: #4878cf; opacity: 0.8"/>
   </g>
   <g id="patch_5">
    <path d="M 52.7 64.922869 
L 430.926087 64.922869 
L 430.926087 32.083324 
L 52.7 32.083324 
z
" clip-path="url(#p2d91b5e1f3)" style="fill: #e07b39; opacity: 0.8"/>
   </g>
   <g id="matplotlib.axis_1">
    <g id="xtick_1">
     <g id="line2d_1">
      <path d="M 52.7 204.490937 
L 52.7 23.873438 
" clip-path="url(#p2d91b5e1f3)" style="fill: none; stroke: #b0b0b0; stroke-opacity: 0.25; stroke-width: 0.8; stroke-linecap: square"/>
     </g>
     <g id="line2d_2">
      <defs>
       <path id="m3082098497" d="M 0 0 
L 0 3.5 
" style="stroke: #000000; stroke-width: 0.8"/>
      </defs>
      <g>
       <use xlink:href="#m3082098497" x="52.7" y="204.490937" style="stroke: #000000; stroke-width: 0.8"/>
      </g>
     </g>
     <g id="text_1">
      <!-- 0 -->
      <g transform="translate(49.95 219.053437) scale(0.11 -0.11)">
       <defs>
        <path id="SimHei-30" d="M 225 2537 
Q 250 3200 412 3587 
Q 575 3975 875 4225 
Q 1175 4475 1612 4475 
Q 2050 4475 2375 4112 
Q 2700 3750 2800 3200 
Q 2900 2650 2862 1937 
Q 2825 1225 2612 775 
Q 2400 325 1975 150 
Q 1550 -25 1125 187 
Q 700 400 525 750 
Q 350 1100 275 1487 
Q 200 1875 225 2537 
z
M 750 2687 
Q 675 2000 800 1462 
Q 925 925 1212 700 
Q 1500 475 1800 612 
Q 2100 750 2237 1162 
Q 2375 1575 2375 2062 
Q 2375 2550 2337 2950 
Q 2300 3350 2112 3675 
Q 1925 4000 1612 4012 
Q 1300 4025 1062 3700 
Q 825 3375 750 2687 
z
" transform="scale(0.015625)"/>
       </defs>
       <use xlink:href="#SimHei-30"/>
      </g>
     </g>
    </g>
    <g id="xtick_2">
     <g id="line2d_3">
      <path d="M 128.345217 204.490937 
L 128.345217 23.873438 
" clip-path="url(#p2d91b5e1f3)" style="fill: none; stroke: #b0b0b0; stroke-opacity: 0.25; stroke-width: 0.8; stroke-linecap: square"/>
     </g>
     <g id="line2d_4">
      <g>
       <use xlink:href="#m3082098497" x="128.345217" y="204.490937" style="stroke: #000000; stroke-width: 0.8"/>
      </g>
     </g>
     <g id="text_2">
      <!-- 20 -->
      <g transform="translate(122.845217 219.053437) scale(0.11 -0.11)">
       <defs>
        <path id="SimHei-32" d="M 300 250 
Q 325 625 650 925 
Q 975 1225 1475 1862 
Q 1975 2500 2125 2850 
Q 2275 3200 2237 3450 
Q 2200 3700 2000 3862 
Q 1800 4025 1537 4000 
Q 1275 3975 1037 3800 
Q 800 3625 675 3275 
L 200 3350 
Q 400 3925 712 4187 
Q 1025 4450 1450 4475 
Q 1700 4500 1900 4462 
Q 2100 4425 2312 4287 
Q 2525 4150 2662 3875 
Q 2800 3600 2762 3212 
Q 2725 2825 2375 2287 
Q 2025 1750 1025 600 
L 2825 600 
L 2825 150 
L 300 150 
L 300 250 
z
" transform="scale(0.015625)"/>
       </defs>
       <use xlink:href="#SimHei-32"/>
       <use xlink:href="#SimHei-30" transform="translate(50 0)"/>
      </g>
     </g>
    </g>
    <g id="xtick_3">
     <g id="line2d_5">
      <path d="M 203.990435 204.490937 
L 203.990435 23.873438 
" clip-path="url(#p2d91b5e1f3)" style="fill: none; stroke: #b0b0b0; stroke-opacity: 0.25; stroke-width: 0.8; stroke-linecap: square"/>
     </g>
     <g id="line2d_6">
      <g>
       <use xlink:href="#m3082098497" x="203.990435" y="204.490937" style="stroke: #000000; stroke-width: 0.8"/>
      </g>
     </g>
     <g id="text_3">
      <!-- 40 -->
      <g transform="translate(198.490435 219.053437) scale(0.11 -0.11)">
       <defs>
        <path id="SimHei-34" d="M 2000 1100 
L 75 1100 
L 75 1525 
L 2100 4450 
L 2475 4450 
L 2475 1525 
L 3075 1525 
L 3075 1100 
L 2475 1100 
L 2475 150 
L 2000 150 
L 2000 1100 
z
M 2000 1525 
L 2000 3500 
L 600 1525 
L 2000 1525 
z
" transform="scale(0.015625)"/>
       </defs>
       <use xlink:href="#SimHei-34"/>
       <use xlink:href="#SimHei-30" transform="translate(50 0)"/>
      </g>
     </g>
    </g>
    <g id="xtick_4">
     <g id="line2d_7">
      <path d="M 279.635652 204.490937 
L 279.635652 23.873438 
" clip-path="url(#p2d91b5e1f3)" style="fill: none; stroke: #b0b0b0; stroke-opacity: 0.25; stroke-width: 0.8; stroke-linecap: square"/>
     </g>
     <g id="line2d_8">
      <g>
       <use xlink:href="#m3082098497" x="279.635652" y="204.490937" style="stroke: #000000; stroke-width: 0.8"/>
      </g>
     </g>
     <g id="text_4">
      <!-- 60 -->
      <g transform="translate(274.135652 219.053437) scale(0.11 -0.11)">
       <defs>
        <path id="SimHei-36" d="M 250 1612 
Q 275 1975 387 2225 
Q 500 2475 725 2850 
L 1750 4450 
L 2325 4450 
L 1275 2800 
Q 1950 2975 2350 2750 
Q 2750 2525 2887 2237 
Q 3025 1950 3037 1612 
Q 3050 1275 2937 950 
Q 2825 625 2537 362 
Q 2250 100 1737 75 
Q 1225 50 862 262 
Q 500 475 362 862 
Q 225 1250 250 1612 
z
M 1025 787 
Q 1250 550 1625 525 
Q 2000 500 2250 775 
Q 2500 1050 2500 1575 
Q 2500 2100 2187 2300 
Q 1875 2500 1487 2450 
Q 1100 2400 925 2075 
Q 750 1750 775 1387 
Q 800 1025 1025 787 
z
" transform="scale(0.015625)"/>
       </defs>
       <use xlink:href="#SimHei-36"/>
       <use xlink:href="#SimHei-30" transform="translate(50 0)"/>
      </g>
     </g>
    </g>
    <g id="xtick_5">
     <g id="line2d_9">
      <path d="M 355.28087 204.490937 
L 355.28087 23.873438 
" clip-path="url(#p2d91b5e1f3)" style="fill: none; stroke: #b0b0b0; stroke-opacity: 0.25; stroke-width: 0.8; stroke-linecap: square"/>
     </g>
     <g id="line2d_10">
      <g>
       <use xlink:href="#m3082098497" x="355.28087" y="204.490937" style="stroke: #000000; stroke-width: 0.8"/>
      </g>
     </g>
     <g id="text_5">
      <!-- 80 -->
      <g transform="translate(349.78087 219.053437) scale(0.11 -0.11)">
       <defs>
        <path id="SimHei-38" d="M 175 1375 
Q 175 1675 325 1962 
Q 475 2250 825 2425 
Q 525 2600 425 2812 
Q 325 3025 312 3300 
Q 300 3575 387 3775 
Q 475 3975 650 4150 
Q 825 4325 1037 4387 
Q 1250 4450 1500 4450 
Q 1750 4450 1950 4400 
Q 2150 4350 2375 4187 
Q 2600 4025 2700 3725 
Q 2800 3425 2687 3025 
Q 2575 2625 2100 2400 
Q 2525 2275 2700 2012 
Q 2875 1750 2875 1375 
Q 2875 1000 2762 775 
Q 2650 550 2512 400 
Q 2375 250 2137 162 
Q 1900 75 1537 75 
Q 1175 75 912 162 
Q 650 250 475 425 
Q 300 600 237 837 
Q 175 1075 175 1375 
z
M 687 1400 
Q 675 1100 787 875 
Q 900 650 1200 587 
Q 1500 525 1825 600 
Q 2150 675 2275 950 
Q 2400 1225 2362 1500 
Q 2325 1775 2050 1962 
Q 1775 2150 1450 2125 
Q 1125 2100 912 1900 
Q 700 1700 687 1400 
z
M 775 3350 
Q 775 3100 950 2875 
Q 1125 2650 1500 2650 
Q 1875 2650 2062 2875 
Q 2250 3100 2237 3412 
Q 2225 3725 2012 3875 
Q 1800 4025 1437 4000 
Q 1075 3975 925 3787 
Q 775 3600 775 3350 
z
" transform="scale(0.015625)"/>
       </defs>
       <use xlink:href="#SimHei-38"/>
       <use xlink:href="#SimHei-30" transform="translate(50 0)"/>
      </g>
     </g>
    </g>
    <g id="xtick_6">
     <g id="line2d_11">
      <path d="M 430.926087 204.490937 
L 430.926087 23.873438 
" clip-path="url(#p2d91b5e1f3)" style="fill: none; stroke: #b0b0b0; stroke-opacity: 0.25; stroke-width: 0.8; stroke-linecap: square"/>
     </g>
     <g id="line2d_12">
      <g>
       <use xlink:href="#m3082098497" x="430.926087" y="204.490937" style="stroke: #000000; stroke-width: 0.8"/>
      </g>
     </g>
     <g id="text_6">
      <!-- 100 -->
      <g transform="translate(422.676087 219.053437) scale(0.11 -0.11)">
       <defs>
        <path id="SimHei-31" d="M 1400 3600 
Q 1075 3275 575 2975 
L 575 3450 
Q 1200 3875 1600 4450 
L 1900 4450 
L 1900 150 
L 1400 150 
L 1400 3600 
z
" transform="scale(0.015625)"/>
       </defs>
       <use xlink:href="#SimHei-31"/>
       <use xlink:href="#SimHei-30" transform="translate(50 0)"/>
       <use xlink:href="#SimHei-30" transform="translate(100 0)"/>
      </g>
     </g>
    </g>
    <g id="text_7">
     <!-- 变量重要性（相对值，最大=100） -->
     <g transform="translate(187.68 233.494844) scale(0.11 -0.11)">
      <defs>
       <path id="SimHei-53d8" d="M 5200 1975 
Q 4950 1600 4537 1137 
Q 4125 675 3675 375 
Q 3925 225 4600 87 
Q 5275 -50 6000 -75 
Q 5700 -400 5650 -625 
Q 4850 -525 4212 -312 
Q 3575 -100 3225 125 
Q 2800 -125 2150 -325 
Q 1500 -525 700 -675 
Q 600 -425 400 -175 
Q 950 -150 1687 12 
Q 2425 175 2825 375 
Q 2275 775 1675 1575 
Q 1350 1575 1000 1550 
L 1000 2000 
Q 1450 1975 2075 1975 
L 5200 1975 
z
M 3225 5275 
Q 3400 4900 3550 4475 
L 4675 4475 
Q 5400 4475 5975 4500 
L 5975 4025 
Q 5375 4050 4725 4050 
L 4125 4050 
L 4125 2950 
Q 4125 2550 4150 2150 
L 3600 2150 
Q 3625 2550 3625 2950 
L 3625 4050 
L 2750 4050 
L 2750 2950 
Q 2750 2675 2775 2150 
L 2225 2150 
Q 2250 2675 2250 2950 
L 2250 4050 
L 1700 4050 
Q 975 4050 425 4025 
L 425 4500 
Q 950 4475 1700 4475 
L 2975 4475 
Q 2925 4675 2700 5125 
Q 2950 5150 3225 5275 
z
M 2200 1575 
Q 2650 975 3250 600 
Q 3850 1000 4275 1575 
L 2200 1575 
z
M 4850 3750 
Q 5375 3275 5950 2675 
Q 5750 2525 5500 2300 
Q 5075 2800 4450 3400 
Q 4675 3575 4850 3750 
z
M 1825 3500 
Q 1700 3375 1425 3025 
Q 1150 2675 825 2300 
Q 575 2475 375 2600 
Q 975 3150 1300 3825 
Q 1525 3650 1825 3500 
z
" transform="scale(0.015625)"/>
       <path id="SimHei-91cf" d="M 5250 2500 
Q 5225 2200 5225 1700 
Q 5225 1225 5250 950 
L 3425 950 
L 3425 625 
L 4575 625 
Q 5000 625 5375 650 
L 5375 275 
Q 5025 300 4575 300 
L 3425 300 
L 3425 -75 
L 5125 -75 
Q 5525 -75 5925 -50 
L 5925 -425 
Q 5525 -400 5125 -400 
L 1275 -400 
Q 900 -400 475 -425 
L 475 -50 
Q 925 -50 1275 -75 
L 2975 -75 
L 2975 300 
L 1725 300 
Q 1350 300 975 250 
L 975 650 
Q 1375 625 1725 625 
L 2975 625 
L 2975 950 
L 1150 950 
Q 1175 1375 1175 1775 
Q 1175 2175 1150 2500 
L 5250 2500 
z
M 5200 4950 
Q 5175 4575 5175 4250 
Q 5175 3925 5200 3400 
L 1200 3400 
Q 1225 3925 1225 4250 
Q 1225 4575 1200 4950 
L 5200 4950 
z
M 4900 3100 
Q 5500 3125 6000 3150 
L 6000 2750 
Q 5500 2775 4925 2775 
L 1650 2775 
Q 975 2775 325 2750 
L 325 3150 
Q 975 3125 1650 3100 
L 4900 3100 
z
M 4725 3700 
L 4725 4025 
L 1675 4025 
L 1675 3700 
L 4725 3700 
z
M 4725 4350 
L 4725 4650 
L 1675 4650 
L 1675 4350 
L 4725 4350 
z
M 4750 1875 
L 4750 2175 
L 3425 2175 
L 3425 1875 
L 4750 1875 
z
M 2975 1875 
L 2975 2175 
L 1650 2175 
L 1650 1875 
L 2975 1875 
z
M 2975 1275 
L 2975 1550 
L 1650 1550 
L 1650 1275 
L 2975 1275 
z
M 4750 1275 
L 4750 1550 
L 3425 1550 
L 3425 1275 
L 4750 1275 
z
" transform="scale(0.015625)"/>
       <path id="SimHei-91cd" d="M 5300 4575 
Q 3900 4450 3425 4400 
L 3425 3875 
L 5150 3875 
Q 5500 3875 6000 3900 
L 6000 3450 
Q 5500 3475 5150 3475 
L 3425 3475 
L 3425 3050 
L 5150 3050 
Q 5125 2675 5125 2125 
Q 5125 1575 5150 1175 
L 3425 1175 
L 3425 750 
L 4550 750 
Q 5000 750 5500 775 
L 5500 375 
Q 5025 400 4575 400 
L 3425 400 
L 3425 -50 
L 5050 -50 
Q 5475 -50 5975 -25 
L 5975 -450 
Q 5475 -425 5075 -425 
L 1475 -425 
Q 975 -425 450 -450 
L 450 -25 
Q 975 -50 1450 -50 
L 2925 -50 
L 2925 400 
L 2050 400 
Q 1450 400 950 375 
L 950 775 
Q 1600 750 2075 750 
L 2925 750 
L 2925 1175 
L 1250 1175 
Q 1275 1800 1275 2125 
Q 1275 2450 1250 3050 
L 2925 3050 
L 2925 3475 
L 1225 3475 
Q 875 3475 400 3450 
L 400 3900 
Q 875 3875 1225 3875 
L 2925 3875 
L 2925 4375 
Q 2425 4350 1075 4250 
Q 1000 4475 875 4675 
Q 2275 4700 3362 4812 
Q 4450 4925 4925 5075 
Q 5025 4825 5300 4575 
z
M 4650 2300 
L 4650 2650 
L 3425 2650 
L 3425 2300 
L 4650 2300 
z
M 2925 2300 
L 2925 2650 
L 1750 2650 
L 1750 2300 
L 2925 2300 
z
M 4625 1575 
L 4625 1900 
L 3425 1900 
L 3425 1575 
L 4625 1575 
z
M 2925 1575 
L 2925 1900 
L 1750 1900 
L 1750 1575 
L 2925 1575 
z
" transform="scale(0.015625)"/>
       <path id="SimHei-8981" d="M 5100 5000 
Q 5475 5000 5950 5025 
L 5950 4600 
Q 5475 4625 5100 4625 
L 4100 4625 
L 4100 3975 
L 5500 3975 
Q 5475 3550 5475 3175 
Q 5475 2800 5500 2400 
L 2850 2400 
Q 3125 2225 3275 2125 
Q 3050 1975 2950 1850 
L 5300 1850 
Q 5700 1850 6150 1900 
L 6150 1425 
Q 5700 1450 5275 1450 
L 4550 1450 
Q 4300 1025 3875 525 
Q 5000 225 6000 -125 
Q 5750 -300 5600 -550 
Q 4650 -125 3500 200 
Q 3150 -50 2612 -250 
Q 2075 -450 1587 -525 
Q 1100 -600 700 -650 
Q 625 -325 375 -125 
Q 850 -150 1375 -100 
Q 1900 -50 2325 87 
Q 2750 225 3000 375 
Q 2175 575 1375 725 
Q 1750 1100 2075 1450 
L 1025 1450 
Q 600 1450 200 1425 
L 200 1875 
Q 700 1850 1025 1850 
L 2350 1850 
Q 2600 2150 2750 2400 
L 900 2400 
Q 925 2800 925 3175 
Q 925 3550 900 3975 
L 2275 3975 
L 2275 4625 
L 1300 4625 
Q 875 4625 400 4600 
L 400 5025 
Q 875 5000 1275 5000 
L 5100 5000 
z
M 2225 975 
Q 2625 900 3400 675 
Q 3700 975 4025 1450 
L 2675 1450 
Q 2450 1225 2225 975 
z
M 3650 2775 
L 3650 3575 
L 2750 3575 
L 2750 2775 
L 3650 2775 
z
M 5000 2775 
L 5000 3575 
L 4100 3575 
L 4100 2775 
L 5000 2775 
z
M 2275 2775 
L 2275 3575 
L 1400 3575 
L 1400 2775 
L 2275 2775 
z
M 3650 3975 
L 3650 4625 
L 2750 4625 
L 2750 3975 
L 3650 3975 
z
" transform="scale(0.015625)"/>
       <path id="SimHei-6027" d="M 3450 4525 
Q 3325 4075 3275 3750 
L 4050 3750 
L 4050 4275 
Q 4050 4700 4025 5100 
L 4550 5100 
Q 4525 4700 4525 4275 
L 4525 3750 
L 5025 3750 
Q 5350 3750 5800 3775 
L 5800 3300 
Q 5350 3325 5025 3325 
L 4525 3325 
L 4525 2000 
L 4975 2000 
Q 5350 2000 5725 2025 
L 5725 1550 
Q 5350 1575 4975 1575 
L 4525 1575 
L 4525 25 
L 5200 25 
Q 5625 25 6025 50 
L 6025 -400 
Q 5625 -375 5200 -375 
L 3275 -375 
Q 2825 -375 2400 -400 
L 2400 50 
Q 2825 25 3250 25 
L 4050 25 
L 4050 1575 
L 3625 1575 
Q 3300 1575 2875 1550 
L 2875 2025 
Q 3200 2000 3625 2000 
L 4050 2000 
L 4050 3325 
L 3175 3325 
Q 3100 2950 2775 2225 
Q 2500 2375 2325 2400 
Q 2675 3125 2775 3650 
Q 2875 4175 2950 4650 
Q 3200 4575 3450 4525 
z
M 1700 5150 
Q 1675 4650 1675 4175 
L 1675 425 
Q 1675 -100 1700 -625 
L 1175 -625 
Q 1200 -100 1200 425 
L 1200 4175 
Q 1200 4700 1175 5150 
L 1700 5150 
z
M 975 3725 
Q 825 2675 700 2150 
Q 450 2200 250 2250 
Q 425 2900 525 3800 
Q 725 3775 975 3725 
z
M 2125 4025 
Q 2325 3625 2525 3000 
Q 2300 2925 2125 2825 
Q 1950 3375 1750 3850 
Q 1950 3950 2125 4025 
z
" transform="scale(0.015625)"/>
       <path id="SimHei-ff08" d="M 5425 5100 
L 5700 4775 
Q 4275 3725 4325 2350 
Q 4350 1025 5675 50 
L 5400 -275 
Q 3875 825 3925 2500 
Q 3925 3875 5425 5100 
z
" transform="scale(0.015625)"/>
       <path id="SimHei-76f8" d="M 5900 4825 
Q 5875 4225 5875 3575 
L 5875 750 
Q 5875 75 5900 -575 
L 5400 -575 
L 5400 -100 
L 3525 -100 
L 3525 -625 
L 3025 -625 
Q 3050 125 3050 675 
L 3050 3600 
Q 3050 4250 3025 4825 
L 5900 4825 
z
M 1400 3825 
Q 1400 4850 1375 5200 
L 1925 5200 
Q 1900 4825 1900 3825 
Q 2500 3825 2825 3850 
L 2825 3375 
Q 2525 3400 1900 3400 
L 1900 2450 
Q 2025 2575 2175 2750 
Q 2625 2275 2950 1825 
Q 2800 1725 2575 1500 
Q 2300 1975 1900 2375 
L 1900 475 
Q 1900 50 1925 -625 
L 1375 -625 
Q 1400 50 1400 450 
L 1400 2150 
Q 1075 1225 650 675 
Q 475 950 300 1100 
Q 475 1250 800 1887 
Q 1125 2525 1300 3400 
Q 750 3400 400 3375 
L 400 3850 
Q 850 3825 1400 3825 
z
M 5400 325 
L 5400 1475 
L 3525 1475 
L 3525 325 
L 5400 325 
z
M 5400 3300 
L 5400 4400 
L 3525 4400 
L 3525 3300 
L 5400 3300 
z
M 5400 1900 
L 5400 2900 
L 3525 2900 
L 3525 1900 
L 5400 1900 
z
" transform="scale(0.015625)"/>
       <path id="SimHei-5bf9" d="M 525 4250 
Q 900 4225 1400 4225 
L 2825 4225 
Q 2575 2625 2200 1750 
Q 2825 875 3125 400 
Q 2950 275 2725 75 
Q 2200 975 1950 1300 
Q 1650 775 1350 425 
Q 1050 75 600 -350 
Q 425 -125 200 -25 
Q 625 275 975 675 
Q 1325 1075 1650 1700 
Q 1050 2425 550 2900 
Q 700 3025 900 3225 
Q 1625 2425 1875 2150 
Q 2200 3050 2300 3825 
L 1400 3825 
Q 900 3825 525 3800 
L 525 4250 
z
M 2925 3700 
Q 3525 3675 3750 3675 
L 4825 3675 
L 4825 4425 
Q 4825 4750 4775 5125 
L 5350 5125 
Q 5325 4825 5325 4375 
L 5325 3675 
Q 5575 3675 6150 3700 
L 6150 3250 
Q 5575 3275 5325 3275 
L 5325 125 
Q 5350 -350 5012 -475 
Q 4675 -600 4250 -650 
Q 4175 -350 4025 -100 
Q 4575 -100 4712 -37 
Q 4850 25 4825 325 
L 4825 3275 
L 3775 3275 
Q 3550 3275 2925 3225 
L 2925 3700 
z
M 3450 2725 
Q 3875 1975 4175 1325 
Q 3850 1200 3700 1075 
Q 3475 1750 3050 2475 
Q 3225 2550 3450 2725 
z
" transform="scale(0.015625)"/>
       <path id="SimHei-503c" d="M 3675 4450 
L 3675 5100 
Q 3975 5075 4350 5050 
Q 4225 4875 4200 4450 
L 5125 4450 
Q 5550 4450 5875 4475 
L 5875 4025 
Q 5525 4050 5125 4050 
L 4175 4050 
L 4125 3500 
L 5400 3500 
Q 5375 3200 5375 2700 
L 5375 150 
Q 5875 150 6100 175 
L 6100 -275 
Q 5775 -250 5200 -250 
L 2850 -250 
Q 2275 -250 1900 -275 
L 1900 175 
Q 2125 150 2600 150 
L 2600 2700 
Q 2600 3175 2575 3500 
L 3600 3500 
L 3650 4050 
L 3200 4050 
Q 2575 4050 2225 4025 
L 2225 4475 
Q 2550 4450 3200 4450 
L 3675 4450 
z
M 2225 4900 
Q 2025 4675 1650 3750 
L 1650 450 
Q 1650 -75 1675 -550 
L 1150 -550 
Q 1175 -125 1175 375 
L 1175 2950 
Q 875 2450 625 2150 
Q 425 2425 250 2575 
Q 500 2825 937 3537 
Q 1375 4250 1625 5150 
Q 1975 4975 2225 4900 
z
M 4925 2650 
L 4925 3150 
L 3075 3150 
L 3075 2650 
L 4925 2650 
z
M 4925 150 
L 4925 625 
L 3075 625 
L 3075 150 
L 4925 150 
z
M 4925 1000 
L 4925 1450 
L 3075 1450 
L 3075 1000 
L 4925 1000 
z
M 4925 1825 
L 4925 2275 
L 3075 2275 
L 3075 1825 
L 4925 1825 
z
" transform="scale(0.015625)"/>
       <path id="SimHei-ff0c" d="M 875 950 
L 1775 950 
L 1775 -50 
Q 1700 -675 1150 -975 
L 900 -750 
Q 1350 -500 1350 0 
L 875 0 
L 875 950 
z
" transform="scale(0.015625)"/>
       <path id="SimHei-6700" d="M 475 275 
Q 675 300 1100 350 
L 1100 2450 
Q 775 2450 425 2425 
L 425 2850 
Q 775 2825 1125 2825 
L 5025 2825 
Q 5475 2825 5900 2850 
L 5900 2425 
Q 5475 2450 5025 2450 
L 3050 2450 
L 3050 675 
L 3400 775 
Q 3400 550 3425 400 
Q 3225 350 3050 325 
Q 3050 -125 3075 -550 
L 2600 -550 
Q 2625 -125 2625 250 
Q 2350 200 1812 87 
Q 1275 -25 650 -175 
Q 575 100 475 275 
z
M 5100 4925 
Q 5075 4600 5075 4325 
L 5075 3875 
Q 5075 3600 5100 3250 
L 1275 3250 
Q 1300 3600 1300 3875 
L 1300 4325 
Q 1300 4600 1275 4925 
L 5100 4925 
z
M 3300 2050 
Q 3750 2025 4125 2025 
L 5375 2025 
Q 5100 975 4725 400 
Q 5350 0 5925 -100 
Q 5700 -275 5650 -500 
Q 5025 -300 4475 150 
Q 4150 -200 3600 -575 
Q 3500 -425 3250 -275 
Q 3775 -100 4150 350 
Q 3725 775 3500 1675 
L 3300 1675 
L 3300 2050 
z
M 4600 4250 
L 4600 4600 
L 1750 4600 
L 1750 4250 
L 4600 4250 
z
M 4600 3575 
L 4600 3900 
L 1750 3900 
L 1750 3575 
L 4600 3575 
z
M 3900 1675 
Q 4000 1075 4400 625 
Q 4700 1050 4850 1675 
L 3900 1675 
z
M 2625 1250 
L 2625 1675 
L 1525 1675 
L 1525 1250 
L 2625 1250 
z
M 2625 575 
L 2625 925 
L 1525 925 
L 1525 425 
L 2625 575 
z
M 2625 2025 
L 2625 2450 
L 1525 2450 
L 1525 2025 
L 2625 2025 
z
" transform="scale(0.015625)"/>
       <path id="SimHei-5927" d="M 2900 3400 
Q 2925 4275 2912 4575 
Q 2900 4875 2875 5150 
Q 3175 5100 3550 5075 
Q 3475 4825 3437 4350 
Q 3400 3875 3400 3400 
L 4675 3400 
Q 5350 3400 5925 3450 
L 5925 2900 
Q 5425 2925 4900 2925 
L 3425 2925 
Q 3525 2500 3775 2062 
Q 4025 1625 4287 1287 
Q 4550 950 5012 575 
Q 5475 200 6025 -50 
Q 5825 -200 5625 -550 
Q 5175 -300 4737 75 
Q 4300 450 3862 1062 
Q 3425 1675 3200 2200 
Q 3000 1650 2775 1287 
Q 2550 925 2287 625 
Q 2025 325 1612 25 
Q 1200 -275 675 -575 
Q 475 -275 225 -50 
Q 750 125 1262 450 
Q 1775 775 2100 1187 
Q 2425 1600 2625 2050 
Q 2825 2500 2875 2925 
L 1500 2925 
Q 900 2925 550 2900 
L 550 3450 
Q 900 3425 1500 3400 
L 2900 3400 
z
" transform="scale(0.015625)"/>
       <path id="SimHei-3d" d="M 2975 2900 
L 125 2900 
L 125 3300 
L 2975 3300 
L 2975 2900 
z
M 2975 1375 
L 125 1375 
L 125 1775 
L 2975 1775 
L 2975 1375 
z
" transform="scale(0.015625)"/>
       <path id="SimHei-ff09" d="M 1000 5100 
Q 2500 3875 2500 2500 
Q 2550 825 1025 -275 
L 750 50 
Q 2075 1025 2100 2350 
Q 2150 3725 725 4775 
L 1000 5100 
z
" transform="scale(0.015625)"/>
      </defs>
      <use xlink:href="#SimHei-53d8"/>
      <use xlink:href="#SimHei-91cf" transform="translate(100 0)"/>
      <use xlink:href="#SimHei-91cd" transform="translate(200 0)"/>
      <use xlink:href="#SimHei-8981" transform="translate(300 0)"/>
      <use xlink:href="#SimHei-6027" transform="translate(400 0)"/>
      <use xlink:href="#SimHei-ff08" transform="translate(500 0)"/>
      <use xlink:href="#SimHei-76f8" transform="translate(600 0)"/>
      <use xlink:href="#SimHei-5bf9" transform="translate(700 0)"/>
      <use xlink:href="#SimHei-503c" transform="translate(800 0)"/>
      <use xlink:href="#SimHei-ff0c" transform="translate(900 0)"/>
      <use xlink:href="#SimHei-6700" transform="translate(1000 0)"/>
      <use xlink:href="#SimHei-5927" transform="translate(1100 0)"/>
      <use xlink:href="#SimHei-3d" transform="translate(1200 0)"/>
      <use xlink:href="#SimHei-31" transform="translate(1250 0)"/>
      <use xlink:href="#SimHei-30" transform="translate(1300 0)"/>
      <use xlink:href="#SimHei-30" transform="translate(1350 0)"/>
      <use xlink:href="#SimHei-ff09" transform="translate(1400 0)"/>
     </g>
    </g>
   </g>
   <g id="matplotlib.axis_2">
    <g id="ytick_1">
     <g id="line2d_13">
      <path d="M 52.7 179.861278 
L 487.66 179.861278 
" clip-path="url(#p2d91b5e1f3)" style="fill: none; stroke: #b0b0b0; stroke-opacity: 0.25; stroke-width: 0.8; stroke-linecap: square"/>
     </g>
     <g id="line2d_14">
      <defs>
       <path id="m150fed5478" d="M 0 0 
L -3.5 0 
" style="stroke: #000000; stroke-width: 0.8"/>
      </defs>
      <g>
       <use xlink:href="#m150fed5478" x="52.7" y="179.861278" style="stroke: #000000; stroke-width: 0.8"/>
      </g>
     </g>
     <g id="text_8">
      <!-- student -->
      <g transform="translate(7.2 183.642528) scale(0.11 -0.11)">
       <defs>
        <path id="SimHei-73" d="M 2750 900 
Q 2750 500 2437 287 
Q 2125 75 1650 75 
Q 1050 75 725 312 
Q 400 550 400 1000 
L 900 1000 
Q 900 700 1112 600 
Q 1325 500 1625 500 
Q 1925 500 2075 612 
Q 2225 725 2225 900 
Q 2225 1025 2100 1150 
Q 1975 1275 1475 1350 
Q 900 1425 687 1637 
Q 475 1850 475 2200 
Q 475 2500 762 2737 
Q 1050 2975 1600 2975 
Q 2100 2975 2387 2750 
Q 2675 2525 2675 2150 
L 2175 2150 
Q 2175 2375 2012 2462 
Q 1850 2550 1600 2550 
Q 1275 2550 1137 2437 
Q 1000 2325 1000 2175 
Q 1000 2000 1125 1900 
Q 1250 1800 1650 1750 
Q 2300 1650 2525 1437 
Q 2750 1225 2750 900 
z
" transform="scale(0.015625)"/>
        <path id="SimHei-74" d="M 2750 200 
Q 2625 150 2462 112 
Q 2300 75 2025 75 
Q 1575 75 1300 325 
Q 1025 575 1025 1025 
L 1025 2525 
L 175 2525 
L 175 2925 
L 1025 2925 
L 1025 3900 
L 1525 3900 
L 1525 2925 
L 2550 2925 
L 2550 2525 
L 1525 2525 
L 1525 1000 
Q 1525 800 1625 662 
Q 1725 525 2000 525 
Q 2275 525 2450 575 
Q 2625 625 2750 700 
L 2750 200 
z
" transform="scale(0.015625)"/>
        <path id="SimHei-75" d="M 2800 125 
L 2300 125 
L 2300 650 
Q 2100 375 1862 225 
Q 1625 75 1250 75 
Q 800 75 575 325 
Q 350 575 350 950 
L 350 2925 
L 850 2925 
L 850 1125 
Q 850 825 1000 650 
Q 1150 475 1400 475 
Q 1725 475 2012 812 
Q 2300 1150 2300 1650 
L 2300 2925 
L 2800 2925 
L 2800 125 
z
" transform="scale(0.015625)"/>
        <path id="SimHei-64" d="M 2750 125 
L 2250 125 
L 2250 500 
Q 2100 275 1900 175 
Q 1700 75 1425 75 
Q 925 75 575 437 
Q 225 800 225 1525 
Q 225 2250 575 2625 
Q 925 3000 1425 3000 
Q 1700 3000 1900 2887 
Q 2100 2775 2250 2550 
L 2250 4400 
L 2750 4400 
L 2750 125 
z
M 2250 1525 
Q 2250 2000 2037 2275 
Q 1825 2550 1525 2550 
Q 1150 2550 962 2275 
Q 775 2000 775 1525 
Q 775 1050 962 787 
Q 1150 525 1525 525 
Q 1825 525 2037 787 
Q 2250 1050 2250 1525 
z
" transform="scale(0.015625)"/>
        <path id="SimHei-65" d="M 2850 1075 
Q 2800 625 2450 350 
Q 2100 75 1625 75 
Q 1025 75 637 462 
Q 250 850 250 1525 
Q 250 2200 637 2587 
Q 1025 2975 1625 2975 
Q 2150 2975 2487 2637 
Q 2825 2300 2825 1525 
L 800 1525 
Q 800 975 1037 750 
Q 1275 525 1625 525 
Q 1900 525 2075 662 
Q 2250 800 2300 1075 
L 2850 1075 
z
M 2250 1925 
Q 2200 2275 2025 2412 
Q 1850 2550 1575 2550 
Q 1325 2550 1125 2412 
Q 925 2275 825 1925 
L 2250 1925 
z
" transform="scale(0.015625)"/>
        <path id="SimHei-6e" d="M 2800 125 
L 2300 125 
L 2300 1925 
Q 2300 2225 2150 2400 
Q 2000 2575 1750 2575 
Q 1425 2575 1137 2237 
Q 850 1900 850 1400 
L 850 125 
L 350 125 
L 350 2925 
L 850 2925 
L 850 2400 
Q 1050 2675 1287 2825 
Q 1525 2975 1900 2975 
Q 2350 2975 2575 2725 
Q 2800 2475 2800 2100 
L 2800 125 
z
" transform="scale(0.015625)"/>
       </defs>
       <use xlink:href="#SimHei-73"/>
       <use xlink:href="#SimHei-74" transform="translate(50 0)"/>
       <use xlink:href="#SimHei-75" transform="translate(100 0)"/>
       <use xlink:href="#SimHei-64" transform="translate(150 0)"/>
       <use xlink:href="#SimHei-65" transform="translate(200 0)"/>
       <use xlink:href="#SimHei-6e" transform="translate(250 0)"/>
       <use xlink:href="#SimHei-74" transform="translate(300 0)"/>
      </g>
     </g>
    </g>
    <g id="ytick_2">
     <g id="line2d_15">
      <path d="M 52.7 114.182187 
L 487.66 114.182187 
" clip-path="url(#p2d91b5e1f3)" style="fill: none; stroke: #b0b0b0; stroke-opacity: 0.25; stroke-width: 0.8; stroke-linecap: square"/>
     </g>
     <g id="line2d_16">
      <g>
       <use xlink:href="#m150fed5478" x="52.7" y="114.182187" style="stroke: #000000; stroke-width: 0.8"/>
      </g>
     </g>
     <g id="text_9">
      <!-- income -->
      <g transform="translate(12.7 117.963437) scale(0.11 -0.11)">
       <defs>
        <path id="SimHei-69" d="M 1800 3725 
L 1300 3725 
L 1300 4375 
L 1800 4375 
L 1800 3725 
z
M 1800 125 
L 1300 125 
L 1300 2925 
L 1800 2925 
L 1800 125 
z
" transform="scale(0.015625)"/>
        <path id="SimHei-63" d="M 2850 1250 
Q 2850 725 2487 400 
Q 2125 75 1575 75 
Q 1025 75 625 462 
Q 225 850 225 1525 
Q 225 2200 625 2587 
Q 1025 2975 1575 2975 
Q 2125 2975 2450 2687 
Q 2775 2400 2775 2000 
L 2225 2000 
Q 2200 2300 2012 2412 
Q 1825 2525 1575 2525 
Q 1275 2525 1025 2287 
Q 775 2050 775 1525 
Q 775 1000 1025 762 
Q 1275 525 1575 525 
Q 1900 525 2100 700 
Q 2300 875 2300 1250 
L 2850 1250 
z
" transform="scale(0.015625)"/>
        <path id="SimHei-6f" d="M 2925 1525 
Q 2925 875 2525 475 
Q 2125 75 1575 75 
Q 1025 75 625 475 
Q 225 875 225 1525 
Q 225 2175 625 2575 
Q 1025 2975 1575 2975 
Q 2125 2975 2525 2575 
Q 2925 2175 2925 1525 
z
M 2375 1525 
Q 2375 2025 2125 2275 
Q 1875 2525 1575 2525 
Q 1275 2525 1025 2275 
Q 775 2025 775 1525 
Q 775 1025 1025 775 
Q 1275 525 1575 525 
Q 1875 525 2125 775 
Q 2375 1025 2375 1525 
z
" transform="scale(0.015625)"/>
        <path id="SimHei-6d" d="M 3050 125 
L 2550 125 
L 2550 2150 
Q 2550 2300 2500 2400 
Q 2450 2500 2300 2500 
Q 2125 2500 1975 2312 
Q 1825 2125 1825 1825 
L 1825 125 
L 1325 125 
L 1325 2150 
Q 1325 2300 1275 2400 
Q 1225 2500 1075 2500 
Q 900 2500 750 2312 
Q 600 2125 600 1825 
L 600 125 
L 100 125 
L 100 2925 
L 600 2925 
L 600 2550 
Q 725 2750 900 2862 
Q 1075 2975 1275 2975 
Q 1475 2975 1612 2862 
Q 1750 2750 1800 2550 
Q 1925 2750 2087 2862 
Q 2250 2975 2450 2975 
Q 2750 2975 2900 2812 
Q 3050 2650 3050 2350 
L 3050 125 
z
" transform="scale(0.015625)"/>
       </defs>
       <use xlink:href="#SimHei-69"/>
       <use xlink:href="#SimHei-6e" transform="translate(50 0)"/>
       <use xlink:href="#SimHei-63" transform="translate(100 0)"/>
       <use xlink:href="#SimHei-6f" transform="translate(150 0)"/>
       <use xlink:href="#SimHei-6d" transform="translate(200 0)"/>
       <use xlink:href="#SimHei-65" transform="translate(250 0)"/>
      </g>
     </g>
    </g>
    <g id="ytick_3">
     <g id="line2d_17">
      <path d="M 52.7 48.503097 
L 487.66 48.503097 
" clip-path="url(#p2d91b5e1f3)" style="fill: none; stroke: #b0b0b0; stroke-opacity: 0.25; stroke-width: 0.8; stroke-linecap: square"/>
     </g>
     <g id="line2d_18">
      <g>
       <use xlink:href="#m150fed5478" x="52.7" y="48.503097" style="stroke: #000000; stroke-width: 0.8"/>
      </g>
     </g>
     <g id="text_10">
      <!-- balance -->
      <g transform="translate(7.2 52.284347) scale(0.11 -0.11)">
       <defs>
        <path id="SimHei-62" d="M 2825 1525 
Q 2825 800 2475 437 
Q 2125 75 1625 75 
Q 1350 75 1150 175 
Q 950 275 800 500 
L 800 125 
L 300 125 
L 300 4400 
L 800 4400 
L 800 2550 
Q 950 2775 1150 2887 
Q 1350 3000 1625 3000 
Q 2125 3000 2475 2625 
Q 2825 2250 2825 1525 
z
M 2275 1525 
Q 2275 2000 2087 2275 
Q 1900 2550 1525 2550 
Q 1225 2550 1012 2275 
Q 800 2000 800 1525 
Q 800 1050 1012 787 
Q 1225 525 1525 525 
Q 1900 525 2087 787 
Q 2275 1050 2275 1525 
z
" transform="scale(0.015625)"/>
        <path id="SimHei-61" d="M 2875 125 
L 2275 125 
Q 2225 175 2200 262 
Q 2175 350 2175 475 
Q 2000 275 1750 175 
Q 1500 75 1225 75 
Q 825 75 550 275 
Q 275 475 275 850 
Q 275 1225 525 1450 
Q 775 1675 1300 1750 
Q 1650 1800 1912 1875 
Q 2175 1950 2175 2075 
Q 2175 2225 2062 2375 
Q 1950 2525 1575 2525 
Q 1275 2525 1137 2412 
Q 1000 2300 950 2100 
L 400 2100 
Q 450 2500 762 2737 
Q 1075 2975 1575 2975 
Q 2125 2975 2400 2725 
Q 2675 2475 2675 2025 
L 2675 650 
Q 2675 500 2725 375 
Q 2775 250 2875 125 
z
M 2175 1050 
L 2175 1550 
Q 2025 1500 1887 1462 
Q 1750 1425 1425 1375 
Q 1050 1325 937 1200 
Q 825 1075 825 900 
Q 825 750 937 637 
Q 1050 525 1275 525 
Q 1500 525 1762 650 
Q 2025 775 2175 1050 
z
" transform="scale(0.015625)"/>
        <path id="SimHei-6c" d="M 1825 125 
L 1325 125 
L 1325 4400 
L 1825 4400 
L 1825 125 
z
" transform="scale(0.015625)"/>
       </defs>
       <use xlink:href="#SimHei-62"/>
       <use xlink:href="#SimHei-61" transform="translate(50 0)"/>
       <use xlink:href="#SimHei-6c" transform="translate(100 0)"/>
       <use xlink:href="#SimHei-61" transform="translate(150 0)"/>
       <use xlink:href="#SimHei-6e" transform="translate(200 0)"/>
       <use xlink:href="#SimHei-63" transform="translate(250 0)"/>
       <use xlink:href="#SimHei-65" transform="translate(300 0)"/>
      </g>
     </g>
    </g>
   </g>
   <g id="patch_6">
    <path d="M 52.7 204.490937 
L 52.7 23.873437 
" style="fill: none; stroke: #000000; stroke-width: 0.8; stroke-linejoin: miter; stroke-linecap: square"/>
   </g>
   <g id="patch_7">
    <path d="M 52.7 204.490937 
L 487.66 204.490937 
" style="fill: none; stroke: #000000; stroke-width: 0.8; stroke-linejoin: miter; stroke-linecap: square"/>
   </g>
   <g id="text_11">
    <!-- 0.9 -->
    <g transform="translate(59.807791 182.955028) scale(0.11 -0.11)">
     <defs>
      <path id="SimHei-2e" d="M 1075 125 
L 500 125 
L 500 675 
L 1075 675 
L 1075 125 
z
" transform="scale(0.015625)"/>
      <path id="SimHei-39" d="M 800 75 
Q 1350 1000 1700 1750 
Q 1075 1650 662 1912 
Q 250 2175 162 2625 
Q 75 3075 175 3437 
Q 275 3800 487 4037 
Q 700 4275 1000 4375 
Q 1300 4475 1537 4475 
Q 1775 4475 2025 4375 
Q 2275 4275 2475 4075 
Q 2675 3875 2750 3662 
Q 2825 3450 2825 3112 
Q 2825 2775 2575 2250 
Q 2325 1725 1350 75 
L 800 75 
z
M 662 2875 
Q 700 2550 937 2337 
Q 1175 2125 1450 2150 
Q 1725 2175 1887 2300 
Q 2050 2425 2200 2725 
Q 2300 3100 2250 3362 
Q 2200 3625 1987 3800 
Q 1775 3975 1525 3975 
Q 1375 4000 1137 3900 
Q 900 3800 762 3500 
Q 625 3200 662 2875 
z
" transform="scale(0.015625)"/>
     </defs>
     <use xlink:href="#SimHei-30"/>
     <use xlink:href="#SimHei-2e" transform="translate(50 0)"/>
     <use xlink:href="#SimHei-39" transform="translate(100 0)"/>
    </g>
   </g>
   <g id="text_12">
    <!-- 52.1 -->
    <g transform="translate(253.539616 117.275937) scale(0.11 -0.11)">
     <defs>
      <path id="SimHei-35" d="M 550 1325 
Q 725 650 1150 575 
Q 1575 500 1837 662 
Q 2100 825 2212 1087 
Q 2325 1350 2312 1675 
Q 2300 2000 2137 2225 
Q 1975 2450 1725 2525 
Q 1475 2600 1162 2525 
Q 850 2450 650 2175 
L 225 2225 
Q 275 2375 700 4375 
L 2675 4375 
L 2675 3925 
L 1075 3925 
Q 950 3250 825 2850 
Q 1200 3025 1525 3012 
Q 1850 3000 2150 2862 
Q 2450 2725 2587 2487 
Q 2725 2250 2787 2012 
Q 2850 1775 2837 1500 
Q 2825 1225 2725 937 
Q 2625 650 2425 462 
Q 2225 275 1937 162 
Q 1650 50 1275 75 
Q 900 100 562 350 
Q 225 600 100 1200 
L 550 1325 
z
" transform="scale(0.015625)"/>
     </defs>
     <use xlink:href="#SimHei-35"/>
     <use xlink:href="#SimHei-32" transform="translate(50 0)"/>
     <use xlink:href="#SimHei-2e" transform="translate(100 0)"/>
     <use xlink:href="#SimHei-31" transform="translate(150 0)"/>
    </g>
   </g>
   <g id="text_13">
    <!-- 100.0 -->
    <g transform="translate(434.708348 51.596847) scale(0.11 -0.11)">
     <use xlink:href="#SimHei-31"/>
     <use xlink:href="#SimHei-30" transform="translate(50 0)"/>
     <use xlink:href="#SimHei-30" transform="translate(100 0)"/>
     <use xlink:href="#SimHei-2e" transform="translate(150 0)"/>
     <use xlink:href="#SimHei-30" transform="translate(200 0)"/>
    </g>
   </g>
   <g id="text_14">
    <!-- 图 11  随机森林变量重要性（基于 Gini 指数平均下降量） -->
    <g transform="translate(95.28 17.873438) scale(0.132 -0.132)">
     <defs>
      <path id="SimHei-56fe" d="M 5800 4975 
Q 5775 4350 5775 3600 
L 5775 925 
Q 5775 150 5800 -600 
L 5300 -600 
L 5300 -275 
L 1125 -275 
L 1125 -650 
L 625 -650 
Q 650 125 650 950 
L 650 3600 
Q 650 4325 625 4975 
L 5800 4975 
z
M 5300 150 
L 5300 4575 
L 1125 4575 
L 1125 150 
L 5300 150 
z
M 3225 4250 
Q 3075 4100 2950 3925 
L 4625 3925 
Q 4525 3700 4300 3375 
Q 4075 3050 3600 2600 
Q 4350 2225 5075 2150 
Q 4900 1925 4775 1675 
Q 3850 1950 3225 2350 
Q 2500 1875 1675 1650 
Q 1600 1875 1400 2075 
Q 2200 2200 2875 2600 
Q 2525 2925 2375 3150 
Q 2150 2900 1900 2650 
Q 1725 2850 1525 2950 
Q 1950 3300 2250 3737 
Q 2550 4175 2675 4475 
Q 2925 4350 3225 4250 
z
M 2450 1275 
Q 3550 950 4100 725 
Q 3975 525 3850 300 
Q 2825 725 2275 850 
Q 2375 1050 2450 1275 
z
M 2925 2050 
Q 3775 1700 4075 1600 
Q 3950 1400 3850 1150 
Q 3000 1550 2700 1650 
Q 2825 1825 2925 2050 
z
M 2625 3450 
Q 3000 3025 3275 2850 
Q 3600 3100 3875 3525 
L 2675 3525 
L 2625 3450 
z
" transform="scale(0.015625)"/>
      <path id="SimHei-20" transform="scale(0.015625)"/>
      <path id="SimHei-968f" d="M 4050 4425 
Q 4325 5025 4350 5300 
Q 4675 5150 4950 5075 
Q 4825 4925 4525 4400 
L 5350 4400 
Q 5725 4400 6075 4425 
L 6075 4000 
Q 5775 4025 5350 4025 
L 4400 4025 
Q 4200 3675 3975 3350 
L 5800 3350 
Q 5775 3000 5775 2525 
L 5775 850 
Q 5775 600 5612 525 
Q 5450 450 5050 375 
Q 5025 600 4900 850 
Q 5350 775 5300 1250 
L 4175 1250 
L 4175 425 
L 3700 425 
Q 3725 775 3725 1200 
L 3725 3000 
L 3550 2725 
Q 3350 2900 3125 3000 
Q 3525 3350 3875 4025 
Q 3675 4025 3325 4000 
L 3325 4450 
Q 3675 4425 4050 4425 
z
M 2225 4900 
Q 2125 4725 1575 2925 
Q 1875 2525 2037 2150 
Q 2200 1775 2187 1462 
Q 2175 1150 1900 937 
Q 1625 725 1325 650 
Q 1275 875 1075 1200 
Q 1500 1200 1612 1350 
Q 1725 1500 1625 1900 
Q 1525 2300 1075 2875 
Q 1475 4025 1575 4550 
L 875 4550 
L 875 -625 
L 400 -625 
Q 425 0 425 675 
L 425 3800 
Q 425 4425 400 4900 
L 2225 4900 
z
M 3100 2825 
Q 3075 2475 3075 2050 
L 3075 525 
Q 3125 300 3750 175 
Q 4375 50 4787 37 
Q 5200 25 5500 37 
Q 5800 50 6175 125 
Q 6025 -150 6025 -425 
Q 5350 -425 4837 -387 
Q 4325 -350 3912 -262 
Q 3500 -175 3200 -25 
Q 2900 125 2737 -12 
Q 2575 -150 2300 -475 
Q 2150 -275 1950 -125 
Q 2275 175 2625 400 
L 2625 2425 
L 2175 2425 
L 2175 2850 
Q 2425 2825 3100 2825 
z
M 5300 1600 
L 5300 2125 
L 4175 2125 
L 4175 1600 
L 5300 1600 
z
M 5300 2475 
L 5300 3000 
L 4175 3000 
L 4175 2475 
L 5300 2475 
z
M 2750 4575 
Q 2975 4000 3125 3425 
Q 2875 3400 2625 3275 
Q 2500 3900 2275 4425 
Q 2525 4475 2750 4575 
z
" transform="scale(0.015625)"/>
      <path id="SimHei-673a" d="M 5100 4775 
Q 5075 4075 5075 3575 
L 5075 325 
Q 5075 0 5225 -25 
Q 5375 -50 5475 -37 
Q 5575 -25 5612 137 
Q 5650 300 5650 625 
Q 5875 500 6175 425 
Q 6075 -100 5975 -275 
Q 5875 -450 5650 -450 
L 5125 -450 
Q 4825 -450 4687 -312 
Q 4550 -175 4575 250 
L 4575 4350 
L 3625 4350 
Q 3625 2925 3587 2137 
Q 3550 1350 3362 712 
Q 3175 75 2625 -575 
Q 2500 -425 2175 -175 
Q 2525 100 2737 500 
Q 2950 900 3025 1325 
Q 3100 1750 3125 2225 
Q 3150 2700 3150 3425 
Q 3150 4175 3125 4775 
L 5100 4775 
z
M 2150 2725 
Q 2550 2175 2750 1875 
Q 2575 1725 2325 1550 
Q 2175 1875 1800 2425 
L 1800 600 
Q 1800 100 1825 -525 
L 1275 -525 
Q 1300 100 1300 600 
L 1300 2200 
Q 1175 1825 1025 1487 
Q 875 1150 600 725 
Q 375 975 200 1125 
Q 400 1350 725 2000 
Q 1050 2650 1225 3450 
L 1075 3450 
Q 725 3450 375 3400 
L 375 3875 
Q 725 3850 1050 3850 
L 1300 3850 
L 1300 4350 
Q 1300 4750 1275 5100 
L 1850 5100 
Q 1800 4850 1800 4350 
L 1800 3850 
L 2075 3850 
Q 2350 3850 2700 3875 
L 2700 3425 
Q 2150 3450 1800 3450 
L 1800 2450 
Q 1950 2575 2150 2725 
z
" transform="scale(0.015625)"/>
      <path id="SimHei-68ee" d="M 2950 4475 
Q 2950 4875 2925 5100 
L 3425 5100 
Q 3400 4850 3400 4475 
L 4850 4475 
Q 5225 4475 5625 4500 
L 5625 4050 
Q 5225 4075 4875 4075 
L 4000 4075 
Q 4225 3675 4750 3437 
Q 5275 3200 5875 3175 
Q 5650 2925 5575 2700 
Q 4675 2875 4162 3275 
Q 3650 3675 3500 4075 
L 3400 4075 
Q 3400 2950 3425 2500 
L 2925 2500 
Q 2950 2875 2950 4075 
L 2925 4075 
Q 2600 3600 2150 3250 
Q 1700 2900 925 2550 
Q 850 2775 575 2975 
Q 1075 3100 1562 3375 
Q 2050 3650 2375 4075 
Q 1150 4075 800 4050 
L 800 4500 
Q 1200 4475 1725 4475 
L 2950 4475 
z
M 4100 2075 
Q 4100 2325 4075 2625 
L 4550 2625 
Q 4525 2350 4525 2075 
Q 5500 2075 5925 2100 
L 5925 1675 
Q 5475 1700 4850 1700 
Q 5000 1300 5337 887 
Q 5675 475 6125 250 
Q 5875 75 5725 -125 
Q 5475 75 5150 425 
Q 4825 775 4525 1400 
L 4525 425 
Q 4525 0 4550 -500 
L 4075 -500 
Q 4100 -75 4100 400 
L 4100 1300 
Q 3900 775 3625 387 
Q 3350 0 3100 -275 
Q 2900 -75 2600 25 
Q 3125 400 3387 837 
Q 3650 1275 3775 1700 
Q 3550 1700 3200 1675 
L 3200 2100 
Q 3525 2075 4100 2075 
z
M 1700 2075 
Q 1700 2325 1675 2600 
L 2150 2600 
Q 2125 2300 2125 2075 
Q 2525 2075 2875 2100 
L 2875 1675 
Q 2500 1700 2125 1700 
L 2125 400 
Q 2125 -25 2150 -525 
L 1675 -525 
Q 1700 -125 1700 400 
L 1700 1250 
Q 1450 775 1237 487 
Q 1025 200 750 -100 
Q 650 125 325 225 
Q 675 500 950 875 
Q 1225 1250 1400 1700 
Q 850 1700 425 1675 
L 425 2100 
Q 850 2075 1700 2075 
z
M 2525 1450 
Q 2850 1175 3125 900 
Q 2925 750 2750 600 
Q 2600 800 2200 1175 
Q 2375 1275 2525 1450 
z
" transform="scale(0.015625)"/>
      <path id="SimHei-6797" d="M 2925 3850 
Q 3200 3825 3500 3825 
L 3950 3825 
L 3950 4575 
Q 3950 4925 3900 5200 
L 4475 5200 
Q 4450 5050 4450 4550 
L 4450 3825 
L 5200 3825 
Q 5575 3825 5925 3875 
L 5925 3400 
Q 5600 3425 5250 3425 
L 4525 3425 
Q 4700 2850 4925 2475 
Q 5150 2100 5387 1825 
Q 5625 1550 5850 1400 
Q 6075 1250 6200 1175 
Q 6075 1025 5975 912 
Q 5875 800 5775 650 
Q 5125 1250 4825 1750 
Q 4525 2225 4450 2525 
L 4450 325 
Q 4450 -50 4475 -500 
L 3925 -500 
Q 3950 50 3950 325 
L 3950 2525 
Q 3600 1700 3300 1200 
Q 3000 700 2775 475 
Q 2550 650 2275 825 
Q 2600 1125 2862 1500 
Q 3125 1875 3350 2287 
Q 3575 2700 3825 3425 
L 3525 3425 
Q 3225 3425 2925 3400 
L 2925 3850 
z
M 1250 4450 
Q 1250 4825 1225 5175 
L 1800 5175 
Q 1775 4875 1775 4450 
L 1775 3825 
Q 2150 3825 2600 3850 
L 2600 3400 
Q 2150 3425 1775 3425 
L 1775 2575 
Q 1950 2700 2175 2800 
Q 2325 2575 2675 1950 
Q 2475 1850 2200 1675 
Q 2075 2000 1775 2500 
L 1775 550 
Q 1775 25 1800 -500 
L 1225 -500 
Q 1250 50 1250 550 
L 1250 2250 
Q 1025 1575 600 875 
Q 525 1000 250 1425 
Q 500 1725 737 2162 
Q 975 2600 1200 3425 
Q 775 3425 375 3400 
L 375 3850 
Q 875 3825 1250 3825 
L 1250 4450 
z
" transform="scale(0.015625)"/>
      <path id="SimHei-57fa" d="M 1800 4550 
Q 1800 4900 1775 5200 
L 2300 5200 
Q 2275 4875 2275 4550 
L 4075 4550 
Q 4075 4900 4050 5200 
L 4575 5200 
Q 4550 4875 4550 4550 
L 4925 4550 
Q 5200 4550 5625 4575 
L 5625 4175 
Q 5200 4200 4925 4200 
L 4550 4200 
L 4550 2225 
L 5100 2225 
Q 5600 2225 6025 2250 
L 6025 1800 
Q 5625 1850 5125 1850 
L 4500 1850 
Q 4875 1450 5225 1237 
Q 5575 1025 6125 900 
Q 5900 625 5850 350 
Q 5200 650 4737 1037 
Q 4275 1425 4000 1850 
L 2500 1850 
Q 2200 1375 1712 1000 
Q 1225 625 550 350 
Q 475 575 275 825 
Q 700 925 1212 1212 
Q 1725 1500 1950 1850 
L 1300 1850 
Q 850 1850 400 1800 
L 400 2250 
Q 850 2225 1300 2225 
L 1800 2225 
L 1800 4200 
Q 1200 4200 775 4175 
L 775 4575 
Q 1200 4550 1625 4550 
L 1800 4550 
z
M 2950 950 
Q 2950 1200 2925 1575 
L 3475 1575 
Q 3425 1300 3425 950 
L 3900 950 
Q 4250 950 4575 975 
L 4575 500 
Q 4250 550 3875 550 
L 3425 550 
L 3425 -100 
L 4500 -100 
Q 5075 -100 5550 -75 
L 5550 -525 
Q 5075 -500 4500 -500 
L 1800 -500 
Q 1300 -500 850 -525 
L 850 -75 
Q 1275 -100 1800 -100 
L 2950 -100 
L 2950 550 
L 2550 550 
Q 2125 550 1775 525 
L 1775 975 
Q 2125 950 2500 950 
L 2950 950 
z
M 4075 2225 
L 4075 2650 
L 2275 2650 
L 2275 2225 
L 4075 2225 
z
M 4075 3775 
L 4075 4200 
L 2275 4200 
L 2275 3775 
L 4075 3775 
z
M 4075 3025 
L 4075 3375 
L 2275 3375 
L 2275 3025 
L 4075 3025 
z
" transform="scale(0.015625)"/>
      <path id="SimHei-4e8e" d="M 2900 2425 
L 1150 2425 
Q 650 2425 275 2400 
L 275 2900 
Q 650 2875 1150 2875 
L 2900 2875 
L 2900 4450 
L 1675 4450 
Q 1225 4450 900 4425 
L 900 4925 
Q 1225 4900 1675 4900 
L 4525 4900 
Q 4950 4900 5375 4925 
L 5375 4425 
Q 4950 4450 4525 4450 
L 3425 4450 
L 3425 2875 
L 5050 2875 
Q 5600 2875 6050 2900 
L 6050 2400 
Q 5650 2425 5050 2425 
L 3425 2425 
L 3425 125 
Q 3425 -325 3125 -412 
Q 2825 -500 2250 -525 
Q 2225 -200 2050 150 
Q 2450 100 2675 112 
Q 2900 125 2900 325 
L 2900 2425 
z
" transform="scale(0.015625)"/>
      <path id="SimHei-47" d="M 2850 75 
L 2425 75 
L 2350 425 
Q 2250 275 2037 175 
Q 1825 75 1575 75 
Q 1050 75 637 562 
Q 225 1050 225 2125 
Q 225 3300 600 3875 
Q 975 4450 1625 4450 
Q 2200 4450 2525 4025 
Q 2850 3600 2850 2925 
L 2300 2925 
Q 2300 3450 2125 3712 
Q 1950 3975 1625 3975 
Q 1225 3975 1025 3562 
Q 825 3150 825 2175 
Q 825 1250 1075 900 
Q 1325 550 1650 550 
Q 1975 550 2162 787 
Q 2350 1025 2350 1525 
L 2350 1800 
L 1575 1800 
L 1575 2275 
L 2850 2275 
L 2850 75 
z
" transform="scale(0.015625)"/>
      <path id="SimHei-6307" d="M 5625 2225 
Q 5600 1925 5600 1350 
L 5600 300 
Q 5600 -225 5625 -525 
L 5125 -525 
L 5125 -125 
L 3300 -125 
L 3300 -625 
L 2800 -625 
Q 2825 -300 2825 300 
L 2825 1350 
Q 2825 1925 2800 2225 
L 5625 2225 
z
M 500 25 
Q 1075 -25 1175 37 
Q 1275 100 1275 275 
L 1275 1675 
Q 1050 1600 925 1537 
Q 800 1475 475 1275 
Q 400 1525 225 1800 
Q 625 1900 825 1975 
Q 1025 2050 1275 2125 
L 1275 3300 
L 1100 3300 
Q 775 3300 450 3275 
L 450 3725 
Q 750 3700 1100 3700 
L 1275 3700 
L 1275 4450 
Q 1275 4800 1250 5125 
L 1775 5125 
Q 1750 4850 1750 4450 
L 1750 3700 
Q 2075 3700 2425 3725 
L 2425 3275 
Q 2050 3300 1750 3300 
L 1750 2325 
Q 1850 2350 2025 2425 
L 2375 2575 
Q 2350 2300 2375 2100 
Q 2225 2050 2062 1987 
Q 1900 1925 1750 1850 
L 1750 100 
Q 1725 -200 1575 -337 
Q 1425 -475 675 -525 
Q 625 -250 500 25 
z
M 3325 5025 
Q 3300 4675 3300 4125 
Q 4125 4275 4512 4412 
Q 4900 4550 5225 4725 
Q 5325 4475 5575 4250 
Q 5450 4225 5237 4175 
Q 5025 4125 4725 4050 
Q 4425 3975 4037 3887 
Q 3650 3800 3300 3725 
L 3300 3175 
Q 3275 2925 3700 2925 
L 4925 2925 
Q 5300 2925 5387 3087 
Q 5475 3250 5550 3600 
Q 5750 3400 6050 3300 
Q 5825 2725 5700 2637 
Q 5575 2550 5275 2525 
L 3350 2525 
Q 3050 2525 2937 2687 
Q 2825 2850 2825 2975 
L 2825 4125 
Q 2825 4775 2800 5025 
L 3325 5025 
z
M 5125 275 
L 5125 875 
L 3300 875 
L 3300 275 
L 5125 275 
z
M 5125 1250 
L 5125 1825 
L 3300 1825 
L 3300 1250 
L 5125 1250 
z
" transform="scale(0.015625)"/>
      <path id="SimHei-6570" d="M 4525 4925 
Q 4475 4800 4400 4587 
Q 4325 4375 4175 3825 
L 5325 3825 
Q 5575 3825 5925 3850 
L 5925 3400 
Q 5650 3425 5500 3425 
Q 5500 3025 5362 2162 
Q 5225 1300 4875 675 
Q 5125 375 5437 137 
Q 5750 -100 6025 -200 
Q 5725 -425 5625 -625 
Q 5325 -450 5075 -225 
Q 4825 0 4575 325 
Q 4300 25 3987 -187 
Q 3675 -400 3200 -650 
Q 3075 -425 2850 -300 
Q 3225 -150 3650 125 
Q 4075 400 4300 675 
Q 4125 1025 3962 1425 
Q 3800 1825 3675 2475 
Q 3600 2275 3425 1950 
Q 3250 2050 3000 2150 
Q 3400 2850 3650 3675 
Q 3900 4500 3975 5100 
Q 4275 4975 4525 4925 
z
M 2100 2250 
Q 2000 2150 1875 1925 
L 3250 1925 
Q 3100 1300 2725 675 
Q 3125 525 3350 400 
Q 3225 225 3125 25 
Q 2900 175 2450 325 
Q 1950 -225 725 -650 
Q 600 -375 400 -275 
Q 1575 0 2000 475 
Q 1300 650 850 775 
Q 1000 1000 1250 1525 
Q 1000 1525 425 1500 
L 425 1950 
Q 900 1925 1400 1925 
Q 1500 2150 1550 2425 
Q 1825 2325 2100 2250 
z
M 1775 3950 
Q 1775 4550 1750 5100 
L 2250 5100 
Q 2225 4575 2225 3950 
Q 3075 3950 3425 3975 
L 3425 3525 
Q 3075 3550 2225 3550 
Q 2225 2825 2250 2425 
L 1750 2425 
Q 1775 2775 1775 3300 
Q 1650 3100 1300 2787 
Q 950 2475 650 2300 
Q 525 2525 275 2625 
Q 500 2700 875 2975 
Q 1250 3250 1450 3550 
Q 950 3550 500 3525 
L 500 3975 
Q 925 3950 1775 3950 
z
M 3975 3175 
Q 4200 1700 4600 1125 
Q 4850 1700 4937 2287 
Q 5025 2875 5050 3425 
L 4075 3425 
L 3975 3175 
z
M 1450 1000 
Q 1750 925 2275 800 
Q 2475 1050 2650 1525 
L 1725 1525 
Q 1600 1275 1450 1000 
z
M 3325 4825 
Q 3200 4625 3125 4450 
Q 3050 4275 2925 4025 
Q 2725 4125 2525 4175 
Q 2725 4500 2900 5000 
Q 3150 4875 3325 4825 
z
M 2575 3375 
Q 2900 3050 3200 2725 
Q 3050 2600 2875 2425 
Q 2525 2850 2300 3100 
Q 2450 3225 2575 3375 
z
M 925 5000 
Q 1275 4650 1500 4300 
L 1125 4075 
Q 950 4425 600 4725 
Q 825 4875 925 5000 
z
" transform="scale(0.015625)"/>
      <path id="SimHei-5e73" d="M 4525 4825 
Q 4900 4825 5450 4850 
L 5450 4375 
Q 4925 4400 4525 4400 
L 3475 4400 
L 3475 2025 
L 5000 2025 
Q 5550 2025 6025 2050 
L 6025 1575 
Q 5550 1600 5000 1600 
L 3475 1600 
L 3475 450 
Q 3475 -100 3500 -600 
L 2925 -600 
Q 2950 -100 2950 450 
L 2950 1600 
L 1125 1600 
Q 775 1600 375 1575 
L 375 2050 
Q 775 2025 1175 2025 
L 2950 2025 
L 2950 4400 
L 1775 4400 
Q 1400 4400 875 4375 
L 875 4850 
Q 1400 4825 1750 4825 
L 4525 4825 
z
M 3925 2600 
Q 4500 3300 4900 4125 
Q 5150 3950 5400 3825 
Q 4775 2850 4350 2300 
Q 4150 2475 3925 2600 
z
M 1975 2350 
Q 1600 3100 1050 3725 
Q 1250 3875 1450 4050 
Q 2075 3300 2450 2725 
Q 2150 2500 1975 2350 
z
" transform="scale(0.015625)"/>
      <path id="SimHei-5747" d="M 5775 275 
Q 5775 -325 5362 -450 
Q 4950 -575 4425 -600 
Q 4375 -275 4250 25 
Q 4950 -25 5125 62 
Q 5300 150 5300 500 
L 5375 3700 
L 3550 3700 
Q 3425 3375 3262 3037 
Q 3100 2700 2925 2400 
Q 2675 2550 2475 2625 
Q 3150 3625 3500 5200 
Q 3800 5100 4075 5025 
Q 3975 4875 3875 4650 
Q 3775 4425 3675 4125 
L 5900 4125 
L 5775 275 
z
M 1250 3625 
L 1250 4375 
Q 1250 4775 1225 5100 
L 1775 5100 
Q 1750 4725 1750 4375 
L 1750 3625 
L 1900 3625 
Q 2200 3625 2525 3650 
L 2525 3150 
Q 2200 3175 1900 3175 
L 1750 3175 
L 1750 1100 
L 2500 1375 
Q 2475 1125 2525 900 
Q 1225 475 962 362 
Q 700 250 475 150 
Q 375 475 250 750 
Q 575 800 800 850 
Q 1025 900 1250 975 
L 1250 3175 
L 1125 3175 
Q 850 3175 400 3150 
L 400 3650 
Q 850 3625 1100 3625 
L 1250 3625 
z
M 4950 1625 
Q 4675 1425 4137 1050 
Q 3600 675 3175 300 
Q 3000 575 2850 775 
Q 3350 1050 3762 1325 
Q 4175 1600 4775 2075 
Q 4825 1850 4950 1625 
z
M 3775 3150 
Q 4125 2800 4475 2300 
Q 4250 2125 4100 1975 
Q 3900 2325 3450 2825 
Q 3600 3000 3775 3150 
z
" transform="scale(0.015625)"/>
      <path id="SimHei-4e0b" d="M 5000 4700 
Q 5475 4700 5975 4725 
L 5975 4200 
Q 5425 4225 5000 4225 
L 3275 4225 
L 3275 375 
Q 3275 50 3300 -450 
L 2725 -450 
Q 2750 0 2750 375 
L 2750 4225 
L 1375 4225 
Q 875 4225 400 4200 
L 400 4725 
Q 875 4700 1375 4700 
L 5000 4700 
z
M 5650 1400 
Q 5400 1225 5200 1000 
Q 4800 1525 3650 2575 
L 4025 2950 
Q 4700 2400 5650 1400 
z
" transform="scale(0.015625)"/>
      <path id="SimHei-964d" d="M 4075 5050 
Q 3850 4800 3775 4625 
L 5650 4625 
Q 5425 4175 5187 3837 
Q 4950 3500 4650 3200 
Q 4900 3025 5275 2925 
Q 5650 2825 6200 2800 
Q 6025 2525 5975 2300 
Q 5375 2400 4950 2562 
Q 4525 2725 4275 2900 
Q 3950 2700 3550 2500 
Q 3150 2300 2525 2125 
Q 2450 2350 2250 2550 
Q 2775 2650 3212 2825 
Q 3650 3000 3875 3200 
Q 3550 3525 3325 3875 
Q 3000 3450 2825 3275 
Q 2650 3450 2450 3550 
Q 2775 3850 3075 4325 
Q 3375 4800 3575 5300 
Q 3950 5100 4075 5050 
z
M 2350 4975 
Q 2225 4650 2025 4062 
Q 1825 3475 1675 2975 
Q 2075 2450 2200 2175 
Q 2325 1900 2287 1550 
Q 2250 1200 2012 1012 
Q 1775 825 1350 775 
Q 1300 1025 1150 1325 
Q 1650 1300 1737 1512 
Q 1825 1725 1787 1962 
Q 1750 2200 1200 2925 
L 1450 3600 
Q 1600 4025 1725 4550 
L 975 4550 
L 975 -600 
L 500 -600 
Q 525 325 525 875 
L 525 3750 
Q 525 4325 500 4975 
L 2350 4975 
z
M 5100 2075 
Q 5275 2075 5725 2100 
L 5725 1650 
Q 5450 1675 5150 1675 
L 4575 1675 
L 4575 900 
L 5200 900 
Q 5675 900 6050 925 
L 6050 475 
Q 5700 500 5225 500 
L 4575 500 
L 4575 125 
Q 4575 -250 4600 -600 
L 4100 -600 
Q 4125 -225 4125 100 
L 4125 500 
L 2375 500 
Q 2500 1100 2500 1400 
L 3025 1325 
Q 2925 1025 2925 900 
L 4125 900 
L 4125 1675 
L 3475 1675 
Q 3100 1675 2775 1650 
L 2775 2100 
Q 3225 2075 3475 2075 
L 4125 2075 
Q 4125 2375 4100 2625 
L 4575 2625 
Q 4550 2225 4550 2075 
L 5100 2075 
z
M 4275 3475 
Q 4600 3725 4925 4250 
L 3550 4250 
Q 4025 3650 4275 3475 
z
" transform="scale(0.015625)"/>
     </defs>
     <use xlink:href="#SimHei-56fe"/>
     <use xlink:href="#SimHei-20" transform="translate(100 0)"/>
     <use xlink:href="#SimHei-31" transform="translate(150 0)"/>
     <use xlink:href="#SimHei-31" transform="translate(200 0)"/>
     <use xlink:href="#SimHei-20" transform="translate(250 0)"/>
     <use xlink:href="#SimHei-20" transform="translate(300 0)"/>
     <use xlink:href="#SimHei-968f" transform="translate(350 0)"/>
     <use xlink:href="#SimHei-673a" transform="translate(450 0)"/>
     <use xlink:href="#SimHei-68ee" transform="translate(550 0)"/>
     <use xlink:href="#SimHei-6797" transform="translate(650 0)"/>
     <use xlink:href="#SimHei-53d8" transform="translate(750 0)"/>
     <use xlink:href="#SimHei-91cf" transform="translate(850 0)"/>
     <use xlink:href="#SimHei-91cd" transform="translate(950 0)"/>
     <use xlink:href="#SimHei-8981" transform="translate(1050 0)"/>
     <use xlink:href="#SimHei-6027" transform="translate(1150 0)"/>
     <use xlink:href="#SimHei-ff08" transform="translate(1250 0)"/>
     <use xlink:href="#SimHei-57fa" transform="translate(1350 0)"/>
     <use xlink:href="#SimHei-4e8e" transform="translate(1450 0)"/>
     <use xlink:href="#SimHei-20" transform="translate(1550 0)"/>
     <use xlink:href="#SimHei-47" transform="translate(1600 0)"/>
     <use xlink:href="#SimHei-69" transform="translate(1650 0)"/>
     <use xlink:href="#SimHei-6e" transform="translate(1700 0)"/>
     <use xlink:href="#SimHei-69" transform="translate(1750 0)"/>
     <use xlink:href="#SimHei-20" transform="translate(1800 0)"/>
     <use xlink:href="#SimHei-6307" transform="translate(1850 0)"/>
     <use xlink:href="#SimHei-6570" transform="translate(1950 0)"/>
     <use xlink:href="#SimHei-5e73" transform="translate(2050 0)"/>
     <use xlink:href="#SimHei-5747" transform="translate(2150 0)"/>
     <use xlink:href="#SimHei-4e0b" transform="translate(2250 0)"/>
     <use xlink:href="#SimHei-964d" transform="translate(2350 0)"/>
     <use xlink:href="#SimHei-91cf" transform="translate(2450 0)"/>
     <use xlink:href="#SimHei-ff09" transform="translate(2550 0)"/>
    </g>
   </g>
  </g>
 </g>
 <defs>
  <clipPath id="p2d91b5e1f3">
   <rect x="52.7" y="23.873438" width="434.96" height="180.6175"/>
  </clipPath>
 </defs>
</svg>
