<?xml version="1.0" encoding="utf-8" standalone="no"?>
<!DOCTYPE svg PUBLIC "-//W3C//DTD SVG 1.1//EN"
  "http://www.w3.org/Graphics/SVG/1.1/DTD/svg11.dtd">
<svg xmlns:xlink="http://www.w3.org/1999/xlink" width="926.516094pt" height="365.854219pt" viewBox="0 0 926.516094 365.854219" xmlns="http://www.w3.org/2000/svg" version="1.1">
 <metadata>
  <rdf:RDF xmlns:dc="http://purl.org/dc/elements/1.1/" xmlns:cc="http://creativecommons.org/ns#" xmlns:rdf="http://www.w3.org/1999/02/22-rdf-syntax-ns#">
   <cc:Work>
    <dc:type rdf:resource="http://purl.org/dc/dcmitype/StillImage"/>
    <dc:date>2026-04-30T03:14:01.128344</dc:date>
    <dc:format>image/svg+xml</dc:format>
    <dc:creator>
     <cc:Agent>
      <dc:title>Matplotlib v3.10.8, https://matplotlib.org/</dc:title>
     </cc:Agent>
    </dc:creator>
   </cc:Work>
  </rdf:RDF>
 </metadata>
 <defs>
  <style type="text/css">*{stroke-linejoin: round; stroke-linecap: butt}</style>
 </defs>
 <g id="figure_1">
  <g id="patch_1">
   <path d="M 0 365.854219 
L 926.516094 365.854219 
L 926.516094 0 
L 0 0 
z
" style="fill: #ffffff"/>
  </g>
  <g id="axes_1">
   <g id="patch_2">
    <path d="M 55.883594 328.705 
L 457.256094 328.705 
L 457.256094 61.8075 
L 55.883594 61.8075 
z
" style="fill: #ffffff"/>
   </g>
   <g id="matplotlib.axis_1">
    <g id="xtick_1">
     <g id="line2d_1">
      <path d="M 73.396568 328.705 
L 73.396568 61.8075 
" clip-path="url(#p49c75df628)" style="fill: none; stroke: #b0b0b0; stroke-opacity: 0.25; stroke-width: 0.8; stroke-linecap: square"/>
     </g>
     <g id="line2d_2">
      <defs>
       <path id="m2f6a6413b0" d="M 0 0 
L 0 3.5 
" style="stroke: #000000; stroke-width: 0.8"/>
      </defs>
      <g>
       <use xlink:href="#m2f6a6413b0" x="73.396568" y="328.705" style="stroke: #000000; stroke-width: 0.8"/>
      </g>
     </g>
     <g id="text_1">
      <!-- 0 -->
      <g transform="translate(70.646568 343.2675) scale(0.11 -0.11)">
       <defs>
        <path id="SimHei-30" d="M 225 2537 
Q 250 3200 412 3587 
Q 575 3975 875 4225 
Q 1175 4475 1612 4475 
Q 2050 4475 2375 4112 
Q 2700 3750 2800 3200 
Q 2900 2650 2862 1937 
Q 2825 1225 2612 775 
Q 2400 325 1975 150 
Q 1550 -25 1125 187 
Q 700 400 525 750 
Q 350 1100 275 1487 
Q 200 1875 225 2537 
z
M 750 2687 
Q 675 2000 800 1462 
Q 925 925 1212 700 
Q 1500 475 1800 612 
Q 2100 750 2237 1162 
Q 2375 1575 2375 2062 
Q 2375 2550 2337 2950 
Q 2300 3350 2112 3675 
Q 1925 4000 1612 4012 
Q 1300 4025 1062 3700 
Q 825 3375 750 2687 
z
" transform="scale(0.015625)"/>
       </defs>
       <use xlink:href="#SimHei-30"/>
      </g>
     </g>
    </g>
    <g id="xtick_2">
     <g id="line2d_3">
      <path d="M 146.519632 328.705 
L 146.519632 61.8075 
" clip-path="url(#p49c75df628)" style="fill: none; stroke: #b0b0b0; stroke-opacity: 0.25; stroke-width: 0.8; stroke-linecap: square"/>
     </g>
     <g id="line2d_4">
      <g>
       <use xlink:href="#m2f6a6413b0" x="146.519632" y="328.705" style="stroke: #000000; stroke-width: 0.8"/>
      </g>
     </g>
     <g id="text_2">
      <!-- 100 -->
      <g transform="translate(138.269632 343.2675) scale(0.11 -0.11)">
       <defs>
        <path id="SimHei-31" d="M 1400 3600 
Q 1075 3275 575 2975 
L 575 3450 
Q 1200 3875 1600 4450 
L 1900 4450 
L 1900 150 
L 1400 150 
L 1400 3600 
z
" transform="scale(0.015625)"/>
       </defs>
       <use xlink:href="#SimHei-31"/>
       <use xlink:href="#SimHei-30" transform="translate(50 0)"/>
       <use xlink:href="#SimHei-30" transform="translate(100 0)"/>
      </g>
     </g>
    </g>
    <g id="xtick_3">
     <g id="line2d_5">
      <path d="M 219.642696 328.705 
L 219.642696 61.8075 
" clip-path="url(#p49c75df628)" style="fill: none; stroke: #b0b0b0; stroke-opacity: 0.25; stroke-width: 0.8; stroke-linecap: square"/>
     </g>
     <g id="line2d_6">
      <g>
       <use xlink:href="#m2f6a6413b0" x="219.642696" y="328.705" style="stroke: #000000; stroke-width: 0.8"/>
      </g>
     </g>
     <g id="text_3">
      <!-- 200 -->
      <g transform="translate(211.392696 343.2675) scale(0.11 -0.11)">
       <defs>
        <path id="SimHei-32" d="M 300 250 
Q 325 625 650 925 
Q 975 1225 1475 1862 
Q 1975 2500 2125 2850 
Q 2275 3200 2237 3450 
Q 2200 3700 2000 3862 
Q 1800 4025 1537 4000 
Q 1275 3975 1037 3800 
Q 800 3625 675 3275 
L 200 3350 
Q 400 3925 712 4187 
Q 1025 4450 1450 4475 
Q 1700 4500 1900 4462 
Q 2100 4425 2312 4287 
Q 2525 4150 2662 3875 
Q 2800 3600 2762 3212 
Q 2725 2825 2375 2287 
Q 2025 1750 1025 600 
L 2825 600 
L 2825 150 
L 300 150 
L 300 250 
z
" transform="scale(0.015625)"/>
       </defs>
       <use xlink:href="#SimHei-32"/>
       <use xlink:href="#SimHei-30" transform="translate(50 0)"/>
       <use xlink:href="#SimHei-30" transform="translate(100 0)"/>
      </g>
     </g>
    </g>
    <g id="xtick_4">
     <g id="line2d_7">
      <path d="M 292.765761 328.705 
L 292.765761 61.8075 
" clip-path="url(#p49c75df628)" style="fill: none; stroke: #b0b0b0; stroke-opacity: 0.25; stroke-width: 0.8; stroke-linecap: square"/>
     </g>
     <g id="line2d_8">
      <g>
       <use xlink:href="#m2f6a6413b0" x="292.765761" y="328.705" style="stroke: #000000; stroke-width: 0.8"/>
      </g>
     </g>
     <g id="text_4">
      <!-- 300 -->
      <g transform="translate(284.515761 343.2675) scale(0.11 -0.11)">
       <defs>
        <path id="SimHei-33" d="M 250 1225 
L 700 1300 
Q 800 975 1025 762 
Q 1250 550 1587 562 
Q 1925 575 2125 837 
Q 2325 1100 2300 1437 
Q 2275 1775 2037 1962 
Q 1800 2150 1275 2225 
L 1275 2550 
Q 1800 2600 2037 2825 
Q 2275 3050 2250 3412 
Q 2225 3775 1925 3937 
Q 1625 4100 1287 3975 
Q 950 3850 750 3275 
L 300 3350 
Q 450 3800 712 4100 
Q 975 4400 1425 4450 
Q 1875 4500 2212 4337 
Q 2550 4175 2687 3837 
Q 2825 3500 2725 3100 
Q 2625 2700 2150 2400 
Q 2500 2250 2687 1950 
Q 2875 1650 2812 1162 
Q 2750 675 2375 375 
Q 2000 75 1525 87 
Q 1050 100 700 387 
Q 350 675 250 1225 
z
" transform="scale(0.015625)"/>
       </defs>
       <use xlink:href="#SimHei-33"/>
       <use xlink:href="#SimHei-30" transform="translate(50 0)"/>
       <use xlink:href="#SimHei-30" transform="translate(100 0)"/>
      </g>
     </g>
    </g>
    <g id="xtick_5">
     <g id="line2d_9">
      <path d="M 365.888825 328.705 
L 365.888825 61.8075 
" clip-path="url(#p49c75df628)" style="fill: none; stroke: #b0b0b0; stroke-opacity: 0.25; stroke-width: 0.8; stroke-linecap: square"/>
     </g>
     <g id="line2d_10">
      <g>
       <use xlink:href="#m2f6a6413b0" x="365.888825" y="328.705" style="stroke: #000000; stroke-width: 0.8"/>
      </g>
     </g>
     <g id="text_5">
      <!-- 400 -->
      <g transform="translate(357.638825 343.2675) scale(0.11 -0.11)">
       <defs>
        <path id="SimHei-34" d="M 2000 1100 
L 75 1100 
L 75 1525 
L 2100 4450 
L 2475 4450 
L 2475 1525 
L 3075 1525 
L 3075 1100 
L 2475 1100 
L 2475 150 
L 2000 150 
L 2000 1100 
z
M 2000 1525 
L 2000 3500 
L 600 1525 
L 2000 1525 
z
" transform="scale(0.015625)"/>
       </defs>
       <use xlink:href="#SimHei-34"/>
       <use xlink:href="#SimHei-30" transform="translate(50 0)"/>
       <use xlink:href="#SimHei-30" transform="translate(100 0)"/>
      </g>
     </g>
    </g>
    <g id="xtick_6">
     <g id="line2d_11">
      <path d="M 439.011889 328.705 
L 439.011889 61.8075 
" clip-path="url(#p49c75df628)" style="fill: none; stroke: #b0b0b0; stroke-opacity: 0.25; stroke-width: 0.8; stroke-linecap: square"/>
     </g>
     <g id="line2d_12">
      <g>
       <use xlink:href="#m2f6a6413b0" x="439.011889" y="328.705" style="stroke: #000000; stroke-width: 0.8"/>
      </g>
     </g>
     <g id="text_6">
      <!-- 500 -->
      <g transform="translate(430.761889 343.2675) scale(0.11 -0.11)">
       <defs>
        <path id="SimHei-35" d="M 550 1325 
Q 725 650 1150 575 
Q 1575 500 1837 662 
Q 2100 825 2212 1087 
Q 2325 1350 2312 1675 
Q 2300 2000 2137 2225 
Q 1975 2450 1725 2525 
Q 1475 2600 1162 2525 
Q 850 2450 650 2175 
L 225 2225 
Q 275 2375 700 4375 
L 2675 4375 
L 2675 3925 
L 1075 3925 
Q 950 3250 825 2850 
Q 1200 3025 1525 3012 
Q 1850 3000 2150 2862 
Q 2450 2725 2587 2487 
Q 2725 2250 2787 2012 
Q 2850 1775 2837 1500 
Q 2825 1225 2725 937 
Q 2625 650 2425 462 
Q 2225 275 1937 162 
Q 1650 50 1275 75 
Q 900 100 562 350 
Q 225 600 100 1200 
L 550 1325 
z
" transform="scale(0.015625)"/>
       </defs>
       <use xlink:href="#SimHei-35"/>
       <use xlink:href="#SimHei-30" transform="translate(50 0)"/>
       <use xlink:href="#SimHei-30" transform="translate(100 0)"/>
      </g>
     </g>
    </g>
    <g id="text_7">
     <!-- 树的数量 B -->
     <g transform="translate(229.069844 357.279219) scale(0.11 -0.11)">
      <defs>
       <path id="SimHei-6811" d="M 1100 4475 
Q 1100 4825 1075 5125 
L 1625 5125 
Q 1550 4775 1550 4325 
L 1550 3850 
Q 1800 3850 2125 3875 
L 2125 3425 
Q 1825 3450 1550 3450 
L 1550 2525 
Q 1675 2675 1775 2775 
Q 2150 2300 2450 1750 
Q 2200 1650 2050 1525 
Q 1800 2025 1550 2400 
L 1550 400 
Q 1550 -50 1575 -575 
L 1075 -575 
Q 1100 -50 1100 400 
L 1100 2000 
Q 950 1525 550 850 
Q 450 1075 225 1300 
Q 550 1725 775 2362 
Q 1000 3000 1050 3450 
Q 725 3450 375 3425 
L 375 3875 
Q 750 3850 1100 3850 
L 1100 4475 
z
M 3850 4325 
Q 3775 3525 3650 2950 
Q 3525 2375 3400 2075 
Q 3775 1500 4200 800 
Q 3975 675 3775 475 
Q 3600 900 3200 1550 
Q 3025 1175 2787 787 
Q 2550 400 2225 50 
Q 2000 250 1775 375 
Q 2175 700 2450 1125 
Q 2725 1550 2900 2000 
Q 2775 2300 2200 3100 
Q 2400 3175 2550 3325 
Q 2875 2925 3100 2525 
Q 3300 3225 3350 3925 
L 2800 3925 
Q 2450 3925 2200 3900 
L 2200 4350 
Q 2425 4325 2800 4325 
L 3850 4325 
z
M 5050 3825 
Q 5025 4750 5025 5125 
L 5525 5125 
Q 5500 4750 5500 3825 
Q 5750 3825 6050 3875 
L 6050 3400 
Q 5725 3425 5500 3425 
L 5500 -100 
Q 5475 -350 5300 -462 
Q 5125 -575 4675 -625 
Q 4625 -350 4450 -75 
Q 4825 -100 4950 -62 
Q 5075 -25 5050 275 
L 5050 3425 
Q 4325 3425 3975 3400 
L 3975 3850 
Q 4300 3825 5050 3825 
z
M 4325 2825 
Q 4675 2100 4950 1525 
Q 4625 1375 4525 1275 
Q 4275 1975 3900 2600 
Q 4200 2775 4325 2825 
z
" transform="scale(0.015625)"/>
       <path id="SimHei-7684" d="M 2100 4975 
Q 1975 4750 1750 3950 
L 2875 3950 
Q 2850 3525 2850 2875 
L 2850 675 
Q 2850 300 2875 -400 
L 2375 -400 
L 2375 100 
L 1100 100 
L 1100 -450 
L 600 -450 
Q 625 350 625 550 
L 625 2850 
Q 625 3525 600 3950 
L 1325 3950 
Q 1450 4525 1525 5150 
Q 1875 5025 2100 4975 
z
M 5825 3075 
Q 5800 1550 5700 175 
Q 5650 -275 5225 -425 
Q 4800 -575 4275 -625 
Q 4250 -350 4050 -50 
Q 4550 -75 4837 -25 
Q 5125 25 5200 200 
Q 5275 375 5312 1225 
Q 5350 2075 5375 3600 
L 3925 3600 
Q 3725 3125 3350 2475 
Q 3175 2650 2925 2750 
Q 3150 3050 3350 3475 
Q 3550 3900 3700 4400 
Q 3850 4900 3875 5175 
Q 4225 5025 4475 4950 
Q 4350 4750 4262 4512 
Q 4175 4275 4075 4050 
L 5850 4050 
Q 5825 3525 5825 3075 
z
M 2375 525 
L 2375 1850 
L 1100 1850 
L 1100 525 
L 2375 525 
z
M 2375 2275 
L 2375 3525 
L 1100 3525 
L 1100 2275 
L 2375 2275 
z
M 4350 2050 
Q 4500 1750 4700 1275 
Q 4525 1200 4225 1025 
Q 4050 1500 3900 1837 
Q 3750 2175 3600 2400 
Q 3775 2500 4050 2650 
L 4350 2050 
z
" transform="scale(0.015625)"/>
       <path id="SimHei-6570" d="M 4525 4925 
Q 4475 4800 4400 4587 
Q 4325 4375 4175 3825 
L 5325 3825 
Q 5575 3825 5925 3850 
L 5925 3400 
Q 5650 3425 5500 3425 
Q 5500 3025 5362 2162 
Q 5225 1300 4875 675 
Q 5125 375 5437 137 
Q 5750 -100 6025 -200 
Q 5725 -425 5625 -625 
Q 5325 -450 5075 -225 
Q 4825 0 4575 325 
Q 4300 25 3987 -187 
Q 3675 -400 3200 -650 
Q 3075 -425 2850 -300 
Q 3225 -150 3650 125 
Q 4075 400 4300 675 
Q 4125 1025 3962 1425 
Q 3800 1825 3675 2475 
Q 3600 2275 3425 1950 
Q 3250 2050 3000 2150 
Q 3400 2850 3650 3675 
Q 3900 4500 3975 5100 
Q 4275 4975 4525 4925 
z
M 2100 2250 
Q 2000 2150 1875 1925 
L 3250 1925 
Q 3100 1300 2725 675 
Q 3125 525 3350 400 
Q 3225 225 3125 25 
Q 2900 175 2450 325 
Q 1950 -225 725 -650 
Q 600 -375 400 -275 
Q 1575 0 2000 475 
Q 1300 650 850 775 
Q 1000 1000 1250 1525 
Q 1000 1525 425 1500 
L 425 1950 
Q 900 1925 1400 1925 
Q 1500 2150 1550 2425 
Q 1825 2325 2100 2250 
z
M 1775 3950 
Q 1775 4550 1750 5100 
L 2250 5100 
Q 2225 4575 2225 3950 
Q 3075 3950 3425 3975 
L 3425 3525 
Q 3075 3550 2225 3550 
Q 2225 2825 2250 2425 
L 1750 2425 
Q 1775 2775 1775 3300 
Q 1650 3100 1300 2787 
Q 950 2475 650 2300 
Q 525 2525 275 2625 
Q 500 2700 875 2975 
Q 1250 3250 1450 3550 
Q 950 3550 500 3525 
L 500 3975 
Q 925 3950 1775 3950 
z
M 3975 3175 
Q 4200 1700 4600 1125 
Q 4850 1700 4937 2287 
Q 5025 2875 5050 3425 
L 4075 3425 
L 3975 3175 
z
M 1450 1000 
Q 1750 925 2275 800 
Q 2475 1050 2650 1525 
L 1725 1525 
Q 1600 1275 1450 1000 
z
M 3325 4825 
Q 3200 4625 3125 4450 
Q 3050 4275 2925 4025 
Q 2725 4125 2525 4175 
Q 2725 4500 2900 5000 
Q 3150 4875 3325 4825 
z
M 2575 3375 
Q 2900 3050 3200 2725 
Q 3050 2600 2875 2425 
Q 2525 2850 2300 3100 
Q 2450 3225 2575 3375 
z
M 925 5000 
Q 1275 4650 1500 4300 
L 1125 4075 
Q 950 4425 600 4725 
Q 825 4875 925 5000 
z
" transform="scale(0.015625)"/>
       <path id="SimHei-91cf" d="M 5250 2500 
Q 5225 2200 5225 1700 
Q 5225 1225 5250 950 
L 3425 950 
L 3425 625 
L 4575 625 
Q 5000 625 5375 650 
L 5375 275 
Q 5025 300 4575 300 
L 3425 300 
L 3425 -75 
L 5125 -75 
Q 5525 -75 5925 -50 
L 5925 -425 
Q 5525 -400 5125 -400 
L 1275 -400 
Q 900 -400 475 -425 
L 475 -50 
Q 925 -50 1275 -75 
L 2975 -75 
L 2975 300 
L 1725 300 
Q 1350 300 975 250 
L 975 650 
Q 1375 625 1725 625 
L 2975 625 
L 2975 950 
L 1150 950 
Q 1175 1375 1175 1775 
Q 1175 2175 1150 2500 
L 5250 2500 
z
M 5200 4950 
Q 5175 4575 5175 4250 
Q 5175 3925 5200 3400 
L 1200 3400 
Q 1225 3925 1225 4250 
Q 1225 4575 1200 4950 
L 5200 4950 
z
M 4900 3100 
Q 5500 3125 6000 3150 
L 6000 2750 
Q 5500 2775 4925 2775 
L 1650 2775 
Q 975 2775 325 2750 
L 325 3150 
Q 975 3125 1650 3100 
L 4900 3100 
z
M 4725 3700 
L 4725 4025 
L 1675 4025 
L 1675 3700 
L 4725 3700 
z
M 4725 4350 
L 4725 4650 
L 1675 4650 
L 1675 4350 
L 4725 4350 
z
M 4750 1875 
L 4750 2175 
L 3425 2175 
L 3425 1875 
L 4750 1875 
z
M 2975 1875 
L 2975 2175 
L 1650 2175 
L 1650 1875 
L 2975 1875 
z
M 2975 1275 
L 2975 1550 
L 1650 1550 
L 1650 1275 
L 2975 1275 
z
M 4750 1275 
L 4750 1550 
L 3425 1550 
L 3425 1275 
L 4750 1275 
z
" transform="scale(0.015625)"/>
       <path id="SimHei-20" transform="scale(0.015625)"/>
       <path id="SimHei-42" d="M 2950 1400 
Q 2950 675 2550 400 
Q 2150 125 1525 125 
L 275 125 
L 275 4400 
L 1575 4400 
Q 2200 4400 2512 4075 
Q 2825 3750 2825 3300 
Q 2825 2850 2612 2637 
Q 2400 2425 2175 2350 
Q 2475 2275 2712 2037 
Q 2950 1800 2950 1400 
z
M 2250 3300 
Q 2250 3625 2062 3775 
Q 1875 3925 1600 3925 
L 850 3925 
L 850 2600 
L 1575 2600 
Q 1850 2600 2050 2762 
Q 2250 2925 2250 3300 
z
M 2350 1400 
Q 2350 1800 2087 1962 
Q 1825 2125 1500 2125 
L 850 2125 
L 850 600 
L 1425 600 
Q 1875 600 2112 775 
Q 2350 950 2350 1400 
z
" transform="scale(0.015625)"/>
      </defs>
      <use xlink:href="#SimHei-6811"/>
      <use xlink:href="#SimHei-7684" transform="translate(100 0)"/>
      <use xlink:href="#SimHei-6570" transform="translate(200 0)"/>
      <use xlink:href="#SimHei-91cf" transform="translate(300 0)"/>
      <use xlink:href="#SimHei-20" transform="translate(400 0)"/>
      <use xlink:href="#SimHei-42" transform="translate(450 0)"/>
     </g>
    </g>
   </g>
   <g id="matplotlib.axis_2">
    <g id="ytick_1">
     <g id="line2d_13">
      <path d="M 55.883594 293.465287 
L 457.256094 293.465287 
" clip-path="url(#p49c75df628)" style="fill: none; stroke: #b0b0b0; stroke-opacity: 0.25; stroke-width: 0.8; stroke-linecap: square"/>
     </g>
     <g id="line2d_14">
      <defs>
       <path id="m9c8f6dcce4" d="M 0 0 
L -3.5 0 
" style="stroke: #000000; stroke-width: 0.8"/>
      </defs>
      <g>
       <use xlink:href="#m9c8f6dcce4" x="55.883594" y="293.465287" style="stroke: #000000; stroke-width: 0.8"/>
      </g>
     </g>
     <g id="text_8">
      <!-- 0.025 -->
      <g transform="translate(21.383594 297.246537) scale(0.11 -0.11)">
       <defs>
        <path id="SimHei-2e" d="M 1075 125 
L 500 125 
L 500 675 
L 1075 675 
L 1075 125 
z
" transform="scale(0.015625)"/>
       </defs>
       <use xlink:href="#SimHei-30"/>
       <use xlink:href="#SimHei-2e" transform="translate(50 0)"/>
       <use xlink:href="#SimHei-30" transform="translate(100 0)"/>
       <use xlink:href="#SimHei-32" transform="translate(150 0)"/>
       <use xlink:href="#SimHei-35" transform="translate(200 0)"/>
      </g>
     </g>
    </g>
    <g id="ytick_2">
     <g id="line2d_15">
      <path d="M 55.883594 235.695265 
L 457.256094 235.695265 
" clip-path="url(#p49c75df628)" style="fill: none; stroke: #b0b0b0; stroke-opacity: 0.25; stroke-width: 0.8; stroke-linecap: square"/>
     </g>
     <g id="line2d_16">
      <g>
       <use xlink:href="#m9c8f6dcce4" x="55.883594" y="235.695265" style="stroke: #000000; stroke-width: 0.8"/>
      </g>
     </g>
     <g id="text_9">
      <!-- 0.030 -->
      <g transform="translate(21.383594 239.476515) scale(0.11 -0.11)">
       <use xlink:href="#SimHei-30"/>
       <use xlink:href="#SimHei-2e" transform="translate(50 0)"/>
       <use xlink:href="#SimHei-30" transform="translate(100 0)"/>
       <use xlink:href="#SimHei-33" transform="translate(150 0)"/>
       <use xlink:href="#SimHei-30" transform="translate(200 0)"/>
      </g>
     </g>
    </g>
    <g id="ytick_3">
     <g id="line2d_17">
      <path d="M 55.883594 177.925244 
L 457.256094 177.925244 
" clip-path="url(#p49c75df628)" style="fill: none; stroke: #b0b0b0; stroke-opacity: 0.25; stroke-width: 0.8; stroke-linecap: square"/>
     </g>
     <g id="line2d_18">
      <g>
       <use xlink:href="#m9c8f6dcce4" x="55.883594" y="177.925244" style="stroke: #000000; stroke-width: 0.8"/>
      </g>
     </g>
     <g id="text_10">
      <!-- 0.035 -->
      <g transform="translate(21.383594 181.706494) scale(0.11 -0.11)">
       <use xlink:href="#SimHei-30"/>
       <use xlink:href="#SimHei-2e" transform="translate(50 0)"/>
       <use xlink:href="#SimHei-30" transform="translate(100 0)"/>
       <use xlink:href="#SimHei-33" transform="translate(150 0)"/>
       <use xlink:href="#SimHei-35" transform="translate(200 0)"/>
      </g>
     </g>
    </g>
    <g id="ytick_4">
     <g id="line2d_19">
      <path d="M 55.883594 120.155222 
L 457.256094 120.155222 
" clip-path="url(#p49c75df628)" style="fill: none; stroke: #b0b0b0; stroke-opacity: 0.25; stroke-width: 0.8; stroke-linecap: square"/>
     </g>
     <g id="line2d_20">
      <g>
       <use xlink:href="#m9c8f6dcce4" x="55.883594" y="120.155222" style="stroke: #000000; stroke-width: 0.8"/>
      </g>
     </g>
     <g id="text_11">
      <!-- 0.040 -->
      <g transform="translate(21.383594 123.936472) scale(0.11 -0.11)">
       <use xlink:href="#SimHei-30"/>
       <use xlink:href="#SimHei-2e" transform="translate(50 0)"/>
       <use xlink:href="#SimHei-30" transform="translate(100 0)"/>
       <use xlink:href="#SimHei-34" transform="translate(150 0)"/>
       <use xlink:href="#SimHei-30" transform="translate(200 0)"/>
      </g>
     </g>
    </g>
    <g id="ytick_5">
     <g id="line2d_21">
      <path d="M 55.883594 62.3852 
L 457.256094 62.3852 
" clip-path="url(#p49c75df628)" style="fill: none; stroke: #b0b0b0; stroke-opacity: 0.25; stroke-width: 0.8; stroke-linecap: square"/>
     </g>
     <g id="line2d_22">
      <g>
       <use xlink:href="#m9c8f6dcce4" x="55.883594" y="62.3852" style="stroke: #000000; stroke-width: 0.8"/>
      </g>
     </g>
     <g id="text_12">
      <!-- 0.045 -->
      <g transform="translate(21.383594 66.16645) scale(0.11 -0.11)">
       <use xlink:href="#SimHei-30"/>
       <use xlink:href="#SimHei-2e" transform="translate(50 0)"/>
       <use xlink:href="#SimHei-30" transform="translate(100 0)"/>
       <use xlink:href="#SimHei-34" transform="translate(150 0)"/>
       <use xlink:href="#SimHei-35" transform="translate(200 0)"/>
      </g>
     </g>
    </g>
    <g id="text_13">
     <!-- 误差率 -->
     <g transform="translate(16.008594 211.75625) rotate(-90) scale(0.11 -0.11)">
      <defs>
       <path id="SimHei-8bef" d="M 4625 2750 
Q 5325 2750 5800 2775 
L 5800 2350 
Q 5300 2375 4625 2375 
L 4150 2375 
Q 4150 2125 4100 1650 
L 5025 1650 
Q 5575 1650 6100 1675 
L 6100 1225 
Q 5575 1250 5025 1250 
L 4250 1250 
Q 4575 600 5050 287 
Q 5525 -25 6125 -125 
Q 5900 -350 5775 -625 
Q 4875 -275 4450 175 
Q 4025 625 3900 1000 
Q 3600 325 3125 -62 
Q 2650 -450 2025 -675 
Q 1975 -450 1725 -200 
Q 2475 -75 2937 437 
Q 3400 950 3475 1250 
L 2975 1250 
Q 2400 1250 2025 1225 
L 2025 1675 
Q 2475 1650 2900 1650 
L 3600 1650 
Q 3650 2025 3650 2375 
L 3325 2375 
Q 2675 2375 2225 2350 
L 2225 2775 
Q 2700 2750 3150 2750 
L 4625 2750 
z
M 5425 4875 
Q 5400 4550 5400 4075 
Q 5400 3600 5425 3325 
L 2450 3325 
Q 2475 3575 2475 4050 
Q 2475 4525 2450 4875 
L 5425 4875 
z
M 1550 3325 
Q 1525 3000 1525 2500 
L 1525 675 
L 1900 1100 
Q 2025 875 2225 700 
Q 1675 300 1250 -325 
Q 1100 -100 825 50 
Q 1025 250 1050 500 
L 1050 2900 
Q 700 2900 325 2875 
L 325 3350 
Q 550 3325 750 3325 
L 1550 3325 
z
M 4975 3700 
L 4975 4475 
L 2900 4475 
L 2900 3700 
L 4975 3700 
z
M 975 5125 
Q 1150 5000 1900 4275 
Q 1725 4125 1550 3925 
Q 1150 4400 675 4775 
Q 875 4975 975 5125 
z
" transform="scale(0.015625)"/>
       <path id="SimHei-5dee" d="M 4725 4975 
Q 4500 4725 4250 4275 
L 4850 4275 
Q 5450 4275 5825 4300 
L 5825 3850 
Q 5425 3875 4850 3875 
L 3275 3875 
Q 3225 3600 3150 3275 
L 4525 3275 
Q 5075 3275 5525 3300 
L 5525 2850 
Q 5075 2875 4500 2875 
L 3050 2875 
Q 2975 2650 2850 2325 
L 5125 2325 
Q 5675 2325 6025 2350 
L 6025 1900 
Q 5700 1925 5150 1925 
L 2650 1925 
Q 2425 1550 2250 1300 
Q 2650 1275 3100 1275 
L 4525 1275 
Q 4975 1275 5350 1300 
L 5350 850 
Q 4975 875 4575 875 
L 3925 875 
L 3925 -50 
L 5000 -50 
Q 5200 -50 5900 -25 
L 5900 -500 
Q 5275 -475 5025 -475 
L 2100 -475 
Q 1700 -475 1400 -500 
L 1400 -25 
Q 1775 -50 2125 -50 
L 3425 -50 
L 3425 875 
L 3100 875 
Q 2625 875 2175 850 
L 2175 1200 
Q 1925 875 1487 475 
Q 1050 75 625 -250 
Q 425 -25 200 150 
Q 750 475 1262 925 
Q 1775 1375 2100 1925 
L 1325 1925 
Q 750 1925 375 1900 
L 375 2350 
Q 750 2325 1350 2325 
L 2325 2325 
Q 2450 2575 2550 2875 
L 1725 2875 
Q 1375 2875 1000 2850 
L 1000 3300 
Q 1500 3275 1700 3275 
L 2650 3275 
Q 2725 3575 2775 3875 
L 1500 3875 
Q 1100 3875 650 3850 
L 650 4300 
Q 1025 4275 1425 4275 
L 2275 4275 
Q 2075 4675 1850 4950 
Q 2025 5050 2250 5225 
Q 2450 4975 2725 4550 
Q 2525 4450 2325 4275 
L 3750 4275 
Q 4000 4700 4150 5250 
Q 4400 5100 4725 4975 
z
" transform="scale(0.015625)"/>
       <path id="SimHei-7387" d="M 3325 5150 
Q 3425 4900 3550 4525 
L 4800 4525 
Q 5250 4525 5800 4550 
L 5800 4125 
Q 5250 4175 4775 4175 
L 2800 4175 
Q 2975 4050 3300 3900 
Q 3075 3750 2875 3537 
Q 2675 3325 2475 3125 
L 3275 3125 
Q 3575 3425 3775 3775 
Q 4000 3600 4275 3425 
Q 3950 3250 3600 2875 
Q 3250 2500 2625 2000 
L 3850 2100 
Q 3725 2250 3600 2425 
Q 3750 2475 4000 2650 
Q 4250 2350 4700 1700 
Q 4475 1625 4225 1450 
Q 4175 1600 4025 1775 
Q 3700 1750 3425 1750 
L 3425 1050 
L 5150 1050 
Q 5675 1050 6100 1075 
L 6100 650 
Q 5700 675 5125 675 
L 3425 675 
L 3425 175 
Q 3425 -300 3450 -625 
L 2900 -625 
Q 2925 -300 2925 175 
L 2925 675 
L 1325 675 
Q 825 675 325 650 
L 325 1075 
Q 825 1050 1350 1050 
L 2925 1050 
L 2925 1700 
Q 2700 1675 2475 1637 
Q 2250 1600 2025 1525 
Q 1950 1775 1850 2000 
Q 2075 2025 2325 2200 
Q 2575 2375 2975 2800 
Q 2300 2725 2025 2625 
Q 1975 2875 1850 3175 
Q 2075 3175 2325 3487 
Q 2575 3800 2750 4175 
L 1700 4175 
Q 1150 4175 650 4125 
L 650 4550 
Q 1150 4525 1550 4525 
L 2975 4525 
Q 2900 4825 2800 5025 
Q 3025 5075 3325 5150 
z
M 1625 2575 
Q 1725 2400 1825 2200 
Q 1575 2050 1325 1862 
Q 1075 1675 800 1425 
Q 625 1675 475 1875 
Q 800 2025 1100 2212 
Q 1400 2400 1625 2575 
z
M 4850 2650 
Q 5125 2475 5337 2337 
Q 5550 2200 5875 1950 
Q 5675 1800 5500 1600 
Q 5300 1775 5062 1975 
Q 4825 2175 4575 2325 
Q 4725 2475 4850 2650 
z
M 5725 3525 
Q 5550 3450 5300 3262 
Q 5050 3075 4800 2825 
Q 4625 3050 4475 3175 
Q 4700 3325 4875 3487 
Q 5050 3650 5300 3925 
Q 5525 3700 5725 3525 
z
M 1050 3850 
Q 1425 3600 1775 3275 
Q 1575 3100 1425 2925 
Q 1075 3300 675 3525 
Q 875 3700 1050 3850 
z
" transform="scale(0.015625)"/>
      </defs>
      <use xlink:href="#SimHei-8bef"/>
      <use xlink:href="#SimHei-5dee" transform="translate(100 0)"/>
      <use xlink:href="#SimHei-7387" transform="translate(200 0)"/>
     </g>
    </g>
   </g>
   <g id="line2d_23">
    <path d="M 74.127798 219.189545 
L 439.011889 219.189545 
L 439.011889 219.189545 
" clip-path="url(#p49c75df628)" style="fill: none; stroke: #1f77b4; stroke-width: 1.5; stroke-linecap: square"/>
   </g>
   <g id="line2d_24">
    <path d="M 74.127798 219.189545 
L 177.231319 219.189545 
L 177.96255 278.610138 
L 180.156242 278.610138 
L 180.887472 280.26071 
L 187.468548 280.26071 
L 188.199779 281.911282 
L 439.011889 281.911282 
L 439.011889 281.911282 
" clip-path="url(#p49c75df628)" style="fill: none; stroke: #2ca02c; stroke-width: 1.5; stroke-linecap: square"/>
   </g>
   <g id="line2d_25">
    <path d="M 74.127798 219.189545 
L 81.440105 219.189545 
L 82.171335 278.610138 
L 82.902566 281.911282 
L 88.021181 281.911282 
L 88.752411 238.996409 
L 98.25841 238.996409 
L 98.98964 290.164143 
L 99.720871 238.996409 
L 100.452101 290.164143 
L 151.638246 290.164143 
L 152.369477 291.814715 
L 192.587162 291.814715 
L 193.318393 293.465287 
L 226.223772 293.465287 
L 226.955003 295.115859 
L 228.417464 295.115859 
L 229.148695 293.465287 
L 229.879925 295.115859 
L 230.611156 293.465287 
L 232.804848 293.465287 
L 233.536078 295.115859 
L 234.267309 293.465287 
L 234.99854 295.115859 
L 236.461001 295.115859 
L 237.192232 293.465287 
L 237.923462 295.115859 
L 238.654693 293.465287 
L 239.385924 295.115859 
L 240.117154 293.465287 
L 240.848385 295.115859 
L 241.579616 293.465287 
L 242.310846 295.115859 
L 293.496991 295.115859 
L 294.228222 296.766431 
L 297.153144 296.766431 
L 297.884375 301.718147 
L 326.40237 301.718147 
L 327.133601 305.019291 
L 327.864831 301.718147 
L 328.596062 301.718147 
L 329.327293 305.019291 
L 336.639599 305.019291 
L 337.37083 306.669863 
L 338.10206 305.019291 
L 342.489444 305.019291 
L 343.220675 306.669863 
L 439.011889 306.669863 
L 439.011889 306.669863 
" clip-path="url(#p49c75df628)" style="fill: none; stroke: #e07b39; stroke-width: 1.5; stroke-linecap: square"/>
   </g>
   <g id="line2d_26">
    <path d="M 74.127798 238.996409 
L 93.139795 238.996409 
L 93.871026 290.164143 
L 115.076714 290.164143 
L 115.807945 291.814715 
L 124.582713 291.814715 
L 125.313943 293.465287 
L 126.045174 291.814715 
L 126.776405 293.465287 
L 128.238866 293.465287 
L 128.970097 291.814715 
L 129.701327 293.465287 
L 130.432558 291.814715 
L 133.35748 291.814715 
L 134.088711 293.465287 
L 134.819942 291.814715 
L 137.744864 291.814715 
L 138.476095 293.465287 
L 140.669787 293.465287 
L 141.401017 295.115859 
L 150.175785 295.115859 
L 150.907016 293.465287 
L 151.638246 295.115859 
L 152.369477 293.465287 
L 153.100708 295.115859 
L 165.531629 295.115859 
L 166.262859 298.417003 
L 169.187782 298.417003 
L 169.919013 303.368719 
L 170.650243 298.417003 
L 172.112704 298.417003 
L 172.843935 303.368719 
L 180.156242 303.368719 
L 180.887472 306.669863 
L 188.931009 306.669863 
L 189.66224 308.320435 
L 195.512085 308.320435 
L 196.243316 306.669863 
L 196.974546 308.320435 
L 197.705777 306.669863 
L 198.437008 308.320435 
L 199.168238 306.669863 
L 218.911466 306.669863 
L 219.642696 309.971007 
L 220.373927 306.669863 
L 222.567619 306.669863 
L 223.298849 313.272151 
L 224.03008 306.669863 
L 224.761311 313.272151 
L 225.492541 306.669863 
L 229.148695 306.669863 
L 229.879925 313.272151 
L 230.611156 306.669863 
L 231.342387 313.272151 
L 237.923462 313.272151 
L 238.654693 316.573295 
L 282.528532 316.573295 
L 283.259762 314.922723 
L 283.990993 316.573295 
L 285.453454 316.573295 
L 286.184685 314.922723 
L 286.915915 316.573295 
L 287.647146 314.922723 
L 288.378377 316.573295 
L 289.109607 314.922723 
L 289.840838 316.573295 
L 290.572069 314.922723 
L 291.303299 316.573295 
L 292.03453 314.922723 
L 292.765761 316.573295 
L 293.496991 314.922723 
L 294.228222 316.573295 
L 294.959453 314.922723 
L 295.690683 316.573295 
L 296.421914 314.922723 
L 297.153144 316.573295 
L 297.884375 314.922723 
L 298.615606 316.573295 
L 300.078067 316.573295 
L 300.809298 314.922723 
L 301.540528 314.922723 
L 302.271759 316.573295 
L 420.731123 316.573295 
L 421.462354 314.922723 
L 422.193584 316.573295 
L 439.011889 316.573295 
L 439.011889 316.573295 
" clip-path="url(#p49c75df628)" style="fill: none; stroke: #9467bd; stroke-width: 1.5; stroke-linecap: square"/>
   </g>
   <g id="line2d_27">
    <path d="M 55.883594 73.939205 
L 457.256094 73.939205 
" clip-path="url(#p49c75df628)" style="fill: none; stroke-dasharray: 0.8,1.32; stroke-dashoffset: 0; stroke: #808080; stroke-width: 0.8"/>
   </g>
   <g id="patch_3">
    <path d="M 55.883594 328.705 
L 55.883594 61.8075 
" style="fill: none; stroke: #000000; stroke-width: 0.8; stroke-linejoin: miter; stroke-linecap: square"/>
   </g>
   <g id="patch_4">
    <path d="M 55.883594 328.705 
L 457.256094 328.705 
" style="fill: none; stroke: #000000; stroke-width: 0.8; stroke-linejoin: miter; stroke-linecap: square"/>
   </g>
   <g id="text_14">
    <!-- (a) 训练误差 -->
    <g transform="translate(216.969844 55.8075) scale(0.132 -0.132)">
     <defs>
      <path id="SimHei-28" d="M 2975 -200 
L 2700 -475 
Q 2075 125 1762 775 
Q 1450 1425 1450 2250 
Q 1450 3075 1762 3725 
Q 2075 4375 2700 5000 
L 2975 4725 
Q 2400 4175 2112 3587 
Q 1825 3000 1825 2250 
Q 1825 1500 2112 912 
Q 2400 325 2975 -200 
z
" transform="scale(0.015625)"/>
      <path id="SimHei-61" d="M 2875 125 
L 2275 125 
Q 2225 175 2200 262 
Q 2175 350 2175 475 
Q 2000 275 1750 175 
Q 1500 75 1225 75 
Q 825 75 550 275 
Q 275 475 275 850 
Q 275 1225 525 1450 
Q 775 1675 1300 1750 
Q 1650 1800 1912 1875 
Q 2175 1950 2175 2075 
Q 2175 2225 2062 2375 
Q 1950 2525 1575 2525 
Q 1275 2525 1137 2412 
Q 1000 2300 950 2100 
L 400 2100 
Q 450 2500 762 2737 
Q 1075 2975 1575 2975 
Q 2125 2975 2400 2725 
Q 2675 2475 2675 2025 
L 2675 650 
Q 2675 500 2725 375 
Q 2775 250 2875 125 
z
M 2175 1050 
L 2175 1550 
Q 2025 1500 1887 1462 
Q 1750 1425 1425 1375 
Q 1050 1325 937 1200 
Q 825 1075 825 900 
Q 825 750 937 637 
Q 1050 525 1275 525 
Q 1500 525 1762 650 
Q 2025 775 2175 1050 
z
" transform="scale(0.015625)"/>
      <path id="SimHei-29" d="M 1675 2250 
Q 1675 1425 1362 775 
Q 1050 125 425 -475 
L 150 -200 
Q 725 325 1012 912 
Q 1300 1500 1300 2250 
Q 1300 3000 1012 3587 
Q 725 4175 150 4725 
L 425 5000 
Q 1050 4375 1362 3725 
Q 1675 3075 1675 2250 
z
" transform="scale(0.015625)"/>
      <path id="SimHei-8bad" d="M 1650 3300 
Q 1625 2725 1625 2225 
L 1625 675 
Q 1950 1125 2050 1275 
Q 2175 1125 2350 900 
Q 2025 500 1800 212 
Q 1575 -75 1325 -425 
Q 1150 -200 950 -50 
Q 1150 225 1150 625 
L 1150 2875 
L 975 2875 
Q 600 2875 300 2850 
L 300 3325 
Q 600 3300 975 3300 
L 1650 3300 
z
M 3425 4600 
Q 3375 4350 3387 3362 
Q 3400 2375 3337 1887 
Q 3275 1400 3087 837 
Q 2900 275 2450 -375 
Q 2225 -200 1975 -125 
Q 2550 500 2762 1362 
Q 2975 2225 2950 3337 
Q 2925 4450 2900 4675 
Q 3150 4625 3425 4600 
z
M 5875 4700 
Q 5850 4500 5850 3975 
L 5850 625 
Q 5850 125 5875 -400 
L 5400 -400 
Q 5425 125 5425 600 
L 5425 3975 
Q 5425 4500 5400 4700 
L 5875 4700 
z
M 4600 175 
L 4125 175 
Q 4150 725 4150 1150 
L 4150 3600 
Q 4150 4050 4125 4350 
L 4600 4350 
L 4600 175 
z
M 1000 5150 
Q 1650 4600 2100 4100 
Q 1875 3925 1750 3750 
Q 1050 4550 700 4800 
Q 850 4950 1000 5150 
z
" transform="scale(0.015625)"/>
      <path id="SimHei-7ec3" d="M 3300 3825 
Q 2950 3825 2400 3800 
L 2400 4250 
Q 2950 4225 3325 4225 
L 3625 4225 
Q 3875 4950 3900 5175 
Q 4200 5025 4450 4925 
Q 4350 4825 4262 4612 
Q 4175 4400 4100 4225 
L 5025 4225 
Q 5425 4225 5900 4250 
L 5900 3800 
Q 5550 3825 5025 3825 
L 3975 3825 
Q 3850 3525 3700 3150 
L 4675 3150 
Q 4650 2875 4650 2475 
L 4650 1975 
L 4975 1975 
Q 5350 1975 5800 2000 
L 5800 1550 
Q 5350 1575 4975 1575 
L 4650 1575 
L 4650 125 
Q 4650 -300 4462 -425 
Q 4275 -550 3650 -625 
Q 3625 -375 3450 -100 
Q 4075 -125 4137 -25 
Q 4200 75 4200 325 
L 4200 1575 
L 3425 1575 
Q 3250 1575 3100 1562 
Q 2950 1550 2750 1475 
Q 2650 1725 2550 1950 
Q 2800 2025 3125 2775 
Q 2950 2775 2450 2750 
L 2450 3175 
Q 3025 3150 3250 3150 
Q 3400 3525 3500 3825 
L 3300 3825 
z
M 1650 2950 
Q 1875 3300 2100 3900 
Q 2325 3725 2575 3600 
Q 2325 3275 2025 2750 
Q 1725 2225 1075 1350 
Q 1300 1400 2400 1575 
Q 2350 1300 2375 1150 
Q 1825 1100 650 825 
Q 525 1075 400 1275 
Q 625 1400 887 1737 
Q 1150 2075 1450 2575 
Q 1300 2600 1012 2562 
Q 725 2525 450 2450 
Q 350 2675 250 2925 
Q 500 3075 812 3725 
Q 1125 4375 1325 5000 
Q 1600 4825 1850 4750 
Q 1600 4375 1387 3962 
Q 1175 3550 800 2925 
Q 1375 2925 1650 2950 
z
M 2425 700 
Q 2400 425 2425 250 
Q 2000 150 1462 -25 
Q 925 -200 475 -425 
Q 400 -150 300 125 
Q 950 275 1187 337 
Q 1425 400 2425 700 
z
M 3725 875 
Q 3650 800 3287 400 
Q 2925 0 2475 -475 
Q 2300 -250 2150 -125 
Q 2425 100 2750 462 
Q 3075 825 3325 1225 
Q 3475 1050 3725 875 
z
M 5275 1225 
Q 5925 375 6200 -100 
Q 5950 -200 5750 -375 
Q 5475 175 4900 950 
Q 5075 1050 5275 1225 
z
M 4200 1975 
L 4200 2775 
L 3575 2775 
Q 3325 2250 3175 1975 
L 4200 1975 
z
" transform="scale(0.015625)"/>
     </defs>
     <use xlink:href="#SimHei-28"/>
     <use xlink:href="#SimHei-61" transform="translate(50 0)"/>
     <use xlink:href="#SimHei-29" transform="translate(100 0)"/>
     <use xlink:href="#SimHei-20" transform="translate(150 0)"/>
     <use xlink:href="#SimHei-8bad" transform="translate(200 0)"/>
     <use xlink:href="#SimHei-7ec3" transform="translate(300 0)"/>
     <use xlink:href="#SimHei-8bef" transform="translate(400 0)"/>
     <use xlink:href="#SimHei-5dee" transform="translate(500 0)"/>
    </g>
   </g>
   <g id="legend_1">
    <g id="patch_5">
     <path d="M 378.256094 138.12 
L 450.256094 138.12 
Q 452.256094 138.12 452.256094 136.12 
L 452.256094 68.8075 
Q 452.256094 66.8075 450.256094 66.8075 
L 378.256094 66.8075 
Q 376.256094 66.8075 376.256094 68.8075 
L 376.256094 136.12 
Q 376.256094 138.12 378.256094 138.12 
z
" style="fill: #ffffff; opacity: 0.8; stroke: #cccccc; stroke-linejoin: miter"/>
    </g>
    <g id="text_15">
     <!-- 学习率 λ -->
     <g transform="translate(389.506094 79.745) scale(0.11 -0.11)">
      <defs>
       <path id="SimHei-5b66" d="M 4875 2675 
L 4875 2150 
Q 4525 2075 4237 1912 
Q 3950 1750 3575 1575 
L 3575 1350 
L 5150 1350 
Q 5450 1350 5925 1375 
L 5925 875 
Q 5425 900 5150 900 
L 3575 900 
L 3575 -125 
Q 3575 -475 3300 -562 
Q 3025 -650 2400 -700 
Q 2325 -425 2150 -150 
L 2825 -150 
Q 3075 -150 3075 125 
L 3075 900 
L 1350 900 
Q 950 900 450 875 
L 450 1375 
Q 975 1350 1325 1350 
L 3075 1350 
Q 3075 1550 3025 1800 
L 3925 2250 
L 2550 2250 
Q 2075 2250 1475 2225 
L 1475 2700 
Q 2025 2675 2525 2675 
L 4875 2675 
z
M 5350 4975 
Q 4850 4400 4500 3800 
L 5875 3800 
Q 5850 3575 5850 3275 
Q 5850 2975 5875 2700 
L 5350 2700 
L 5350 3375 
L 1025 3375 
L 1025 2675 
L 500 2675 
Q 525 2975 525 3275 
Q 525 3575 500 3800 
L 3975 3800 
Q 4175 4150 4387 4537 
Q 4600 4925 4725 5300 
Q 5125 5075 5350 4975 
z
M 2950 5225 
Q 3425 4625 3575 4350 
Q 3350 4175 3100 4025 
Q 2900 4425 2500 4925 
Q 2750 5100 2950 5225 
z
M 1250 5050 
Q 1700 4675 2025 4275 
Q 1750 4075 1600 3900 
Q 1275 4375 850 4725 
Q 1125 4925 1250 5050 
z
" transform="scale(0.015625)"/>
       <path id="SimHei-4e60" d="M 2500 4325 
Q 1775 4325 1125 4300 
L 1125 4800 
Q 1950 4775 2375 4775 
L 5500 4775 
Q 5450 4425 5425 3700 
L 5325 375 
Q 5275 -300 4925 -425 
Q 4575 -550 3775 -600 
Q 3700 -300 3500 0 
Q 4225 -50 4500 12 
Q 4775 75 4825 475 
L 4925 4325 
L 2500 4325 
z
M 4200 2075 
Q 4200 1800 4250 1550 
Q 2825 1025 1275 250 
Q 1150 550 925 825 
Q 1250 900 2212 1250 
Q 3175 1600 4200 2075 
z
M 1800 3825 
Q 2875 3200 3400 2800 
Q 3300 2650 3050 2325 
Q 2600 2750 1500 3400 
Q 1675 3625 1800 3825 
z
" transform="scale(0.015625)"/>
       <path id="SimHei-3bb" d="M 1925 4500 
L 2400 4500 
Q 2875 4575 3075 3725 
L 4100 725 
Q 4075 575 4700 625 
L 4700 225 
L 4125 225 
Q 3700 150 3350 1600 
L 3025 2550 
L 2175 225 
L 1675 225 
L 2800 3225 
L 2550 3975 
Q 2525 4125 1925 4100 
L 1925 4500 
z
" transform="scale(0.015625)"/>
      </defs>
      <use xlink:href="#SimHei-5b66"/>
      <use xlink:href="#SimHei-4e60" transform="translate(100 0)"/>
      <use xlink:href="#SimHei-7387" transform="translate(200 0)"/>
      <use xlink:href="#SimHei-20" transform="translate(300 0)"/>
      <use xlink:href="#SimHei-3bb" transform="translate(350 0)"/>
     </g>
    </g>
    <g id="line2d_28">
     <path d="M 380.256094 89.62 
L 390.256094 89.62 
L 400.256094 89.62 
" style="fill: none; stroke: #1f77b4; stroke-width: 1.5; stroke-linecap: square"/>
    </g>
    <g id="text_16">
     <!-- λ=0.001 -->
     <g transform="translate(408.256094 93.12) scale(0.1 -0.1)">
      <defs>
       <path id="SimHei-3d" d="M 2975 2900 
L 125 2900 
L 125 3300 
L 2975 3300 
L 2975 2900 
z
M 2975 1375 
L 125 1375 
L 125 1775 
L 2975 1775 
L 2975 1375 
z
" transform="scale(0.015625)"/>
      </defs>
      <use xlink:href="#SimHei-3bb"/>
      <use xlink:href="#SimHei-3d" transform="translate(100 0)"/>
      <use xlink:href="#SimHei-30" transform="translate(150 0)"/>
      <use xlink:href="#SimHei-2e" transform="translate(200 0)"/>
      <use xlink:href="#SimHei-30" transform="translate(250 0)"/>
      <use xlink:href="#SimHei-30" transform="translate(300 0)"/>
      <use xlink:href="#SimHei-31" transform="translate(350 0)"/>
     </g>
    </g>
    <g id="line2d_29">
     <path d="M 380.256094 102.87 
L 390.256094 102.87 
L 400.256094 102.87 
" style="fill: none; stroke: #2ca02c; stroke-width: 1.5; stroke-linecap: square"/>
    </g>
    <g id="text_17">
     <!-- λ=0.01 -->
     <g transform="translate(408.256094 106.37) scale(0.1 -0.1)">
      <use xlink:href="#SimHei-3bb"/>
      <use xlink:href="#SimHei-3d" transform="translate(100 0)"/>
      <use xlink:href="#SimHei-30" transform="translate(150 0)"/>
      <use xlink:href="#SimHei-2e" transform="translate(200 0)"/>
      <use xlink:href="#SimHei-30" transform="translate(250 0)"/>
      <use xlink:href="#SimHei-31" transform="translate(300 0)"/>
     </g>
    </g>
    <g id="line2d_30">
     <path d="M 380.256094 116.12 
L 390.256094 116.12 
L 400.256094 116.12 
" style="fill: none; stroke: #e07b39; stroke-width: 1.5; stroke-linecap: square"/>
    </g>
    <g id="text_18">
     <!-- λ=0.1 -->
     <g transform="translate(408.256094 119.62) scale(0.1 -0.1)">
      <use xlink:href="#SimHei-3bb"/>
      <use xlink:href="#SimHei-3d" transform="translate(100 0)"/>
      <use xlink:href="#SimHei-30" transform="translate(150 0)"/>
      <use xlink:href="#SimHei-2e" transform="translate(200 0)"/>
      <use xlink:href="#SimHei-31" transform="translate(250 0)"/>
     </g>
    </g>
    <g id="line2d_31">
     <path d="M 380.256094 129.37 
L 390.256094 129.37 
L 400.256094 129.37 
" style="fill: none; stroke: #9467bd; stroke-width: 1.5; stroke-linecap: square"/>
    </g>
    <g id="text_19">
     <!-- λ=0.3 -->
     <g transform="translate(408.256094 132.87) scale(0.1 -0.1)">
      <use xlink:href="#SimHei-3bb"/>
      <use xlink:href="#SimHei-3d" transform="translate(100 0)"/>
      <use xlink:href="#SimHei-30" transform="translate(150 0)"/>
      <use xlink:href="#SimHei-2e" transform="translate(200 0)"/>
      <use xlink:href="#SimHei-33" transform="translate(250 0)"/>
     </g>
    </g>
   </g>
  </g>
  <g id="axes_2">
   <g id="patch_6">
    <path d="M 517.943594 328.705 
L 919.316094 328.705 
L 919.316094 61.8075 
L 517.943594 61.8075 
z
" style="fill: #ffffff"/>
   </g>
   <g id="matplotlib.axis_3">
    <g id="xtick_7">
     <g id="line2d_32">
      <path d="M 535.456568 328.705 
L 535.456568 61.8075 
" clip-path="url(#p7c6b801889)" style="fill: none; stroke: #b0b0b0; stroke-opacity: 0.25; stroke-width: 0.8; stroke-linecap: square"/>
     </g>
     <g id="line2d_33">
      <g>
       <use xlink:href="#m2f6a6413b0" x="535.456568" y="328.705" style="stroke: #000000; stroke-width: 0.8"/>
      </g>
     </g>
     <g id="text_20">
      <!-- 0 -->
      <g transform="translate(532.706568 343.2675) scale(0.11 -0.11)">
       <use xlink:href="#SimHei-30"/>
      </g>
     </g>
    </g>
    <g id="xtick_8">
     <g id="line2d_34">
      <path d="M 608.579632 328.705 
L 608.579632 61.8075 
" clip-path="url(#p7c6b801889)" style="fill: none; stroke: #b0b0b0; stroke-opacity: 0.25; stroke-width: 0.8; stroke-linecap: square"/>
     </g>
     <g id="line2d_35">
      <g>
       <use xlink:href="#m2f6a6413b0" x="608.579632" y="328.705" style="stroke: #000000; stroke-width: 0.8"/>
      </g>
     </g>
     <g id="text_21">
      <!-- 100 -->
      <g transform="translate(600.329632 343.2675) scale(0.11 -0.11)">
       <use xlink:href="#SimHei-31"/>
       <use xlink:href="#SimHei-30" transform="translate(50 0)"/>
       <use xlink:href="#SimHei-30" transform="translate(100 0)"/>
      </g>
     </g>
    </g>
    <g id="xtick_9">
     <g id="line2d_36">
      <path d="M 681.702696 328.705 
L 681.702696 61.8075 
" clip-path="url(#p7c6b801889)" style="fill: none; stroke: #b0b0b0; stroke-opacity: 0.25; stroke-width: 0.8; stroke-linecap: square"/>
     </g>
     <g id="line2d_37">
      <g>
       <use xlink:href="#m2f6a6413b0" x="681.702696" y="328.705" style="stroke: #000000; stroke-width: 0.8"/>
      </g>
     </g>
     <g id="text_22">
      <!-- 200 -->
      <g transform="translate(673.452696 343.2675) scale(0.11 -0.11)">
       <use xlink:href="#SimHei-32"/>
       <use xlink:href="#SimHei-30" transform="translate(50 0)"/>
       <use xlink:href="#SimHei-30" transform="translate(100 0)"/>
      </g>
     </g>
    </g>
    <g id="xtick_10">
     <g id="line2d_38">
      <path d="M 754.825761 328.705 
L 754.825761 61.8075 
" clip-path="url(#p7c6b801889)" style="fill: none; stroke: #b0b0b0; stroke-opacity: 0.25; stroke-width: 0.8; stroke-linecap: square"/>
     </g>
     <g id="line2d_39">
      <g>
       <use xlink:href="#m2f6a6413b0" x="754.825761" y="328.705" style="stroke: #000000; stroke-width: 0.8"/>
      </g>
     </g>
     <g id="text_23">
      <!-- 300 -->
      <g transform="translate(746.575761 343.2675) scale(0.11 -0.11)">
       <use xlink:href="#SimHei-33"/>
       <use xlink:href="#SimHei-30" transform="translate(50 0)"/>
       <use xlink:href="#SimHei-30" transform="translate(100 0)"/>
      </g>
     </g>
    </g>
    <g id="xtick_11">
     <g id="line2d_40">
      <path d="M 827.948825 328.705 
L 827.948825 61.8075 
" clip-path="url(#p7c6b801889)" style="fill: none; stroke: #b0b0b0; stroke-opacity: 0.25; stroke-width: 0.8; stroke-linecap: square"/>
     </g>
     <g id="line2d_41">
      <g>
       <use xlink:href="#m2f6a6413b0" x="827.948825" y="328.705" style="stroke: #000000; stroke-width: 0.8"/>
      </g>
     </g>
     <g id="text_24">
      <!-- 400 -->
      <g transform="translate(819.698825 343.2675) scale(0.11 -0.11)">
       <use xlink:href="#SimHei-34"/>
       <use xlink:href="#SimHei-30" transform="translate(50 0)"/>
       <use xlink:href="#SimHei-30" transform="translate(100 0)"/>
      </g>
     </g>
    </g>
    <g id="xtick_12">
     <g id="line2d_42">
      <path d="M 901.071889 328.705 
L 901.071889 61.8075 
" clip-path="url(#p7c6b801889)" style="fill: none; stroke: #b0b0b0; stroke-opacity: 0.25; stroke-width: 0.8; stroke-linecap: square"/>
     </g>
     <g id="line2d_43">
      <g>
       <use xlink:href="#m2f6a6413b0" x="901.071889" y="328.705" style="stroke: #000000; stroke-width: 0.8"/>
      </g>
     </g>
     <g id="text_25">
      <!-- 500 -->
      <g transform="translate(892.821889 343.2675) scale(0.11 -0.11)">
       <use xlink:href="#SimHei-35"/>
       <use xlink:href="#SimHei-30" transform="translate(50 0)"/>
       <use xlink:href="#SimHei-30" transform="translate(100 0)"/>
      </g>
     </g>
    </g>
    <g id="text_26">
     <!-- 树的数量 B -->
     <g transform="translate(691.129844 357.279219) scale(0.11 -0.11)">
      <use xlink:href="#SimHei-6811"/>
      <use xlink:href="#SimHei-7684" transform="translate(100 0)"/>
      <use xlink:href="#SimHei-6570" transform="translate(200 0)"/>
      <use xlink:href="#SimHei-91cf" transform="translate(300 0)"/>
      <use xlink:href="#SimHei-20" transform="translate(400 0)"/>
      <use xlink:href="#SimHei-42" transform="translate(450 0)"/>
     </g>
    </g>
   </g>
   <g id="matplotlib.axis_4">
    <g id="ytick_6">
     <g id="line2d_44">
      <path d="M 517.943594 300.397689 
L 919.316094 300.397689 
" clip-path="url(#p7c6b801889)" style="fill: none; stroke: #b0b0b0; stroke-opacity: 0.25; stroke-width: 0.8; stroke-linecap: square"/>
     </g>
     <g id="line2d_45">
      <g>
       <use xlink:href="#m9c8f6dcce4" x="517.943594" y="300.397689" style="stroke: #000000; stroke-width: 0.8"/>
      </g>
     </g>
     <g id="text_27">
      <!-- 0.030 -->
      <g transform="translate(483.443594 304.178939) scale(0.11 -0.11)">
       <use xlink:href="#SimHei-30"/>
       <use xlink:href="#SimHei-2e" transform="translate(50 0)"/>
       <use xlink:href="#SimHei-30" transform="translate(100 0)"/>
       <use xlink:href="#SimHei-33" transform="translate(150 0)"/>
       <use xlink:href="#SimHei-30" transform="translate(200 0)"/>
      </g>
     </g>
    </g>
    <g id="ytick_7">
     <g id="line2d_46">
      <path d="M 517.943594 268.046477 
L 919.316094 268.046477 
" clip-path="url(#p7c6b801889)" style="fill: none; stroke: #b0b0b0; stroke-opacity: 0.25; stroke-width: 0.8; stroke-linecap: square"/>
     </g>
     <g id="line2d_47">
      <g>
       <use xlink:href="#m9c8f6dcce4" x="517.943594" y="268.046477" style="stroke: #000000; stroke-width: 0.8"/>
      </g>
     </g>
     <g id="text_28">
      <!-- 0.032 -->
      <g transform="translate(483.443594 271.827727) scale(0.11 -0.11)">
       <use xlink:href="#SimHei-30"/>
       <use xlink:href="#SimHei-2e" transform="translate(50 0)"/>
       <use xlink:href="#SimHei-30" transform="translate(100 0)"/>
       <use xlink:href="#SimHei-33" transform="translate(150 0)"/>
       <use xlink:href="#SimHei-32" transform="translate(200 0)"/>
      </g>
     </g>
    </g>
    <g id="ytick_8">
     <g id="line2d_48">
      <path d="M 517.943594 235.695265 
L 919.316094 235.695265 
" clip-path="url(#p7c6b801889)" style="fill: none; stroke: #b0b0b0; stroke-opacity: 0.25; stroke-width: 0.8; stroke-linecap: square"/>
     </g>
     <g id="line2d_49">
      <g>
       <use xlink:href="#m9c8f6dcce4" x="517.943594" y="235.695265" style="stroke: #000000; stroke-width: 0.8"/>
      </g>
     </g>
     <g id="text_29">
      <!-- 0.034 -->
      <g transform="translate(483.443594 239.476515) scale(0.11 -0.11)">
       <use xlink:href="#SimHei-30"/>
       <use xlink:href="#SimHei-2e" transform="translate(50 0)"/>
       <use xlink:href="#SimHei-30" transform="translate(100 0)"/>
       <use xlink:href="#SimHei-33" transform="translate(150 0)"/>
       <use xlink:href="#SimHei-34" transform="translate(200 0)"/>
      </g>
     </g>
    </g>
    <g id="ytick_9">
     <g id="line2d_50">
      <path d="M 517.943594 203.344053 
L 919.316094 203.344053 
" clip-path="url(#p7c6b801889)" style="fill: none; stroke: #b0b0b0; stroke-opacity: 0.25; stroke-width: 0.8; stroke-linecap: square"/>
     </g>
     <g id="line2d_51">
      <g>
       <use xlink:href="#m9c8f6dcce4" x="517.943594" y="203.344053" style="stroke: #000000; stroke-width: 0.8"/>
      </g>
     </g>
     <g id="text_30">
      <!-- 0.036 -->
      <g transform="translate(483.443594 207.125303) scale(0.11 -0.11)">
       <defs>
        <path id="SimHei-36" d="M 250 1612 
Q 275 1975 387 2225 
Q 500 2475 725 2850 
L 1750 4450 
L 2325 4450 
L 1275 2800 
Q 1950 2975 2350 2750 
Q 2750 2525 2887 2237 
Q 3025 1950 3037 1612 
Q 3050 1275 2937 950 
Q 2825 625 2537 362 
Q 2250 100 1737 75 
Q 1225 50 862 262 
Q 500 475 362 862 
Q 225 1250 250 1612 
z
M 1025 787 
Q 1250 550 1625 525 
Q 2000 500 2250 775 
Q 2500 1050 2500 1575 
Q 2500 2100 2187 2300 
Q 1875 2500 1487 2450 
Q 1100 2400 925 2075 
Q 750 1750 775 1387 
Q 800 1025 1025 787 
z
" transform="scale(0.015625)"/>
       </defs>
       <use xlink:href="#SimHei-30"/>
       <use xlink:href="#SimHei-2e" transform="translate(50 0)"/>
       <use xlink:href="#SimHei-30" transform="translate(100 0)"/>
       <use xlink:href="#SimHei-33" transform="translate(150 0)"/>
       <use xlink:href="#SimHei-36" transform="translate(200 0)"/>
      </g>
     </g>
    </g>
    <g id="ytick_10">
     <g id="line2d_52">
      <path d="M 517.943594 170.992841 
L 919.316094 170.992841 
" clip-path="url(#p7c6b801889)" style="fill: none; stroke: #b0b0b0; stroke-opacity: 0.25; stroke-width: 0.8; stroke-linecap: square"/>
     </g>
     <g id="line2d_53">
      <g>
       <use xlink:href="#m9c8f6dcce4" x="517.943594" y="170.992841" style="stroke: #000000; stroke-width: 0.8"/>
      </g>
     </g>
     <g id="text_31">
      <!-- 0.038 -->
      <g transform="translate(483.443594 174.774091) scale(0.11 -0.11)">
       <defs>
        <path id="SimHei-38" d="M 175 1375 
Q 175 1675 325 1962 
Q 475 2250 825 2425 
Q 525 2600 425 2812 
Q 325 3025 312 3300 
Q 300 3575 387 3775 
Q 475 3975 650 4150 
Q 825 4325 1037 4387 
Q 1250 4450 1500 4450 
Q 1750 4450 1950 4400 
Q 2150 4350 2375 4187 
Q 2600 4025 2700 3725 
Q 2800 3425 2687 3025 
Q 2575 2625 2100 2400 
Q 2525 2275 2700 2012 
Q 2875 1750 2875 1375 
Q 2875 1000 2762 775 
Q 2650 550 2512 400 
Q 2375 250 2137 162 
Q 1900 75 1537 75 
Q 1175 75 912 162 
Q 650 250 475 425 
Q 300 600 237 837 
Q 175 1075 175 1375 
z
M 687 1400 
Q 675 1100 787 875 
Q 900 650 1200 587 
Q 1500 525 1825 600 
Q 2150 675 2275 950 
Q 2400 1225 2362 1500 
Q 2325 1775 2050 1962 
Q 1775 2150 1450 2125 
Q 1125 2100 912 1900 
Q 700 1700 687 1400 
z
M 775 3350 
Q 775 3100 950 2875 
Q 1125 2650 1500 2650 
Q 1875 2650 2062 2875 
Q 2250 3100 2237 3412 
Q 2225 3725 2012 3875 
Q 1800 4025 1437 4000 
Q 1075 3975 925 3787 
Q 775 3600 775 3350 
z
" transform="scale(0.015625)"/>
       </defs>
       <use xlink:href="#SimHei-30"/>
       <use xlink:href="#SimHei-2e" transform="translate(50 0)"/>
       <use xlink:href="#SimHei-30" transform="translate(100 0)"/>
       <use xlink:href="#SimHei-33" transform="translate(150 0)"/>
       <use xlink:href="#SimHei-38" transform="translate(200 0)"/>
      </g>
     </g>
    </g>
    <g id="ytick_11">
     <g id="line2d_54">
      <path d="M 517.943594 138.641629 
L 919.316094 138.641629 
" clip-path="url(#p7c6b801889)" style="fill: none; stroke: #b0b0b0; stroke-opacity: 0.25; stroke-width: 0.8; stroke-linecap: square"/>
     </g>
     <g id="line2d_55">
      <g>
       <use xlink:href="#m9c8f6dcce4" x="517.943594" y="138.641629" style="stroke: #000000; stroke-width: 0.8"/>
      </g>
     </g>
     <g id="text_32">
      <!-- 0.040 -->
      <g transform="translate(483.443594 142.422879) scale(0.11 -0.11)">
       <use xlink:href="#SimHei-30"/>
       <use xlink:href="#SimHei-2e" transform="translate(50 0)"/>
       <use xlink:href="#SimHei-30" transform="translate(100 0)"/>
       <use xlink:href="#SimHei-34" transform="translate(150 0)"/>
       <use xlink:href="#SimHei-30" transform="translate(200 0)"/>
      </g>
     </g>
    </g>
    <g id="ytick_12">
     <g id="line2d_56">
      <path d="M 517.943594 106.290417 
L 919.316094 106.290417 
" clip-path="url(#p7c6b801889)" style="fill: none; stroke: #b0b0b0; stroke-opacity: 0.25; stroke-width: 0.8; stroke-linecap: square"/>
     </g>
     <g id="line2d_57">
      <g>
       <use xlink:href="#m9c8f6dcce4" x="517.943594" y="106.290417" style="stroke: #000000; stroke-width: 0.8"/>
      </g>
     </g>
     <g id="text_33">
      <!-- 0.042 -->
      <g transform="translate(483.443594 110.071667) scale(0.11 -0.11)">
       <use xlink:href="#SimHei-30"/>
       <use xlink:href="#SimHei-2e" transform="translate(50 0)"/>
       <use xlink:href="#SimHei-30" transform="translate(100 0)"/>
       <use xlink:href="#SimHei-34" transform="translate(150 0)"/>
       <use xlink:href="#SimHei-32" transform="translate(200 0)"/>
      </g>
     </g>
    </g>
    <g id="ytick_13">
     <g id="line2d_58">
      <path d="M 517.943594 73.939205 
L 919.316094 73.939205 
" clip-path="url(#p7c6b801889)" style="fill: none; stroke: #b0b0b0; stroke-opacity: 0.25; stroke-width: 0.8; stroke-linecap: square"/>
     </g>
     <g id="line2d_59">
      <g>
       <use xlink:href="#m9c8f6dcce4" x="517.943594" y="73.939205" style="stroke: #000000; stroke-width: 0.8"/>
      </g>
     </g>
     <g id="text_34">
      <!-- 0.044 -->
      <g transform="translate(483.443594 77.720455) scale(0.11 -0.11)">
       <use xlink:href="#SimHei-30"/>
       <use xlink:href="#SimHei-2e" transform="translate(50 0)"/>
       <use xlink:href="#SimHei-30" transform="translate(100 0)"/>
       <use xlink:href="#SimHei-34" transform="translate(150 0)"/>
       <use xlink:href="#SimHei-34" transform="translate(200 0)"/>
      </g>
     </g>
    </g>
    <g id="text_35">
     <!-- 误差率 -->
     <g transform="translate(478.068594 211.75625) rotate(-90) scale(0.11 -0.11)">
      <use xlink:href="#SimHei-8bef"/>
      <use xlink:href="#SimHei-5dee" transform="translate(100 0)"/>
      <use xlink:href="#SimHei-7387" transform="translate(200 0)"/>
     </g>
    </g>
   </g>
   <g id="line2d_60">
    <path d="M 536.187798 176.38471 
L 901.071889 176.38471 
L 901.071889 176.38471 
" clip-path="url(#p7c6b801889)" style="fill: none; stroke: #1f77b4; stroke-width: 1.5; stroke-linecap: square"/>
   </g>
   <g id="line2d_61">
    <path d="M 536.187798 176.38471 
L 639.291319 176.38471 
L 640.02255 311.181427 
L 901.071889 311.181427 
L 901.071889 311.181427 
" clip-path="url(#p7c6b801889)" style="fill: none; stroke: #2ca02c; stroke-width: 1.5; stroke-linecap: square"/>
   </g>
   <g id="line2d_62">
    <path d="M 536.187798 176.38471 
L 543.500105 176.38471 
L 544.231335 311.181427 
L 550.081181 311.181427 
L 550.812411 305.789558 
L 645.141164 305.789558 
L 645.872395 316.573295 
L 646.603625 305.789558 
L 647.334856 316.573295 
L 654.647162 316.573295 
L 655.378393 311.181427 
L 759.213144 311.181427 
L 759.944375 289.613952 
L 788.46237 289.613952 
L 789.193601 300.397689 
L 789.924831 289.613952 
L 790.656062 289.613952 
L 791.387293 300.397689 
L 901.071889 300.397689 
L 901.071889 300.397689 
" clip-path="url(#p7c6b801889)" style="fill: none; stroke: #e07b39; stroke-width: 1.5; stroke-linecap: square"/>
   </g>
   <g id="line2d_63">
    <path d="M 536.187798 305.789558 
L 586.642713 305.789558 
L 587.373943 300.397689 
L 588.105174 305.789558 
L 588.836405 300.397689 
L 590.298866 300.397689 
L 591.030097 305.789558 
L 591.761327 300.397689 
L 592.492558 305.789558 
L 595.41748 305.789558 
L 596.148711 300.397689 
L 596.879942 305.789558 
L 599.804864 305.789558 
L 600.536095 300.397689 
L 627.591629 300.397689 
L 628.322859 316.573295 
L 631.247782 316.573295 
L 631.979013 295.005821 
L 632.710243 316.573295 
L 634.172704 316.573295 
L 634.903935 295.005821 
L 642.216242 295.005821 
L 642.947472 305.789558 
L 657.572085 305.789558 
L 658.303316 289.613952 
L 659.034546 305.789558 
L 659.765777 289.613952 
L 660.497008 305.789558 
L 661.228238 289.613952 
L 680.971466 289.613952 
L 681.702696 284.222083 
L 682.433927 289.613952 
L 684.627619 289.613952 
L 685.358849 300.397689 
L 686.09008 289.613952 
L 686.821311 300.397689 
L 687.552541 289.613952 
L 691.208695 289.613952 
L 691.939925 300.397689 
L 692.671156 289.613952 
L 693.402387 300.397689 
L 699.983462 300.397689 
L 700.714693 295.005821 
L 744.588532 295.005821 
L 745.319762 300.397689 
L 746.050993 295.005821 
L 747.513454 295.005821 
L 748.244685 300.397689 
L 748.975915 295.005821 
L 749.707146 300.397689 
L 750.438377 295.005821 
L 751.169607 300.397689 
L 751.900838 295.005821 
L 752.632069 300.397689 
L 753.363299 295.005821 
L 754.09453 300.397689 
L 754.825761 295.005821 
L 755.556991 300.397689 
L 756.288222 295.005821 
L 757.019453 300.397689 
L 757.750683 295.005821 
L 758.481914 300.397689 
L 759.213144 295.005821 
L 759.944375 300.397689 
L 760.675606 295.005821 
L 762.138067 295.005821 
L 762.869298 300.397689 
L 763.600528 300.397689 
L 764.331759 295.005821 
L 868.16651 295.005821 
L 868.897741 289.613952 
L 869.628972 289.613952 
L 870.360202 295.005821 
L 871.091433 289.613952 
L 871.822663 295.005821 
L 882.059892 295.005821 
L 882.791123 289.613952 
L 883.522354 300.397689 
L 884.253584 289.613952 
L 884.984815 295.005821 
L 887.909738 295.005821 
L 888.640968 289.613952 
L 901.071889 289.613952 
L 901.071889 289.613952 
" clip-path="url(#p7c6b801889)" style="fill: none; stroke: #9467bd; stroke-width: 1.5; stroke-linecap: square"/>
   </g>
   <g id="line2d_64">
    <path d="M 517.943594 73.939205 
L 919.316094 73.939205 
" clip-path="url(#p7c6b801889)" style="fill: none; stroke-dasharray: 0.8,1.32; stroke-dashoffset: 0; stroke: #808080; stroke-width: 0.8"/>
   </g>
   <g id="patch_7">
    <path d="M 517.943594 328.705 
L 517.943594 61.8075 
" style="fill: none; stroke: #000000; stroke-width: 0.8; stroke-linejoin: miter; stroke-linecap: square"/>
   </g>
   <g id="patch_8">
    <path d="M 517.943594 328.705 
L 919.316094 328.705 
" style="fill: none; stroke: #000000; stroke-width: 0.8; stroke-linejoin: miter; stroke-linecap: square"/>
   </g>
   <g id="text_36">
    <!-- (b) 测试误差 -->
    <g transform="translate(679.029844 55.8075) scale(0.132 -0.132)">
     <defs>
      <path id="SimHei-62" d="M 2825 1525 
Q 2825 800 2475 437 
Q 2125 75 1625 75 
Q 1350 75 1150 175 
Q 950 275 800 500 
L 800 125 
L 300 125 
L 300 4400 
L 800 4400 
L 800 2550 
Q 950 2775 1150 2887 
Q 1350 3000 1625 3000 
Q 2125 3000 2475 2625 
Q 2825 2250 2825 1525 
z
M 2275 1525 
Q 2275 2000 2087 2275 
Q 1900 2550 1525 2550 
Q 1225 2550 1012 2275 
Q 800 2000 800 1525 
Q 800 1050 1012 787 
Q 1225 525 1525 525 
Q 1900 525 2087 787 
Q 2275 1050 2275 1525 
z
" transform="scale(0.015625)"/>
      <path id="SimHei-6d4b" d="M 4025 4725 
Q 4000 4475 4000 4000 
L 4000 2225 
Q 4000 1775 4025 1350 
L 3550 1350 
L 3550 4325 
L 2350 4325 
L 2350 1325 
L 1900 1325 
Q 1925 1775 1925 2225 
L 1925 4000 
Q 1925 4200 1900 4725 
L 4025 4725 
z
M 5900 5075 
Q 5875 4800 5875 4375 
L 5875 0 
Q 5875 -325 5650 -425 
Q 5425 -525 4975 -600 
Q 4925 -325 4775 -50 
Q 5125 -50 5262 -25 
Q 5400 0 5400 250 
L 5400 4375 
Q 5400 4775 5375 5075 
L 5900 5075 
z
M 3275 3725 
Q 3225 3400 3200 2325 
Q 3175 1250 2837 550 
Q 2500 -150 2075 -600 
Q 1850 -400 1600 -325 
Q 2200 250 2475 962 
Q 2750 1675 2762 2475 
Q 2775 3275 2725 3800 
Q 3000 3750 3275 3725 
z
M 4950 4275 
Q 4925 4000 4925 3575 
L 4925 1825 
Q 4925 1300 4950 850 
L 4450 850 
Q 4475 1150 4475 1825 
L 4475 3575 
Q 4475 4000 4450 4275 
L 4950 4275 
z
M 1700 1675 
Q 1375 1075 1112 487 
Q 850 -100 725 -400 
Q 500 -200 200 -25 
Q 475 300 762 850 
Q 1050 1400 1250 2000 
Q 1475 1825 1700 1675 
z
M 3400 1050 
Q 3800 650 4300 -125 
Q 4100 -225 3875 -450 
Q 3475 275 3025 750 
Q 3225 875 3400 1050 
z
M 600 3525 
Q 1125 3125 1500 2775 
Q 1300 2575 1150 2375 
Q 825 2775 300 3150 
Q 450 3300 600 3525 
z
M 1350 4000 
Q 950 4375 475 4675 
Q 625 4850 775 5050 
Q 1300 4700 1675 4375 
Q 1500 4250 1350 4000 
z
" transform="scale(0.015625)"/>
      <path id="SimHei-8bd5" d="M 3950 3825 
Q 3925 4325 3925 4550 
Q 3925 4800 3900 5225 
Q 4200 5150 4450 5125 
Q 4425 4825 4425 4600 
L 4425 3825 
L 5150 3825 
Q 5500 3825 5875 3850 
L 5875 3400 
Q 5525 3425 5125 3425 
L 4450 3425 
Q 4500 2750 4587 2212 
Q 4675 1675 4837 1112 
Q 5000 550 5212 225 
Q 5425 -100 5500 200 
Q 5575 500 5600 900 
Q 5800 625 6100 525 
Q 5975 -275 5750 -487 
Q 5525 -700 5250 -537 
Q 4975 -375 4737 62 
Q 4500 500 4337 1075 
Q 4175 1650 4100 2262 
Q 4025 2875 3975 3425 
L 2800 3425 
Q 2300 3425 1875 3400 
L 1875 3850 
Q 2275 3825 2775 3825 
L 3950 3825 
z
M 1500 3175 
Q 1475 2675 1475 2175 
L 1475 625 
Q 1825 950 2125 1225 
Q 2225 1000 2375 800 
Q 1900 425 1125 -350 
Q 1000 -125 825 50 
Q 1025 175 1025 525 
L 1025 2725 
Q 625 2725 300 2700 
L 300 3200 
Q 625 3175 825 3175 
L 1500 3175 
z
M 3775 2175 
Q 3500 2200 3250 2200 
L 3250 575 
Q 3575 675 3900 800 
Q 3900 525 3950 325 
Q 3575 250 3150 125 
Q 2725 0 2275 -175 
Q 2200 100 2025 300 
Q 2425 350 2800 475 
L 2800 2200 
Q 2525 2200 2225 2175 
L 2225 2650 
Q 2600 2625 3000 2625 
Q 3425 2625 3775 2650 
L 3775 2175 
z
M 925 4975 
Q 1275 4650 1700 4100 
Q 1525 3925 1325 3775 
Q 1175 4050 575 4650 
Q 775 4825 925 4975 
z
M 5150 5150 
Q 5325 5000 5850 4375 
Q 5575 4200 5425 4050 
Q 5125 4525 4775 4875 
Q 4925 4975 5150 5150 
z
" transform="scale(0.015625)"/>
     </defs>
     <use xlink:href="#SimHei-28"/>
     <use xlink:href="#SimHei-62" transform="translate(50 0)"/>
     <use xlink:href="#SimHei-29" transform="translate(100 0)"/>
     <use xlink:href="#SimHei-20" transform="translate(150 0)"/>
     <use xlink:href="#SimHei-6d4b" transform="translate(200 0)"/>
     <use xlink:href="#SimHei-8bd5" transform="translate(300 0)"/>
     <use xlink:href="#SimHei-8bef" transform="translate(400 0)"/>
     <use xlink:href="#SimHei-5dee" transform="translate(500 0)"/>
    </g>
   </g>
   <g id="legend_2">
    <g id="patch_9">
     <path d="M 840.316094 138.12 
L 912.316094 138.12 
Q 914.316094 138.12 914.316094 136.12 
L 914.316094 68.8075 
Q 914.316094 66.8075 912.316094 66.8075 
L 840.316094 66.8075 
Q 838.316094 66.8075 838.316094 68.8075 
L 838.316094 136.12 
Q 838.316094 138.12 840.316094 138.12 
z
" style="fill: #ffffff; opacity: 0.8; stroke: #cccccc; stroke-linejoin: miter"/>
    </g>
    <g id="text_37">
     <!-- 学习率 λ -->
     <g transform="translate(851.566094 79.745) scale(0.11 -0.11)">
      <use xlink:href="#SimHei-5b66"/>
      <use xlink:href="#SimHei-4e60" transform="translate(100 0)"/>
      <use xlink:href="#SimHei-7387" transform="translate(200 0)"/>
      <use xlink:href="#SimHei-20" transform="translate(300 0)"/>
      <use xlink:href="#SimHei-3bb" transform="translate(350 0)"/>
     </g>
    </g>
    <g id="line2d_65">
     <path d="M 842.316094 89.62 
L 852.316094 89.62 
L 862.316094 89.62 
" style="fill: none; stroke: #1f77b4; stroke-width: 1.5; stroke-linecap: square"/>
    </g>
    <g id="text_38">
     <!-- λ=0.001 -->
     <g transform="translate(870.316094 93.12) scale(0.1 -0.1)">
      <use xlink:href="#SimHei-3bb"/>
      <use xlink:href="#SimHei-3d" transform="translate(100 0)"/>
      <use xlink:href="#SimHei-30" transform="translate(150 0)"/>
      <use xlink:href="#SimHei-2e" transform="translate(200 0)"/>
      <use xlink:href="#SimHei-30" transform="translate(250 0)"/>
      <use xlink:href="#SimHei-30" transform="translate(300 0)"/>
      <use xlink:href="#SimHei-31" transform="translate(350 0)"/>
     </g>
    </g>
    <g id="line2d_66">
     <path d="M 842.316094 102.87 
L 852.316094 102.87 
L 862.316094 102.87 
" style="fill: none; stroke: #2ca02c; stroke-width: 1.5; stroke-linecap: square"/>
    </g>
    <g id="text_39">
     <!-- λ=0.01 -->
     <g transform="translate(870.316094 106.37) scale(0.1 -0.1)">
      <use xlink:href="#SimHei-3bb"/>
      <use xlink:href="#SimHei-3d" transform="translate(100 0)"/>
      <use xlink:href="#SimHei-30" transform="translate(150 0)"/>
      <use xlink:href="#SimHei-2e" transform="translate(200 0)"/>
      <use xlink:href="#SimHei-30" transform="translate(250 0)"/>
      <use xlink:href="#SimHei-31" transform="translate(300 0)"/>
     </g>
    </g>
    <g id="line2d_67">
     <path d="M 842.316094 116.12 
L 852.316094 116.12 
L 862.316094 116.12 
" style="fill: none; stroke: #e07b39; stroke-width: 1.5; stroke-linecap: square"/>
    </g>
    <g id="text_40">
     <!-- λ=0.1 -->
     <g transform="translate(870.316094 119.62) scale(0.1 -0.1)">
      <use xlink:href="#SimHei-3bb"/>
      <use xlink:href="#SimHei-3d" transform="translate(100 0)"/>
      <use xlink:href="#SimHei-30" transform="translate(150 0)"/>
      <use xlink:href="#SimHei-2e" transform="translate(200 0)"/>
      <use xlink:href="#SimHei-31" transform="translate(250 0)"/>
     </g>
    </g>
    <g id="line2d_68">
     <path d="M 842.316094 129.37 
L 852.316094 129.37 
L 862.316094 129.37 
" style="fill: none; stroke: #9467bd; stroke-width: 1.5; stroke-linecap: square"/>
    </g>
    <g id="text_41">
     <!-- λ=0.3 -->
     <g transform="translate(870.316094 132.87) scale(0.1 -0.1)">
      <use xlink:href="#SimHei-3bb"/>
      <use xlink:href="#SimHei-3d" transform="translate(100 0)"/>
      <use xlink:href="#SimHei-30" transform="translate(150 0)"/>
      <use xlink:href="#SimHei-2e" transform="translate(200 0)"/>
      <use xlink:href="#SimHei-33" transform="translate(250 0)"/>
     </g>
    </g>
   </g>
  </g>
  <g id="text_42">
   <!-- 图 12  Boosting（深度=1）：不同学习率下的训练与测试误差 -->
   <g transform="translate(311.946094 16.309375) scale(0.11 -0.11)">
    <defs>
     <path id="SimHei-56fe" d="M 5800 4975 
Q 5775 4350 5775 3600 
L 5775 925 
Q 5775 150 5800 -600 
L 5300 -600 
L 5300 -275 
L 1125 -275 
L 1125 -650 
L 625 -650 
Q 650 125 650 950 
L 650 3600 
Q 650 4325 625 4975 
L 5800 4975 
z
M 5300 150 
L 5300 4575 
L 1125 4575 
L 1125 150 
L 5300 150 
z
M 3225 4250 
Q 3075 4100 2950 3925 
L 4625 3925 
Q 4525 3700 4300 3375 
Q 4075 3050 3600 2600 
Q 4350 2225 5075 2150 
Q 4900 1925 4775 1675 
Q 3850 1950 3225 2350 
Q 2500 1875 1675 1650 
Q 1600 1875 1400 2075 
Q 2200 2200 2875 2600 
Q 2525 2925 2375 3150 
Q 2150 2900 1900 2650 
Q 1725 2850 1525 2950 
Q 1950 3300 2250 3737 
Q 2550 4175 2675 4475 
Q 2925 4350 3225 4250 
z
M 2450 1275 
Q 3550 950 4100 725 
Q 3975 525 3850 300 
Q 2825 725 2275 850 
Q 2375 1050 2450 1275 
z
M 2925 2050 
Q 3775 1700 4075 1600 
Q 3950 1400 3850 1150 
Q 3000 1550 2700 1650 
Q 2825 1825 2925 2050 
z
M 2625 3450 
Q 3000 3025 3275 2850 
Q 3600 3100 3875 3525 
L 2675 3525 
L 2625 3450 
z
" transform="scale(0.015625)"/>
     <path id="SimHei-6f" d="M 2925 1525 
Q 2925 875 2525 475 
Q 2125 75 1575 75 
Q 1025 75 625 475 
Q 225 875 225 1525 
Q 225 2175 625 2575 
Q 1025 2975 1575 2975 
Q 2125 2975 2525 2575 
Q 2925 2175 2925 1525 
z
M 2375 1525 
Q 2375 2025 2125 2275 
Q 1875 2525 1575 2525 
Q 1275 2525 1025 2275 
Q 775 2025 775 1525 
Q 775 1025 1025 775 
Q 1275 525 1575 525 
Q 1875 525 2125 775 
Q 2375 1025 2375 1525 
z
" transform="scale(0.015625)"/>
     <path id="SimHei-73" d="M 2750 900 
Q 2750 500 2437 287 
Q 2125 75 1650 75 
Q 1050 75 725 312 
Q 400 550 400 1000 
L 900 1000 
Q 900 700 1112 600 
Q 1325 500 1625 500 
Q 1925 500 2075 612 
Q 2225 725 2225 900 
Q 2225 1025 2100 1150 
Q 1975 1275 1475 1350 
Q 900 1425 687 1637 
Q 475 1850 475 2200 
Q 475 2500 762 2737 
Q 1050 2975 1600 2975 
Q 2100 2975 2387 2750 
Q 2675 2525 2675 2150 
L 2175 2150 
Q 2175 2375 2012 2462 
Q 1850 2550 1600 2550 
Q 1275 2550 1137 2437 
Q 1000 2325 1000 2175 
Q 1000 2000 1125 1900 
Q 1250 1800 1650 1750 
Q 2300 1650 2525 1437 
Q 2750 1225 2750 900 
z
" transform="scale(0.015625)"/>
     <path id="SimHei-74" d="M 2750 200 
Q 2625 150 2462 112 
Q 2300 75 2025 75 
Q 1575 75 1300 325 
Q 1025 575 1025 1025 
L 1025 2525 
L 175 2525 
L 175 2925 
L 1025 2925 
L 1025 3900 
L 1525 3900 
L 1525 2925 
L 2550 2925 
L 2550 2525 
L 1525 2525 
L 1525 1000 
Q 1525 800 1625 662 
Q 1725 525 2000 525 
Q 2275 525 2450 575 
Q 2625 625 2750 700 
L 2750 200 
z
" transform="scale(0.015625)"/>
     <path id="SimHei-69" d="M 1800 3725 
L 1300 3725 
L 1300 4375 
L 1800 4375 
L 1800 3725 
z
M 1800 125 
L 1300 125 
L 1300 2925 
L 1800 2925 
L 1800 125 
z
" transform="scale(0.015625)"/>
     <path id="SimHei-6e" d="M 2800 125 
L 2300 125 
L 2300 1925 
Q 2300 2225 2150 2400 
Q 2000 2575 1750 2575 
Q 1425 2575 1137 2237 
Q 850 1900 850 1400 
L 850 125 
L 350 125 
L 350 2925 
L 850 2925 
L 850 2400 
Q 1050 2675 1287 2825 
Q 1525 2975 1900 2975 
Q 2350 2975 2575 2725 
Q 2800 2475 2800 2100 
L 2800 125 
z
" transform="scale(0.015625)"/>
     <path id="SimHei-67" d="M 2975 2500 
Q 2800 2550 2637 2562 
Q 2475 2575 2300 2525 
Q 2375 2450 2425 2337 
Q 2475 2225 2475 2000 
Q 2475 1575 2187 1300 
Q 1900 1025 1475 1025 
Q 1375 1025 1212 1062 
Q 1050 1100 950 1150 
Q 875 1100 850 1050 
Q 825 1000 825 925 
Q 825 800 1000 737 
Q 1175 675 1625 675 
Q 2350 675 2612 475 
Q 2875 275 2875 -25 
Q 2875 -425 2487 -612 
Q 2100 -800 1575 -800 
Q 900 -800 575 -625 
Q 250 -450 250 -150 
Q 250 0 375 150 
Q 500 300 700 400 
Q 550 475 462 587 
Q 375 700 375 875 
Q 375 1025 487 1137 
Q 600 1250 750 1325 
Q 625 1450 550 1625 
Q 475 1800 475 2000 
Q 475 2425 762 2700 
Q 1050 2975 1475 2975 
Q 1700 2975 1862 2912 
Q 2025 2850 2150 2725 
Q 2350 2875 2550 2937 
Q 2750 3000 2975 2975 
L 2975 2500 
z
M 1975 2000 
Q 1975 2250 1850 2400 
Q 1725 2550 1475 2550 
Q 1225 2550 1100 2400 
Q 975 2250 975 2000 
Q 975 1750 1100 1600 
Q 1225 1450 1475 1450 
Q 1725 1450 1850 1600 
Q 1975 1750 1975 2000 
z
M 2400 -75 
Q 2400 25 2287 125 
Q 2175 225 1725 225 
Q 1625 225 1450 237 
Q 1275 250 1050 275 
Q 850 200 775 100 
Q 700 0 700 -100 
Q 700 -250 900 -350 
Q 1100 -450 1600 -450 
Q 2025 -450 2212 -337 
Q 2400 -225 2400 -75 
z
" transform="scale(0.015625)"/>
     <path id="SimHei-ff08" d="M 5425 5100 
L 5700 4775 
Q 4275 3725 4325 2350 
Q 4350 1025 5675 50 
L 5400 -275 
Q 3875 825 3925 2500 
Q 3925 3875 5425 5100 
z
" transform="scale(0.015625)"/>
     <path id="SimHei-6df1" d="M 3675 -625 
Q 3700 -175 3700 25 
L 3700 1675 
Q 3350 975 2925 475 
Q 2500 -25 2150 -325 
Q 2000 -150 1700 0 
Q 2150 275 2600 800 
Q 3050 1325 3225 1825 
Q 2600 1825 2125 1800 
L 2125 2250 
Q 2525 2225 3700 2225 
Q 3700 2675 3675 3050 
L 4200 3050 
Q 4175 2675 4175 2225 
Q 5400 2225 6000 2250 
L 6000 1800 
Q 5600 1825 4575 1825 
Q 4750 1325 5175 862 
Q 5600 400 6125 200 
Q 5825 75 5725 -200 
Q 5200 100 4800 562 
Q 4400 1025 4175 1750 
L 4175 25 
Q 4175 -125 4225 -625 
L 3675 -625 
z
M 5875 4850 
Q 5850 4600 5850 4300 
Q 5850 4025 5875 3725 
L 5375 3725 
L 5375 4450 
L 2550 4450 
L 2550 3650 
L 2075 3650 
Q 2100 4025 2100 4275 
Q 2100 4525 2075 4850 
L 5875 4850 
z
M 1850 1525 
Q 1625 1150 1362 487 
Q 1100 -175 975 -525 
Q 725 -350 375 -250 
Q 625 50 950 712 
Q 1275 1375 1450 1850 
Q 1625 1650 1850 1525 
z
M 4625 4075 
Q 5100 3650 5700 2975 
Q 5450 2825 5300 2625 
Q 4775 3350 4250 3775 
Q 4450 3925 4625 4075 
z
M 3700 3750 
Q 3500 3650 3200 3312 
Q 2900 2975 2500 2600 
Q 2325 2775 2050 2900 
Q 2425 3125 2775 3487 
Q 3125 3850 3250 4050 
Q 3425 3900 3700 3750 
z
M 550 3650 
Q 1125 3300 1600 2900 
Q 1450 2750 1300 2500 
Q 850 2975 275 3275 
Q 400 3450 550 3650 
z
M 1000 5150 
Q 1450 4850 1950 4400 
Q 1775 4250 1625 4025 
Q 1175 4525 675 4850 
Q 850 4950 1000 5150 
z
" transform="scale(0.015625)"/>
     <path id="SimHei-5ea6" d="M 1750 1675 
Q 2450 1650 2875 1650 
L 5200 1650 
Q 4975 1250 4650 850 
Q 4325 450 4025 200 
Q 4350 50 4950 -50 
Q 5550 -150 6100 -150 
Q 5950 -300 5825 -650 
Q 5100 -550 4550 -412 
Q 4000 -275 3625 -100 
Q 3100 -325 2587 -462 
Q 2075 -600 1525 -675 
Q 1450 -475 1225 -250 
Q 1675 -250 2250 -125 
Q 2825 0 3250 200 
Q 2825 550 2400 1275 
L 1750 1250 
L 1750 1675 
z
M 2975 5075 
Q 3250 5150 3475 5250 
Q 3625 4975 3775 4525 
L 4700 4525 
Q 4975 4525 5700 4550 
L 5700 4100 
Q 5000 4125 4650 4125 
L 1375 4125 
Q 1375 3000 1350 2312 
Q 1325 1625 1212 950 
Q 1100 275 725 -525 
Q 500 -375 250 -300 
Q 650 400 762 1075 
Q 875 1750 887 2800 
Q 900 3850 875 4525 
L 3200 4525 
Q 3100 4850 2975 5075 
z
M 2475 3300 
Q 2475 3700 2450 3925 
L 2975 3925 
Q 2950 3725 2950 3300 
L 4300 3300 
Q 4300 3700 4275 3950 
L 4800 3950 
Q 4775 3650 4775 3300 
Q 5325 3300 5725 3325 
L 5725 2900 
Q 5350 2925 4775 2925 
Q 4775 2250 4800 1950 
L 2450 1950 
Q 2475 2350 2475 2925 
Q 2175 2925 1600 2900 
L 1600 3325 
Q 2175 3300 2475 3300 
z
M 4300 2350 
L 4300 2925 
L 2950 2925 
L 2950 2350 
L 4300 2350 
z
M 2875 1275 
Q 3200 775 3650 425 
Q 4025 700 4425 1275 
L 2900 1275 
L 2875 1275 
z
" transform="scale(0.015625)"/>
     <path id="SimHei-ff09" d="M 1000 5100 
Q 2500 3875 2500 2500 
Q 2550 825 1025 -275 
L 750 50 
Q 2075 1025 2100 2350 
Q 2150 3725 725 4775 
L 1000 5100 
z
" transform="scale(0.015625)"/>
     <path id="SimHei-ff1a" d="M 1200 2425 
L 2025 2425 
L 2025 1600 
L 1200 1600 
L 1200 2425 
z
M 1200 825 
L 2025 825 
L 2025 0 
L 1200 0 
L 1200 825 
z
" transform="scale(0.015625)"/>
     <path id="SimHei-4e0d" d="M 5975 4450 
Q 5525 4475 5200 4475 
L 3725 4475 
Q 3550 4125 3300 3700 
L 3300 575 
Q 3300 75 3325 -550 
L 2775 -550 
Q 2800 50 2800 575 
L 2800 3025 
Q 2025 1950 700 1050 
Q 500 1350 325 1475 
Q 825 1700 1650 2437 
Q 2475 3175 3175 4475 
L 1525 4475 
Q 1050 4475 525 4450 
L 525 4950 
Q 1275 4925 1675 4925 
L 5175 4925 
Q 5500 4925 5975 4950 
L 5975 4450 
z
M 5450 1125 
Q 4975 1725 3750 2975 
Q 3950 3150 4075 3325 
Q 4675 2775 5100 2362 
Q 5525 1950 5900 1550 
Q 5650 1350 5450 1125 
z
" transform="scale(0.015625)"/>
     <path id="SimHei-540c" d="M 5825 4925 
Q 5775 4550 5775 3975 
L 5775 -50 
Q 5775 -400 5525 -487 
Q 5275 -575 4725 -625 
Q 4725 -400 4525 -50 
Q 4925 -50 5100 -12 
Q 5275 25 5275 200 
L 5275 4450 
L 1150 4450 
L 1150 -600 
L 575 -600 
Q 600 -250 625 200 
L 625 3975 
Q 625 4575 600 4925 
L 5825 4925 
z
M 4375 2550 
Q 4325 2275 4325 1700 
Q 4325 1150 4375 725 
L 2025 725 
Q 2050 1175 2050 1750 
Q 2050 2325 2025 2550 
L 4375 2550 
z
M 4100 3750 
Q 4600 3750 4825 3775 
L 4825 3275 
Q 4575 3300 4075 3300 
L 2450 3300 
Q 1850 3300 1600 3275 
L 1600 3775 
Q 1875 3750 2475 3750 
L 4100 3750 
z
M 3875 1150 
L 3875 2150 
L 2525 2150 
L 2525 1150 
L 3875 1150 
z
" transform="scale(0.015625)"/>
     <path id="SimHei-4e0b" d="M 5000 4700 
Q 5475 4700 5975 4725 
L 5975 4200 
Q 5425 4225 5000 4225 
L 3275 4225 
L 3275 375 
Q 3275 50 3300 -450 
L 2725 -450 
Q 2750 0 2750 375 
L 2750 4225 
L 1375 4225 
Q 875 4225 400 4200 
L 400 4725 
Q 875 4700 1375 4700 
L 5000 4700 
z
M 5650 1400 
Q 5400 1225 5200 1000 
Q 4800 1525 3650 2575 
L 4025 2950 
Q 4700 2400 5650 1400 
z
" transform="scale(0.015625)"/>
     <path id="SimHei-4e0e" d="M 5350 100 
Q 5275 -300 4925 -425 
Q 4575 -550 3900 -600 
Q 3875 -375 3650 -25 
Q 4375 -50 4575 0 
Q 4775 50 4837 225 
Q 4900 400 5100 2350 
L 1125 2350 
Q 1450 4350 1475 5200 
Q 1800 5150 2075 5125 
Q 1975 4825 1900 4275 
L 4900 4275 
Q 5400 4275 5800 4300 
L 5800 3825 
Q 5400 3850 4950 3850 
L 1850 3850 
L 1700 2750 
L 5675 2750 
Q 5625 2450 5575 2050 
L 5350 100 
z
M 3675 1350 
Q 4125 1350 4500 1375 
L 4500 875 
Q 4125 900 3850 900 
L 1450 900 
Q 1000 900 500 875 
L 500 1375 
Q 1000 1350 1450 1350 
L 3675 1350 
z
" transform="scale(0.015625)"/>
    </defs>
    <use xlink:href="#SimHei-56fe"/>
    <use xlink:href="#SimHei-20" transform="translate(100 0)"/>
    <use xlink:href="#SimHei-31" transform="translate(150 0)"/>
    <use xlink:href="#SimHei-32" transform="translate(200 0)"/>
    <use xlink:href="#SimHei-20" transform="translate(250 0)"/>
    <use xlink:href="#SimHei-20" transform="translate(300 0)"/>
    <use xlink:href="#SimHei-42" transform="translate(350 0)"/>
    <use xlink:href="#SimHei-6f" transform="translate(400 0)"/>
    <use xlink:href="#SimHei-6f" transform="translate(450 0)"/>
    <use xlink:href="#SimHei-73" transform="translate(500 0)"/>
    <use xlink:href="#SimHei-74" transform="translate(550 0)"/>
    <use xlink:href="#SimHei-69" transform="translate(600 0)"/>
    <use xlink:href="#SimHei-6e" transform="translate(650 0)"/>
    <use xlink:href="#SimHei-67" transform="translate(700 0)"/>
    <use xlink:href="#SimHei-ff08" transform="translate(750 0)"/>
    <use xlink:href="#SimHei-6df1" transform="translate(850 0)"/>
    <use xlink:href="#SimHei-5ea6" transform="translate(950 0)"/>
    <use xlink:href="#SimHei-3d" transform="translate(1050 0)"/>
    <use xlink:href="#SimHei-31" transform="translate(1100 0)"/>
    <use xlink:href="#SimHei-ff09" transform="translate(1150 0)"/>
    <use xlink:href="#SimHei-ff1a" transform="translate(1250 0)"/>
    <use xlink:href="#SimHei-4e0d" transform="translate(1350 0)"/>
    <use xlink:href="#SimHei-540c" transform="translate(1450 0)"/>
    <use xlink:href="#SimHei-5b66" transform="translate(1550 0)"/>
    <use xlink:href="#SimHei-4e60" transform="translate(1650 0)"/>
    <use xlink:href="#SimHei-7387" transform="translate(1750 0)"/>
    <use xlink:href="#SimHei-4e0b" transform="translate(1850 0)"/>
    <use xlink:href="#SimHei-7684" transform="translate(1950 0)"/>
    <use xlink:href="#SimHei-8bad" transform="translate(2050 0)"/>
    <use xlink:href="#SimHei-7ec3" transform="translate(2150 0)"/>
    <use xlink:href="#SimHei-4e0e" transform="translate(2250 0)"/>
    <use xlink:href="#SimHei-6d4b" transform="translate(2350 0)"/>
    <use xlink:href="#SimHei-8bd5" transform="translate(2450 0)"/>
    <use xlink:href="#SimHei-8bef" transform="translate(2550 0)"/>
    <use xlink:href="#SimHei-5dee" transform="translate(2650 0)"/>
   </g>
  </g>
 </g>
 <defs>
  <clipPath id="p49c75df628">
   <rect x="55.883594" y="61.8075" width="401.3725" height="266.8975"/>
  </clipPath>
  <clipPath id="p7c6b801889">
   <rect x="517.943594" y="61.8075" width="401.3725" height="266.8975"/>
  </clipPath>
 </defs>
</svg>
