<?xml version="1.0" encoding="utf-8" standalone="no"?>
<!DOCTYPE svg PUBLIC "-//W3C//DTD SVG 1.1//EN"
  "http://www.w3.org/Graphics/SVG/1.1/DTD/svg11.dtd">
<svg xmlns:xlink="http://www.w3.org/1999/xlink" width="566.526562pt" height="333.60525pt" viewBox="0 0 566.526562 333.60525" xmlns="http://www.w3.org/2000/svg" version="1.1">
 <metadata>
  <rdf:RDF xmlns:dc="http://purl.org/dc/elements/1.1/" xmlns:cc="http://creativecommons.org/ns#" xmlns:rdf="http://www.w3.org/1999/02/22-rdf-syntax-ns#">
   <cc:Work>
    <dc:type rdf:resource="http://purl.org/dc/dcmitype/StillImage"/>
    <dc:date>2026-04-30T00:54:24.339979</dc:date>
    <dc:format>image/svg+xml</dc:format>
    <dc:creator>
     <cc:Agent>
      <dc:title>Matplotlib v3.10.8, https://matplotlib.org/</dc:title>
     </cc:Agent>
    </dc:creator>
   </cc:Work>
  </rdf:RDF>
 </metadata>
 <defs>
  <style type="text/css">*{stroke-linejoin: round; stroke-linecap: butt}</style>
 </defs>
 <g id="figure_1">
  <g id="patch_1">
   <path d="M 0 333.60525 
L 566.526562 333.60525 
L 566.526562 0 
L 0 0 
z
" style="fill: #ffffff"/>
  </g>
  <g id="axes_1">
   <g id="patch_2">
    <path d="M 50.426563 293.37775 
L 559.326563 293.37775 
L 559.326563 23.71875 
L 50.426563 23.71875 
z
" style="fill: #ffffff"/>
   </g>
   <g id="FillBetweenPolyCollection_1">
    <path d="M 73.558381 281.120523 
L 73.558381 280.618973 
L 74.485508 280.59374 
L 75.412635 280.567344 
L 76.339762 280.53974 
L 77.266889 280.510877 
L 78.194016 280.480705 
L 79.121143 280.449171 
L 80.04827 280.41622 
L 80.975397 280.381796 
L 81.902524 280.345841 
L 82.82965 280.308295 
L 83.756777 280.269095 
L 84.683904 280.228178 
L 85.611031 280.185477 
L 86.538158 280.140925 
L 87.465285 280.094449 
L 88.392412 280.045979 
L 89.319539 279.995439 
L 90.246666 279.942752 
L 91.173793 279.887839 
L 92.10092 279.830617 
L 93.028047 279.771002 
L 93.955174 279.708908 
L 94.882301 279.644246 
L 95.809428 279.576923 
L 96.736555 279.506845 
L 97.663682 279.433915 
L 98.590809 279.358033 
L 99.517936 279.279098 
L 100.445063 279.197002 
L 101.37219 279.11164 
L 102.299317 279.022898 
L 103.226444 278.930665 
L 104.153571 278.834822 
L 105.080698 278.735251 
L 106.007825 278.631828 
L 106.934952 278.524429 
L 107.862079 278.412923 
L 108.789206 278.29718 
L 109.716333 278.177064 
L 110.64346 278.052437 
L 111.570587 277.923158 
L 112.497714 277.789083 
L 113.424841 277.650063 
L 114.351968 277.505948 
L 115.279095 277.356584 
L 116.206222 277.201814 
L 117.133349 277.041476 
L 118.060476 276.875408 
L 118.987603 276.703441 
L 119.91473 276.525406 
L 120.841857 276.341128 
L 121.768984 276.150432 
L 122.696111 275.953136 
L 123.623238 275.749058 
L 124.550365 275.53801 
L 125.477492 275.319804 
L 126.404619 275.094246 
L 127.331746 274.86114 
L 128.258873 274.620287 
L 129.186 274.371484 
L 130.113127 274.114528 
L 131.040254 273.849209 
L 131.96738 273.575316 
L 132.894507 273.292635 
L 133.821634 273.000951 
L 134.748761 272.700042 
L 135.675888 272.389688 
L 136.603015 272.069663 
L 137.530142 271.73974 
L 138.457269 271.39969 
L 139.384396 271.049281 
L 140.311523 270.688279 
L 141.23865 270.316448 
L 142.165777 269.933549 
L 143.092904 269.539342 
L 144.020031 269.133587 
L 144.947158 268.716038 
L 145.874285 268.286453 
L 146.801412 267.844584 
L 147.728539 267.390184 
L 148.655666 266.923004 
L 149.582793 266.442797 
L 150.50992 265.949311 
L 151.437047 265.442296 
L 152.364174 264.921502 
L 153.291301 264.386677 
L 154.218428 263.837572 
L 155.145555 263.273934 
L 156.072682 262.695515 
L 156.999809 262.102064 
L 157.926936 261.493333 
L 158.854063 260.869075 
L 159.78119 260.229043 
L 160.708317 259.572993 
L 161.635444 258.900682 
L 162.562571 258.21187 
L 163.489698 257.506318 
L 164.416825 256.783791 
L 165.343952 256.044055 
L 166.271079 255.286882 
L 167.198206 254.512044 
L 168.125333 253.71932 
L 169.05246 252.90849 
L 169.979587 252.079341 
L 170.906714 251.231662 
L 171.833841 250.365249 
L 172.760968 249.479902 
L 173.688095 248.575427 
L 174.615222 247.651635 
L 175.542349 246.708344 
L 176.469476 245.745379 
L 177.396603 244.76257 
L 178.32373 243.759755 
L 179.250857 242.736779 
L 180.177984 241.693496 
L 181.105111 240.629766 
L 182.032237 239.54546 
L 182.959364 238.440455 
L 183.886491 237.314639 
L 184.813618 236.167908 
L 185.740745 235.000169 
L 186.667872 233.811338 
L 187.594999 232.601342 
L 188.522126 231.370118 
L 189.449253 230.117614 
L 190.37638 228.843791 
L 191.303507 227.54862 
L 192.230634 226.232083 
L 193.157761 224.894177 
L 194.084888 223.53491 
L 195.012015 222.154303 
L 195.939142 220.75239 
L 196.866269 219.329218 
L 197.793396 217.884849 
L 198.720523 216.419358 
L 199.64765 214.932835 
L 200.574777 213.425384 
L 201.501904 211.897125 
L 202.429031 210.34819 
L 203.356158 208.77873 
L 204.283285 207.188908 
L 205.210412 205.578906 
L 206.137539 203.94892 
L 207.064666 202.299162 
L 207.991793 200.629861 
L 208.91892 198.941261 
L 209.846047 197.233626 
L 210.773174 195.507232 
L 211.700301 193.762377 
L 212.627428 191.999371 
L 213.554555 190.218544 
L 214.481682 188.420243 
L 215.408809 186.604831 
L 216.335936 184.77269 
L 217.263063 182.924218 
L 218.19019 181.05983 
L 219.117317 179.17996 
L 220.044444 177.285059 
L 220.971571 175.375593 
L 221.898698 173.452048 
L 222.825825 171.514926 
L 223.752952 169.564746 
L 224.680079 167.602045 
L 225.607206 165.627375 
L 226.534333 163.641307 
L 227.46146 161.644428 
L 228.388587 159.637339 
L 229.315714 157.620661 
L 230.242841 155.595028 
L 231.169967 153.561091 
L 232.097094 151.519518 
L 233.024221 149.470989 
L 233.951348 147.416201 
L 234.878475 145.355865 
L 235.805602 143.290708 
L 236.732729 141.221468 
L 237.659856 139.148899 
L 238.586983 137.073767 
L 239.51411 134.996851 
L 240.441237 132.918943 
L 241.368364 130.840846 
L 242.295491 128.763375 
L 243.222618 126.687356 
L 244.149745 124.613625 
L 245.076872 122.543028 
L 246.003999 120.476421 
L 246.931126 118.414669 
L 247.858253 116.358644 
L 248.78538 114.309228 
L 249.712507 112.267307 
L 250.639634 110.233777 
L 251.566761 108.209538 
L 252.493888 106.195494 
L 253.421015 104.192557 
L 254.348142 102.20164 
L 255.275269 100.22366 
L 256.202396 98.259539 
L 257.129523 96.310197 
L 258.05665 94.376557 
L 258.983777 92.459544 
L 259.910904 90.560081 
L 260.838031 88.67909 
L 261.765158 86.817492 
L 262.692285 84.976206 
L 263.619412 83.156146 
L 264.546539 81.358223 
L 265.473666 79.583346 
L 266.400793 77.832414 
L 267.32792 76.106322 
L 268.255047 74.405959 
L 269.182174 72.732206 
L 270.109301 71.085933 
L 271.036428 69.468005 
L 271.963555 67.879273 
L 272.890682 66.320579 
L 273.817809 64.792756 
L 274.744936 63.29662 
L 275.672063 61.832978 
L 276.59919 60.402622 
L 277.526317 59.006329 
L 278.453444 57.644863 
L 279.380571 56.318969 
L 280.307697 55.029379 
L 281.234824 53.776807 
L 282.161951 52.561947 
L 283.089078 51.385477 
L 284.016205 50.248056 
L 284.943332 49.150323 
L 285.870459 48.092895 
L 286.797586 47.076371 
L 287.724713 46.101327 
L 288.65184 45.168318 
L 289.578967 44.277876 
L 290.506094 43.43051 
L 291.433221 42.626705 
L 292.360348 41.866924 
L 293.287475 41.151603 
L 294.214602 40.481157 
L 295.141729 39.855972 
L 296.068856 39.27641 
L 296.995983 38.742808 
L 297.92311 38.255477 
L 298.850237 37.814698 
L 299.777364 37.420731 
L 300.704491 37.073803 
L 301.631618 36.774118 
L 302.558745 36.521851 
L 303.485872 36.31715 
L 304.412999 36.160134 
L 305.340126 36.050895 
L 306.267253 35.989498 
L 307.19438 35.975977 
L 308.121507 36.010342 
L 309.048634 36.092572 
L 309.975761 36.222619 
L 310.902888 36.400406 
L 311.830015 36.62583 
L 312.757142 36.898759 
L 313.684269 37.219032 
L 314.611396 37.586464 
L 315.538523 38.000839 
L 316.46565 38.461916 
L 317.392777 38.969427 
L 317.392777 281.120523 
L 317.392777 281.120523 
L 316.46565 281.120523 
L 315.538523 281.120523 
L 314.611396 281.120523 
L 313.684269 281.120523 
L 312.757142 281.120523 
L 311.830015 281.120523 
L 310.902888 281.120523 
L 309.975761 281.120523 
L 309.048634 281.120523 
L 308.121507 281.120523 
L 307.19438 281.120523 
L 306.267253 281.120523 
L 305.340126 281.120523 
L 304.412999 281.120523 
L 303.485872 281.120523 
L 302.558745 281.120523 
L 301.631618 281.120523 
L 300.704491 281.120523 
L 299.777364 281.120523 
L 298.850237 281.120523 
L 297.92311 281.120523 
L 296.995983 281.120523 
L 296.068856 281.120523 
L 295.141729 281.120523 
L 294.214602 281.120523 
L 293.287475 281.120523 
L 292.360348 281.120523 
L 291.433221 281.120523 
L 290.506094 281.120523 
L 289.578967 281.120523 
L 288.65184 281.120523 
L 287.724713 281.120523 
L 286.797586 281.120523 
L 285.870459 281.120523 
L 284.943332 281.120523 
L 284.016205 281.120523 
L 283.089078 281.120523 
L 282.161951 281.120523 
L 281.234824 281.120523 
L 280.307697 281.120523 
L 279.380571 281.120523 
L 278.453444 281.120523 
L 277.526317 281.120523 
L 276.59919 281.120523 
L 275.672063 281.120523 
L 274.744936 281.120523 
L 273.817809 281.120523 
L 272.890682 281.120523 
L 271.963555 281.120523 
L 271.036428 281.120523 
L 270.109301 281.120523 
L 269.182174 281.120523 
L 268.255047 281.120523 
L 267.32792 281.120523 
L 266.400793 281.120523 
L 265.473666 281.120523 
L 264.546539 281.120523 
L 263.619412 281.120523 
L 262.692285 281.120523 
L 261.765158 281.120523 
L 260.838031 281.120523 
L 259.910904 281.120523 
L 258.983777 281.120523 
L 258.05665 281.120523 
L 257.129523 281.120523 
L 256.202396 281.120523 
L 255.275269 281.120523 
L 254.348142 281.120523 
L 253.421015 281.120523 
L 252.493888 281.120523 
L 251.566761 281.120523 
L 250.639634 281.120523 
L 249.712507 281.120523 
L 248.78538 281.120523 
L 247.858253 281.120523 
L 246.931126 281.120523 
L 246.003999 281.120523 
L 245.076872 281.120523 
L 244.149745 281.120523 
L 243.222618 281.120523 
L 242.295491 281.120523 
L 241.368364 281.120523 
L 240.441237 281.120523 
L 239.51411 281.120523 
L 238.586983 281.120523 
L 237.659856 281.120523 
L 236.732729 281.120523 
L 235.805602 281.120523 
L 234.878475 281.120523 
L 233.951348 281.120523 
L 233.024221 281.120523 
L 232.097094 281.120523 
L 231.169967 281.120523 
L 230.242841 281.120523 
L 229.315714 281.120523 
L 228.388587 281.120523 
L 227.46146 281.120523 
L 226.534333 281.120523 
L 225.607206 281.120523 
L 224.680079 281.120523 
L 223.752952 281.120523 
L 222.825825 281.120523 
L 221.898698 281.120523 
L 220.971571 281.120523 
L 220.044444 281.120523 
L 219.117317 281.120523 
L 218.19019 281.120523 
L 217.263063 281.120523 
L 216.335936 281.120523 
L 215.408809 281.120523 
L 214.481682 281.120523 
L 213.554555 281.120523 
L 212.627428 281.120523 
L 211.700301 281.120523 
L 210.773174 281.120523 
L 209.846047 281.120523 
L 208.91892 281.120523 
L 207.991793 281.120523 
L 207.064666 281.120523 
L 206.137539 281.120523 
L 205.210412 281.120523 
L 204.283285 281.120523 
L 203.356158 281.120523 
L 202.429031 281.120523 
L 201.501904 281.120523 
L 200.574777 281.120523 
L 199.64765 281.120523 
L 198.720523 281.120523 
L 197.793396 281.120523 
L 196.866269 281.120523 
L 195.939142 281.120523 
L 195.012015 281.120523 
L 194.084888 281.120523 
L 193.157761 281.120523 
L 192.230634 281.120523 
L 191.303507 281.120523 
L 190.37638 281.120523 
L 189.449253 281.120523 
L 188.522126 281.120523 
L 187.594999 281.120523 
L 186.667872 281.120523 
L 185.740745 281.120523 
L 184.813618 281.120523 
L 183.886491 281.120523 
L 182.959364 281.120523 
L 182.032237 281.120523 
L 181.105111 281.120523 
L 180.177984 281.120523 
L 179.250857 281.120523 
L 178.32373 281.120523 
L 177.396603 281.120523 
L 176.469476 281.120523 
L 175.542349 281.120523 
L 174.615222 281.120523 
L 173.688095 281.120523 
L 172.760968 281.120523 
L 171.833841 281.120523 
L 170.906714 281.120523 
L 169.979587 281.120523 
L 169.05246 281.120523 
L 168.125333 281.120523 
L 167.198206 281.120523 
L 166.271079 281.120523 
L 165.343952 281.120523 
L 164.416825 281.120523 
L 163.489698 281.120523 
L 162.562571 281.120523 
L 161.635444 281.120523 
L 160.708317 281.120523 
L 159.78119 281.120523 
L 158.854063 281.120523 
L 157.926936 281.120523 
L 156.999809 281.120523 
L 156.072682 281.120523 
L 155.145555 281.120523 
L 154.218428 281.120523 
L 153.291301 281.120523 
L 152.364174 281.120523 
L 151.437047 281.120523 
L 150.50992 281.120523 
L 149.582793 281.120523 
L 148.655666 281.120523 
L 147.728539 281.120523 
L 146.801412 281.120523 
L 145.874285 281.120523 
L 144.947158 281.120523 
L 144.020031 281.120523 
L 143.092904 281.120523 
L 142.165777 281.120523 
L 141.23865 281.120523 
L 140.311523 281.120523 
L 139.384396 281.120523 
L 138.457269 281.120523 
L 137.530142 281.120523 
L 136.603015 281.120523 
L 135.675888 281.120523 
L 134.748761 281.120523 
L 133.821634 281.120523 
L 132.894507 281.120523 
L 131.96738 281.120523 
L 131.040254 281.120523 
L 130.113127 281.120523 
L 129.186 281.120523 
L 128.258873 281.120523 
L 127.331746 281.120523 
L 126.404619 281.120523 
L 125.477492 281.120523 
L 124.550365 281.120523 
L 123.623238 281.120523 
L 122.696111 281.120523 
L 121.768984 281.120523 
L 120.841857 281.120523 
L 119.91473 281.120523 
L 118.987603 281.120523 
L 118.060476 281.120523 
L 117.133349 281.120523 
L 116.206222 281.120523 
L 115.279095 281.120523 
L 114.351968 281.120523 
L 113.424841 281.120523 
L 112.497714 281.120523 
L 111.570587 281.120523 
L 110.64346 281.120523 
L 109.716333 281.120523 
L 108.789206 281.120523 
L 107.862079 281.120523 
L 106.934952 281.120523 
L 106.007825 281.120523 
L 105.080698 281.120523 
L 104.153571 281.120523 
L 103.226444 281.120523 
L 102.299317 281.120523 
L 101.37219 281.120523 
L 100.445063 281.120523 
L 99.517936 281.120523 
L 98.590809 281.120523 
L 97.663682 281.120523 
L 96.736555 281.120523 
L 95.809428 281.120523 
L 94.882301 281.120523 
L 93.955174 281.120523 
L 93.028047 281.120523 
L 92.10092 281.120523 
L 91.173793 281.120523 
L 90.246666 281.120523 
L 89.319539 281.120523 
L 88.392412 281.120523 
L 87.465285 281.120523 
L 86.538158 281.120523 
L 85.611031 281.120523 
L 84.683904 281.120523 
L 83.756777 281.120523 
L 82.82965 281.120523 
L 81.902524 281.120523 
L 80.975397 281.120523 
L 80.04827 281.120523 
L 79.121143 281.120523 
L 78.194016 281.120523 
L 77.266889 281.120523 
L 76.339762 281.120523 
L 75.412635 281.120523 
L 74.485508 281.120523 
L 73.558381 281.120523 
z
" clip-path="url(#p799271d658)" style="fill: #1f77b4; fill-opacity: 0.25"/>
   </g>
   <g id="FillBetweenPolyCollection_2">
    <path d="M 318.319904 281.120523 
L 318.319904 39.523075 
L 319.247031 40.12254 
L 320.174158 40.767475 
L 321.101285 41.457505 
L 322.028412 42.192232 
L 322.955539 42.971233 
L 323.882666 43.794059 
L 324.809793 44.660239 
L 325.73692 45.569275 
L 326.664047 46.520649 
L 327.591174 47.51382 
L 328.518301 48.548222 
L 329.445428 49.62327 
L 330.372554 50.738357 
L 331.299681 51.892857 
L 332.226808 53.08612 
L 333.153935 54.317482 
L 334.081062 55.586255 
L 335.008189 56.891738 
L 335.935316 58.233208 
L 336.862443 59.609928 
L 337.78957 61.021144 
L 338.716697 62.466086 
L 339.643824 63.943971 
L 340.570951 65.454001 
L 341.498078 66.995364 
L 342.425205 68.567237 
L 343.352332 70.168783 
L 344.279459 71.799155 
L 345.206586 73.457498 
L 346.133713 75.142942 
L 347.06084 76.854614 
L 347.987967 78.591629 
L 348.915094 80.353095 
L 349.842221 82.138116 
L 350.769348 83.945787 
L 351.696475 85.775199 
L 352.623602 87.625441 
L 353.550729 89.495594 
L 354.477856 91.384739 
L 355.404983 93.291956 
L 356.33211 95.21632 
L 357.259237 97.156909 
L 358.186364 99.112798 
L 359.113491 101.083065 
L 360.040618 103.06679 
L 360.967745 105.063052 
L 361.894872 107.070936 
L 362.821999 109.08953 
L 363.749126 111.117925 
L 364.676253 113.155218 
L 365.60338 115.200511 
L 366.530507 117.252913 
L 367.457634 119.311538 
L 368.384761 121.375511 
L 369.311888 123.44396 
L 370.239015 125.516026 
L 371.166142 127.590857 
L 372.093269 129.66761 
L 373.020396 131.745455 
L 373.947523 133.823569 
L 374.87465 135.901143 
L 375.801777 137.977379 
L 376.728904 140.05149 
L 377.656031 142.122704 
L 378.583158 144.190258 
L 379.510284 146.253406 
L 380.437411 148.311415 
L 381.364538 150.363565 
L 382.291665 152.409151 
L 383.218792 154.447483 
L 384.145919 156.477886 
L 385.073046 158.4997 
L 386.000173 160.51228 
L 386.9273 162.515 
L 387.854427 164.507246 
L 388.781554 166.488423 
L 389.708681 168.457952 
L 390.635808 170.415269 
L 391.562935 172.35983 
L 392.490062 174.291104 
L 393.417189 176.208581 
L 394.344316 178.111765 
L 395.271443 180.00018 
L 396.19857 181.873364 
L 397.125697 183.730876 
L 398.052824 185.572289 
L 398.979951 187.397195 
L 399.907078 189.205204 
L 400.834205 190.995942 
L 401.761332 192.769053 
L 402.688459 194.524197 
L 403.615586 196.261053 
L 404.542713 197.979316 
L 405.46984 199.678698 
L 406.396967 201.358928 
L 407.324094 203.01975 
L 408.251221 204.660929 
L 409.178348 206.282241 
L 410.105475 207.883481 
L 411.032602 209.46446 
L 411.959729 211.025004 
L 412.886856 212.564956 
L 413.813983 214.084173 
L 414.74111 215.582527 
L 415.668237 217.059906 
L 416.595364 218.516212 
L 417.522491 219.951362 
L 418.449618 221.365287 
L 419.376745 222.75793 
L 420.303872 224.129251 
L 421.230999 225.479221 
L 422.158126 226.807824 
L 423.085253 228.115059 
L 424.01238 229.400934 
L 424.939507 230.665472 
L 425.866634 231.908707 
L 426.793761 233.130683 
L 427.720888 234.331457 
L 428.648014 235.511097 
L 429.575141 236.66968 
L 430.502268 237.807294 
L 431.429395 238.924037 
L 432.356522 240.020017 
L 433.283649 241.095351 
L 434.210776 242.150163 
L 435.137903 243.184588 
L 436.06503 244.198769 
L 436.992157 245.192856 
L 437.919284 246.167006 
L 438.846411 247.121386 
L 439.773538 248.056166 
L 440.700665 248.971526 
L 441.627792 249.867651 
L 442.554919 250.744731 
L 443.482046 251.602964 
L 444.409173 252.442551 
L 445.3363 253.2637 
L 446.263427 254.066621 
L 447.190554 254.851532 
L 448.117681 255.618652 
L 449.044808 256.368207 
L 449.971935 257.100423 
L 450.899062 257.815531 
L 451.826189 258.513767 
L 452.753316 259.195366 
L 453.680443 259.860569 
L 454.60757 260.509616 
L 455.534697 261.142751 
L 456.461824 261.76022 
L 457.388951 262.362268 
L 458.316078 262.949145 
L 459.243205 263.521099 
L 460.170332 264.07838 
L 461.097459 264.621238 
L 462.024586 265.149924 
L 462.951713 265.664689 
L 463.87884 266.165783 
L 464.805967 266.653458 
L 465.733094 267.127963 
L 466.660221 267.589549 
L 467.587348 268.038464 
L 468.514475 268.474955 
L 469.441602 268.899271 
L 470.368729 269.311655 
L 471.295856 269.712353 
L 472.222983 270.101608 
L 473.15011 270.47966 
L 474.077237 270.846748 
L 475.004364 271.20311 
L 475.931491 271.54898 
L 476.858618 271.884593 
L 477.785745 272.210179 
L 478.712871 272.525967 
L 479.639998 272.832181 
L 480.567125 273.129048 
L 481.494252 273.416786 
L 482.421379 273.695614 
L 483.348506 273.965749 
L 484.275633 274.227402 
L 485.20276 274.480783 
L 486.129887 274.7261 
L 487.057014 274.963556 
L 487.984141 275.193352 
L 488.911268 275.415686 
L 489.838395 275.630752 
L 490.765522 275.838743 
L 491.692649 276.039846 
L 492.619776 276.234246 
L 493.546903 276.422126 
L 494.47403 276.603665 
L 495.401157 276.779037 
L 496.328284 276.948416 
L 497.255411 277.111969 
L 498.182538 277.269863 
L 499.109665 277.422261 
L 500.036792 277.56932 
L 500.963919 277.711198 
L 501.891046 277.848047 
L 502.818173 277.980017 
L 503.7453 278.107253 
L 504.672427 278.229899 
L 505.599554 278.348095 
L 506.526681 278.461977 
L 507.453808 278.571679 
L 508.380935 278.677332 
L 509.308062 278.779063 
L 510.235189 278.876996 
L 511.162316 278.971253 
L 512.089443 279.061952 
L 513.01657 279.149208 
L 513.943697 279.233135 
L 514.870824 279.313842 
L 515.797951 279.391436 
L 516.725078 279.46602 
L 517.652205 279.537696 
L 518.579332 279.606563 
L 519.506459 279.672716 
L 520.433586 279.736249 
L 521.360713 279.797253 
L 522.28784 279.855816 
L 523.214967 279.912022 
L 524.142094 279.965957 
L 525.069221 280.0177 
L 525.996348 280.067329 
L 526.923475 280.114922 
L 527.850601 280.160551 
L 528.777728 280.20429 
L 529.704855 280.246206 
L 530.631982 280.286367 
L 531.559109 280.324839 
L 532.486236 280.361685 
L 533.413363 280.396966 
L 534.34049 280.430742 
L 535.267617 280.463069 
L 536.194744 280.494004 
L 536.194744 281.120523 
L 536.194744 281.120523 
L 535.267617 281.120523 
L 534.34049 281.120523 
L 533.413363 281.120523 
L 532.486236 281.120523 
L 531.559109 281.120523 
L 530.631982 281.120523 
L 529.704855 281.120523 
L 528.777728 281.120523 
L 527.850601 281.120523 
L 526.923475 281.120523 
L 525.996348 281.120523 
L 525.069221 281.120523 
L 524.142094 281.120523 
L 523.214967 281.120523 
L 522.28784 281.120523 
L 521.360713 281.120523 
L 520.433586 281.120523 
L 519.506459 281.120523 
L 518.579332 281.120523 
L 517.652205 281.120523 
L 516.725078 281.120523 
L 515.797951 281.120523 
L 514.870824 281.120523 
L 513.943697 281.120523 
L 513.01657 281.120523 
L 512.089443 281.120523 
L 511.162316 281.120523 
L 510.235189 281.120523 
L 509.308062 281.120523 
L 508.380935 281.120523 
L 507.453808 281.120523 
L 506.526681 281.120523 
L 505.599554 281.120523 
L 504.672427 281.120523 
L 503.7453 281.120523 
L 502.818173 281.120523 
L 501.891046 281.120523 
L 500.963919 281.120523 
L 500.036792 281.120523 
L 499.109665 281.120523 
L 498.182538 281.120523 
L 497.255411 281.120523 
L 496.328284 281.120523 
L 495.401157 281.120523 
L 494.47403 281.120523 
L 493.546903 281.120523 
L 492.619776 281.120523 
L 491.692649 281.120523 
L 490.765522 281.120523 
L 489.838395 281.120523 
L 488.911268 281.120523 
L 487.984141 281.120523 
L 487.057014 281.120523 
L 486.129887 281.120523 
L 485.20276 281.120523 
L 484.275633 281.120523 
L 483.348506 281.120523 
L 482.421379 281.120523 
L 481.494252 281.120523 
L 480.567125 281.120523 
L 479.639998 281.120523 
L 478.712871 281.120523 
L 477.785745 281.120523 
L 476.858618 281.120523 
L 475.931491 281.120523 
L 475.004364 281.120523 
L 474.077237 281.120523 
L 473.15011 281.120523 
L 472.222983 281.120523 
L 471.295856 281.120523 
L 470.368729 281.120523 
L 469.441602 281.120523 
L 468.514475 281.120523 
L 467.587348 281.120523 
L 466.660221 281.120523 
L 465.733094 281.120523 
L 464.805967 281.120523 
L 463.87884 281.120523 
L 462.951713 281.120523 
L 462.024586 281.120523 
L 461.097459 281.120523 
L 460.170332 281.120523 
L 459.243205 281.120523 
L 458.316078 281.120523 
L 457.388951 281.120523 
L 456.461824 281.120523 
L 455.534697 281.120523 
L 454.60757 281.120523 
L 453.680443 281.120523 
L 452.753316 281.120523 
L 451.826189 281.120523 
L 450.899062 281.120523 
L 449.971935 281.120523 
L 449.044808 281.120523 
L 448.117681 281.120523 
L 447.190554 281.120523 
L 446.263427 281.120523 
L 445.3363 281.120523 
L 444.409173 281.120523 
L 443.482046 281.120523 
L 442.554919 281.120523 
L 441.627792 281.120523 
L 440.700665 281.120523 
L 439.773538 281.120523 
L 438.846411 281.120523 
L 437.919284 281.120523 
L 436.992157 281.120523 
L 436.06503 281.120523 
L 435.137903 281.120523 
L 434.210776 281.120523 
L 433.283649 281.120523 
L 432.356522 281.120523 
L 431.429395 281.120523 
L 430.502268 281.120523 
L 429.575141 281.120523 
L 428.648014 281.120523 
L 427.720888 281.120523 
L 426.793761 281.120523 
L 425.866634 281.120523 
L 424.939507 281.120523 
L 424.01238 281.120523 
L 423.085253 281.120523 
L 422.158126 281.120523 
L 421.230999 281.120523 
L 420.303872 281.120523 
L 419.376745 281.120523 
L 418.449618 281.120523 
L 417.522491 281.120523 
L 416.595364 281.120523 
L 415.668237 281.120523 
L 414.74111 281.120523 
L 413.813983 281.120523 
L 412.886856 281.120523 
L 411.959729 281.120523 
L 411.032602 281.120523 
L 410.105475 281.120523 
L 409.178348 281.120523 
L 408.251221 281.120523 
L 407.324094 281.120523 
L 406.396967 281.120523 
L 405.46984 281.120523 
L 404.542713 281.120523 
L 403.615586 281.120523 
L 402.688459 281.120523 
L 401.761332 281.120523 
L 400.834205 281.120523 
L 399.907078 281.120523 
L 398.979951 281.120523 
L 398.052824 281.120523 
L 397.125697 281.120523 
L 396.19857 281.120523 
L 395.271443 281.120523 
L 394.344316 281.120523 
L 393.417189 281.120523 
L 392.490062 281.120523 
L 391.562935 281.120523 
L 390.635808 281.120523 
L 389.708681 281.120523 
L 388.781554 281.120523 
L 387.854427 281.120523 
L 386.9273 281.120523 
L 386.000173 281.120523 
L 385.073046 281.120523 
L 384.145919 281.120523 
L 383.218792 281.120523 
L 382.291665 281.120523 
L 381.364538 281.120523 
L 380.437411 281.120523 
L 379.510284 281.120523 
L 378.583158 281.120523 
L 377.656031 281.120523 
L 376.728904 281.120523 
L 375.801777 281.120523 
L 374.87465 281.120523 
L 373.947523 281.120523 
L 373.020396 281.120523 
L 372.093269 281.120523 
L 371.166142 281.120523 
L 370.239015 281.120523 
L 369.311888 281.120523 
L 368.384761 281.120523 
L 367.457634 281.120523 
L 366.530507 281.120523 
L 365.60338 281.120523 
L 364.676253 281.120523 
L 363.749126 281.120523 
L 362.821999 281.120523 
L 361.894872 281.120523 
L 360.967745 281.120523 
L 360.040618 281.120523 
L 359.113491 281.120523 
L 358.186364 281.120523 
L 357.259237 281.120523 
L 356.33211 281.120523 
L 355.404983 281.120523 
L 354.477856 281.120523 
L 353.550729 281.120523 
L 352.623602 281.120523 
L 351.696475 281.120523 
L 350.769348 281.120523 
L 349.842221 281.120523 
L 348.915094 281.120523 
L 347.987967 281.120523 
L 347.06084 281.120523 
L 346.133713 281.120523 
L 345.206586 281.120523 
L 344.279459 281.120523 
L 343.352332 281.120523 
L 342.425205 281.120523 
L 341.498078 281.120523 
L 340.570951 281.120523 
L 339.643824 281.120523 
L 338.716697 281.120523 
L 337.78957 281.120523 
L 336.862443 281.120523 
L 335.935316 281.120523 
L 335.008189 281.120523 
L 334.081062 281.120523 
L 333.153935 281.120523 
L 332.226808 281.120523 
L 331.299681 281.120523 
L 330.372554 281.120523 
L 329.445428 281.120523 
L 328.518301 281.120523 
L 327.591174 281.120523 
L 326.664047 281.120523 
L 325.73692 281.120523 
L 324.809793 281.120523 
L 323.882666 281.120523 
L 322.955539 281.120523 
L 322.028412 281.120523 
L 321.101285 281.120523 
L 320.174158 281.120523 
L 319.247031 281.120523 
L 318.319904 281.120523 
z
" clip-path="url(#p799271d658)" style="fill: #ff7f0e; fill-opacity: 0.12"/>
   </g>
   <g id="matplotlib.axis_1">
    <g id="xtick_1">
     <g id="line2d_1">
      <path d="M 65.264444 293.37775 
L 65.264444 23.71875 
" clip-path="url(#p799271d658)" style="fill: none; stroke: #b0b0b0; stroke-opacity: 0.25; stroke-width: 0.8; stroke-linecap: square"/>
     </g>
     <g id="line2d_2">
      <defs>
       <path id="mf8471ddd5f" d="M 0 0 
L 0 3.5 
" style="stroke: #000000; stroke-width: 0.8"/>
      </defs>
      <g>
       <use xlink:href="#mf8471ddd5f" x="65.264444" y="293.37775" style="stroke: #000000; stroke-width: 0.8"/>
      </g>
     </g>
     <g id="text_1">
      <!-- -6 -->
      <g transform="translate(59.764444 307.94025) scale(0.11 -0.11)">
       <defs>
        <path id="SimHei-2d" d="M 2975 2125 
L 125 2125 
L 125 2525 
L 2975 2525 
L 2975 2125 
z
" transform="scale(0.015625)"/>
        <path id="SimHei-36" d="M 250 1612 
Q 275 1975 387 2225 
Q 500 2475 725 2850 
L 1750 4450 
L 2325 4450 
L 1275 2800 
Q 1950 2975 2350 2750 
Q 2750 2525 2887 2237 
Q 3025 1950 3037 1612 
Q 3050 1275 2937 950 
Q 2825 625 2537 362 
Q 2250 100 1737 75 
Q 1225 50 862 262 
Q 500 475 362 862 
Q 225 1250 250 1612 
z
M 1025 787 
Q 1250 550 1625 525 
Q 2000 500 2250 775 
Q 2500 1050 2500 1575 
Q 2500 2100 2187 2300 
Q 1875 2500 1487 2450 
Q 1100 2400 925 2075 
Q 750 1750 775 1387 
Q 800 1025 1025 787 
z
" transform="scale(0.015625)"/>
       </defs>
       <use xlink:href="#SimHei-2d"/>
       <use xlink:href="#SimHei-36" transform="translate(50 0)"/>
      </g>
     </g>
    </g>
    <g id="xtick_2">
     <g id="line2d_3">
      <path d="M 149.530443 293.37775 
L 149.530443 23.71875 
" clip-path="url(#p799271d658)" style="fill: none; stroke: #b0b0b0; stroke-opacity: 0.25; stroke-width: 0.8; stroke-linecap: square"/>
     </g>
     <g id="line2d_4">
      <g>
       <use xlink:href="#mf8471ddd5f" x="149.530443" y="293.37775" style="stroke: #000000; stroke-width: 0.8"/>
      </g>
     </g>
     <g id="text_2">
      <!-- -4 -->
      <g transform="translate(144.030443 307.94025) scale(0.11 -0.11)">
       <defs>
        <path id="SimHei-34" d="M 2000 1100 
L 75 1100 
L 75 1525 
L 2100 4450 
L 2475 4450 
L 2475 1525 
L 3075 1525 
L 3075 1100 
L 2475 1100 
L 2475 150 
L 2000 150 
L 2000 1100 
z
M 2000 1525 
L 2000 3500 
L 600 1525 
L 2000 1525 
z
" transform="scale(0.015625)"/>
       </defs>
       <use xlink:href="#SimHei-2d"/>
       <use xlink:href="#SimHei-34" transform="translate(50 0)"/>
      </g>
     </g>
    </g>
    <g id="xtick_3">
     <g id="line2d_5">
      <path d="M 233.796441 293.37775 
L 233.796441 23.71875 
" clip-path="url(#p799271d658)" style="fill: none; stroke: #b0b0b0; stroke-opacity: 0.25; stroke-width: 0.8; stroke-linecap: square"/>
     </g>
     <g id="line2d_6">
      <g>
       <use xlink:href="#mf8471ddd5f" x="233.796441" y="293.37775" style="stroke: #000000; stroke-width: 0.8"/>
      </g>
     </g>
     <g id="text_3">
      <!-- -2 -->
      <g transform="translate(228.296441 307.94025) scale(0.11 -0.11)">
       <defs>
        <path id="SimHei-32" d="M 300 250 
Q 325 625 650 925 
Q 975 1225 1475 1862 
Q 1975 2500 2125 2850 
Q 2275 3200 2237 3450 
Q 2200 3700 2000 3862 
Q 1800 4025 1537 4000 
Q 1275 3975 1037 3800 
Q 800 3625 675 3275 
L 200 3350 
Q 400 3925 712 4187 
Q 1025 4450 1450 4475 
Q 1700 4500 1900 4462 
Q 2100 4425 2312 4287 
Q 2525 4150 2662 3875 
Q 2800 3600 2762 3212 
Q 2725 2825 2375 2287 
Q 2025 1750 1025 600 
L 2825 600 
L 2825 150 
L 300 150 
L 300 250 
z
" transform="scale(0.015625)"/>
       </defs>
       <use xlink:href="#SimHei-2d"/>
       <use xlink:href="#SimHei-32" transform="translate(50 0)"/>
      </g>
     </g>
    </g>
    <g id="xtick_4">
     <g id="line2d_7">
      <path d="M 318.06244 293.37775 
L 318.06244 23.71875 
" clip-path="url(#p799271d658)" style="fill: none; stroke: #b0b0b0; stroke-opacity: 0.25; stroke-width: 0.8; stroke-linecap: square"/>
     </g>
     <g id="line2d_8">
      <g>
       <use xlink:href="#mf8471ddd5f" x="318.06244" y="293.37775" style="stroke: #000000; stroke-width: 0.8"/>
      </g>
     </g>
     <g id="text_4">
      <!-- 0 -->
      <g transform="translate(315.31244 307.94025) scale(0.11 -0.11)">
       <defs>
        <path id="SimHei-30" d="M 225 2537 
Q 250 3200 412 3587 
Q 575 3975 875 4225 
Q 1175 4475 1612 4475 
Q 2050 4475 2375 4112 
Q 2700 3750 2800 3200 
Q 2900 2650 2862 1937 
Q 2825 1225 2612 775 
Q 2400 325 1975 150 
Q 1550 -25 1125 187 
Q 700 400 525 750 
Q 350 1100 275 1487 
Q 200 1875 225 2537 
z
M 750 2687 
Q 675 2000 800 1462 
Q 925 925 1212 700 
Q 1500 475 1800 612 
Q 2100 750 2237 1162 
Q 2375 1575 2375 2062 
Q 2375 2550 2337 2950 
Q 2300 3350 2112 3675 
Q 1925 4000 1612 4012 
Q 1300 4025 1062 3700 
Q 825 3375 750 2687 
z
" transform="scale(0.015625)"/>
       </defs>
       <use xlink:href="#SimHei-30"/>
      </g>
     </g>
    </g>
    <g id="xtick_5">
     <g id="line2d_9">
      <path d="M 402.328439 293.37775 
L 402.328439 23.71875 
" clip-path="url(#p799271d658)" style="fill: none; stroke: #b0b0b0; stroke-opacity: 0.25; stroke-width: 0.8; stroke-linecap: square"/>
     </g>
     <g id="line2d_10">
      <g>
       <use xlink:href="#mf8471ddd5f" x="402.328439" y="293.37775" style="stroke: #000000; stroke-width: 0.8"/>
      </g>
     </g>
     <g id="text_5">
      <!-- 2 -->
      <g transform="translate(399.578439 307.94025) scale(0.11 -0.11)">
       <use xlink:href="#SimHei-32"/>
      </g>
     </g>
    </g>
    <g id="xtick_6">
     <g id="line2d_11">
      <path d="M 486.594438 293.37775 
L 486.594438 23.71875 
" clip-path="url(#p799271d658)" style="fill: none; stroke: #b0b0b0; stroke-opacity: 0.25; stroke-width: 0.8; stroke-linecap: square"/>
     </g>
     <g id="line2d_12">
      <g>
       <use xlink:href="#mf8471ddd5f" x="486.594438" y="293.37775" style="stroke: #000000; stroke-width: 0.8"/>
      </g>
     </g>
     <g id="text_6">
      <!-- 4 -->
      <g transform="translate(483.844438 307.94025) scale(0.11 -0.11)">
       <use xlink:href="#SimHei-34"/>
      </g>
     </g>
    </g>
    <g id="text_7">
     <!-- 潜在净借款需求 $B_i^*$ -->
     <g transform="translate(255.871563 323.32525) scale(0.11 -0.11)">
      <defs>
       <path id="SimHei-6f5c" d="M 5475 1975 
Q 5450 1350 5450 575 
Q 5450 -200 5475 -600 
L 5000 -600 
L 5000 -250 
L 2775 -250 
L 2775 -650 
L 2275 -650 
Q 2300 -200 2300 525 
Q 2300 1275 2275 1975 
L 4025 1975 
Q 3925 2125 3650 2275 
Q 4325 2625 4575 3350 
Q 4200 3350 3850 3325 
L 3850 3725 
Q 4225 3700 4650 3700 
Q 4675 3900 4675 4225 
Q 4350 4225 3975 4200 
L 3975 4600 
Q 4325 4575 4675 4575 
Q 4675 4900 4650 5225 
Q 4900 5200 5150 5200 
Q 5075 4900 5075 4575 
Q 5450 4575 5850 4600 
L 5850 4200 
Q 5500 4225 5075 4225 
Q 5050 3750 5050 3700 
Q 5525 3700 5975 3725 
L 5975 3325 
Q 5650 3350 5150 3350 
Q 5475 2700 6200 2350 
Q 5975 2225 5850 1975 
Q 5200 2375 4900 3025 
Q 4650 2475 4100 1975 
L 5475 1975 
z
M 3350 2275 
Q 3175 2600 2850 2925 
Q 2525 2350 2000 1925 
Q 1875 2050 1575 2200 
Q 2250 2625 2550 3350 
L 1775 3350 
L 1775 3700 
L 2625 3700 
Q 2625 3925 2650 4225 
L 2000 4225 
L 2000 4575 
L 2650 4575 
Q 2650 4900 2625 5225 
Q 2825 5175 3125 5175 
Q 3050 4900 3050 4575 
L 3600 4575 
L 3600 4225 
L 3050 4225 
Q 3050 3925 3025 3700 
L 3625 3700 
L 3625 3350 
L 3000 3350 
Q 3475 2900 3725 2600 
Q 3525 2475 3350 2275 
z
M 5000 125 
L 5000 675 
L 2775 675 
L 2775 125 
L 5000 125 
z
M 5000 1075 
L 5000 1600 
L 2775 1600 
L 2775 1075 
L 5000 1075 
z
M 1625 1450 
Q 1525 1300 1237 625 
Q 950 -50 750 -550 
Q 525 -375 225 -200 
Q 525 175 812 762 
Q 1100 1350 1250 1775 
Q 1425 1600 1625 1450 
z
M 1400 4050 
Q 1050 4375 475 4675 
Q 625 4850 750 5050 
Q 1325 4775 1700 4475 
Q 1525 4300 1400 4050 
z
M 575 3500 
Q 1100 3225 1525 2875 
Q 1350 2675 1250 2450 
Q 950 2775 325 3125 
Q 475 3300 575 3500 
z
" transform="scale(0.015625)"/>
       <path id="SimHei-5728" d="M 2425 4200 
Q 2525 4525 2600 4762 
Q 2675 5000 2700 5250 
Q 3050 5175 3325 5100 
Q 3200 4850 3150 4712 
Q 3100 4575 2975 4200 
L 5000 4200 
Q 5525 4200 5950 4225 
L 5950 3750 
Q 5525 3775 5000 3775 
L 2825 3775 
Q 2675 3425 2437 3000 
Q 2200 2575 1825 2075 
L 1825 325 
Q 1825 -175 1850 -650 
L 1325 -650 
Q 1350 -175 1350 325 
L 1350 1625 
Q 950 1250 625 1000 
Q 450 1225 200 1375 
Q 500 1550 800 1800 
Q 1100 2050 1350 2375 
Q 1350 2600 1325 2825 
L 1725 2825 
Q 1900 3025 2037 3275 
Q 2175 3525 2275 3775 
L 1675 3775 
Q 1075 3775 625 3750 
L 625 4225 
Q 1100 4200 1675 4200 
L 2425 4200 
z
M 3700 2250 
L 3700 2600 
Q 3700 3100 3675 3400 
L 4225 3400 
Q 4200 3100 4200 2600 
L 4200 2250 
L 4775 2250 
Q 5225 2250 5600 2275 
L 5600 1800 
Q 5225 1825 4775 1825 
L 4200 1825 
L 4200 150 
L 5150 150 
Q 5625 150 6000 175 
L 6000 -275 
Q 5625 -250 5150 -250 
L 3125 -250 
Q 2475 -250 2100 -275 
L 2100 175 
Q 2475 150 3125 150 
L 3700 150 
L 3700 1825 
L 3225 1825 
Q 2775 1825 2350 1800 
L 2350 2275 
Q 2775 2250 3225 2250 
L 3700 2250 
z
" transform="scale(0.015625)"/>
       <path id="SimHei-51c0" d="M 3425 5075 
Q 3275 4900 3100 4625 
L 4950 4625 
Q 4725 4325 4250 3475 
L 5525 3475 
Q 5500 3150 5500 2450 
Q 5825 2450 6150 2475 
L 6150 2025 
Q 5825 2050 5500 2050 
Q 5500 1075 5525 1000 
L 3875 1000 
L 3875 -75 
Q 3875 -375 3625 -475 
Q 3375 -575 2775 -650 
Q 2725 -350 2575 -75 
Q 2975 -75 3175 -62 
Q 3375 -50 3375 200 
L 3375 1000 
L 2725 1000 
Q 2325 1000 1900 975 
L 1900 1425 
Q 2325 1400 2725 1400 
L 3375 1400 
L 3375 2050 
L 2625 2050 
Q 2225 2050 1700 2025 
L 1700 2475 
Q 2225 2450 2675 2450 
L 3375 2450 
L 3375 3075 
L 3000 3075 
Q 2675 3075 2250 3050 
L 2250 3425 
Q 2100 3225 1900 3000 
Q 1700 3175 1475 3300 
Q 1725 3525 2187 4150 
Q 2650 4775 2825 5300 
Q 3075 5200 3425 5075 
z
M 1625 2025 
Q 1000 775 675 100 
Q 500 275 225 450 
Q 525 875 800 1450 
Q 1075 2025 1175 2325 
Q 1400 2150 1625 2025 
z
M 2325 3500 
Q 2850 3475 3325 3475 
L 3700 3475 
Q 3900 3825 4100 4225 
L 2850 4225 
Q 2550 3775 2325 3500 
z
M 5000 1400 
L 5000 2050 
L 3875 2050 
L 3875 1400 
L 5000 1400 
z
M 700 4750 
Q 1275 4150 1600 3725 
Q 1325 3550 1175 3375 
Q 900 3775 300 4425 
Q 500 4575 700 4750 
z
M 5000 2450 
L 5000 3075 
L 3875 3075 
L 3875 2450 
L 5000 2450 
z
" transform="scale(0.015625)"/>
       <path id="SimHei-501f" d="M 5425 2200 
Q 5400 1825 5400 850 
Q 5400 -100 5425 -500 
L 4975 -500 
L 4975 -175 
L 2900 -175 
L 2900 -525 
L 2450 -525 
Q 2475 -175 2475 750 
Q 2475 1675 2450 2200 
L 5425 2200 
z
M 3000 4350 
Q 3000 4850 2975 5125 
L 3500 5125 
Q 3450 5025 3450 4350 
L 4400 4350 
Q 4400 4950 4375 5150 
L 4900 5150 
Q 4850 4875 4850 4350 
Q 5450 4350 5800 4375 
L 5800 3900 
Q 5425 3925 4850 3925 
L 4850 3125 
L 5200 3125 
Q 5625 3125 6000 3150 
L 6000 2675 
Q 5650 2700 5175 2700 
L 2650 2700 
Q 2275 2700 1925 2675 
L 1925 3150 
Q 2225 3125 2650 3125 
L 3000 3125 
L 3000 3925 
Q 2475 3925 2225 3900 
L 2225 4375 
Q 2450 4350 3000 4350 
z
M 1100 3100 
Q 825 2550 600 2200 
Q 450 2375 200 2550 
Q 500 2900 887 3675 
Q 1275 4450 1475 5250 
Q 1650 5150 2075 5000 
Q 1850 4800 1550 3900 
L 1550 375 
Q 1550 -225 1575 -625 
L 1075 -625 
Q 1100 -300 1100 425 
L 1100 3100 
z
M 4975 1200 
L 4975 1775 
L 2900 1775 
L 2900 1200 
L 4975 1200 
z
M 4975 250 
L 4975 775 
L 2900 775 
L 2900 250 
L 4975 250 
z
M 4400 3125 
L 4400 3925 
L 3450 3925 
L 3450 3125 
L 4400 3125 
z
" transform="scale(0.015625)"/>
       <path id="SimHei-6b3e" d="M 4900 2700 
Q 4850 2500 4812 2237 
Q 4775 1975 4925 1462 
Q 5075 950 5450 512 
Q 5825 75 6200 -100 
Q 5900 -350 5800 -525 
Q 5275 -75 5025 300 
Q 4775 675 4625 1125 
Q 4475 650 4225 250 
Q 3975 -150 3425 -625 
Q 3225 -300 3100 -200 
Q 3400 0 3637 275 
Q 3875 550 4025 862 
Q 4175 1175 4237 1487 
Q 4300 1800 4312 2112 
Q 4325 2425 4325 2800 
Q 4675 2725 4900 2700 
z
M 1775 4500 
Q 1775 4850 1750 5175 
L 2250 5175 
Q 2225 4875 2225 4500 
L 2650 4500 
Q 3050 4500 3500 4525 
L 3500 4075 
Q 3050 4125 2650 4125 
L 2225 4125 
L 2225 3575 
L 2475 3575 
Q 2800 3575 3250 3600 
L 3250 3175 
Q 2800 3200 2475 3200 
L 1450 3200 
Q 1125 3200 625 3150 
L 625 3600 
Q 1100 3575 1450 3575 
L 1775 3575 
L 1775 4125 
L 1250 4125 
Q 925 4125 450 4075 
L 450 4525 
Q 925 4500 1225 4500 
L 1775 4500 
z
M 4250 3525 
Q 4050 3050 3750 2600 
Q 3500 2775 3300 2850 
Q 3600 3225 3762 3625 
Q 3925 4025 4037 4387 
Q 4150 4750 4200 5075 
Q 4475 4950 4750 4900 
Q 4550 4500 4375 3925 
L 6150 3925 
Q 6050 3550 5962 3262 
Q 5875 2975 5800 2700 
L 5300 2750 
Q 5450 3150 5550 3525 
L 4250 3525 
z
M 2650 1825 
Q 3050 1825 3425 1850 
L 3425 1400 
Q 3050 1450 2650 1450 
L 2225 1450 
L 2225 100 
Q 2225 -275 2037 -375 
Q 1850 -475 1375 -575 
Q 1325 -300 1125 -25 
Q 1625 -50 1687 25 
Q 1750 100 1750 225 
L 1750 1450 
L 1175 1450 
Q 825 1450 400 1400 
L 400 1850 
Q 850 1825 1200 1825 
L 2650 1825 
z
M 2450 2700 
Q 2775 2700 3200 2725 
L 3200 2275 
Q 2800 2325 2450 2325 
L 1400 2325 
Q 1050 2325 650 2275 
L 650 2725 
Q 1050 2700 1400 2700 
L 2450 2700 
z
M 1400 975 
Q 1275 775 1100 475 
Q 925 175 675 -150 
Q 550 25 275 150 
Q 450 350 625 625 
Q 800 900 925 1225 
Q 1175 1100 1400 975 
z
M 2900 1175 
Q 3000 1000 3125 800 
Q 3250 600 3400 325 
Q 3175 200 2975 50 
L 2750 500 
Q 2650 700 2475 925 
Q 2650 1025 2900 1175 
z
" transform="scale(0.015625)"/>
       <path id="SimHei-9700" d="M 5150 2100 
Q 5500 2100 5975 2125 
L 5975 1700 
Q 5500 1725 5150 1725 
L 3425 1725 
Q 3300 1500 3250 1275 
L 5600 1275 
Q 5575 950 5575 700 
L 5575 -50 
Q 5575 -350 5425 -437 
Q 5275 -525 4775 -625 
Q 4750 -400 4550 -100 
Q 4950 -100 5025 -50 
Q 5100 0 5100 200 
L 5100 900 
L 4125 900 
L 4125 -375 
L 3650 -375 
L 3650 900 
L 2775 900 
L 2775 -375 
L 2300 -375 
L 2300 900 
L 1350 900 
L 1350 -575 
L 875 -575 
Q 900 -225 900 175 
L 900 575 
Q 900 900 875 1275 
L 2800 1275 
Q 2875 1500 2925 1725 
L 1350 1725 
Q 925 1725 525 1700 
L 525 2125 
Q 900 2100 1325 2100 
L 5150 2100 
z
M 4700 5075 
Q 5075 5075 5550 5100 
L 5550 4675 
Q 5075 4700 4700 4700 
L 3475 4700 
L 3475 4275 
L 5975 4275 
L 5975 3100 
L 5500 3100 
L 5500 3900 
L 3475 3900 
L 3475 3200 
Q 3475 2775 3500 2425 
L 2975 2425 
Q 3000 2750 3000 3175 
L 3000 3900 
L 950 3900 
L 950 3100 
L 450 3100 
Q 450 3375 462 3650 
Q 475 3925 450 4275 
L 3000 4275 
L 3000 4700 
L 1775 4700 
Q 1400 4700 1025 4675 
L 1025 5100 
Q 1400 5075 1750 5075 
L 4700 5075 
z
M 2475 2450 
L 1250 2450 
L 1250 2800 
L 2475 2800 
L 2475 2450 
z
M 2500 3150 
L 1325 3150 
L 1325 3500 
L 2500 3500 
L 2500 3150 
z
M 5000 3175 
L 3825 3175 
L 3825 3525 
L 5000 3525 
L 5000 3175 
z
M 5025 2500 
L 3850 2500 
L 3850 2850 
L 5025 2850 
L 5025 2500 
z
" transform="scale(0.015625)"/>
       <path id="SimHei-6c42" d="M 475 4025 
Q 875 4000 1325 4000 
L 2875 4000 
Q 2875 4725 2850 5125 
L 3400 5125 
Q 3375 4725 3375 4000 
L 5150 4000 
Q 5500 4000 5925 4025 
L 5925 3575 
Q 5475 3600 5150 3600 
L 3375 3600 
Q 3400 3200 3612 2750 
Q 3825 2300 4050 2000 
Q 4600 2450 5075 3150 
Q 5250 2950 5575 2750 
Q 5275 2600 4250 1650 
Q 4575 1225 5037 850 
Q 5500 475 6050 325 
Q 5700 125 5550 -150 
Q 5000 150 4437 687 
Q 3875 1225 3375 2375 
L 3375 150 
Q 3400 -225 3137 -350 
Q 2875 -475 2375 -525 
Q 2325 -275 2150 25 
Q 2575 0 2737 37 
Q 2900 75 2875 300 
L 2875 1675 
Q 1875 900 1437 550 
Q 1000 200 725 -50 
Q 500 200 300 400 
Q 650 575 1200 937 
Q 1750 1300 2875 2250 
L 2875 3600 
L 1325 3600 
Q 875 3600 475 3575 
L 475 4025 
z
M 1225 3175 
Q 1775 2725 2250 2325 
L 1825 1950 
Q 1450 2375 825 2825 
L 1225 3175 
z
M 4500 5100 
Q 4900 4825 5300 4425 
Q 5125 4300 4925 4100 
Q 4650 4400 4125 4825 
Q 4275 4950 4500 5100 
z
" transform="scale(0.015625)"/>
       <path id="SimHei-20" transform="scale(0.015625)"/>
       <path id="DejaVuSans-Oblique-42" d="M 1081 4666 
L 2694 4666 
Q 3350 4666 3675 4422 
Q 4000 4178 4000 3688 
Q 4000 3238 3720 2911 
Q 3441 2584 2988 2516 
Q 3375 2428 3569 2181 
Q 3763 1934 3763 1522 
Q 3763 819 3242 409 
Q 2722 0 1819 0 
L 172 0 
L 1081 4666 
z
M 1234 2228 
L 903 519 
L 1919 519 
Q 2491 519 2800 781 
Q 3109 1044 3109 1522 
Q 3109 1891 2904 2059 
Q 2700 2228 2247 2228 
L 1234 2228 
z
M 1606 4147 
L 1331 2741 
L 2272 2741 
Q 2775 2741 3058 2959 
Q 3341 3178 3341 3566 
Q 3341 3869 3150 4008 
Q 2959 4147 2541 4147 
L 1606 4147 
z
" transform="scale(0.015625)"/>
       <path id="DejaVuSans-2a" d="M 3009 3897 
L 1888 3291 
L 3009 2681 
L 2828 2375 
L 1778 3009 
L 1778 1831 
L 1422 1831 
L 1422 3009 
L 372 2375 
L 191 2681 
L 1313 3291 
L 191 3897 
L 372 4206 
L 1422 3572 
L 1422 4750 
L 1778 4750 
L 1778 3572 
L 2828 4206 
L 3009 3897 
z
" transform="scale(0.015625)"/>
       <path id="DejaVuSans-Oblique-69" d="M 1172 4863 
L 1747 4863 
L 1606 4134 
L 1031 4134 
L 1172 4863 
z
M 909 3500 
L 1484 3500 
L 800 0 
L 225 0 
L 909 3500 
z
" transform="scale(0.015625)"/>
      </defs>
      <use xlink:href="#SimHei-6f5c" transform="translate(0 0.701562)"/>
      <use xlink:href="#SimHei-5728" transform="translate(100 0.701562)"/>
      <use xlink:href="#SimHei-51c0" transform="translate(200 0.701562)"/>
      <use xlink:href="#SimHei-501f" transform="translate(300 0.701562)"/>
      <use xlink:href="#SimHei-6b3e" transform="translate(400 0.701562)"/>
      <use xlink:href="#SimHei-9700" transform="translate(500 0.701562)"/>
      <use xlink:href="#SimHei-6c42" transform="translate(600 0.701562)"/>
      <use xlink:href="#SimHei-20" transform="translate(700 0.701562)"/>
      <use xlink:href="#DejaVuSans-Oblique-42" transform="translate(750 0.701562)"/>
      <use xlink:href="#DejaVuSans-2a" transform="translate(839.257982 39.046875) scale(0.7)"/>
      <use xlink:href="#DejaVuSans-Oblique-69" transform="translate(818.603516 -26.642188) scale(0.7)"/>
     </g>
    </g>
   </g>
   <g id="matplotlib.axis_2">
    <g id="ytick_1">
     <g id="line2d_13">
      <path d="M 50.426563 281.120523 
L 559.326563 281.120523 
" clip-path="url(#p799271d658)" style="fill: none; stroke: #b0b0b0; stroke-opacity: 0.25; stroke-width: 0.8; stroke-linecap: square"/>
     </g>
     <g id="line2d_14">
      <defs>
       <path id="m6953d48eef" d="M 0 0 
L -3.5 0 
" style="stroke: #000000; stroke-width: 0.8"/>
      </defs>
      <g>
       <use xlink:href="#m6953d48eef" x="50.426563" y="281.120523" style="stroke: #000000; stroke-width: 0.8"/>
      </g>
     </g>
     <g id="text_8">
      <!-- 0.00 -->
      <g transform="translate(21.426563 284.901773) scale(0.11 -0.11)">
       <defs>
        <path id="SimHei-2e" d="M 1075 125 
L 500 125 
L 500 675 
L 1075 675 
L 1075 125 
z
" transform="scale(0.015625)"/>
       </defs>
       <use xlink:href="#SimHei-30"/>
       <use xlink:href="#SimHei-2e" transform="translate(50 0)"/>
       <use xlink:href="#SimHei-30" transform="translate(100 0)"/>
       <use xlink:href="#SimHei-30" transform="translate(150 0)"/>
      </g>
     </g>
    </g>
    <g id="ytick_2">
     <g id="line2d_15">
      <path d="M 50.426563 232.747958 
L 559.326563 232.747958 
" clip-path="url(#p799271d658)" style="fill: none; stroke: #b0b0b0; stroke-opacity: 0.25; stroke-width: 0.8; stroke-linecap: square"/>
     </g>
     <g id="line2d_16">
      <g>
       <use xlink:href="#m6953d48eef" x="50.426563" y="232.747958" style="stroke: #000000; stroke-width: 0.8"/>
      </g>
     </g>
     <g id="text_9">
      <!-- 0.05 -->
      <g transform="translate(21.426563 236.529208) scale(0.11 -0.11)">
       <defs>
        <path id="SimHei-35" d="M 550 1325 
Q 725 650 1150 575 
Q 1575 500 1837 662 
Q 2100 825 2212 1087 
Q 2325 1350 2312 1675 
Q 2300 2000 2137 2225 
Q 1975 2450 1725 2525 
Q 1475 2600 1162 2525 
Q 850 2450 650 2175 
L 225 2225 
Q 275 2375 700 4375 
L 2675 4375 
L 2675 3925 
L 1075 3925 
Q 950 3250 825 2850 
Q 1200 3025 1525 3012 
Q 1850 3000 2150 2862 
Q 2450 2725 2587 2487 
Q 2725 2250 2787 2012 
Q 2850 1775 2837 1500 
Q 2825 1225 2725 937 
Q 2625 650 2425 462 
Q 2225 275 1937 162 
Q 1650 50 1275 75 
Q 900 100 562 350 
Q 225 600 100 1200 
L 550 1325 
z
" transform="scale(0.015625)"/>
       </defs>
       <use xlink:href="#SimHei-30"/>
       <use xlink:href="#SimHei-2e" transform="translate(50 0)"/>
       <use xlink:href="#SimHei-30" transform="translate(100 0)"/>
       <use xlink:href="#SimHei-35" transform="translate(150 0)"/>
      </g>
     </g>
    </g>
    <g id="ytick_3">
     <g id="line2d_17">
      <path d="M 50.426563 184.375393 
L 559.326563 184.375393 
" clip-path="url(#p799271d658)" style="fill: none; stroke: #b0b0b0; stroke-opacity: 0.25; stroke-width: 0.8; stroke-linecap: square"/>
     </g>
     <g id="line2d_18">
      <g>
       <use xlink:href="#m6953d48eef" x="50.426563" y="184.375393" style="stroke: #000000; stroke-width: 0.8"/>
      </g>
     </g>
     <g id="text_10">
      <!-- 0.10 -->
      <g transform="translate(21.426563 188.156643) scale(0.11 -0.11)">
       <defs>
        <path id="SimHei-31" d="M 1400 3600 
Q 1075 3275 575 2975 
L 575 3450 
Q 1200 3875 1600 4450 
L 1900 4450 
L 1900 150 
L 1400 150 
L 1400 3600 
z
" transform="scale(0.015625)"/>
       </defs>
       <use xlink:href="#SimHei-30"/>
       <use xlink:href="#SimHei-2e" transform="translate(50 0)"/>
       <use xlink:href="#SimHei-31" transform="translate(100 0)"/>
       <use xlink:href="#SimHei-30" transform="translate(150 0)"/>
      </g>
     </g>
    </g>
    <g id="ytick_4">
     <g id="line2d_19">
      <path d="M 50.426563 136.002828 
L 559.326563 136.002828 
" clip-path="url(#p799271d658)" style="fill: none; stroke: #b0b0b0; stroke-opacity: 0.25; stroke-width: 0.8; stroke-linecap: square"/>
     </g>
     <g id="line2d_20">
      <g>
       <use xlink:href="#m6953d48eef" x="50.426563" y="136.002828" style="stroke: #000000; stroke-width: 0.8"/>
      </g>
     </g>
     <g id="text_11">
      <!-- 0.15 -->
      <g transform="translate(21.426563 139.784078) scale(0.11 -0.11)">
       <use xlink:href="#SimHei-30"/>
       <use xlink:href="#SimHei-2e" transform="translate(50 0)"/>
       <use xlink:href="#SimHei-31" transform="translate(100 0)"/>
       <use xlink:href="#SimHei-35" transform="translate(150 0)"/>
      </g>
     </g>
    </g>
    <g id="ytick_5">
     <g id="line2d_21">
      <path d="M 50.426563 87.630263 
L 559.326563 87.630263 
" clip-path="url(#p799271d658)" style="fill: none; stroke: #b0b0b0; stroke-opacity: 0.25; stroke-width: 0.8; stroke-linecap: square"/>
     </g>
     <g id="line2d_22">
      <g>
       <use xlink:href="#m6953d48eef" x="50.426563" y="87.630263" style="stroke: #000000; stroke-width: 0.8"/>
      </g>
     </g>
     <g id="text_12">
      <!-- 0.20 -->
      <g transform="translate(21.426563 91.411513) scale(0.11 -0.11)">
       <use xlink:href="#SimHei-30"/>
       <use xlink:href="#SimHei-2e" transform="translate(50 0)"/>
       <use xlink:href="#SimHei-32" transform="translate(100 0)"/>
       <use xlink:href="#SimHei-30" transform="translate(150 0)"/>
      </g>
     </g>
    </g>
    <g id="ytick_6">
     <g id="line2d_23">
      <path d="M 50.426563 39.257699 
L 559.326563 39.257699 
" clip-path="url(#p799271d658)" style="fill: none; stroke: #b0b0b0; stroke-opacity: 0.25; stroke-width: 0.8; stroke-linecap: square"/>
     </g>
     <g id="line2d_24">
      <g>
       <use xlink:href="#m6953d48eef" x="50.426563" y="39.257699" style="stroke: #000000; stroke-width: 0.8"/>
      </g>
     </g>
     <g id="text_13">
      <!-- 0.25 -->
      <g transform="translate(21.426563 43.038949) scale(0.11 -0.11)">
       <use xlink:href="#SimHei-30"/>
       <use xlink:href="#SimHei-2e" transform="translate(50 0)"/>
       <use xlink:href="#SimHei-32" transform="translate(100 0)"/>
       <use xlink:href="#SimHei-35" transform="translate(150 0)"/>
      </g>
     </g>
    </g>
    <g id="text_14">
     <!-- 密度 -->
     <g transform="translate(16.051563 169.54825) rotate(-90) scale(0.11 -0.11)">
      <defs>
       <path id="SimHei-5bc6" d="M 4825 3350 
Q 4475 3125 3962 2750 
Q 3450 2375 2775 2025 
L 4025 2025 
Q 4550 2025 4550 2600 
Q 4800 2450 5150 2325 
Q 4900 1775 4712 1687 
Q 4525 1600 4200 1600 
L 2875 1600 
Q 2225 1575 2175 1675 
Q 1125 1325 575 1175 
Q 475 1425 250 1675 
Q 850 1725 1262 1850 
Q 1675 1975 2000 2100 
L 2000 2750 
Q 2000 3000 1975 3400 
L 2550 3400 
Q 2525 3025 2525 2775 
L 2525 2350 
Q 2900 2525 3425 2887 
Q 3950 3250 4325 3775 
Q 4475 3625 4825 3350 
z
M 1225 550 
Q 1225 825 1200 1125 
L 1750 1125 
Q 1725 775 1725 525 
L 1725 0 
L 3075 0 
L 3075 700 
Q 3075 950 3025 1375 
L 3600 1375 
Q 3575 1100 3575 675 
L 3575 0 
L 4975 0 
L 4975 625 
Q 4975 875 4950 1200 
L 5500 1200 
Q 5475 900 5475 600 
L 5475 -225 
Q 5475 -425 5500 -700 
L 4975 -700 
L 4975 -400 
L 1200 -400 
Q 1225 -150 1225 75 
L 1225 550 
z
M 5375 3575 
L 5375 4150 
L 1150 4150 
L 1150 3550 
L 600 3550 
Q 625 3700 625 4000 
Q 625 4300 600 4575 
L 2975 4575 
Q 2900 4800 2775 5050 
Q 3000 5125 3325 5225 
Q 3425 5075 3575 4575 
L 5925 4575 
Q 5900 4250 5900 4025 
Q 5900 3825 5925 3575 
L 5375 3575 
z
M 1650 3275 
Q 1500 2850 1225 2250 
Q 900 2350 675 2400 
Q 950 2800 1100 3400 
Q 1350 3325 1650 3275 
z
M 5450 3325 
Q 5775 2925 6100 2450 
Q 5825 2350 5625 2200 
Q 5350 2675 5000 3050 
Q 5200 3175 5450 3325 
z
M 3225 3150 
Q 2875 3600 2575 3825 
Q 2775 3950 2975 4125 
Q 3175 3975 3650 3475 
Q 3450 3300 3225 3150 
z
" transform="scale(0.015625)"/>
       <path id="SimHei-5ea6" d="M 1750 1675 
Q 2450 1650 2875 1650 
L 5200 1650 
Q 4975 1250 4650 850 
Q 4325 450 4025 200 
Q 4350 50 4950 -50 
Q 5550 -150 6100 -150 
Q 5950 -300 5825 -650 
Q 5100 -550 4550 -412 
Q 4000 -275 3625 -100 
Q 3100 -325 2587 -462 
Q 2075 -600 1525 -675 
Q 1450 -475 1225 -250 
Q 1675 -250 2250 -125 
Q 2825 0 3250 200 
Q 2825 550 2400 1275 
L 1750 1250 
L 1750 1675 
z
M 2975 5075 
Q 3250 5150 3475 5250 
Q 3625 4975 3775 4525 
L 4700 4525 
Q 4975 4525 5700 4550 
L 5700 4100 
Q 5000 4125 4650 4125 
L 1375 4125 
Q 1375 3000 1350 2312 
Q 1325 1625 1212 950 
Q 1100 275 725 -525 
Q 500 -375 250 -300 
Q 650 400 762 1075 
Q 875 1750 887 2800 
Q 900 3850 875 4525 
L 3200 4525 
Q 3100 4850 2975 5075 
z
M 2475 3300 
Q 2475 3700 2450 3925 
L 2975 3925 
Q 2950 3725 2950 3300 
L 4300 3300 
Q 4300 3700 4275 3950 
L 4800 3950 
Q 4775 3650 4775 3300 
Q 5325 3300 5725 3325 
L 5725 2900 
Q 5350 2925 4775 2925 
Q 4775 2250 4800 1950 
L 2450 1950 
Q 2475 2350 2475 2925 
Q 2175 2925 1600 2900 
L 1600 3325 
Q 2175 3300 2475 3300 
z
M 4300 2350 
L 4300 2925 
L 2950 2925 
L 2950 2350 
L 4300 2350 
z
M 2875 1275 
Q 3200 775 3650 425 
Q 4025 700 4425 1275 
L 2900 1275 
L 2875 1275 
z
" transform="scale(0.015625)"/>
      </defs>
      <use xlink:href="#SimHei-5bc6"/>
      <use xlink:href="#SimHei-5ea6" transform="translate(100 0)"/>
     </g>
    </g>
   </g>
   <g id="line2d_25">
    <path d="M 73.558381 280.618973 
L 85.611031 280.185477 
L 94.882301 279.644246 
L 103.226444 278.930665 
L 110.64346 278.052437 
L 117.133349 277.041476 
L 122.696111 275.953136 
L 128.258873 274.620287 
L 132.894507 273.292635 
L 137.530142 271.73974 
L 142.165777 269.933549 
L 146.801412 267.844584 
L 150.50992 265.949311 
L 154.218428 263.837572 
L 157.926936 261.493333 
L 161.635444 258.900682 
L 165.343952 256.044055 
L 169.05246 252.90849 
L 172.760968 249.479902 
L 176.469476 245.745379 
L 180.177984 241.693496 
L 183.886491 237.314639 
L 187.594999 232.601342 
L 191.303507 227.54862 
L 195.012015 222.154303 
L 198.720523 216.419358 
L 203.356158 208.77873 
L 207.991793 200.629861 
L 212.627428 191.999371 
L 217.263063 182.924218 
L 222.825825 171.514926 
L 229.315714 157.620661 
L 237.659856 139.148899 
L 252.493888 106.195494 
L 258.05665 94.376557 
L 262.692285 84.976206 
L 267.32792 76.106322 
L 271.036428 69.468005 
L 274.744936 63.29662 
L 278.453444 57.644863 
L 281.234824 53.776807 
L 284.016205 50.248056 
L 286.797586 47.076371 
L 289.578967 44.277876 
L 292.360348 41.866924 
L 295.141729 39.855972 
L 296.995983 38.742808 
L 298.850237 37.814698 
L 300.704491 37.073803 
L 302.558745 36.521851 
L 304.412999 36.160134 
L 306.267253 35.989498 
L 308.121507 36.010342 
L 309.975761 36.222619 
L 311.830015 36.62583 
L 313.684269 37.219032 
L 315.538523 38.000839 
L 317.392777 38.969427 
L 319.247031 40.12254 
L 322.028412 42.192232 
L 324.809793 44.660239 
L 327.591174 47.51382 
L 330.372554 50.738357 
L 333.153935 54.317482 
L 335.935316 58.233208 
L 338.716697 62.466086 
L 342.425205 68.567237 
L 346.133713 75.142942 
L 349.842221 82.138116 
L 354.477856 91.384739 
L 360.040618 103.06679 
L 366.530507 117.252913 
L 389.708681 168.457952 
L 395.271443 180.00018 
L 400.834205 190.995942 
L 405.46984 199.678698 
L 410.105475 207.883481 
L 414.74111 215.582527 
L 418.449618 221.365287 
L 422.158126 226.807824 
L 425.866634 231.908707 
L 429.575141 236.66968 
L 433.283649 241.095351 
L 436.992157 245.192856 
L 440.700665 248.971526 
L 444.409173 252.442551 
L 448.117681 255.618652 
L 451.826189 258.513767 
L 455.534697 261.142751 
L 459.243205 263.521099 
L 462.951713 265.664689 
L 466.660221 267.589549 
L 471.295856 269.712353 
L 475.931491 271.54898 
L 480.567125 273.129048 
L 485.20276 274.480783 
L 490.765522 275.838743 
L 496.328284 276.948416 
L 501.891046 277.848047 
L 508.380935 278.677332 
L 515.797951 279.391436 
L 524.142094 279.965957 
L 534.34049 280.430742 
L 536.194744 280.494004 
L 536.194744 280.494004 
" clip-path="url(#p799271d658)" style="fill: none; stroke: #1f77b4; stroke-width: 2; stroke-linecap: square"/>
   </g>
   <g id="line2d_26">
    <path d="M 318.06244 293.37775 
L 318.06244 23.71875 
" clip-path="url(#p799271d658)" style="fill: none; stroke-dasharray: 4.07,1.76; stroke-dashoffset: 0; stroke: #000000; stroke-width: 1.1"/>
   </g>
   <g id="patch_3">
    <path d="M 50.426563 293.37775 
L 50.426563 23.71875 
" style="fill: none; stroke: #000000; stroke-width: 0.8; stroke-linejoin: miter; stroke-linecap: square"/>
   </g>
   <g id="patch_4">
    <path d="M 50.426562 293.37775 
L 559.326563 293.37775 
" style="fill: none; stroke: #000000; stroke-width: 0.8; stroke-linejoin: miter; stroke-linecap: square"/>
   </g>
   <g id="text_15">
    <g id="patch_5">
     <path d="M 132.677243 128.101568 
L 242.677243 128.101568 
Q 247.627243 128.101568 247.627243 123.151568 
L 247.627243 88.793756 
Q 247.627243 83.843756 242.677243 83.843756 
L 132.677243 83.843756 
Q 127.727243 83.843756 127.727243 88.793756 
L 127.727243 123.151568 
Q 127.727243 128.101568 132.677243 128.101568 
z
" style="fill: #f3ecff; opacity: 0.9; stroke: #7b61a3; stroke-linejoin: miter"/>
    </g>
    <!-- 潜在净借款需求为负 -->
    <g transform="translate(132.677243 97.731256) scale(0.11 -0.11)">
     <defs>
      <path id="SimHei-4e3a" d="M 3525 5125 
Q 3425 4900 3387 4475 
Q 3350 4050 3275 3350 
L 5850 3350 
Q 5800 2925 5775 2625 
L 5500 125 
Q 5425 -325 5025 -450 
Q 4625 -575 4025 -600 
Q 3950 -250 3775 0 
Q 4525 -50 4750 25 
Q 4975 100 5025 475 
L 5275 2925 
L 3225 2925 
Q 3000 1775 2387 925 
Q 1775 75 850 -600 
Q 600 -275 400 -150 
Q 1200 250 1837 1037 
Q 2475 1825 2700 2925 
L 1875 2925 
Q 1450 2925 775 2900 
L 775 3375 
Q 1450 3350 1700 3350 
L 2775 3350 
Q 2875 4200 2875 5225 
Q 3275 5150 3525 5125 
z
M 3500 2175 
Q 4125 1775 4750 1350 
Q 4600 1200 4400 850 
Q 3850 1350 3250 1725 
Q 3425 2000 3500 2175 
z
M 1125 4550 
Q 1350 4725 1500 4900 
Q 2200 4225 2450 3925 
Q 2250 3750 2025 3550 
Q 1750 3950 1125 4550 
z
" transform="scale(0.015625)"/>
      <path id="SimHei-8d1f" d="M 2900 5000 
Q 2575 4600 2500 4475 
L 4800 4475 
Q 4200 3500 4025 3200 
L 5450 3200 
Q 5425 2850 5425 1975 
Q 5425 1100 5450 725 
L 4925 725 
L 4925 2800 
L 1825 2800 
L 1825 650 
L 1300 650 
Q 1325 1050 1325 1925 
Q 1325 2800 1300 3150 
Q 950 2900 750 2725 
Q 525 2975 300 3125 
Q 625 3275 1062 3612 
Q 1500 3950 1875 4462 
Q 2250 4975 2375 5250 
Q 2625 5075 2900 5000 
z
M 3650 2150 
Q 3575 1900 3450 1337 
Q 3325 775 3050 412 
Q 2775 50 2162 -225 
Q 1550 -500 675 -675 
Q 600 -425 400 -175 
Q 1000 -125 1575 50 
Q 2150 225 2475 500 
Q 2800 775 2925 1187 
Q 3050 1600 3050 2225 
Q 3375 2175 3650 2150 
z
M 2225 4075 
Q 1800 3600 1350 3200 
L 3475 3200 
Q 3800 3725 4000 4075 
L 2225 4075 
z
M 3875 750 
Q 4350 525 4850 300 
Q 5350 75 5925 -225 
Q 5775 -425 5650 -700 
Q 5100 -400 4612 -150 
Q 4125 100 3650 300 
Q 3850 600 3875 750 
z
" transform="scale(0.015625)"/>
     </defs>
     <use xlink:href="#SimHei-6f5c"/>
     <use xlink:href="#SimHei-5728" transform="translate(100 0)"/>
     <use xlink:href="#SimHei-51c0" transform="translate(200 0)"/>
     <use xlink:href="#SimHei-501f" transform="translate(300 0)"/>
     <use xlink:href="#SimHei-6b3e" transform="translate(400 0)"/>
     <use xlink:href="#SimHei-9700" transform="translate(500 0)"/>
     <use xlink:href="#SimHei-6c42" transform="translate(600 0)"/>
     <use xlink:href="#SimHei-4e3a" transform="translate(700 0)"/>
     <use xlink:href="#SimHei-8d1f" transform="translate(800 0)"/>
    </g>
    <!-- 不表示“负贷款” -->
    <g transform="translate(132.677243 109.728131) scale(0.11 -0.11)">
     <defs>
      <path id="SimHei-4e0d" d="M 5975 4450 
Q 5525 4475 5200 4475 
L 3725 4475 
Q 3550 4125 3300 3700 
L 3300 575 
Q 3300 75 3325 -550 
L 2775 -550 
Q 2800 50 2800 575 
L 2800 3025 
Q 2025 1950 700 1050 
Q 500 1350 325 1475 
Q 825 1700 1650 2437 
Q 2475 3175 3175 4475 
L 1525 4475 
Q 1050 4475 525 4450 
L 525 4950 
Q 1275 4925 1675 4925 
L 5175 4925 
Q 5500 4925 5975 4950 
L 5975 4450 
z
M 5450 1125 
Q 4975 1725 3750 2975 
Q 3950 3150 4075 3325 
Q 4675 2775 5100 2362 
Q 5525 1950 5900 1550 
Q 5650 1350 5450 1125 
z
" transform="scale(0.015625)"/>
      <path id="SimHei-8868" d="M 2950 4475 
Q 2950 4800 2925 5200 
L 3500 5200 
Q 3450 4900 3450 4475 
L 4975 4475 
Q 5325 4475 5725 4500 
L 5725 4025 
Q 5325 4075 5000 4075 
L 3450 4075 
L 3450 3600 
L 4675 3600 
Q 5075 3600 5450 3625 
L 5450 3175 
Q 5100 3200 4675 3200 
L 3450 3200 
L 3450 2650 
L 5225 2650 
Q 5675 2650 6075 2675 
L 6075 2200 
Q 5700 2250 5250 2250 
L 3075 2250 
Q 2900 2025 2525 1625 
L 2525 175 
Q 2975 425 3525 800 
Q 3575 500 3700 275 
Q 3225 50 2837 -200 
Q 2450 -450 2250 -625 
Q 2050 -375 1900 -175 
Q 2075 -50 2050 400 
L 2050 1200 
Q 1750 950 1425 737 
Q 1100 525 750 325 
Q 600 550 375 750 
Q 975 1000 1562 1425 
Q 2150 1850 2450 2250 
L 1275 2250 
Q 800 2250 350 2200 
L 350 2675 
Q 650 2650 1350 2650 
L 2950 2650 
L 2950 3200 
L 1825 3200 
Q 1400 3200 1125 3175 
L 1125 3625 
Q 1525 3600 1825 3600 
L 2950 3600 
L 2950 4075 
L 1700 4075 
Q 1225 4075 825 4025 
L 825 4525 
Q 1200 4475 1825 4475 
L 2950 4475 
z
M 3550 2125 
Q 3725 1600 4150 1050 
Q 4650 1450 5050 2000 
Q 5275 1775 5575 1575 
Q 5350 1500 5075 1262 
Q 4800 1025 4475 725 
Q 4725 475 5225 337 
Q 5725 200 6150 175 
Q 5925 -100 5875 -425 
Q 4600 -125 4012 500 
Q 3425 1125 3150 1950 
L 3550 2125 
z
" transform="scale(0.015625)"/>
      <path id="SimHei-793a" d="M 5175 3050 
Q 5500 3050 5975 3075 
L 5975 2575 
Q 5500 2625 5150 2625 
L 3500 2625 
L 3500 -75 
Q 3500 -350 3212 -487 
Q 2925 -625 2425 -675 
Q 2400 -425 2175 -100 
Q 2625 -125 2825 -87 
Q 3025 -50 3025 175 
L 3025 2625 
L 1400 2625 
Q 900 2625 500 2600 
L 500 3075 
Q 925 3050 1400 3050 
L 5175 3050 
z
M 4425 4775 
Q 4775 4775 5225 4800 
L 5225 4325 
Q 4775 4350 4425 4350 
L 2125 4350 
Q 1600 4350 1200 4325 
L 1200 4800 
Q 1600 4775 2125 4775 
L 4425 4775 
z
M 2225 1825 
Q 1950 1400 1650 900 
Q 1350 400 975 -125 
Q 775 75 500 150 
Q 900 600 1200 1087 
Q 1500 1575 1725 2075 
Q 1975 1925 2225 1825 
z
M 4500 2025 
Q 5450 925 5925 275 
Q 5650 125 5475 -25 
Q 5100 550 4125 1750 
Q 4325 1850 4500 2025 
z
" transform="scale(0.015625)"/>
      <path id="SimHei-201c" d="M 4325 5125 
L 4325 4775 
Q 3950 4650 4000 4050 
L 4400 4050 
L 4400 3225 
L 3600 3225 
L 3600 4275 
Q 3725 5000 4300 5100 
L 4325 5125 
z
M 5725 5125 
L 5725 4775 
Q 5350 4650 5400 4050 
L 5825 4050 
L 5825 3225 
L 5000 3225 
L 5000 4275 
Q 5150 5000 5700 5100 
L 5725 5125 
z
" transform="scale(0.015625)"/>
      <path id="SimHei-8d37" d="M 2975 5125 
Q 3250 5150 3500 5200 
Q 3550 4900 3600 4662 
Q 3650 4425 3750 4100 
Q 4675 4250 5700 4475 
L 5800 4050 
Q 5500 4025 5037 3937 
Q 4575 3850 3950 3750 
Q 4300 3250 4675 3012 
Q 5050 2775 5225 2850 
Q 5400 2925 5500 3400 
Q 5700 3250 6050 3175 
Q 5875 2775 5637 2525 
Q 5400 2275 4887 2412 
Q 4375 2550 4000 2937 
Q 3625 3325 3425 3675 
Q 2900 3550 2075 3400 
L 1950 3800 
Q 2375 3850 3275 4025 
L 2975 5125 
z
M 5275 2300 
Q 5250 1925 5250 1500 
Q 5250 1100 5275 625 
L 4700 625 
L 4700 1900 
L 1750 1900 
L 1750 550 
L 1200 550 
Q 1225 1175 1225 1550 
Q 1225 1925 1200 2300 
L 5275 2300 
z
M 3525 1450 
Q 3375 1075 3275 762 
Q 3175 450 2887 175 
Q 2600 -100 2075 -312 
Q 1550 -525 650 -650 
Q 525 -375 325 -125 
Q 1000 -100 1437 -12 
Q 1875 75 2200 287 
Q 2525 500 2687 775 
Q 2850 1050 2900 1600 
Q 3175 1500 3525 1450 
z
M 2250 4875 
Q 2050 4775 1650 4275 
Q 1650 2900 1675 2525 
L 1150 2525 
Q 1175 2900 1175 3875 
Q 800 3475 600 3300 
Q 400 3525 225 3675 
Q 775 4000 1112 4375 
Q 1450 4750 1750 5250 
L 2250 4875 
z
M 3900 675 
Q 4425 450 5875 -225 
Q 5675 -450 5525 -650 
Q 4725 -200 3575 275 
Q 3750 500 3900 675 
z
M 4500 5250 
Q 4675 5075 5100 4675 
Q 4825 4500 4650 4375 
Q 4475 4650 4100 4950 
Q 4325 5075 4500 5250 
z
" transform="scale(0.015625)"/>
      <path id="SimHei-201d" d="M 525 5125 
L 1350 5125 
L 1350 4025 
Q 1225 3425 700 3225 
L 600 3225 
L 600 3550 
Q 975 3700 950 4300 
L 525 4300 
L 525 5125 
z
M 2000 5125 
L 2800 5125 
L 2800 4025 
Q 2700 3425 2175 3225 
L 2075 3225 
L 2075 3550 
Q 2450 3700 2400 4300 
L 2000 4300 
L 2000 5125 
z
" transform="scale(0.015625)"/>
     </defs>
     <use xlink:href="#SimHei-4e0d"/>
     <use xlink:href="#SimHei-8868" transform="translate(100 0)"/>
     <use xlink:href="#SimHei-793a" transform="translate(200 0)"/>
     <use xlink:href="#SimHei-201c" transform="translate(300 0)"/>
     <use xlink:href="#SimHei-8d1f" transform="translate(400 0)"/>
     <use xlink:href="#SimHei-8d37" transform="translate(500 0)"/>
     <use xlink:href="#SimHei-6b3e" transform="translate(600 0)"/>
     <use xlink:href="#SimHei-201d" transform="translate(700 0)"/>
    </g>
    <!-- 而表示不使用银行贷款 -->
    <g transform="translate(132.677243 121.776568) scale(0.11 -0.11)">
     <defs>
      <path id="SimHei-800c" d="M 4925 4775 
Q 5550 4775 6025 4800 
L 6025 4325 
Q 5550 4350 4900 4350 
L 3450 4350 
Q 3400 4100 3250 3425 
L 5550 3425 
Q 5525 3075 5525 2625 
L 5525 100 
Q 5525 -300 5262 -400 
Q 5000 -500 4650 -575 
Q 4550 -300 4350 0 
Q 4750 0 4900 50 
Q 5050 100 5050 350 
L 5050 3000 
L 4125 3000 
L 4125 125 
L 3650 125 
L 3650 3000 
L 2750 3000 
L 2750 75 
L 2275 75 
L 2275 3000 
L 1300 3000 
L 1300 -425 
L 800 -425 
Q 825 25 825 575 
L 825 2525 
Q 825 3050 800 3425 
L 2775 3425 
Q 2825 3725 2950 4350 
L 1350 4350 
Q 850 4350 350 4325 
L 325 4800 
Q 775 4775 1350 4775 
L 4925 4775 
z
" transform="scale(0.015625)"/>
      <path id="SimHei-4f7f" d="M 3700 4375 
Q 3700 4925 3675 5250 
Q 4000 5200 4250 5175 
Q 4175 4925 4175 4375 
L 4975 4375 
Q 5525 4375 5975 4400 
L 5975 3950 
Q 5500 3975 4975 3975 
L 4175 3975 
L 4175 3425 
L 5700 3425 
Q 5675 3075 5675 2675 
Q 5675 2300 5700 1900 
L 4150 1900 
Q 4100 1100 3875 600 
Q 4575 -25 6100 -50 
Q 5925 -175 5825 -525 
Q 4500 -475 3575 225 
Q 3000 -375 2175 -675 
Q 2150 -500 1825 -300 
Q 2775 -25 3225 500 
Q 2800 925 2325 1500 
Q 2475 1575 2675 1775 
Q 3075 1225 3500 900 
Q 3650 1325 3675 1900 
L 2200 1900 
Q 2225 2300 2225 2700 
Q 2225 3100 2200 3425 
L 3700 3425 
L 3700 3975 
L 2875 3975 
Q 2350 3975 1975 3950 
L 1975 4400 
Q 2325 4375 2850 4375 
L 3700 4375 
z
M 1925 4975 
Q 1800 4825 1525 4050 
L 1525 600 
Q 1525 50 1550 -575 
L 1050 -575 
Q 1075 25 1075 550 
L 1075 3200 
Q 725 2475 600 2250 
Q 475 2475 225 2625 
Q 500 3000 887 3812 
Q 1275 4625 1350 5200 
L 1925 4975 
z
M 5200 2300 
L 5200 3050 
L 4175 3050 
L 4175 2300 
L 5200 2300 
z
M 3700 2300 
L 3700 3050 
L 2700 3050 
L 2700 2300 
L 3700 2300 
z
" transform="scale(0.015625)"/>
      <path id="SimHei-7528" d="M 350 -300 
Q 650 125 812 600 
Q 975 1075 1012 1550 
Q 1050 2025 1050 3150 
Q 1050 4275 1025 4950 
L 5500 4950 
Q 5475 4225 5475 3650 
L 5475 375 
Q 5475 -150 5175 -275 
Q 4875 -400 4475 -450 
Q 4425 -75 4300 125 
Q 4800 100 4887 162 
Q 4975 225 4975 400 
L 4975 1650 
L 3450 1650 
L 3450 675 
Q 3450 125 3475 -325 
L 2925 -325 
Q 2950 100 2950 650 
L 2950 1650 
L 1525 1650 
Q 1425 575 850 -525 
Q 575 -350 350 -300 
z
M 4975 3475 
L 4975 4550 
L 3450 4550 
L 3450 3475 
L 4975 3475 
z
M 4975 2050 
L 4975 3100 
L 3450 3100 
L 3450 2050 
L 4975 2050 
z
M 2950 3475 
L 2950 4550 
L 1525 4550 
L 1525 3475 
L 2950 3475 
z
M 2950 2050 
L 2950 3100 
L 1525 3100 
L 1525 2050 
L 2950 2050 
z
" transform="scale(0.015625)"/>
      <path id="SimHei-94f6" d="M 5675 4900 
Q 5650 4425 5650 3875 
L 5650 3275 
Q 5650 2850 5675 2375 
L 4450 2375 
Q 4525 1925 4725 1500 
Q 5225 1825 5500 2225 
Q 5675 2050 5950 1800 
Q 5225 1400 4925 1100 
Q 5350 375 6200 25 
Q 5900 -175 5725 -450 
Q 5125 -50 4650 712 
Q 4175 1475 4000 2375 
L 3575 2375 
L 3575 150 
Q 3775 250 4200 600 
Q 4275 350 4400 150 
Q 3925 -100 3225 -625 
Q 3075 -375 2975 -200 
Q 3125 25 3150 450 
L 3150 3775 
Q 3150 4300 3125 4900 
L 5675 4900 
z
M 2500 2775 
Q 2100 2800 1850 2800 
L 1850 2075 
Q 2275 2075 2725 2100 
L 2725 1600 
Q 2275 1625 1850 1625 
L 1850 350 
Q 2225 675 2500 950 
Q 2575 625 2650 425 
Q 2500 350 2150 50 
Q 1800 -250 1525 -550 
Q 1375 -325 1200 -125 
Q 1375 125 1400 475 
L 1400 1625 
Q 1050 1625 600 1600 
L 600 2100 
Q 1100 2075 1400 2075 
L 1400 2800 
Q 1250 2800 950 2775 
L 950 3200 
Q 1350 3175 1725 3175 
Q 2125 3175 2500 3200 
L 2500 2775 
z
M 550 2925 
Q 350 3175 200 3350 
Q 575 3700 862 4225 
Q 1150 4750 1350 5275 
Q 1575 5125 1950 5050 
Q 1700 4750 1425 4250 
L 1800 4250 
Q 2125 4250 2675 4275 
L 2675 3800 
Q 2125 3825 1800 3825 
L 1200 3825 
Q 750 3175 550 2925 
z
M 5200 2800 
L 5200 3450 
L 3575 3450 
L 3575 2800 
L 5200 2800 
z
M 5200 3850 
L 5200 4475 
L 3575 4475 
L 3575 3850 
L 5200 3850 
z
" transform="scale(0.015625)"/>
      <path id="SimHei-884c" d="M 5300 3100 
Q 5775 3100 6175 3125 
L 6175 2625 
Q 5775 2650 5325 2650 
L 4975 2650 
L 4975 -75 
Q 5000 -375 4787 -487 
Q 4575 -600 3950 -675 
Q 3900 -375 3675 -75 
Q 4100 -125 4275 -112 
Q 4450 -100 4475 150 
L 4475 2650 
L 3475 2650 
Q 3000 2650 2575 2625 
L 2575 3125 
Q 3025 3100 3475 3100 
L 5300 3100 
z
M 2300 3400 
Q 2075 3275 1962 3075 
Q 1850 2875 1650 2575 
L 1650 325 
Q 1650 0 1675 -675 
L 1150 -675 
Q 1175 75 1175 450 
L 1175 2050 
Q 950 1675 575 1300 
Q 400 1550 250 1725 
Q 825 2275 1150 2775 
Q 1475 3275 1725 3725 
Q 1975 3575 2300 3400 
z
M 4875 4800 
Q 5300 4800 5750 4825 
L 5750 4350 
Q 5300 4375 4825 4375 
L 3900 4375 
Q 3350 4375 2950 4350 
L 2950 4825 
Q 3350 4800 3900 4800 
L 4875 4800 
z
M 2075 4925 
Q 1875 4900 1550 4387 
Q 1225 3875 650 3250 
Q 500 3450 325 3625 
Q 725 4025 1050 4487 
Q 1375 4950 1525 5300 
Q 1775 5150 2075 4925 
z
" transform="scale(0.015625)"/>
     </defs>
     <use xlink:href="#SimHei-800c"/>
     <use xlink:href="#SimHei-8868" transform="translate(100 0)"/>
     <use xlink:href="#SimHei-793a" transform="translate(200 0)"/>
     <use xlink:href="#SimHei-4e0d" transform="translate(300 0)"/>
     <use xlink:href="#SimHei-4f7f" transform="translate(400 0)"/>
     <use xlink:href="#SimHei-7528" transform="translate(500 0)"/>
     <use xlink:href="#SimHei-94f6" transform="translate(600 0)"/>
     <use xlink:href="#SimHei-884c" transform="translate(700 0)"/>
     <use xlink:href="#SimHei-8d37" transform="translate(800 0)"/>
     <use xlink:href="#SimHei-6b3e" transform="translate(900 0)"/>
    </g>
   </g>
   <g id="text_16">
    <!-- Tobit 的左侧归并机制 -->
    <g transform="translate(238.876563 17.71875) scale(0.132 -0.132)">
     <defs>
      <path id="SimHei-54" d="M 2850 3925 
L 1850 3925 
L 1850 125 
L 1275 125 
L 1275 3925 
L 275 3925 
L 275 4400 
L 2850 4400 
L 2850 3925 
z
" transform="scale(0.015625)"/>
      <path id="SimHei-6f" d="M 2925 1525 
Q 2925 875 2525 475 
Q 2125 75 1575 75 
Q 1025 75 625 475 
Q 225 875 225 1525 
Q 225 2175 625 2575 
Q 1025 2975 1575 2975 
Q 2125 2975 2525 2575 
Q 2925 2175 2925 1525 
z
M 2375 1525 
Q 2375 2025 2125 2275 
Q 1875 2525 1575 2525 
Q 1275 2525 1025 2275 
Q 775 2025 775 1525 
Q 775 1025 1025 775 
Q 1275 525 1575 525 
Q 1875 525 2125 775 
Q 2375 1025 2375 1525 
z
" transform="scale(0.015625)"/>
      <path id="SimHei-62" d="M 2825 1525 
Q 2825 800 2475 437 
Q 2125 75 1625 75 
Q 1350 75 1150 175 
Q 950 275 800 500 
L 800 125 
L 300 125 
L 300 4400 
L 800 4400 
L 800 2550 
Q 950 2775 1150 2887 
Q 1350 3000 1625 3000 
Q 2125 3000 2475 2625 
Q 2825 2250 2825 1525 
z
M 2275 1525 
Q 2275 2000 2087 2275 
Q 1900 2550 1525 2550 
Q 1225 2550 1012 2275 
Q 800 2000 800 1525 
Q 800 1050 1012 787 
Q 1225 525 1525 525 
Q 1900 525 2087 787 
Q 2275 1050 2275 1525 
z
" transform="scale(0.015625)"/>
      <path id="SimHei-69" d="M 1800 3725 
L 1300 3725 
L 1300 4375 
L 1800 4375 
L 1800 3725 
z
M 1800 125 
L 1300 125 
L 1300 2925 
L 1800 2925 
L 1800 125 
z
" transform="scale(0.015625)"/>
      <path id="SimHei-74" d="M 2750 200 
Q 2625 150 2462 112 
Q 2300 75 2025 75 
Q 1575 75 1300 325 
Q 1025 575 1025 1025 
L 1025 2525 
L 175 2525 
L 175 2925 
L 1025 2925 
L 1025 3900 
L 1525 3900 
L 1525 2925 
L 2550 2925 
L 2550 2525 
L 1525 2525 
L 1525 1000 
Q 1525 800 1625 662 
Q 1725 525 2000 525 
Q 2275 525 2450 575 
Q 2625 625 2750 700 
L 2750 200 
z
" transform="scale(0.015625)"/>
      <path id="SimHei-7684" d="M 2100 4975 
Q 1975 4750 1750 3950 
L 2875 3950 
Q 2850 3525 2850 2875 
L 2850 675 
Q 2850 300 2875 -400 
L 2375 -400 
L 2375 100 
L 1100 100 
L 1100 -450 
L 600 -450 
Q 625 350 625 550 
L 625 2850 
Q 625 3525 600 3950 
L 1325 3950 
Q 1450 4525 1525 5150 
Q 1875 5025 2100 4975 
z
M 5825 3075 
Q 5800 1550 5700 175 
Q 5650 -275 5225 -425 
Q 4800 -575 4275 -625 
Q 4250 -350 4050 -50 
Q 4550 -75 4837 -25 
Q 5125 25 5200 200 
Q 5275 375 5312 1225 
Q 5350 2075 5375 3600 
L 3925 3600 
Q 3725 3125 3350 2475 
Q 3175 2650 2925 2750 
Q 3150 3050 3350 3475 
Q 3550 3900 3700 4400 
Q 3850 4900 3875 5175 
Q 4225 5025 4475 4950 
Q 4350 4750 4262 4512 
Q 4175 4275 4075 4050 
L 5850 4050 
Q 5825 3525 5825 3075 
z
M 2375 525 
L 2375 1850 
L 1100 1850 
L 1100 525 
L 2375 525 
z
M 2375 2275 
L 2375 3525 
L 1100 3525 
L 1100 2275 
L 2375 2275 
z
M 4350 2050 
Q 4500 1750 4700 1275 
Q 4525 1200 4225 1025 
Q 4050 1500 3900 1837 
Q 3750 2175 3600 2400 
Q 3775 2500 4050 2650 
L 4350 2050 
z
" transform="scale(0.015625)"/>
      <path id="SimHei-5de6" d="M 3175 5125 
Q 3075 4800 2975 4150 
L 4925 4150 
Q 5400 4150 5850 4200 
L 5850 3700 
Q 5400 3725 5025 3725 
L 2875 3725 
Q 2625 2875 2400 2350 
L 4625 2350 
Q 5075 2350 5500 2375 
L 5500 1875 
Q 5100 1900 4650 1900 
L 3925 1900 
L 3925 25 
L 4950 25 
Q 5550 25 6025 50 
L 6025 -450 
Q 5475 -425 5000 -425 
L 2200 -425 
Q 1675 -425 1325 -450 
L 1325 50 
Q 1675 25 2225 25 
L 3400 25 
L 3400 1900 
L 2175 1900 
Q 1900 1425 1550 987 
Q 1200 550 675 50 
Q 550 225 200 375 
Q 700 750 1062 1175 
Q 1425 1600 1775 2237 
Q 2125 2875 2350 3725 
L 1700 3725 
Q 1100 3725 675 3700 
L 675 4200 
Q 1125 4150 1700 4150 
L 2450 4150 
Q 2550 4775 2550 5175 
Q 2900 5125 3175 5125 
z
" transform="scale(0.015625)"/>
      <path id="SimHei-4fa7" d="M 4025 4725 
Q 4000 4475 4000 4000 
L 4000 2225 
Q 4000 1775 4025 1350 
L 3550 1350 
L 3550 4325 
L 2350 4325 
L 2350 1325 
L 1900 1325 
Q 1925 1775 1925 2225 
L 1925 4000 
Q 1925 4200 1900 4725 
L 4025 4725 
z
M 1850 4950 
Q 1700 4800 1375 3825 
L 1375 650 
Q 1375 -75 1400 -600 
L 925 -600 
Q 950 -75 950 650 
L 950 3050 
Q 850 2825 550 2300 
Q 375 2550 200 2700 
Q 575 3200 900 4000 
Q 1225 4800 1275 5200 
Q 1575 5025 1850 4950 
z
M 5900 5075 
Q 5875 4800 5875 4375 
L 5875 0 
Q 5875 -325 5650 -425 
Q 5425 -525 4975 -600 
Q 4925 -325 4775 -50 
Q 5125 -50 5262 -25 
Q 5400 0 5400 250 
L 5400 4375 
Q 5400 4775 5375 5075 
L 5900 5075 
z
M 3275 3725 
Q 3225 3400 3200 2325 
Q 3175 1250 2837 550 
Q 2500 -150 2075 -600 
Q 1850 -400 1600 -325 
Q 2200 250 2475 962 
Q 2750 1675 2762 2475 
Q 2775 3275 2725 3800 
Q 3000 3750 3275 3725 
z
M 4950 4275 
Q 4925 4000 4925 3575 
L 4925 1825 
Q 4925 1300 4950 850 
L 4450 850 
Q 4475 1150 4475 1825 
L 4475 3575 
Q 4475 4000 4450 4275 
L 4950 4275 
z
M 3400 1050 
Q 3800 650 4300 -125 
Q 4100 -225 3875 -450 
Q 3475 275 3025 750 
Q 3225 875 3400 1050 
z
" transform="scale(0.015625)"/>
      <path id="SimHei-5f52" d="M 2600 800 
Q 3075 775 3600 775 
L 5300 775 
L 5300 2275 
L 4150 2275 
Q 3550 2275 3100 2250 
L 3100 2725 
Q 3550 2700 4150 2700 
L 5300 2700 
L 5300 4175 
L 3775 4175 
Q 3300 4175 2800 4150 
L 2800 4625 
Q 3250 4600 3725 4600 
L 5850 4600 
Q 5825 4075 5825 3775 
L 5825 825 
Q 5825 200 5850 -300 
L 5300 -300 
L 5300 350 
L 3600 350 
Q 3075 350 2600 325 
L 2600 800 
z
M 350 -150 
Q 1125 325 1475 975 
Q 1825 1625 1900 2362 
Q 1975 3100 1962 3837 
Q 1950 4575 1925 5125 
L 2475 5125 
Q 2450 4725 2450 3950 
Q 2450 3175 2400 2437 
Q 2350 1700 2012 950 
Q 1675 200 800 -550 
Q 625 -325 350 -150 
z
M 500 1225 
Q 525 1650 525 2050 
L 525 3700 
Q 525 4125 500 4475 
L 1050 4475 
Q 1025 4100 1025 3700 
L 1025 2050 
Q 1025 1650 1050 1225 
L 500 1225 
z
" transform="scale(0.015625)"/>
      <path id="SimHei-5e76" d="M 3750 3925 
Q 4000 4525 4150 5250 
Q 4475 5100 4825 5000 
Q 4700 4825 4562 4525 
Q 4425 4225 4300 3925 
Q 5200 3925 5625 3950 
L 5625 3450 
Q 5250 3475 4400 3475 
L 4400 2125 
Q 5575 2125 6075 2150 
L 6075 1650 
Q 5700 1675 4400 1675 
L 4400 400 
Q 4400 0 4425 -550 
L 3900 -550 
Q 3925 -25 3925 325 
L 3925 1675 
L 2450 1675 
Q 2375 850 2025 350 
Q 1675 -150 950 -650 
Q 725 -350 475 -200 
Q 1175 125 1537 587 
Q 1900 1050 1950 1675 
Q 850 1675 325 1650 
L 325 2150 
Q 825 2125 2000 2125 
L 2000 3475 
Q 1250 3475 725 3450 
L 725 3950 
Q 1025 3925 2100 3925 
Q 1850 4475 1500 4875 
Q 1850 5075 1975 5175 
Q 2500 4500 2650 4175 
Q 2450 4050 2250 3925 
L 3750 3925 
z
M 3925 2125 
L 3925 3475 
L 2475 3475 
L 2475 2125 
L 3925 2125 
z
" transform="scale(0.015625)"/>
      <path id="SimHei-673a" d="M 5100 4775 
Q 5075 4075 5075 3575 
L 5075 325 
Q 5075 0 5225 -25 
Q 5375 -50 5475 -37 
Q 5575 -25 5612 137 
Q 5650 300 5650 625 
Q 5875 500 6175 425 
Q 6075 -100 5975 -275 
Q 5875 -450 5650 -450 
L 5125 -450 
Q 4825 -450 4687 -312 
Q 4550 -175 4575 250 
L 4575 4350 
L 3625 4350 
Q 3625 2925 3587 2137 
Q 3550 1350 3362 712 
Q 3175 75 2625 -575 
Q 2500 -425 2175 -175 
Q 2525 100 2737 500 
Q 2950 900 3025 1325 
Q 3100 1750 3125 2225 
Q 3150 2700 3150 3425 
Q 3150 4175 3125 4775 
L 5100 4775 
z
M 2150 2725 
Q 2550 2175 2750 1875 
Q 2575 1725 2325 1550 
Q 2175 1875 1800 2425 
L 1800 600 
Q 1800 100 1825 -525 
L 1275 -525 
Q 1300 100 1300 600 
L 1300 2200 
Q 1175 1825 1025 1487 
Q 875 1150 600 725 
Q 375 975 200 1125 
Q 400 1350 725 2000 
Q 1050 2650 1225 3450 
L 1075 3450 
Q 725 3450 375 3400 
L 375 3875 
Q 725 3850 1050 3850 
L 1300 3850 
L 1300 4350 
Q 1300 4750 1275 5100 
L 1850 5100 
Q 1800 4850 1800 4350 
L 1800 3850 
L 2075 3850 
Q 2350 3850 2700 3875 
L 2700 3425 
Q 2150 3450 1800 3450 
L 1800 2450 
Q 1950 2575 2150 2725 
z
" transform="scale(0.015625)"/>
      <path id="SimHei-5236" d="M 1325 4625 
Q 1175 4375 1075 4150 
L 1800 4150 
Q 1800 4775 1775 5125 
L 2350 5125 
Q 2325 4800 2325 4150 
L 2700 4150 
Q 3200 4150 3600 4175 
L 3600 3725 
Q 3250 3750 2725 3750 
L 2325 3750 
L 2325 3025 
L 2950 3025 
Q 3325 3025 3750 3050 
L 3750 2625 
L 2325 2625 
L 2325 1950 
L 3675 1950 
Q 3650 1650 3637 1125 
Q 3625 600 3612 412 
Q 3600 225 3400 137 
Q 3200 50 2825 -25 
Q 2775 250 2650 550 
Q 2975 550 3050 587 
Q 3125 625 3125 975 
L 3125 1550 
L 2325 1550 
L 2325 175 
Q 2325 -250 2350 -550 
L 1775 -550 
Q 1800 -75 1800 175 
L 1800 1550 
L 1025 1550 
L 1025 -25 
L 500 -25 
Q 525 300 525 650 
L 525 1200 
Q 525 1675 500 1950 
L 1800 1950 
L 1800 2625 
L 1000 2625 
Q 550 2625 225 2600 
L 225 3050 
Q 550 3025 1000 3025 
L 1800 3025 
L 1800 3750 
L 925 3750 
Q 800 3450 675 3250 
Q 450 3400 225 3500 
Q 400 3750 525 4075 
Q 650 4400 750 4800 
Q 1000 4700 1325 4625 
z
M 5875 5075 
Q 5850 4825 5850 4350 
L 5850 25 
Q 5850 -325 5587 -412 
Q 5325 -500 4825 -575 
Q 4750 -250 4625 0 
Q 5050 0 5200 25 
Q 5350 50 5350 350 
L 5350 4350 
Q 5350 4775 5325 5075 
L 5875 5075 
z
M 4675 4325 
Q 4650 3975 4650 3700 
L 4650 1625 
Q 4650 1275 4675 775 
L 4125 775 
Q 4175 1200 4175 1625 
L 4175 3700 
Q 4175 3950 4125 4325 
L 4675 4325 
z
" transform="scale(0.015625)"/>
     </defs>
     <use xlink:href="#SimHei-54"/>
     <use xlink:href="#SimHei-6f" transform="translate(50 0)"/>
     <use xlink:href="#SimHei-62" transform="translate(100 0)"/>
     <use xlink:href="#SimHei-69" transform="translate(150 0)"/>
     <use xlink:href="#SimHei-74" transform="translate(200 0)"/>
     <use xlink:href="#SimHei-20" transform="translate(250 0)"/>
     <use xlink:href="#SimHei-7684" transform="translate(300 0)"/>
     <use xlink:href="#SimHei-5de6" transform="translate(400 0)"/>
     <use xlink:href="#SimHei-4fa7" transform="translate(500 0)"/>
     <use xlink:href="#SimHei-5f52" transform="translate(600 0)"/>
     <use xlink:href="#SimHei-5e76" transform="translate(700 0)"/>
     <use xlink:href="#SimHei-673a" transform="translate(800 0)"/>
     <use xlink:href="#SimHei-5236" transform="translate(900 0)"/>
    </g>
   </g>
   <g id="legend_1">
    <g id="patch_6">
     <path d="M 425.126562 42.384375 
L 447.126562 42.384375 
L 447.126562 34.684375 
L 425.126562 34.684375 
z
" style="fill: #1f77b4; fill-opacity: 0.25"/>
    </g>
    <g id="text_17">
     <!-- 被归并为 0 的区域 -->
     <g transform="translate(455.926562 42.384375) scale(0.11 -0.11)">
      <defs>
       <path id="SimHei-88ab" d="M 4100 4175 
Q 4100 4800 4075 5175 
L 4575 5175 
Q 4550 4825 4550 4175 
L 6025 4175 
Q 5900 3825 5725 3225 
Q 5550 3300 5225 3325 
Q 5375 3675 5400 3800 
L 4550 3800 
L 4550 2650 
L 5575 2650 
Q 5425 2075 5225 1575 
Q 5025 1075 4675 550 
Q 4925 325 5375 150 
Q 5825 -25 6125 -50 
Q 5850 -300 5775 -550 
Q 5325 -375 5000 -187 
Q 4675 0 4400 250 
Q 3975 -200 3225 -625 
Q 3050 -350 2850 -250 
Q 3575 0 4100 575 
Q 3675 1125 3400 2275 
L 3275 2275 
Q 3250 1575 3087 925 
Q 2925 275 2350 -550 
Q 2175 -400 1875 -300 
Q 2375 225 2600 825 
Q 2825 1425 2850 2150 
L 2850 3375 
Q 2850 3900 2825 4175 
L 4100 4175 
z
M 1825 2325 
Q 2075 2600 2300 2950 
Q 2500 2725 2650 2600 
Q 2425 2400 2075 2050 
L 2550 1575 
Q 2400 1450 2200 1225 
Q 1975 1575 1575 1975 
L 1575 525 
Q 1575 0 1600 -625 
L 1125 -625 
Q 1150 175 1150 700 
L 1150 2075 
Q 900 1800 525 1475 
Q 400 1675 200 1850 
Q 675 2175 1037 2600 
Q 1400 3025 1650 3525 
L 1150 3525 
Q 800 3525 400 3500 
L 400 3925 
Q 950 3900 1300 3900 
L 2350 3900 
Q 1950 3075 1550 2550 
Q 1650 2475 1825 2325 
z
M 4100 2650 
L 4100 3800 
L 3275 3800 
L 3275 2650 
L 4100 2650 
z
M 3825 2275 
Q 4050 1375 4400 900 
Q 4600 1200 4737 1512 
Q 4875 1825 5000 2275 
L 3825 2275 
z
M 1500 5250 
Q 1750 4800 1950 4375 
L 1500 4150 
Q 1325 4650 1075 5025 
Q 1300 5100 1500 5250 
z
" transform="scale(0.015625)"/>
       <path id="SimHei-533a" d="M 5850 4525 
Q 5475 4550 4850 4550 
L 1150 4550 
L 1150 -75 
L 5225 -75 
Q 5725 -75 6025 -50 
L 6025 -500 
Q 5700 -475 5175 -475 
L 625 -475 
Q 650 125 650 400 
L 650 4200 
Q 650 4625 625 4975 
L 5850 4975 
L 5850 4525 
z
M 2275 3875 
Q 3150 3275 3800 2700 
Q 4375 3375 4650 4050 
Q 4925 3875 5300 3700 
Q 5025 3525 4825 3225 
Q 4625 2925 4225 2375 
Q 5075 1675 5600 1000 
Q 5300 800 5175 575 
Q 4775 1175 3850 1950 
Q 3475 1525 3087 1175 
Q 2700 825 2125 400 
Q 1900 625 1625 775 
Q 2125 1000 2525 1312 
Q 2925 1625 3475 2300 
Q 2850 2875 1925 3450 
Q 2175 3650 2275 3875 
z
" transform="scale(0.015625)"/>
       <path id="SimHei-57df" d="M 4550 5100 
Q 4475 4775 4500 4150 
L 5025 4150 
Q 5450 4150 5950 4175 
L 5950 3700 
Q 5475 3725 5025 3725 
L 4525 3725 
Q 4550 3050 4600 2462 
Q 4650 1875 4775 1275 
Q 4975 1850 5050 2275 
Q 5125 2700 5175 3200 
Q 5425 3075 5750 3000 
Q 5675 2875 5537 2337 
Q 5400 1800 5287 1450 
Q 5175 1100 5025 700 
Q 5125 450 5312 237 
Q 5500 25 5587 212 
Q 5675 400 5750 700 
Q 5900 525 6200 400 
Q 6000 -100 5800 -337 
Q 5600 -575 5250 -325 
Q 4900 -75 4725 300 
Q 4575 75 4362 -175 
Q 4150 -425 3875 -650 
Q 3750 -525 3400 -325 
Q 3750 -150 4037 162 
Q 4325 475 4475 775 
Q 4350 1175 4287 1512 
Q 4225 1850 4162 2450 
Q 4100 3050 4075 3725 
L 3150 3725 
Q 2525 3725 1975 3700 
L 1975 4175 
Q 2525 4150 3150 4150 
L 4050 4150 
Q 4025 4600 3950 5175 
Q 4250 5125 4550 5100 
z
M 975 4250 
Q 975 4800 950 5100 
L 1450 5100 
Q 1425 4750 1425 4250 
L 1425 3325 
Q 1625 3325 2000 3350 
L 2000 2900 
Q 1625 2925 1425 2925 
L 1425 1000 
Q 1550 1075 2000 1275 
Q 1975 1075 2000 775 
Q 1675 625 1200 425 
Q 725 225 500 50 
Q 375 325 250 575 
Q 475 625 662 687 
Q 850 750 975 825 
L 975 2925 
Q 625 2925 300 2900 
L 300 3350 
Q 600 3325 975 3325 
L 975 4250 
z
M 3800 1750 
Q 3800 1425 3825 1150 
L 2225 1150 
Q 2250 1375 2250 1575 
L 2250 2525 
Q 2250 2825 2225 3075 
L 3825 3075 
Q 3800 2875 3800 2675 
L 3800 1750 
z
M 1900 225 
Q 2300 300 2850 462 
Q 3400 625 3825 800 
Q 3800 600 3800 350 
Q 3500 250 3012 75 
Q 2525 -100 2125 -275 
Q 2025 -25 1900 225 
z
M 3350 1525 
L 3350 2700 
L 2725 2700 
L 2725 1525 
L 3350 1525 
z
M 5300 4325 
Q 5150 4625 4900 4925 
Q 5050 5050 5250 5150 
Q 5450 4900 5700 4575 
Q 5475 4475 5300 4325 
z
" transform="scale(0.015625)"/>
      </defs>
      <use xlink:href="#SimHei-88ab"/>
      <use xlink:href="#SimHei-5f52" transform="translate(100 0)"/>
      <use xlink:href="#SimHei-5e76" transform="translate(200 0)"/>
      <use xlink:href="#SimHei-4e3a" transform="translate(300 0)"/>
      <use xlink:href="#SimHei-20" transform="translate(400 0)"/>
      <use xlink:href="#SimHei-30" transform="translate(450 0)"/>
      <use xlink:href="#SimHei-20" transform="translate(500 0)"/>
      <use xlink:href="#SimHei-7684" transform="translate(550 0)"/>
      <use xlink:href="#SimHei-533a" transform="translate(650 0)"/>
      <use xlink:href="#SimHei-57df" transform="translate(750 0)"/>
     </g>
    </g>
    <g id="patch_7">
     <path d="M 425.126562 58.067969 
L 447.126562 58.067969 
L 447.126562 50.367969 
L 425.126562 50.367969 
z
" style="fill: #ff7f0e; fill-opacity: 0.12"/>
    </g>
    <g id="text_18">
     <!-- 正贷款金额区域 -->
     <g transform="translate(455.926562 58.067969) scale(0.11 -0.11)">
      <defs>
       <path id="SimHei-6b63" d="M 4825 4625 
Q 5300 4625 5675 4650 
L 5675 4150 
Q 5300 4175 4775 4175 
L 3575 4175 
L 3575 2600 
L 4850 2600 
Q 5250 2600 5550 2625 
L 5550 2150 
Q 5250 2175 4850 2175 
L 3575 2175 
L 3575 150 
L 4850 150 
Q 5375 150 5900 175 
L 5900 -325 
Q 5375 -300 4975 -300 
L 1175 -300 
Q 700 -300 375 -325 
L 375 175 
Q 700 150 1175 150 
L 1325 150 
L 1325 2350 
Q 1325 2800 1300 3125 
L 1875 3125 
Q 1850 2825 1850 2350 
L 1850 150 
L 3075 150 
L 3075 4175 
L 1625 4175 
Q 1150 4175 800 4150 
L 800 4650 
Q 1150 4625 1625 4625 
L 4825 4625 
z
" transform="scale(0.015625)"/>
       <path id="SimHei-91d1" d="M 1800 1250 
Q 2200 700 2500 225 
Q 2325 125 2150 -50 
L 2925 -50 
L 2925 1400 
L 2075 1400 
Q 1725 1400 1100 1375 
L 1100 1850 
Q 1725 1825 2050 1825 
L 2925 1825 
L 2925 2600 
Q 2100 2600 1625 2575 
L 1625 2975 
Q 1225 2675 650 2350 
Q 500 2575 275 2775 
Q 750 2950 1250 3300 
Q 1750 3650 2225 4162 
Q 2700 4675 3000 5250 
Q 3050 5200 3525 4975 
L 3375 4825 
Q 3650 4525 4050 4150 
Q 4450 3775 5000 3487 
Q 5550 3200 6150 3025 
Q 5950 2825 5825 2550 
Q 5325 2725 4800 3000 
L 4800 2575 
Q 4300 2600 4000 2600 
L 3400 2600 
L 3400 1825 
L 4275 1825 
Q 4700 1825 5325 1850 
L 5325 1375 
Q 4725 1400 4275 1400 
L 3400 1400 
L 3400 -50 
L 3875 -50 
Q 4450 950 4500 1300 
Q 4725 1150 5050 1000 
Q 4875 775 4375 -50 
Q 5150 -50 5875 -25 
L 5875 -500 
Q 5150 -475 4700 -475 
L 1725 -475 
Q 1200 -475 700 -500 
L 700 -25 
Q 1225 -50 1725 -50 
L 2025 -50 
Q 1850 350 1400 950 
Q 1625 1100 1800 1250 
z
M 1700 3050 
Q 2075 3025 2400 3025 
L 3900 3025 
Q 4275 3050 4700 3050 
Q 4275 3350 3837 3762 
Q 3400 4175 3125 4525 
Q 2850 4150 2462 3762 
Q 2075 3375 1700 3050 
z
" transform="scale(0.015625)"/>
       <path id="SimHei-989d" d="M 1925 3700 
Q 1725 3550 1550 3350 
L 2950 3350 
Q 2875 3150 2700 2875 
Q 2525 2600 2300 2300 
Q 2500 2200 2712 2075 
Q 2925 1950 3275 1725 
Q 3125 1575 2950 1325 
Q 2700 1525 2475 1662 
Q 2250 1800 1950 1950 
Q 1575 1650 1150 1375 
L 2800 1375 
Q 2775 950 2775 500 
Q 2775 50 2800 -450 
L 2325 -450 
L 2325 -50 
L 1325 -50 
L 1325 -575 
L 875 -575 
Q 900 -75 900 275 
L 900 1175 
Q 675 1075 550 1000 
Q 400 1225 225 1400 
Q 625 1550 975 1762 
Q 1325 1975 1550 2200 
Q 1300 2350 1075 2475 
Q 1175 2625 1350 2800 
Q 1625 2650 1925 2500 
Q 2150 2750 2300 3000 
L 1300 3000 
Q 1200 2875 1025 2687 
Q 850 2500 650 2275 
Q 475 2425 250 2575 
Q 650 2875 937 3237 
Q 1225 3600 1375 3925 
Q 1650 3800 1925 3700 
z
M 4150 4400 
Q 3775 4400 3375 4375 
L 3375 4825 
Q 3750 4800 4200 4800 
L 5300 4800 
Q 5600 4800 6000 4825 
L 6000 4375 
Q 5625 4400 5300 4400 
L 4950 4400 
Q 4850 3975 4725 3525 
L 5750 3525 
Q 5725 3125 5725 2775 
L 5725 1625 
Q 5725 1300 5750 825 
L 5300 825 
L 5300 3175 
L 3925 3175 
L 3925 800 
L 3450 800 
Q 3475 1275 3475 1650 
L 3475 2800 
Q 3475 3175 3450 3525 
L 4300 3525 
Q 4400 4025 4450 4400 
L 4150 4400 
z
M 2050 5100 
Q 2100 4825 2200 4475 
L 3225 4475 
Q 3200 4275 3200 4075 
Q 3200 3875 3225 3675 
L 2775 3675 
L 2775 4100 
L 875 4100 
L 875 3500 
L 400 3500 
Q 425 3775 425 4000 
Q 425 4250 400 4475 
L 1650 4475 
Q 1550 4750 1475 5000 
Q 1800 5050 2050 5100 
z
M 4925 2725 
Q 4850 2425 4837 2025 
Q 4825 1625 4712 1175 
Q 4600 725 4262 250 
Q 3925 -225 3250 -675 
Q 3050 -425 2850 -250 
Q 3375 -25 3687 262 
Q 4000 550 4162 937 
Q 4325 1325 4350 1750 
Q 4375 2175 4375 2775 
Q 4575 2750 4925 2725 
z
M 2325 325 
L 2325 1025 
L 1325 1025 
L 1325 325 
L 2325 325 
z
M 5075 800 
Q 5300 575 5487 400 
Q 5675 225 6025 -100 
Q 5800 -275 5600 -500 
Q 5450 -275 5275 -87 
Q 5100 100 4675 400 
Q 4875 575 5075 800 
z
" transform="scale(0.015625)"/>
      </defs>
      <use xlink:href="#SimHei-6b63"/>
      <use xlink:href="#SimHei-8d37" transform="translate(100 0)"/>
      <use xlink:href="#SimHei-6b3e" transform="translate(200 0)"/>
      <use xlink:href="#SimHei-91d1" transform="translate(300 0)"/>
      <use xlink:href="#SimHei-989d" transform="translate(400 0)"/>
      <use xlink:href="#SimHei-533a" transform="translate(500 0)"/>
      <use xlink:href="#SimHei-57df" transform="translate(600 0)"/>
     </g>
    </g>
   </g>
  </g>
 </g>
 <defs>
  <clipPath id="p799271d658">
   <rect x="50.426563" y="23.71875" width="508.9" height="269.659"/>
  </clipPath>
 </defs>
</svg>
