<?xml version="1.0" encoding="utf-8" standalone="no"?>
<!DOCTYPE svg PUBLIC "-//W3C//DTD SVG 1.1//EN"
  "http://www.w3.org/Graphics/SVG/1.1/DTD/svg11.dtd">
<svg xmlns:xlink="http://www.w3.org/1999/xlink" width="465.85pt" height="332.7995pt" viewBox="0 0 465.85 332.7995" xmlns="http://www.w3.org/2000/svg" version="1.1">
 <metadata>
  <rdf:RDF xmlns:dc="http://purl.org/dc/elements/1.1/" xmlns:cc="http://creativecommons.org/ns#" xmlns:rdf="http://www.w3.org/1999/02/22-rdf-syntax-ns#">
   <cc:Work>
    <dc:type rdf:resource="http://purl.org/dc/dcmitype/StillImage"/>
    <dc:date>2026-04-30T00:54:32.303647</dc:date>
    <dc:format>image/svg+xml</dc:format>
    <dc:creator>
     <cc:Agent>
      <dc:title>Matplotlib v3.10.8, https://matplotlib.org/</dc:title>
     </cc:Agent>
    </dc:creator>
   </cc:Work>
  </rdf:RDF>
 </metadata>
 <defs>
  <style type="text/css">*{stroke-linejoin: round; stroke-linecap: butt}</style>
 </defs>
 <g id="figure_1">
  <g id="patch_1">
   <path d="M 0 332.7995 
L 465.85 332.7995 
L 465.85 0 
L 0 0 
z
" style="fill: #ffffff"/>
  </g>
  <g id="axes_1">
   <g id="patch_2">
    <path d="M 25.2 294.772 
L 455.9 294.772 
L 455.9 25.212 
L 25.2 25.212 
z
" style="fill: #ffffff"/>
   </g>
   <g id="matplotlib.axis_1">
    <g id="xtick_1">
     <g id="line2d_1">
      <path d="M 25.2 294.772 
L 25.2 25.212 
" clip-path="url(#p3fa46fe219)" style="fill: none; stroke: #b0b0b0; stroke-opacity: 0.25; stroke-width: 0.8; stroke-linecap: square"/>
     </g>
     <g id="line2d_2">
      <defs>
       <path id="mbf5ae39696" d="M 0 0 
L 0 3.5 
" style="stroke: #000000; stroke-width: 0.8"/>
      </defs>
      <g>
       <use xlink:href="#mbf5ae39696" x="25.2" y="294.772" style="stroke: #000000; stroke-width: 0.8"/>
      </g>
     </g>
     <g id="text_1">
      <!-- -4 -->
      <g transform="translate(19.7 309.3345) scale(0.11 -0.11)">
       <defs>
        <path id="SimHei-2d" d="M 2975 2125 
L 125 2125 
L 125 2525 
L 2975 2525 
L 2975 2125 
z
" transform="scale(0.015625)"/>
        <path id="SimHei-34" d="M 2000 1100 
L 75 1100 
L 75 1525 
L 2100 4450 
L 2475 4450 
L 2475 1525 
L 3075 1525 
L 3075 1100 
L 2475 1100 
L 2475 150 
L 2000 150 
L 2000 1100 
z
M 2000 1525 
L 2000 3500 
L 600 1525 
L 2000 1525 
z
" transform="scale(0.015625)"/>
       </defs>
       <use xlink:href="#SimHei-2d"/>
       <use xlink:href="#SimHei-34" transform="translate(50 0)"/>
      </g>
     </g>
    </g>
    <g id="xtick_2">
     <g id="line2d_3">
      <path d="M 79.0375 294.772 
L 79.0375 25.212 
" clip-path="url(#p3fa46fe219)" style="fill: none; stroke: #b0b0b0; stroke-opacity: 0.25; stroke-width: 0.8; stroke-linecap: square"/>
     </g>
     <g id="line2d_4">
      <g>
       <use xlink:href="#mbf5ae39696" x="79.0375" y="294.772" style="stroke: #000000; stroke-width: 0.8"/>
      </g>
     </g>
     <g id="text_2">
      <!-- -3 -->
      <g transform="translate(73.5375 309.3345) scale(0.11 -0.11)">
       <defs>
        <path id="SimHei-33" d="M 250 1225 
L 700 1300 
Q 800 975 1025 762 
Q 1250 550 1587 562 
Q 1925 575 2125 837 
Q 2325 1100 2300 1437 
Q 2275 1775 2037 1962 
Q 1800 2150 1275 2225 
L 1275 2550 
Q 1800 2600 2037 2825 
Q 2275 3050 2250 3412 
Q 2225 3775 1925 3937 
Q 1625 4100 1287 3975 
Q 950 3850 750 3275 
L 300 3350 
Q 450 3800 712 4100 
Q 975 4400 1425 4450 
Q 1875 4500 2212 4337 
Q 2550 4175 2687 3837 
Q 2825 3500 2725 3100 
Q 2625 2700 2150 2400 
Q 2500 2250 2687 1950 
Q 2875 1650 2812 1162 
Q 2750 675 2375 375 
Q 2000 75 1525 87 
Q 1050 100 700 387 
Q 350 675 250 1225 
z
" transform="scale(0.015625)"/>
       </defs>
       <use xlink:href="#SimHei-2d"/>
       <use xlink:href="#SimHei-33" transform="translate(50 0)"/>
      </g>
     </g>
    </g>
    <g id="xtick_3">
     <g id="line2d_5">
      <path d="M 132.875 294.772 
L 132.875 25.212 
" clip-path="url(#p3fa46fe219)" style="fill: none; stroke: #b0b0b0; stroke-opacity: 0.25; stroke-width: 0.8; stroke-linecap: square"/>
     </g>
     <g id="line2d_6">
      <g>
       <use xlink:href="#mbf5ae39696" x="132.875" y="294.772" style="stroke: #000000; stroke-width: 0.8"/>
      </g>
     </g>
     <g id="text_3">
      <!-- -2 -->
      <g transform="translate(127.375 309.3345) scale(0.11 -0.11)">
       <defs>
        <path id="SimHei-32" d="M 300 250 
Q 325 625 650 925 
Q 975 1225 1475 1862 
Q 1975 2500 2125 2850 
Q 2275 3200 2237 3450 
Q 2200 3700 2000 3862 
Q 1800 4025 1537 4000 
Q 1275 3975 1037 3800 
Q 800 3625 675 3275 
L 200 3350 
Q 400 3925 712 4187 
Q 1025 4450 1450 4475 
Q 1700 4500 1900 4462 
Q 2100 4425 2312 4287 
Q 2525 4150 2662 3875 
Q 2800 3600 2762 3212 
Q 2725 2825 2375 2287 
Q 2025 1750 1025 600 
L 2825 600 
L 2825 150 
L 300 150 
L 300 250 
z
" transform="scale(0.015625)"/>
       </defs>
       <use xlink:href="#SimHei-2d"/>
       <use xlink:href="#SimHei-32" transform="translate(50 0)"/>
      </g>
     </g>
    </g>
    <g id="xtick_4">
     <g id="line2d_7">
      <path d="M 186.7125 294.772 
L 186.7125 25.212 
" clip-path="url(#p3fa46fe219)" style="fill: none; stroke: #b0b0b0; stroke-opacity: 0.25; stroke-width: 0.8; stroke-linecap: square"/>
     </g>
     <g id="line2d_8">
      <g>
       <use xlink:href="#mbf5ae39696" x="186.7125" y="294.772" style="stroke: #000000; stroke-width: 0.8"/>
      </g>
     </g>
     <g id="text_4">
      <!-- -1 -->
      <g transform="translate(181.2125 309.3345) scale(0.11 -0.11)">
       <defs>
        <path id="SimHei-31" d="M 1400 3600 
Q 1075 3275 575 2975 
L 575 3450 
Q 1200 3875 1600 4450 
L 1900 4450 
L 1900 150 
L 1400 150 
L 1400 3600 
z
" transform="scale(0.015625)"/>
       </defs>
       <use xlink:href="#SimHei-2d"/>
       <use xlink:href="#SimHei-31" transform="translate(50 0)"/>
      </g>
     </g>
    </g>
    <g id="xtick_5">
     <g id="line2d_9">
      <path d="M 240.55 294.772 
L 240.55 25.212 
" clip-path="url(#p3fa46fe219)" style="fill: none; stroke: #b0b0b0; stroke-opacity: 0.25; stroke-width: 0.8; stroke-linecap: square"/>
     </g>
     <g id="line2d_10">
      <g>
       <use xlink:href="#mbf5ae39696" x="240.55" y="294.772" style="stroke: #000000; stroke-width: 0.8"/>
      </g>
     </g>
     <g id="text_5">
      <!-- 0 -->
      <g transform="translate(237.8 309.3345) scale(0.11 -0.11)">
       <defs>
        <path id="SimHei-30" d="M 225 2537 
Q 250 3200 412 3587 
Q 575 3975 875 4225 
Q 1175 4475 1612 4475 
Q 2050 4475 2375 4112 
Q 2700 3750 2800 3200 
Q 2900 2650 2862 1937 
Q 2825 1225 2612 775 
Q 2400 325 1975 150 
Q 1550 -25 1125 187 
Q 700 400 525 750 
Q 350 1100 275 1487 
Q 200 1875 225 2537 
z
M 750 2687 
Q 675 2000 800 1462 
Q 925 925 1212 700 
Q 1500 475 1800 612 
Q 2100 750 2237 1162 
Q 2375 1575 2375 2062 
Q 2375 2550 2337 2950 
Q 2300 3350 2112 3675 
Q 1925 4000 1612 4012 
Q 1300 4025 1062 3700 
Q 825 3375 750 2687 
z
" transform="scale(0.015625)"/>
       </defs>
       <use xlink:href="#SimHei-30"/>
      </g>
     </g>
    </g>
    <g id="xtick_6">
     <g id="line2d_11">
      <path d="M 294.3875 294.772 
L 294.3875 25.212 
" clip-path="url(#p3fa46fe219)" style="fill: none; stroke: #b0b0b0; stroke-opacity: 0.25; stroke-width: 0.8; stroke-linecap: square"/>
     </g>
     <g id="line2d_12">
      <g>
       <use xlink:href="#mbf5ae39696" x="294.3875" y="294.772" style="stroke: #000000; stroke-width: 0.8"/>
      </g>
     </g>
     <g id="text_6">
      <!-- 1 -->
      <g transform="translate(291.6375 309.3345) scale(0.11 -0.11)">
       <use xlink:href="#SimHei-31"/>
      </g>
     </g>
    </g>
    <g id="xtick_7">
     <g id="line2d_13">
      <path d="M 348.225 294.772 
L 348.225 25.212 
" clip-path="url(#p3fa46fe219)" style="fill: none; stroke: #b0b0b0; stroke-opacity: 0.25; stroke-width: 0.8; stroke-linecap: square"/>
     </g>
     <g id="line2d_14">
      <g>
       <use xlink:href="#mbf5ae39696" x="348.225" y="294.772" style="stroke: #000000; stroke-width: 0.8"/>
      </g>
     </g>
     <g id="text_7">
      <!-- 2 -->
      <g transform="translate(345.475 309.3345) scale(0.11 -0.11)">
       <use xlink:href="#SimHei-32"/>
      </g>
     </g>
    </g>
    <g id="xtick_8">
     <g id="line2d_15">
      <path d="M 402.0625 294.772 
L 402.0625 25.212 
" clip-path="url(#p3fa46fe219)" style="fill: none; stroke: #b0b0b0; stroke-opacity: 0.25; stroke-width: 0.8; stroke-linecap: square"/>
     </g>
     <g id="line2d_16">
      <g>
       <use xlink:href="#mbf5ae39696" x="402.0625" y="294.772" style="stroke: #000000; stroke-width: 0.8"/>
      </g>
     </g>
     <g id="text_8">
      <!-- 3 -->
      <g transform="translate(399.3125 309.3345) scale(0.11 -0.11)">
       <use xlink:href="#SimHei-33"/>
      </g>
     </g>
    </g>
    <g id="xtick_9">
     <g id="line2d_17">
      <path d="M 455.9 294.772 
L 455.9 25.212 
" clip-path="url(#p3fa46fe219)" style="fill: none; stroke: #b0b0b0; stroke-opacity: 0.25; stroke-width: 0.8; stroke-linecap: square"/>
     </g>
     <g id="line2d_18">
      <g>
       <use xlink:href="#mbf5ae39696" x="455.9" y="294.772" style="stroke: #000000; stroke-width: 0.8"/>
      </g>
     </g>
     <g id="text_9">
      <!-- 4 -->
      <g transform="translate(453.15 309.3345) scale(0.11 -0.11)">
       <use xlink:href="#SimHei-34"/>
      </g>
     </g>
    </g>
    <g id="text_10">
     <!-- $x'\beta$ -->
     <g transform="translate(232.3 323.2895) scale(0.11 -0.11)">
      <defs>
       <path id="DejaVuSans-Oblique-78" d="M 3841 3500 
L 2234 1784 
L 3219 0 
L 2559 0 
L 1819 1388 
L 531 0 
L -166 0 
L 1556 1844 
L 641 3500 
L 1300 3500 
L 1972 2234 
L 3144 3500 
L 3841 3500 
z
" transform="scale(0.015625)"/>
       <path id="Cmsy10-30" d="M 225 347 
Q 184 359 184 409 
L 966 3316 
Q 1003 3434 1093 3506 
Q 1184 3578 1300 3578 
Q 1450 3578 1564 3479 
Q 1678 3381 1678 3231 
Q 1678 3166 1644 3084 
L 488 319 
Q 466 275 428 275 
Q 394 275 320 306 
Q 247 338 225 347 
z
" transform="scale(0.015625)"/>
       <path id="DejaVuSans-Oblique-3b2" d="M 872 216 
L 572 -1331 
L -6 -1331 
L 928 3478 
Q 1206 4903 2538 4903 
Q 3888 4903 3659 3700 
Q 3503 2844 2894 2531 
Q 3713 2250 3553 1416 
Q 3272 -69 1759 -66 
Q 1097 -63 872 216 
z
M 1019 966 
Q 1259 422 1875 425 
Q 2775 425 2966 1406 
Q 3138 2288 1675 2219 
L 1778 2750 
Q 2909 2731 3106 3750 
Q 3241 4438 2509 4434 
Q 1691 4434 1503 3459 
L 1019 966 
z
" transform="scale(0.015625)"/>
      </defs>
      <use xlink:href="#DejaVuSans-Oblique-78" transform="translate(0 0.584375)"/>
      <use xlink:href="#Cmsy10-30" transform="translate(63.645833 38.865625) scale(0.7)"/>
      <use xlink:href="#DejaVuSans-Oblique-3b2" transform="translate(85.623372 0.584375)"/>
     </g>
    </g>
   </g>
   <g id="matplotlib.axis_2">
    <g id="ytick_1">
     <g id="line2d_19">
      <path d="M 25.2 294.772 
L 455.9 294.772 
" clip-path="url(#p3fa46fe219)" style="fill: none; stroke: #b0b0b0; stroke-opacity: 0.25; stroke-width: 0.8; stroke-linecap: square"/>
     </g>
     <g id="line2d_20">
      <defs>
       <path id="m3493c449bb" d="M 0 0 
L -3.5 0 
" style="stroke: #000000; stroke-width: 0.8"/>
      </defs>
      <g>
       <use xlink:href="#m3493c449bb" x="25.2" y="294.772" style="stroke: #000000; stroke-width: 0.8"/>
      </g>
     </g>
     <g id="text_11">
      <!-- -4 -->
      <g transform="translate(7.2 298.55325) scale(0.11 -0.11)">
       <use xlink:href="#SimHei-2d"/>
       <use xlink:href="#SimHei-34" transform="translate(50 0)"/>
      </g>
     </g>
    </g>
    <g id="ytick_2">
     <g id="line2d_21">
      <path d="M 25.2 263.059059 
L 455.9 263.059059 
" clip-path="url(#p3fa46fe219)" style="fill: none; stroke: #b0b0b0; stroke-opacity: 0.25; stroke-width: 0.8; stroke-linecap: square"/>
     </g>
     <g id="line2d_22">
      <g>
       <use xlink:href="#m3493c449bb" x="25.2" y="263.059059" style="stroke: #000000; stroke-width: 0.8"/>
      </g>
     </g>
     <g id="text_12">
      <!-- -3 -->
      <g transform="translate(7.2 266.840309) scale(0.11 -0.11)">
       <use xlink:href="#SimHei-2d"/>
       <use xlink:href="#SimHei-33" transform="translate(50 0)"/>
      </g>
     </g>
    </g>
    <g id="ytick_3">
     <g id="line2d_23">
      <path d="M 25.2 231.346118 
L 455.9 231.346118 
" clip-path="url(#p3fa46fe219)" style="fill: none; stroke: #b0b0b0; stroke-opacity: 0.25; stroke-width: 0.8; stroke-linecap: square"/>
     </g>
     <g id="line2d_24">
      <g>
       <use xlink:href="#m3493c449bb" x="25.2" y="231.346118" style="stroke: #000000; stroke-width: 0.8"/>
      </g>
     </g>
     <g id="text_13">
      <!-- -2 -->
      <g transform="translate(7.2 235.127368) scale(0.11 -0.11)">
       <use xlink:href="#SimHei-2d"/>
       <use xlink:href="#SimHei-32" transform="translate(50 0)"/>
      </g>
     </g>
    </g>
    <g id="ytick_4">
     <g id="line2d_25">
      <path d="M 25.2 199.633176 
L 455.9 199.633176 
" clip-path="url(#p3fa46fe219)" style="fill: none; stroke: #b0b0b0; stroke-opacity: 0.25; stroke-width: 0.8; stroke-linecap: square"/>
     </g>
     <g id="line2d_26">
      <g>
       <use xlink:href="#m3493c449bb" x="25.2" y="199.633176" style="stroke: #000000; stroke-width: 0.8"/>
      </g>
     </g>
     <g id="text_14">
      <!-- -1 -->
      <g transform="translate(7.2 203.414426) scale(0.11 -0.11)">
       <use xlink:href="#SimHei-2d"/>
       <use xlink:href="#SimHei-31" transform="translate(50 0)"/>
      </g>
     </g>
    </g>
    <g id="ytick_5">
     <g id="line2d_27">
      <path d="M 25.2 167.920235 
L 455.9 167.920235 
" clip-path="url(#p3fa46fe219)" style="fill: none; stroke: #b0b0b0; stroke-opacity: 0.25; stroke-width: 0.8; stroke-linecap: square"/>
     </g>
     <g id="line2d_28">
      <g>
       <use xlink:href="#m3493c449bb" x="25.2" y="167.920235" style="stroke: #000000; stroke-width: 0.8"/>
      </g>
     </g>
     <g id="text_15">
      <!-- 0 -->
      <g transform="translate(12.7 171.701485) scale(0.11 -0.11)">
       <use xlink:href="#SimHei-30"/>
      </g>
     </g>
    </g>
    <g id="ytick_6">
     <g id="line2d_29">
      <path d="M 25.2 136.207294 
L 455.9 136.207294 
" clip-path="url(#p3fa46fe219)" style="fill: none; stroke: #b0b0b0; stroke-opacity: 0.25; stroke-width: 0.8; stroke-linecap: square"/>
     </g>
     <g id="line2d_30">
      <g>
       <use xlink:href="#m3493c449bb" x="25.2" y="136.207294" style="stroke: #000000; stroke-width: 0.8"/>
      </g>
     </g>
     <g id="text_16">
      <!-- 1 -->
      <g transform="translate(12.7 139.988544) scale(0.11 -0.11)">
       <use xlink:href="#SimHei-31"/>
      </g>
     </g>
    </g>
    <g id="ytick_7">
     <g id="line2d_31">
      <path d="M 25.2 104.494353 
L 455.9 104.494353 
" clip-path="url(#p3fa46fe219)" style="fill: none; stroke: #b0b0b0; stroke-opacity: 0.25; stroke-width: 0.8; stroke-linecap: square"/>
     </g>
     <g id="line2d_32">
      <g>
       <use xlink:href="#m3493c449bb" x="25.2" y="104.494353" style="stroke: #000000; stroke-width: 0.8"/>
      </g>
     </g>
     <g id="text_17">
      <!-- 2 -->
      <g transform="translate(12.7 108.275603) scale(0.11 -0.11)">
       <use xlink:href="#SimHei-32"/>
      </g>
     </g>
    </g>
    <g id="ytick_8">
     <g id="line2d_33">
      <path d="M 25.2 72.781412 
L 455.9 72.781412 
" clip-path="url(#p3fa46fe219)" style="fill: none; stroke: #b0b0b0; stroke-opacity: 0.25; stroke-width: 0.8; stroke-linecap: square"/>
     </g>
     <g id="line2d_34">
      <g>
       <use xlink:href="#m3493c449bb" x="25.2" y="72.781412" style="stroke: #000000; stroke-width: 0.8"/>
      </g>
     </g>
     <g id="text_18">
      <!-- 3 -->
      <g transform="translate(12.7 76.562662) scale(0.11 -0.11)">
       <use xlink:href="#SimHei-33"/>
      </g>
     </g>
    </g>
    <g id="ytick_9">
     <g id="line2d_35">
      <path d="M 25.2 41.068471 
L 455.9 41.068471 
" clip-path="url(#p3fa46fe219)" style="fill: none; stroke: #b0b0b0; stroke-opacity: 0.25; stroke-width: 0.8; stroke-linecap: square"/>
     </g>
     <g id="line2d_36">
      <g>
       <use xlink:href="#m3493c449bb" x="25.2" y="41.068471" style="stroke: #000000; stroke-width: 0.8"/>
      </g>
     </g>
     <g id="text_19">
      <!-- 4 -->
      <g transform="translate(12.7 44.849721) scale(0.11 -0.11)">
       <use xlink:href="#SimHei-34"/>
      </g>
     </g>
    </g>
   </g>
   <g id="line2d_37">
    <path d="M 25.2 294.772 
L 455.9 41.068471 
L 455.9 41.068471 
" clip-path="url(#p3fa46fe219)" style="fill: none; stroke-dasharray: 2,3.3; stroke-dashoffset: 0; stroke: #1f77b4; stroke-width: 2"/>
   </g>
   <g id="line2d_38">
    <path d="M 25.2 167.198762 
L 51.074343 166.676156 
L 73.714393 165.997214 
L 94.198248 165.159885 
L 113.064956 164.171433 
L 131.392616 162.993727 
L 149.720275 161.594797 
L 168.586984 159.92985 
L 188.53179 157.946167 
L 211.710889 155.412231 
L 248.905257 151.08302 
L 282.865332 147.216853 
L 304.966333 144.923193 
L 324.37209 143.125316 
L 343.238798 141.602292 
L 361.566458 140.346679 
L 380.433166 139.281886 
L 399.838924 138.412089 
L 420.861827 137.698025 
L 444.040926 137.13928 
L 455.9 136.928768 
L 455.9 136.928768 
" clip-path="url(#p3fa46fe219)" style="fill: none; stroke-dasharray: 8,4,2,4; stroke-dashoffset: 0; stroke: #ff7f0e; stroke-width: 2"/>
   </g>
   <g id="line2d_39">
    <path d="M 25.2 144.248711 
L 50.535294 142.433354 
L 74.253442 140.513025 
L 96.354443 138.500523 
L 116.838298 136.414271 
L 136.244055 134.214294 
L 154.571715 131.910886 
L 171.821277 129.518543 
L 187.992741 127.056113 
L 203.625156 124.453099 
L 218.718523 121.712591 
L 233.272841 118.840165 
L 247.28811 115.844046 
L 260.76433 112.735181 
L 273.701502 109.527216 
L 286.638673 106.088311 
L 299.036796 102.565776 
L 311.434919 98.812367 
L 323.833041 94.820805 
L 335.692115 90.774787 
L 347.551189 86.502631 
L 359.410263 82.003142 
L 371.808385 77.057111 
L 384.206508 71.867387 
L 396.604631 66.440475 
L 409.541802 60.534744 
L 423.018023 54.133545 
L 437.033292 47.225739 
L 451.58761 39.806594 
L 455.9 37.564326 
L 455.9 37.564326 
" clip-path="url(#p3fa46fe219)" style="fill: none; stroke-dasharray: 7.4,3.2; stroke-dashoffset: 0; stroke: #2ca02c; stroke-width: 2"/>
   </g>
   <g id="line2d_40">
    <path d="M 25.2 167.381705 
L 50.535294 166.931176 
L 71.019149 166.355027 
L 88.80776 165.641559 
L 104.979224 164.772047 
L 119.533542 163.769764 
L 133.009762 162.623272 
L 145.946934 161.296564 
L 157.806008 159.862971 
L 169.126033 158.281777 
L 180.446058 156.47626 
L 191.227034 154.534563 
L 202.00801 152.364616 
L 212.249937 150.083071 
L 222.491865 147.58052 
L 232.733792 144.852398 
L 242.97572 141.896114 
L 253.217647 138.711127 
L 263.459574 135.298954 
L 274.240551 131.465673 
L 285.021527 127.391025 
L 295.802503 123.08361 
L 307.122528 118.321854 
L 318.981602 113.085975 
L 331.379725 107.360822 
L 344.316896 101.136596 
L 357.793116 94.4093 
L 372.347434 86.898562 
L 388.518899 78.298299 
L 406.307509 68.582876 
L 426.791364 57.136235 
L 451.048561 43.319081 
L 455.9 40.52994 
L 455.9 40.52994 
" clip-path="url(#p3fa46fe219)" style="fill: none; stroke: #d62728; stroke-width: 2.2; stroke-linecap: square"/>
   </g>
   <g id="line2d_41">
    <path d="M 25.2 167.920235 
L 455.9 167.920235 
" clip-path="url(#p3fa46fe219)" style="fill: none; stroke: #000000; stroke-opacity: 0.7; stroke-width: 0.8; stroke-linecap: square"/>
   </g>
   <g id="line2d_42">
    <path d="M 240.55 294.772 
L 240.55 25.212 
" clip-path="url(#p3fa46fe219)" style="fill: none; stroke: #000000; stroke-opacity: 0.7; stroke-width: 0.8; stroke-linecap: square"/>
   </g>
   <g id="patch_3">
    <path d="M 25.2 294.772 
L 25.2 25.212 
" style="fill: none; stroke: #000000; stroke-width: 0.8; stroke-linejoin: miter; stroke-linecap: square"/>
   </g>
   <g id="patch_4">
    <path d="M 25.2 294.772 
L 455.9 294.772 
" style="fill: none; stroke: #000000; stroke-width: 0.8; stroke-linejoin: miter; stroke-linecap: square"/>
   </g>
   <g id="text_20">
    <!-- Tobit 模型中的条件期望函数 $(\sigma^2=4)$ -->
    <g transform="translate(126.37 19.212) scale(0.132 -0.132)">
     <defs>
      <path id="SimHei-54" d="M 2850 3925 
L 1850 3925 
L 1850 125 
L 1275 125 
L 1275 3925 
L 275 3925 
L 275 4400 
L 2850 4400 
L 2850 3925 
z
" transform="scale(0.015625)"/>
      <path id="SimHei-6f" d="M 2925 1525 
Q 2925 875 2525 475 
Q 2125 75 1575 75 
Q 1025 75 625 475 
Q 225 875 225 1525 
Q 225 2175 625 2575 
Q 1025 2975 1575 2975 
Q 2125 2975 2525 2575 
Q 2925 2175 2925 1525 
z
M 2375 1525 
Q 2375 2025 2125 2275 
Q 1875 2525 1575 2525 
Q 1275 2525 1025 2275 
Q 775 2025 775 1525 
Q 775 1025 1025 775 
Q 1275 525 1575 525 
Q 1875 525 2125 775 
Q 2375 1025 2375 1525 
z
" transform="scale(0.015625)"/>
      <path id="SimHei-62" d="M 2825 1525 
Q 2825 800 2475 437 
Q 2125 75 1625 75 
Q 1350 75 1150 175 
Q 950 275 800 500 
L 800 125 
L 300 125 
L 300 4400 
L 800 4400 
L 800 2550 
Q 950 2775 1150 2887 
Q 1350 3000 1625 3000 
Q 2125 3000 2475 2625 
Q 2825 2250 2825 1525 
z
M 2275 1525 
Q 2275 2000 2087 2275 
Q 1900 2550 1525 2550 
Q 1225 2550 1012 2275 
Q 800 2000 800 1525 
Q 800 1050 1012 787 
Q 1225 525 1525 525 
Q 1900 525 2087 787 
Q 2275 1050 2275 1525 
z
" transform="scale(0.015625)"/>
      <path id="SimHei-69" d="M 1800 3725 
L 1300 3725 
L 1300 4375 
L 1800 4375 
L 1800 3725 
z
M 1800 125 
L 1300 125 
L 1300 2925 
L 1800 2925 
L 1800 125 
z
" transform="scale(0.015625)"/>
      <path id="SimHei-74" d="M 2750 200 
Q 2625 150 2462 112 
Q 2300 75 2025 75 
Q 1575 75 1300 325 
Q 1025 575 1025 1025 
L 1025 2525 
L 175 2525 
L 175 2925 
L 1025 2925 
L 1025 3900 
L 1525 3900 
L 1525 2925 
L 2550 2925 
L 2550 2525 
L 1525 2525 
L 1525 1000 
Q 1525 800 1625 662 
Q 1725 525 2000 525 
Q 2275 525 2450 575 
Q 2625 625 2750 700 
L 2750 200 
z
" transform="scale(0.015625)"/>
      <path id="SimHei-20" transform="scale(0.015625)"/>
      <path id="SimHei-6a21" d="M 5700 3675 
Q 5675 3400 5675 2725 
Q 5675 2050 5700 1725 
L 4375 1725 
Q 4350 1450 4325 1200 
L 5225 1200 
Q 5750 1200 6025 1225 
L 6025 825 
Q 5725 850 5225 850 
L 4700 850 
Q 5075 375 5437 137 
Q 5800 -100 6200 -200 
Q 5975 -375 5850 -625 
Q 5275 -400 4862 25 
Q 4450 450 4300 775 
L 4225 775 
Q 4000 275 3537 -62 
Q 3075 -400 2475 -625 
Q 2350 -375 2125 -200 
Q 2775 -75 3200 200 
Q 3625 475 3775 850 
L 3325 850 
Q 2800 850 2400 825 
L 2400 1225 
Q 2800 1200 3350 1200 
L 3875 1200 
Q 3925 1475 3925 1725 
L 2750 1725 
Q 2775 2075 2775 2700 
Q 2775 3350 2750 3675 
L 5700 3675 
z
M 2175 1650 
Q 2025 1975 1675 2525 
L 1675 300 
Q 1675 -300 1700 -550 
L 1175 -550 
Q 1200 -275 1200 250 
L 1200 2225 
Q 1125 2000 962 1712 
Q 800 1425 600 1050 
Q 450 1275 200 1425 
Q 600 1825 850 2425 
Q 1100 3025 1175 3425 
L 950 3425 
Q 700 3425 400 3400 
L 400 3825 
Q 675 3800 825 3800 
L 1200 3800 
L 1200 4350 
Q 1200 4775 1175 5150 
L 1700 5150 
Q 1675 4825 1675 4425 
L 1675 3800 
Q 2075 3800 2375 3825 
L 2375 3400 
Q 2050 3425 1675 3425 
L 1675 2575 
Q 1850 2675 2000 2775 
Q 2150 2525 2287 2325 
Q 2425 2125 2550 1925 
Q 2325 1775 2175 1650 
z
M 3375 4300 
L 3175 4300 
Q 2700 4300 2425 4275 
L 2425 4675 
Q 2700 4650 3150 4650 
L 3375 4650 
Q 3375 5000 3350 5225 
L 3825 5225 
Q 3800 5000 3800 4650 
L 4550 4650 
Q 4550 4975 4525 5200 
L 5025 5200 
Q 5000 4925 5000 4650 
L 5375 4650 
Q 5650 4650 5950 4675 
L 5950 4275 
Q 5650 4300 5375 4300 
L 5000 4300 
L 5000 3850 
L 4550 3850 
L 4550 4300 
L 3800 4300 
L 3800 3875 
L 3375 3875 
L 3375 4300 
z
M 5275 2075 
L 5275 2525 
L 3200 2525 
L 3200 2075 
L 5275 2075 
z
M 5275 2875 
L 5275 3325 
L 3200 3325 
L 3200 2875 
L 5275 2875 
z
" transform="scale(0.015625)"/>
      <path id="SimHei-578b" d="M 2625 1775 
Q 2650 2325 2650 2700 
L 2650 3000 
L 1825 3000 
Q 1725 2375 1425 2000 
Q 1125 1625 775 1425 
Q 650 1650 375 1900 
Q 850 2075 1062 2362 
Q 1275 2650 1350 3000 
Q 900 3000 375 2975 
L 375 3450 
Q 925 3425 1400 3425 
Q 1425 3950 1425 4475 
Q 1075 4475 700 4450 
L 700 4900 
Q 1050 4875 1525 4875 
L 3000 4875 
Q 3275 4875 3650 4900 
L 3650 4450 
Q 3325 4475 3125 4475 
L 3125 3425 
Q 3450 3425 3825 3450 
L 3825 2975 
Q 3450 3000 3125 3000 
L 3125 2675 
Q 3125 2225 3150 1775 
L 2625 1775 
z
M 3000 1175 
Q 3000 1375 2975 1725 
L 3500 1725 
Q 3475 1375 3475 1175 
L 4550 1175 
Q 5050 1175 5450 1200 
L 5450 725 
Q 4975 750 4550 750 
L 3475 750 
L 3475 -50 
L 5275 -50 
Q 5700 -50 6100 -25 
L 6100 -500 
Q 5725 -475 5300 -475 
L 1250 -475 
Q 775 -475 400 -500 
L 400 -25 
Q 775 -50 1250 -50 
L 3000 -50 
L 3000 750 
L 2025 750 
Q 1500 750 975 725 
L 1050 1200 
Q 1500 1175 2025 1175 
L 3000 1175 
z
M 5775 5200 
Q 5750 4775 5750 4325 
L 5750 2400 
Q 5775 1950 5612 1775 
Q 5450 1600 4900 1525 
Q 4825 1775 4675 2100 
Q 5175 2075 5237 2150 
Q 5300 2225 5300 2525 
L 5300 4325 
Q 5300 4775 5275 5200 
L 5775 5200 
z
M 4600 4750 
Q 4575 4450 4575 3975 
L 4575 3200 
Q 4575 2825 4600 2425 
L 4100 2425 
Q 4125 2825 4125 3200 
L 4125 3975 
Q 4125 4450 4100 4750 
L 4600 4750 
z
M 2650 3425 
L 2650 4475 
L 1875 4475 
Q 1850 3750 1850 3425 
L 2650 3425 
z
" transform="scale(0.015625)"/>
      <path id="SimHei-4e2d" d="M 3475 5200 
Q 3450 4500 3450 3875 
L 5625 3875 
Q 5600 3375 5600 2500 
Q 5600 1650 5625 1225 
L 5075 1225 
L 5075 1600 
L 3450 1600 
L 3450 525 
Q 3450 225 3475 -600 
L 2875 -600 
Q 2925 -150 2925 450 
L 2925 1600 
L 1300 1600 
L 1300 1225 
L 750 1225 
Q 775 1600 775 2500 
Q 775 3425 750 3875 
L 2925 3875 
Q 2925 4550 2900 5200 
L 3475 5200 
z
M 5075 2000 
L 5075 3475 
L 3450 3475 
L 3450 2000 
L 5075 2000 
z
M 2925 2000 
L 2925 3475 
L 1300 3475 
L 1300 2000 
L 2925 2000 
z
" transform="scale(0.015625)"/>
      <path id="SimHei-7684" d="M 2100 4975 
Q 1975 4750 1750 3950 
L 2875 3950 
Q 2850 3525 2850 2875 
L 2850 675 
Q 2850 300 2875 -400 
L 2375 -400 
L 2375 100 
L 1100 100 
L 1100 -450 
L 600 -450 
Q 625 350 625 550 
L 625 2850 
Q 625 3525 600 3950 
L 1325 3950 
Q 1450 4525 1525 5150 
Q 1875 5025 2100 4975 
z
M 5825 3075 
Q 5800 1550 5700 175 
Q 5650 -275 5225 -425 
Q 4800 -575 4275 -625 
Q 4250 -350 4050 -50 
Q 4550 -75 4837 -25 
Q 5125 25 5200 200 
Q 5275 375 5312 1225 
Q 5350 2075 5375 3600 
L 3925 3600 
Q 3725 3125 3350 2475 
Q 3175 2650 2925 2750 
Q 3150 3050 3350 3475 
Q 3550 3900 3700 4400 
Q 3850 4900 3875 5175 
Q 4225 5025 4475 4950 
Q 4350 4750 4262 4512 
Q 4175 4275 4075 4050 
L 5850 4050 
Q 5825 3525 5825 3075 
z
M 2375 525 
L 2375 1850 
L 1100 1850 
L 1100 525 
L 2375 525 
z
M 2375 2275 
L 2375 3525 
L 1100 3525 
L 1100 2275 
L 2375 2275 
z
M 4350 2050 
Q 4500 1750 4700 1275 
Q 4525 1200 4225 1025 
Q 4050 1500 3900 1837 
Q 3750 2175 3600 2400 
Q 3775 2500 4050 2650 
L 4350 2050 
z
" transform="scale(0.015625)"/>
      <path id="SimHei-6761" d="M 2700 5075 
Q 2600 5000 2400 4700 
L 5225 4700 
Q 4975 4300 4625 3875 
Q 4275 3450 3750 3050 
Q 4100 2850 4750 2687 
Q 5400 2525 6200 2525 
Q 5950 2275 5925 2000 
Q 5000 2100 4387 2300 
Q 3775 2500 3275 2825 
Q 2500 2375 1837 2175 
Q 1175 1975 575 1850 
Q 500 2125 275 2300 
Q 1250 2400 1912 2625 
Q 2575 2850 2825 3075 
Q 2400 3425 1925 3975 
Q 1600 3550 1150 3075 
Q 925 3300 725 3350 
Q 1225 3775 1625 4350 
Q 2025 4925 2125 5300 
Q 2525 5125 2700 5075 
z
M 2950 1775 
Q 2950 2000 2925 2400 
L 3475 2400 
Q 3450 1975 3450 1775 
L 4500 1775 
Q 5025 1775 5550 1800 
L 5550 1325 
Q 5025 1350 4525 1350 
L 3450 1350 
L 3450 -50 
Q 3475 -575 2450 -625 
Q 2375 -375 2225 -75 
Q 2975 -150 2950 200 
L 2950 1350 
L 1850 1350 
Q 1350 1350 825 1325 
L 825 1800 
Q 1350 1775 1850 1775 
L 2950 1775 
z
M 3300 3300 
Q 4025 3775 4325 4275 
L 2250 4275 
Q 2700 3675 3300 3300 
z
M 4200 1000 
Q 4950 575 5800 0 
Q 5650 -175 5500 -400 
Q 5150 -150 4787 100 
Q 4425 350 3925 600 
Q 4075 775 4200 1000 
z
M 2375 700 
Q 2275 600 1800 250 
Q 1325 -100 850 -400 
Q 700 -200 500 -50 
Q 825 100 1287 437 
Q 1750 775 1950 1050 
L 2375 700 
z
" transform="scale(0.015625)"/>
      <path id="SimHei-4ef6" d="M 3275 4475 
Q 3150 4375 2925 3775 
L 3900 3775 
L 3900 4275 
Q 3900 4900 3875 5125 
L 4400 5125 
Q 4375 4925 4375 4300 
L 4375 3775 
L 5125 3775 
Q 5450 3775 5725 3800 
L 5725 3325 
Q 5450 3350 5125 3350 
L 4375 3350 
L 4375 2000 
L 5200 2000 
Q 5575 2000 6100 2025 
L 6100 1550 
Q 5675 1575 5175 1575 
L 4375 1575 
L 4375 275 
Q 4375 -100 4400 -550 
L 3875 -550 
Q 3900 -100 3900 275 
L 3900 1575 
L 2925 1575 
Q 2500 1575 1925 1550 
L 1925 2025 
Q 2475 2000 2825 2000 
L 3900 2000 
L 3900 3350 
L 2775 3350 
Q 2700 3150 2350 2425 
Q 2275 2500 1900 2650 
Q 2150 3025 2350 3500 
Q 2550 3975 2700 4700 
Q 2900 4575 3275 4475 
z
M 1150 3200 
Q 900 2825 550 2375 
Q 425 2625 200 2750 
Q 650 3200 1025 3850 
Q 1400 4500 1650 5250 
Q 1950 5050 2175 4975 
Q 2000 4825 1625 4025 
L 1625 625 
Q 1625 -175 1650 -575 
L 1125 -575 
Q 1150 -225 1150 600 
L 1150 3200 
z
" transform="scale(0.015625)"/>
      <path id="SimHei-671f" d="M 4900 -25 
Q 5475 -100 5425 175 
L 5425 1575 
L 4325 1575 
Q 4275 975 4050 425 
Q 3825 -125 3400 -600 
Q 3225 -375 2925 -275 
Q 3350 150 3562 625 
Q 3775 1100 3812 1575 
Q 3850 2050 3850 3125 
Q 3850 4225 3825 4875 
L 5950 4875 
Q 5925 4400 5925 3725 
L 5925 50 
Q 5925 -300 5700 -425 
Q 5475 -550 5100 -600 
Q 5100 -325 4900 -25 
z
M 950 4300 
Q 950 4675 925 5125 
L 1450 5125 
Q 1425 4625 1425 4300 
L 2550 4300 
Q 2550 4775 2525 5125 
L 3075 5125 
Q 3050 4700 3050 4300 
Q 3225 4300 3500 4325 
L 3500 3900 
Q 3250 3925 3050 3925 
L 3050 1550 
Q 3250 1550 3500 1575 
L 3500 1150 
Q 3025 1175 2575 1175 
L 1225 1175 
Q 675 1175 275 1150 
L 275 1575 
Q 650 1550 950 1550 
L 950 3925 
Q 725 3925 425 3900 
L 425 4325 
Q 700 4300 950 4300 
z
M 5425 3375 
L 5425 4500 
L 4350 4500 
L 4350 3375 
L 5425 3375 
z
M 5425 1950 
L 5425 3000 
L 4350 3000 
L 4350 1950 
L 5425 1950 
z
M 1600 725 
Q 1425 650 1162 287 
Q 900 -75 650 -350 
Q 400 -175 225 -75 
Q 450 100 700 412 
Q 950 725 1100 1025 
L 1600 725 
z
M 2550 3375 
L 2550 3925 
L 1425 3925 
L 1425 3375 
L 2550 3375 
z
M 2550 1550 
L 2550 2100 
L 1425 2100 
L 1425 1550 
L 2550 1550 
z
M 2550 2475 
L 2550 3000 
L 1425 3000 
L 1425 2475 
L 2550 2475 
z
M 2850 -75 
Q 2450 525 2225 725 
Q 2375 825 2550 1025 
Q 2850 725 3250 275 
Q 3050 125 2850 -75 
z
" transform="scale(0.015625)"/>
      <path id="SimHei-671b" d="M 4875 1925 
Q 5275 1925 5700 1950 
L 5700 1500 
Q 5275 1525 4875 1525 
L 3450 1525 
L 3450 950 
L 4525 950 
Q 4975 950 5500 975 
L 5500 525 
Q 4975 550 4525 550 
L 3450 550 
L 3450 -50 
L 5200 -50 
Q 5575 -50 6025 -25 
L 6025 -475 
Q 5600 -450 5200 -450 
L 1325 -450 
Q 875 -450 425 -475 
L 425 -25 
Q 875 -50 1325 -50 
L 2975 -50 
L 2975 550 
L 1950 550 
Q 1475 550 950 525 
L 950 975 
Q 1475 950 1950 950 
L 2975 950 
L 2975 1525 
L 1700 1525 
Q 1225 1525 725 1500 
L 725 1950 
Q 1225 1925 1700 1925 
L 4875 1925 
z
M 5625 5000 
Q 5600 4475 5600 3975 
L 5600 2500 
Q 5625 2050 4725 2000 
Q 4700 2225 4525 2525 
Q 4975 2500 5062 2525 
Q 5150 2550 5150 2725 
L 5150 2975 
L 3725 2975 
Q 3575 2475 3100 1975 
Q 2925 2150 2675 2300 
Q 3025 2600 3175 2887 
Q 3325 3175 3362 3500 
Q 3400 3825 3400 4200 
Q 3400 4575 3375 5000 
L 5625 5000 
z
M 975 2475 
Q 1000 3050 1000 3400 
L 1000 4075 
Q 750 4075 400 4050 
L 400 4500 
Q 850 4475 1250 4475 
L 1650 4475 
Q 1575 4725 1450 5125 
Q 1700 5150 1950 5225 
Q 2025 4925 2150 4475 
Q 2475 4475 3025 4500 
L 3025 4050 
Q 2475 4075 2125 4075 
L 1450 4075 
L 1450 3025 
L 2825 3275 
L 2825 2850 
L 975 2475 
z
M 5150 3375 
L 5150 3825 
L 3825 3825 
L 3800 3375 
L 5150 3375 
z
M 5150 4225 
L 5150 4625 
L 3850 4625 
L 3850 4225 
L 5150 4225 
z
" transform="scale(0.015625)"/>
      <path id="SimHei-51fd" d="M 1200 200 
L 5200 200 
L 5200 2225 
Q 5200 2600 5150 3075 
L 5700 3075 
Q 5675 2500 5675 2225 
L 5675 50 
Q 5675 -275 5700 -625 
L 5200 -625 
L 5200 -225 
L 700 -225 
Q 725 50 725 1375 
Q 725 2700 700 3075 
L 1225 3075 
Q 1200 2800 1200 2475 
L 1200 200 
z
M 5450 4925 
L 5450 4450 
Q 5075 4325 4475 4037 
Q 3875 3750 3475 3575 
L 3475 1100 
Q 3475 700 3200 587 
Q 2925 475 2525 400 
Q 2475 675 2350 950 
Q 2750 950 2887 1000 
Q 3025 1050 3025 1375 
L 3025 3075 
Q 3025 3550 2975 3850 
Q 3225 3925 3700 4125 
Q 4175 4325 4500 4500 
L 1950 4500 
Q 1425 4500 1025 4475 
L 1025 4950 
Q 1525 4925 1950 4925 
L 5450 4925 
z
M 4500 1750 
Q 4700 1575 5000 1275 
Q 4825 1125 4650 900 
Q 4400 1175 4200 1375 
Q 4000 1575 3600 1925 
Q 3775 2100 3900 2275 
L 4500 1750 
z
M 2700 1800 
Q 2525 1675 2237 1487 
Q 1950 1300 1600 1000 
Q 1525 1175 1325 1425 
Q 1500 1500 1887 1737 
Q 2275 1975 2550 2225 
Q 2600 2025 2700 1800 
z
M 4975 3175 
Q 4800 3100 4562 2912 
Q 4325 2725 4000 2475 
Q 3875 2700 3750 2850 
Q 4025 3050 4200 3200 
Q 4375 3350 4600 3575 
Q 4775 3375 4975 3175 
z
M 2350 2550 
Q 2200 2750 2000 2937 
Q 1800 3125 1475 3350 
Q 1650 3525 1750 3700 
Q 2025 3500 2650 2950 
Q 2475 2725 2350 2550 
z
" transform="scale(0.015625)"/>
      <path id="SimHei-6570" d="M 4525 4925 
Q 4475 4800 4400 4587 
Q 4325 4375 4175 3825 
L 5325 3825 
Q 5575 3825 5925 3850 
L 5925 3400 
Q 5650 3425 5500 3425 
Q 5500 3025 5362 2162 
Q 5225 1300 4875 675 
Q 5125 375 5437 137 
Q 5750 -100 6025 -200 
Q 5725 -425 5625 -625 
Q 5325 -450 5075 -225 
Q 4825 0 4575 325 
Q 4300 25 3987 -187 
Q 3675 -400 3200 -650 
Q 3075 -425 2850 -300 
Q 3225 -150 3650 125 
Q 4075 400 4300 675 
Q 4125 1025 3962 1425 
Q 3800 1825 3675 2475 
Q 3600 2275 3425 1950 
Q 3250 2050 3000 2150 
Q 3400 2850 3650 3675 
Q 3900 4500 3975 5100 
Q 4275 4975 4525 4925 
z
M 2100 2250 
Q 2000 2150 1875 1925 
L 3250 1925 
Q 3100 1300 2725 675 
Q 3125 525 3350 400 
Q 3225 225 3125 25 
Q 2900 175 2450 325 
Q 1950 -225 725 -650 
Q 600 -375 400 -275 
Q 1575 0 2000 475 
Q 1300 650 850 775 
Q 1000 1000 1250 1525 
Q 1000 1525 425 1500 
L 425 1950 
Q 900 1925 1400 1925 
Q 1500 2150 1550 2425 
Q 1825 2325 2100 2250 
z
M 1775 3950 
Q 1775 4550 1750 5100 
L 2250 5100 
Q 2225 4575 2225 3950 
Q 3075 3950 3425 3975 
L 3425 3525 
Q 3075 3550 2225 3550 
Q 2225 2825 2250 2425 
L 1750 2425 
Q 1775 2775 1775 3300 
Q 1650 3100 1300 2787 
Q 950 2475 650 2300 
Q 525 2525 275 2625 
Q 500 2700 875 2975 
Q 1250 3250 1450 3550 
Q 950 3550 500 3525 
L 500 3975 
Q 925 3950 1775 3950 
z
M 3975 3175 
Q 4200 1700 4600 1125 
Q 4850 1700 4937 2287 
Q 5025 2875 5050 3425 
L 4075 3425 
L 3975 3175 
z
M 1450 1000 
Q 1750 925 2275 800 
Q 2475 1050 2650 1525 
L 1725 1525 
Q 1600 1275 1450 1000 
z
M 3325 4825 
Q 3200 4625 3125 4450 
Q 3050 4275 2925 4025 
Q 2725 4125 2525 4175 
Q 2725 4500 2900 5000 
Q 3150 4875 3325 4825 
z
M 2575 3375 
Q 2900 3050 3200 2725 
Q 3050 2600 2875 2425 
Q 2525 2850 2300 3100 
Q 2450 3225 2575 3375 
z
M 925 5000 
Q 1275 4650 1500 4300 
L 1125 4075 
Q 950 4425 600 4725 
Q 825 4875 925 5000 
z
" transform="scale(0.015625)"/>
      <path id="DejaVuSans-28" d="M 1984 4856 
Q 1566 4138 1362 3434 
Q 1159 2731 1159 2009 
Q 1159 1288 1364 580 
Q 1569 -128 1984 -844 
L 1484 -844 
Q 1016 -109 783 600 
Q 550 1309 550 2009 
Q 550 2706 781 3412 
Q 1013 4119 1484 4856 
L 1984 4856 
z
" transform="scale(0.015625)"/>
      <path id="DejaVuSans-Oblique-3c3" d="M 2219 3044 
Q 1744 3044 1422 2700 
Q 1081 2341 969 1747 
Q 844 1119 1044 756 
Q 1241 397 1706 397 
Q 2166 397 2503 759 
Q 2844 1122 2966 1747 
Q 3075 2319 2881 2700 
Q 2700 3044 2219 3044 
z
M 2309 3503 
L 4219 3500 
L 4106 2925 
L 3463 2925 
Q 3706 2438 3575 1747 
Q 3406 888 2884 400 
Q 2359 -91 1609 -91 
Q 856 -91 525 400 
Q 194 888 363 1747 
Q 528 2609 1050 3097 
Q 1484 3503 2309 3503 
z
" transform="scale(0.015625)"/>
      <path id="DejaVuSans-32" d="M 1228 531 
L 3431 531 
L 3431 0 
L 469 0 
L 469 531 
Q 828 903 1448 1529 
Q 2069 2156 2228 2338 
Q 2531 2678 2651 2914 
Q 2772 3150 2772 3378 
Q 2772 3750 2511 3984 
Q 2250 4219 1831 4219 
Q 1534 4219 1204 4116 
Q 875 4013 500 3803 
L 500 4441 
Q 881 4594 1212 4672 
Q 1544 4750 1819 4750 
Q 2544 4750 2975 4387 
Q 3406 4025 3406 3419 
Q 3406 3131 3298 2873 
Q 3191 2616 2906 2266 
Q 2828 2175 2409 1742 
Q 1991 1309 1228 531 
z
" transform="scale(0.015625)"/>
      <path id="DejaVuSans-3d" d="M 678 2906 
L 4684 2906 
L 4684 2381 
L 678 2381 
L 678 2906 
z
M 678 1631 
L 4684 1631 
L 4684 1100 
L 678 1100 
L 678 1631 
z
" transform="scale(0.015625)"/>
      <path id="DejaVuSans-34" d="M 2419 4116 
L 825 1625 
L 2419 1625 
L 2419 4116 
z
M 2253 4666 
L 3047 4666 
L 3047 1625 
L 3713 1625 
L 3713 1100 
L 3047 1100 
L 3047 0 
L 2419 0 
L 2419 1100 
L 313 1100 
L 313 1709 
L 2253 4666 
z
" transform="scale(0.015625)"/>
      <path id="DejaVuSans-29" d="M 513 4856 
L 1013 4856 
Q 1481 4119 1714 3412 
Q 1947 2706 1947 2009 
Q 1947 1309 1714 600 
Q 1481 -109 1013 -844 
L 513 -844 
Q 928 -128 1133 580 
Q 1338 1288 1338 2009 
Q 1338 2731 1133 3434 
Q 928 4138 513 4856 
z
" transform="scale(0.015625)"/>
     </defs>
     <use xlink:href="#SimHei-54" transform="translate(0 0.765625)"/>
     <use xlink:href="#SimHei-6f" transform="translate(50 0.765625)"/>
     <use xlink:href="#SimHei-62" transform="translate(100 0.765625)"/>
     <use xlink:href="#SimHei-69" transform="translate(150 0.765625)"/>
     <use xlink:href="#SimHei-74" transform="translate(200 0.765625)"/>
     <use xlink:href="#SimHei-20" transform="translate(250 0.765625)"/>
     <use xlink:href="#SimHei-6a21" transform="translate(300 0.765625)"/>
     <use xlink:href="#SimHei-578b" transform="translate(400 0.765625)"/>
     <use xlink:href="#SimHei-4e2d" transform="translate(500 0.765625)"/>
     <use xlink:href="#SimHei-7684" transform="translate(600 0.765625)"/>
     <use xlink:href="#SimHei-6761" transform="translate(700 0.765625)"/>
     <use xlink:href="#SimHei-4ef6" transform="translate(800 0.765625)"/>
     <use xlink:href="#SimHei-671f" transform="translate(900 0.765625)"/>
     <use xlink:href="#SimHei-671b" transform="translate(1000 0.765625)"/>
     <use xlink:href="#SimHei-51fd" transform="translate(1100 0.765625)"/>
     <use xlink:href="#SimHei-6570" transform="translate(1200 0.765625)"/>
     <use xlink:href="#SimHei-20" transform="translate(1300 0.765625)"/>
     <use xlink:href="#DejaVuSans-28" transform="translate(1350 0.765625)"/>
     <use xlink:href="#DejaVuSans-Oblique-3c3" transform="translate(1389.013672 0.765625)"/>
     <use xlink:href="#DejaVuSans-32" transform="translate(1456.865286 39.046875) scale(0.7)"/>
     <use xlink:href="#DejaVuSans-3d" transform="translate(1523.618216 0.765625)"/>
     <use xlink:href="#DejaVuSans-34" transform="translate(1626.889701 0.765625)"/>
     <use xlink:href="#DejaVuSans-29" transform="translate(1690.512747 0.765625)"/>
    </g>
   </g>
   <g id="legend_1">
    <g id="line2d_43">
     <path d="M 356.35 229.872 
L 367.35 229.872 
L 378.35 229.872 
" style="fill: none; stroke-dasharray: 2,3.3; stroke-dashoffset: 0; stroke: #1f77b4; stroke-width: 2"/>
    </g>
    <g id="text_21">
     <!-- $E(y^*)$ -->
     <g transform="translate(387.15 233.722) scale(0.11 -0.11)">
      <defs>
       <path id="DejaVuSans-Oblique-45" d="M 1081 4666 
L 4031 4666 
L 3928 4134 
L 1606 4134 
L 1338 2753 
L 3566 2753 
L 3463 2222 
L 1234 2222 
L 909 531 
L 3284 531 
L 3181 0 
L 172 0 
L 1081 4666 
z
" transform="scale(0.015625)"/>
       <path id="DejaVuSans-Oblique-79" d="M 1588 -325 
Q 1188 -997 936 -1164 
Q 684 -1331 294 -1331 
L -159 -1331 
L -63 -850 
L 269 -850 
Q 509 -850 678 -719 
Q 847 -588 1056 -206 
L 1234 128 
L 459 3500 
L 1069 3500 
L 1650 819 
L 3256 3500 
L 3859 3500 
L 1588 -325 
z
" transform="scale(0.015625)"/>
       <path id="DejaVuSans-2a" d="M 3009 3897 
L 1888 3291 
L 3009 2681 
L 2828 2375 
L 1778 3009 
L 1778 1831 
L 1422 1831 
L 1422 3009 
L 372 2375 
L 191 2681 
L 1313 3291 
L 191 3897 
L 372 4206 
L 1422 3572 
L 1422 4750 
L 1778 4750 
L 1778 3572 
L 2828 4206 
L 3009 3897 
z
" transform="scale(0.015625)"/>
      </defs>
      <use xlink:href="#DejaVuSans-Oblique-45" transform="translate(0 0.765625)"/>
      <use xlink:href="#DejaVuSans-28" transform="translate(63.183594 0.765625)"/>
      <use xlink:href="#DejaVuSans-Oblique-79" transform="translate(102.197266 0.765625)"/>
      <use xlink:href="#DejaVuSans-2a" transform="translate(179.480794 39.046875) scale(0.7)"/>
      <use xlink:href="#DejaVuSans-29" transform="translate(230.852865 0.765625)"/>
     </g>
    </g>
    <g id="line2d_44">
     <path d="M 356.35 246.042 
L 367.35 246.042 
L 378.35 246.042 
" style="fill: none; stroke-dasharray: 8,4,2,4; stroke-dashoffset: 0; stroke: #ff7f0e; stroke-width: 2"/>
    </g>
    <g id="text_22">
     <!-- $P(y&gt;0)$ -->
     <g transform="translate(387.15 249.892) scale(0.11 -0.11)">
      <defs>
       <path id="DejaVuSans-Oblique-50" d="M 1081 4666 
L 2541 4666 
Q 3178 4666 3512 4369 
Q 3847 4072 3847 3500 
Q 3847 2731 3353 2303 
Q 2859 1875 1966 1875 
L 1172 1875 
L 806 0 
L 172 0 
L 1081 4666 
z
M 1613 4147 
L 1275 2394 
L 2069 2394 
Q 2606 2394 2893 2669 
Q 3181 2944 3181 3456 
Q 3181 3784 2986 3965 
Q 2791 4147 2438 4147 
L 1613 4147 
z
" transform="scale(0.015625)"/>
       <path id="DejaVuSans-3e" d="M 678 3150 
L 678 3719 
L 4684 2266 
L 4684 1747 
L 678 294 
L 678 863 
L 3897 2003 
L 678 3150 
z
" transform="scale(0.015625)"/>
       <path id="DejaVuSans-30" d="M 2034 4250 
Q 1547 4250 1301 3770 
Q 1056 3291 1056 2328 
Q 1056 1369 1301 889 
Q 1547 409 2034 409 
Q 2525 409 2770 889 
Q 3016 1369 3016 2328 
Q 3016 3291 2770 3770 
Q 2525 4250 2034 4250 
z
M 2034 4750 
Q 2819 4750 3233 4129 
Q 3647 3509 3647 2328 
Q 3647 1150 3233 529 
Q 2819 -91 2034 -91 
Q 1250 -91 836 529 
Q 422 1150 422 2328 
Q 422 3509 836 4129 
Q 1250 4750 2034 4750 
z
" transform="scale(0.015625)"/>
      </defs>
      <use xlink:href="#DejaVuSans-Oblique-50" transform="translate(0 0.125)"/>
      <use xlink:href="#DejaVuSans-28" transform="translate(60.302734 0.125)"/>
      <use xlink:href="#DejaVuSans-Oblique-79" transform="translate(99.316406 0.125)"/>
      <use xlink:href="#DejaVuSans-3e" transform="translate(177.978516 0.125)"/>
      <use xlink:href="#DejaVuSans-30" transform="translate(281.25 0.125)"/>
      <use xlink:href="#DejaVuSans-29" transform="translate(344.873047 0.125)"/>
     </g>
    </g>
    <g id="line2d_45">
     <path d="M 356.35 262.432 
L 367.35 262.432 
L 378.35 262.432 
" style="fill: none; stroke-dasharray: 7.4,3.2; stroke-dashoffset: 0; stroke: #2ca02c; stroke-width: 2"/>
    </g>
    <g id="text_23">
     <!-- $E(y\mid y&gt;0)$ -->
     <g transform="translate(387.15 266.282) scale(0.11 -0.11)">
      <defs>
       <path id="DejaVuSans-2223" d="M 1350 4934 
L 1850 4934 
L 1850 -1369 
L 1350 -1369 
L 1350 4934 
z
" transform="scale(0.015625)"/>
      </defs>
      <use xlink:href="#DejaVuSans-Oblique-45" transform="translate(0 0.90625)"/>
      <use xlink:href="#DejaVuSans-28" transform="translate(63.183594 0.90625)"/>
      <use xlink:href="#DejaVuSans-Oblique-79" transform="translate(102.197266 0.90625)"/>
      <use xlink:href="#DejaVuSans-2223" transform="translate(180.859375 0.90625)"/>
      <use xlink:href="#DejaVuSans-Oblique-79" transform="translate(250.341797 0.90625)"/>
      <use xlink:href="#DejaVuSans-3e" transform="translate(329.003906 0.90625)"/>
      <use xlink:href="#DejaVuSans-30" transform="translate(432.275391 0.90625)"/>
      <use xlink:href="#DejaVuSans-29" transform="translate(495.898438 0.90625)"/>
     </g>
    </g>
    <g id="line2d_46">
     <path d="M 356.35 278.712 
L 367.35 278.712 
L 378.35 278.712 
" style="fill: none; stroke: #d62728; stroke-width: 2.2; stroke-linecap: square"/>
    </g>
    <g id="text_24">
     <!-- $E(y)$ -->
     <g transform="translate(387.15 282.562) scale(0.11 -0.11)">
      <use xlink:href="#DejaVuSans-Oblique-45" transform="translate(0 0.125)"/>
      <use xlink:href="#DejaVuSans-28" transform="translate(63.183594 0.125)"/>
      <use xlink:href="#DejaVuSans-Oblique-79" transform="translate(102.197266 0.125)"/>
      <use xlink:href="#DejaVuSans-29" transform="translate(161.376953 0.125)"/>
     </g>
    </g>
   </g>
  </g>
 </g>
 <defs>
  <clipPath id="p3fa46fe219">
   <rect x="25.2" y="25.212" width="430.7" height="269.56"/>
  </clipPath>
 </defs>
</svg>
