<?xml version="1.0" encoding="utf-8" standalone="no"?>
<!DOCTYPE svg PUBLIC "-//W3C//DTD SVG 1.1//EN"
  "http://www.w3.org/Graphics/SVG/1.1/DTD/svg11.dtd">
<svg xmlns:xlink="http://www.w3.org/1999/xlink" width="566.539219pt" height="350.201406pt" viewBox="0 0 566.539219 350.201406" xmlns="http://www.w3.org/2000/svg" version="1.1">
 <metadata>
  <rdf:RDF xmlns:dc="http://purl.org/dc/elements/1.1/" xmlns:cc="http://creativecommons.org/ns#" xmlns:rdf="http://www.w3.org/1999/02/22-rdf-syntax-ns#">
   <cc:Work>
    <dc:type rdf:resource="http://purl.org/dc/dcmitype/StillImage"/>
    <dc:date>2026-04-30T00:54:26.323983</dc:date>
    <dc:format>image/svg+xml</dc:format>
    <dc:creator>
     <cc:Agent>
      <dc:title>Matplotlib v3.10.8, https://matplotlib.org/</dc:title>
     </cc:Agent>
    </dc:creator>
   </cc:Work>
  </rdf:RDF>
 </metadata>
 <defs>
  <style type="text/css">*{stroke-linejoin: round; stroke-linecap: butt}</style>
 </defs>
 <g id="figure_1">
  <g id="patch_1">
   <path d="M 0 350.201406 
L 566.539219 350.201406 
L 566.539219 0 
L 0 0 
z
" style="fill: #ffffff"/>
  </g>
  <g id="axes_1">
   <g id="patch_2">
    <path d="M 39.211719 312.708437 
L 559.339219 312.708437 
L 559.339219 23.873437 
L 39.211719 23.873437 
z
" style="fill: #ffffff"/>
   </g>
   <g id="matplotlib.axis_1">
    <g id="xtick_1">
     <g id="line2d_1">
      <path d="M 110.138196 312.708437 
L 110.138196 23.873437 
" clip-path="url(#p40570f047c)" style="fill: none; stroke: #b0b0b0; stroke-opacity: 0.25; stroke-width: 0.8; stroke-linecap: square"/>
     </g>
     <g id="line2d_2">
      <defs>
       <path id="mfa39feec4a" d="M 0 0 
L 0 3.5 
" style="stroke: #000000; stroke-width: 0.8"/>
      </defs>
      <g>
       <use xlink:href="#mfa39feec4a" x="110.138196" y="312.708437" style="stroke: #000000; stroke-width: 0.8"/>
      </g>
     </g>
     <g id="text_1">
      <!-- -2 -->
      <g transform="translate(104.638196 327.270937) scale(0.11 -0.11)">
       <defs>
        <path id="SimHei-2d" d="M 2975 2125 
L 125 2125 
L 125 2525 
L 2975 2525 
L 2975 2125 
z
" transform="scale(0.015625)"/>
        <path id="SimHei-32" d="M 300 250 
Q 325 625 650 925 
Q 975 1225 1475 1862 
Q 1975 2500 2125 2850 
Q 2275 3200 2237 3450 
Q 2200 3700 2000 3862 
Q 1800 4025 1537 4000 
Q 1275 3975 1037 3800 
Q 800 3625 675 3275 
L 200 3350 
Q 400 3925 712 4187 
Q 1025 4450 1450 4475 
Q 1700 4500 1900 4462 
Q 2100 4425 2312 4287 
Q 2525 4150 2662 3875 
Q 2800 3600 2762 3212 
Q 2725 2825 2375 2287 
Q 2025 1750 1025 600 
L 2825 600 
L 2825 150 
L 300 150 
L 300 250 
z
" transform="scale(0.015625)"/>
       </defs>
       <use xlink:href="#SimHei-2d"/>
       <use xlink:href="#SimHei-32" transform="translate(50 0)"/>
      </g>
     </g>
    </g>
    <g id="xtick_2">
     <g id="line2d_3">
      <path d="M 204.706832 312.708437 
L 204.706832 23.873437 
" clip-path="url(#p40570f047c)" style="fill: none; stroke: #b0b0b0; stroke-opacity: 0.25; stroke-width: 0.8; stroke-linecap: square"/>
     </g>
     <g id="line2d_4">
      <g>
       <use xlink:href="#mfa39feec4a" x="204.706832" y="312.708437" style="stroke: #000000; stroke-width: 0.8"/>
      </g>
     </g>
     <g id="text_2">
      <!-- -1 -->
      <g transform="translate(199.206832 327.270937) scale(0.11 -0.11)">
       <defs>
        <path id="SimHei-31" d="M 1400 3600 
Q 1075 3275 575 2975 
L 575 3450 
Q 1200 3875 1600 4450 
L 1900 4450 
L 1900 150 
L 1400 150 
L 1400 3600 
z
" transform="scale(0.015625)"/>
       </defs>
       <use xlink:href="#SimHei-2d"/>
       <use xlink:href="#SimHei-31" transform="translate(50 0)"/>
      </g>
     </g>
    </g>
    <g id="xtick_3">
     <g id="line2d_5">
      <path d="M 299.275469 312.708437 
L 299.275469 23.873437 
" clip-path="url(#p40570f047c)" style="fill: none; stroke: #b0b0b0; stroke-opacity: 0.25; stroke-width: 0.8; stroke-linecap: square"/>
     </g>
     <g id="line2d_6">
      <g>
       <use xlink:href="#mfa39feec4a" x="299.275469" y="312.708437" style="stroke: #000000; stroke-width: 0.8"/>
      </g>
     </g>
     <g id="text_3">
      <!-- 0 -->
      <g transform="translate(296.525469 327.270937) scale(0.11 -0.11)">
       <defs>
        <path id="SimHei-30" d="M 225 2537 
Q 250 3200 412 3587 
Q 575 3975 875 4225 
Q 1175 4475 1612 4475 
Q 2050 4475 2375 4112 
Q 2700 3750 2800 3200 
Q 2900 2650 2862 1937 
Q 2825 1225 2612 775 
Q 2400 325 1975 150 
Q 1550 -25 1125 187 
Q 700 400 525 750 
Q 350 1100 275 1487 
Q 200 1875 225 2537 
z
M 750 2687 
Q 675 2000 800 1462 
Q 925 925 1212 700 
Q 1500 475 1800 612 
Q 2100 750 2237 1162 
Q 2375 1575 2375 2062 
Q 2375 2550 2337 2950 
Q 2300 3350 2112 3675 
Q 1925 4000 1612 4012 
Q 1300 4025 1062 3700 
Q 825 3375 750 2687 
z
" transform="scale(0.015625)"/>
       </defs>
       <use xlink:href="#SimHei-30"/>
      </g>
     </g>
    </g>
    <g id="xtick_4">
     <g id="line2d_7">
      <path d="M 393.844105 312.708437 
L 393.844105 23.873437 
" clip-path="url(#p40570f047c)" style="fill: none; stroke: #b0b0b0; stroke-opacity: 0.25; stroke-width: 0.8; stroke-linecap: square"/>
     </g>
     <g id="line2d_8">
      <g>
       <use xlink:href="#mfa39feec4a" x="393.844105" y="312.708437" style="stroke: #000000; stroke-width: 0.8"/>
      </g>
     </g>
     <g id="text_4">
      <!-- 1 -->
      <g transform="translate(391.094105 327.270937) scale(0.11 -0.11)">
       <use xlink:href="#SimHei-31"/>
      </g>
     </g>
    </g>
    <g id="xtick_5">
     <g id="line2d_9">
      <path d="M 488.412741 312.708437 
L 488.412741 23.873437 
" clip-path="url(#p40570f047c)" style="fill: none; stroke: #b0b0b0; stroke-opacity: 0.25; stroke-width: 0.8; stroke-linecap: square"/>
     </g>
     <g id="line2d_10">
      <g>
       <use xlink:href="#mfa39feec4a" x="488.412741" y="312.708437" style="stroke: #000000; stroke-width: 0.8"/>
      </g>
     </g>
     <g id="text_5">
      <!-- 2 -->
      <g transform="translate(485.662741 327.270937) scale(0.11 -0.11)">
       <use xlink:href="#SimHei-32"/>
      </g>
     </g>
    </g>
    <g id="text_6">
     <!-- 投资机会 opportunity -->
     <g transform="translate(244.275469 341.626406) scale(0.11 -0.11)">
      <defs>
       <path id="SimHei-6295" d="M 2650 2600 
Q 3200 2575 3625 2575 
L 5500 2575 
Q 5400 2075 5125 1537 
Q 4850 1000 4450 525 
Q 4750 275 5250 137 
Q 5750 0 6200 -25 
Q 5975 -275 5875 -575 
Q 5375 -450 4937 -262 
Q 4500 -75 4075 200 
Q 3700 -75 3350 -262 
Q 3000 -450 2450 -650 
Q 2350 -425 2100 -175 
Q 2425 -100 2825 25 
Q 3225 150 3725 525 
Q 3225 1175 3050 2150 
L 2650 2150 
L 2650 2600 
z
M 1200 3825 
Q 1200 4625 1175 5200 
L 1675 5200 
Q 1650 4675 1650 3825 
Q 2050 3825 2425 3850 
L 2425 3375 
Q 2050 3400 1650 3400 
L 1650 2350 
Q 1875 2400 2350 2600 
Q 2350 2375 2400 2100 
Q 2175 2050 1650 1850 
L 1650 -50 
Q 1625 -375 1425 -450 
Q 1225 -525 625 -600 
Q 625 -300 475 -25 
Q 925 -50 1050 -25 
Q 1175 0 1200 225 
L 1200 1725 
Q 675 1525 425 1350 
Q 350 1675 200 1925 
Q 600 1975 1200 2175 
L 1200 3400 
Q 675 3400 350 3375 
L 350 3850 
Q 675 3825 1200 3825 
z
M 5375 3100 
Q 5050 3100 4800 3125 
Q 4550 3150 4550 3550 
L 4550 4575 
L 3650 4575 
Q 3650 3875 3487 3475 
Q 3325 3075 2975 2725 
Q 2775 2925 2500 3025 
Q 3025 3450 3087 3900 
Q 3150 4350 3125 4975 
L 5025 4975 
Q 5000 4725 5000 4300 
L 5000 3700 
Q 5000 3525 5175 3525 
L 5550 3525 
Q 5775 3525 5900 3550 
Q 5850 3350 5850 3100 
L 5375 3100 
z
M 3475 2150 
Q 3700 1250 4100 825 
Q 4325 1075 4512 1350 
Q 4700 1625 4875 2150 
L 3475 2150 
z
" transform="scale(0.015625)"/>
       <path id="SimHei-8d44" d="M 5300 2150 
Q 5275 1825 5275 1450 
Q 5275 1075 5300 575 
L 4800 575 
L 4800 1725 
L 1700 1725 
L 1700 425 
L 1200 425 
Q 1225 1000 1225 1375 
Q 1225 1775 1200 2150 
L 5300 2150 
z
M 4225 4075 
Q 4050 3775 4200 3562 
Q 4350 3350 4612 3162 
Q 4875 2975 5262 2850 
Q 5650 2725 6125 2700 
Q 5925 2425 5825 2175 
Q 5200 2300 4712 2550 
Q 4225 2800 3900 3350 
Q 3675 2775 3250 2550 
Q 2825 2325 2325 2175 
Q 2125 2400 1925 2575 
Q 2975 2775 3300 3175 
Q 3625 3575 3650 4150 
L 4225 4075 
z
M 3125 4250 
Q 2825 3850 2550 3650 
Q 2375 3825 2175 3950 
Q 2475 4150 2737 4487 
Q 3000 4825 3150 5200 
Q 3375 5100 3700 5050 
Q 3575 4825 3400 4650 
L 5750 4650 
Q 5675 4500 5300 3675 
Q 5000 3750 4800 3775 
Q 4925 4050 5025 4250 
L 3125 4250 
z
M 3525 1375 
Q 3400 1100 3337 825 
Q 3275 550 3012 262 
Q 2750 -25 2250 -275 
Q 1750 -525 800 -675 
Q 725 -425 500 -200 
Q 1225 -175 1712 -12 
Q 2200 150 2450 350 
Q 2700 550 2812 837 
Q 2925 1125 2925 1450 
Q 3225 1400 3525 1375 
z
M 3825 700 
Q 4300 525 4750 350 
Q 5200 175 5825 -100 
Q 5675 -300 5550 -600 
Q 5075 -325 4612 -125 
Q 4150 75 3625 250 
Q 3750 450 3825 700 
z
M 2075 3325 
Q 1450 2750 875 2050 
Q 625 2325 475 2425 
Q 1275 3050 1725 3625 
Q 1850 3500 2075 3325 
z
M 1700 3975 
Q 1300 4275 625 4675 
Q 800 4850 925 5025 
Q 1150 4875 2000 4350 
Q 1850 4200 1700 3975 
z
" transform="scale(0.015625)"/>
       <path id="SimHei-673a" d="M 5100 4775 
Q 5075 4075 5075 3575 
L 5075 325 
Q 5075 0 5225 -25 
Q 5375 -50 5475 -37 
Q 5575 -25 5612 137 
Q 5650 300 5650 625 
Q 5875 500 6175 425 
Q 6075 -100 5975 -275 
Q 5875 -450 5650 -450 
L 5125 -450 
Q 4825 -450 4687 -312 
Q 4550 -175 4575 250 
L 4575 4350 
L 3625 4350 
Q 3625 2925 3587 2137 
Q 3550 1350 3362 712 
Q 3175 75 2625 -575 
Q 2500 -425 2175 -175 
Q 2525 100 2737 500 
Q 2950 900 3025 1325 
Q 3100 1750 3125 2225 
Q 3150 2700 3150 3425 
Q 3150 4175 3125 4775 
L 5100 4775 
z
M 2150 2725 
Q 2550 2175 2750 1875 
Q 2575 1725 2325 1550 
Q 2175 1875 1800 2425 
L 1800 600 
Q 1800 100 1825 -525 
L 1275 -525 
Q 1300 100 1300 600 
L 1300 2200 
Q 1175 1825 1025 1487 
Q 875 1150 600 725 
Q 375 975 200 1125 
Q 400 1350 725 2000 
Q 1050 2650 1225 3450 
L 1075 3450 
Q 725 3450 375 3400 
L 375 3875 
Q 725 3850 1050 3850 
L 1300 3850 
L 1300 4350 
Q 1300 4750 1275 5100 
L 1850 5100 
Q 1800 4850 1800 4350 
L 1800 3850 
L 2075 3850 
Q 2350 3850 2700 3875 
L 2700 3425 
Q 2150 3450 1800 3450 
L 1800 2450 
Q 1950 2575 2150 2725 
z
" transform="scale(0.015625)"/>
       <path id="SimHei-4f1a" d="M 3200 1200 
Q 3025 1075 1825 50 
Q 3475 100 4375 150 
Q 4150 400 3700 800 
Q 3875 950 4050 1125 
Q 4400 800 4725 487 
Q 5050 175 5475 -275 
Q 5300 -425 5050 -650 
Q 4825 -325 4675 -200 
Q 4100 -225 2812 -300 
Q 1525 -375 1150 -475 
Q 1025 -150 950 25 
Q 1350 150 1900 662 
Q 2450 1175 2675 1500 
L 1950 1500 
Q 1275 1500 700 1475 
L 700 1900 
Q 1300 1875 1925 1875 
L 4425 1875 
Q 5050 1875 5650 1900 
L 5650 1475 
Q 5050 1500 4325 1500 
L 2825 1500 
Q 3025 1300 3200 1200 
z
M 3475 4800 
Q 4350 3550 6125 2925 
Q 5900 2725 5775 2475 
Q 4075 3250 3200 4475 
Q 2025 3150 625 2350 
Q 375 2700 200 2775 
Q 1125 3100 1962 3850 
Q 2800 4600 3100 5225 
Q 3325 5075 3625 4950 
L 3475 4800 
z
M 3650 3025 
Q 4200 3025 4550 3050 
L 4550 2600 
Q 4175 2625 3650 2625 
L 2575 2625 
Q 2100 2625 1775 2600 
L 1775 3050 
Q 2100 3025 2550 3025 
L 3650 3025 
z
" transform="scale(0.015625)"/>
       <path id="SimHei-20" transform="scale(0.015625)"/>
       <path id="SimHei-6f" d="M 2925 1525 
Q 2925 875 2525 475 
Q 2125 75 1575 75 
Q 1025 75 625 475 
Q 225 875 225 1525 
Q 225 2175 625 2575 
Q 1025 2975 1575 2975 
Q 2125 2975 2525 2575 
Q 2925 2175 2925 1525 
z
M 2375 1525 
Q 2375 2025 2125 2275 
Q 1875 2525 1575 2525 
Q 1275 2525 1025 2275 
Q 775 2025 775 1525 
Q 775 1025 1025 775 
Q 1275 525 1575 525 
Q 1875 525 2125 775 
Q 2375 1025 2375 1525 
z
" transform="scale(0.015625)"/>
       <path id="SimHei-70" d="M 2825 1525 
Q 2825 800 2475 425 
Q 2125 50 1625 50 
Q 1350 50 1150 162 
Q 950 275 800 500 
L 800 -800 
L 300 -800 
L 300 2925 
L 800 2925 
L 800 2550 
Q 950 2775 1150 2875 
Q 1350 2975 1625 2975 
Q 2125 2975 2475 2612 
Q 2825 2250 2825 1525 
z
M 2275 1525 
Q 2275 2000 2087 2262 
Q 1900 2525 1525 2525 
Q 1225 2525 1012 2262 
Q 800 2000 800 1525 
Q 800 1050 1012 775 
Q 1225 500 1525 500 
Q 1900 500 2087 775 
Q 2275 1050 2275 1525 
z
" transform="scale(0.015625)"/>
       <path id="SimHei-72" d="M 2500 2425 
Q 2025 2500 1700 2287 
Q 1375 2075 1150 1550 
L 1150 125 
L 650 125 
L 650 2925 
L 1150 2925 
L 1150 2200 
Q 1375 2600 1712 2787 
Q 2050 2975 2500 2975 
L 2500 2425 
z
" transform="scale(0.015625)"/>
       <path id="SimHei-74" d="M 2750 200 
Q 2625 150 2462 112 
Q 2300 75 2025 75 
Q 1575 75 1300 325 
Q 1025 575 1025 1025 
L 1025 2525 
L 175 2525 
L 175 2925 
L 1025 2925 
L 1025 3900 
L 1525 3900 
L 1525 2925 
L 2550 2925 
L 2550 2525 
L 1525 2525 
L 1525 1000 
Q 1525 800 1625 662 
Q 1725 525 2000 525 
Q 2275 525 2450 575 
Q 2625 625 2750 700 
L 2750 200 
z
" transform="scale(0.015625)"/>
       <path id="SimHei-75" d="M 2800 125 
L 2300 125 
L 2300 650 
Q 2100 375 1862 225 
Q 1625 75 1250 75 
Q 800 75 575 325 
Q 350 575 350 950 
L 350 2925 
L 850 2925 
L 850 1125 
Q 850 825 1000 650 
Q 1150 475 1400 475 
Q 1725 475 2012 812 
Q 2300 1150 2300 1650 
L 2300 2925 
L 2800 2925 
L 2800 125 
z
" transform="scale(0.015625)"/>
       <path id="SimHei-6e" d="M 2800 125 
L 2300 125 
L 2300 1925 
Q 2300 2225 2150 2400 
Q 2000 2575 1750 2575 
Q 1425 2575 1137 2237 
Q 850 1900 850 1400 
L 850 125 
L 350 125 
L 350 2925 
L 850 2925 
L 850 2400 
Q 1050 2675 1287 2825 
Q 1525 2975 1900 2975 
Q 2350 2975 2575 2725 
Q 2800 2475 2800 2100 
L 2800 125 
z
" transform="scale(0.015625)"/>
       <path id="SimHei-69" d="M 1800 3725 
L 1300 3725 
L 1300 4375 
L 1800 4375 
L 1800 3725 
z
M 1800 125 
L 1300 125 
L 1300 2925 
L 1800 2925 
L 1800 125 
z
" transform="scale(0.015625)"/>
       <path id="SimHei-79" d="M 2900 2925 
L 1750 -100 
Q 1650 -450 1450 -625 
Q 1250 -800 950 -800 
Q 825 -800 712 -787 
Q 600 -775 500 -725 
L 500 -225 
Q 600 -275 700 -300 
Q 800 -325 875 -325 
Q 1075 -325 1150 -262 
Q 1225 -200 1300 25 
L 200 2925 
L 750 2925 
L 1550 725 
L 1575 725 
L 2350 2925 
L 2900 2925 
z
" transform="scale(0.015625)"/>
      </defs>
      <use xlink:href="#SimHei-6295"/>
      <use xlink:href="#SimHei-8d44" transform="translate(100 0)"/>
      <use xlink:href="#SimHei-673a" transform="translate(200 0)"/>
      <use xlink:href="#SimHei-4f1a" transform="translate(300 0)"/>
      <use xlink:href="#SimHei-20" transform="translate(400 0)"/>
      <use xlink:href="#SimHei-6f" transform="translate(450 0)"/>
      <use xlink:href="#SimHei-70" transform="translate(500 0)"/>
      <use xlink:href="#SimHei-70" transform="translate(550 0)"/>
      <use xlink:href="#SimHei-6f" transform="translate(600 0)"/>
      <use xlink:href="#SimHei-72" transform="translate(650 0)"/>
      <use xlink:href="#SimHei-74" transform="translate(700 0)"/>
      <use xlink:href="#SimHei-75" transform="translate(750 0)"/>
      <use xlink:href="#SimHei-6e" transform="translate(800 0)"/>
      <use xlink:href="#SimHei-69" transform="translate(850 0)"/>
      <use xlink:href="#SimHei-74" transform="translate(900 0)"/>
      <use xlink:href="#SimHei-79" transform="translate(950 0)"/>
     </g>
    </g>
   </g>
   <g id="matplotlib.axis_2">
    <g id="ytick_1">
     <g id="line2d_11">
      <path d="M 39.211719 275.108968 
L 559.339219 275.108968 
" clip-path="url(#p40570f047c)" style="fill: none; stroke: #b0b0b0; stroke-opacity: 0.25; stroke-width: 0.8; stroke-linecap: square"/>
     </g>
     <g id="line2d_12">
      <defs>
       <path id="m78892cbe12" d="M 0 0 
L -3.5 0 
" style="stroke: #000000; stroke-width: 0.8"/>
      </defs>
      <g>
       <use xlink:href="#m78892cbe12" x="39.211719" y="275.108968" style="stroke: #000000; stroke-width: 0.8"/>
      </g>
     </g>
     <g id="text_7">
      <!-- -2 -->
      <g transform="translate(21.211719 278.890218) scale(0.11 -0.11)">
       <use xlink:href="#SimHei-2d"/>
       <use xlink:href="#SimHei-32" transform="translate(50 0)"/>
      </g>
     </g>
    </g>
    <g id="ytick_2">
     <g id="line2d_13">
      <path d="M 39.211719 214.535512 
L 559.339219 214.535512 
" clip-path="url(#p40570f047c)" style="fill: none; stroke: #b0b0b0; stroke-opacity: 0.25; stroke-width: 0.8; stroke-linecap: square"/>
     </g>
     <g id="line2d_14">
      <g>
       <use xlink:href="#m78892cbe12" x="39.211719" y="214.535512" style="stroke: #000000; stroke-width: 0.8"/>
      </g>
     </g>
     <g id="text_8">
      <!-- -1 -->
      <g transform="translate(21.211719 218.316762) scale(0.11 -0.11)">
       <use xlink:href="#SimHei-2d"/>
       <use xlink:href="#SimHei-31" transform="translate(50 0)"/>
      </g>
     </g>
    </g>
    <g id="ytick_3">
     <g id="line2d_15">
      <path d="M 39.211719 153.962055 
L 559.339219 153.962055 
" clip-path="url(#p40570f047c)" style="fill: none; stroke: #b0b0b0; stroke-opacity: 0.25; stroke-width: 0.8; stroke-linecap: square"/>
     </g>
     <g id="line2d_16">
      <g>
       <use xlink:href="#m78892cbe12" x="39.211719" y="153.962055" style="stroke: #000000; stroke-width: 0.8"/>
      </g>
     </g>
     <g id="text_9">
      <!-- 0 -->
      <g transform="translate(26.711719 157.743305) scale(0.11 -0.11)">
       <use xlink:href="#SimHei-30"/>
      </g>
     </g>
    </g>
    <g id="ytick_4">
     <g id="line2d_17">
      <path d="M 39.211719 93.388599 
L 559.339219 93.388599 
" clip-path="url(#p40570f047c)" style="fill: none; stroke: #b0b0b0; stroke-opacity: 0.25; stroke-width: 0.8; stroke-linecap: square"/>
     </g>
     <g id="line2d_18">
      <g>
       <use xlink:href="#m78892cbe12" x="39.211719" y="93.388599" style="stroke: #000000; stroke-width: 0.8"/>
      </g>
     </g>
     <g id="text_10">
      <!-- 1 -->
      <g transform="translate(26.711719 97.169849) scale(0.11 -0.11)">
       <use xlink:href="#SimHei-31"/>
      </g>
     </g>
    </g>
    <g id="ytick_5">
     <g id="line2d_19">
      <path d="M 39.211719 32.815143 
L 559.339219 32.815143 
" clip-path="url(#p40570f047c)" style="fill: none; stroke: #b0b0b0; stroke-opacity: 0.25; stroke-width: 0.8; stroke-linecap: square"/>
     </g>
     <g id="line2d_20">
      <g>
       <use xlink:href="#m78892cbe12" x="39.211719" y="32.815143" style="stroke: #000000; stroke-width: 0.8"/>
      </g>
     </g>
     <g id="text_11">
      <!-- 2 -->
      <g transform="translate(26.711719 36.596393) scale(0.11 -0.11)">
       <use xlink:href="#SimHei-32"/>
      </g>
     </g>
    </g>
    <g id="text_12">
     <!-- 期望值 -->
     <g transform="translate(15.836719 184.790937) rotate(-90) scale(0.11 -0.11)">
      <defs>
       <path id="SimHei-671f" d="M 4900 -25 
Q 5475 -100 5425 175 
L 5425 1575 
L 4325 1575 
Q 4275 975 4050 425 
Q 3825 -125 3400 -600 
Q 3225 -375 2925 -275 
Q 3350 150 3562 625 
Q 3775 1100 3812 1575 
Q 3850 2050 3850 3125 
Q 3850 4225 3825 4875 
L 5950 4875 
Q 5925 4400 5925 3725 
L 5925 50 
Q 5925 -300 5700 -425 
Q 5475 -550 5100 -600 
Q 5100 -325 4900 -25 
z
M 950 4300 
Q 950 4675 925 5125 
L 1450 5125 
Q 1425 4625 1425 4300 
L 2550 4300 
Q 2550 4775 2525 5125 
L 3075 5125 
Q 3050 4700 3050 4300 
Q 3225 4300 3500 4325 
L 3500 3900 
Q 3250 3925 3050 3925 
L 3050 1550 
Q 3250 1550 3500 1575 
L 3500 1150 
Q 3025 1175 2575 1175 
L 1225 1175 
Q 675 1175 275 1150 
L 275 1575 
Q 650 1550 950 1550 
L 950 3925 
Q 725 3925 425 3900 
L 425 4325 
Q 700 4300 950 4300 
z
M 5425 3375 
L 5425 4500 
L 4350 4500 
L 4350 3375 
L 5425 3375 
z
M 5425 1950 
L 5425 3000 
L 4350 3000 
L 4350 1950 
L 5425 1950 
z
M 1600 725 
Q 1425 650 1162 287 
Q 900 -75 650 -350 
Q 400 -175 225 -75 
Q 450 100 700 412 
Q 950 725 1100 1025 
L 1600 725 
z
M 2550 3375 
L 2550 3925 
L 1425 3925 
L 1425 3375 
L 2550 3375 
z
M 2550 1550 
L 2550 2100 
L 1425 2100 
L 1425 1550 
L 2550 1550 
z
M 2550 2475 
L 2550 3000 
L 1425 3000 
L 1425 2475 
L 2550 2475 
z
M 2850 -75 
Q 2450 525 2225 725 
Q 2375 825 2550 1025 
Q 2850 725 3250 275 
Q 3050 125 2850 -75 
z
" transform="scale(0.015625)"/>
       <path id="SimHei-671b" d="M 4875 1925 
Q 5275 1925 5700 1950 
L 5700 1500 
Q 5275 1525 4875 1525 
L 3450 1525 
L 3450 950 
L 4525 950 
Q 4975 950 5500 975 
L 5500 525 
Q 4975 550 4525 550 
L 3450 550 
L 3450 -50 
L 5200 -50 
Q 5575 -50 6025 -25 
L 6025 -475 
Q 5600 -450 5200 -450 
L 1325 -450 
Q 875 -450 425 -475 
L 425 -25 
Q 875 -50 1325 -50 
L 2975 -50 
L 2975 550 
L 1950 550 
Q 1475 550 950 525 
L 950 975 
Q 1475 950 1950 950 
L 2975 950 
L 2975 1525 
L 1700 1525 
Q 1225 1525 725 1500 
L 725 1950 
Q 1225 1925 1700 1925 
L 4875 1925 
z
M 5625 5000 
Q 5600 4475 5600 3975 
L 5600 2500 
Q 5625 2050 4725 2000 
Q 4700 2225 4525 2525 
Q 4975 2500 5062 2525 
Q 5150 2550 5150 2725 
L 5150 2975 
L 3725 2975 
Q 3575 2475 3100 1975 
Q 2925 2150 2675 2300 
Q 3025 2600 3175 2887 
Q 3325 3175 3362 3500 
Q 3400 3825 3400 4200 
Q 3400 4575 3375 5000 
L 5625 5000 
z
M 975 2475 
Q 1000 3050 1000 3400 
L 1000 4075 
Q 750 4075 400 4050 
L 400 4500 
Q 850 4475 1250 4475 
L 1650 4475 
Q 1575 4725 1450 5125 
Q 1700 5150 1950 5225 
Q 2025 4925 2150 4475 
Q 2475 4475 3025 4500 
L 3025 4050 
Q 2475 4075 2125 4075 
L 1450 4075 
L 1450 3025 
L 2825 3275 
L 2825 2850 
L 975 2475 
z
M 5150 3375 
L 5150 3825 
L 3825 3825 
L 3800 3375 
L 5150 3375 
z
M 5150 4225 
L 5150 4625 
L 3850 4625 
L 3850 4225 
L 5150 4225 
z
" transform="scale(0.015625)"/>
       <path id="SimHei-503c" d="M 3675 4450 
L 3675 5100 
Q 3975 5075 4350 5050 
Q 4225 4875 4200 4450 
L 5125 4450 
Q 5550 4450 5875 4475 
L 5875 4025 
Q 5525 4050 5125 4050 
L 4175 4050 
L 4125 3500 
L 5400 3500 
Q 5375 3200 5375 2700 
L 5375 150 
Q 5875 150 6100 175 
L 6100 -275 
Q 5775 -250 5200 -250 
L 2850 -250 
Q 2275 -250 1900 -275 
L 1900 175 
Q 2125 150 2600 150 
L 2600 2700 
Q 2600 3175 2575 3500 
L 3600 3500 
L 3650 4050 
L 3200 4050 
Q 2575 4050 2225 4025 
L 2225 4475 
Q 2550 4450 3200 4450 
L 3675 4450 
z
M 2225 4900 
Q 2025 4675 1650 3750 
L 1650 450 
Q 1650 -75 1675 -550 
L 1150 -550 
Q 1175 -125 1175 375 
L 1175 2950 
Q 875 2450 625 2150 
Q 425 2425 250 2575 
Q 500 2825 937 3537 
Q 1375 4250 1625 5150 
Q 1975 4975 2225 4900 
z
M 4925 2650 
L 4925 3150 
L 3075 3150 
L 3075 2650 
L 4925 2650 
z
M 4925 150 
L 4925 625 
L 3075 625 
L 3075 150 
L 4925 150 
z
M 4925 1000 
L 4925 1450 
L 3075 1450 
L 3075 1000 
L 4925 1000 
z
M 4925 1825 
L 4925 2275 
L 3075 2275 
L 3075 1825 
L 4925 1825 
z
" transform="scale(0.015625)"/>
      </defs>
      <use xlink:href="#SimHei-671f"/>
      <use xlink:href="#SimHei-671b" transform="translate(100 0)"/>
      <use xlink:href="#SimHei-503c" transform="translate(200 0)"/>
     </g>
    </g>
   </g>
   <g id="line2d_21">
    <path d="M 62.853878 299.579574 
L 535.69706 41.868574 
L 535.69706 41.868574 
" clip-path="url(#p40570f047c)" style="fill: none; stroke: #1f77b4; stroke-width: 2; stroke-linecap: square"/>
   </g>
   <g id="line2d_22">
    <path d="M 62.853878 153.774911 
L 100.87142 153.475513 
L 129.384577 153.02501 
L 150.769444 152.48067 
L 169.778215 151.788238 
L 186.41089 150.975239 
L 203.043565 149.924551 
L 217.300143 148.800282 
L 231.556722 147.43824 
L 243.437204 146.100165 
L 255.317686 144.559719 
L 267.198167 142.801176 
L 279.078649 140.810168 
L 290.959131 138.574094 
L 302.839613 136.082502 
L 314.720095 133.327417 
L 326.600577 130.303591 
L 338.481059 127.008678 
L 350.361541 123.44331 
L 362.242023 119.611072 
L 374.122505 115.518392 
L 386.002987 111.174328 
L 397.883469 106.590282 
L 409.763951 101.779651 
L 421.644433 96.75743 
L 435.901011 90.474287 
L 450.15759 83.939046 
L 466.790264 76.035689 
L 483.422939 67.876141 
L 502.43171 58.29343 
L 523.816578 47.255034 
L 535.69706 41.030548 
L 535.69706 41.030548 
" clip-path="url(#p40570f047c)" style="fill: none; stroke: #ff7f0e; stroke-width: 2; stroke-linecap: square"/>
   </g>
   <g id="line2d_23">
    <path d="M 62.853878 133.300295 
L 93.743131 131.584964 
L 122.256288 129.773683 
L 148.393348 127.886118 
L 172.154312 125.94976 
L 193.539179 124.00003 
L 214.924047 121.826114 
L 233.932818 119.680744 
L 252.941589 117.309835 
L 269.574264 115.029462 
L 286.206939 112.536861 
L 302.839613 109.811531 
L 319.472288 106.831942 
L 333.728866 104.058798 
L 347.985445 101.06837 
L 362.242023 97.846664 
L 376.498601 94.380196 
L 390.75518 90.656402 
L 405.011758 86.664104 
L 416.89224 83.125315 
L 428.772722 79.389455 
L 440.653204 75.453768 
L 452.533686 71.317045 
L 464.414168 66.97978 
L 478.670746 61.513722 
L 492.927325 55.769838 
L 507.183903 49.759489 
L 521.440481 43.49762 
L 535.69706 37.002301 
L 535.69706 37.002301 
" clip-path="url(#p40570f047c)" style="fill: none; stroke: #2ca02c; stroke-width: 2; stroke-linecap: square"/>
   </g>
   <g id="line2d_24">
    <path d="M 39.211719 153.962055 
L 559.339219 153.962055 
" clip-path="url(#p40570f047c)" style="fill: none; stroke-dasharray: 3.7,1.6; stroke-dashoffset: 0; stroke: #000000"/>
   </g>
   <g id="patch_3">
    <path d="M 39.211719 312.708437 
L 39.211719 23.873437 
" style="fill: none; stroke: #000000; stroke-width: 0.8; stroke-linejoin: miter; stroke-linecap: square"/>
   </g>
   <g id="patch_4">
    <path d="M 39.211719 312.708437 
L 559.339219 312.708437 
" style="fill: none; stroke: #000000; stroke-width: 0.8; stroke-linejoin: miter; stroke-linecap: square"/>
   </g>
   <g id="text_13">
    <!-- Tobit 中不同期望对象的区别 -->
    <g transform="translate(213.475469 17.873437) scale(0.132 -0.132)">
     <defs>
      <path id="SimHei-54" d="M 2850 3925 
L 1850 3925 
L 1850 125 
L 1275 125 
L 1275 3925 
L 275 3925 
L 275 4400 
L 2850 4400 
L 2850 3925 
z
" transform="scale(0.015625)"/>
      <path id="SimHei-62" d="M 2825 1525 
Q 2825 800 2475 437 
Q 2125 75 1625 75 
Q 1350 75 1150 175 
Q 950 275 800 500 
L 800 125 
L 300 125 
L 300 4400 
L 800 4400 
L 800 2550 
Q 950 2775 1150 2887 
Q 1350 3000 1625 3000 
Q 2125 3000 2475 2625 
Q 2825 2250 2825 1525 
z
M 2275 1525 
Q 2275 2000 2087 2275 
Q 1900 2550 1525 2550 
Q 1225 2550 1012 2275 
Q 800 2000 800 1525 
Q 800 1050 1012 787 
Q 1225 525 1525 525 
Q 1900 525 2087 787 
Q 2275 1050 2275 1525 
z
" transform="scale(0.015625)"/>
      <path id="SimHei-4e2d" d="M 3475 5200 
Q 3450 4500 3450 3875 
L 5625 3875 
Q 5600 3375 5600 2500 
Q 5600 1650 5625 1225 
L 5075 1225 
L 5075 1600 
L 3450 1600 
L 3450 525 
Q 3450 225 3475 -600 
L 2875 -600 
Q 2925 -150 2925 450 
L 2925 1600 
L 1300 1600 
L 1300 1225 
L 750 1225 
Q 775 1600 775 2500 
Q 775 3425 750 3875 
L 2925 3875 
Q 2925 4550 2900 5200 
L 3475 5200 
z
M 5075 2000 
L 5075 3475 
L 3450 3475 
L 3450 2000 
L 5075 2000 
z
M 2925 2000 
L 2925 3475 
L 1300 3475 
L 1300 2000 
L 2925 2000 
z
" transform="scale(0.015625)"/>
      <path id="SimHei-4e0d" d="M 5975 4450 
Q 5525 4475 5200 4475 
L 3725 4475 
Q 3550 4125 3300 3700 
L 3300 575 
Q 3300 75 3325 -550 
L 2775 -550 
Q 2800 50 2800 575 
L 2800 3025 
Q 2025 1950 700 1050 
Q 500 1350 325 1475 
Q 825 1700 1650 2437 
Q 2475 3175 3175 4475 
L 1525 4475 
Q 1050 4475 525 4450 
L 525 4950 
Q 1275 4925 1675 4925 
L 5175 4925 
Q 5500 4925 5975 4950 
L 5975 4450 
z
M 5450 1125 
Q 4975 1725 3750 2975 
Q 3950 3150 4075 3325 
Q 4675 2775 5100 2362 
Q 5525 1950 5900 1550 
Q 5650 1350 5450 1125 
z
" transform="scale(0.015625)"/>
      <path id="SimHei-540c" d="M 5825 4925 
Q 5775 4550 5775 3975 
L 5775 -50 
Q 5775 -400 5525 -487 
Q 5275 -575 4725 -625 
Q 4725 -400 4525 -50 
Q 4925 -50 5100 -12 
Q 5275 25 5275 200 
L 5275 4450 
L 1150 4450 
L 1150 -600 
L 575 -600 
Q 600 -250 625 200 
L 625 3975 
Q 625 4575 600 4925 
L 5825 4925 
z
M 4375 2550 
Q 4325 2275 4325 1700 
Q 4325 1150 4375 725 
L 2025 725 
Q 2050 1175 2050 1750 
Q 2050 2325 2025 2550 
L 4375 2550 
z
M 4100 3750 
Q 4600 3750 4825 3775 
L 4825 3275 
Q 4575 3300 4075 3300 
L 2450 3300 
Q 1850 3300 1600 3275 
L 1600 3775 
Q 1875 3750 2475 3750 
L 4100 3750 
z
M 3875 1150 
L 3875 2150 
L 2525 2150 
L 2525 1150 
L 3875 1150 
z
" transform="scale(0.015625)"/>
      <path id="SimHei-5bf9" d="M 525 4250 
Q 900 4225 1400 4225 
L 2825 4225 
Q 2575 2625 2200 1750 
Q 2825 875 3125 400 
Q 2950 275 2725 75 
Q 2200 975 1950 1300 
Q 1650 775 1350 425 
Q 1050 75 600 -350 
Q 425 -125 200 -25 
Q 625 275 975 675 
Q 1325 1075 1650 1700 
Q 1050 2425 550 2900 
Q 700 3025 900 3225 
Q 1625 2425 1875 2150 
Q 2200 3050 2300 3825 
L 1400 3825 
Q 900 3825 525 3800 
L 525 4250 
z
M 2925 3700 
Q 3525 3675 3750 3675 
L 4825 3675 
L 4825 4425 
Q 4825 4750 4775 5125 
L 5350 5125 
Q 5325 4825 5325 4375 
L 5325 3675 
Q 5575 3675 6150 3700 
L 6150 3250 
Q 5575 3275 5325 3275 
L 5325 125 
Q 5350 -350 5012 -475 
Q 4675 -600 4250 -650 
Q 4175 -350 4025 -100 
Q 4575 -100 4712 -37 
Q 4850 25 4825 325 
L 4825 3275 
L 3775 3275 
Q 3550 3275 2925 3225 
L 2925 3700 
z
M 3450 2725 
Q 3875 1975 4175 1325 
Q 3850 1200 3700 1075 
Q 3475 1750 3050 2475 
Q 3225 2550 3450 2725 
z
" transform="scale(0.015625)"/>
      <path id="SimHei-8c61" d="M 2875 2350 
Q 3100 2125 3237 1962 
Q 3375 1800 3600 1525 
Q 3950 1700 4200 1875 
Q 4450 2050 4750 2400 
Q 4950 2175 5200 2025 
Q 5000 1925 4450 1500 
Q 4875 750 5200 550 
Q 5525 350 6150 225 
Q 5900 75 5775 -300 
Q 4975 25 4612 487 
Q 4250 950 4100 1325 
Q 3975 1275 3800 1150 
Q 3900 425 3825 62 
Q 3750 -300 3475 -437 
Q 3200 -575 2650 -650 
Q 2575 -375 2450 -125 
Q 3150 -150 3287 75 
Q 3425 300 3375 850 
Q 2825 450 2450 262 
Q 2075 75 1700 -87 
Q 1325 -250 800 -450 
Q 700 -300 450 -50 
Q 925 50 1312 175 
Q 1700 300 2250 587 
Q 2800 875 3200 1275 
Q 3075 1450 3000 1600 
Q 2725 1300 2300 1062 
Q 1875 825 1512 700 
Q 1150 575 750 425 
Q 675 675 400 875 
Q 1125 1000 1512 1137 
Q 1900 1275 2175 1462 
Q 2450 1650 2750 1900 
Q 2675 2000 2550 2075 
Q 2200 1900 1837 1725 
Q 1475 1550 875 1400 
Q 825 1575 525 1825 
Q 1100 1925 1525 2062 
Q 1950 2200 2375 2500 
L 1025 2500 
Q 1050 2875 1050 3550 
Q 900 3400 725 3275 
Q 575 3475 275 3625 
Q 825 3900 1350 4362 
Q 1875 4825 2125 5300 
Q 2300 5150 2725 5075 
Q 2475 4900 2300 4675 
L 4650 4675 
Q 4125 4050 3975 3825 
L 5400 3825 
Q 5375 3575 5375 3150 
Q 5375 2725 5400 2500 
L 3025 2500 
Q 2925 2425 2875 2350 
z
M 4900 2850 
L 4900 3475 
L 3500 3475 
Q 3400 3200 3225 2850 
L 4900 2850 
z
M 3400 3825 
Q 3550 4075 3775 4325 
L 1975 4325 
Q 1600 3975 1375 3825 
L 3400 3825 
z
M 2725 2850 
Q 2850 3025 3025 3475 
L 1550 3475 
L 1550 2850 
L 2725 2850 
z
" transform="scale(0.015625)"/>
      <path id="SimHei-7684" d="M 2100 4975 
Q 1975 4750 1750 3950 
L 2875 3950 
Q 2850 3525 2850 2875 
L 2850 675 
Q 2850 300 2875 -400 
L 2375 -400 
L 2375 100 
L 1100 100 
L 1100 -450 
L 600 -450 
Q 625 350 625 550 
L 625 2850 
Q 625 3525 600 3950 
L 1325 3950 
Q 1450 4525 1525 5150 
Q 1875 5025 2100 4975 
z
M 5825 3075 
Q 5800 1550 5700 175 
Q 5650 -275 5225 -425 
Q 4800 -575 4275 -625 
Q 4250 -350 4050 -50 
Q 4550 -75 4837 -25 
Q 5125 25 5200 200 
Q 5275 375 5312 1225 
Q 5350 2075 5375 3600 
L 3925 3600 
Q 3725 3125 3350 2475 
Q 3175 2650 2925 2750 
Q 3150 3050 3350 3475 
Q 3550 3900 3700 4400 
Q 3850 4900 3875 5175 
Q 4225 5025 4475 4950 
Q 4350 4750 4262 4512 
Q 4175 4275 4075 4050 
L 5850 4050 
Q 5825 3525 5825 3075 
z
M 2375 525 
L 2375 1850 
L 1100 1850 
L 1100 525 
L 2375 525 
z
M 2375 2275 
L 2375 3525 
L 1100 3525 
L 1100 2275 
L 2375 2275 
z
M 4350 2050 
Q 4500 1750 4700 1275 
Q 4525 1200 4225 1025 
Q 4050 1500 3900 1837 
Q 3750 2175 3600 2400 
Q 3775 2500 4050 2650 
L 4350 2050 
z
" transform="scale(0.015625)"/>
      <path id="SimHei-533a" d="M 5850 4525 
Q 5475 4550 4850 4550 
L 1150 4550 
L 1150 -75 
L 5225 -75 
Q 5725 -75 6025 -50 
L 6025 -500 
Q 5700 -475 5175 -475 
L 625 -475 
Q 650 125 650 400 
L 650 4200 
Q 650 4625 625 4975 
L 5850 4975 
L 5850 4525 
z
M 2275 3875 
Q 3150 3275 3800 2700 
Q 4375 3375 4650 4050 
Q 4925 3875 5300 3700 
Q 5025 3525 4825 3225 
Q 4625 2925 4225 2375 
Q 5075 1675 5600 1000 
Q 5300 800 5175 575 
Q 4775 1175 3850 1950 
Q 3475 1525 3087 1175 
Q 2700 825 2125 400 
Q 1900 625 1625 775 
Q 2125 1000 2525 1312 
Q 2925 1625 3475 2300 
Q 2850 2875 1925 3450 
Q 2175 3650 2275 3875 
z
" transform="scale(0.015625)"/>
      <path id="SimHei-522b" d="M 3275 4950 
Q 3250 4600 3250 3925 
Q 3250 3250 3275 2975 
L 800 2975 
Q 825 3275 825 3975 
Q 825 4700 800 4950 
L 3275 4950 
z
M 1650 2125 
Q 1650 2400 1625 2925 
Q 1950 2875 2225 2850 
Q 2150 2625 2125 2125 
L 3600 2125 
Q 3575 1850 3575 1375 
L 3525 125 
Q 3500 -275 3200 -400 
Q 2900 -525 2475 -600 
Q 2375 -275 2250 -25 
Q 2725 -25 2900 25 
Q 3075 75 3075 325 
L 3125 1675 
L 2100 1675 
Q 2025 875 1737 400 
Q 1450 -75 650 -675 
Q 475 -400 250 -225 
Q 900 125 1237 575 
Q 1575 1025 1600 1675 
L 1125 1675 
Q 825 1675 450 1650 
L 450 2150 
Q 800 2125 1125 2125 
L 1650 2125 
z
M 5800 5125 
Q 5775 4875 5775 4375 
L 5775 175 
Q 5775 -350 5525 -450 
Q 5275 -550 4700 -650 
Q 4625 -350 4475 -75 
Q 5000 -75 5150 -12 
Q 5300 50 5300 325 
L 5300 4375 
Q 5300 4825 5275 5125 
L 5800 5125 
z
M 4600 4400 
Q 4575 4100 4575 3700 
L 4575 1600 
Q 4575 1125 4600 725 
L 4075 725 
Q 4100 1125 4100 1600 
L 4100 3700 
Q 4100 4100 4075 4400 
L 4600 4400 
z
M 2775 3425 
L 2775 4500 
L 1300 4500 
L 1300 3425 
L 2775 3425 
z
" transform="scale(0.015625)"/>
     </defs>
     <use xlink:href="#SimHei-54"/>
     <use xlink:href="#SimHei-6f" transform="translate(50 0)"/>
     <use xlink:href="#SimHei-62" transform="translate(100 0)"/>
     <use xlink:href="#SimHei-69" transform="translate(150 0)"/>
     <use xlink:href="#SimHei-74" transform="translate(200 0)"/>
     <use xlink:href="#SimHei-20" transform="translate(250 0)"/>
     <use xlink:href="#SimHei-4e2d" transform="translate(300 0)"/>
     <use xlink:href="#SimHei-4e0d" transform="translate(400 0)"/>
     <use xlink:href="#SimHei-540c" transform="translate(500 0)"/>
     <use xlink:href="#SimHei-671f" transform="translate(600 0)"/>
     <use xlink:href="#SimHei-671b" transform="translate(700 0)"/>
     <use xlink:href="#SimHei-5bf9" transform="translate(800 0)"/>
     <use xlink:href="#SimHei-8c61" transform="translate(900 0)"/>
     <use xlink:href="#SimHei-7684" transform="translate(1000 0)"/>
     <use xlink:href="#SimHei-533a" transform="translate(1100 0)"/>
     <use xlink:href="#SimHei-522b" transform="translate(1200 0)"/>
    </g>
   </g>
   <g id="legend_1">
    <g id="line2d_25">
     <path d="M 49.111719 39.933437 
L 60.111719 39.933437 
L 71.111719 39.933437 
" style="fill: none; stroke: #1f77b4; stroke-width: 2; stroke-linecap: square"/>
    </g>
    <g id="text_14">
     <!-- 潜变量均值 $E(B_i^*\mid x)$ -->
     <g transform="translate(79.911719 43.783437) scale(0.11 -0.11)">
      <defs>
       <path id="SimHei-6f5c" d="M 5475 1975 
Q 5450 1350 5450 575 
Q 5450 -200 5475 -600 
L 5000 -600 
L 5000 -250 
L 2775 -250 
L 2775 -650 
L 2275 -650 
Q 2300 -200 2300 525 
Q 2300 1275 2275 1975 
L 4025 1975 
Q 3925 2125 3650 2275 
Q 4325 2625 4575 3350 
Q 4200 3350 3850 3325 
L 3850 3725 
Q 4225 3700 4650 3700 
Q 4675 3900 4675 4225 
Q 4350 4225 3975 4200 
L 3975 4600 
Q 4325 4575 4675 4575 
Q 4675 4900 4650 5225 
Q 4900 5200 5150 5200 
Q 5075 4900 5075 4575 
Q 5450 4575 5850 4600 
L 5850 4200 
Q 5500 4225 5075 4225 
Q 5050 3750 5050 3700 
Q 5525 3700 5975 3725 
L 5975 3325 
Q 5650 3350 5150 3350 
Q 5475 2700 6200 2350 
Q 5975 2225 5850 1975 
Q 5200 2375 4900 3025 
Q 4650 2475 4100 1975 
L 5475 1975 
z
M 3350 2275 
Q 3175 2600 2850 2925 
Q 2525 2350 2000 1925 
Q 1875 2050 1575 2200 
Q 2250 2625 2550 3350 
L 1775 3350 
L 1775 3700 
L 2625 3700 
Q 2625 3925 2650 4225 
L 2000 4225 
L 2000 4575 
L 2650 4575 
Q 2650 4900 2625 5225 
Q 2825 5175 3125 5175 
Q 3050 4900 3050 4575 
L 3600 4575 
L 3600 4225 
L 3050 4225 
Q 3050 3925 3025 3700 
L 3625 3700 
L 3625 3350 
L 3000 3350 
Q 3475 2900 3725 2600 
Q 3525 2475 3350 2275 
z
M 5000 125 
L 5000 675 
L 2775 675 
L 2775 125 
L 5000 125 
z
M 5000 1075 
L 5000 1600 
L 2775 1600 
L 2775 1075 
L 5000 1075 
z
M 1625 1450 
Q 1525 1300 1237 625 
Q 950 -50 750 -550 
Q 525 -375 225 -200 
Q 525 175 812 762 
Q 1100 1350 1250 1775 
Q 1425 1600 1625 1450 
z
M 1400 4050 
Q 1050 4375 475 4675 
Q 625 4850 750 5050 
Q 1325 4775 1700 4475 
Q 1525 4300 1400 4050 
z
M 575 3500 
Q 1100 3225 1525 2875 
Q 1350 2675 1250 2450 
Q 950 2775 325 3125 
Q 475 3300 575 3500 
z
" transform="scale(0.015625)"/>
       <path id="SimHei-53d8" d="M 5200 1975 
Q 4950 1600 4537 1137 
Q 4125 675 3675 375 
Q 3925 225 4600 87 
Q 5275 -50 6000 -75 
Q 5700 -400 5650 -625 
Q 4850 -525 4212 -312 
Q 3575 -100 3225 125 
Q 2800 -125 2150 -325 
Q 1500 -525 700 -675 
Q 600 -425 400 -175 
Q 950 -150 1687 12 
Q 2425 175 2825 375 
Q 2275 775 1675 1575 
Q 1350 1575 1000 1550 
L 1000 2000 
Q 1450 1975 2075 1975 
L 5200 1975 
z
M 3225 5275 
Q 3400 4900 3550 4475 
L 4675 4475 
Q 5400 4475 5975 4500 
L 5975 4025 
Q 5375 4050 4725 4050 
L 4125 4050 
L 4125 2950 
Q 4125 2550 4150 2150 
L 3600 2150 
Q 3625 2550 3625 2950 
L 3625 4050 
L 2750 4050 
L 2750 2950 
Q 2750 2675 2775 2150 
L 2225 2150 
Q 2250 2675 2250 2950 
L 2250 4050 
L 1700 4050 
Q 975 4050 425 4025 
L 425 4500 
Q 950 4475 1700 4475 
L 2975 4475 
Q 2925 4675 2700 5125 
Q 2950 5150 3225 5275 
z
M 2200 1575 
Q 2650 975 3250 600 
Q 3850 1000 4275 1575 
L 2200 1575 
z
M 4850 3750 
Q 5375 3275 5950 2675 
Q 5750 2525 5500 2300 
Q 5075 2800 4450 3400 
Q 4675 3575 4850 3750 
z
M 1825 3500 
Q 1700 3375 1425 3025 
Q 1150 2675 825 2300 
Q 575 2475 375 2600 
Q 975 3150 1300 3825 
Q 1525 3650 1825 3500 
z
" transform="scale(0.015625)"/>
       <path id="SimHei-91cf" d="M 5250 2500 
Q 5225 2200 5225 1700 
Q 5225 1225 5250 950 
L 3425 950 
L 3425 625 
L 4575 625 
Q 5000 625 5375 650 
L 5375 275 
Q 5025 300 4575 300 
L 3425 300 
L 3425 -75 
L 5125 -75 
Q 5525 -75 5925 -50 
L 5925 -425 
Q 5525 -400 5125 -400 
L 1275 -400 
Q 900 -400 475 -425 
L 475 -50 
Q 925 -50 1275 -75 
L 2975 -75 
L 2975 300 
L 1725 300 
Q 1350 300 975 250 
L 975 650 
Q 1375 625 1725 625 
L 2975 625 
L 2975 950 
L 1150 950 
Q 1175 1375 1175 1775 
Q 1175 2175 1150 2500 
L 5250 2500 
z
M 5200 4950 
Q 5175 4575 5175 4250 
Q 5175 3925 5200 3400 
L 1200 3400 
Q 1225 3925 1225 4250 
Q 1225 4575 1200 4950 
L 5200 4950 
z
M 4900 3100 
Q 5500 3125 6000 3150 
L 6000 2750 
Q 5500 2775 4925 2775 
L 1650 2775 
Q 975 2775 325 2750 
L 325 3150 
Q 975 3125 1650 3100 
L 4900 3100 
z
M 4725 3700 
L 4725 4025 
L 1675 4025 
L 1675 3700 
L 4725 3700 
z
M 4725 4350 
L 4725 4650 
L 1675 4650 
L 1675 4350 
L 4725 4350 
z
M 4750 1875 
L 4750 2175 
L 3425 2175 
L 3425 1875 
L 4750 1875 
z
M 2975 1875 
L 2975 2175 
L 1650 2175 
L 1650 1875 
L 2975 1875 
z
M 2975 1275 
L 2975 1550 
L 1650 1550 
L 1650 1275 
L 2975 1275 
z
M 4750 1275 
L 4750 1550 
L 3425 1550 
L 3425 1275 
L 4750 1275 
z
" transform="scale(0.015625)"/>
       <path id="SimHei-5747" d="M 5775 275 
Q 5775 -325 5362 -450 
Q 4950 -575 4425 -600 
Q 4375 -275 4250 25 
Q 4950 -25 5125 62 
Q 5300 150 5300 500 
L 5375 3700 
L 3550 3700 
Q 3425 3375 3262 3037 
Q 3100 2700 2925 2400 
Q 2675 2550 2475 2625 
Q 3150 3625 3500 5200 
Q 3800 5100 4075 5025 
Q 3975 4875 3875 4650 
Q 3775 4425 3675 4125 
L 5900 4125 
L 5775 275 
z
M 1250 3625 
L 1250 4375 
Q 1250 4775 1225 5100 
L 1775 5100 
Q 1750 4725 1750 4375 
L 1750 3625 
L 1900 3625 
Q 2200 3625 2525 3650 
L 2525 3150 
Q 2200 3175 1900 3175 
L 1750 3175 
L 1750 1100 
L 2500 1375 
Q 2475 1125 2525 900 
Q 1225 475 962 362 
Q 700 250 475 150 
Q 375 475 250 750 
Q 575 800 800 850 
Q 1025 900 1250 975 
L 1250 3175 
L 1125 3175 
Q 850 3175 400 3150 
L 400 3650 
Q 850 3625 1100 3625 
L 1250 3625 
z
M 4950 1625 
Q 4675 1425 4137 1050 
Q 3600 675 3175 300 
Q 3000 575 2850 775 
Q 3350 1050 3762 1325 
Q 4175 1600 4775 2075 
Q 4825 1850 4950 1625 
z
M 3775 3150 
Q 4125 2800 4475 2300 
Q 4250 2125 4100 1975 
Q 3900 2325 3450 2825 
Q 3600 3000 3775 3150 
z
" transform="scale(0.015625)"/>
       <path id="DejaVuSans-Oblique-45" d="M 1081 4666 
L 4031 4666 
L 3928 4134 
L 1606 4134 
L 1338 2753 
L 3566 2753 
L 3463 2222 
L 1234 2222 
L 909 531 
L 3284 531 
L 3181 0 
L 172 0 
L 1081 4666 
z
" transform="scale(0.015625)"/>
       <path id="DejaVuSans-28" d="M 1984 4856 
Q 1566 4138 1362 3434 
Q 1159 2731 1159 2009 
Q 1159 1288 1364 580 
Q 1569 -128 1984 -844 
L 1484 -844 
Q 1016 -109 783 600 
Q 550 1309 550 2009 
Q 550 2706 781 3412 
Q 1013 4119 1484 4856 
L 1984 4856 
z
" transform="scale(0.015625)"/>
       <path id="DejaVuSans-Oblique-42" d="M 1081 4666 
L 2694 4666 
Q 3350 4666 3675 4422 
Q 4000 4178 4000 3688 
Q 4000 3238 3720 2911 
Q 3441 2584 2988 2516 
Q 3375 2428 3569 2181 
Q 3763 1934 3763 1522 
Q 3763 819 3242 409 
Q 2722 0 1819 0 
L 172 0 
L 1081 4666 
z
M 1234 2228 
L 903 519 
L 1919 519 
Q 2491 519 2800 781 
Q 3109 1044 3109 1522 
Q 3109 1891 2904 2059 
Q 2700 2228 2247 2228 
L 1234 2228 
z
M 1606 4147 
L 1331 2741 
L 2272 2741 
Q 2775 2741 3058 2959 
Q 3341 3178 3341 3566 
Q 3341 3869 3150 4008 
Q 2959 4147 2541 4147 
L 1606 4147 
z
" transform="scale(0.015625)"/>
       <path id="DejaVuSans-2a" d="M 3009 3897 
L 1888 3291 
L 3009 2681 
L 2828 2375 
L 1778 3009 
L 1778 1831 
L 1422 1831 
L 1422 3009 
L 372 2375 
L 191 2681 
L 1313 3291 
L 191 3897 
L 372 4206 
L 1422 3572 
L 1422 4750 
L 1778 4750 
L 1778 3572 
L 2828 4206 
L 3009 3897 
z
" transform="scale(0.015625)"/>
       <path id="DejaVuSans-Oblique-69" d="M 1172 4863 
L 1747 4863 
L 1606 4134 
L 1031 4134 
L 1172 4863 
z
M 909 3500 
L 1484 3500 
L 800 0 
L 225 0 
L 909 3500 
z
" transform="scale(0.015625)"/>
       <path id="DejaVuSans-2223" d="M 1350 4934 
L 1850 4934 
L 1850 -1369 
L 1350 -1369 
L 1350 4934 
z
" transform="scale(0.015625)"/>
       <path id="DejaVuSans-Oblique-78" d="M 3841 3500 
L 2234 1784 
L 3219 0 
L 2559 0 
L 1819 1388 
L 531 0 
L -166 0 
L 1556 1844 
L 641 3500 
L 1300 3500 
L 1972 2234 
L 3144 3500 
L 3841 3500 
z
" transform="scale(0.015625)"/>
       <path id="DejaVuSans-29" d="M 513 4856 
L 1013 4856 
Q 1481 4119 1714 3412 
Q 1947 2706 1947 2009 
Q 1947 1309 1714 600 
Q 1481 -109 1013 -844 
L 513 -844 
Q 928 -128 1133 580 
Q 1338 1288 1338 2009 
Q 1338 2731 1133 3434 
Q 928 4138 513 4856 
z
" transform="scale(0.015625)"/>
      </defs>
      <use xlink:href="#SimHei-6f5c" transform="translate(0 0.701562)"/>
      <use xlink:href="#SimHei-53d8" transform="translate(100 0.701562)"/>
      <use xlink:href="#SimHei-91cf" transform="translate(200 0.701562)"/>
      <use xlink:href="#SimHei-5747" transform="translate(300 0.701562)"/>
      <use xlink:href="#SimHei-503c" transform="translate(400 0.701562)"/>
      <use xlink:href="#SimHei-20" transform="translate(500 0.701562)"/>
      <use xlink:href="#DejaVuSans-Oblique-45" transform="translate(550 0.701562)"/>
      <use xlink:href="#DejaVuSans-28" transform="translate(613.183594 0.701562)"/>
      <use xlink:href="#DejaVuSans-Oblique-42" transform="translate(652.197266 0.701562)"/>
      <use xlink:href="#DejaVuSans-2a" transform="translate(741.455247 39.046875) scale(0.7)"/>
      <use xlink:href="#DejaVuSans-Oblique-69" transform="translate(720.800781 -26.642188) scale(0.7)"/>
      <use xlink:href="#DejaVuSans-2223" transform="translate(812.30974 0.701562)"/>
      <use xlink:href="#DejaVuSans-Oblique-78" transform="translate(881.792161 0.701562)"/>
      <use xlink:href="#DejaVuSans-29" transform="translate(940.971849 0.701562)"/>
     </g>
    </g>
    <g id="line2d_26">
     <path d="M 49.111719 57.643437 
L 60.111719 57.643437 
L 71.111719 57.643437 
" style="fill: none; stroke: #ff7f0e; stroke-width: 2; stroke-linecap: square"/>
    </g>
    <g id="text_15">
     <!-- 观测金额均值 $E(B_i\mid x)$ -->
     <g transform="translate(79.911719 61.493437) scale(0.11 -0.11)">
      <defs>
       <path id="SimHei-89c2" d="M 2600 4750 
Q 2500 3900 2387 3325 
Q 2275 2750 2075 2150 
Q 2425 1625 2800 1000 
Q 2575 825 2350 625 
Q 2100 1200 1800 1675 
Q 1600 1275 1300 912 
Q 1000 550 650 175 
Q 500 375 200 625 
Q 675 950 975 1300 
Q 1275 1650 1500 2100 
Q 1075 2725 625 3200 
Q 850 3375 1025 3525 
Q 1375 3150 1725 2600 
Q 1975 3400 2075 4350 
L 1300 4350 
Q 850 4350 475 4325 
L 475 4775 
Q 825 4750 1275 4750 
L 2600 4750 
z
M 4775 225 
Q 4775 0 4887 -25 
Q 5000 -50 5225 -50 
Q 5475 -50 5537 37 
Q 5600 125 5650 675 
Q 5875 525 6175 450 
Q 6025 -300 5850 -400 
Q 5675 -500 5400 -500 
L 4825 -500 
Q 4525 -500 4425 -325 
Q 4325 -150 4325 50 
L 4325 1600 
Q 4200 1125 3900 687 
Q 3600 250 3187 -87 
Q 2775 -425 2325 -650 
Q 2225 -400 1925 -150 
Q 2625 25 3087 475 
Q 3550 925 3737 1425 
Q 3925 1925 3962 2562 
Q 4000 3200 3975 3875 
Q 4325 3825 4550 3800 
Q 4450 3400 4425 2750 
Q 4400 2100 4325 1700 
L 4825 1700 
Q 4800 1550 4775 1025 
L 4775 225 
z
M 5700 5050 
Q 5675 4650 5675 3350 
Q 5675 2050 5700 1575 
L 5200 1575 
L 5200 4650 
L 3450 4650 
L 3450 1550 
L 2950 1550 
Q 2975 2150 2975 3300 
Q 2975 4475 2950 5050 
L 5700 5050 
z
" transform="scale(0.015625)"/>
       <path id="SimHei-6d4b" d="M 4025 4725 
Q 4000 4475 4000 4000 
L 4000 2225 
Q 4000 1775 4025 1350 
L 3550 1350 
L 3550 4325 
L 2350 4325 
L 2350 1325 
L 1900 1325 
Q 1925 1775 1925 2225 
L 1925 4000 
Q 1925 4200 1900 4725 
L 4025 4725 
z
M 5900 5075 
Q 5875 4800 5875 4375 
L 5875 0 
Q 5875 -325 5650 -425 
Q 5425 -525 4975 -600 
Q 4925 -325 4775 -50 
Q 5125 -50 5262 -25 
Q 5400 0 5400 250 
L 5400 4375 
Q 5400 4775 5375 5075 
L 5900 5075 
z
M 3275 3725 
Q 3225 3400 3200 2325 
Q 3175 1250 2837 550 
Q 2500 -150 2075 -600 
Q 1850 -400 1600 -325 
Q 2200 250 2475 962 
Q 2750 1675 2762 2475 
Q 2775 3275 2725 3800 
Q 3000 3750 3275 3725 
z
M 4950 4275 
Q 4925 4000 4925 3575 
L 4925 1825 
Q 4925 1300 4950 850 
L 4450 850 
Q 4475 1150 4475 1825 
L 4475 3575 
Q 4475 4000 4450 4275 
L 4950 4275 
z
M 1700 1675 
Q 1375 1075 1112 487 
Q 850 -100 725 -400 
Q 500 -200 200 -25 
Q 475 300 762 850 
Q 1050 1400 1250 2000 
Q 1475 1825 1700 1675 
z
M 3400 1050 
Q 3800 650 4300 -125 
Q 4100 -225 3875 -450 
Q 3475 275 3025 750 
Q 3225 875 3400 1050 
z
M 600 3525 
Q 1125 3125 1500 2775 
Q 1300 2575 1150 2375 
Q 825 2775 300 3150 
Q 450 3300 600 3525 
z
M 1350 4000 
Q 950 4375 475 4675 
Q 625 4850 775 5050 
Q 1300 4700 1675 4375 
Q 1500 4250 1350 4000 
z
" transform="scale(0.015625)"/>
       <path id="SimHei-91d1" d="M 1800 1250 
Q 2200 700 2500 225 
Q 2325 125 2150 -50 
L 2925 -50 
L 2925 1400 
L 2075 1400 
Q 1725 1400 1100 1375 
L 1100 1850 
Q 1725 1825 2050 1825 
L 2925 1825 
L 2925 2600 
Q 2100 2600 1625 2575 
L 1625 2975 
Q 1225 2675 650 2350 
Q 500 2575 275 2775 
Q 750 2950 1250 3300 
Q 1750 3650 2225 4162 
Q 2700 4675 3000 5250 
Q 3050 5200 3525 4975 
L 3375 4825 
Q 3650 4525 4050 4150 
Q 4450 3775 5000 3487 
Q 5550 3200 6150 3025 
Q 5950 2825 5825 2550 
Q 5325 2725 4800 3000 
L 4800 2575 
Q 4300 2600 4000 2600 
L 3400 2600 
L 3400 1825 
L 4275 1825 
Q 4700 1825 5325 1850 
L 5325 1375 
Q 4725 1400 4275 1400 
L 3400 1400 
L 3400 -50 
L 3875 -50 
Q 4450 950 4500 1300 
Q 4725 1150 5050 1000 
Q 4875 775 4375 -50 
Q 5150 -50 5875 -25 
L 5875 -500 
Q 5150 -475 4700 -475 
L 1725 -475 
Q 1200 -475 700 -500 
L 700 -25 
Q 1225 -50 1725 -50 
L 2025 -50 
Q 1850 350 1400 950 
Q 1625 1100 1800 1250 
z
M 1700 3050 
Q 2075 3025 2400 3025 
L 3900 3025 
Q 4275 3050 4700 3050 
Q 4275 3350 3837 3762 
Q 3400 4175 3125 4525 
Q 2850 4150 2462 3762 
Q 2075 3375 1700 3050 
z
" transform="scale(0.015625)"/>
       <path id="SimHei-989d" d="M 1925 3700 
Q 1725 3550 1550 3350 
L 2950 3350 
Q 2875 3150 2700 2875 
Q 2525 2600 2300 2300 
Q 2500 2200 2712 2075 
Q 2925 1950 3275 1725 
Q 3125 1575 2950 1325 
Q 2700 1525 2475 1662 
Q 2250 1800 1950 1950 
Q 1575 1650 1150 1375 
L 2800 1375 
Q 2775 950 2775 500 
Q 2775 50 2800 -450 
L 2325 -450 
L 2325 -50 
L 1325 -50 
L 1325 -575 
L 875 -575 
Q 900 -75 900 275 
L 900 1175 
Q 675 1075 550 1000 
Q 400 1225 225 1400 
Q 625 1550 975 1762 
Q 1325 1975 1550 2200 
Q 1300 2350 1075 2475 
Q 1175 2625 1350 2800 
Q 1625 2650 1925 2500 
Q 2150 2750 2300 3000 
L 1300 3000 
Q 1200 2875 1025 2687 
Q 850 2500 650 2275 
Q 475 2425 250 2575 
Q 650 2875 937 3237 
Q 1225 3600 1375 3925 
Q 1650 3800 1925 3700 
z
M 4150 4400 
Q 3775 4400 3375 4375 
L 3375 4825 
Q 3750 4800 4200 4800 
L 5300 4800 
Q 5600 4800 6000 4825 
L 6000 4375 
Q 5625 4400 5300 4400 
L 4950 4400 
Q 4850 3975 4725 3525 
L 5750 3525 
Q 5725 3125 5725 2775 
L 5725 1625 
Q 5725 1300 5750 825 
L 5300 825 
L 5300 3175 
L 3925 3175 
L 3925 800 
L 3450 800 
Q 3475 1275 3475 1650 
L 3475 2800 
Q 3475 3175 3450 3525 
L 4300 3525 
Q 4400 4025 4450 4400 
L 4150 4400 
z
M 2050 5100 
Q 2100 4825 2200 4475 
L 3225 4475 
Q 3200 4275 3200 4075 
Q 3200 3875 3225 3675 
L 2775 3675 
L 2775 4100 
L 875 4100 
L 875 3500 
L 400 3500 
Q 425 3775 425 4000 
Q 425 4250 400 4475 
L 1650 4475 
Q 1550 4750 1475 5000 
Q 1800 5050 2050 5100 
z
M 4925 2725 
Q 4850 2425 4837 2025 
Q 4825 1625 4712 1175 
Q 4600 725 4262 250 
Q 3925 -225 3250 -675 
Q 3050 -425 2850 -250 
Q 3375 -25 3687 262 
Q 4000 550 4162 937 
Q 4325 1325 4350 1750 
Q 4375 2175 4375 2775 
Q 4575 2750 4925 2725 
z
M 2325 325 
L 2325 1025 
L 1325 1025 
L 1325 325 
L 2325 325 
z
M 5075 800 
Q 5300 575 5487 400 
Q 5675 225 6025 -100 
Q 5800 -275 5600 -500 
Q 5450 -275 5275 -87 
Q 5100 100 4675 400 
Q 4875 575 5075 800 
z
" transform="scale(0.015625)"/>
      </defs>
      <use xlink:href="#SimHei-89c2" transform="translate(0 0.96875)"/>
      <use xlink:href="#SimHei-6d4b" transform="translate(100 0.96875)"/>
      <use xlink:href="#SimHei-91d1" transform="translate(200 0.96875)"/>
      <use xlink:href="#SimHei-989d" transform="translate(300 0.96875)"/>
      <use xlink:href="#SimHei-5747" transform="translate(400 0.96875)"/>
      <use xlink:href="#SimHei-503c" transform="translate(500 0.96875)"/>
      <use xlink:href="#SimHei-20" transform="translate(600 0.96875)"/>
      <use xlink:href="#DejaVuSans-Oblique-45" transform="translate(650 0.96875)"/>
      <use xlink:href="#DejaVuSans-28" transform="translate(713.183594 0.96875)"/>
      <use xlink:href="#DejaVuSans-Oblique-42" transform="translate(752.197266 0.96875)"/>
      <use xlink:href="#DejaVuSans-Oblique-69" transform="translate(820.800781 -15.4375) scale(0.7)"/>
      <use xlink:href="#DejaVuSans-2223" transform="translate(862.46582 0.96875)"/>
      <use xlink:href="#DejaVuSans-Oblique-78" transform="translate(931.948242 0.96875)"/>
      <use xlink:href="#DejaVuSans-29" transform="translate(991.12793 0.96875)"/>
     </g>
    </g>
    <g id="line2d_27">
     <path d="M 49.111719 74.693437 
L 60.111719 74.693437 
L 71.111719 74.693437 
" style="fill: none; stroke: #2ca02c; stroke-width: 2; stroke-linecap: square"/>
    </g>
    <g id="text_16">
     <!-- 正值条件均值 $E(B_i\mid B_i&gt;0,x)$ -->
     <g transform="translate(79.911719 78.543437) scale(0.11 -0.11)">
      <defs>
       <path id="SimHei-6b63" d="M 4825 4625 
Q 5300 4625 5675 4650 
L 5675 4150 
Q 5300 4175 4775 4175 
L 3575 4175 
L 3575 2600 
L 4850 2600 
Q 5250 2600 5550 2625 
L 5550 2150 
Q 5250 2175 4850 2175 
L 3575 2175 
L 3575 150 
L 4850 150 
Q 5375 150 5900 175 
L 5900 -325 
Q 5375 -300 4975 -300 
L 1175 -300 
Q 700 -300 375 -325 
L 375 175 
Q 700 150 1175 150 
L 1325 150 
L 1325 2350 
Q 1325 2800 1300 3125 
L 1875 3125 
Q 1850 2825 1850 2350 
L 1850 150 
L 3075 150 
L 3075 4175 
L 1625 4175 
Q 1150 4175 800 4150 
L 800 4650 
Q 1150 4625 1625 4625 
L 4825 4625 
z
" transform="scale(0.015625)"/>
       <path id="SimHei-6761" d="M 2700 5075 
Q 2600 5000 2400 4700 
L 5225 4700 
Q 4975 4300 4625 3875 
Q 4275 3450 3750 3050 
Q 4100 2850 4750 2687 
Q 5400 2525 6200 2525 
Q 5950 2275 5925 2000 
Q 5000 2100 4387 2300 
Q 3775 2500 3275 2825 
Q 2500 2375 1837 2175 
Q 1175 1975 575 1850 
Q 500 2125 275 2300 
Q 1250 2400 1912 2625 
Q 2575 2850 2825 3075 
Q 2400 3425 1925 3975 
Q 1600 3550 1150 3075 
Q 925 3300 725 3350 
Q 1225 3775 1625 4350 
Q 2025 4925 2125 5300 
Q 2525 5125 2700 5075 
z
M 2950 1775 
Q 2950 2000 2925 2400 
L 3475 2400 
Q 3450 1975 3450 1775 
L 4500 1775 
Q 5025 1775 5550 1800 
L 5550 1325 
Q 5025 1350 4525 1350 
L 3450 1350 
L 3450 -50 
Q 3475 -575 2450 -625 
Q 2375 -375 2225 -75 
Q 2975 -150 2950 200 
L 2950 1350 
L 1850 1350 
Q 1350 1350 825 1325 
L 825 1800 
Q 1350 1775 1850 1775 
L 2950 1775 
z
M 3300 3300 
Q 4025 3775 4325 4275 
L 2250 4275 
Q 2700 3675 3300 3300 
z
M 4200 1000 
Q 4950 575 5800 0 
Q 5650 -175 5500 -400 
Q 5150 -150 4787 100 
Q 4425 350 3925 600 
Q 4075 775 4200 1000 
z
M 2375 700 
Q 2275 600 1800 250 
Q 1325 -100 850 -400 
Q 700 -200 500 -50 
Q 825 100 1287 437 
Q 1750 775 1950 1050 
L 2375 700 
z
" transform="scale(0.015625)"/>
       <path id="SimHei-4ef6" d="M 3275 4475 
Q 3150 4375 2925 3775 
L 3900 3775 
L 3900 4275 
Q 3900 4900 3875 5125 
L 4400 5125 
Q 4375 4925 4375 4300 
L 4375 3775 
L 5125 3775 
Q 5450 3775 5725 3800 
L 5725 3325 
Q 5450 3350 5125 3350 
L 4375 3350 
L 4375 2000 
L 5200 2000 
Q 5575 2000 6100 2025 
L 6100 1550 
Q 5675 1575 5175 1575 
L 4375 1575 
L 4375 275 
Q 4375 -100 4400 -550 
L 3875 -550 
Q 3900 -100 3900 275 
L 3900 1575 
L 2925 1575 
Q 2500 1575 1925 1550 
L 1925 2025 
Q 2475 2000 2825 2000 
L 3900 2000 
L 3900 3350 
L 2775 3350 
Q 2700 3150 2350 2425 
Q 2275 2500 1900 2650 
Q 2150 3025 2350 3500 
Q 2550 3975 2700 4700 
Q 2900 4575 3275 4475 
z
M 1150 3200 
Q 900 2825 550 2375 
Q 425 2625 200 2750 
Q 650 3200 1025 3850 
Q 1400 4500 1650 5250 
Q 1950 5050 2175 4975 
Q 2000 4825 1625 4025 
L 1625 625 
Q 1625 -175 1650 -575 
L 1125 -575 
Q 1150 -225 1150 600 
L 1150 3200 
z
" transform="scale(0.015625)"/>
       <path id="DejaVuSans-3e" d="M 678 3150 
L 678 3719 
L 4684 2266 
L 4684 1747 
L 678 294 
L 678 863 
L 3897 2003 
L 678 3150 
z
" transform="scale(0.015625)"/>
       <path id="DejaVuSans-30" d="M 2034 4250 
Q 1547 4250 1301 3770 
Q 1056 3291 1056 2328 
Q 1056 1369 1301 889 
Q 1547 409 2034 409 
Q 2525 409 2770 889 
Q 3016 1369 3016 2328 
Q 3016 3291 2770 3770 
Q 2525 4250 2034 4250 
z
M 2034 4750 
Q 2819 4750 3233 4129 
Q 3647 3509 3647 2328 
Q 3647 1150 3233 529 
Q 2819 -91 2034 -91 
Q 1250 -91 836 529 
Q 422 1150 422 2328 
Q 422 3509 836 4129 
Q 1250 4750 2034 4750 
z
" transform="scale(0.015625)"/>
       <path id="DejaVuSans-2c" d="M 750 794 
L 1409 794 
L 1409 256 
L 897 -744 
L 494 -744 
L 750 256 
L 750 794 
z
" transform="scale(0.015625)"/>
      </defs>
      <use xlink:href="#SimHei-6b63" transform="translate(0 0.1875)"/>
      <use xlink:href="#SimHei-503c" transform="translate(100 0.1875)"/>
      <use xlink:href="#SimHei-6761" transform="translate(200 0.1875)"/>
      <use xlink:href="#SimHei-4ef6" transform="translate(300 0.1875)"/>
      <use xlink:href="#SimHei-5747" transform="translate(400 0.1875)"/>
      <use xlink:href="#SimHei-503c" transform="translate(500 0.1875)"/>
      <use xlink:href="#SimHei-20" transform="translate(600 0.1875)"/>
      <use xlink:href="#DejaVuSans-Oblique-45" transform="translate(650 0.1875)"/>
      <use xlink:href="#DejaVuSans-28" transform="translate(713.183594 0.1875)"/>
      <use xlink:href="#DejaVuSans-Oblique-42" transform="translate(752.197266 0.1875)"/>
      <use xlink:href="#DejaVuSans-Oblique-69" transform="translate(820.800781 -16.21875) scale(0.7)"/>
      <use xlink:href="#DejaVuSans-2223" transform="translate(862.46582 0.1875)"/>
      <use xlink:href="#DejaVuSans-Oblique-42" transform="translate(931.948242 0.1875)"/>
      <use xlink:href="#DejaVuSans-Oblique-69" transform="translate(1000.551758 -16.21875) scale(0.7)"/>
      <use xlink:href="#DejaVuSans-3e" transform="translate(1042.216797 0.1875)"/>
      <use xlink:href="#DejaVuSans-30" transform="translate(1145.488281 0.1875)"/>
      <use xlink:href="#DejaVuSans-2c" transform="translate(1209.111328 0.1875)"/>
      <use xlink:href="#DejaVuSans-Oblique-78" transform="translate(1260.380859 0.1875)"/>
      <use xlink:href="#DejaVuSans-29" transform="translate(1319.560547 0.1875)"/>
     </g>
    </g>
   </g>
  </g>
 </g>
 <defs>
  <clipPath id="p40570f047c">
   <rect x="39.211719" y="23.873437" width="520.1275" height="288.835"/>
  </clipPath>
 </defs>
</svg>
