<?xml version="1.0" encoding="utf-8" standalone="no"?>
<!DOCTYPE svg PUBLIC "-//W3C//DTD SVG 1.1//EN"
  "http://www.w3.org/Graphics/SVG/1.1/DTD/svg11.dtd">
<svg xmlns:xlink="http://www.w3.org/1999/xlink" width="508.926562pt" height="306.961563pt" viewBox="0 0 508.926562 306.961563" xmlns="http://www.w3.org/2000/svg" version="1.1">
 <metadata>
  <rdf:RDF xmlns:dc="http://purl.org/dc/elements/1.1/" xmlns:cc="http://creativecommons.org/ns#" xmlns:rdf="http://www.w3.org/1999/02/22-rdf-syntax-ns#">
   <cc:Work>
    <dc:type rdf:resource="http://purl.org/dc/dcmitype/StillImage"/>
    <dc:date>2026-04-30T00:54:37.020837</dc:date>
    <dc:format>image/svg+xml</dc:format>
    <dc:creator>
     <cc:Agent>
      <dc:title>Matplotlib v3.10.8, https://matplotlib.org/</dc:title>
     </cc:Agent>
    </dc:creator>
   </cc:Work>
  </rdf:RDF>
 </metadata>
 <defs>
  <style type="text/css">*{stroke-linejoin: round; stroke-linecap: butt}</style>
 </defs>
 <g id="figure_1">
  <g id="patch_1">
   <path d="M 0 306.961563 
L 508.926562 306.961563 
L 508.926562 0 
L 0 0 
z
" style="fill: #ffffff"/>
  </g>
  <g id="axes_1">
   <g id="patch_2">
    <path d="M 33.926563 269.5975 
L 501.726562 269.5975 
L 501.726562 23.925 
L 33.926563 23.925 
z
" style="fill: #ffffff"/>
   </g>
   <g id="patch_3">
    <path d="M 55.190199 269.5975 
L 67.340848 269.5975 
L 67.340848 35.62369 
L 55.190199 35.62369 
z
" clip-path="url(#p5e672cc998)" style="fill: #1f77b4; opacity: 0.75"/>
   </g>
   <g id="patch_4">
    <path d="M 67.340848 269.5975 
L 79.491498 269.5975 
L 79.491498 257.660061 
L 67.340848 257.660061 
z
" clip-path="url(#p5e672cc998)" style="fill: #1f77b4; opacity: 0.75"/>
   </g>
   <g id="patch_5">
    <path d="M 79.491498 269.5975 
L 91.642147 269.5975 
L 91.642147 256.167881 
L 79.491498 256.167881 
z
" clip-path="url(#p5e672cc998)" style="fill: #1f77b4; opacity: 0.75"/>
   </g>
   <g id="patch_6">
    <path d="M 91.642147 269.5975 
L 103.792796 269.5975 
L 103.792796 258.406151 
L 91.642147 258.406151 
z
" clip-path="url(#p5e672cc998)" style="fill: #1f77b4; opacity: 0.75"/>
   </g>
   <g id="patch_7">
    <path d="M 103.792796 269.5975 
L 115.943446 269.5975 
L 115.943446 257.958497 
L 103.792796 257.958497 
z
" clip-path="url(#p5e672cc998)" style="fill: #1f77b4; opacity: 0.75"/>
   </g>
   <g id="patch_8">
    <path d="M 115.943446 269.5975 
L 128.094095 269.5975 
L 128.094095 260.793639 
L 115.943446 260.793639 
z
" clip-path="url(#p5e672cc998)" style="fill: #1f77b4; opacity: 0.75"/>
   </g>
   <g id="patch_9">
    <path d="M 128.094095 269.5975 
L 140.244744 269.5975 
L 140.244744 260.495203 
L 128.094095 260.495203 
z
" clip-path="url(#p5e672cc998)" style="fill: #1f77b4; opacity: 0.75"/>
   </g>
   <g id="patch_10">
    <path d="M 140.244744 269.5975 
L 152.395394 269.5975 
L 152.395394 262.435036 
L 140.244744 262.435036 
z
" clip-path="url(#p5e672cc998)" style="fill: #1f77b4; opacity: 0.75"/>
   </g>
   <g id="patch_11">
    <path d="M 152.395394 269.5975 
L 164.546043 269.5975 
L 164.546043 262.584254 
L 152.395394 262.584254 
z
" clip-path="url(#p5e672cc998)" style="fill: #1f77b4; opacity: 0.75"/>
   </g>
   <g id="patch_12">
    <path d="M 164.546043 269.5975 
L 176.696692 269.5975 
L 176.696692 261.390511 
L 164.546043 261.390511 
z
" clip-path="url(#p5e672cc998)" style="fill: #1f77b4; opacity: 0.75"/>
   </g>
   <g id="patch_13">
    <path d="M 176.696692 269.5975 
L 188.847342 269.5975 
L 188.847342 261.688946 
L 176.696692 261.688946 
z
" clip-path="url(#p5e672cc998)" style="fill: #1f77b4; opacity: 0.75"/>
   </g>
   <g id="patch_14">
    <path d="M 188.847342 269.5975 
L 200.997991 269.5975 
L 200.997991 264.37487 
L 188.847342 264.37487 
z
" clip-path="url(#p5e672cc998)" style="fill: #1f77b4; opacity: 0.75"/>
   </g>
   <g id="patch_15">
    <path d="M 200.997991 269.5975 
L 213.14864 269.5975 
L 213.14864 263.62878 
L 200.997991 263.62878 
z
" clip-path="url(#p5e672cc998)" style="fill: #1f77b4; opacity: 0.75"/>
   </g>
   <g id="patch_16">
    <path d="M 213.14864 269.5975 
L 225.29929 269.5975 
L 225.29929 264.822524 
L 213.14864 264.822524 
z
" clip-path="url(#p5e672cc998)" style="fill: #1f77b4; opacity: 0.75"/>
   </g>
   <g id="patch_17">
    <path d="M 225.29929 269.5975 
L 237.449939 269.5975 
L 237.449939 265.12096 
L 225.29929 265.12096 
z
" clip-path="url(#p5e672cc998)" style="fill: #1f77b4; opacity: 0.75"/>
   </g>
   <g id="patch_18">
    <path d="M 237.449939 269.5975 
L 249.600588 269.5975 
L 249.600588 266.165486 
L 237.449939 266.165486 
z
" clip-path="url(#p5e672cc998)" style="fill: #1f77b4; opacity: 0.75"/>
   </g>
   <g id="patch_19">
    <path d="M 249.600588 269.5975 
L 261.751238 269.5975 
L 261.751238 267.060794 
L 249.600588 267.060794 
z
" clip-path="url(#p5e672cc998)" style="fill: #1f77b4; opacity: 0.75"/>
   </g>
   <g id="patch_20">
    <path d="M 261.751238 269.5975 
L 273.901887 269.5975 
L 273.901887 266.314704 
L 261.751238 266.314704 
z
" clip-path="url(#p5e672cc998)" style="fill: #1f77b4; opacity: 0.75"/>
   </g>
   <g id="patch_21">
    <path d="M 273.901887 269.5975 
L 286.052537 269.5975 
L 286.052537 266.61314 
L 273.901887 266.61314 
z
" clip-path="url(#p5e672cc998)" style="fill: #1f77b4; opacity: 0.75"/>
   </g>
   <g id="patch_22">
    <path d="M 286.052537 269.5975 
L 298.203186 269.5975 
L 298.203186 266.911576 
L 286.052537 266.911576 
z
" clip-path="url(#p5e672cc998)" style="fill: #1f77b4; opacity: 0.75"/>
   </g>
   <g id="patch_23">
    <path d="M 298.203186 269.5975 
L 310.353835 269.5975 
L 310.353835 267.956102 
L 298.203186 267.956102 
z
" clip-path="url(#p5e672cc998)" style="fill: #1f77b4; opacity: 0.75"/>
   </g>
   <g id="patch_24">
    <path d="M 310.353835 269.5975 
L 322.504485 269.5975 
L 322.504485 268.702192 
L 310.353835 268.702192 
z
" clip-path="url(#p5e672cc998)" style="fill: #1f77b4; opacity: 0.75"/>
   </g>
   <g id="patch_25">
    <path d="M 322.504485 269.5975 
L 334.655134 269.5975 
L 334.655134 268.702192 
L 322.504485 268.702192 
z
" clip-path="url(#p5e672cc998)" style="fill: #1f77b4; opacity: 0.75"/>
   </g>
   <g id="patch_26">
    <path d="M 334.655134 269.5975 
L 346.805783 269.5975 
L 346.805783 269.149846 
L 334.655134 269.149846 
z
" clip-path="url(#p5e672cc998)" style="fill: #1f77b4; opacity: 0.75"/>
   </g>
   <g id="patch_27">
    <path d="M 346.805783 269.5975 
L 358.956433 269.5975 
L 358.956433 268.552974 
L 346.805783 268.552974 
z
" clip-path="url(#p5e672cc998)" style="fill: #1f77b4; opacity: 0.75"/>
   </g>
   <g id="patch_28">
    <path d="M 358.956433 269.5975 
L 371.107082 269.5975 
L 371.107082 269.299064 
L 358.956433 269.299064 
z
" clip-path="url(#p5e672cc998)" style="fill: #1f77b4; opacity: 0.75"/>
   </g>
   <g id="patch_29">
    <path d="M 371.107082 269.5975 
L 383.257731 269.5975 
L 383.257731 268.702192 
L 371.107082 268.702192 
z
" clip-path="url(#p5e672cc998)" style="fill: #1f77b4; opacity: 0.75"/>
   </g>
   <g id="patch_30">
    <path d="M 383.257731 269.5975 
L 395.408381 269.5975 
L 395.408381 269.5975 
L 383.257731 269.5975 
z
" clip-path="url(#p5e672cc998)" style="fill: #1f77b4; opacity: 0.75"/>
   </g>
   <g id="patch_31">
    <path d="M 395.408381 269.5975 
L 407.55903 269.5975 
L 407.55903 269.299064 
L 395.408381 269.299064 
z
" clip-path="url(#p5e672cc998)" style="fill: #1f77b4; opacity: 0.75"/>
   </g>
   <g id="patch_32">
    <path d="M 407.55903 269.5975 
L 419.709679 269.5975 
L 419.709679 269.448282 
L 407.55903 269.448282 
z
" clip-path="url(#p5e672cc998)" style="fill: #1f77b4; opacity: 0.75"/>
   </g>
   <g id="patch_33">
    <path d="M 419.709679 269.5975 
L 431.860329 269.5975 
L 431.860329 269.149846 
L 419.709679 269.149846 
z
" clip-path="url(#p5e672cc998)" style="fill: #1f77b4; opacity: 0.75"/>
   </g>
   <g id="patch_34">
    <path d="M 431.860329 269.5975 
L 444.010978 269.5975 
L 444.010978 269.5975 
L 431.860329 269.5975 
z
" clip-path="url(#p5e672cc998)" style="fill: #1f77b4; opacity: 0.75"/>
   </g>
   <g id="patch_35">
    <path d="M 444.010978 269.5975 
L 456.161627 269.5975 
L 456.161627 269.5975 
L 444.010978 269.5975 
z
" clip-path="url(#p5e672cc998)" style="fill: #1f77b4; opacity: 0.75"/>
   </g>
   <g id="patch_36">
    <path d="M 456.161627 269.5975 
L 468.312277 269.5975 
L 468.312277 269.5975 
L 456.161627 269.5975 
z
" clip-path="url(#p5e672cc998)" style="fill: #1f77b4; opacity: 0.75"/>
   </g>
   <g id="patch_37">
    <path d="M 468.312277 269.5975 
L 480.462926 269.5975 
L 480.462926 269.299064 
L 468.312277 269.299064 
z
" clip-path="url(#p5e672cc998)" style="fill: #1f77b4; opacity: 0.75"/>
   </g>
   <g id="matplotlib.axis_1">
    <g id="xtick_1">
     <g id="line2d_1">
      <path d="M 55.190199 269.5975 
L 55.190199 23.925 
" clip-path="url(#p5e672cc998)" style="fill: none; stroke: #b0b0b0; stroke-opacity: 0.25; stroke-width: 0.8; stroke-linecap: square"/>
     </g>
     <g id="line2d_2">
      <defs>
       <path id="m8bba552de3" d="M 0 0 
L 0 3.5 
" style="stroke: #000000; stroke-width: 0.8"/>
      </defs>
      <g>
       <use xlink:href="#m8bba552de3" x="55.190199" y="269.5975" style="stroke: #000000; stroke-width: 0.8"/>
      </g>
     </g>
     <g id="text_1">
      <!-- 0.0 -->
      <g transform="translate(46.940199 284.16) scale(0.11 -0.11)">
       <defs>
        <path id="SimHei-30" d="M 225 2537 
Q 250 3200 412 3587 
Q 575 3975 875 4225 
Q 1175 4475 1612 4475 
Q 2050 4475 2375 4112 
Q 2700 3750 2800 3200 
Q 2900 2650 2862 1937 
Q 2825 1225 2612 775 
Q 2400 325 1975 150 
Q 1550 -25 1125 187 
Q 700 400 525 750 
Q 350 1100 275 1487 
Q 200 1875 225 2537 
z
M 750 2687 
Q 675 2000 800 1462 
Q 925 925 1212 700 
Q 1500 475 1800 612 
Q 2100 750 2237 1162 
Q 2375 1575 2375 2062 
Q 2375 2550 2337 2950 
Q 2300 3350 2112 3675 
Q 1925 4000 1612 4012 
Q 1300 4025 1062 3700 
Q 825 3375 750 2687 
z
" transform="scale(0.015625)"/>
        <path id="SimHei-2e" d="M 1075 125 
L 500 125 
L 500 675 
L 1075 675 
L 1075 125 
z
" transform="scale(0.015625)"/>
       </defs>
       <use xlink:href="#SimHei-30"/>
       <use xlink:href="#SimHei-2e" transform="translate(50 0)"/>
       <use xlink:href="#SimHei-30" transform="translate(100 0)"/>
      </g>
     </g>
    </g>
    <g id="xtick_2">
     <g id="line2d_3">
      <path d="M 144.744872 269.5975 
L 144.744872 23.925 
" clip-path="url(#p5e672cc998)" style="fill: none; stroke: #b0b0b0; stroke-opacity: 0.25; stroke-width: 0.8; stroke-linecap: square"/>
     </g>
     <g id="line2d_4">
      <g>
       <use xlink:href="#m8bba552de3" x="144.744872" y="269.5975" style="stroke: #000000; stroke-width: 0.8"/>
      </g>
     </g>
     <g id="text_2">
      <!-- 0.5 -->
      <g transform="translate(136.494872 284.16) scale(0.11 -0.11)">
       <defs>
        <path id="SimHei-35" d="M 550 1325 
Q 725 650 1150 575 
Q 1575 500 1837 662 
Q 2100 825 2212 1087 
Q 2325 1350 2312 1675 
Q 2300 2000 2137 2225 
Q 1975 2450 1725 2525 
Q 1475 2600 1162 2525 
Q 850 2450 650 2175 
L 225 2225 
Q 275 2375 700 4375 
L 2675 4375 
L 2675 3925 
L 1075 3925 
Q 950 3250 825 2850 
Q 1200 3025 1525 3012 
Q 1850 3000 2150 2862 
Q 2450 2725 2587 2487 
Q 2725 2250 2787 2012 
Q 2850 1775 2837 1500 
Q 2825 1225 2725 937 
Q 2625 650 2425 462 
Q 2225 275 1937 162 
Q 1650 50 1275 75 
Q 900 100 562 350 
Q 225 600 100 1200 
L 550 1325 
z
" transform="scale(0.015625)"/>
       </defs>
       <use xlink:href="#SimHei-30"/>
       <use xlink:href="#SimHei-2e" transform="translate(50 0)"/>
       <use xlink:href="#SimHei-35" transform="translate(100 0)"/>
      </g>
     </g>
    </g>
    <g id="xtick_3">
     <g id="line2d_5">
      <path d="M 234.299545 269.5975 
L 234.299545 23.925 
" clip-path="url(#p5e672cc998)" style="fill: none; stroke: #b0b0b0; stroke-opacity: 0.25; stroke-width: 0.8; stroke-linecap: square"/>
     </g>
     <g id="line2d_6">
      <g>
       <use xlink:href="#m8bba552de3" x="234.299545" y="269.5975" style="stroke: #000000; stroke-width: 0.8"/>
      </g>
     </g>
     <g id="text_3">
      <!-- 1.0 -->
      <g transform="translate(226.049545 284.16) scale(0.11 -0.11)">
       <defs>
        <path id="SimHei-31" d="M 1400 3600 
Q 1075 3275 575 2975 
L 575 3450 
Q 1200 3875 1600 4450 
L 1900 4450 
L 1900 150 
L 1400 150 
L 1400 3600 
z
" transform="scale(0.015625)"/>
       </defs>
       <use xlink:href="#SimHei-31"/>
       <use xlink:href="#SimHei-2e" transform="translate(50 0)"/>
       <use xlink:href="#SimHei-30" transform="translate(100 0)"/>
      </g>
     </g>
    </g>
    <g id="xtick_4">
     <g id="line2d_7">
      <path d="M 323.854218 269.5975 
L 323.854218 23.925 
" clip-path="url(#p5e672cc998)" style="fill: none; stroke: #b0b0b0; stroke-opacity: 0.25; stroke-width: 0.8; stroke-linecap: square"/>
     </g>
     <g id="line2d_8">
      <g>
       <use xlink:href="#m8bba552de3" x="323.854218" y="269.5975" style="stroke: #000000; stroke-width: 0.8"/>
      </g>
     </g>
     <g id="text_4">
      <!-- 1.5 -->
      <g transform="translate(315.604218 284.16) scale(0.11 -0.11)">
       <use xlink:href="#SimHei-31"/>
       <use xlink:href="#SimHei-2e" transform="translate(50 0)"/>
       <use xlink:href="#SimHei-35" transform="translate(100 0)"/>
      </g>
     </g>
    </g>
    <g id="xtick_5">
     <g id="line2d_9">
      <path d="M 413.408891 269.5975 
L 413.408891 23.925 
" clip-path="url(#p5e672cc998)" style="fill: none; stroke: #b0b0b0; stroke-opacity: 0.25; stroke-width: 0.8; stroke-linecap: square"/>
     </g>
     <g id="line2d_10">
      <g>
       <use xlink:href="#m8bba552de3" x="413.408891" y="269.5975" style="stroke: #000000; stroke-width: 0.8"/>
      </g>
     </g>
     <g id="text_5">
      <!-- 2.0 -->
      <g transform="translate(405.158891 284.16) scale(0.11 -0.11)">
       <defs>
        <path id="SimHei-32" d="M 300 250 
Q 325 625 650 925 
Q 975 1225 1475 1862 
Q 1975 2500 2125 2850 
Q 2275 3200 2237 3450 
Q 2200 3700 2000 3862 
Q 1800 4025 1537 4000 
Q 1275 3975 1037 3800 
Q 800 3625 675 3275 
L 200 3350 
Q 400 3925 712 4187 
Q 1025 4450 1450 4475 
Q 1700 4500 1900 4462 
Q 2100 4425 2312 4287 
Q 2525 4150 2662 3875 
Q 2800 3600 2762 3212 
Q 2725 2825 2375 2287 
Q 2025 1750 1025 600 
L 2825 600 
L 2825 150 
L 300 150 
L 300 250 
z
" transform="scale(0.015625)"/>
       </defs>
       <use xlink:href="#SimHei-32"/>
       <use xlink:href="#SimHei-2e" transform="translate(50 0)"/>
       <use xlink:href="#SimHei-30" transform="translate(100 0)"/>
      </g>
     </g>
    </g>
    <g id="text_6">
     <!-- 研发投入强度 rd -->
     <g transform="translate(226.576563 298.386563) scale(0.11 -0.11)">
      <defs>
       <path id="SimHei-7814" d="M 5125 5025 
Q 5600 5025 5900 5050 
L 5900 4600 
Q 5550 4625 5275 4625 
L 5275 2775 
Q 5775 2775 6100 2800 
L 6100 2300 
Q 5750 2325 5275 2325 
L 5275 325 
Q 5275 -100 5300 -675 
L 4800 -675 
Q 4825 150 4825 450 
L 4825 2325 
L 3975 2325 
Q 3925 1325 3700 687 
Q 3475 50 2850 -625 
Q 2625 -375 2375 -275 
Q 2950 150 3212 812 
Q 3475 1475 3525 2325 
Q 3250 2325 2825 2300 
L 2825 2800 
Q 3250 2775 3525 2775 
L 3525 4625 
Q 3100 4625 2900 4600 
L 2900 5050 
Q 3250 5025 3625 5025 
L 5125 5025 
z
M 1950 4875 
Q 2325 4875 2575 4900 
L 2575 4450 
Q 2325 4475 1950 4475 
L 1750 4475 
Q 1600 3800 1375 3175 
L 2550 3175 
Q 2525 2750 2525 2375 
L 2525 1225 
Q 2525 825 2550 250 
L 2075 250 
L 2075 750 
L 1375 750 
L 1375 -250 
L 900 -250 
Q 925 500 925 950 
L 925 2425 
Q 775 2200 500 1875 
Q 375 2100 175 2300 
Q 500 2600 687 2875 
Q 875 3150 1037 3562 
Q 1200 3975 1275 4475 
Q 775 4475 500 4450 
L 500 4900 
Q 1050 4875 1350 4875 
L 1950 4875 
z
M 4825 2775 
L 4825 4625 
L 3975 4625 
L 3975 2775 
L 4825 2775 
z
M 2075 1200 
L 2075 2775 
L 1375 2775 
L 1375 1200 
L 2075 1200 
z
" transform="scale(0.015625)"/>
       <path id="SimHei-53d1" d="M 3475 4925 
Q 3350 4650 3275 4362 
Q 3200 4075 3075 3575 
L 5075 3575 
Q 5325 3575 5825 3600 
L 5825 3125 
Q 5325 3150 5075 3150 
L 2975 3150 
Q 2825 2775 2650 2400 
L 5300 2400 
Q 4825 1250 3975 475 
Q 4650 0 5950 -150 
Q 5775 -350 5650 -650 
Q 5150 -550 4625 -362 
Q 4100 -175 3600 175 
Q 3200 -75 2625 -312 
Q 2050 -550 1450 -700 
Q 1400 -450 1200 -225 
Q 1750 -150 2300 37 
Q 2850 225 3275 500 
Q 2850 925 2325 1725 
Q 2050 1275 1625 850 
Q 1200 425 700 75 
Q 600 250 300 450 
Q 675 650 1037 975 
Q 1400 1300 1800 1837 
Q 2200 2375 2475 3150 
Q 1825 3150 1475 3125 
Q 1125 3100 950 3025 
Q 875 3250 750 3500 
Q 1000 3550 1112 3875 
Q 1225 4200 1350 4875 
Q 1550 4775 1900 4675 
Q 1775 4425 1675 4162 
Q 1575 3900 1450 3575 
L 2600 3575 
Q 2800 4375 2900 5100 
Q 3175 4950 3475 4925 
z
M 2675 2000 
Q 3025 1375 3650 750 
Q 4200 1200 4625 2000 
L 2675 2000 
z
M 4400 5075 
Q 4825 4600 5250 4100 
Q 5075 4000 4825 3775 
Q 4425 4350 4050 4750 
Q 4225 4875 4400 5075 
z
" transform="scale(0.015625)"/>
       <path id="SimHei-6295" d="M 2650 2600 
Q 3200 2575 3625 2575 
L 5500 2575 
Q 5400 2075 5125 1537 
Q 4850 1000 4450 525 
Q 4750 275 5250 137 
Q 5750 0 6200 -25 
Q 5975 -275 5875 -575 
Q 5375 -450 4937 -262 
Q 4500 -75 4075 200 
Q 3700 -75 3350 -262 
Q 3000 -450 2450 -650 
Q 2350 -425 2100 -175 
Q 2425 -100 2825 25 
Q 3225 150 3725 525 
Q 3225 1175 3050 2150 
L 2650 2150 
L 2650 2600 
z
M 1200 3825 
Q 1200 4625 1175 5200 
L 1675 5200 
Q 1650 4675 1650 3825 
Q 2050 3825 2425 3850 
L 2425 3375 
Q 2050 3400 1650 3400 
L 1650 2350 
Q 1875 2400 2350 2600 
Q 2350 2375 2400 2100 
Q 2175 2050 1650 1850 
L 1650 -50 
Q 1625 -375 1425 -450 
Q 1225 -525 625 -600 
Q 625 -300 475 -25 
Q 925 -50 1050 -25 
Q 1175 0 1200 225 
L 1200 1725 
Q 675 1525 425 1350 
Q 350 1675 200 1925 
Q 600 1975 1200 2175 
L 1200 3400 
Q 675 3400 350 3375 
L 350 3850 
Q 675 3825 1200 3825 
z
M 5375 3100 
Q 5050 3100 4800 3125 
Q 4550 3150 4550 3550 
L 4550 4575 
L 3650 4575 
Q 3650 3875 3487 3475 
Q 3325 3075 2975 2725 
Q 2775 2925 2500 3025 
Q 3025 3450 3087 3900 
Q 3150 4350 3125 4975 
L 5025 4975 
Q 5000 4725 5000 4300 
L 5000 3700 
Q 5000 3525 5175 3525 
L 5550 3525 
Q 5775 3525 5900 3550 
Q 5850 3350 5850 3100 
L 5375 3100 
z
M 3475 2150 
Q 3700 1250 4100 825 
Q 4325 1075 4512 1350 
Q 4700 1625 4875 2150 
L 3475 2150 
z
" transform="scale(0.015625)"/>
       <path id="SimHei-5165" d="M 5650 -375 
Q 5050 25 4500 650 
Q 3950 1275 3275 3050 
Q 2575 975 675 -475 
Q 575 -225 225 50 
Q 1850 825 2975 3525 
Q 2900 3725 2525 4125 
Q 2150 4525 1750 4675 
Q 2025 4900 2175 5125 
Q 2800 4650 3175 4225 
Q 3550 3800 4125 2375 
Q 4700 950 6125 250 
Q 5775 0 5650 -375 
z
" transform="scale(0.015625)"/>
       <path id="SimHei-5f3a" d="M 2350 25 
Q 3100 75 3950 225 
L 3950 1200 
L 3100 1200 
L 3100 975 
L 2625 975 
Q 2650 1725 2650 2050 
L 2650 2875 
L 3950 2875 
L 3950 3500 
L 2850 3500 
Q 2875 3900 2875 4275 
Q 2875 4675 2850 5025 
L 5525 5025 
Q 5500 4675 5500 4275 
Q 5500 3900 5525 3500 
L 4400 3500 
L 4400 2875 
L 5750 2875 
Q 5725 2575 5725 2075 
Q 5725 1575 5750 1200 
L 4400 1200 
L 4400 275 
L 5250 425 
Q 5150 575 5050 750 
Q 5300 825 5475 925 
Q 5925 200 6175 -250 
Q 5925 -350 5725 -500 
Q 5625 -250 5425 100 
Q 5125 50 4225 -137 
Q 3325 -325 2600 -525 
Q 2525 -200 2350 25 
z
M 600 -25 
Q 1250 -25 1400 50 
Q 1550 125 1575 325 
L 1675 1850 
L 500 1850 
Q 550 2350 562 2762 
Q 575 3175 575 3575 
L 1800 3575 
L 1800 4550 
L 1275 4550 
Q 825 4550 425 4525 
L 425 4950 
Q 850 4925 1275 4925 
L 2275 4925 
Q 2250 4525 2250 4075 
Q 2250 3650 2275 3200 
L 1075 3200 
L 1025 2225 
L 2175 2225 
Q 2125 1775 2100 1425 
L 2025 150 
Q 1975 -250 1637 -387 
Q 1300 -525 850 -600 
Q 775 -275 600 -25 
z
M 5050 3875 
L 5050 4650 
L 3325 4650 
L 3325 3875 
L 5050 3875 
z
M 3950 1575 
L 3950 2500 
L 3100 2500 
L 3100 1575 
L 3950 1575 
z
M 5250 1575 
L 5250 2500 
L 4400 2500 
L 4400 1575 
L 5250 1575 
z
" transform="scale(0.015625)"/>
       <path id="SimHei-5ea6" d="M 1750 1675 
Q 2450 1650 2875 1650 
L 5200 1650 
Q 4975 1250 4650 850 
Q 4325 450 4025 200 
Q 4350 50 4950 -50 
Q 5550 -150 6100 -150 
Q 5950 -300 5825 -650 
Q 5100 -550 4550 -412 
Q 4000 -275 3625 -100 
Q 3100 -325 2587 -462 
Q 2075 -600 1525 -675 
Q 1450 -475 1225 -250 
Q 1675 -250 2250 -125 
Q 2825 0 3250 200 
Q 2825 550 2400 1275 
L 1750 1250 
L 1750 1675 
z
M 2975 5075 
Q 3250 5150 3475 5250 
Q 3625 4975 3775 4525 
L 4700 4525 
Q 4975 4525 5700 4550 
L 5700 4100 
Q 5000 4125 4650 4125 
L 1375 4125 
Q 1375 3000 1350 2312 
Q 1325 1625 1212 950 
Q 1100 275 725 -525 
Q 500 -375 250 -300 
Q 650 400 762 1075 
Q 875 1750 887 2800 
Q 900 3850 875 4525 
L 3200 4525 
Q 3100 4850 2975 5075 
z
M 2475 3300 
Q 2475 3700 2450 3925 
L 2975 3925 
Q 2950 3725 2950 3300 
L 4300 3300 
Q 4300 3700 4275 3950 
L 4800 3950 
Q 4775 3650 4775 3300 
Q 5325 3300 5725 3325 
L 5725 2900 
Q 5350 2925 4775 2925 
Q 4775 2250 4800 1950 
L 2450 1950 
Q 2475 2350 2475 2925 
Q 2175 2925 1600 2900 
L 1600 3325 
Q 2175 3300 2475 3300 
z
M 4300 2350 
L 4300 2925 
L 2950 2925 
L 2950 2350 
L 4300 2350 
z
M 2875 1275 
Q 3200 775 3650 425 
Q 4025 700 4425 1275 
L 2900 1275 
L 2875 1275 
z
" transform="scale(0.015625)"/>
       <path id="SimHei-20" transform="scale(0.015625)"/>
       <path id="SimHei-72" d="M 2500 2425 
Q 2025 2500 1700 2287 
Q 1375 2075 1150 1550 
L 1150 125 
L 650 125 
L 650 2925 
L 1150 2925 
L 1150 2200 
Q 1375 2600 1712 2787 
Q 2050 2975 2500 2975 
L 2500 2425 
z
" transform="scale(0.015625)"/>
       <path id="SimHei-64" d="M 2750 125 
L 2250 125 
L 2250 500 
Q 2100 275 1900 175 
Q 1700 75 1425 75 
Q 925 75 575 437 
Q 225 800 225 1525 
Q 225 2250 575 2625 
Q 925 3000 1425 3000 
Q 1700 3000 1900 2887 
Q 2100 2775 2250 2550 
L 2250 4400 
L 2750 4400 
L 2750 125 
z
M 2250 1525 
Q 2250 2000 2037 2275 
Q 1825 2550 1525 2550 
Q 1150 2550 962 2275 
Q 775 2000 775 1525 
Q 775 1050 962 787 
Q 1150 525 1525 525 
Q 1825 525 2037 787 
Q 2250 1050 2250 1525 
z
" transform="scale(0.015625)"/>
      </defs>
      <use xlink:href="#SimHei-7814"/>
      <use xlink:href="#SimHei-53d1" transform="translate(100 0)"/>
      <use xlink:href="#SimHei-6295" transform="translate(200 0)"/>
      <use xlink:href="#SimHei-5165" transform="translate(300 0)"/>
      <use xlink:href="#SimHei-5f3a" transform="translate(400 0)"/>
      <use xlink:href="#SimHei-5ea6" transform="translate(500 0)"/>
      <use xlink:href="#SimHei-20" transform="translate(600 0)"/>
      <use xlink:href="#SimHei-72" transform="translate(650 0)"/>
      <use xlink:href="#SimHei-64" transform="translate(700 0)"/>
     </g>
    </g>
   </g>
   <g id="matplotlib.axis_2">
    <g id="ytick_1">
     <g id="line2d_11">
      <path d="M 33.926563 269.5975 
L 501.726562 269.5975 
" clip-path="url(#p5e672cc998)" style="fill: none; stroke: #b0b0b0; stroke-opacity: 0.25; stroke-width: 0.8; stroke-linecap: square"/>
     </g>
     <g id="line2d_12">
      <defs>
       <path id="m7ded4c985b" d="M 0 0 
L -3.5 0 
" style="stroke: #000000; stroke-width: 0.8"/>
      </defs>
      <g>
       <use xlink:href="#m7ded4c985b" x="33.926563" y="269.5975" style="stroke: #000000; stroke-width: 0.8"/>
      </g>
     </g>
     <g id="text_7">
      <!-- 0 -->
      <g transform="translate(21.426563 273.37875) scale(0.11 -0.11)">
       <use xlink:href="#SimHei-30"/>
      </g>
     </g>
    </g>
    <g id="ytick_2">
     <g id="line2d_13">
      <path d="M 33.926563 218.983294 
L 501.726562 218.983294 
" clip-path="url(#p5e672cc998)" style="fill: none; stroke: #b0b0b0; stroke-opacity: 0.25; stroke-width: 0.8; stroke-linecap: square"/>
     </g>
     <g id="line2d_14">
      <g>
       <use xlink:href="#m7ded4c985b" x="33.926563" y="218.983294" style="stroke: #000000; stroke-width: 0.8"/>
      </g>
     </g>
     <g id="text_8">
      <!-- 2 -->
      <g transform="translate(21.426563 222.764544) scale(0.11 -0.11)">
       <use xlink:href="#SimHei-32"/>
      </g>
     </g>
    </g>
    <g id="ytick_3">
     <g id="line2d_15">
      <path d="M 33.926563 168.369087 
L 501.726562 168.369087 
" clip-path="url(#p5e672cc998)" style="fill: none; stroke: #b0b0b0; stroke-opacity: 0.25; stroke-width: 0.8; stroke-linecap: square"/>
     </g>
     <g id="line2d_16">
      <g>
       <use xlink:href="#m7ded4c985b" x="33.926563" y="168.369087" style="stroke: #000000; stroke-width: 0.8"/>
      </g>
     </g>
     <g id="text_9">
      <!-- 4 -->
      <g transform="translate(21.426563 172.150337) scale(0.11 -0.11)">
       <defs>
        <path id="SimHei-34" d="M 2000 1100 
L 75 1100 
L 75 1525 
L 2100 4450 
L 2475 4450 
L 2475 1525 
L 3075 1525 
L 3075 1100 
L 2475 1100 
L 2475 150 
L 2000 150 
L 2000 1100 
z
M 2000 1525 
L 2000 3500 
L 600 1525 
L 2000 1525 
z
" transform="scale(0.015625)"/>
       </defs>
       <use xlink:href="#SimHei-34"/>
      </g>
     </g>
    </g>
    <g id="ytick_4">
     <g id="line2d_17">
      <path d="M 33.926563 117.754881 
L 501.726562 117.754881 
" clip-path="url(#p5e672cc998)" style="fill: none; stroke: #b0b0b0; stroke-opacity: 0.25; stroke-width: 0.8; stroke-linecap: square"/>
     </g>
     <g id="line2d_18">
      <g>
       <use xlink:href="#m7ded4c985b" x="33.926563" y="117.754881" style="stroke: #000000; stroke-width: 0.8"/>
      </g>
     </g>
     <g id="text_10">
      <!-- 6 -->
      <g transform="translate(21.426563 121.536131) scale(0.11 -0.11)">
       <defs>
        <path id="SimHei-36" d="M 250 1612 
Q 275 1975 387 2225 
Q 500 2475 725 2850 
L 1750 4450 
L 2325 4450 
L 1275 2800 
Q 1950 2975 2350 2750 
Q 2750 2525 2887 2237 
Q 3025 1950 3037 1612 
Q 3050 1275 2937 950 
Q 2825 625 2537 362 
Q 2250 100 1737 75 
Q 1225 50 862 262 
Q 500 475 362 862 
Q 225 1250 250 1612 
z
M 1025 787 
Q 1250 550 1625 525 
Q 2000 500 2250 775 
Q 2500 1050 2500 1575 
Q 2500 2100 2187 2300 
Q 1875 2500 1487 2450 
Q 1100 2400 925 2075 
Q 750 1750 775 1387 
Q 800 1025 1025 787 
z
" transform="scale(0.015625)"/>
       </defs>
       <use xlink:href="#SimHei-36"/>
      </g>
     </g>
    </g>
    <g id="ytick_5">
     <g id="line2d_19">
      <path d="M 33.926563 67.140674 
L 501.726562 67.140674 
" clip-path="url(#p5e672cc998)" style="fill: none; stroke: #b0b0b0; stroke-opacity: 0.25; stroke-width: 0.8; stroke-linecap: square"/>
     </g>
     <g id="line2d_20">
      <g>
       <use xlink:href="#m7ded4c985b" x="33.926563" y="67.140674" style="stroke: #000000; stroke-width: 0.8"/>
      </g>
     </g>
     <g id="text_11">
      <!-- 8 -->
      <g transform="translate(21.426563 70.921924) scale(0.11 -0.11)">
       <defs>
        <path id="SimHei-38" d="M 175 1375 
Q 175 1675 325 1962 
Q 475 2250 825 2425 
Q 525 2600 425 2812 
Q 325 3025 312 3300 
Q 300 3575 387 3775 
Q 475 3975 650 4150 
Q 825 4325 1037 4387 
Q 1250 4450 1500 4450 
Q 1750 4450 1950 4400 
Q 2150 4350 2375 4187 
Q 2600 4025 2700 3725 
Q 2800 3425 2687 3025 
Q 2575 2625 2100 2400 
Q 2525 2275 2700 2012 
Q 2875 1750 2875 1375 
Q 2875 1000 2762 775 
Q 2650 550 2512 400 
Q 2375 250 2137 162 
Q 1900 75 1537 75 
Q 1175 75 912 162 
Q 650 250 475 425 
Q 300 600 237 837 
Q 175 1075 175 1375 
z
M 687 1400 
Q 675 1100 787 875 
Q 900 650 1200 587 
Q 1500 525 1825 600 
Q 2150 675 2275 950 
Q 2400 1225 2362 1500 
Q 2325 1775 2050 1962 
Q 1775 2150 1450 2125 
Q 1125 2100 912 1900 
Q 700 1700 687 1400 
z
M 775 3350 
Q 775 3100 950 2875 
Q 1125 2650 1500 2650 
Q 1875 2650 2062 2875 
Q 2250 3100 2237 3412 
Q 2225 3725 2012 3875 
Q 1800 4025 1437 4000 
Q 1075 3975 925 3787 
Q 775 3600 775 3350 
z
" transform="scale(0.015625)"/>
       </defs>
       <use xlink:href="#SimHei-38"/>
      </g>
     </g>
    </g>
    <g id="text_12">
     <!-- 密度 -->
     <g transform="translate(16.051563 157.76125) rotate(-90) scale(0.11 -0.11)">
      <defs>
       <path id="SimHei-5bc6" d="M 4825 3350 
Q 4475 3125 3962 2750 
Q 3450 2375 2775 2025 
L 4025 2025 
Q 4550 2025 4550 2600 
Q 4800 2450 5150 2325 
Q 4900 1775 4712 1687 
Q 4525 1600 4200 1600 
L 2875 1600 
Q 2225 1575 2175 1675 
Q 1125 1325 575 1175 
Q 475 1425 250 1675 
Q 850 1725 1262 1850 
Q 1675 1975 2000 2100 
L 2000 2750 
Q 2000 3000 1975 3400 
L 2550 3400 
Q 2525 3025 2525 2775 
L 2525 2350 
Q 2900 2525 3425 2887 
Q 3950 3250 4325 3775 
Q 4475 3625 4825 3350 
z
M 1225 550 
Q 1225 825 1200 1125 
L 1750 1125 
Q 1725 775 1725 525 
L 1725 0 
L 3075 0 
L 3075 700 
Q 3075 950 3025 1375 
L 3600 1375 
Q 3575 1100 3575 675 
L 3575 0 
L 4975 0 
L 4975 625 
Q 4975 875 4950 1200 
L 5500 1200 
Q 5475 900 5475 600 
L 5475 -225 
Q 5475 -425 5500 -700 
L 4975 -700 
L 4975 -400 
L 1200 -400 
Q 1225 -150 1225 75 
L 1225 550 
z
M 5375 3575 
L 5375 4150 
L 1150 4150 
L 1150 3550 
L 600 3550 
Q 625 3700 625 4000 
Q 625 4300 600 4575 
L 2975 4575 
Q 2900 4800 2775 5050 
Q 3000 5125 3325 5225 
Q 3425 5075 3575 4575 
L 5925 4575 
Q 5900 4250 5900 4025 
Q 5900 3825 5925 3575 
L 5375 3575 
z
M 1650 3275 
Q 1500 2850 1225 2250 
Q 900 2350 675 2400 
Q 950 2800 1100 3400 
Q 1350 3325 1650 3275 
z
M 5450 3325 
Q 5775 2925 6100 2450 
Q 5825 2350 5625 2200 
Q 5350 2675 5000 3050 
Q 5200 3175 5450 3325 
z
M 3225 3150 
Q 2875 3600 2575 3825 
Q 2775 3950 2975 4125 
Q 3175 3975 3650 3475 
Q 3450 3300 3225 3150 
z
" transform="scale(0.015625)"/>
      </defs>
      <use xlink:href="#SimHei-5bc6"/>
      <use xlink:href="#SimHei-5ea6" transform="translate(100 0)"/>
     </g>
    </g>
   </g>
   <g id="line2d_21">
    <path d="M 55.190199 269.5975 
L 55.190199 23.925 
" clip-path="url(#p5e672cc998)" style="fill: none; stroke-dasharray: 3.7,1.6; stroke-dashoffset: 0; stroke: #1f77b4"/>
   </g>
   <g id="patch_38">
    <path d="M 33.926563 269.5975 
L 33.926563 23.925 
" style="fill: none; stroke: #000000; stroke-width: 0.8; stroke-linejoin: miter; stroke-linecap: square"/>
   </g>
   <g id="patch_39">
    <path d="M 33.926563 269.5975 
L 501.726562 269.5975 
" style="fill: none; stroke: #000000; stroke-width: 0.8; stroke-linejoin: miter; stroke-linecap: square"/>
   </g>
   <g id="text_13">
    <g id="patch_40">
     <path d="M 393.370563 57.440519 
L 492.370563 57.440519 
Q 496.220563 57.440519 496.220563 53.590519 
L 496.220563 43.5788 
Q 496.220563 39.7288 492.370563 39.7288 
L 393.370563 39.7288 
Q 389.520562 39.7288 389.520562 43.5788 
L 389.520562 53.590519 
Q 389.520562 57.440519 393.370563 57.440519 
z
" style="fill: #1f77b4; opacity: 0.12; stroke: #000000; stroke-linejoin: miter"/>
    </g>
    <!-- rd=0 的比例：59.4% -->
    <g transform="translate(393.370563 52.215519) scale(0.11 -0.11)">
     <defs>
      <path id="SimHei-3d" d="M 2975 2900 
L 125 2900 
L 125 3300 
L 2975 3300 
L 2975 2900 
z
M 2975 1375 
L 125 1375 
L 125 1775 
L 2975 1775 
L 2975 1375 
z
" transform="scale(0.015625)"/>
      <path id="SimHei-7684" d="M 2100 4975 
Q 1975 4750 1750 3950 
L 2875 3950 
Q 2850 3525 2850 2875 
L 2850 675 
Q 2850 300 2875 -400 
L 2375 -400 
L 2375 100 
L 1100 100 
L 1100 -450 
L 600 -450 
Q 625 350 625 550 
L 625 2850 
Q 625 3525 600 3950 
L 1325 3950 
Q 1450 4525 1525 5150 
Q 1875 5025 2100 4975 
z
M 5825 3075 
Q 5800 1550 5700 175 
Q 5650 -275 5225 -425 
Q 4800 -575 4275 -625 
Q 4250 -350 4050 -50 
Q 4550 -75 4837 -25 
Q 5125 25 5200 200 
Q 5275 375 5312 1225 
Q 5350 2075 5375 3600 
L 3925 3600 
Q 3725 3125 3350 2475 
Q 3175 2650 2925 2750 
Q 3150 3050 3350 3475 
Q 3550 3900 3700 4400 
Q 3850 4900 3875 5175 
Q 4225 5025 4475 4950 
Q 4350 4750 4262 4512 
Q 4175 4275 4075 4050 
L 5850 4050 
Q 5825 3525 5825 3075 
z
M 2375 525 
L 2375 1850 
L 1100 1850 
L 1100 525 
L 2375 525 
z
M 2375 2275 
L 2375 3525 
L 1100 3525 
L 1100 2275 
L 2375 2275 
z
M 4350 2050 
Q 4500 1750 4700 1275 
Q 4525 1200 4225 1025 
Q 4050 1500 3900 1837 
Q 3750 2175 3600 2400 
Q 3775 2500 4050 2650 
L 4350 2050 
z
" transform="scale(0.015625)"/>
      <path id="SimHei-6bd4" d="M 3775 5100 
Q 3750 4575 3750 4100 
L 3750 3050 
Q 4925 3600 5475 4175 
Q 5675 3900 5900 3675 
Q 5600 3500 5037 3187 
Q 4475 2875 3750 2550 
L 3750 450 
Q 3750 100 4050 100 
L 5000 100 
Q 5175 100 5262 250 
Q 5350 400 5450 900 
Q 5650 775 6025 675 
Q 5850 0 5650 -175 
Q 5450 -350 5225 -350 
L 3900 -350 
Q 3250 -350 3250 275 
L 3250 4000 
Q 3250 4550 3225 5100 
L 3775 5100 
z
M 1275 4975 
Q 1250 4575 1250 4000 
L 1250 3150 
L 1850 3150 
Q 2325 3150 2875 3175 
L 2875 2650 
Q 2325 2675 1850 2675 
L 1250 2675 
L 1250 475 
Q 1650 650 1962 812 
Q 2275 975 2850 1275 
Q 2900 950 2950 750 
Q 2375 475 1762 175 
Q 1150 -125 925 -325 
Q 750 -100 575 200 
Q 700 300 750 600 
L 750 3950 
Q 750 4550 725 4975 
L 1275 4975 
z
" transform="scale(0.015625)"/>
      <path id="SimHei-4f8b" d="M 3450 4725 
Q 3825 4725 4100 4750 
L 4100 4300 
Q 3825 4325 3500 4325 
L 3150 4325 
Q 3125 4025 3025 3350 
L 4050 3350 
Q 4000 2050 3612 1050 
Q 3225 50 2300 -600 
Q 2200 -400 1900 -150 
Q 2750 250 3200 1325 
Q 2975 1525 2550 1800 
Q 2700 2000 2825 2175 
Q 3200 1875 3350 1775 
Q 3500 2250 3575 2950 
L 2925 2950 
Q 2800 2425 2225 1575 
Q 2025 1775 1775 1925 
Q 2125 2275 2375 2837 
Q 2625 3400 2675 4325 
Q 2300 4325 2150 4300 
L 2150 4750 
Q 2400 4725 2800 4725 
L 3450 4725 
z
M 2050 4975 
Q 1875 4775 1550 3850 
L 1550 475 
Q 1550 -25 1575 -600 
L 1075 -600 
Q 1100 -75 1100 425 
L 1100 3000 
Q 950 2700 650 2250 
Q 550 2375 200 2625 
Q 525 2925 937 3762 
Q 1350 4600 1450 5200 
Q 1650 5075 2050 4975 
z
M 5950 5075 
Q 5900 4775 5900 4300 
L 5900 250 
Q 5900 -275 5700 -400 
Q 5500 -525 4850 -575 
Q 4825 -300 4650 50 
Q 5175 0 5300 25 
Q 5425 50 5450 300 
L 5450 4275 
Q 5450 4750 5400 5075 
L 5950 5075 
z
M 4925 4225 
Q 4875 3875 4875 3250 
L 4875 1800 
Q 4875 1200 4900 925 
L 4375 925 
Q 4425 1200 4425 1775 
L 4425 3275 
Q 4400 3850 4375 4225 
L 4925 4225 
z
" transform="scale(0.015625)"/>
      <path id="SimHei-ff1a" d="M 1200 2425 
L 2025 2425 
L 2025 1600 
L 1200 1600 
L 1200 2425 
z
M 1200 825 
L 2025 825 
L 2025 0 
L 1200 0 
L 1200 825 
z
" transform="scale(0.015625)"/>
      <path id="SimHei-39" d="M 800 75 
Q 1350 1000 1700 1750 
Q 1075 1650 662 1912 
Q 250 2175 162 2625 
Q 75 3075 175 3437 
Q 275 3800 487 4037 
Q 700 4275 1000 4375 
Q 1300 4475 1537 4475 
Q 1775 4475 2025 4375 
Q 2275 4275 2475 4075 
Q 2675 3875 2750 3662 
Q 2825 3450 2825 3112 
Q 2825 2775 2575 2250 
Q 2325 1725 1350 75 
L 800 75 
z
M 662 2875 
Q 700 2550 937 2337 
Q 1175 2125 1450 2150 
Q 1725 2175 1887 2300 
Q 2050 2425 2200 2725 
Q 2300 3100 2250 3362 
Q 2200 3625 1987 3800 
Q 1775 3975 1525 3975 
Q 1375 4000 1137 3900 
Q 900 3800 762 3500 
Q 625 3200 662 2875 
z
" transform="scale(0.015625)"/>
      <path id="SimHei-25" d="M 1400 3325 
Q 1400 2600 1187 2400 
Q 975 2200 775 2200 
Q 575 2200 362 2400 
Q 150 2600 150 3325 
Q 150 4050 362 4250 
Q 575 4450 775 4450 
Q 975 4450 1187 4250 
Q 1400 4050 1400 3325 
z
M 2625 4375 
L 700 75 
L 500 150 
L 2425 4450 
L 2625 4375 
z
M 2975 1200 
Q 2975 475 2762 275 
Q 2550 75 2350 75 
Q 2150 75 1937 275 
Q 1725 475 1725 1200 
Q 1725 1925 1937 2125 
Q 2150 2325 2350 2325 
Q 2550 2325 2762 2125 
Q 2975 1925 2975 1200 
z
M 1000 3325 
Q 1000 3775 950 3925 
Q 900 4075 775 4075 
Q 650 4075 600 3925 
Q 550 3775 550 3325 
Q 550 2875 600 2725 
Q 650 2575 775 2575 
Q 900 2575 950 2725 
Q 1000 2875 1000 3325 
z
M 2575 1200 
Q 2575 1650 2525 1800 
Q 2475 1950 2350 1950 
Q 2225 1950 2175 1800 
Q 2125 1650 2125 1200 
Q 2125 750 2175 600 
Q 2225 450 2350 450 
Q 2475 450 2525 600 
Q 2575 750 2575 1200 
z
" transform="scale(0.015625)"/>
     </defs>
     <use xlink:href="#SimHei-72"/>
     <use xlink:href="#SimHei-64" transform="translate(50 0)"/>
     <use xlink:href="#SimHei-3d" transform="translate(100 0)"/>
     <use xlink:href="#SimHei-30" transform="translate(150 0)"/>
     <use xlink:href="#SimHei-20" transform="translate(200 0)"/>
     <use xlink:href="#SimHei-7684" transform="translate(250 0)"/>
     <use xlink:href="#SimHei-6bd4" transform="translate(350 0)"/>
     <use xlink:href="#SimHei-4f8b" transform="translate(450 0)"/>
     <use xlink:href="#SimHei-ff1a" transform="translate(550 0)"/>
     <use xlink:href="#SimHei-35" transform="translate(650 0)"/>
     <use xlink:href="#SimHei-39" transform="translate(700 0)"/>
     <use xlink:href="#SimHei-2e" transform="translate(750 0)"/>
     <use xlink:href="#SimHei-34" transform="translate(800 0)"/>
     <use xlink:href="#SimHei-25" transform="translate(850 0)"/>
    </g>
   </g>
   <g id="text_14">
    <!-- 研发投入强度的混合分布：0 点堆积 + 正值连续分布 -->
    <g transform="translate(112.726563 17.925) scale(0.132 -0.132)">
     <defs>
      <path id="SimHei-6df7" d="M 5350 5025 
Q 5325 4525 5325 4050 
L 5325 3425 
Q 5325 3000 5350 2525 
L 2150 2525 
Q 2175 3000 2175 3400 
L 2175 4050 
Q 2175 4500 2150 5025 
L 5350 5025 
z
M 4475 2250 
Q 4425 1750 4425 1600 
L 4425 1350 
Q 4575 1425 4850 1575 
Q 5125 1725 5375 2025 
Q 5575 1750 5775 1575 
Q 5525 1475 5212 1325 
Q 4900 1175 4425 925 
L 4425 150 
Q 4425 -100 4750 -100 
L 5150 -100 
Q 5375 -100 5450 75 
Q 5525 250 5575 650 
Q 5800 525 6050 475 
Q 5925 -125 5800 -287 
Q 5675 -450 5450 -450 
L 4400 -450 
Q 3975 -450 3975 -25 
L 3975 1600 
Q 3975 1850 3950 2250 
L 4475 2250 
z
M 1875 -75 
Q 2100 100 2150 450 
L 2150 1650 
Q 2150 1825 2125 2250 
L 2625 2250 
Q 2575 1850 2575 1600 
L 2975 1600 
Q 3250 1600 3625 1625 
L 3625 1225 
L 2575 1225 
L 2575 200 
Q 2775 275 3000 362 
Q 3225 450 3525 600 
Q 3550 400 3625 125 
Q 3300 25 2875 -150 
Q 2450 -325 2125 -550 
Q 2025 -325 1875 -75 
z
M 4875 2925 
L 4875 3575 
L 2625 3575 
L 2625 2925 
L 4875 2925 
z
M 4875 4000 
L 4875 4650 
L 2625 4650 
L 2625 4000 
L 4875 4000 
z
M 1700 1525 
Q 1550 1300 1237 700 
Q 925 100 650 -425 
Q 500 -300 200 -75 
Q 475 250 800 825 
Q 1125 1400 1300 1825 
Q 1475 1675 1700 1525 
z
M 550 3625 
Q 725 3500 1025 3300 
Q 1325 3100 1625 2875 
Q 1425 2650 1275 2425 
Q 975 2700 750 2875 
Q 525 3050 250 3225 
Q 400 3375 550 3625 
z
M 850 5200 
Q 1025 5050 1312 4837 
Q 1600 4625 1875 4350 
Q 1675 4175 1550 3925 
Q 1350 4150 1075 4400 
Q 800 4650 525 4800 
Q 650 4975 850 5200 
z
" transform="scale(0.015625)"/>
      <path id="SimHei-5408" d="M 5050 1800 
Q 5025 1550 5025 650 
Q 5025 -250 5050 -525 
L 4525 -525 
L 4525 -50 
L 1750 -50 
L 1750 -600 
L 1250 -600 
Q 1275 -300 1275 550 
Q 1275 1425 1250 1800 
L 5050 1800 
z
M 3375 4800 
Q 4100 3925 4550 3600 
Q 5000 3275 5375 3100 
Q 5750 2925 6100 2825 
Q 5850 2550 5775 2300 
Q 5275 2525 4875 2775 
Q 4475 3025 4062 3412 
Q 3650 3800 3125 4475 
Q 2650 3800 2187 3362 
Q 1725 2925 1400 2675 
Q 1075 2425 675 2175 
Q 625 2275 275 2575 
Q 800 2825 1275 3175 
Q 1750 3525 2225 4062 
Q 2700 4600 3000 5225 
Q 3275 5050 3500 4950 
L 3375 4800 
z
M 4525 350 
L 4525 1400 
L 1750 1400 
L 1750 350 
L 4525 350 
z
M 3925 2825 
Q 4325 2825 4625 2850 
L 4625 2375 
Q 4300 2400 3950 2400 
L 2550 2400 
Q 2025 2400 1700 2375 
L 1700 2850 
Q 2175 2825 2550 2825 
L 3925 2825 
z
" transform="scale(0.015625)"/>
      <path id="SimHei-5206" d="M 1000 -650 
Q 825 -375 575 -225 
Q 975 -75 1300 137 
Q 1625 350 1875 662 
Q 2125 975 2250 1350 
Q 2375 1725 2425 2275 
Q 1850 2275 1500 2250 
L 1500 2775 
Q 1900 2750 2525 2750 
L 5025 2750 
Q 4975 2375 4950 2100 
L 4750 250 
Q 4700 -200 4350 -350 
Q 4000 -500 3575 -525 
Q 3550 -275 3325 50 
Q 3850 25 4037 87 
Q 4225 150 4275 525 
L 4450 2275 
L 2950 2275 
Q 2875 1625 2737 1187 
Q 2600 750 2350 425 
Q 2100 100 1750 -175 
Q 1400 -450 1000 -650 
z
M 3950 5175 
Q 4125 4650 4662 3975 
Q 5200 3300 6175 2800 
Q 5975 2625 5775 2275 
Q 5325 2600 4987 2887 
Q 4650 3175 4425 3425 
Q 4200 3675 3925 4137 
Q 3650 4600 3475 5000 
Q 3750 5075 3950 5175 
z
M 2700 4825 
Q 2475 4425 2325 4125 
Q 2175 3825 2025 3587 
Q 1875 3350 1575 2950 
Q 1275 2550 850 2125 
Q 625 2350 400 2475 
Q 900 2925 1187 3300 
Q 1475 3675 1737 4112 
Q 2000 4550 2200 5075 
Q 2400 4925 2700 4825 
z
" transform="scale(0.015625)"/>
      <path id="SimHei-5e03" d="M 2375 4225 
Q 2650 4775 2775 5300 
Q 3125 5175 3400 5075 
Q 3275 4975 2950 4225 
L 4800 4225 
Q 5550 4225 6025 4250 
L 6025 3800 
L 2725 3800 
Q 2325 3100 1975 2675 
L 3275 2675 
Q 3275 3225 3250 3575 
L 3775 3575 
Q 3750 3225 3750 2675 
L 5500 2675 
Q 5475 2225 5475 1775 
L 5475 750 
Q 5475 275 5212 150 
Q 4950 25 4450 -25 
Q 4400 325 4225 550 
Q 4800 550 4912 625 
Q 5025 700 5000 1025 
L 5000 2250 
L 3750 2250 
L 3750 550 
Q 3750 25 3775 -600 
L 3250 -600 
Q 3275 25 3275 550 
L 3275 2250 
L 2100 2250 
L 2100 0 
L 1600 0 
Q 1625 525 1625 1025 
L 1625 2225 
Q 1300 1850 650 1275 
Q 475 1475 200 1650 
Q 750 2025 1262 2562 
Q 1775 3100 2150 3800 
L 1550 3800 
Q 925 3800 400 3775 
L 400 4250 
Q 925 4225 1550 4225 
L 2375 4225 
z
" transform="scale(0.015625)"/>
      <path id="SimHei-70b9" d="M 3325 5200 
Q 3300 4925 3300 4375 
L 4900 4375 
Q 5275 4375 5725 4400 
L 5725 3925 
Q 5300 3950 4900 3950 
L 3300 3950 
L 3300 3225 
L 5225 3225 
Q 5200 2700 5200 2150 
Q 5200 1625 5225 1175 
L 1175 1175 
Q 1200 1625 1200 2175 
Q 1200 2725 1175 3225 
L 2775 3225 
L 2775 4500 
Q 2775 4900 2750 5200 
L 3325 5200 
z
M 4700 1600 
L 4700 2800 
L 1725 2800 
L 1725 1600 
L 4700 1600 
z
M 1500 750 
Q 1025 -250 825 -625 
Q 625 -475 325 -375 
Q 650 50 950 925 
Q 1200 800 1500 750 
z
M 5325 850 
Q 5775 150 6075 -350 
Q 5925 -425 5575 -625 
Q 5375 -150 4900 575 
Q 5150 700 5325 850 
z
M 3975 -575 
Q 3775 -100 3400 575 
Q 3575 675 3825 825 
Q 4350 -75 4450 -325 
Q 4200 -450 3975 -575 
z
M 2375 -575 
Q 2350 -300 1975 550 
Q 2200 625 2425 775 
Q 2800 -75 2900 -350 
Q 2625 -450 2375 -575 
z
" transform="scale(0.015625)"/>
      <path id="SimHei-5806" d="M 2450 2350 
Q 2275 2525 2075 2650 
Q 2425 3125 2725 3850 
Q 3025 4575 3125 5250 
Q 3450 5100 3725 5025 
Q 3625 4875 3487 4537 
Q 3350 4200 3300 4075 
L 5100 4075 
Q 5625 4075 6025 4100 
L 6025 3625 
Q 5600 3650 5100 3650 
L 4800 3650 
L 4800 2850 
Q 5475 2850 5850 2875 
L 5850 2400 
Q 5475 2425 4800 2425 
L 4800 1600 
Q 5475 1600 5825 1625 
L 5825 1150 
Q 5525 1175 4800 1175 
L 4800 350 
L 5250 350 
Q 5750 350 6125 375 
L 6125 -100 
Q 5750 -75 5250 -75 
L 3325 -75 
L 3325 -675 
L 2825 -675 
Q 2850 -75 2850 100 
L 2850 3050 
Q 2650 2650 2450 2350 
z
M 200 700 
Q 400 725 600 775 
Q 800 825 1075 925 
L 1075 3050 
Q 675 3050 300 3025 
L 300 3475 
Q 675 3450 1075 3450 
L 1075 4250 
Q 1075 4675 1050 5075 
L 1575 5075 
Q 1550 4700 1550 4250 
L 1550 3450 
Q 2000 3450 2300 3475 
L 2300 3025 
Q 2000 3050 1550 3050 
L 1550 1050 
Q 1825 1150 2350 1350 
Q 2300 1150 2325 875 
Q 1875 750 1337 550 
Q 800 350 425 125 
Q 325 425 200 700 
z
M 4350 1600 
L 4350 2425 
L 3325 2425 
L 3325 1600 
L 4350 1600 
z
M 4350 350 
L 4350 1175 
L 3325 1175 
L 3325 350 
L 4350 350 
z
M 4350 2850 
L 4350 3650 
L 3325 3650 
L 3325 2850 
L 4350 2850 
z
M 4125 4975 
Q 4375 5075 4600 5200 
Q 4900 4675 5025 4350 
Q 4750 4275 4525 4150 
Q 4350 4625 4125 4975 
z
" transform="scale(0.015625)"/>
      <path id="SimHei-79ef" d="M 5675 4700 
Q 5650 4275 5650 3575 
L 5650 2750 
Q 5650 2225 5675 1750 
L 3100 1750 
Q 3125 2225 3125 2750 
L 3125 3600 
Q 3125 4275 3100 4700 
L 5675 4700 
z
M 2850 4625 
Q 2600 4575 2400 4525 
Q 2200 4475 1925 4425 
L 1925 3275 
Q 2525 3275 2875 3300 
L 2875 2825 
Q 2525 2850 1925 2850 
L 1925 2075 
Q 2125 2225 2250 2350 
Q 2650 1775 2875 1450 
Q 2750 1375 2450 1150 
Q 2250 1575 1925 2000 
L 1925 300 
Q 1925 -75 1950 -675 
L 1425 -675 
Q 1475 -75 1475 300 
L 1475 1925 
Q 1275 1475 1125 1225 
Q 975 975 650 525 
Q 450 700 200 825 
Q 575 1200 900 1750 
Q 1225 2300 1375 2850 
Q 1025 2850 300 2825 
L 300 3300 
Q 1025 3275 1475 3275 
L 1475 4325 
Q 975 4250 525 4175 
Q 450 4400 350 4625 
Q 675 4600 1462 4750 
Q 2250 4900 2550 5075 
Q 2725 4775 2850 4625 
z
M 5175 2175 
L 5175 4300 
L 3575 4300 
L 3575 2175 
L 5175 2175 
z
M 4025 1075 
Q 3875 850 3512 350 
Q 3150 -150 2700 -650 
Q 2525 -475 2300 -300 
Q 2625 -50 2950 375 
Q 3275 800 3575 1400 
Q 3825 1200 4025 1075 
z
M 5050 1325 
Q 5275 1025 5587 625 
Q 5900 225 6200 -225 
Q 5900 -400 5725 -550 
Q 5550 -225 5200 287 
Q 4850 800 4650 1025 
Q 4850 1150 5050 1325 
z
" transform="scale(0.015625)"/>
      <path id="SimHei-2b" d="M 3000 2125 
L 1775 2125 
L 1775 900 
L 1350 900 
L 1350 2125 
L 125 2125 
L 125 2525 
L 1350 2525 
L 1350 3750 
L 1775 3750 
L 1775 2525 
L 3000 2525 
L 3000 2125 
z
" transform="scale(0.015625)"/>
      <path id="SimHei-6b63" d="M 4825 4625 
Q 5300 4625 5675 4650 
L 5675 4150 
Q 5300 4175 4775 4175 
L 3575 4175 
L 3575 2600 
L 4850 2600 
Q 5250 2600 5550 2625 
L 5550 2150 
Q 5250 2175 4850 2175 
L 3575 2175 
L 3575 150 
L 4850 150 
Q 5375 150 5900 175 
L 5900 -325 
Q 5375 -300 4975 -300 
L 1175 -300 
Q 700 -300 375 -325 
L 375 175 
Q 700 150 1175 150 
L 1325 150 
L 1325 2350 
Q 1325 2800 1300 3125 
L 1875 3125 
Q 1850 2825 1850 2350 
L 1850 150 
L 3075 150 
L 3075 4175 
L 1625 4175 
Q 1150 4175 800 4150 
L 800 4650 
Q 1150 4625 1625 4625 
L 4825 4625 
z
" transform="scale(0.015625)"/>
      <path id="SimHei-503c" d="M 3675 4450 
L 3675 5100 
Q 3975 5075 4350 5050 
Q 4225 4875 4200 4450 
L 5125 4450 
Q 5550 4450 5875 4475 
L 5875 4025 
Q 5525 4050 5125 4050 
L 4175 4050 
L 4125 3500 
L 5400 3500 
Q 5375 3200 5375 2700 
L 5375 150 
Q 5875 150 6100 175 
L 6100 -275 
Q 5775 -250 5200 -250 
L 2850 -250 
Q 2275 -250 1900 -275 
L 1900 175 
Q 2125 150 2600 150 
L 2600 2700 
Q 2600 3175 2575 3500 
L 3600 3500 
L 3650 4050 
L 3200 4050 
Q 2575 4050 2225 4025 
L 2225 4475 
Q 2550 4450 3200 4450 
L 3675 4450 
z
M 2225 4900 
Q 2025 4675 1650 3750 
L 1650 450 
Q 1650 -75 1675 -550 
L 1150 -550 
Q 1175 -125 1175 375 
L 1175 2950 
Q 875 2450 625 2150 
Q 425 2425 250 2575 
Q 500 2825 937 3537 
Q 1375 4250 1625 5150 
Q 1975 4975 2225 4900 
z
M 4925 2650 
L 4925 3150 
L 3075 3150 
L 3075 2650 
L 4925 2650 
z
M 4925 150 
L 4925 625 
L 3075 625 
L 3075 150 
L 4925 150 
z
M 4925 1000 
L 4925 1450 
L 3075 1450 
L 3075 1000 
L 4925 1000 
z
M 4925 1825 
L 4925 2275 
L 3075 2275 
L 3075 1825 
L 4925 1825 
z
" transform="scale(0.015625)"/>
      <path id="SimHei-8fde" d="M 3175 4350 
Q 3425 4925 3475 5200 
Q 3875 5025 4050 4975 
Q 3925 4875 3675 4350 
L 5025 4350 
Q 5550 4350 5850 4375 
L 5850 3925 
Q 5525 3950 5100 3950 
L 3475 3950 
Q 3350 3700 2875 2925 
L 3875 2925 
Q 3875 3400 3850 3725 
L 4350 3725 
Q 4325 3450 4325 2925 
Q 5575 2925 5650 2950 
L 5650 2475 
Q 5500 2525 4325 2525 
L 4325 1700 
L 5250 1700 
Q 5800 1700 5950 1725 
L 5950 1275 
Q 5650 1300 5250 1300 
L 4325 1300 
Q 4325 600 4350 75 
L 3850 75 
Q 3875 600 3875 1300 
Q 2150 1300 1975 1275 
L 1975 1725 
Q 2650 1700 3875 1700 
L 3875 2525 
L 3075 2525 
Q 2525 2500 2375 2450 
L 2200 2900 
Q 2400 3025 2587 3275 
Q 2775 3525 2975 3950 
Q 2325 3950 1975 3925 
L 1975 4375 
Q 2300 4350 3175 4350 
z
M 1625 2925 
Q 1600 2425 1600 2100 
L 1600 550 
Q 2325 -75 3825 -75 
Q 5350 -75 6175 0 
Q 6025 -250 5975 -550 
Q 4975 -550 4175 -537 
Q 3375 -525 2750 -412 
Q 2125 -300 1762 -50 
Q 1400 200 1175 -12 
Q 950 -225 675 -550 
Q 525 -350 275 -175 
Q 850 300 1100 475 
L 1100 2525 
Q 775 2525 400 2500 
L 400 2950 
Q 800 2925 1125 2925 
L 1625 2925 
z
M 975 4950 
Q 1450 4275 1775 3750 
Q 1550 3675 1300 3500 
Q 1175 3875 550 4650 
Q 775 4850 975 4950 
z
" transform="scale(0.015625)"/>
      <path id="SimHei-7eed" d="M 1825 4925 
Q 1600 4700 1375 4200 
Q 1150 3700 875 3150 
L 1550 3150 
Q 1775 3675 1850 4025 
Q 2100 3925 2425 3825 
Q 2300 3725 2050 3250 
Q 1800 2775 1175 1675 
Q 1375 1700 2200 1800 
Q 2125 1550 2125 1375 
Q 1825 1350 1437 1300 
Q 1050 1250 600 1125 
Q 475 1450 400 1650 
Q 650 1725 900 2062 
Q 1150 2400 1350 2800 
Q 725 2775 400 2650 
Q 300 2875 200 3125 
Q 425 3300 712 3875 
Q 1000 4450 1200 5100 
Q 1475 4975 1825 4925 
z
M 4025 4550 
Q 4025 4850 3975 5175 
L 4500 5175 
Q 4475 4900 4475 4550 
L 5150 4550 
Q 5575 4550 5975 4575 
L 5975 4150 
Q 5575 4175 5175 4175 
L 4475 4175 
L 4475 3650 
L 5925 3650 
Q 5675 2850 5575 2550 
Q 5325 2650 5125 2675 
Q 5275 3125 5350 3275 
L 3525 3275 
Q 3075 3275 2650 3250 
L 2650 3675 
Q 3075 3650 3525 3650 
L 4025 3650 
L 4025 4175 
L 3475 4175 
Q 3050 4175 2675 4150 
L 2675 4575 
Q 3025 4550 3475 4550 
L 4025 4550 
z
M 4725 2950 
Q 4625 2450 4625 2125 
Q 4625 1800 4575 1275 
L 5075 1275 
Q 5600 1275 6025 1300 
L 6025 875 
Q 5650 900 5075 900 
L 4525 900 
Q 4225 250 3875 12 
Q 3525 -225 2575 -600 
Q 2450 -325 2150 -75 
Q 3175 50 3512 325 
Q 3850 600 4025 900 
L 3525 900 
Q 3025 900 2575 875 
L 2575 1300 
Q 3025 1275 3525 1275 
L 4125 1275 
Q 4175 1725 4175 2125 
L 4175 3025 
Q 4400 2950 4725 2950 
z
M 2250 675 
Q 2225 425 2225 225 
Q 1975 225 1450 112 
Q 925 0 500 -125 
Q 425 175 300 425 
Q 900 475 1325 537 
Q 1750 600 2250 675 
z
M 4775 600 
Q 5775 75 6125 -125 
Q 5925 -350 5800 -550 
Q 4875 50 4525 200 
Q 4700 450 4775 600 
z
M 2850 2400 
Q 3350 1975 3625 1750 
Q 3450 1600 3275 1400 
Q 2800 1900 2550 2050 
Q 2725 2200 2850 2400 
z
M 3225 3100 
Q 3325 3025 4025 2525 
Q 3825 2375 3650 2175 
Q 3225 2575 2925 2775 
Q 3100 2950 3225 3100 
z
" transform="scale(0.015625)"/>
     </defs>
     <use xlink:href="#SimHei-7814"/>
     <use xlink:href="#SimHei-53d1" transform="translate(100 0)"/>
     <use xlink:href="#SimHei-6295" transform="translate(200 0)"/>
     <use xlink:href="#SimHei-5165" transform="translate(300 0)"/>
     <use xlink:href="#SimHei-5f3a" transform="translate(400 0)"/>
     <use xlink:href="#SimHei-5ea6" transform="translate(500 0)"/>
     <use xlink:href="#SimHei-7684" transform="translate(600 0)"/>
     <use xlink:href="#SimHei-6df7" transform="translate(700 0)"/>
     <use xlink:href="#SimHei-5408" transform="translate(800 0)"/>
     <use xlink:href="#SimHei-5206" transform="translate(900 0)"/>
     <use xlink:href="#SimHei-5e03" transform="translate(1000 0)"/>
     <use xlink:href="#SimHei-ff1a" transform="translate(1100 0)"/>
     <use xlink:href="#SimHei-30" transform="translate(1200 0)"/>
     <use xlink:href="#SimHei-20" transform="translate(1250 0)"/>
     <use xlink:href="#SimHei-70b9" transform="translate(1300 0)"/>
     <use xlink:href="#SimHei-5806" transform="translate(1400 0)"/>
     <use xlink:href="#SimHei-79ef" transform="translate(1500 0)"/>
     <use xlink:href="#SimHei-20" transform="translate(1600 0)"/>
     <use xlink:href="#SimHei-2b" transform="translate(1650 0)"/>
     <use xlink:href="#SimHei-20" transform="translate(1700 0)"/>
     <use xlink:href="#SimHei-6b63" transform="translate(1750 0)"/>
     <use xlink:href="#SimHei-503c" transform="translate(1850 0)"/>
     <use xlink:href="#SimHei-8fde" transform="translate(1950 0)"/>
     <use xlink:href="#SimHei-7eed" transform="translate(2050 0)"/>
     <use xlink:href="#SimHei-5206" transform="translate(2150 0)"/>
     <use xlink:href="#SimHei-5e03" transform="translate(2250 0)"/>
    </g>
   </g>
  </g>
 </g>
 <defs>
  <clipPath id="p5e672cc998">
   <rect x="33.926563" y="23.925" width="467.8" height="245.6725"/>
  </clipPath>
 </defs>
</svg>
