<?xml version="1.0" encoding="utf-8" standalone="no"?>
<!DOCTYPE svg PUBLIC "-//W3C//DTD SVG 1.1//EN"
  "http://www.w3.org/Graphics/SVG/1.1/DTD/svg11.dtd">
<svg xmlns:xlink="http://www.w3.org/1999/xlink" width="465.85pt" height="334.471562pt" viewBox="0 0 465.85 334.471562" xmlns="http://www.w3.org/2000/svg" version="1.1">
 <metadata>
  <rdf:RDF xmlns:dc="http://purl.org/dc/elements/1.1/" xmlns:cc="http://creativecommons.org/ns#" xmlns:rdf="http://www.w3.org/1999/02/22-rdf-syntax-ns#">
   <cc:Work>
    <dc:type rdf:resource="http://purl.org/dc/dcmitype/StillImage"/>
    <dc:date>2026-04-30T00:54:30.599623</dc:date>
    <dc:format>image/svg+xml</dc:format>
    <dc:creator>
     <cc:Agent>
      <dc:title>Matplotlib v3.10.8, https://matplotlib.org/</dc:title>
     </cc:Agent>
    </dc:creator>
   </cc:Work>
  </rdf:RDF>
 </metadata>
 <defs>
  <style type="text/css">*{stroke-linejoin: round; stroke-linecap: butt}</style>
 </defs>
 <g id="figure_1">
  <g id="patch_1">
   <path d="M 0 334.471562 
L 465.85 334.471562 
L 465.85 0 
L 0 0 
z
" style="fill: #ffffff"/>
  </g>
  <g id="axes_1">
   <g id="patch_2">
    <path d="M 25.2 298.396562 
L 455.9 298.396562 
L 455.9 23.976562 
L 25.2 23.976562 
z
" style="fill: #ffffff"/>
   </g>
   <g id="matplotlib.axis_1">
    <g id="xtick_1">
     <g id="line2d_1">
      <path d="M 25.2 298.396562 
L 25.2 23.976562 
" clip-path="url(#p4ba3aa0c76)" style="fill: none; stroke: #b0b0b0; stroke-opacity: 0.25; stroke-width: 0.8; stroke-linecap: square"/>
     </g>
     <g id="line2d_2">
      <defs>
       <path id="m84a85df0ef" d="M 0 0 
L 0 3.5 
" style="stroke: #000000; stroke-width: 0.8"/>
      </defs>
      <g>
       <use xlink:href="#m84a85df0ef" x="25.2" y="298.396562" style="stroke: #000000; stroke-width: 0.8"/>
      </g>
     </g>
     <g id="text_1">
      <!-- -4 -->
      <g transform="translate(19.7 312.959062) scale(0.11 -0.11)">
       <defs>
        <path id="SimHei-2d" d="M 2975 2125 
L 125 2125 
L 125 2525 
L 2975 2525 
L 2975 2125 
z
" transform="scale(0.015625)"/>
        <path id="SimHei-34" d="M 2000 1100 
L 75 1100 
L 75 1525 
L 2100 4450 
L 2475 4450 
L 2475 1525 
L 3075 1525 
L 3075 1100 
L 2475 1100 
L 2475 150 
L 2000 150 
L 2000 1100 
z
M 2000 1525 
L 2000 3500 
L 600 1525 
L 2000 1525 
z
" transform="scale(0.015625)"/>
       </defs>
       <use xlink:href="#SimHei-2d"/>
       <use xlink:href="#SimHei-34" transform="translate(50 0)"/>
      </g>
     </g>
    </g>
    <g id="xtick_2">
     <g id="line2d_3">
      <path d="M 79.0375 298.396562 
L 79.0375 23.976562 
" clip-path="url(#p4ba3aa0c76)" style="fill: none; stroke: #b0b0b0; stroke-opacity: 0.25; stroke-width: 0.8; stroke-linecap: square"/>
     </g>
     <g id="line2d_4">
      <g>
       <use xlink:href="#m84a85df0ef" x="79.0375" y="298.396562" style="stroke: #000000; stroke-width: 0.8"/>
      </g>
     </g>
     <g id="text_2">
      <!-- -3 -->
      <g transform="translate(73.5375 312.959062) scale(0.11 -0.11)">
       <defs>
        <path id="SimHei-33" d="M 250 1225 
L 700 1300 
Q 800 975 1025 762 
Q 1250 550 1587 562 
Q 1925 575 2125 837 
Q 2325 1100 2300 1437 
Q 2275 1775 2037 1962 
Q 1800 2150 1275 2225 
L 1275 2550 
Q 1800 2600 2037 2825 
Q 2275 3050 2250 3412 
Q 2225 3775 1925 3937 
Q 1625 4100 1287 3975 
Q 950 3850 750 3275 
L 300 3350 
Q 450 3800 712 4100 
Q 975 4400 1425 4450 
Q 1875 4500 2212 4337 
Q 2550 4175 2687 3837 
Q 2825 3500 2725 3100 
Q 2625 2700 2150 2400 
Q 2500 2250 2687 1950 
Q 2875 1650 2812 1162 
Q 2750 675 2375 375 
Q 2000 75 1525 87 
Q 1050 100 700 387 
Q 350 675 250 1225 
z
" transform="scale(0.015625)"/>
       </defs>
       <use xlink:href="#SimHei-2d"/>
       <use xlink:href="#SimHei-33" transform="translate(50 0)"/>
      </g>
     </g>
    </g>
    <g id="xtick_3">
     <g id="line2d_5">
      <path d="M 132.875 298.396562 
L 132.875 23.976562 
" clip-path="url(#p4ba3aa0c76)" style="fill: none; stroke: #b0b0b0; stroke-opacity: 0.25; stroke-width: 0.8; stroke-linecap: square"/>
     </g>
     <g id="line2d_6">
      <g>
       <use xlink:href="#m84a85df0ef" x="132.875" y="298.396562" style="stroke: #000000; stroke-width: 0.8"/>
      </g>
     </g>
     <g id="text_3">
      <!-- -2 -->
      <g transform="translate(127.375 312.959062) scale(0.11 -0.11)">
       <defs>
        <path id="SimHei-32" d="M 300 250 
Q 325 625 650 925 
Q 975 1225 1475 1862 
Q 1975 2500 2125 2850 
Q 2275 3200 2237 3450 
Q 2200 3700 2000 3862 
Q 1800 4025 1537 4000 
Q 1275 3975 1037 3800 
Q 800 3625 675 3275 
L 200 3350 
Q 400 3925 712 4187 
Q 1025 4450 1450 4475 
Q 1700 4500 1900 4462 
Q 2100 4425 2312 4287 
Q 2525 4150 2662 3875 
Q 2800 3600 2762 3212 
Q 2725 2825 2375 2287 
Q 2025 1750 1025 600 
L 2825 600 
L 2825 150 
L 300 150 
L 300 250 
z
" transform="scale(0.015625)"/>
       </defs>
       <use xlink:href="#SimHei-2d"/>
       <use xlink:href="#SimHei-32" transform="translate(50 0)"/>
      </g>
     </g>
    </g>
    <g id="xtick_4">
     <g id="line2d_7">
      <path d="M 186.7125 298.396562 
L 186.7125 23.976562 
" clip-path="url(#p4ba3aa0c76)" style="fill: none; stroke: #b0b0b0; stroke-opacity: 0.25; stroke-width: 0.8; stroke-linecap: square"/>
     </g>
     <g id="line2d_8">
      <g>
       <use xlink:href="#m84a85df0ef" x="186.7125" y="298.396562" style="stroke: #000000; stroke-width: 0.8"/>
      </g>
     </g>
     <g id="text_4">
      <!-- -1 -->
      <g transform="translate(181.2125 312.959062) scale(0.11 -0.11)">
       <defs>
        <path id="SimHei-31" d="M 1400 3600 
Q 1075 3275 575 2975 
L 575 3450 
Q 1200 3875 1600 4450 
L 1900 4450 
L 1900 150 
L 1400 150 
L 1400 3600 
z
" transform="scale(0.015625)"/>
       </defs>
       <use xlink:href="#SimHei-2d"/>
       <use xlink:href="#SimHei-31" transform="translate(50 0)"/>
      </g>
     </g>
    </g>
    <g id="xtick_5">
     <g id="line2d_9">
      <path d="M 240.55 298.396562 
L 240.55 23.976562 
" clip-path="url(#p4ba3aa0c76)" style="fill: none; stroke: #b0b0b0; stroke-opacity: 0.25; stroke-width: 0.8; stroke-linecap: square"/>
     </g>
     <g id="line2d_10">
      <g>
       <use xlink:href="#m84a85df0ef" x="240.55" y="298.396562" style="stroke: #000000; stroke-width: 0.8"/>
      </g>
     </g>
     <g id="text_5">
      <!-- 0 -->
      <g transform="translate(237.8 312.959062) scale(0.11 -0.11)">
       <defs>
        <path id="SimHei-30" d="M 225 2537 
Q 250 3200 412 3587 
Q 575 3975 875 4225 
Q 1175 4475 1612 4475 
Q 2050 4475 2375 4112 
Q 2700 3750 2800 3200 
Q 2900 2650 2862 1937 
Q 2825 1225 2612 775 
Q 2400 325 1975 150 
Q 1550 -25 1125 187 
Q 700 400 525 750 
Q 350 1100 275 1487 
Q 200 1875 225 2537 
z
M 750 2687 
Q 675 2000 800 1462 
Q 925 925 1212 700 
Q 1500 475 1800 612 
Q 2100 750 2237 1162 
Q 2375 1575 2375 2062 
Q 2375 2550 2337 2950 
Q 2300 3350 2112 3675 
Q 1925 4000 1612 4012 
Q 1300 4025 1062 3700 
Q 825 3375 750 2687 
z
" transform="scale(0.015625)"/>
       </defs>
       <use xlink:href="#SimHei-30"/>
      </g>
     </g>
    </g>
    <g id="xtick_6">
     <g id="line2d_11">
      <path d="M 294.3875 298.396562 
L 294.3875 23.976562 
" clip-path="url(#p4ba3aa0c76)" style="fill: none; stroke: #b0b0b0; stroke-opacity: 0.25; stroke-width: 0.8; stroke-linecap: square"/>
     </g>
     <g id="line2d_12">
      <g>
       <use xlink:href="#m84a85df0ef" x="294.3875" y="298.396562" style="stroke: #000000; stroke-width: 0.8"/>
      </g>
     </g>
     <g id="text_6">
      <!-- 1 -->
      <g transform="translate(291.6375 312.959062) scale(0.11 -0.11)">
       <use xlink:href="#SimHei-31"/>
      </g>
     </g>
    </g>
    <g id="xtick_7">
     <g id="line2d_13">
      <path d="M 348.225 298.396562 
L 348.225 23.976562 
" clip-path="url(#p4ba3aa0c76)" style="fill: none; stroke: #b0b0b0; stroke-opacity: 0.25; stroke-width: 0.8; stroke-linecap: square"/>
     </g>
     <g id="line2d_14">
      <g>
       <use xlink:href="#m84a85df0ef" x="348.225" y="298.396562" style="stroke: #000000; stroke-width: 0.8"/>
      </g>
     </g>
     <g id="text_7">
      <!-- 2 -->
      <g transform="translate(345.475 312.959062) scale(0.11 -0.11)">
       <use xlink:href="#SimHei-32"/>
      </g>
     </g>
    </g>
    <g id="xtick_8">
     <g id="line2d_15">
      <path d="M 402.0625 298.396562 
L 402.0625 23.976562 
" clip-path="url(#p4ba3aa0c76)" style="fill: none; stroke: #b0b0b0; stroke-opacity: 0.25; stroke-width: 0.8; stroke-linecap: square"/>
     </g>
     <g id="line2d_16">
      <g>
       <use xlink:href="#m84a85df0ef" x="402.0625" y="298.396562" style="stroke: #000000; stroke-width: 0.8"/>
      </g>
     </g>
     <g id="text_8">
      <!-- 3 -->
      <g transform="translate(399.3125 312.959062) scale(0.11 -0.11)">
       <use xlink:href="#SimHei-33"/>
      </g>
     </g>
    </g>
    <g id="xtick_9">
     <g id="line2d_17">
      <path d="M 455.9 298.396562 
L 455.9 23.976562 
" clip-path="url(#p4ba3aa0c76)" style="fill: none; stroke: #b0b0b0; stroke-opacity: 0.25; stroke-width: 0.8; stroke-linecap: square"/>
     </g>
     <g id="line2d_18">
      <g>
       <use xlink:href="#m84a85df0ef" x="455.9" y="298.396562" style="stroke: #000000; stroke-width: 0.8"/>
      </g>
     </g>
     <g id="text_9">
      <!-- 4 -->
      <g transform="translate(453.15 312.959062) scale(0.11 -0.11)">
       <use xlink:href="#SimHei-34"/>
      </g>
     </g>
    </g>
    <g id="text_10">
     <!-- $\mu$ -->
     <g transform="translate(237.03 324.961562) scale(0.11 -0.11)">
      <defs>
       <path id="DejaVuSans-Oblique-3bc" d="M -84 -1331 
L 856 3500 
L 1434 3500 
L 1009 1322 
Q 997 1256 987 1175 
Q 978 1094 978 1013 
Q 978 722 1161 565 
Q 1344 409 1684 409 
Q 2147 409 2431 671 
Q 2716 934 2816 1459 
L 3213 3500 
L 3788 3500 
L 3266 809 
Q 3253 750 3248 706 
Q 3244 663 3244 628 
Q 3244 531 3283 486 
Q 3322 441 3406 441 
Q 3438 441 3492 456 
Q 3547 472 3647 513 
L 3559 50 
Q 3422 -19 3297 -55 
Q 3172 -91 3053 -91 
Q 2847 -91 2730 40 
Q 2613 172 2613 403 
Q 2438 153 2195 31 
Q 1953 -91 1625 -91 
Q 1334 -91 1117 43 
Q 900 178 831 397 
L 494 -1331 
L -84 -1331 
z
" transform="scale(0.015625)"/>
      </defs>
      <use xlink:href="#DejaVuSans-Oblique-3bc" transform="translate(0 0.3125)"/>
     </g>
    </g>
   </g>
   <g id="matplotlib.axis_2">
    <g id="ytick_1">
     <g id="line2d_19">
      <path d="M 25.2 298.396562 
L 455.9 298.396562 
" clip-path="url(#p4ba3aa0c76)" style="fill: none; stroke: #b0b0b0; stroke-opacity: 0.25; stroke-width: 0.8; stroke-linecap: square"/>
     </g>
     <g id="line2d_20">
      <defs>
       <path id="m6fb0479407" d="M 0 0 
L -3.5 0 
" style="stroke: #000000; stroke-width: 0.8"/>
      </defs>
      <g>
       <use xlink:href="#m6fb0479407" x="25.2" y="298.396562" style="stroke: #000000; stroke-width: 0.8"/>
      </g>
     </g>
     <g id="text_11">
      <!-- -4 -->
      <g transform="translate(7.2 302.177812) scale(0.11 -0.11)">
       <use xlink:href="#SimHei-2d"/>
       <use xlink:href="#SimHei-34" transform="translate(50 0)"/>
      </g>
     </g>
    </g>
    <g id="ytick_2">
     <g id="line2d_21">
      <path d="M 25.2 266.111857 
L 455.9 266.111857 
" clip-path="url(#p4ba3aa0c76)" style="fill: none; stroke: #b0b0b0; stroke-opacity: 0.25; stroke-width: 0.8; stroke-linecap: square"/>
     </g>
     <g id="line2d_22">
      <g>
       <use xlink:href="#m6fb0479407" x="25.2" y="266.111857" style="stroke: #000000; stroke-width: 0.8"/>
      </g>
     </g>
     <g id="text_12">
      <!-- -3 -->
      <g transform="translate(7.2 269.893107) scale(0.11 -0.11)">
       <use xlink:href="#SimHei-2d"/>
       <use xlink:href="#SimHei-33" transform="translate(50 0)"/>
      </g>
     </g>
    </g>
    <g id="ytick_3">
     <g id="line2d_23">
      <path d="M 25.2 233.827151 
L 455.9 233.827151 
" clip-path="url(#p4ba3aa0c76)" style="fill: none; stroke: #b0b0b0; stroke-opacity: 0.25; stroke-width: 0.8; stroke-linecap: square"/>
     </g>
     <g id="line2d_24">
      <g>
       <use xlink:href="#m6fb0479407" x="25.2" y="233.827151" style="stroke: #000000; stroke-width: 0.8"/>
      </g>
     </g>
     <g id="text_13">
      <!-- -2 -->
      <g transform="translate(7.2 237.608401) scale(0.11 -0.11)">
       <use xlink:href="#SimHei-2d"/>
       <use xlink:href="#SimHei-32" transform="translate(50 0)"/>
      </g>
     </g>
    </g>
    <g id="ytick_4">
     <g id="line2d_25">
      <path d="M 25.2 201.542445 
L 455.9 201.542445 
" clip-path="url(#p4ba3aa0c76)" style="fill: none; stroke: #b0b0b0; stroke-opacity: 0.25; stroke-width: 0.8; stroke-linecap: square"/>
     </g>
     <g id="line2d_26">
      <g>
       <use xlink:href="#m6fb0479407" x="25.2" y="201.542445" style="stroke: #000000; stroke-width: 0.8"/>
      </g>
     </g>
     <g id="text_14">
      <!-- -1 -->
      <g transform="translate(7.2 205.323695) scale(0.11 -0.11)">
       <use xlink:href="#SimHei-2d"/>
       <use xlink:href="#SimHei-31" transform="translate(50 0)"/>
      </g>
     </g>
    </g>
    <g id="ytick_5">
     <g id="line2d_27">
      <path d="M 25.2 169.257739 
L 455.9 169.257739 
" clip-path="url(#p4ba3aa0c76)" style="fill: none; stroke: #b0b0b0; stroke-opacity: 0.25; stroke-width: 0.8; stroke-linecap: square"/>
     </g>
     <g id="line2d_28">
      <g>
       <use xlink:href="#m6fb0479407" x="25.2" y="169.257739" style="stroke: #000000; stroke-width: 0.8"/>
      </g>
     </g>
     <g id="text_15">
      <!-- 0 -->
      <g transform="translate(12.7 173.038989) scale(0.11 -0.11)">
       <use xlink:href="#SimHei-30"/>
      </g>
     </g>
    </g>
    <g id="ytick_6">
     <g id="line2d_29">
      <path d="M 25.2 136.973033 
L 455.9 136.973033 
" clip-path="url(#p4ba3aa0c76)" style="fill: none; stroke: #b0b0b0; stroke-opacity: 0.25; stroke-width: 0.8; stroke-linecap: square"/>
     </g>
     <g id="line2d_30">
      <g>
       <use xlink:href="#m6fb0479407" x="25.2" y="136.973033" style="stroke: #000000; stroke-width: 0.8"/>
      </g>
     </g>
     <g id="text_16">
      <!-- 1 -->
      <g transform="translate(12.7 140.754283) scale(0.11 -0.11)">
       <use xlink:href="#SimHei-31"/>
      </g>
     </g>
    </g>
    <g id="ytick_7">
     <g id="line2d_31">
      <path d="M 25.2 104.688327 
L 455.9 104.688327 
" clip-path="url(#p4ba3aa0c76)" style="fill: none; stroke: #b0b0b0; stroke-opacity: 0.25; stroke-width: 0.8; stroke-linecap: square"/>
     </g>
     <g id="line2d_32">
      <g>
       <use xlink:href="#m6fb0479407" x="25.2" y="104.688327" style="stroke: #000000; stroke-width: 0.8"/>
      </g>
     </g>
     <g id="text_17">
      <!-- 2 -->
      <g transform="translate(12.7 108.469577) scale(0.11 -0.11)">
       <use xlink:href="#SimHei-32"/>
      </g>
     </g>
    </g>
    <g id="ytick_8">
     <g id="line2d_33">
      <path d="M 25.2 72.403621 
L 455.9 72.403621 
" clip-path="url(#p4ba3aa0c76)" style="fill: none; stroke: #b0b0b0; stroke-opacity: 0.25; stroke-width: 0.8; stroke-linecap: square"/>
     </g>
     <g id="line2d_34">
      <g>
       <use xlink:href="#m6fb0479407" x="25.2" y="72.403621" style="stroke: #000000; stroke-width: 0.8"/>
      </g>
     </g>
     <g id="text_18">
      <!-- 3 -->
      <g transform="translate(12.7 76.184871) scale(0.11 -0.11)">
       <use xlink:href="#SimHei-33"/>
      </g>
     </g>
    </g>
    <g id="ytick_9">
     <g id="line2d_35">
      <path d="M 25.2 40.118915 
L 455.9 40.118915 
" clip-path="url(#p4ba3aa0c76)" style="fill: none; stroke: #b0b0b0; stroke-opacity: 0.25; stroke-width: 0.8; stroke-linecap: square"/>
     </g>
     <g id="line2d_36">
      <g>
       <use xlink:href="#m6fb0479407" x="25.2" y="40.118915" style="stroke: #000000; stroke-width: 0.8"/>
      </g>
     </g>
     <g id="text_19">
      <!-- 4 -->
      <g transform="translate(12.7 43.900165) scale(0.11 -0.11)">
       <use xlink:href="#SimHei-34"/>
      </g>
     </g>
    </g>
   </g>
   <g id="line2d_37">
    <path d="M 25.2 298.396562 
L 455.9 40.118915 
L 455.9 40.118915 
" clip-path="url(#p4ba3aa0c76)" style="fill: none; stroke-dasharray: 2,3.3; stroke-dashoffset: 0; stroke: #1f77b4; stroke-width: 2"/>
   </g>
   <g id="line2d_38">
    <path d="M 25.2 32.835255 
L 59.160075 52.120592 
L 87.729662 68.094821 
L 111.986859 81.411968 
L 133.009762 92.710745 
L 151.876471 102.602293 
L 168.586984 111.115412 
L 183.68035 118.557013 
L 197.156571 124.961001 
L 209.554693 130.615305 
L 220.874718 135.546989 
L 231.655695 140.0095 
L 241.897622 144.010526 
L 251.600501 147.563345 
L 260.76433 150.686958 
L 269.92816 153.568276 
L 278.552941 156.045694 
L 287.177722 158.286109 
L 295.263454 160.165914 
L 303.349186 161.830705 
L 311.973967 163.372206 
L 320.598748 164.679713 
L 329.223529 165.766321 
L 338.387359 166.698737 
L 348.090238 167.464883 
L 358.871214 168.090442 
L 371.269337 168.576882 
L 385.823655 168.91864 
L 405.229412 169.137879 
L 437.033292 169.24123 
L 455.9 169.253418 
L 455.9 169.253418 
" clip-path="url(#p4ba3aa0c76)" style="fill: none; stroke-dasharray: 7.4,3.2; stroke-dashoffset: 0; stroke: #ff7f0e; stroke-width: 2"/>
   </g>
   <g id="line2d_39">
    <path d="M 25.2 161.974079 
L 57.00388 160.971685 
L 83.95632 159.905537 
L 107.135419 158.77477 
L 127.619274 157.559821 
L 145.946934 156.253107 
L 162.118398 154.884177 
L 176.672716 153.439622 
L 190.148936 151.885813 
L 202.547059 150.238753 
L 214.406133 148.435431 
L 225.187109 146.573718 
L 235.429036 144.582861 
L 245.131915 142.473964 
L 254.295745 140.263345 
L 263.459574 137.822087 
L 272.084355 135.299194 
L 280.709136 132.546107 
L 289.333917 129.55417 
L 297.958698 126.318456 
L 306.583479 122.838545 
L 315.20826 119.119068 
L 324.37209 114.915786 
L 333.53592 110.47136 
L 343.777847 105.247798 
L 354.558824 99.498197 
L 366.956946 92.629433 
L 382.050313 83.995297 
L 401.45607 72.619082 
L 432.720901 53.996669 
L 455.9 40.114595 
L 455.9 40.114595 
" clip-path="url(#p4ba3aa0c76)" style="fill: none; stroke: #2ca02c; stroke-width: 2.2; stroke-linecap: square"/>
   </g>
   <g id="line2d_40">
    <path d="M 25.2 169.257739 
L 455.9 169.257739 
" clip-path="url(#p4ba3aa0c76)" style="fill: none; stroke: #000000; stroke-opacity: 0.7; stroke-width: 0.8; stroke-linecap: square"/>
   </g>
   <g id="line2d_41">
    <path d="M 240.55 298.396562 
L 240.55 23.976562 
" clip-path="url(#p4ba3aa0c76)" style="fill: none; stroke: #000000; stroke-opacity: 0.7; stroke-width: 0.8; stroke-linecap: square"/>
   </g>
   <g id="patch_3">
    <path d="M 25.2 298.396562 
L 25.2 23.976562 
" style="fill: none; stroke: #000000; stroke-width: 0.8; stroke-linejoin: miter; stroke-linecap: square"/>
   </g>
   <g id="patch_4">
    <path d="M 25.2 298.396562 
L 455.9 298.396562 
" style="fill: none; stroke: #000000; stroke-width: 0.8; stroke-linejoin: miter; stroke-linecap: square"/>
   </g>
   <g id="patch_5">
    <path d="M 111.03565 147.088097 
Q 115.856608 151.796861 119.877745 155.724418 
" style="fill: none; stroke: #000000; stroke-linecap: round"/>
    <path d="M 118.340481 151.287435 
L 119.877745 155.724418 
L 115.4058 154.292039 
" style="fill: none; stroke: #000000; stroke-linecap: round"/>
   </g>
   <g id="text_20">
    <g id="patch_6">
     <path d="M 41.35125 145.189004 
L 146.35125 145.189004 
Q 150.02625 145.189004 150.02625 141.514004 
L 150.02625 118.200722 
Q 150.02625 114.525722 146.35125 114.525722 
L 41.35125 114.525722 
Q 37.67625 114.525722 37.67625 118.200722 
L 37.67625 141.514004 
Q 37.67625 145.189004 41.35125 145.189004 
z
" style="fill: #fff7e6; opacity: 0.9; stroke: #d08c00; stroke-linejoin: miter"/>
    </g>
    <!-- 即使 $\mu&lt;0$，正值样本 -->
    <g transform="translate(41.35125 127.808222) scale(0.105 -0.105)">
     <defs>
      <path id="SimHei-5373" d="M 3200 4900 
Q 3175 4525 3175 4125 
L 3175 2850 
Q 3175 2375 3200 1975 
L 1200 1975 
L 1200 475 
Q 2100 850 2400 1000 
Q 2275 1200 2075 1425 
Q 2350 1600 2500 1750 
Q 2725 1425 3000 1012 
Q 3275 600 3500 200 
Q 3300 100 3025 -100 
Q 2850 275 2625 650 
Q 2025 350 1587 150 
Q 1150 -50 750 -300 
Q 600 -50 450 175 
Q 700 325 700 725 
L 700 4125 
Q 700 4525 675 4900 
L 3200 4900 
z
M 5800 4850 
Q 5775 4275 5775 3775 
L 5775 1075 
Q 5775 700 5600 562 
Q 5425 425 4800 300 
Q 4750 700 4575 900 
Q 5125 875 5212 925 
Q 5300 975 5300 1350 
L 5300 4475 
L 4175 4475 
L 4175 -625 
L 3675 -625 
Q 3700 0 3700 725 
L 3700 3875 
Q 3700 4400 3675 4850 
L 5800 4850 
z
M 2675 3625 
L 2675 4525 
L 1200 4525 
L 1200 3625 
L 2675 3625 
z
M 2675 2375 
L 2675 3250 
L 1200 3250 
L 1200 2375 
L 2675 2375 
z
" transform="scale(0.015625)"/>
      <path id="SimHei-4f7f" d="M 3700 4375 
Q 3700 4925 3675 5250 
Q 4000 5200 4250 5175 
Q 4175 4925 4175 4375 
L 4975 4375 
Q 5525 4375 5975 4400 
L 5975 3950 
Q 5500 3975 4975 3975 
L 4175 3975 
L 4175 3425 
L 5700 3425 
Q 5675 3075 5675 2675 
Q 5675 2300 5700 1900 
L 4150 1900 
Q 4100 1100 3875 600 
Q 4575 -25 6100 -50 
Q 5925 -175 5825 -525 
Q 4500 -475 3575 225 
Q 3000 -375 2175 -675 
Q 2150 -500 1825 -300 
Q 2775 -25 3225 500 
Q 2800 925 2325 1500 
Q 2475 1575 2675 1775 
Q 3075 1225 3500 900 
Q 3650 1325 3675 1900 
L 2200 1900 
Q 2225 2300 2225 2700 
Q 2225 3100 2200 3425 
L 3700 3425 
L 3700 3975 
L 2875 3975 
Q 2350 3975 1975 3950 
L 1975 4400 
Q 2325 4375 2850 4375 
L 3700 4375 
z
M 1925 4975 
Q 1800 4825 1525 4050 
L 1525 600 
Q 1525 50 1550 -575 
L 1050 -575 
Q 1075 25 1075 550 
L 1075 3200 
Q 725 2475 600 2250 
Q 475 2475 225 2625 
Q 500 3000 887 3812 
Q 1275 4625 1350 5200 
L 1925 4975 
z
M 5200 2300 
L 5200 3050 
L 4175 3050 
L 4175 2300 
L 5200 2300 
z
M 3700 2300 
L 3700 3050 
L 2700 3050 
L 2700 2300 
L 3700 2300 
z
" transform="scale(0.015625)"/>
      <path id="SimHei-20" transform="scale(0.015625)"/>
      <path id="DejaVuSans-3c" d="M 4684 3150 
L 1459 2003 
L 4684 863 
L 4684 294 
L 678 1747 
L 678 2266 
L 4684 3719 
L 4684 3150 
z
" transform="scale(0.015625)"/>
      <path id="DejaVuSans-30" d="M 2034 4250 
Q 1547 4250 1301 3770 
Q 1056 3291 1056 2328 
Q 1056 1369 1301 889 
Q 1547 409 2034 409 
Q 2525 409 2770 889 
Q 3016 1369 3016 2328 
Q 3016 3291 2770 3770 
Q 2525 4250 2034 4250 
z
M 2034 4750 
Q 2819 4750 3233 4129 
Q 3647 3509 3647 2328 
Q 3647 1150 3233 529 
Q 2819 -91 2034 -91 
Q 1250 -91 836 529 
Q 422 1150 422 2328 
Q 422 3509 836 4129 
Q 1250 4750 2034 4750 
z
" transform="scale(0.015625)"/>
      <path id="SimHei-ff0c" d="M 875 950 
L 1775 950 
L 1775 -50 
Q 1700 -675 1150 -975 
L 900 -750 
Q 1350 -500 1350 0 
L 875 0 
L 875 950 
z
" transform="scale(0.015625)"/>
      <path id="SimHei-6b63" d="M 4825 4625 
Q 5300 4625 5675 4650 
L 5675 4150 
Q 5300 4175 4775 4175 
L 3575 4175 
L 3575 2600 
L 4850 2600 
Q 5250 2600 5550 2625 
L 5550 2150 
Q 5250 2175 4850 2175 
L 3575 2175 
L 3575 150 
L 4850 150 
Q 5375 150 5900 175 
L 5900 -325 
Q 5375 -300 4975 -300 
L 1175 -300 
Q 700 -300 375 -325 
L 375 175 
Q 700 150 1175 150 
L 1325 150 
L 1325 2350 
Q 1325 2800 1300 3125 
L 1875 3125 
Q 1850 2825 1850 2350 
L 1850 150 
L 3075 150 
L 3075 4175 
L 1625 4175 
Q 1150 4175 800 4150 
L 800 4650 
Q 1150 4625 1625 4625 
L 4825 4625 
z
" transform="scale(0.015625)"/>
      <path id="SimHei-503c" d="M 3675 4450 
L 3675 5100 
Q 3975 5075 4350 5050 
Q 4225 4875 4200 4450 
L 5125 4450 
Q 5550 4450 5875 4475 
L 5875 4025 
Q 5525 4050 5125 4050 
L 4175 4050 
L 4125 3500 
L 5400 3500 
Q 5375 3200 5375 2700 
L 5375 150 
Q 5875 150 6100 175 
L 6100 -275 
Q 5775 -250 5200 -250 
L 2850 -250 
Q 2275 -250 1900 -275 
L 1900 175 
Q 2125 150 2600 150 
L 2600 2700 
Q 2600 3175 2575 3500 
L 3600 3500 
L 3650 4050 
L 3200 4050 
Q 2575 4050 2225 4025 
L 2225 4475 
Q 2550 4450 3200 4450 
L 3675 4450 
z
M 2225 4900 
Q 2025 4675 1650 3750 
L 1650 450 
Q 1650 -75 1675 -550 
L 1150 -550 
Q 1175 -125 1175 375 
L 1175 2950 
Q 875 2450 625 2150 
Q 425 2425 250 2575 
Q 500 2825 937 3537 
Q 1375 4250 1625 5150 
Q 1975 4975 2225 4900 
z
M 4925 2650 
L 4925 3150 
L 3075 3150 
L 3075 2650 
L 4925 2650 
z
M 4925 150 
L 4925 625 
L 3075 625 
L 3075 150 
L 4925 150 
z
M 4925 1000 
L 4925 1450 
L 3075 1450 
L 3075 1000 
L 4925 1000 
z
M 4925 1825 
L 4925 2275 
L 3075 2275 
L 3075 1825 
L 4925 1825 
z
" transform="scale(0.015625)"/>
      <path id="SimHei-6837" d="M 4350 4025 
Q 4600 4575 4850 5225 
Q 5250 5075 5375 5000 
Q 5150 4725 4850 4025 
L 4950 4025 
Q 5650 4050 5950 4050 
L 5950 3600 
Q 5675 3625 5175 3625 
L 4550 3625 
L 4550 2650 
L 4950 2650 
Q 5525 2675 5800 2675 
L 5800 2225 
Q 5475 2250 5025 2250 
L 4550 2250 
L 4550 1225 
L 5325 1225 
Q 5800 1250 6100 1250 
L 6100 800 
Q 5825 825 5325 825 
L 4550 825 
L 4550 275 
Q 4550 -250 4575 -600 
L 4075 -600 
L 4075 825 
L 3475 825 
Q 3000 825 2550 800 
L 2550 1275 
Q 3000 1250 3500 1225 
L 4075 1225 
L 4075 2250 
L 3650 2250 
Q 3225 2250 2900 2225 
L 2900 2700 
Q 3200 2675 3675 2650 
L 4075 2650 
L 4075 3625 
L 3475 3625 
Q 3050 3625 2750 3600 
L 2750 4075 
Q 3050 4050 3475 4025 
L 4350 4025 
z
M 1325 4350 
Q 1325 4775 1300 5125 
L 1825 5125 
Q 1800 4725 1800 4350 
L 1800 3750 
Q 2125 3750 2475 3775 
L 2475 3325 
Q 2125 3350 1800 3350 
L 1800 2425 
Q 2000 2600 2100 2675 
Q 2375 2325 2725 1775 
Q 2575 1700 2300 1475 
Q 2025 1975 1800 2350 
L 1800 475 
Q 1800 -50 1825 -575 
L 1300 -575 
Q 1325 -25 1325 475 
L 1325 2250 
Q 925 1300 525 725 
Q 425 950 225 1175 
Q 950 2150 1225 3350 
Q 825 3350 350 3325 
L 350 3775 
Q 825 3750 1325 3750 
L 1325 4350 
z
M 3575 5200 
Q 3800 4775 3950 4350 
Q 3650 4250 3525 4175 
Q 3350 4600 3150 5000 
Q 3425 5125 3575 5200 
z
" transform="scale(0.015625)"/>
      <path id="SimHei-672c" d="M 2950 3925 
L 2950 4425 
Q 2950 4825 2925 5175 
L 3475 5175 
Q 3450 4900 3450 4450 
L 3450 3925 
L 4850 3925 
Q 5275 3925 5850 3950 
L 5850 3475 
Q 5300 3500 4875 3500 
L 3850 3500 
Q 4200 2350 4862 1687 
Q 5525 1025 6075 800 
Q 5850 625 5650 325 
Q 4800 900 4262 1637 
Q 3725 2375 3450 3350 
L 3450 1000 
L 3775 1000 
Q 4175 1000 4600 1025 
L 4600 550 
Q 4175 575 3750 575 
L 3450 575 
Q 3450 0 3475 -600 
L 2925 -600 
Q 2950 0 2950 575 
L 2625 575 
Q 2225 575 1825 550 
L 1825 1025 
Q 2225 1000 2625 1000 
L 2950 1000 
L 2950 3300 
Q 2550 2275 2062 1575 
Q 1575 875 750 175 
Q 550 450 275 575 
Q 1100 1075 1650 1825 
Q 2200 2575 2525 3500 
L 1425 3500 
Q 1025 3500 575 3475 
L 575 3950 
Q 1025 3925 1400 3925 
L 2950 3925 
z
" transform="scale(0.015625)"/>
     </defs>
     <use xlink:href="#SimHei-5373" transform="translate(0 0.96875)"/>
     <use xlink:href="#SimHei-4f7f" transform="translate(100 0.96875)"/>
     <use xlink:href="#SimHei-20" transform="translate(200 0.96875)"/>
     <use xlink:href="#DejaVuSans-Oblique-3bc" transform="translate(250 0.96875)"/>
     <use xlink:href="#DejaVuSans-3c" transform="translate(333.105469 0.96875)"/>
     <use xlink:href="#DejaVuSans-30" transform="translate(436.376953 0.96875)"/>
     <use xlink:href="#SimHei-ff0c" transform="translate(500 0.96875)"/>
     <use xlink:href="#SimHei-6b63" transform="translate(600 0.96875)"/>
     <use xlink:href="#SimHei-503c" transform="translate(700 0.96875)"/>
     <use xlink:href="#SimHei-6837" transform="translate(800 0.96875)"/>
     <use xlink:href="#SimHei-672c" transform="translate(900 0.96875)"/>
    </g>
    <!-- 的条件均值仍为正 -->
    <g transform="translate(41.35125 140.201504) scale(0.105 -0.105)">
     <defs>
      <path id="SimHei-7684" d="M 2100 4975 
Q 1975 4750 1750 3950 
L 2875 3950 
Q 2850 3525 2850 2875 
L 2850 675 
Q 2850 300 2875 -400 
L 2375 -400 
L 2375 100 
L 1100 100 
L 1100 -450 
L 600 -450 
Q 625 350 625 550 
L 625 2850 
Q 625 3525 600 3950 
L 1325 3950 
Q 1450 4525 1525 5150 
Q 1875 5025 2100 4975 
z
M 5825 3075 
Q 5800 1550 5700 175 
Q 5650 -275 5225 -425 
Q 4800 -575 4275 -625 
Q 4250 -350 4050 -50 
Q 4550 -75 4837 -25 
Q 5125 25 5200 200 
Q 5275 375 5312 1225 
Q 5350 2075 5375 3600 
L 3925 3600 
Q 3725 3125 3350 2475 
Q 3175 2650 2925 2750 
Q 3150 3050 3350 3475 
Q 3550 3900 3700 4400 
Q 3850 4900 3875 5175 
Q 4225 5025 4475 4950 
Q 4350 4750 4262 4512 
Q 4175 4275 4075 4050 
L 5850 4050 
Q 5825 3525 5825 3075 
z
M 2375 525 
L 2375 1850 
L 1100 1850 
L 1100 525 
L 2375 525 
z
M 2375 2275 
L 2375 3525 
L 1100 3525 
L 1100 2275 
L 2375 2275 
z
M 4350 2050 
Q 4500 1750 4700 1275 
Q 4525 1200 4225 1025 
Q 4050 1500 3900 1837 
Q 3750 2175 3600 2400 
Q 3775 2500 4050 2650 
L 4350 2050 
z
" transform="scale(0.015625)"/>
      <path id="SimHei-6761" d="M 2700 5075 
Q 2600 5000 2400 4700 
L 5225 4700 
Q 4975 4300 4625 3875 
Q 4275 3450 3750 3050 
Q 4100 2850 4750 2687 
Q 5400 2525 6200 2525 
Q 5950 2275 5925 2000 
Q 5000 2100 4387 2300 
Q 3775 2500 3275 2825 
Q 2500 2375 1837 2175 
Q 1175 1975 575 1850 
Q 500 2125 275 2300 
Q 1250 2400 1912 2625 
Q 2575 2850 2825 3075 
Q 2400 3425 1925 3975 
Q 1600 3550 1150 3075 
Q 925 3300 725 3350 
Q 1225 3775 1625 4350 
Q 2025 4925 2125 5300 
Q 2525 5125 2700 5075 
z
M 2950 1775 
Q 2950 2000 2925 2400 
L 3475 2400 
Q 3450 1975 3450 1775 
L 4500 1775 
Q 5025 1775 5550 1800 
L 5550 1325 
Q 5025 1350 4525 1350 
L 3450 1350 
L 3450 -50 
Q 3475 -575 2450 -625 
Q 2375 -375 2225 -75 
Q 2975 -150 2950 200 
L 2950 1350 
L 1850 1350 
Q 1350 1350 825 1325 
L 825 1800 
Q 1350 1775 1850 1775 
L 2950 1775 
z
M 3300 3300 
Q 4025 3775 4325 4275 
L 2250 4275 
Q 2700 3675 3300 3300 
z
M 4200 1000 
Q 4950 575 5800 0 
Q 5650 -175 5500 -400 
Q 5150 -150 4787 100 
Q 4425 350 3925 600 
Q 4075 775 4200 1000 
z
M 2375 700 
Q 2275 600 1800 250 
Q 1325 -100 850 -400 
Q 700 -200 500 -50 
Q 825 100 1287 437 
Q 1750 775 1950 1050 
L 2375 700 
z
" transform="scale(0.015625)"/>
      <path id="SimHei-4ef6" d="M 3275 4475 
Q 3150 4375 2925 3775 
L 3900 3775 
L 3900 4275 
Q 3900 4900 3875 5125 
L 4400 5125 
Q 4375 4925 4375 4300 
L 4375 3775 
L 5125 3775 
Q 5450 3775 5725 3800 
L 5725 3325 
Q 5450 3350 5125 3350 
L 4375 3350 
L 4375 2000 
L 5200 2000 
Q 5575 2000 6100 2025 
L 6100 1550 
Q 5675 1575 5175 1575 
L 4375 1575 
L 4375 275 
Q 4375 -100 4400 -550 
L 3875 -550 
Q 3900 -100 3900 275 
L 3900 1575 
L 2925 1575 
Q 2500 1575 1925 1550 
L 1925 2025 
Q 2475 2000 2825 2000 
L 3900 2000 
L 3900 3350 
L 2775 3350 
Q 2700 3150 2350 2425 
Q 2275 2500 1900 2650 
Q 2150 3025 2350 3500 
Q 2550 3975 2700 4700 
Q 2900 4575 3275 4475 
z
M 1150 3200 
Q 900 2825 550 2375 
Q 425 2625 200 2750 
Q 650 3200 1025 3850 
Q 1400 4500 1650 5250 
Q 1950 5050 2175 4975 
Q 2000 4825 1625 4025 
L 1625 625 
Q 1625 -175 1650 -575 
L 1125 -575 
Q 1150 -225 1150 600 
L 1150 3200 
z
" transform="scale(0.015625)"/>
      <path id="SimHei-5747" d="M 5775 275 
Q 5775 -325 5362 -450 
Q 4950 -575 4425 -600 
Q 4375 -275 4250 25 
Q 4950 -25 5125 62 
Q 5300 150 5300 500 
L 5375 3700 
L 3550 3700 
Q 3425 3375 3262 3037 
Q 3100 2700 2925 2400 
Q 2675 2550 2475 2625 
Q 3150 3625 3500 5200 
Q 3800 5100 4075 5025 
Q 3975 4875 3875 4650 
Q 3775 4425 3675 4125 
L 5900 4125 
L 5775 275 
z
M 1250 3625 
L 1250 4375 
Q 1250 4775 1225 5100 
L 1775 5100 
Q 1750 4725 1750 4375 
L 1750 3625 
L 1900 3625 
Q 2200 3625 2525 3650 
L 2525 3150 
Q 2200 3175 1900 3175 
L 1750 3175 
L 1750 1100 
L 2500 1375 
Q 2475 1125 2525 900 
Q 1225 475 962 362 
Q 700 250 475 150 
Q 375 475 250 750 
Q 575 800 800 850 
Q 1025 900 1250 975 
L 1250 3175 
L 1125 3175 
Q 850 3175 400 3150 
L 400 3650 
Q 850 3625 1100 3625 
L 1250 3625 
z
M 4950 1625 
Q 4675 1425 4137 1050 
Q 3600 675 3175 300 
Q 3000 575 2850 775 
Q 3350 1050 3762 1325 
Q 4175 1600 4775 2075 
Q 4825 1850 4950 1625 
z
M 3775 3150 
Q 4125 2800 4475 2300 
Q 4250 2125 4100 1975 
Q 3900 2325 3450 2825 
Q 3600 3000 3775 3150 
z
" transform="scale(0.015625)"/>
      <path id="SimHei-4ecd" d="M 3700 4350 
Q 3700 2200 3325 1175 
Q 2950 150 2350 -550 
Q 2200 -375 1875 -225 
Q 2500 375 2875 1425 
Q 3250 2475 3200 4350 
Q 2700 4350 2475 4325 
L 2475 4800 
Q 2950 4775 3300 4775 
L 5525 4775 
Q 5450 4425 5175 2900 
L 6075 2900 
L 5950 1900 
L 5725 75 
Q 5675 -200 5437 -337 
Q 5200 -475 4550 -550 
Q 4550 -325 4350 25 
Q 4925 0 5087 100 
Q 5250 200 5275 450 
L 5525 2450 
L 4550 2450 
Q 4750 3325 4900 4350 
L 3700 4350 
z
M 275 2300 
Q 650 2675 1175 3675 
Q 1700 4675 1825 5175 
Q 2075 5025 2350 4900 
Q 2225 4775 1725 3725 
L 1725 500 
Q 1725 -200 1750 -675 
L 1225 -675 
Q 1250 -225 1250 425 
L 1250 2900 
Q 1075 2575 650 1975 
Q 450 2200 275 2300 
z
" transform="scale(0.015625)"/>
      <path id="SimHei-4e3a" d="M 3525 5125 
Q 3425 4900 3387 4475 
Q 3350 4050 3275 3350 
L 5850 3350 
Q 5800 2925 5775 2625 
L 5500 125 
Q 5425 -325 5025 -450 
Q 4625 -575 4025 -600 
Q 3950 -250 3775 0 
Q 4525 -50 4750 25 
Q 4975 100 5025 475 
L 5275 2925 
L 3225 2925 
Q 3000 1775 2387 925 
Q 1775 75 850 -600 
Q 600 -275 400 -150 
Q 1200 250 1837 1037 
Q 2475 1825 2700 2925 
L 1875 2925 
Q 1450 2925 775 2900 
L 775 3375 
Q 1450 3350 1700 3350 
L 2775 3350 
Q 2875 4200 2875 5225 
Q 3275 5150 3525 5125 
z
M 3500 2175 
Q 4125 1775 4750 1350 
Q 4600 1200 4400 850 
Q 3850 1350 3250 1725 
Q 3425 2000 3500 2175 
z
M 1125 4550 
Q 1350 4725 1500 4900 
Q 2200 4225 2450 3925 
Q 2250 3750 2025 3550 
Q 1750 3950 1125 4550 
z
" transform="scale(0.015625)"/>
     </defs>
     <use xlink:href="#SimHei-7684"/>
     <use xlink:href="#SimHei-6761" transform="translate(100 0)"/>
     <use xlink:href="#SimHei-4ef6" transform="translate(200 0)"/>
     <use xlink:href="#SimHei-5747" transform="translate(300 0)"/>
     <use xlink:href="#SimHei-503c" transform="translate(400 0)"/>
     <use xlink:href="#SimHei-4ecd" transform="translate(500 0)"/>
     <use xlink:href="#SimHei-4e3a" transform="translate(600 0)"/>
     <use xlink:href="#SimHei-6b63" transform="translate(700 0)"/>
    </g>
   </g>
   <g id="text_21">
    <!-- 截断型正态变量的条件期望与逆米尔斯比率 -->
    <g transform="translate(115.15 17.976562) scale(0.132 -0.132)">
     <defs>
      <path id="SimHei-622a" d="M 1400 2750 
L 2225 2750 
Q 2175 2925 2050 3150 
Q 2250 3225 2525 3325 
Q 2675 2950 2750 2775 
Q 3200 2775 3575 2800 
L 3575 2350 
Q 3125 2375 2575 2375 
L 2575 1950 
Q 3075 1950 3475 1975 
L 3475 1550 
Q 3100 1575 2575 1575 
L 2575 1175 
Q 3000 1175 3450 1200 
L 3450 775 
Q 3050 800 2575 800 
L 2575 350 
Q 3100 350 3475 375 
L 3475 -50 
Q 3600 25 3750 125 
Q 4075 350 4375 700 
Q 4225 1100 4087 1712 
Q 3950 2325 3875 3425 
L 1150 3425 
Q 775 3425 375 3400 
L 375 3850 
Q 800 3800 1150 3800 
L 1900 3800 
L 1900 4250 
Q 1175 4250 800 4225 
L 800 4675 
Q 1175 4625 1900 4625 
Q 1900 4825 1875 5175 
L 2375 5175 
Q 2350 4900 2350 4625 
L 2650 4625 
Q 2950 4625 3400 4650 
L 3400 4225 
Q 2950 4250 2650 4250 
L 2350 4250 
L 2350 3800 
L 3850 3800 
Q 3825 4150 3800 5175 
Q 4100 5125 4350 5100 
Q 4275 4825 4300 3800 
L 5300 3800 
Q 5650 3800 6050 3825 
L 6050 3400 
Q 5650 3425 5300 3425 
L 4325 3425 
Q 4350 3125 4412 2550 
Q 4475 1975 4675 1200 
Q 5125 2075 5275 3025 
Q 5450 2925 5825 2850 
Q 5600 2275 5400 1725 
Q 5200 1175 4925 675 
Q 5250 225 5437 50 
Q 5625 -125 5650 75 
Q 5675 275 5675 500 
Q 5950 375 6200 275 
Q 6075 -425 5950 -575 
Q 5825 -725 5462 -537 
Q 5100 -350 4625 300 
Q 4350 0 4062 -225 
Q 3775 -450 3425 -675 
Q 3275 -450 3050 -275 
L 3450 -75 
Q 3075 -50 2775 -50 
L 1275 -50 
L 1275 -500 
L 800 -500 
Q 825 -175 850 200 
L 850 1925 
Q 700 1775 500 1550 
Q 325 1775 200 1925 
Q 375 2075 700 2487 
Q 1025 2900 1250 3350 
Q 1475 3200 1725 3075 
L 1400 2750 
z
M 5725 4350 
Q 5500 4275 5250 4100 
Q 5200 4350 4775 4850 
Q 4975 4950 5225 5100 
L 5725 4350 
z
M 2150 350 
L 2150 800 
L 1275 800 
L 1275 350 
L 2150 350 
z
M 2150 1950 
L 2150 2375 
L 1275 2375 
L 1275 1950 
L 2150 1950 
z
M 2150 1175 
L 2150 1575 
L 1275 1575 
L 1275 1175 
L 2150 1175 
z
" transform="scale(0.015625)"/>
      <path id="SimHei-65ad" d="M 3800 4600 
Q 4400 4600 4925 4687 
Q 5450 4775 5700 4900 
Q 5775 4700 6000 4375 
Q 5750 4375 5337 4337 
Q 4925 4300 4275 4250 
L 4275 3050 
L 5575 3050 
Q 5775 3050 6075 3075 
L 6075 2625 
Q 5750 2650 5500 2650 
L 5500 225 
Q 5500 -200 5550 -550 
L 5025 -550 
Q 5075 -125 5075 300 
L 5075 2650 
L 4275 2650 
Q 4275 2000 4225 1475 
Q 4175 950 4075 537 
Q 3975 125 3475 -600 
Q 3275 -450 3050 -350 
Q 3500 200 3650 725 
Q 3800 1250 3825 1800 
Q 3850 2350 3850 3250 
Q 3850 4150 3800 4600 
z
M 2600 5150 
Q 2575 4875 2575 4400 
L 2575 3225 
Q 3050 3225 3450 3250 
L 3450 2800 
Q 3075 2850 2575 2850 
L 2575 1450 
Q 2575 1000 2600 675 
L 2100 675 
Q 2125 1400 2125 2225 
Q 1850 1525 1450 1000 
Q 1250 1175 1075 1300 
Q 1700 2075 1925 2850 
Q 1700 2850 1225 2825 
L 1225 3250 
Q 1575 3225 2125 3225 
L 2125 4375 
Q 2125 4875 2100 5150 
L 2600 5150 
z
M 1000 475 
L 2550 475 
Q 2950 475 3300 500 
L 3300 50 
Q 2950 75 2325 75 
L 500 75 
Q 525 450 525 950 
L 525 3850 
Q 525 4300 500 4650 
L 1025 4650 
Q 1000 4300 1000 3950 
L 1000 475 
z
M 2975 2550 
Q 3275 2025 3625 1525 
L 3225 1225 
Q 3000 1725 2625 2325 
Q 2750 2425 2975 2550 
z
M 3625 4550 
Q 3450 4350 3350 4087 
Q 3250 3825 3125 3550 
Q 2925 3650 2700 3725 
Q 3000 4225 3125 4775 
Q 3375 4650 3625 4550 
z
M 1200 4675 
Q 1450 4700 1675 4725 
Q 1800 3950 1850 3675 
Q 1675 3650 1400 3600 
Q 1375 3875 1200 4675 
z
" transform="scale(0.015625)"/>
      <path id="SimHei-578b" d="M 2625 1775 
Q 2650 2325 2650 2700 
L 2650 3000 
L 1825 3000 
Q 1725 2375 1425 2000 
Q 1125 1625 775 1425 
Q 650 1650 375 1900 
Q 850 2075 1062 2362 
Q 1275 2650 1350 3000 
Q 900 3000 375 2975 
L 375 3450 
Q 925 3425 1400 3425 
Q 1425 3950 1425 4475 
Q 1075 4475 700 4450 
L 700 4900 
Q 1050 4875 1525 4875 
L 3000 4875 
Q 3275 4875 3650 4900 
L 3650 4450 
Q 3325 4475 3125 4475 
L 3125 3425 
Q 3450 3425 3825 3450 
L 3825 2975 
Q 3450 3000 3125 3000 
L 3125 2675 
Q 3125 2225 3150 1775 
L 2625 1775 
z
M 3000 1175 
Q 3000 1375 2975 1725 
L 3500 1725 
Q 3475 1375 3475 1175 
L 4550 1175 
Q 5050 1175 5450 1200 
L 5450 725 
Q 4975 750 4550 750 
L 3475 750 
L 3475 -50 
L 5275 -50 
Q 5700 -50 6100 -25 
L 6100 -500 
Q 5725 -475 5300 -475 
L 1250 -475 
Q 775 -475 400 -500 
L 400 -25 
Q 775 -50 1250 -50 
L 3000 -50 
L 3000 750 
L 2025 750 
Q 1500 750 975 725 
L 1050 1200 
Q 1500 1175 2025 1175 
L 3000 1175 
z
M 5775 5200 
Q 5750 4775 5750 4325 
L 5750 2400 
Q 5775 1950 5612 1775 
Q 5450 1600 4900 1525 
Q 4825 1775 4675 2100 
Q 5175 2075 5237 2150 
Q 5300 2225 5300 2525 
L 5300 4325 
Q 5300 4775 5275 5200 
L 5775 5200 
z
M 4600 4750 
Q 4575 4450 4575 3975 
L 4575 3200 
Q 4575 2825 4600 2425 
L 4100 2425 
Q 4125 2825 4125 3200 
L 4125 3975 
Q 4125 4450 4100 4750 
L 4600 4750 
z
M 2650 3425 
L 2650 4475 
L 1875 4475 
Q 1850 3750 1850 3425 
L 2650 3425 
z
" transform="scale(0.015625)"/>
      <path id="SimHei-6001" d="M 2575 4325 
Q 2700 4800 2725 5250 
Q 3075 5125 3350 5100 
Q 3225 4875 3100 4325 
L 5025 4325 
Q 5375 4325 5825 4375 
L 5825 3850 
Q 5350 3875 5000 3875 
L 3975 3875 
Q 4225 3300 4575 2987 
Q 4925 2675 5250 2525 
Q 5575 2375 6100 2275 
Q 5800 2075 5675 1775 
Q 4900 2100 4525 2412 
Q 4150 2725 3900 3075 
Q 3650 3425 3500 3875 
L 2975 3875 
Q 2675 3200 2187 2687 
Q 1700 2175 725 1625 
Q 650 1850 300 2075 
Q 900 2275 1512 2750 
Q 2125 3225 2425 3875 
L 1300 3875 
Q 900 3875 450 3850 
L 450 4375 
Q 875 4325 1300 4325 
L 2575 4325 
z
M 2525 1350 
Q 2500 875 2500 575 
Q 2500 300 2512 150 
Q 2525 0 2800 0 
L 3825 0 
Q 4025 -25 4175 62 
Q 4325 150 4400 625 
Q 4650 450 4975 375 
Q 4775 -150 4625 -312 
Q 4475 -475 4000 -450 
L 2500 -450 
Q 2050 -400 2012 -162 
Q 1975 75 1975 425 
Q 1975 800 1950 1350 
L 2525 1350 
z
M 1425 1175 
Q 1175 450 825 -325 
Q 625 -175 325 -125 
Q 775 625 875 1375 
Q 1175 1250 1425 1175 
z
M 5175 1525 
Q 5600 950 6050 350 
Q 5800 175 5600 0 
Q 5225 700 4750 1250 
Q 5000 1350 5175 1525 
z
M 2700 3050 
Q 3175 2675 3500 2325 
Q 3275 2175 3100 1975 
Q 2825 2350 2350 2700 
L 2700 3050 
z
M 3375 1750 
Q 3625 1350 3825 925 
Q 3625 800 3375 675 
Q 3200 1175 2950 1525 
Q 3175 1600 3375 1750 
z
" transform="scale(0.015625)"/>
      <path id="SimHei-53d8" d="M 5200 1975 
Q 4950 1600 4537 1137 
Q 4125 675 3675 375 
Q 3925 225 4600 87 
Q 5275 -50 6000 -75 
Q 5700 -400 5650 -625 
Q 4850 -525 4212 -312 
Q 3575 -100 3225 125 
Q 2800 -125 2150 -325 
Q 1500 -525 700 -675 
Q 600 -425 400 -175 
Q 950 -150 1687 12 
Q 2425 175 2825 375 
Q 2275 775 1675 1575 
Q 1350 1575 1000 1550 
L 1000 2000 
Q 1450 1975 2075 1975 
L 5200 1975 
z
M 3225 5275 
Q 3400 4900 3550 4475 
L 4675 4475 
Q 5400 4475 5975 4500 
L 5975 4025 
Q 5375 4050 4725 4050 
L 4125 4050 
L 4125 2950 
Q 4125 2550 4150 2150 
L 3600 2150 
Q 3625 2550 3625 2950 
L 3625 4050 
L 2750 4050 
L 2750 2950 
Q 2750 2675 2775 2150 
L 2225 2150 
Q 2250 2675 2250 2950 
L 2250 4050 
L 1700 4050 
Q 975 4050 425 4025 
L 425 4500 
Q 950 4475 1700 4475 
L 2975 4475 
Q 2925 4675 2700 5125 
Q 2950 5150 3225 5275 
z
M 2200 1575 
Q 2650 975 3250 600 
Q 3850 1000 4275 1575 
L 2200 1575 
z
M 4850 3750 
Q 5375 3275 5950 2675 
Q 5750 2525 5500 2300 
Q 5075 2800 4450 3400 
Q 4675 3575 4850 3750 
z
M 1825 3500 
Q 1700 3375 1425 3025 
Q 1150 2675 825 2300 
Q 575 2475 375 2600 
Q 975 3150 1300 3825 
Q 1525 3650 1825 3500 
z
" transform="scale(0.015625)"/>
      <path id="SimHei-91cf" d="M 5250 2500 
Q 5225 2200 5225 1700 
Q 5225 1225 5250 950 
L 3425 950 
L 3425 625 
L 4575 625 
Q 5000 625 5375 650 
L 5375 275 
Q 5025 300 4575 300 
L 3425 300 
L 3425 -75 
L 5125 -75 
Q 5525 -75 5925 -50 
L 5925 -425 
Q 5525 -400 5125 -400 
L 1275 -400 
Q 900 -400 475 -425 
L 475 -50 
Q 925 -50 1275 -75 
L 2975 -75 
L 2975 300 
L 1725 300 
Q 1350 300 975 250 
L 975 650 
Q 1375 625 1725 625 
L 2975 625 
L 2975 950 
L 1150 950 
Q 1175 1375 1175 1775 
Q 1175 2175 1150 2500 
L 5250 2500 
z
M 5200 4950 
Q 5175 4575 5175 4250 
Q 5175 3925 5200 3400 
L 1200 3400 
Q 1225 3925 1225 4250 
Q 1225 4575 1200 4950 
L 5200 4950 
z
M 4900 3100 
Q 5500 3125 6000 3150 
L 6000 2750 
Q 5500 2775 4925 2775 
L 1650 2775 
Q 975 2775 325 2750 
L 325 3150 
Q 975 3125 1650 3100 
L 4900 3100 
z
M 4725 3700 
L 4725 4025 
L 1675 4025 
L 1675 3700 
L 4725 3700 
z
M 4725 4350 
L 4725 4650 
L 1675 4650 
L 1675 4350 
L 4725 4350 
z
M 4750 1875 
L 4750 2175 
L 3425 2175 
L 3425 1875 
L 4750 1875 
z
M 2975 1875 
L 2975 2175 
L 1650 2175 
L 1650 1875 
L 2975 1875 
z
M 2975 1275 
L 2975 1550 
L 1650 1550 
L 1650 1275 
L 2975 1275 
z
M 4750 1275 
L 4750 1550 
L 3425 1550 
L 3425 1275 
L 4750 1275 
z
" transform="scale(0.015625)"/>
      <path id="SimHei-671f" d="M 4900 -25 
Q 5475 -100 5425 175 
L 5425 1575 
L 4325 1575 
Q 4275 975 4050 425 
Q 3825 -125 3400 -600 
Q 3225 -375 2925 -275 
Q 3350 150 3562 625 
Q 3775 1100 3812 1575 
Q 3850 2050 3850 3125 
Q 3850 4225 3825 4875 
L 5950 4875 
Q 5925 4400 5925 3725 
L 5925 50 
Q 5925 -300 5700 -425 
Q 5475 -550 5100 -600 
Q 5100 -325 4900 -25 
z
M 950 4300 
Q 950 4675 925 5125 
L 1450 5125 
Q 1425 4625 1425 4300 
L 2550 4300 
Q 2550 4775 2525 5125 
L 3075 5125 
Q 3050 4700 3050 4300 
Q 3225 4300 3500 4325 
L 3500 3900 
Q 3250 3925 3050 3925 
L 3050 1550 
Q 3250 1550 3500 1575 
L 3500 1150 
Q 3025 1175 2575 1175 
L 1225 1175 
Q 675 1175 275 1150 
L 275 1575 
Q 650 1550 950 1550 
L 950 3925 
Q 725 3925 425 3900 
L 425 4325 
Q 700 4300 950 4300 
z
M 5425 3375 
L 5425 4500 
L 4350 4500 
L 4350 3375 
L 5425 3375 
z
M 5425 1950 
L 5425 3000 
L 4350 3000 
L 4350 1950 
L 5425 1950 
z
M 1600 725 
Q 1425 650 1162 287 
Q 900 -75 650 -350 
Q 400 -175 225 -75 
Q 450 100 700 412 
Q 950 725 1100 1025 
L 1600 725 
z
M 2550 3375 
L 2550 3925 
L 1425 3925 
L 1425 3375 
L 2550 3375 
z
M 2550 1550 
L 2550 2100 
L 1425 2100 
L 1425 1550 
L 2550 1550 
z
M 2550 2475 
L 2550 3000 
L 1425 3000 
L 1425 2475 
L 2550 2475 
z
M 2850 -75 
Q 2450 525 2225 725 
Q 2375 825 2550 1025 
Q 2850 725 3250 275 
Q 3050 125 2850 -75 
z
" transform="scale(0.015625)"/>
      <path id="SimHei-671b" d="M 4875 1925 
Q 5275 1925 5700 1950 
L 5700 1500 
Q 5275 1525 4875 1525 
L 3450 1525 
L 3450 950 
L 4525 950 
Q 4975 950 5500 975 
L 5500 525 
Q 4975 550 4525 550 
L 3450 550 
L 3450 -50 
L 5200 -50 
Q 5575 -50 6025 -25 
L 6025 -475 
Q 5600 -450 5200 -450 
L 1325 -450 
Q 875 -450 425 -475 
L 425 -25 
Q 875 -50 1325 -50 
L 2975 -50 
L 2975 550 
L 1950 550 
Q 1475 550 950 525 
L 950 975 
Q 1475 950 1950 950 
L 2975 950 
L 2975 1525 
L 1700 1525 
Q 1225 1525 725 1500 
L 725 1950 
Q 1225 1925 1700 1925 
L 4875 1925 
z
M 5625 5000 
Q 5600 4475 5600 3975 
L 5600 2500 
Q 5625 2050 4725 2000 
Q 4700 2225 4525 2525 
Q 4975 2500 5062 2525 
Q 5150 2550 5150 2725 
L 5150 2975 
L 3725 2975 
Q 3575 2475 3100 1975 
Q 2925 2150 2675 2300 
Q 3025 2600 3175 2887 
Q 3325 3175 3362 3500 
Q 3400 3825 3400 4200 
Q 3400 4575 3375 5000 
L 5625 5000 
z
M 975 2475 
Q 1000 3050 1000 3400 
L 1000 4075 
Q 750 4075 400 4050 
L 400 4500 
Q 850 4475 1250 4475 
L 1650 4475 
Q 1575 4725 1450 5125 
Q 1700 5150 1950 5225 
Q 2025 4925 2150 4475 
Q 2475 4475 3025 4500 
L 3025 4050 
Q 2475 4075 2125 4075 
L 1450 4075 
L 1450 3025 
L 2825 3275 
L 2825 2850 
L 975 2475 
z
M 5150 3375 
L 5150 3825 
L 3825 3825 
L 3800 3375 
L 5150 3375 
z
M 5150 4225 
L 5150 4625 
L 3850 4625 
L 3850 4225 
L 5150 4225 
z
" transform="scale(0.015625)"/>
      <path id="SimHei-4e0e" d="M 5350 100 
Q 5275 -300 4925 -425 
Q 4575 -550 3900 -600 
Q 3875 -375 3650 -25 
Q 4375 -50 4575 0 
Q 4775 50 4837 225 
Q 4900 400 5100 2350 
L 1125 2350 
Q 1450 4350 1475 5200 
Q 1800 5150 2075 5125 
Q 1975 4825 1900 4275 
L 4900 4275 
Q 5400 4275 5800 4300 
L 5800 3825 
Q 5400 3850 4950 3850 
L 1850 3850 
L 1700 2750 
L 5675 2750 
Q 5625 2450 5575 2050 
L 5350 100 
z
M 3675 1350 
Q 4125 1350 4500 1375 
L 4500 875 
Q 4125 900 3850 900 
L 1450 900 
Q 1000 900 500 875 
L 500 1375 
Q 1000 1350 1450 1350 
L 3675 1350 
z
" transform="scale(0.015625)"/>
      <path id="SimHei-9006" d="M 6000 -525 
Q 4950 -550 4237 -525 
Q 3525 -500 3050 -450 
Q 2575 -400 2287 -300 
Q 2000 -200 1687 -25 
Q 1375 150 1162 -50 
Q 950 -250 725 -525 
Q 550 -325 275 -150 
Q 850 225 1150 450 
L 1150 2575 
Q 825 2575 425 2550 
L 425 3000 
Q 825 2975 1125 2975 
L 1625 2975 
Q 1600 2475 1600 1875 
L 1600 525 
Q 1975 150 2725 25 
Q 2600 300 2375 500 
Q 2950 650 3262 925 
Q 3575 1200 3650 1525 
L 2350 1525 
Q 2375 1850 2375 2275 
Q 2375 2725 2350 3025 
L 2850 3025 
Q 2825 2650 2825 1925 
L 3700 1925 
Q 3725 2250 3775 3600 
L 3050 3600 
Q 2475 3600 2100 3575 
L 2100 4025 
Q 2325 4000 3050 3975 
L 4275 3975 
Q 4625 4850 4725 5250 
Q 4975 5125 5300 5000 
Q 5150 4900 4725 3975 
L 5300 3975 
Q 5825 4000 6025 4000 
L 6025 3600 
L 4225 3600 
Q 4200 2400 4175 1925 
L 5175 1925 
Q 5175 2650 5150 3000 
L 5625 3000 
Q 5600 2675 5600 2100 
Q 5600 1525 5625 1175 
L 5175 1175 
L 5175 1525 
L 4125 1525 
Q 4000 1025 3687 687 
Q 3375 350 2875 25 
Q 3175 -50 3700 -50 
Q 5225 -100 6200 50 
Q 6025 -225 6000 -525 
z
M 1200 4975 
Q 1550 4125 1675 3850 
Q 1400 3775 1175 3675 
Q 1100 3900 775 4775 
Q 950 4875 1200 4975 
z
M 3075 5200 
Q 3475 4525 3550 4375 
Q 3325 4275 3150 4125 
Q 3000 4400 2675 4925 
Q 2850 5075 3075 5200 
z
" transform="scale(0.015625)"/>
      <path id="SimHei-7c73" d="M 2975 2850 
L 2975 4450 
Q 2975 4900 2900 5250 
L 3500 5250 
Q 3475 4775 3475 4450 
L 3475 2850 
L 5075 2850 
Q 5550 2850 6075 2875 
L 6075 2375 
Q 5550 2425 5075 2425 
L 3900 2425 
Q 4300 1750 4812 1337 
Q 5325 925 6150 675 
Q 5825 250 5850 50 
Q 5000 450 4487 925 
Q 3975 1400 3475 2325 
L 3475 150 
Q 3475 -125 3500 -650 
L 2950 -650 
Q 2975 -125 2975 150 
L 2975 2350 
L 2900 2350 
Q 2625 1525 2162 950 
Q 1700 375 725 -125 
Q 650 75 350 425 
Q 1050 625 1575 1125 
Q 2100 1625 2425 2425 
L 1200 2425 
Q 850 2425 300 2375 
L 300 2875 
Q 850 2850 1200 2850 
L 2975 2850 
z
M 4100 3600 
Q 4575 4200 4900 4950 
Q 5200 4775 5500 4625 
Q 5325 4475 5087 4112 
Q 4850 3750 4575 3325 
Q 4350 3475 4100 3600 
z
M 1775 3325 
Q 1475 3975 1025 4575 
Q 1275 4725 1500 4875 
Q 1950 4275 2300 3625 
Q 2000 3500 1775 3325 
z
" transform="scale(0.015625)"/>
      <path id="SimHei-5c14" d="M 4825 2900 
Q 5025 3250 5175 3650 
L 1875 3650 
Q 1375 3025 925 2600 
Q 800 2800 525 2950 
Q 1150 3425 1600 4162 
Q 2050 4900 2200 5250 
Q 2575 5050 2700 5025 
Q 2450 4625 2125 4100 
L 5925 4100 
Q 5550 3225 5325 2725 
Q 5050 2850 4825 2900 
z
M 3550 3225 
Q 3525 2850 3525 2500 
L 3525 375 
Q 3525 -225 3225 -387 
Q 2925 -550 2350 -625 
Q 2300 -350 2125 -25 
Q 2725 -50 2862 25 
Q 3000 100 3000 375 
L 3000 2450 
Q 3000 2825 2975 3225 
L 3550 3225 
z
M 4575 2300 
Q 5550 1125 6100 475 
Q 5875 350 5625 100 
Q 4625 1475 4175 1950 
Q 4400 2125 4575 2300 
z
M 2325 2025 
Q 2125 1800 1737 1300 
Q 1350 800 725 125 
Q 625 325 325 525 
Q 675 800 1100 1312 
Q 1525 1825 1850 2400 
Q 2125 2125 2325 2025 
z
" transform="scale(0.015625)"/>
      <path id="SimHei-65af" d="M 950 4350 
Q 950 4825 925 5100 
L 1450 5100 
Q 1400 4925 1400 4350 
L 2525 4350 
Q 2525 4850 2500 5125 
L 3025 5125 
Q 3000 4900 3000 4350 
Q 3050 4350 3375 4375 
L 3375 3925 
Q 3050 3950 3000 3950 
L 3000 1625 
Q 3025 1625 3450 1650 
L 3450 1200 
Q 2950 1225 2650 1225 
L 1050 1225 
Q 700 1225 275 1200 
L 275 1650 
Q 650 1625 950 1625 
L 950 3950 
Q 675 3950 325 3925 
L 325 4375 
Q 700 4350 950 4350 
z
M 6075 4550 
Q 5750 4500 5237 4450 
Q 4725 4400 4200 4375 
L 4200 3000 
L 5425 3000 
Q 5775 3000 6125 3025 
L 6125 2575 
Q 5750 2600 5425 2600 
L 5425 575 
Q 5425 100 5450 -525 
L 4950 -525 
Q 4975 -50 4975 550 
L 4975 2600 
L 4200 2600 
Q 4175 1450 4000 912 
Q 3825 375 3700 125 
Q 3575 -125 3125 -650 
Q 2900 -475 2650 -350 
Q 3125 75 3350 512 
Q 3575 950 3650 1600 
Q 3725 2250 3725 3175 
Q 3725 4125 3700 4775 
Q 4250 4775 4862 4837 
Q 5475 4900 5800 5025 
Q 5875 4800 6075 4550 
z
M 1625 700 
Q 1425 575 1125 250 
Q 825 -75 600 -325 
Q 425 -150 225 0 
Q 350 100 625 387 
Q 900 675 1125 1075 
Q 1350 900 1625 700 
z
M 2525 2525 
L 2525 3050 
L 1400 3050 
L 1400 2525 
L 2525 2525 
z
M 2525 1625 
L 2525 2125 
L 1400 2125 
L 1400 1625 
L 2525 1625 
z
M 2525 3450 
L 2525 3950 
L 1400 3950 
L 1400 3450 
L 2525 3450 
z
M 2475 1050 
Q 2700 850 3150 350 
Q 2900 175 2725 25 
Q 2500 375 2125 750 
Q 2325 900 2475 1050 
z
" transform="scale(0.015625)"/>
      <path id="SimHei-6bd4" d="M 3775 5100 
Q 3750 4575 3750 4100 
L 3750 3050 
Q 4925 3600 5475 4175 
Q 5675 3900 5900 3675 
Q 5600 3500 5037 3187 
Q 4475 2875 3750 2550 
L 3750 450 
Q 3750 100 4050 100 
L 5000 100 
Q 5175 100 5262 250 
Q 5350 400 5450 900 
Q 5650 775 6025 675 
Q 5850 0 5650 -175 
Q 5450 -350 5225 -350 
L 3900 -350 
Q 3250 -350 3250 275 
L 3250 4000 
Q 3250 4550 3225 5100 
L 3775 5100 
z
M 1275 4975 
Q 1250 4575 1250 4000 
L 1250 3150 
L 1850 3150 
Q 2325 3150 2875 3175 
L 2875 2650 
Q 2325 2675 1850 2675 
L 1250 2675 
L 1250 475 
Q 1650 650 1962 812 
Q 2275 975 2850 1275 
Q 2900 950 2950 750 
Q 2375 475 1762 175 
Q 1150 -125 925 -325 
Q 750 -100 575 200 
Q 700 300 750 600 
L 750 3950 
Q 750 4550 725 4975 
L 1275 4975 
z
" transform="scale(0.015625)"/>
      <path id="SimHei-7387" d="M 3325 5150 
Q 3425 4900 3550 4525 
L 4800 4525 
Q 5250 4525 5800 4550 
L 5800 4125 
Q 5250 4175 4775 4175 
L 2800 4175 
Q 2975 4050 3300 3900 
Q 3075 3750 2875 3537 
Q 2675 3325 2475 3125 
L 3275 3125 
Q 3575 3425 3775 3775 
Q 4000 3600 4275 3425 
Q 3950 3250 3600 2875 
Q 3250 2500 2625 2000 
L 3850 2100 
Q 3725 2250 3600 2425 
Q 3750 2475 4000 2650 
Q 4250 2350 4700 1700 
Q 4475 1625 4225 1450 
Q 4175 1600 4025 1775 
Q 3700 1750 3425 1750 
L 3425 1050 
L 5150 1050 
Q 5675 1050 6100 1075 
L 6100 650 
Q 5700 675 5125 675 
L 3425 675 
L 3425 175 
Q 3425 -300 3450 -625 
L 2900 -625 
Q 2925 -300 2925 175 
L 2925 675 
L 1325 675 
Q 825 675 325 650 
L 325 1075 
Q 825 1050 1350 1050 
L 2925 1050 
L 2925 1700 
Q 2700 1675 2475 1637 
Q 2250 1600 2025 1525 
Q 1950 1775 1850 2000 
Q 2075 2025 2325 2200 
Q 2575 2375 2975 2800 
Q 2300 2725 2025 2625 
Q 1975 2875 1850 3175 
Q 2075 3175 2325 3487 
Q 2575 3800 2750 4175 
L 1700 4175 
Q 1150 4175 650 4125 
L 650 4550 
Q 1150 4525 1550 4525 
L 2975 4525 
Q 2900 4825 2800 5025 
Q 3025 5075 3325 5150 
z
M 1625 2575 
Q 1725 2400 1825 2200 
Q 1575 2050 1325 1862 
Q 1075 1675 800 1425 
Q 625 1675 475 1875 
Q 800 2025 1100 2212 
Q 1400 2400 1625 2575 
z
M 4850 2650 
Q 5125 2475 5337 2337 
Q 5550 2200 5875 1950 
Q 5675 1800 5500 1600 
Q 5300 1775 5062 1975 
Q 4825 2175 4575 2325 
Q 4725 2475 4850 2650 
z
M 5725 3525 
Q 5550 3450 5300 3262 
Q 5050 3075 4800 2825 
Q 4625 3050 4475 3175 
Q 4700 3325 4875 3487 
Q 5050 3650 5300 3925 
Q 5525 3700 5725 3525 
z
M 1050 3850 
Q 1425 3600 1775 3275 
Q 1575 3100 1425 2925 
Q 1075 3300 675 3525 
Q 875 3700 1050 3850 
z
" transform="scale(0.015625)"/>
     </defs>
     <use xlink:href="#SimHei-622a"/>
     <use xlink:href="#SimHei-65ad" transform="translate(100 0)"/>
     <use xlink:href="#SimHei-578b" transform="translate(200 0)"/>
     <use xlink:href="#SimHei-6b63" transform="translate(300 0)"/>
     <use xlink:href="#SimHei-6001" transform="translate(400 0)"/>
     <use xlink:href="#SimHei-53d8" transform="translate(500 0)"/>
     <use xlink:href="#SimHei-91cf" transform="translate(600 0)"/>
     <use xlink:href="#SimHei-7684" transform="translate(700 0)"/>
     <use xlink:href="#SimHei-6761" transform="translate(800 0)"/>
     <use xlink:href="#SimHei-4ef6" transform="translate(900 0)"/>
     <use xlink:href="#SimHei-671f" transform="translate(1000 0)"/>
     <use xlink:href="#SimHei-671b" transform="translate(1100 0)"/>
     <use xlink:href="#SimHei-4e0e" transform="translate(1200 0)"/>
     <use xlink:href="#SimHei-9006" transform="translate(1300 0)"/>
     <use xlink:href="#SimHei-7c73" transform="translate(1400 0)"/>
     <use xlink:href="#SimHei-5c14" transform="translate(1500 0)"/>
     <use xlink:href="#SimHei-65af" transform="translate(1600 0)"/>
     <use xlink:href="#SimHei-6bd4" transform="translate(1700 0)"/>
     <use xlink:href="#SimHei-7387" transform="translate(1800 0)"/>
    </g>
   </g>
   <g id="legend_1">
    <g id="line2d_42">
     <path d="M 300.25 249.666562 
L 311.25 249.666562 
L 322.25 249.666562 
" style="fill: none; stroke-dasharray: 2,3.3; stroke-dashoffset: 0; stroke: #1f77b4; stroke-width: 2"/>
    </g>
    <g id="text_22">
     <!-- $E(y^*)=\mu$ -->
     <g transform="translate(331.05 253.516562) scale(0.11 -0.11)">
      <defs>
       <path id="DejaVuSans-Oblique-45" d="M 1081 4666 
L 4031 4666 
L 3928 4134 
L 1606 4134 
L 1338 2753 
L 3566 2753 
L 3463 2222 
L 1234 2222 
L 909 531 
L 3284 531 
L 3181 0 
L 172 0 
L 1081 4666 
z
" transform="scale(0.015625)"/>
       <path id="DejaVuSans-28" d="M 1984 4856 
Q 1566 4138 1362 3434 
Q 1159 2731 1159 2009 
Q 1159 1288 1364 580 
Q 1569 -128 1984 -844 
L 1484 -844 
Q 1016 -109 783 600 
Q 550 1309 550 2009 
Q 550 2706 781 3412 
Q 1013 4119 1484 4856 
L 1984 4856 
z
" transform="scale(0.015625)"/>
       <path id="DejaVuSans-Oblique-79" d="M 1588 -325 
Q 1188 -997 936 -1164 
Q 684 -1331 294 -1331 
L -159 -1331 
L -63 -850 
L 269 -850 
Q 509 -850 678 -719 
Q 847 -588 1056 -206 
L 1234 128 
L 459 3500 
L 1069 3500 
L 1650 819 
L 3256 3500 
L 3859 3500 
L 1588 -325 
z
" transform="scale(0.015625)"/>
       <path id="DejaVuSans-2a" d="M 3009 3897 
L 1888 3291 
L 3009 2681 
L 2828 2375 
L 1778 3009 
L 1778 1831 
L 1422 1831 
L 1422 3009 
L 372 2375 
L 191 2681 
L 1313 3291 
L 191 3897 
L 372 4206 
L 1422 3572 
L 1422 4750 
L 1778 4750 
L 1778 3572 
L 2828 4206 
L 3009 3897 
z
" transform="scale(0.015625)"/>
       <path id="DejaVuSans-29" d="M 513 4856 
L 1013 4856 
Q 1481 4119 1714 3412 
Q 1947 2706 1947 2009 
Q 1947 1309 1714 600 
Q 1481 -109 1013 -844 
L 513 -844 
Q 928 -128 1133 580 
Q 1338 1288 1338 2009 
Q 1338 2731 1133 3434 
Q 928 4138 513 4856 
z
" transform="scale(0.015625)"/>
       <path id="DejaVuSans-3d" d="M 678 2906 
L 4684 2906 
L 4684 2381 
L 678 2381 
L 678 2906 
z
M 678 1631 
L 4684 1631 
L 4684 1100 
L 678 1100 
L 678 1631 
z
" transform="scale(0.015625)"/>
      </defs>
      <use xlink:href="#DejaVuSans-Oblique-45" transform="translate(0 0.765625)"/>
      <use xlink:href="#DejaVuSans-28" transform="translate(63.183594 0.765625)"/>
      <use xlink:href="#DejaVuSans-Oblique-79" transform="translate(102.197266 0.765625)"/>
      <use xlink:href="#DejaVuSans-2a" transform="translate(179.480794 39.046875) scale(0.7)"/>
      <use xlink:href="#DejaVuSans-29" transform="translate(230.852865 0.765625)"/>
      <use xlink:href="#DejaVuSans-3d" transform="translate(289.348958 0.765625)"/>
      <use xlink:href="#DejaVuSans-Oblique-3bc" transform="translate(392.620443 0.765625)"/>
     </g>
    </g>
    <g id="line2d_43">
     <path d="M 300.25 265.836562 
L 311.25 265.836562 
L 322.25 265.836562 
" style="fill: none; stroke-dasharray: 7.4,3.2; stroke-dashoffset: 0; stroke: #ff7f0e; stroke-width: 2"/>
    </g>
    <g id="text_23">
     <!-- $\lambda(\mu)$ -->
     <g transform="translate(331.05 269.686562) scale(0.11 -0.11)">
      <defs>
       <path id="DejaVuSans-Oblique-3bb" d="M 2350 4316 
L 3125 0 
L 2516 0 
L 2038 2588 
L 328 0 
L -281 0 
L 1903 3356 
L 1794 3975 
Q 1725 4369 1391 4369 
L 1091 4369 
L 1184 4863 
L 1550 4856 
Q 2253 4847 2350 4316 
z
" transform="scale(0.015625)"/>
      </defs>
      <use xlink:href="#DejaVuSans-Oblique-3bb" transform="translate(0 0.015625)"/>
      <use xlink:href="#DejaVuSans-28" transform="translate(59.179688 0.015625)"/>
      <use xlink:href="#DejaVuSans-Oblique-3bc" transform="translate(98.193359 0.015625)"/>
      <use xlink:href="#DejaVuSans-29" transform="translate(161.816406 0.015625)"/>
     </g>
    </g>
    <g id="line2d_44">
     <path d="M 300.25 282.226562 
L 311.25 282.226562 
L 322.25 282.226562 
" style="fill: none; stroke: #2ca02c; stroke-width: 2.2; stroke-linecap: square"/>
    </g>
    <g id="text_24">
     <!-- $E(y\mid y&gt;0)=\mu+\lambda(\mu)$ -->
     <g transform="translate(331.05 286.076562) scale(0.11 -0.11)">
      <defs>
       <path id="DejaVuSans-2223" d="M 1350 4934 
L 1850 4934 
L 1850 -1369 
L 1350 -1369 
L 1350 4934 
z
" transform="scale(0.015625)"/>
       <path id="DejaVuSans-3e" d="M 678 3150 
L 678 3719 
L 4684 2266 
L 4684 1747 
L 678 294 
L 678 863 
L 3897 2003 
L 678 3150 
z
" transform="scale(0.015625)"/>
       <path id="DejaVuSans-2b" d="M 2944 4013 
L 2944 2272 
L 4684 2272 
L 4684 1741 
L 2944 1741 
L 2944 0 
L 2419 0 
L 2419 1741 
L 678 1741 
L 678 2272 
L 2419 2272 
L 2419 4013 
L 2944 4013 
z
" transform="scale(0.015625)"/>
      </defs>
      <use xlink:href="#DejaVuSans-Oblique-45" transform="translate(0 0.90625)"/>
      <use xlink:href="#DejaVuSans-28" transform="translate(63.183594 0.90625)"/>
      <use xlink:href="#DejaVuSans-Oblique-79" transform="translate(102.197266 0.90625)"/>
      <use xlink:href="#DejaVuSans-2223" transform="translate(180.859375 0.90625)"/>
      <use xlink:href="#DejaVuSans-Oblique-79" transform="translate(250.341797 0.90625)"/>
      <use xlink:href="#DejaVuSans-3e" transform="translate(329.003906 0.90625)"/>
      <use xlink:href="#DejaVuSans-30" transform="translate(432.275391 0.90625)"/>
      <use xlink:href="#DejaVuSans-29" transform="translate(495.898438 0.90625)"/>
      <use xlink:href="#DejaVuSans-3d" transform="translate(554.394531 0.90625)"/>
      <use xlink:href="#DejaVuSans-Oblique-3bc" transform="translate(657.666016 0.90625)"/>
      <use xlink:href="#DejaVuSans-2b" transform="translate(740.771484 0.90625)"/>
      <use xlink:href="#DejaVuSans-Oblique-3bb" transform="translate(844.042969 0.90625)"/>
      <use xlink:href="#DejaVuSans-28" transform="translate(903.222656 0.90625)"/>
      <use xlink:href="#DejaVuSans-Oblique-3bc" transform="translate(942.236328 0.90625)"/>
      <use xlink:href="#DejaVuSans-29" transform="translate(1005.859375 0.90625)"/>
     </g>
    </g>
   </g>
  </g>
 </g>
 <defs>
  <clipPath id="p4ba3aa0c76">
   <rect x="25.2" y="23.976562" width="430.7" height="274.42"/>
  </clipPath>
 </defs>
</svg>
