<?xml version="1.0" encoding="utf-8" standalone="no"?>
<!DOCTYPE svg PUBLIC "-//W3C//DTD SVG 1.1//EN"
  "http://www.w3.org/Graphics/SVG/1.1/DTD/svg11.dtd">
<svg xmlns:xlink="http://www.w3.org/1999/xlink" width="595.499219pt" height="336.045344pt" viewBox="0 0 595.499219 336.045344" xmlns="http://www.w3.org/2000/svg" version="1.1">
 <metadata>
  <rdf:RDF xmlns:dc="http://purl.org/dc/elements/1.1/" xmlns:cc="http://creativecommons.org/ns#" xmlns:rdf="http://www.w3.org/1999/02/22-rdf-syntax-ns#">
   <cc:Work>
    <dc:type rdf:resource="http://purl.org/dc/dcmitype/StillImage"/>
    <dc:date>2026-04-30T01:04:13.129202</dc:date>
    <dc:format>image/svg+xml</dc:format>
    <dc:creator>
     <cc:Agent>
      <dc:title>Matplotlib v3.10.8, https://matplotlib.org/</dc:title>
     </cc:Agent>
    </dc:creator>
   </cc:Work>
  </rdf:RDF>
 </metadata>
 <defs>
  <style type="text/css">*{stroke-linejoin: round; stroke-linecap: butt}</style>
 </defs>
 <g id="figure_1">
  <g id="patch_1">
   <path d="M 0 336.045344 
L 595.499219 336.045344 
L 595.499219 0 
L 0 0 
z
" style="fill: #ffffff"/>
  </g>
  <g id="axes_1">
   <g id="patch_2">
    <path d="M 44.711719 299.716437 
L 588.299219 299.716437 
L 588.299219 23.873437 
L 44.711719 23.873437 
z
" style="fill: #ffffff"/>
   </g>
   <g id="patch_3">
    <path d="M 69.420241 299.716437 
L 210.6118 299.716437 
L 210.6118 76.729581 
L 69.420241 76.729581 
z
" clip-path="url(#p6758321fb0)" style="fill: #1f77b4; opacity: 0.85"/>
   </g>
   <g id="patch_4">
    <path d="M 245.90969 299.716437 
L 387.101248 299.716437 
L 387.101248 262.496903 
L 245.90969 262.496903 
z
" clip-path="url(#p6758321fb0)" style="fill: #1f77b4; opacity: 0.85"/>
   </g>
   <g id="patch_5">
    <path d="M 422.399138 299.716437 
L 563.590696 299.716437 
L 563.590696 119.454964 
L 422.399138 119.454964 
z
" clip-path="url(#p6758321fb0)" style="fill: #1f77b4; opacity: 0.85"/>
   </g>
   <g id="matplotlib.axis_1">
    <g id="xtick_1">
     <g id="line2d_1">
      <path d="M 140.016021 299.716437 
L 140.016021 23.873437 
" clip-path="url(#p6758321fb0)" style="fill: none; stroke: #b0b0b0; stroke-opacity: 0.22; stroke-width: 0.8; stroke-linecap: square"/>
     </g>
     <g id="line2d_2">
      <defs>
       <path id="md8b0c7b44f" d="M 0 0 
L 0 3.5 
" style="stroke: #000000; stroke-width: 0.8"/>
      </defs>
      <g>
       <use xlink:href="#md8b0c7b44f" x="140.016021" y="299.716437" style="stroke: #000000; stroke-width: 0.8"/>
      </g>
     </g>
     <g id="text_1">
      <!-- 结构性 0 -->
      <g transform="translate(118.016021 315.439094) scale(0.11 -0.11)">
       <defs>
        <path id="SimHei-7ed3" d="M 5725 1925 
Q 5700 1600 5700 1200 
L 5700 350 
Q 5700 -125 5725 -475 
L 5225 -475 
L 5225 0 
L 3525 0 
L 3525 -525 
L 3025 -525 
Q 3050 125 3050 325 
L 3050 1250 
Q 3050 1550 3025 1925 
L 5725 1925 
z
M 1900 4850 
Q 1700 4600 1475 4200 
Q 1250 3800 925 3200 
Q 1475 3225 1725 3225 
Q 1950 3625 2100 4000 
Q 2350 3825 2650 3675 
Q 2525 3575 2212 3125 
Q 1900 2675 1225 1650 
Q 2050 1775 2525 1850 
Q 2450 1575 2450 1375 
Q 2225 1350 1650 1275 
Q 1075 1200 525 1050 
Q 425 1300 350 1550 
Q 650 1625 950 2012 
Q 1250 2400 1475 2825 
Q 1300 2825 962 2787 
Q 625 2750 375 2675 
Q 300 2925 225 3150 
Q 500 3375 812 3925 
Q 1125 4475 1300 5125 
Q 1600 4975 1900 4850 
z
M 4075 4175 
Q 4075 4600 4050 5175 
L 4575 5175 
Q 4550 4725 4550 4175 
L 5275 4175 
Q 5750 4175 6150 4200 
L 6150 3750 
Q 5750 3775 5300 3775 
L 4550 3775 
L 4550 2950 
L 5125 2950 
Q 5475 2950 5825 2975 
L 5825 2525 
Q 5525 2550 5100 2550 
L 3650 2550 
Q 3225 2550 2900 2525 
L 2900 2975 
Q 3225 2950 3600 2950 
L 4075 2950 
L 4075 3775 
L 3525 3775 
Q 3075 3775 2675 3750 
L 2675 4200 
Q 3000 4175 3475 4175 
L 4075 4175 
z
M 5225 400 
L 5225 1525 
L 3525 1525 
L 3525 400 
L 5225 400 
z
M 2575 650 
Q 2500 425 2525 175 
Q 2050 100 1450 0 
Q 850 -100 425 -225 
Q 325 100 225 350 
Q 750 375 1175 437 
Q 1600 500 2575 650 
z
" transform="scale(0.015625)"/>
        <path id="SimHei-6784" d="M 2250 1625 
Q 2050 2100 1825 2475 
L 1825 575 
Q 1825 50 1850 -500 
L 1325 -500 
Q 1350 75 1350 575 
L 1350 2375 
Q 1075 1750 525 1000 
Q 375 1200 175 1400 
Q 625 1900 912 2512 
Q 1200 3125 1250 3500 
Q 850 3500 475 3475 
L 475 3925 
Q 850 3900 1350 3900 
L 1350 4475 
Q 1350 4850 1325 5150 
L 1850 5150 
Q 1825 4900 1825 4475 
L 1825 3900 
Q 2150 3900 2525 3925 
L 2525 3475 
Q 2150 3500 1825 3500 
L 1825 2525 
Q 2025 2625 2225 2750 
Q 2475 2300 2700 1875 
Q 2475 1775 2250 1625 
z
M 4000 5050 
Q 3875 4875 3762 4625 
Q 3650 4375 3550 4125 
L 6025 4125 
Q 6000 3750 5975 3200 
Q 5975 1675 5875 350 
Q 5775 -200 5462 -337 
Q 5150 -475 4500 -525 
Q 4450 -250 4300 50 
Q 4825 25 5100 75 
Q 5375 125 5425 725 
Q 5525 2125 5500 3700 
L 3375 3700 
Q 3150 3200 2875 2750 
Q 2675 2900 2450 2975 
Q 2825 3525 3075 4150 
Q 3325 4775 3425 5250 
Q 3725 5100 4000 5050 
z
M 4450 1050 
Q 4175 1025 3662 950 
Q 3150 875 2800 725 
Q 2700 1025 2575 1300 
Q 2725 1350 2925 1675 
Q 3125 2000 3250 2337 
Q 3375 2675 3500 3150 
Q 3800 3025 4075 2875 
Q 3925 2725 3637 2162 
Q 3350 1600 3175 1350 
Q 3725 1375 4375 1425 
Q 4275 1775 4125 2175 
L 4625 2325 
Q 4775 1900 4900 1525 
Q 5025 1150 5075 800 
Q 4800 750 4550 650 
Q 4500 875 4450 1050 
z
" transform="scale(0.015625)"/>
        <path id="SimHei-6027" d="M 3450 4525 
Q 3325 4075 3275 3750 
L 4050 3750 
L 4050 4275 
Q 4050 4700 4025 5100 
L 4550 5100 
Q 4525 4700 4525 4275 
L 4525 3750 
L 5025 3750 
Q 5350 3750 5800 3775 
L 5800 3300 
Q 5350 3325 5025 3325 
L 4525 3325 
L 4525 2000 
L 4975 2000 
Q 5350 2000 5725 2025 
L 5725 1550 
Q 5350 1575 4975 1575 
L 4525 1575 
L 4525 25 
L 5200 25 
Q 5625 25 6025 50 
L 6025 -400 
Q 5625 -375 5200 -375 
L 3275 -375 
Q 2825 -375 2400 -400 
L 2400 50 
Q 2825 25 3250 25 
L 4050 25 
L 4050 1575 
L 3625 1575 
Q 3300 1575 2875 1550 
L 2875 2025 
Q 3200 2000 3625 2000 
L 4050 2000 
L 4050 3325 
L 3175 3325 
Q 3100 2950 2775 2225 
Q 2500 2375 2325 2400 
Q 2675 3125 2775 3650 
Q 2875 4175 2950 4650 
Q 3200 4575 3450 4525 
z
M 1700 5150 
Q 1675 4650 1675 4175 
L 1675 425 
Q 1675 -100 1700 -625 
L 1175 -625 
Q 1200 -100 1200 425 
L 1200 4175 
Q 1200 4700 1175 5150 
L 1700 5150 
z
M 975 3725 
Q 825 2675 700 2150 
Q 450 2200 250 2250 
Q 425 2900 525 3800 
Q 725 3775 975 3725 
z
M 2125 4025 
Q 2325 3625 2525 3000 
Q 2300 2925 2125 2825 
Q 1950 3375 1750 3850 
Q 1950 3950 2125 4025 
z
" transform="scale(0.015625)"/>
        <path id="SimHei-20" transform="scale(0.015625)"/>
        <path id="SimHei-30" d="M 225 2537 
Q 250 3200 412 3587 
Q 575 3975 875 4225 
Q 1175 4475 1612 4475 
Q 2050 4475 2375 4112 
Q 2700 3750 2800 3200 
Q 2900 2650 2862 1937 
Q 2825 1225 2612 775 
Q 2400 325 1975 150 
Q 1550 -25 1125 187 
Q 700 400 525 750 
Q 350 1100 275 1487 
Q 200 1875 225 2537 
z
M 750 2687 
Q 675 2000 800 1462 
Q 925 925 1212 700 
Q 1500 475 1800 612 
Q 2100 750 2237 1162 
Q 2375 1575 2375 2062 
Q 2375 2550 2337 2950 
Q 2300 3350 2112 3675 
Q 1925 4000 1612 4012 
Q 1300 4025 1062 3700 
Q 825 3375 750 2687 
z
" transform="scale(0.015625)"/>
       </defs>
       <use xlink:href="#SimHei-7ed3"/>
       <use xlink:href="#SimHei-6784" transform="translate(100 0)"/>
       <use xlink:href="#SimHei-6027" transform="translate(200 0)"/>
       <use xlink:href="#SimHei-20" transform="translate(300 0)"/>
       <use xlink:href="#SimHei-30" transform="translate(350 0)"/>
      </g>
      <!-- 不会贷款 -->
      <g transform="translate(118.016021 327.332844) scale(0.11 -0.11)">
       <defs>
        <path id="SimHei-4e0d" d="M 5975 4450 
Q 5525 4475 5200 4475 
L 3725 4475 
Q 3550 4125 3300 3700 
L 3300 575 
Q 3300 75 3325 -550 
L 2775 -550 
Q 2800 50 2800 575 
L 2800 3025 
Q 2025 1950 700 1050 
Q 500 1350 325 1475 
Q 825 1700 1650 2437 
Q 2475 3175 3175 4475 
L 1525 4475 
Q 1050 4475 525 4450 
L 525 4950 
Q 1275 4925 1675 4925 
L 5175 4925 
Q 5500 4925 5975 4950 
L 5975 4450 
z
M 5450 1125 
Q 4975 1725 3750 2975 
Q 3950 3150 4075 3325 
Q 4675 2775 5100 2362 
Q 5525 1950 5900 1550 
Q 5650 1350 5450 1125 
z
" transform="scale(0.015625)"/>
        <path id="SimHei-4f1a" d="M 3200 1200 
Q 3025 1075 1825 50 
Q 3475 100 4375 150 
Q 4150 400 3700 800 
Q 3875 950 4050 1125 
Q 4400 800 4725 487 
Q 5050 175 5475 -275 
Q 5300 -425 5050 -650 
Q 4825 -325 4675 -200 
Q 4100 -225 2812 -300 
Q 1525 -375 1150 -475 
Q 1025 -150 950 25 
Q 1350 150 1900 662 
Q 2450 1175 2675 1500 
L 1950 1500 
Q 1275 1500 700 1475 
L 700 1900 
Q 1300 1875 1925 1875 
L 4425 1875 
Q 5050 1875 5650 1900 
L 5650 1475 
Q 5050 1500 4325 1500 
L 2825 1500 
Q 3025 1300 3200 1200 
z
M 3475 4800 
Q 4350 3550 6125 2925 
Q 5900 2725 5775 2475 
Q 4075 3250 3200 4475 
Q 2025 3150 625 2350 
Q 375 2700 200 2775 
Q 1125 3100 1962 3850 
Q 2800 4600 3100 5225 
Q 3325 5075 3625 4950 
L 3475 4800 
z
M 3650 3025 
Q 4200 3025 4550 3050 
L 4550 2600 
Q 4175 2625 3650 2625 
L 2575 2625 
Q 2100 2625 1775 2600 
L 1775 3050 
Q 2100 3025 2550 3025 
L 3650 3025 
z
" transform="scale(0.015625)"/>
        <path id="SimHei-8d37" d="M 2975 5125 
Q 3250 5150 3500 5200 
Q 3550 4900 3600 4662 
Q 3650 4425 3750 4100 
Q 4675 4250 5700 4475 
L 5800 4050 
Q 5500 4025 5037 3937 
Q 4575 3850 3950 3750 
Q 4300 3250 4675 3012 
Q 5050 2775 5225 2850 
Q 5400 2925 5500 3400 
Q 5700 3250 6050 3175 
Q 5875 2775 5637 2525 
Q 5400 2275 4887 2412 
Q 4375 2550 4000 2937 
Q 3625 3325 3425 3675 
Q 2900 3550 2075 3400 
L 1950 3800 
Q 2375 3850 3275 4025 
L 2975 5125 
z
M 5275 2300 
Q 5250 1925 5250 1500 
Q 5250 1100 5275 625 
L 4700 625 
L 4700 1900 
L 1750 1900 
L 1750 550 
L 1200 550 
Q 1225 1175 1225 1550 
Q 1225 1925 1200 2300 
L 5275 2300 
z
M 3525 1450 
Q 3375 1075 3275 762 
Q 3175 450 2887 175 
Q 2600 -100 2075 -312 
Q 1550 -525 650 -650 
Q 525 -375 325 -125 
Q 1000 -100 1437 -12 
Q 1875 75 2200 287 
Q 2525 500 2687 775 
Q 2850 1050 2900 1600 
Q 3175 1500 3525 1450 
z
M 2250 4875 
Q 2050 4775 1650 4275 
Q 1650 2900 1675 2525 
L 1150 2525 
Q 1175 2900 1175 3875 
Q 800 3475 600 3300 
Q 400 3525 225 3675 
Q 775 4000 1112 4375 
Q 1450 4750 1750 5250 
L 2250 4875 
z
M 3900 675 
Q 4425 450 5875 -225 
Q 5675 -450 5525 -650 
Q 4725 -200 3575 275 
Q 3750 500 3900 675 
z
M 4500 5250 
Q 4675 5075 5100 4675 
Q 4825 4500 4650 4375 
Q 4475 4650 4100 4950 
Q 4325 5075 4500 5250 
z
" transform="scale(0.015625)"/>
        <path id="SimHei-6b3e" d="M 4900 2700 
Q 4850 2500 4812 2237 
Q 4775 1975 4925 1462 
Q 5075 950 5450 512 
Q 5825 75 6200 -100 
Q 5900 -350 5800 -525 
Q 5275 -75 5025 300 
Q 4775 675 4625 1125 
Q 4475 650 4225 250 
Q 3975 -150 3425 -625 
Q 3225 -300 3100 -200 
Q 3400 0 3637 275 
Q 3875 550 4025 862 
Q 4175 1175 4237 1487 
Q 4300 1800 4312 2112 
Q 4325 2425 4325 2800 
Q 4675 2725 4900 2700 
z
M 1775 4500 
Q 1775 4850 1750 5175 
L 2250 5175 
Q 2225 4875 2225 4500 
L 2650 4500 
Q 3050 4500 3500 4525 
L 3500 4075 
Q 3050 4125 2650 4125 
L 2225 4125 
L 2225 3575 
L 2475 3575 
Q 2800 3575 3250 3600 
L 3250 3175 
Q 2800 3200 2475 3200 
L 1450 3200 
Q 1125 3200 625 3150 
L 625 3600 
Q 1100 3575 1450 3575 
L 1775 3575 
L 1775 4125 
L 1250 4125 
Q 925 4125 450 4075 
L 450 4525 
Q 925 4500 1225 4500 
L 1775 4500 
z
M 4250 3525 
Q 4050 3050 3750 2600 
Q 3500 2775 3300 2850 
Q 3600 3225 3762 3625 
Q 3925 4025 4037 4387 
Q 4150 4750 4200 5075 
Q 4475 4950 4750 4900 
Q 4550 4500 4375 3925 
L 6150 3925 
Q 6050 3550 5962 3262 
Q 5875 2975 5800 2700 
L 5300 2750 
Q 5450 3150 5550 3525 
L 4250 3525 
z
M 2650 1825 
Q 3050 1825 3425 1850 
L 3425 1400 
Q 3050 1450 2650 1450 
L 2225 1450 
L 2225 100 
Q 2225 -275 2037 -375 
Q 1850 -475 1375 -575 
Q 1325 -300 1125 -25 
Q 1625 -50 1687 25 
Q 1750 100 1750 225 
L 1750 1450 
L 1175 1450 
Q 825 1450 400 1400 
L 400 1850 
Q 850 1825 1200 1825 
L 2650 1825 
z
M 2450 2700 
Q 2775 2700 3200 2725 
L 3200 2275 
Q 2800 2325 2450 2325 
L 1400 2325 
Q 1050 2325 650 2275 
L 650 2725 
Q 1050 2700 1400 2700 
L 2450 2700 
z
M 1400 975 
Q 1275 775 1100 475 
Q 925 175 675 -150 
Q 550 25 275 150 
Q 450 350 625 625 
Q 800 900 925 1225 
Q 1175 1100 1400 975 
z
M 2900 1175 
Q 3000 1000 3125 800 
Q 3250 600 3400 325 
Q 3175 200 2975 50 
L 2750 500 
Q 2650 700 2475 925 
Q 2650 1025 2900 1175 
z
" transform="scale(0.015625)"/>
       </defs>
       <use xlink:href="#SimHei-4e0d"/>
       <use xlink:href="#SimHei-4f1a" transform="translate(100 0)"/>
       <use xlink:href="#SimHei-8d37" transform="translate(200 0)"/>
       <use xlink:href="#SimHei-6b3e" transform="translate(300 0)"/>
      </g>
     </g>
    </g>
    <g id="xtick_2">
     <g id="line2d_3">
      <path d="M 316.505469 299.716437 
L 316.505469 23.873437 
" clip-path="url(#p6758321fb0)" style="fill: none; stroke: #b0b0b0; stroke-opacity: 0.22; stroke-width: 0.8; stroke-linecap: square"/>
     </g>
     <g id="line2d_4">
      <g>
       <use xlink:href="#md8b0c7b44f" x="316.505469" y="299.716437" style="stroke: #000000; stroke-width: 0.8"/>
      </g>
     </g>
     <g id="text_2">
      <!-- 随机 0 -->
      <g transform="translate(300.005469 315.525031) scale(0.11 -0.11)">
       <defs>
        <path id="SimHei-968f" d="M 4050 4425 
Q 4325 5025 4350 5300 
Q 4675 5150 4950 5075 
Q 4825 4925 4525 4400 
L 5350 4400 
Q 5725 4400 6075 4425 
L 6075 4000 
Q 5775 4025 5350 4025 
L 4400 4025 
Q 4200 3675 3975 3350 
L 5800 3350 
Q 5775 3000 5775 2525 
L 5775 850 
Q 5775 600 5612 525 
Q 5450 450 5050 375 
Q 5025 600 4900 850 
Q 5350 775 5300 1250 
L 4175 1250 
L 4175 425 
L 3700 425 
Q 3725 775 3725 1200 
L 3725 3000 
L 3550 2725 
Q 3350 2900 3125 3000 
Q 3525 3350 3875 4025 
Q 3675 4025 3325 4000 
L 3325 4450 
Q 3675 4425 4050 4425 
z
M 2225 4900 
Q 2125 4725 1575 2925 
Q 1875 2525 2037 2150 
Q 2200 1775 2187 1462 
Q 2175 1150 1900 937 
Q 1625 725 1325 650 
Q 1275 875 1075 1200 
Q 1500 1200 1612 1350 
Q 1725 1500 1625 1900 
Q 1525 2300 1075 2875 
Q 1475 4025 1575 4550 
L 875 4550 
L 875 -625 
L 400 -625 
Q 425 0 425 675 
L 425 3800 
Q 425 4425 400 4900 
L 2225 4900 
z
M 3100 2825 
Q 3075 2475 3075 2050 
L 3075 525 
Q 3125 300 3750 175 
Q 4375 50 4787 37 
Q 5200 25 5500 37 
Q 5800 50 6175 125 
Q 6025 -150 6025 -425 
Q 5350 -425 4837 -387 
Q 4325 -350 3912 -262 
Q 3500 -175 3200 -25 
Q 2900 125 2737 -12 
Q 2575 -150 2300 -475 
Q 2150 -275 1950 -125 
Q 2275 175 2625 400 
L 2625 2425 
L 2175 2425 
L 2175 2850 
Q 2425 2825 3100 2825 
z
M 5300 1600 
L 5300 2125 
L 4175 2125 
L 4175 1600 
L 5300 1600 
z
M 5300 2475 
L 5300 3000 
L 4175 3000 
L 4175 2475 
L 5300 2475 
z
M 2750 4575 
Q 2975 4000 3125 3425 
Q 2875 3400 2625 3275 
Q 2500 3900 2275 4425 
Q 2525 4475 2750 4575 
z
" transform="scale(0.015625)"/>
        <path id="SimHei-673a" d="M 5100 4775 
Q 5075 4075 5075 3575 
L 5075 325 
Q 5075 0 5225 -25 
Q 5375 -50 5475 -37 
Q 5575 -25 5612 137 
Q 5650 300 5650 625 
Q 5875 500 6175 425 
Q 6075 -100 5975 -275 
Q 5875 -450 5650 -450 
L 5125 -450 
Q 4825 -450 4687 -312 
Q 4550 -175 4575 250 
L 4575 4350 
L 3625 4350 
Q 3625 2925 3587 2137 
Q 3550 1350 3362 712 
Q 3175 75 2625 -575 
Q 2500 -425 2175 -175 
Q 2525 100 2737 500 
Q 2950 900 3025 1325 
Q 3100 1750 3125 2225 
Q 3150 2700 3150 3425 
Q 3150 4175 3125 4775 
L 5100 4775 
z
M 2150 2725 
Q 2550 2175 2750 1875 
Q 2575 1725 2325 1550 
Q 2175 1875 1800 2425 
L 1800 600 
Q 1800 100 1825 -525 
L 1275 -525 
Q 1300 100 1300 600 
L 1300 2200 
Q 1175 1825 1025 1487 
Q 875 1150 600 725 
Q 375 975 200 1125 
Q 400 1350 725 2000 
Q 1050 2650 1225 3450 
L 1075 3450 
Q 725 3450 375 3400 
L 375 3875 
Q 725 3850 1050 3850 
L 1300 3850 
L 1300 4350 
Q 1300 4750 1275 5100 
L 1850 5100 
Q 1800 4850 1800 4350 
L 1800 3850 
L 2075 3850 
Q 2350 3850 2700 3875 
L 2700 3425 
Q 2150 3450 1800 3450 
L 1800 2450 
Q 1950 2575 2150 2725 
z
" transform="scale(0.015625)"/>
       </defs>
       <use xlink:href="#SimHei-968f"/>
       <use xlink:href="#SimHei-673a" transform="translate(100 0)"/>
       <use xlink:href="#SimHei-20" transform="translate(200 0)"/>
       <use xlink:href="#SimHei-30" transform="translate(250 0)"/>
      </g>
      <!-- 本期未发生 -->
      <g transform="translate(289.005469 327.470344) scale(0.11 -0.11)">
       <defs>
        <path id="SimHei-672c" d="M 2950 3925 
L 2950 4425 
Q 2950 4825 2925 5175 
L 3475 5175 
Q 3450 4900 3450 4450 
L 3450 3925 
L 4850 3925 
Q 5275 3925 5850 3950 
L 5850 3475 
Q 5300 3500 4875 3500 
L 3850 3500 
Q 4200 2350 4862 1687 
Q 5525 1025 6075 800 
Q 5850 625 5650 325 
Q 4800 900 4262 1637 
Q 3725 2375 3450 3350 
L 3450 1000 
L 3775 1000 
Q 4175 1000 4600 1025 
L 4600 550 
Q 4175 575 3750 575 
L 3450 575 
Q 3450 0 3475 -600 
L 2925 -600 
Q 2950 0 2950 575 
L 2625 575 
Q 2225 575 1825 550 
L 1825 1025 
Q 2225 1000 2625 1000 
L 2950 1000 
L 2950 3300 
Q 2550 2275 2062 1575 
Q 1575 875 750 175 
Q 550 450 275 575 
Q 1100 1075 1650 1825 
Q 2200 2575 2525 3500 
L 1425 3500 
Q 1025 3500 575 3475 
L 575 3950 
Q 1025 3925 1400 3925 
L 2950 3925 
z
" transform="scale(0.015625)"/>
        <path id="SimHei-671f" d="M 4900 -25 
Q 5475 -100 5425 175 
L 5425 1575 
L 4325 1575 
Q 4275 975 4050 425 
Q 3825 -125 3400 -600 
Q 3225 -375 2925 -275 
Q 3350 150 3562 625 
Q 3775 1100 3812 1575 
Q 3850 2050 3850 3125 
Q 3850 4225 3825 4875 
L 5950 4875 
Q 5925 4400 5925 3725 
L 5925 50 
Q 5925 -300 5700 -425 
Q 5475 -550 5100 -600 
Q 5100 -325 4900 -25 
z
M 950 4300 
Q 950 4675 925 5125 
L 1450 5125 
Q 1425 4625 1425 4300 
L 2550 4300 
Q 2550 4775 2525 5125 
L 3075 5125 
Q 3050 4700 3050 4300 
Q 3225 4300 3500 4325 
L 3500 3900 
Q 3250 3925 3050 3925 
L 3050 1550 
Q 3250 1550 3500 1575 
L 3500 1150 
Q 3025 1175 2575 1175 
L 1225 1175 
Q 675 1175 275 1150 
L 275 1575 
Q 650 1550 950 1550 
L 950 3925 
Q 725 3925 425 3900 
L 425 4325 
Q 700 4300 950 4300 
z
M 5425 3375 
L 5425 4500 
L 4350 4500 
L 4350 3375 
L 5425 3375 
z
M 5425 1950 
L 5425 3000 
L 4350 3000 
L 4350 1950 
L 5425 1950 
z
M 1600 725 
Q 1425 650 1162 287 
Q 900 -75 650 -350 
Q 400 -175 225 -75 
Q 450 100 700 412 
Q 950 725 1100 1025 
L 1600 725 
z
M 2550 3375 
L 2550 3925 
L 1425 3925 
L 1425 3375 
L 2550 3375 
z
M 2550 1550 
L 2550 2100 
L 1425 2100 
L 1425 1550 
L 2550 1550 
z
M 2550 2475 
L 2550 3000 
L 1425 3000 
L 1425 2475 
L 2550 2475 
z
M 2850 -75 
Q 2450 525 2225 725 
Q 2375 825 2550 1025 
Q 2850 725 3250 275 
Q 3050 125 2850 -75 
z
" transform="scale(0.015625)"/>
        <path id="SimHei-672a" d="M 2875 4150 
Q 2875 4900 2850 5225 
L 3400 5225 
Q 3375 4925 3375 4150 
L 4475 4150 
Q 4950 4150 5375 4175 
L 5375 3725 
Q 4950 3750 4475 3750 
L 3375 3750 
L 3375 2750 
L 4850 2750 
Q 5400 2750 5875 2775 
L 5875 2325 
Q 5400 2350 4875 2350 
L 3675 2350 
Q 4125 1675 4662 1187 
Q 5200 700 6175 425 
Q 5850 275 5725 -100 
Q 5050 150 4462 650 
Q 3875 1150 3375 2050 
L 3375 300 
Q 3375 -175 3400 -575 
L 2825 -575 
Q 2875 -175 2875 300 
L 2875 2125 
Q 2275 1150 1700 650 
Q 1125 150 675 -150 
Q 575 75 225 300 
Q 650 450 1312 1000 
Q 1975 1550 2475 2350 
L 1225 2350 
Q 675 2350 375 2325 
L 375 2775 
Q 750 2750 1275 2750 
L 2875 2750 
L 2875 3750 
L 1825 3750 
Q 1225 3750 850 3725 
L 850 4175 
Q 1225 4150 1775 4150 
L 2875 4150 
z
" transform="scale(0.015625)"/>
        <path id="SimHei-53d1" d="M 3475 4925 
Q 3350 4650 3275 4362 
Q 3200 4075 3075 3575 
L 5075 3575 
Q 5325 3575 5825 3600 
L 5825 3125 
Q 5325 3150 5075 3150 
L 2975 3150 
Q 2825 2775 2650 2400 
L 5300 2400 
Q 4825 1250 3975 475 
Q 4650 0 5950 -150 
Q 5775 -350 5650 -650 
Q 5150 -550 4625 -362 
Q 4100 -175 3600 175 
Q 3200 -75 2625 -312 
Q 2050 -550 1450 -700 
Q 1400 -450 1200 -225 
Q 1750 -150 2300 37 
Q 2850 225 3275 500 
Q 2850 925 2325 1725 
Q 2050 1275 1625 850 
Q 1200 425 700 75 
Q 600 250 300 450 
Q 675 650 1037 975 
Q 1400 1300 1800 1837 
Q 2200 2375 2475 3150 
Q 1825 3150 1475 3125 
Q 1125 3100 950 3025 
Q 875 3250 750 3500 
Q 1000 3550 1112 3875 
Q 1225 4200 1350 4875 
Q 1550 4775 1900 4675 
Q 1775 4425 1675 4162 
Q 1575 3900 1450 3575 
L 2600 3575 
Q 2800 4375 2900 5100 
Q 3175 4950 3475 4925 
z
M 2675 2000 
Q 3025 1375 3650 750 
Q 4200 1200 4625 2000 
L 2675 2000 
z
M 4400 5075 
Q 4825 4600 5250 4100 
Q 5075 4000 4825 3775 
Q 4425 4350 4050 4750 
Q 4225 4875 4400 5075 
z
" transform="scale(0.015625)"/>
        <path id="SimHei-751f" d="M 1875 4650 
Q 1725 4475 1625 4212 
Q 1525 3950 1425 3700 
L 2925 3700 
L 2925 4575 
Q 2925 4900 2900 5200 
L 3475 5200 
Q 3450 4925 3450 4575 
L 3450 3700 
L 4550 3700 
Q 4950 3700 5450 3725 
L 5450 3225 
Q 4975 3250 4550 3250 
L 3450 3250 
L 3450 2125 
L 4225 2125 
Q 4575 2125 5075 2150 
L 5075 1650 
Q 4600 1675 4225 1675 
L 3450 1675 
L 3450 175 
L 4950 175 
Q 5350 175 5875 200 
L 5875 -275 
Q 5375 -250 4950 -250 
L 1350 -250 
Q 925 -250 475 -275 
L 475 200 
Q 950 175 1350 175 
L 2925 175 
L 2925 1675 
L 2000 1675 
Q 1650 1675 1275 1650 
L 1275 2150 
Q 1650 2125 2000 2125 
L 2925 2125 
L 2925 3250 
L 1250 3250 
Q 1025 2725 800 2350 
Q 525 2475 200 2525 
Q 475 2825 787 3487 
Q 1100 4150 1225 4900 
L 1875 4650 
z
" transform="scale(0.015625)"/>
       </defs>
       <use xlink:href="#SimHei-672c"/>
       <use xlink:href="#SimHei-671f" transform="translate(100 0)"/>
       <use xlink:href="#SimHei-672a" transform="translate(200 0)"/>
       <use xlink:href="#SimHei-53d1" transform="translate(300 0)"/>
       <use xlink:href="#SimHei-751f" transform="translate(400 0)"/>
      </g>
     </g>
    </g>
    <g id="xtick_3">
     <g id="line2d_5">
      <path d="M 492.994917 299.716437 
L 492.994917 23.873437 
" clip-path="url(#p6758321fb0)" style="fill: none; stroke: #b0b0b0; stroke-opacity: 0.22; stroke-width: 0.8; stroke-linecap: square"/>
     </g>
     <g id="line2d_6">
      <g>
       <use xlink:href="#md8b0c7b44f" x="492.994917" y="299.716437" style="stroke: #000000; stroke-width: 0.8"/>
      </g>
     </g>
     <g id="text_3">
      <!-- 正计数 -->
      <g transform="translate(476.494917 315.267219) scale(0.11 -0.11)">
       <defs>
        <path id="SimHei-6b63" d="M 4825 4625 
Q 5300 4625 5675 4650 
L 5675 4150 
Q 5300 4175 4775 4175 
L 3575 4175 
L 3575 2600 
L 4850 2600 
Q 5250 2600 5550 2625 
L 5550 2150 
Q 5250 2175 4850 2175 
L 3575 2175 
L 3575 150 
L 4850 150 
Q 5375 150 5900 175 
L 5900 -325 
Q 5375 -300 4975 -300 
L 1175 -300 
Q 700 -300 375 -325 
L 375 175 
Q 700 150 1175 150 
L 1325 150 
L 1325 2350 
Q 1325 2800 1300 3125 
L 1875 3125 
Q 1850 2825 1850 2350 
L 1850 150 
L 3075 150 
L 3075 4175 
L 1625 4175 
Q 1150 4175 800 4150 
L 800 4650 
Q 1150 4625 1625 4625 
L 4825 4625 
z
" transform="scale(0.015625)"/>
        <path id="SimHei-8ba1" d="M 3925 3100 
L 3925 4350 
Q 3925 4850 3900 5125 
L 4425 5125 
Q 4400 4800 4400 4550 
L 4400 3100 
L 5425 3100 
Q 5725 3100 6075 3125 
L 6075 2650 
Q 5700 2675 5450 2675 
L 4400 2675 
L 4400 175 
Q 4400 -125 4425 -550 
L 3900 -550 
Q 3925 -125 3925 150 
L 3925 2675 
L 2950 2675 
Q 2575 2675 2200 2650 
L 2200 3125 
Q 2575 3100 2900 3100 
L 3925 3100 
z
M 1775 3150 
Q 1750 2675 1750 2150 
L 1750 625 
Q 2175 1050 2425 1400 
Q 2575 1200 2775 1000 
L 2075 300 
Q 1750 -25 1450 -350 
Q 1275 -125 1125 50 
Q 1300 250 1275 650 
L 1275 2725 
Q 600 2725 275 2700 
L 275 3175 
Q 675 3150 825 3150 
L 1775 3150 
z
M 1150 5050 
Q 1475 4725 2175 4000 
Q 1950 3800 1750 3625 
Q 1425 4100 775 4750 
Q 950 4875 1150 5050 
z
" transform="scale(0.015625)"/>
        <path id="SimHei-6570" d="M 4525 4925 
Q 4475 4800 4400 4587 
Q 4325 4375 4175 3825 
L 5325 3825 
Q 5575 3825 5925 3850 
L 5925 3400 
Q 5650 3425 5500 3425 
Q 5500 3025 5362 2162 
Q 5225 1300 4875 675 
Q 5125 375 5437 137 
Q 5750 -100 6025 -200 
Q 5725 -425 5625 -625 
Q 5325 -450 5075 -225 
Q 4825 0 4575 325 
Q 4300 25 3987 -187 
Q 3675 -400 3200 -650 
Q 3075 -425 2850 -300 
Q 3225 -150 3650 125 
Q 4075 400 4300 675 
Q 4125 1025 3962 1425 
Q 3800 1825 3675 2475 
Q 3600 2275 3425 1950 
Q 3250 2050 3000 2150 
Q 3400 2850 3650 3675 
Q 3900 4500 3975 5100 
Q 4275 4975 4525 4925 
z
M 2100 2250 
Q 2000 2150 1875 1925 
L 3250 1925 
Q 3100 1300 2725 675 
Q 3125 525 3350 400 
Q 3225 225 3125 25 
Q 2900 175 2450 325 
Q 1950 -225 725 -650 
Q 600 -375 400 -275 
Q 1575 0 2000 475 
Q 1300 650 850 775 
Q 1000 1000 1250 1525 
Q 1000 1525 425 1500 
L 425 1950 
Q 900 1925 1400 1925 
Q 1500 2150 1550 2425 
Q 1825 2325 2100 2250 
z
M 1775 3950 
Q 1775 4550 1750 5100 
L 2250 5100 
Q 2225 4575 2225 3950 
Q 3075 3950 3425 3975 
L 3425 3525 
Q 3075 3550 2225 3550 
Q 2225 2825 2250 2425 
L 1750 2425 
Q 1775 2775 1775 3300 
Q 1650 3100 1300 2787 
Q 950 2475 650 2300 
Q 525 2525 275 2625 
Q 500 2700 875 2975 
Q 1250 3250 1450 3550 
Q 950 3550 500 3525 
L 500 3975 
Q 925 3950 1775 3950 
z
M 3975 3175 
Q 4200 1700 4600 1125 
Q 4850 1700 4937 2287 
Q 5025 2875 5050 3425 
L 4075 3425 
L 3975 3175 
z
M 1450 1000 
Q 1750 925 2275 800 
Q 2475 1050 2650 1525 
L 1725 1525 
Q 1600 1275 1450 1000 
z
M 3325 4825 
Q 3200 4625 3125 4450 
Q 3050 4275 2925 4025 
Q 2725 4125 2525 4175 
Q 2725 4500 2900 5000 
Q 3150 4875 3325 4825 
z
M 2575 3375 
Q 2900 3050 3200 2725 
Q 3050 2600 2875 2425 
Q 2525 2850 2300 3100 
Q 2450 3225 2575 3375 
z
M 925 5000 
Q 1275 4650 1500 4300 
L 1125 4075 
Q 950 4425 600 4725 
Q 825 4875 925 5000 
z
" transform="scale(0.015625)"/>
       </defs>
       <use xlink:href="#SimHei-6b63"/>
       <use xlink:href="#SimHei-8ba1" transform="translate(100 0)"/>
       <use xlink:href="#SimHei-6570" transform="translate(200 0)"/>
      </g>
      <!-- 有贷款笔数 -->
      <g transform="translate(465.494917 327.212531) scale(0.11 -0.11)">
       <defs>
        <path id="SimHei-6709" d="M 275 1625 
Q 850 1975 1400 2537 
Q 1950 3100 2400 3925 
L 1500 3925 
Q 1150 3925 625 3900 
L 625 4375 
Q 1275 4350 1600 4350 
L 2550 4350 
Q 2750 4950 2775 5225 
Q 3150 5125 3375 5075 
Q 3300 5000 3125 4350 
L 5150 4350 
Q 5575 4350 6025 4375 
L 6025 3900 
Q 5575 3925 5225 3925 
L 2975 3925 
Q 2800 3600 2600 3275 
L 5475 3275 
Q 5450 2650 5450 2150 
L 5450 125 
Q 5450 -225 5250 -387 
Q 5050 -550 4400 -600 
Q 4375 -325 4225 0 
Q 4600 -50 4775 -25 
Q 4950 0 4950 250 
L 4950 750 
L 2350 750 
L 2350 -575 
L 1800 -575 
Q 1825 50 1825 500 
L 1825 2275 
Q 1300 1675 725 1225 
Q 625 1400 275 1625 
z
M 4950 2175 
L 4950 2875 
L 2350 2875 
L 2350 2175 
L 4950 2175 
z
M 4950 1150 
L 4950 1775 
L 2350 1775 
L 2350 1150 
L 4950 1150 
z
" transform="scale(0.015625)"/>
        <path id="SimHei-7b14" d="M 5475 2850 
Q 5175 2850 4625 2800 
L 3250 2675 
L 3250 2150 
Q 4875 2225 5500 2275 
L 5525 1800 
Q 5225 1800 4700 1775 
Q 4175 1750 3250 1700 
L 3250 1175 
Q 3650 1175 4362 1200 
Q 5075 1225 5900 1275 
L 5950 800 
Q 5550 800 4775 762 
Q 4000 725 3250 700 
L 3250 250 
Q 3250 -125 3650 -125 
L 5150 -125 
Q 5350 -125 5412 12 
Q 5475 150 5550 550 
Q 5825 325 6175 250 
Q 5925 -325 5787 -425 
Q 5650 -525 5375 -525 
L 3475 -525 
Q 2725 -525 2725 150 
L 2725 675 
Q 2125 650 1612 637 
Q 1100 625 325 575 
L 300 1075 
Q 825 1075 1525 1100 
Q 2225 1125 2725 1150 
L 2725 1675 
Q 2175 1650 1612 1625 
Q 1050 1600 650 1575 
L 625 2050 
Q 1900 2075 2725 2100 
L 2725 2650 
Q 2225 2625 1850 2612 
Q 1475 2600 950 2550 
Q 875 2825 775 3025 
Q 1700 3000 3037 3087 
Q 4375 3175 5125 3350 
Q 5225 3100 5475 2850 
z
M 1950 5050 
Q 1750 4850 1600 4625 
L 2475 4625 
Q 2950 4625 3275 4650 
L 3275 4200 
Q 2975 4225 2575 4225 
L 2375 4225 
Q 2525 3825 2750 3425 
Q 2450 3350 2200 3225 
Q 2100 3650 1925 4225 
L 1375 4225 
Q 1125 3750 700 3150 
Q 475 3400 250 3500 
Q 625 3875 887 4350 
Q 1150 4825 1325 5275 
Q 1625 5125 1950 5050 
z
M 3625 3300 
Q 3375 3450 3150 3525 
Q 3450 3850 3662 4337 
Q 3875 4825 3975 5250 
L 4575 5050 
Q 4400 4825 4300 4625 
L 5275 4625 
Q 5525 4625 6125 4650 
L 6125 4200 
Q 5625 4225 5175 4225 
Q 5375 3950 5575 3625 
Q 5325 3525 5075 3400 
Q 4950 3775 4675 4225 
L 4125 4225 
Q 3900 3750 3625 3300 
z
" transform="scale(0.015625)"/>
       </defs>
       <use xlink:href="#SimHei-6709"/>
       <use xlink:href="#SimHei-8d37" transform="translate(100 0)"/>
       <use xlink:href="#SimHei-6b3e" transform="translate(200 0)"/>
       <use xlink:href="#SimHei-7b14" transform="translate(300 0)"/>
       <use xlink:href="#SimHei-6570" transform="translate(400 0)"/>
      </g>
     </g>
    </g>
   </g>
   <g id="matplotlib.axis_2">
    <g id="ytick_1">
     <g id="line2d_7">
      <path d="M 44.711719 299.716437 
L 588.299219 299.716437 
" clip-path="url(#p6758321fb0)" style="fill: none; stroke: #b0b0b0; stroke-opacity: 0.22; stroke-width: 0.8; stroke-linecap: square"/>
     </g>
     <g id="line2d_8">
      <defs>
       <path id="md42ff59d6c" d="M 0 0 
L -3.5 0 
" style="stroke: #000000; stroke-width: 0.8"/>
      </defs>
      <g>
       <use xlink:href="#md42ff59d6c" x="44.711719" y="299.716437" style="stroke: #000000; stroke-width: 0.8"/>
      </g>
     </g>
     <g id="text_4">
      <!-- 0.0 -->
      <g transform="translate(21.211719 303.497687) scale(0.11 -0.11)">
       <defs>
        <path id="SimHei-2e" d="M 1075 125 
L 500 125 
L 500 675 
L 1075 675 
L 1075 125 
z
" transform="scale(0.015625)"/>
       </defs>
       <use xlink:href="#SimHei-30"/>
       <use xlink:href="#SimHei-2e" transform="translate(50 0)"/>
       <use xlink:href="#SimHei-30" transform="translate(100 0)"/>
      </g>
     </g>
    </g>
    <g id="ytick_2">
     <g id="line2d_9">
      <path d="M 44.711719 255.669651 
L 588.299219 255.669651 
" clip-path="url(#p6758321fb0)" style="fill: none; stroke: #b0b0b0; stroke-opacity: 0.22; stroke-width: 0.8; stroke-linecap: square"/>
     </g>
     <g id="line2d_10">
      <g>
       <use xlink:href="#md42ff59d6c" x="44.711719" y="255.669651" style="stroke: #000000; stroke-width: 0.8"/>
      </g>
     </g>
     <g id="text_5">
      <!-- 0.1 -->
      <g transform="translate(21.211719 259.450901) scale(0.11 -0.11)">
       <defs>
        <path id="SimHei-31" d="M 1400 3600 
Q 1075 3275 575 2975 
L 575 3450 
Q 1200 3875 1600 4450 
L 1900 4450 
L 1900 150 
L 1400 150 
L 1400 3600 
z
" transform="scale(0.015625)"/>
       </defs>
       <use xlink:href="#SimHei-30"/>
       <use xlink:href="#SimHei-2e" transform="translate(50 0)"/>
       <use xlink:href="#SimHei-31" transform="translate(100 0)"/>
      </g>
     </g>
    </g>
    <g id="ytick_3">
     <g id="line2d_11">
      <path d="M 44.711719 211.622865 
L 588.299219 211.622865 
" clip-path="url(#p6758321fb0)" style="fill: none; stroke: #b0b0b0; stroke-opacity: 0.22; stroke-width: 0.8; stroke-linecap: square"/>
     </g>
     <g id="line2d_12">
      <g>
       <use xlink:href="#md42ff59d6c" x="44.711719" y="211.622865" style="stroke: #000000; stroke-width: 0.8"/>
      </g>
     </g>
     <g id="text_6">
      <!-- 0.2 -->
      <g transform="translate(21.211719 215.404115) scale(0.11 -0.11)">
       <defs>
        <path id="SimHei-32" d="M 300 250 
Q 325 625 650 925 
Q 975 1225 1475 1862 
Q 1975 2500 2125 2850 
Q 2275 3200 2237 3450 
Q 2200 3700 2000 3862 
Q 1800 4025 1537 4000 
Q 1275 3975 1037 3800 
Q 800 3625 675 3275 
L 200 3350 
Q 400 3925 712 4187 
Q 1025 4450 1450 4475 
Q 1700 4500 1900 4462 
Q 2100 4425 2312 4287 
Q 2525 4150 2662 3875 
Q 2800 3600 2762 3212 
Q 2725 2825 2375 2287 
Q 2025 1750 1025 600 
L 2825 600 
L 2825 150 
L 300 150 
L 300 250 
z
" transform="scale(0.015625)"/>
       </defs>
       <use xlink:href="#SimHei-30"/>
       <use xlink:href="#SimHei-2e" transform="translate(50 0)"/>
       <use xlink:href="#SimHei-32" transform="translate(100 0)"/>
      </g>
     </g>
    </g>
    <g id="ytick_4">
     <g id="line2d_13">
      <path d="M 44.711719 167.576078 
L 588.299219 167.576078 
" clip-path="url(#p6758321fb0)" style="fill: none; stroke: #b0b0b0; stroke-opacity: 0.22; stroke-width: 0.8; stroke-linecap: square"/>
     </g>
     <g id="line2d_14">
      <g>
       <use xlink:href="#md42ff59d6c" x="44.711719" y="167.576078" style="stroke: #000000; stroke-width: 0.8"/>
      </g>
     </g>
     <g id="text_7">
      <!-- 0.3 -->
      <g transform="translate(21.211719 171.357328) scale(0.11 -0.11)">
       <defs>
        <path id="SimHei-33" d="M 250 1225 
L 700 1300 
Q 800 975 1025 762 
Q 1250 550 1587 562 
Q 1925 575 2125 837 
Q 2325 1100 2300 1437 
Q 2275 1775 2037 1962 
Q 1800 2150 1275 2225 
L 1275 2550 
Q 1800 2600 2037 2825 
Q 2275 3050 2250 3412 
Q 2225 3775 1925 3937 
Q 1625 4100 1287 3975 
Q 950 3850 750 3275 
L 300 3350 
Q 450 3800 712 4100 
Q 975 4400 1425 4450 
Q 1875 4500 2212 4337 
Q 2550 4175 2687 3837 
Q 2825 3500 2725 3100 
Q 2625 2700 2150 2400 
Q 2500 2250 2687 1950 
Q 2875 1650 2812 1162 
Q 2750 675 2375 375 
Q 2000 75 1525 87 
Q 1050 100 700 387 
Q 350 675 250 1225 
z
" transform="scale(0.015625)"/>
       </defs>
       <use xlink:href="#SimHei-30"/>
       <use xlink:href="#SimHei-2e" transform="translate(50 0)"/>
       <use xlink:href="#SimHei-33" transform="translate(100 0)"/>
      </g>
     </g>
    </g>
    <g id="ytick_5">
     <g id="line2d_15">
      <path d="M 44.711719 123.529292 
L 588.299219 123.529292 
" clip-path="url(#p6758321fb0)" style="fill: none; stroke: #b0b0b0; stroke-opacity: 0.22; stroke-width: 0.8; stroke-linecap: square"/>
     </g>
     <g id="line2d_16">
      <g>
       <use xlink:href="#md42ff59d6c" x="44.711719" y="123.529292" style="stroke: #000000; stroke-width: 0.8"/>
      </g>
     </g>
     <g id="text_8">
      <!-- 0.4 -->
      <g transform="translate(21.211719 127.310542) scale(0.11 -0.11)">
       <defs>
        <path id="SimHei-34" d="M 2000 1100 
L 75 1100 
L 75 1525 
L 2100 4450 
L 2475 4450 
L 2475 1525 
L 3075 1525 
L 3075 1100 
L 2475 1100 
L 2475 150 
L 2000 150 
L 2000 1100 
z
M 2000 1525 
L 2000 3500 
L 600 1525 
L 2000 1525 
z
" transform="scale(0.015625)"/>
       </defs>
       <use xlink:href="#SimHei-30"/>
       <use xlink:href="#SimHei-2e" transform="translate(50 0)"/>
       <use xlink:href="#SimHei-34" transform="translate(100 0)"/>
      </g>
     </g>
    </g>
    <g id="ytick_6">
     <g id="line2d_17">
      <path d="M 44.711719 79.482505 
L 588.299219 79.482505 
" clip-path="url(#p6758321fb0)" style="fill: none; stroke: #b0b0b0; stroke-opacity: 0.22; stroke-width: 0.8; stroke-linecap: square"/>
     </g>
     <g id="line2d_18">
      <g>
       <use xlink:href="#md42ff59d6c" x="44.711719" y="79.482505" style="stroke: #000000; stroke-width: 0.8"/>
      </g>
     </g>
     <g id="text_9">
      <!-- 0.5 -->
      <g transform="translate(21.211719 83.263755) scale(0.11 -0.11)">
       <defs>
        <path id="SimHei-35" d="M 550 1325 
Q 725 650 1150 575 
Q 1575 500 1837 662 
Q 2100 825 2212 1087 
Q 2325 1350 2312 1675 
Q 2300 2000 2137 2225 
Q 1975 2450 1725 2525 
Q 1475 2600 1162 2525 
Q 850 2450 650 2175 
L 225 2225 
Q 275 2375 700 4375 
L 2675 4375 
L 2675 3925 
L 1075 3925 
Q 950 3250 825 2850 
Q 1200 3025 1525 3012 
Q 1850 3000 2150 2862 
Q 2450 2725 2587 2487 
Q 2725 2250 2787 2012 
Q 2850 1775 2837 1500 
Q 2825 1225 2725 937 
Q 2625 650 2425 462 
Q 2225 275 1937 162 
Q 1650 50 1275 75 
Q 900 100 562 350 
Q 225 600 100 1200 
L 550 1325 
z
" transform="scale(0.015625)"/>
       </defs>
       <use xlink:href="#SimHei-30"/>
       <use xlink:href="#SimHei-2e" transform="translate(50 0)"/>
       <use xlink:href="#SimHei-35" transform="translate(100 0)"/>
      </g>
     </g>
    </g>
    <g id="ytick_7">
     <g id="line2d_19">
      <path d="M 44.711719 35.435719 
L 588.299219 35.435719 
" clip-path="url(#p6758321fb0)" style="fill: none; stroke: #b0b0b0; stroke-opacity: 0.22; stroke-width: 0.8; stroke-linecap: square"/>
     </g>
     <g id="line2d_20">
      <g>
       <use xlink:href="#md42ff59d6c" x="44.711719" y="35.435719" style="stroke: #000000; stroke-width: 0.8"/>
      </g>
     </g>
     <g id="text_10">
      <!-- 0.6 -->
      <g transform="translate(21.211719 39.216969) scale(0.11 -0.11)">
       <defs>
        <path id="SimHei-36" d="M 250 1612 
Q 275 1975 387 2225 
Q 500 2475 725 2850 
L 1750 4450 
L 2325 4450 
L 1275 2800 
Q 1950 2975 2350 2750 
Q 2750 2525 2887 2237 
Q 3025 1950 3037 1612 
Q 3050 1275 2937 950 
Q 2825 625 2537 362 
Q 2250 100 1737 75 
Q 1225 50 862 262 
Q 500 475 362 862 
Q 225 1250 250 1612 
z
M 1025 787 
Q 1250 550 1625 525 
Q 2000 500 2250 775 
Q 2500 1050 2500 1575 
Q 2500 2100 2187 2300 
Q 1875 2500 1487 2450 
Q 1100 2400 925 2075 
Q 750 1750 775 1387 
Q 800 1025 1025 787 
z
" transform="scale(0.015625)"/>
       </defs>
       <use xlink:href="#SimHei-30"/>
       <use xlink:href="#SimHei-2e" transform="translate(50 0)"/>
       <use xlink:href="#SimHei-36" transform="translate(100 0)"/>
      </g>
     </g>
    </g>
    <g id="text_11">
     <!-- 样本占比 -->
     <g transform="translate(15.836719 183.794937) rotate(-90) scale(0.11 -0.11)">
      <defs>
       <path id="SimHei-6837" d="M 4350 4025 
Q 4600 4575 4850 5225 
Q 5250 5075 5375 5000 
Q 5150 4725 4850 4025 
L 4950 4025 
Q 5650 4050 5950 4050 
L 5950 3600 
Q 5675 3625 5175 3625 
L 4550 3625 
L 4550 2650 
L 4950 2650 
Q 5525 2675 5800 2675 
L 5800 2225 
Q 5475 2250 5025 2250 
L 4550 2250 
L 4550 1225 
L 5325 1225 
Q 5800 1250 6100 1250 
L 6100 800 
Q 5825 825 5325 825 
L 4550 825 
L 4550 275 
Q 4550 -250 4575 -600 
L 4075 -600 
L 4075 825 
L 3475 825 
Q 3000 825 2550 800 
L 2550 1275 
Q 3000 1250 3500 1225 
L 4075 1225 
L 4075 2250 
L 3650 2250 
Q 3225 2250 2900 2225 
L 2900 2700 
Q 3200 2675 3675 2650 
L 4075 2650 
L 4075 3625 
L 3475 3625 
Q 3050 3625 2750 3600 
L 2750 4075 
Q 3050 4050 3475 4025 
L 4350 4025 
z
M 1325 4350 
Q 1325 4775 1300 5125 
L 1825 5125 
Q 1800 4725 1800 4350 
L 1800 3750 
Q 2125 3750 2475 3775 
L 2475 3325 
Q 2125 3350 1800 3350 
L 1800 2425 
Q 2000 2600 2100 2675 
Q 2375 2325 2725 1775 
Q 2575 1700 2300 1475 
Q 2025 1975 1800 2350 
L 1800 475 
Q 1800 -50 1825 -575 
L 1300 -575 
Q 1325 -25 1325 475 
L 1325 2250 
Q 925 1300 525 725 
Q 425 950 225 1175 
Q 950 2150 1225 3350 
Q 825 3350 350 3325 
L 350 3775 
Q 825 3750 1325 3750 
L 1325 4350 
z
M 3575 5200 
Q 3800 4775 3950 4350 
Q 3650 4250 3525 4175 
Q 3350 4600 3150 5000 
Q 3425 5125 3575 5200 
z
" transform="scale(0.015625)"/>
       <path id="SimHei-5360" d="M 2725 4400 
Q 2725 4800 2700 5075 
L 3375 5075 
Q 3350 4775 3350 4400 
L 3350 4000 
L 5250 4000 
Q 5900 4000 6150 4025 
L 6150 3525 
Q 5900 3550 5300 3550 
L 3350 3550 
L 3350 2325 
L 5450 2325 
Q 5400 2000 5400 1525 
L 5400 325 
Q 5400 -250 5450 -550 
L 4850 -550 
L 4850 -25 
L 1475 -25 
L 1475 -550 
L 875 -550 
Q 900 -150 900 175 
L 900 1550 
Q 900 2000 875 2325 
L 2725 2325 
L 2725 4400 
z
M 4850 425 
L 4850 1875 
L 1475 1875 
L 1475 425 
L 4850 425 
z
" transform="scale(0.015625)"/>
       <path id="SimHei-6bd4" d="M 3775 5100 
Q 3750 4575 3750 4100 
L 3750 3050 
Q 4925 3600 5475 4175 
Q 5675 3900 5900 3675 
Q 5600 3500 5037 3187 
Q 4475 2875 3750 2550 
L 3750 450 
Q 3750 100 4050 100 
L 5000 100 
Q 5175 100 5262 250 
Q 5350 400 5450 900 
Q 5650 775 6025 675 
Q 5850 0 5650 -175 
Q 5450 -350 5225 -350 
L 3900 -350 
Q 3250 -350 3250 275 
L 3250 4000 
Q 3250 4550 3225 5100 
L 3775 5100 
z
M 1275 4975 
Q 1250 4575 1250 4000 
L 1250 3150 
L 1850 3150 
Q 2325 3150 2875 3175 
L 2875 2650 
Q 2325 2675 1850 2675 
L 1250 2675 
L 1250 475 
Q 1650 650 1962 812 
Q 2275 975 2850 1275 
Q 2900 950 2950 750 
Q 2375 475 1762 175 
Q 1150 -125 925 -325 
Q 750 -100 575 200 
Q 700 300 750 600 
L 750 3950 
Q 750 4550 725 4975 
L 1275 4975 
z
" transform="scale(0.015625)"/>
      </defs>
      <use xlink:href="#SimHei-6837"/>
      <use xlink:href="#SimHei-672c" transform="translate(100 0)"/>
      <use xlink:href="#SimHei-5360" transform="translate(200 0)"/>
      <use xlink:href="#SimHei-6bd4" transform="translate(300 0)"/>
     </g>
    </g>
   </g>
   <g id="patch_6">
    <path d="M 44.711719 299.716437 
L 44.711719 23.873437 
" style="fill: none; stroke: #000000; stroke-width: 0.8; stroke-linejoin: miter; stroke-linecap: square"/>
   </g>
   <g id="patch_7">
    <path d="M 44.711719 299.716437 
L 588.299219 299.716437 
" style="fill: none; stroke: #000000; stroke-width: 0.8; stroke-linejoin: miter; stroke-linecap: square"/>
   </g>
   <g id="text_12">
    <!-- 50.6% -->
    <g transform="translate(126.266021 70.122563) scale(0.11 -0.11)">
     <defs>
      <path id="SimHei-25" d="M 1400 3325 
Q 1400 2600 1187 2400 
Q 975 2200 775 2200 
Q 575 2200 362 2400 
Q 150 2600 150 3325 
Q 150 4050 362 4250 
Q 575 4450 775 4450 
Q 975 4450 1187 4250 
Q 1400 4050 1400 3325 
z
M 2625 4375 
L 700 75 
L 500 150 
L 2425 4450 
L 2625 4375 
z
M 2975 1200 
Q 2975 475 2762 275 
Q 2550 75 2350 75 
Q 2150 75 1937 275 
Q 1725 475 1725 1200 
Q 1725 1925 1937 2125 
Q 2150 2325 2350 2325 
Q 2550 2325 2762 2125 
Q 2975 1925 2975 1200 
z
M 1000 3325 
Q 1000 3775 950 3925 
Q 900 4075 775 4075 
Q 650 4075 600 3925 
Q 550 3775 550 3325 
Q 550 2875 600 2725 
Q 650 2575 775 2575 
Q 900 2575 950 2725 
Q 1000 2875 1000 3325 
z
M 2575 1200 
Q 2575 1650 2525 1800 
Q 2475 1950 2350 1950 
Q 2225 1950 2175 1800 
Q 2125 1650 2125 1200 
Q 2125 750 2175 600 
Q 2225 450 2350 450 
Q 2475 450 2525 600 
Q 2575 750 2575 1200 
z
" transform="scale(0.015625)"/>
     </defs>
     <use xlink:href="#SimHei-35"/>
     <use xlink:href="#SimHei-30" transform="translate(50 0)"/>
     <use xlink:href="#SimHei-2e" transform="translate(100 0)"/>
     <use xlink:href="#SimHei-36" transform="translate(150 0)"/>
     <use xlink:href="#SimHei-25" transform="translate(200 0)"/>
    </g>
   </g>
   <g id="text_13">
    <!-- 8.5% -->
    <g transform="translate(305.505469 255.889885) scale(0.11 -0.11)">
     <defs>
      <path id="SimHei-38" d="M 175 1375 
Q 175 1675 325 1962 
Q 475 2250 825 2425 
Q 525 2600 425 2812 
Q 325 3025 312 3300 
Q 300 3575 387 3775 
Q 475 3975 650 4150 
Q 825 4325 1037 4387 
Q 1250 4450 1500 4450 
Q 1750 4450 1950 4400 
Q 2150 4350 2375 4187 
Q 2600 4025 2700 3725 
Q 2800 3425 2687 3025 
Q 2575 2625 2100 2400 
Q 2525 2275 2700 2012 
Q 2875 1750 2875 1375 
Q 2875 1000 2762 775 
Q 2650 550 2512 400 
Q 2375 250 2137 162 
Q 1900 75 1537 75 
Q 1175 75 912 162 
Q 650 250 475 425 
Q 300 600 237 837 
Q 175 1075 175 1375 
z
M 687 1400 
Q 675 1100 787 875 
Q 900 650 1200 587 
Q 1500 525 1825 600 
Q 2150 675 2275 950 
Q 2400 1225 2362 1500 
Q 2325 1775 2050 1962 
Q 1775 2150 1450 2125 
Q 1125 2100 912 1900 
Q 700 1700 687 1400 
z
M 775 3350 
Q 775 3100 950 2875 
Q 1125 2650 1500 2650 
Q 1875 2650 2062 2875 
Q 2250 3100 2237 3412 
Q 2225 3725 2012 3875 
Q 1800 4025 1437 4000 
Q 1075 3975 925 3787 
Q 775 3600 775 3350 
z
" transform="scale(0.015625)"/>
     </defs>
     <use xlink:href="#SimHei-38"/>
     <use xlink:href="#SimHei-2e" transform="translate(50 0)"/>
     <use xlink:href="#SimHei-35" transform="translate(100 0)"/>
     <use xlink:href="#SimHei-25" transform="translate(150 0)"/>
    </g>
   </g>
   <g id="text_14">
    <!-- 40.9% -->
    <g transform="translate(479.244917 112.847946) scale(0.11 -0.11)">
     <defs>
      <path id="SimHei-39" d="M 800 75 
Q 1350 1000 1700 1750 
Q 1075 1650 662 1912 
Q 250 2175 162 2625 
Q 75 3075 175 3437 
Q 275 3800 487 4037 
Q 700 4275 1000 4375 
Q 1300 4475 1537 4475 
Q 1775 4475 2025 4375 
Q 2275 4275 2475 4075 
Q 2675 3875 2750 3662 
Q 2825 3450 2825 3112 
Q 2825 2775 2575 2250 
Q 2325 1725 1350 75 
L 800 75 
z
M 662 2875 
Q 700 2550 937 2337 
Q 1175 2125 1450 2150 
Q 1725 2175 1887 2300 
Q 2050 2425 2200 2725 
Q 2300 3100 2250 3362 
Q 2200 3625 1987 3800 
Q 1775 3975 1525 3975 
Q 1375 4000 1137 3900 
Q 900 3800 762 3500 
Q 625 3200 662 2875 
z
" transform="scale(0.015625)"/>
     </defs>
     <use xlink:href="#SimHei-34"/>
     <use xlink:href="#SimHei-30" transform="translate(50 0)"/>
     <use xlink:href="#SimHei-2e" transform="translate(100 0)"/>
     <use xlink:href="#SimHei-39" transform="translate(150 0)"/>
     <use xlink:href="#SimHei-25" transform="translate(200 0)"/>
    </g>
   </g>
   <g id="text_15">
    <!-- Zero-inflated model：0 可能来自两个来源 -->
    <g transform="translate(187.805469 17.873437) scale(0.132 -0.132)">
     <defs>
      <path id="SimHei-5a" d="M 2900 125 
L 225 125 
L 225 600 
L 2250 3925 
L 375 3925 
L 375 4400 
L 2825 4400 
L 2825 3925 
L 800 600 
L 2900 600 
L 2900 125 
z
" transform="scale(0.015625)"/>
      <path id="SimHei-65" d="M 2850 1075 
Q 2800 625 2450 350 
Q 2100 75 1625 75 
Q 1025 75 637 462 
Q 250 850 250 1525 
Q 250 2200 637 2587 
Q 1025 2975 1625 2975 
Q 2150 2975 2487 2637 
Q 2825 2300 2825 1525 
L 800 1525 
Q 800 975 1037 750 
Q 1275 525 1625 525 
Q 1900 525 2075 662 
Q 2250 800 2300 1075 
L 2850 1075 
z
M 2250 1925 
Q 2200 2275 2025 2412 
Q 1850 2550 1575 2550 
Q 1325 2550 1125 2412 
Q 925 2275 825 1925 
L 2250 1925 
z
" transform="scale(0.015625)"/>
      <path id="SimHei-72" d="M 2500 2425 
Q 2025 2500 1700 2287 
Q 1375 2075 1150 1550 
L 1150 125 
L 650 125 
L 650 2925 
L 1150 2925 
L 1150 2200 
Q 1375 2600 1712 2787 
Q 2050 2975 2500 2975 
L 2500 2425 
z
" transform="scale(0.015625)"/>
      <path id="SimHei-6f" d="M 2925 1525 
Q 2925 875 2525 475 
Q 2125 75 1575 75 
Q 1025 75 625 475 
Q 225 875 225 1525 
Q 225 2175 625 2575 
Q 1025 2975 1575 2975 
Q 2125 2975 2525 2575 
Q 2925 2175 2925 1525 
z
M 2375 1525 
Q 2375 2025 2125 2275 
Q 1875 2525 1575 2525 
Q 1275 2525 1025 2275 
Q 775 2025 775 1525 
Q 775 1025 1025 775 
Q 1275 525 1575 525 
Q 1875 525 2125 775 
Q 2375 1025 2375 1525 
z
" transform="scale(0.015625)"/>
      <path id="SimHei-2d" d="M 2975 2125 
L 125 2125 
L 125 2525 
L 2975 2525 
L 2975 2125 
z
" transform="scale(0.015625)"/>
      <path id="SimHei-69" d="M 1800 3725 
L 1300 3725 
L 1300 4375 
L 1800 4375 
L 1800 3725 
z
M 1800 125 
L 1300 125 
L 1300 2925 
L 1800 2925 
L 1800 125 
z
" transform="scale(0.015625)"/>
      <path id="SimHei-6e" d="M 2800 125 
L 2300 125 
L 2300 1925 
Q 2300 2225 2150 2400 
Q 2000 2575 1750 2575 
Q 1425 2575 1137 2237 
Q 850 1900 850 1400 
L 850 125 
L 350 125 
L 350 2925 
L 850 2925 
L 850 2400 
Q 1050 2675 1287 2825 
Q 1525 2975 1900 2975 
Q 2350 2975 2575 2725 
Q 2800 2475 2800 2100 
L 2800 125 
z
" transform="scale(0.015625)"/>
      <path id="SimHei-66" d="M 2850 3825 
Q 2725 3900 2550 3950 
Q 2375 4000 2100 4000 
Q 1825 4000 1725 3862 
Q 1625 3725 1625 3525 
L 1625 2925 
L 2650 2925 
L 2650 2525 
L 1625 2525 
L 1625 125 
L 1125 125 
L 1125 2525 
L 275 2525 
L 275 2925 
L 1125 2925 
L 1125 3500 
Q 1125 3950 1400 4200 
Q 1675 4450 2125 4450 
Q 2400 4450 2562 4412 
Q 2725 4375 2850 4325 
L 2850 3825 
z
" transform="scale(0.015625)"/>
      <path id="SimHei-6c" d="M 1825 125 
L 1325 125 
L 1325 4400 
L 1825 4400 
L 1825 125 
z
" transform="scale(0.015625)"/>
      <path id="SimHei-61" d="M 2875 125 
L 2275 125 
Q 2225 175 2200 262 
Q 2175 350 2175 475 
Q 2000 275 1750 175 
Q 1500 75 1225 75 
Q 825 75 550 275 
Q 275 475 275 850 
Q 275 1225 525 1450 
Q 775 1675 1300 1750 
Q 1650 1800 1912 1875 
Q 2175 1950 2175 2075 
Q 2175 2225 2062 2375 
Q 1950 2525 1575 2525 
Q 1275 2525 1137 2412 
Q 1000 2300 950 2100 
L 400 2100 
Q 450 2500 762 2737 
Q 1075 2975 1575 2975 
Q 2125 2975 2400 2725 
Q 2675 2475 2675 2025 
L 2675 650 
Q 2675 500 2725 375 
Q 2775 250 2875 125 
z
M 2175 1050 
L 2175 1550 
Q 2025 1500 1887 1462 
Q 1750 1425 1425 1375 
Q 1050 1325 937 1200 
Q 825 1075 825 900 
Q 825 750 937 637 
Q 1050 525 1275 525 
Q 1500 525 1762 650 
Q 2025 775 2175 1050 
z
" transform="scale(0.015625)"/>
      <path id="SimHei-74" d="M 2750 200 
Q 2625 150 2462 112 
Q 2300 75 2025 75 
Q 1575 75 1300 325 
Q 1025 575 1025 1025 
L 1025 2525 
L 175 2525 
L 175 2925 
L 1025 2925 
L 1025 3900 
L 1525 3900 
L 1525 2925 
L 2550 2925 
L 2550 2525 
L 1525 2525 
L 1525 1000 
Q 1525 800 1625 662 
Q 1725 525 2000 525 
Q 2275 525 2450 575 
Q 2625 625 2750 700 
L 2750 200 
z
" transform="scale(0.015625)"/>
      <path id="SimHei-64" d="M 2750 125 
L 2250 125 
L 2250 500 
Q 2100 275 1900 175 
Q 1700 75 1425 75 
Q 925 75 575 437 
Q 225 800 225 1525 
Q 225 2250 575 2625 
Q 925 3000 1425 3000 
Q 1700 3000 1900 2887 
Q 2100 2775 2250 2550 
L 2250 4400 
L 2750 4400 
L 2750 125 
z
M 2250 1525 
Q 2250 2000 2037 2275 
Q 1825 2550 1525 2550 
Q 1150 2550 962 2275 
Q 775 2000 775 1525 
Q 775 1050 962 787 
Q 1150 525 1525 525 
Q 1825 525 2037 787 
Q 2250 1050 2250 1525 
z
" transform="scale(0.015625)"/>
      <path id="SimHei-6d" d="M 3050 125 
L 2550 125 
L 2550 2150 
Q 2550 2300 2500 2400 
Q 2450 2500 2300 2500 
Q 2125 2500 1975 2312 
Q 1825 2125 1825 1825 
L 1825 125 
L 1325 125 
L 1325 2150 
Q 1325 2300 1275 2400 
Q 1225 2500 1075 2500 
Q 900 2500 750 2312 
Q 600 2125 600 1825 
L 600 125 
L 100 125 
L 100 2925 
L 600 2925 
L 600 2550 
Q 725 2750 900 2862 
Q 1075 2975 1275 2975 
Q 1475 2975 1612 2862 
Q 1750 2750 1800 2550 
Q 1925 2750 2087 2862 
Q 2250 2975 2450 2975 
Q 2750 2975 2900 2812 
Q 3050 2650 3050 2350 
L 3050 125 
z
" transform="scale(0.015625)"/>
      <path id="SimHei-ff1a" d="M 1200 2425 
L 2025 2425 
L 2025 1600 
L 1200 1600 
L 1200 2425 
z
M 1200 825 
L 2025 825 
L 2025 0 
L 1200 0 
L 1200 825 
z
" transform="scale(0.015625)"/>
      <path id="SimHei-53ef" d="M 3600 3500 
Q 3575 3175 3575 2775 
L 3575 1550 
Q 3575 1125 3600 825 
L 3075 825 
L 3075 1275 
L 1650 1275 
L 1650 600 
L 1150 600 
Q 1175 775 1175 1175 
L 1175 2775 
Q 1175 3175 1150 3500 
L 3600 3500 
z
M 5200 4675 
Q 5600 4675 6050 4700 
L 6050 4225 
Q 5650 4250 5225 4250 
L 5075 4250 
L 5075 125 
Q 5075 -325 4812 -462 
Q 4550 -600 3750 -675 
Q 3700 -350 3550 -75 
Q 4075 -100 4300 -50 
Q 4525 0 4525 225 
L 4525 4250 
L 1525 4250 
Q 875 4250 350 4225 
L 350 4700 
Q 875 4675 1500 4675 
L 5200 4675 
z
M 3075 1700 
L 3075 3075 
L 1650 3075 
L 1650 1700 
L 3075 1700 
z
" transform="scale(0.015625)"/>
      <path id="SimHei-80fd" d="M 2025 -150 
Q 2475 -150 2525 -62 
Q 2575 25 2575 200 
L 2575 550 
L 1225 550 
L 1225 -625 
L 750 -625 
Q 775 -125 775 275 
L 775 1950 
Q 775 2400 750 2750 
L 3050 2750 
Q 3025 2375 3025 1925 
L 3025 -175 
Q 3000 -450 2800 -525 
Q 2600 -600 2225 -650 
Q 2175 -425 2025 -150 
z
M 5800 1625 
Q 5700 1600 5212 1375 
Q 4725 1150 4100 950 
L 4100 250 
Q 4100 -50 4375 -50 
L 5275 -50 
Q 5475 0 5550 575 
Q 5750 475 6050 375 
Q 5875 -425 5475 -425 
L 4125 -425 
Q 3650 -425 3650 50 
L 3650 1675 
Q 3650 2050 3625 2350 
L 4125 2350 
Q 4100 2050 4100 1700 
L 4100 1375 
Q 4350 1450 4762 1650 
Q 5175 1850 5425 2075 
Q 5650 1775 5800 1625 
z
M 4100 4100 
Q 4450 4250 4775 4412 
Q 5100 4575 5425 4825 
Q 5625 4575 5775 4400 
Q 5625 4350 5137 4112 
Q 4650 3875 4100 3700 
L 4100 3325 
Q 4100 3025 4450 3025 
L 5175 3025 
Q 5425 3025 5500 3675 
Q 5750 3550 6000 3450 
Q 5825 2650 5375 2650 
L 4250 2650 
Q 3650 2650 3650 3200 
L 3650 4475 
Q 3650 4775 3625 5125 
L 4125 5125 
Q 4100 4950 4100 4400 
L 4100 4100 
z
M 3025 3075 
Q 2950 3200 2825 3350 
Q 2000 3300 1450 3250 
Q 900 3200 625 3125 
Q 550 3425 450 3650 
Q 625 3725 987 4187 
Q 1350 4650 1575 5175 
Q 1700 5075 1850 5025 
Q 2000 4975 2175 4900 
Q 1975 4750 1762 4450 
Q 1550 4150 1075 3600 
Q 2125 3650 2625 3675 
Q 2325 4075 2200 4200 
Q 2375 4300 2600 4475 
Q 2800 4200 2987 3975 
Q 3175 3750 3475 3400 
Q 3200 3200 3025 3075 
z
M 2575 950 
L 2575 1475 
L 1225 1475 
L 1225 950 
L 2575 950 
z
M 2575 1875 
L 2575 2350 
L 1225 2350 
L 1225 1875 
L 2575 1875 
z
" transform="scale(0.015625)"/>
      <path id="SimHei-6765" d="M 3450 5125 
Q 3425 4875 3425 4600 
L 3425 4300 
L 4925 4300 
Q 5225 4300 5575 4325 
L 5575 3825 
Q 5225 3875 4925 3875 
L 3425 3875 
L 3425 2425 
L 5150 2425 
Q 5525 2425 5975 2450 
L 5975 1975 
Q 5550 2000 5150 2000 
L 3850 2000 
Q 4025 1750 4275 1525 
Q 4525 1300 4812 1087 
Q 5100 875 5450 725 
Q 5800 575 6125 500 
Q 5875 275 5800 150 
Q 5725 25 5700 -75 
Q 5175 150 4837 387 
Q 4500 625 4212 900 
Q 3925 1175 3725 1425 
Q 3525 1675 3425 1900 
L 3425 475 
Q 3425 75 3450 -475 
L 2875 -475 
Q 2925 75 2925 475 
L 2925 1950 
Q 2400 1125 1825 612 
Q 1250 100 775 -175 
Q 625 50 325 275 
Q 1225 675 1775 1237 
Q 2325 1800 2425 2000 
L 1125 2000 
Q 825 2000 425 1950 
L 425 2450 
Q 825 2425 1125 2425 
L 2925 2425 
L 2925 3875 
L 1500 3875 
Q 1075 3875 775 3825 
L 775 4325 
Q 1075 4300 1475 4300 
L 2925 4300 
L 2925 4625 
Q 2875 4900 2875 5125 
L 3450 5125 
z
M 4950 3500 
Q 4700 3075 4350 2500 
Q 4125 2600 3925 2675 
Q 4325 3400 4525 3725 
Q 4750 3650 4950 3500 
z
M 1750 3700 
Q 2150 3250 2400 2750 
Q 2175 2650 1975 2525 
Q 1750 2975 1400 3425 
Q 1575 3550 1750 3700 
z
" transform="scale(0.015625)"/>
      <path id="SimHei-81ea" d="M 3200 5075 
Q 3050 4850 2900 4225 
L 5400 4225 
Q 5375 3650 5375 3175 
L 5375 375 
Q 5375 -75 5400 -525 
L 4900 -525 
L 4900 75 
L 1550 75 
L 1550 -525 
L 1050 -525 
Q 1075 -50 1075 350 
L 1075 3200 
Q 1075 3650 1050 4225 
L 2425 4225 
Q 2525 4900 2550 5225 
Q 2850 5125 3200 5075 
z
M 4900 475 
L 4900 1375 
L 1550 1375 
L 1550 475 
L 4900 475 
z
M 4900 2975 
L 4900 3800 
L 1550 3800 
L 1550 2975 
L 4900 2975 
z
M 4900 1775 
L 4900 2575 
L 1550 2575 
L 1550 1775 
L 4900 1775 
z
" transform="scale(0.015625)"/>
      <path id="SimHei-4e24" d="M 1700 825 
Q 1575 975 1325 1175 
Q 2025 1850 2250 3075 
L 1175 3075 
L 1175 -500 
L 675 -500 
Q 700 175 700 675 
L 700 2650 
Q 700 2975 675 3500 
L 2300 3500 
Q 2325 3925 2350 4475 
L 1125 4475 
Q 825 4475 525 4450 
L 525 4900 
Q 825 4875 1100 4875 
L 5250 4875 
Q 5500 4875 5975 4900 
L 5975 4450 
Q 5625 4475 5275 4475 
L 4300 4475 
Q 4300 4100 4250 3500 
L 5750 3500 
Q 5725 3050 5725 2725 
L 5725 250 
Q 5725 -175 5462 -300 
Q 5200 -425 4475 -500 
Q 4400 -150 4225 75 
Q 4975 50 5112 125 
Q 5250 200 5250 500 
L 5250 3075 
L 4200 3075 
Q 4150 2650 4050 2275 
Q 4750 1725 5125 1400 
Q 4900 1200 4750 1000 
Q 4500 1325 3950 1800 
Q 3625 1000 3250 475 
Q 3000 650 2775 725 
Q 3075 1050 3350 1637 
Q 3625 2225 3725 3075 
L 2725 3075 
Q 2650 2700 2575 2425 
Q 3075 2000 3275 1750 
Q 3100 1600 2900 1400 
Q 2625 1800 2425 2000 
Q 2150 1350 1700 825 
z
M 3775 3500 
Q 3800 4100 3800 4475 
L 2825 4475 
Q 2825 4100 2775 3500 
L 3775 3500 
z
" transform="scale(0.015625)"/>
      <path id="SimHei-4e2a" d="M 3425 4825 
Q 4475 3275 6150 2775 
Q 5900 2475 5775 2200 
Q 4150 2900 3150 4425 
Q 2225 2950 675 2125 
Q 550 2350 250 2600 
Q 1450 3100 2112 3875 
Q 2775 4650 3000 5275 
Q 3300 5150 3600 5050 
Q 3500 4925 3425 4825 
z
M 2925 2350 
Q 2925 2750 2875 3375 
L 3450 3375 
Q 3425 2950 3425 2325 
L 3425 550 
Q 3425 -25 3450 -625 
L 2900 -625 
Q 2925 0 2925 525 
L 2925 2350 
z
" transform="scale(0.015625)"/>
      <path id="SimHei-6e90" d="M 4475 4300 
Q 4350 4100 4225 3800 
L 5650 3800 
Q 5625 3425 5625 3050 
L 5625 2425 
Q 5625 2150 5650 1650 
L 4575 1650 
L 4575 -25 
Q 4575 -325 4387 -487 
Q 4200 -650 3800 -700 
Q 3725 -425 3575 -150 
Q 4100 -225 4100 100 
L 4100 1650 
L 3050 1650 
Q 3075 2050 3075 2400 
L 3075 3075 
Q 3075 3400 3050 3800 
L 3725 3800 
Q 3825 4025 3925 4425 
Q 4175 4350 4475 4300 
z
M 1200 -175 
Q 1550 150 1725 537 
Q 1900 925 1987 1450 
Q 2075 1975 2087 2537 
Q 2100 3100 2100 3750 
Q 2100 4425 2075 4975 
L 4925 4975 
Q 5500 4975 6025 5000 
L 6025 4525 
Q 5500 4550 4925 4550 
L 2575 4550 
L 2575 2875 
Q 2575 2275 2537 1787 
Q 2500 1300 2362 837 
Q 2225 375 2050 37 
Q 1875 -300 1625 -625 
Q 1500 -375 1200 -175 
z
M 1550 1775 
Q 1375 1275 1150 575 
Q 925 -125 825 -450 
Q 600 -275 250 -125 
Q 400 75 650 687 
Q 900 1300 1075 2100 
Q 1325 1900 1550 1775 
z
M 5150 2900 
L 5150 3400 
L 3550 3400 
L 3550 2900 
L 5150 2900 
z
M 2275 -100 
Q 2475 100 2700 412 
Q 2925 725 3150 1150 
Q 3325 975 3650 825 
Q 3400 600 3200 287 
Q 3000 -25 2700 -400 
Q 2475 -225 2275 -100 
z
M 5150 2050 
L 5150 2500 
L 3550 2500 
L 3550 2050 
L 5150 2050 
z
M 5300 1125 
Q 6000 350 6175 100 
Q 5950 -75 5775 -250 
Q 5575 25 5400 262 
Q 5225 500 4925 825 
Q 5100 950 5300 1125 
z
M 1325 2575 
Q 1125 2775 850 2925 
L 300 3225 
Q 400 3400 525 3625 
Q 750 3500 1062 3337 
Q 1375 3175 1625 3025 
L 1325 2575 
z
M 1425 3975 
Q 975 4475 550 4775 
Q 700 4950 875 5125 
Q 1550 4600 1775 4350 
Q 1600 4175 1425 3975 
z
" transform="scale(0.015625)"/>
     </defs>
     <use xlink:href="#SimHei-5a"/>
     <use xlink:href="#SimHei-65" transform="translate(50 0)"/>
     <use xlink:href="#SimHei-72" transform="translate(100 0)"/>
     <use xlink:href="#SimHei-6f" transform="translate(150 0)"/>
     <use xlink:href="#SimHei-2d" transform="translate(200 0)"/>
     <use xlink:href="#SimHei-69" transform="translate(250 0)"/>
     <use xlink:href="#SimHei-6e" transform="translate(300 0)"/>
     <use xlink:href="#SimHei-66" transform="translate(350 0)"/>
     <use xlink:href="#SimHei-6c" transform="translate(400 0)"/>
     <use xlink:href="#SimHei-61" transform="translate(450 0)"/>
     <use xlink:href="#SimHei-74" transform="translate(500 0)"/>
     <use xlink:href="#SimHei-65" transform="translate(550 0)"/>
     <use xlink:href="#SimHei-64" transform="translate(600 0)"/>
     <use xlink:href="#SimHei-20" transform="translate(650 0)"/>
     <use xlink:href="#SimHei-6d" transform="translate(700 0)"/>
     <use xlink:href="#SimHei-6f" transform="translate(750 0)"/>
     <use xlink:href="#SimHei-64" transform="translate(800 0)"/>
     <use xlink:href="#SimHei-65" transform="translate(850 0)"/>
     <use xlink:href="#SimHei-6c" transform="translate(900 0)"/>
     <use xlink:href="#SimHei-ff1a" transform="translate(950 0)"/>
     <use xlink:href="#SimHei-30" transform="translate(1050 0)"/>
     <use xlink:href="#SimHei-20" transform="translate(1100 0)"/>
     <use xlink:href="#SimHei-53ef" transform="translate(1150 0)"/>
     <use xlink:href="#SimHei-80fd" transform="translate(1250 0)"/>
     <use xlink:href="#SimHei-6765" transform="translate(1350 0)"/>
     <use xlink:href="#SimHei-81ea" transform="translate(1450 0)"/>
     <use xlink:href="#SimHei-4e24" transform="translate(1550 0)"/>
     <use xlink:href="#SimHei-4e2a" transform="translate(1650 0)"/>
     <use xlink:href="#SimHei-6765" transform="translate(1750 0)"/>
     <use xlink:href="#SimHei-6e90" transform="translate(1850 0)"/>
    </g>
   </g>
  </g>
 </g>
 <defs>
  <clipPath id="p6758321fb0">
   <rect x="44.711719" y="23.873437" width="543.5875" height="275.843"/>
  </clipPath>
 </defs>
</svg>
