<?xml version="1.0" encoding="utf-8" standalone="no"?>
<!DOCTYPE svg PUBLIC "-//W3C//DTD SVG 1.1//EN"
  "http://www.w3.org/Graphics/SVG/1.1/DTD/svg11.dtd">
<svg xmlns:xlink="http://www.w3.org/1999/xlink" width="609.746562pt" height="350.43375pt" viewBox="0 0 609.746562 350.43375" xmlns="http://www.w3.org/2000/svg" version="1.1">
 <metadata>
  <rdf:RDF xmlns:dc="http://purl.org/dc/elements/1.1/" xmlns:cc="http://creativecommons.org/ns#" xmlns:rdf="http://www.w3.org/1999/02/22-rdf-syntax-ns#">
   <cc:Work>
    <dc:type rdf:resource="http://purl.org/dc/dcmitype/StillImage"/>
    <dc:date>2026-04-30T01:04:13.904300</dc:date>
    <dc:format>image/svg+xml</dc:format>
    <dc:creator>
     <cc:Agent>
      <dc:title>Matplotlib v3.10.8, https://matplotlib.org/</dc:title>
     </cc:Agent>
    </dc:creator>
   </cc:Work>
  </rdf:RDF>
 </metadata>
 <defs>
  <style type="text/css">*{stroke-linejoin: round; stroke-linecap: butt}</style>
 </defs>
 <g id="figure_1">
  <g id="patch_1">
   <path d="M 0 350.43375 
L 609.746562 350.43375 
L 609.746562 0 
L 0 0 
z
" style="fill: #ffffff"/>
  </g>
  <g id="axes_1">
   <g id="patch_2">
    <path d="M 44.926563 313.155625 
L 602.546562 313.155625 
L 602.546562 24.028125 
L 44.926563 24.028125 
z
" style="fill: #ffffff"/>
   </g>
   <g id="FillBetweenPolyCollection_1">
    <path d="M 70.272926 285.175544 
L 70.272926 320.150645 
L 73.104922 320.150645 
L 75.936918 320.150645 
L 78.768914 320.150645 
L 81.60091 320.150645 
L 84.432906 320.150645 
L 87.264902 320.150645 
L 90.096898 320.150645 
L 92.928894 320.150645 
L 95.76089 320.150645 
L 98.592886 320.150645 
L 101.424881 320.150645 
L 104.256877 320.150645 
L 107.088873 320.150645 
L 109.920869 320.150645 
L 112.752865 320.150645 
L 115.584861 320.150645 
L 118.416857 320.150645 
L 121.248853 320.150645 
L 124.080849 320.150645 
L 126.912845 320.150645 
L 129.744841 320.150645 
L 132.576837 320.150645 
L 135.408833 320.150645 
L 138.240829 320.150645 
L 141.072825 320.150645 
L 143.90482 320.150645 
L 146.736816 320.150645 
L 149.568812 320.150645 
L 152.400808 320.150645 
L 155.232804 320.150645 
L 158.0648 320.150645 
L 160.896796 320.150645 
L 163.728792 320.150645 
L 166.560788 320.150645 
L 169.392784 320.150645 
L 172.22478 320.150645 
L 175.056776 320.150645 
L 177.888772 320.150645 
L 180.720768 320.150645 
L 183.552764 320.150645 
L 186.38476 320.150645 
L 189.216755 320.150645 
L 192.048751 320.150645 
L 194.880747 320.150645 
L 197.712743 320.150645 
L 200.544739 320.150645 
L 203.376735 320.150645 
L 206.208731 320.150645 
L 209.040727 320.150645 
L 211.872723 320.150645 
L 214.704719 320.150645 
L 217.536715 320.150645 
L 220.368711 320.150645 
L 223.200707 320.150645 
L 226.032703 320.150645 
L 228.864699 320.150645 
L 231.696695 320.150645 
L 234.52869 320.150645 
L 237.360686 320.150645 
L 240.192682 320.150645 
L 243.024678 320.150645 
L 245.856674 320.150645 
L 248.68867 320.150645 
L 251.520666 320.150645 
L 254.352662 320.150645 
L 257.184658 320.150645 
L 260.016654 320.150645 
L 262.84865 320.150645 
L 265.680646 320.150645 
L 268.512642 320.150645 
L 271.344638 320.150645 
L 274.176634 320.150645 
L 277.00863 320.150645 
L 279.840625 320.150645 
L 282.672621 320.150645 
L 285.504617 320.150645 
L 288.336613 320.150645 
L 291.168609 320.150645 
L 294.000605 320.150645 
L 296.832601 320.150645 
L 299.664597 320.150645 
L 302.496593 320.150645 
L 305.328589 320.150645 
L 308.160585 320.150645 
L 310.992581 320.150645 
L 313.824577 320.150645 
L 316.656573 320.150645 
L 319.488569 320.150645 
L 322.320565 320.150645 
L 325.15256 320.150645 
L 327.984556 320.150645 
L 330.816552 320.150645 
L 333.648548 320.150645 
L 336.480544 320.150645 
L 339.31254 320.150645 
L 342.144536 320.150645 
L 344.976532 320.150645 
L 347.808528 320.150645 
L 350.640524 320.150645 
L 353.47252 320.150645 
L 356.304516 320.150645 
L 359.136512 320.150645 
L 361.968508 320.150645 
L 364.800504 320.150645 
L 367.6325 320.150645 
L 370.464495 320.150645 
L 373.296491 320.150645 
L 376.128487 320.150645 
L 378.960483 320.150645 
L 381.792479 320.150645 
L 384.624475 320.150645 
L 387.456471 320.150645 
L 390.288467 320.150645 
L 393.120463 320.150645 
L 395.952459 320.150645 
L 398.784455 320.150645 
L 401.616451 320.150645 
L 404.448447 320.150645 
L 407.280443 320.150645 
L 410.112439 320.150645 
L 412.944435 320.150645 
L 415.77643 320.150645 
L 418.608426 320.150645 
L 421.440422 320.150645 
L 424.272418 320.150645 
L 427.104414 320.150645 
L 429.93641 320.150645 
L 432.768406 320.150645 
L 435.600402 320.150645 
L 438.432398 320.150645 
L 441.264394 320.150645 
L 444.09639 320.150645 
L 446.928386 320.150645 
L 449.760382 320.150645 
L 452.592378 320.150645 
L 455.424374 320.150645 
L 458.25637 320.150645 
L 461.088365 320.150645 
L 463.920361 320.150645 
L 466.752357 320.150645 
L 469.584353 320.150645 
L 472.416349 320.150645 
L 475.248345 320.150645 
L 478.080341 320.150645 
L 480.912337 320.150645 
L 483.744333 320.150645 
L 486.576329 320.150645 
L 489.408325 320.150645 
L 492.240321 320.150645 
L 495.072317 320.150645 
L 497.904313 320.150645 
L 500.736309 320.150645 
L 503.568305 320.150645 
L 506.4003 320.150645 
L 509.232296 320.150645 
L 512.064292 320.150645 
L 514.896288 320.150645 
L 517.728284 320.150645 
L 520.56028 320.150645 
L 523.392276 320.150645 
L 526.224272 320.150645 
L 529.056268 320.150645 
L 531.888264 320.150645 
L 534.72026 320.150645 
L 537.552256 320.150645 
L 540.384252 320.150645 
L 543.216248 320.150645 
L 546.048244 320.150645 
L 548.880239 320.150645 
L 551.712235 320.150645 
L 554.544231 320.150645 
L 557.376227 320.150645 
L 560.208223 320.150645 
L 563.040219 320.150645 
L 565.872215 320.150645 
L 568.704211 320.150645 
L 571.536207 320.150645 
L 574.368203 320.150645 
L 577.200199 320.150645 
L 577.200199 285.175544 
L 577.200199 285.175544 
L 574.368203 285.175544 
L 571.536207 285.175544 
L 568.704211 285.175544 
L 565.872215 285.175544 
L 563.040219 285.175544 
L 560.208223 285.175544 
L 557.376227 285.175544 
L 554.544231 285.175544 
L 551.712235 285.175544 
L 548.880239 285.175544 
L 546.048244 285.175544 
L 543.216248 285.175544 
L 540.384252 285.175544 
L 537.552256 285.175544 
L 534.72026 285.175544 
L 531.888264 285.175544 
L 529.056268 285.175544 
L 526.224272 285.175544 
L 523.392276 285.175544 
L 520.56028 285.175544 
L 517.728284 285.175544 
L 514.896288 285.175544 
L 512.064292 285.175544 
L 509.232296 285.175544 
L 506.4003 285.175544 
L 503.568305 285.175544 
L 500.736309 285.175544 
L 497.904313 285.175544 
L 495.072317 285.175544 
L 492.240321 285.175544 
L 489.408325 285.175544 
L 486.576329 285.175544 
L 483.744333 285.175544 
L 480.912337 285.175544 
L 478.080341 285.175544 
L 475.248345 285.175544 
L 472.416349 285.175544 
L 469.584353 285.175544 
L 466.752357 285.175544 
L 463.920361 285.175544 
L 461.088365 285.175544 
L 458.25637 285.175544 
L 455.424374 285.175544 
L 452.592378 285.175544 
L 449.760382 285.175544 
L 446.928386 285.175544 
L 444.09639 285.175544 
L 441.264394 285.175544 
L 438.432398 285.175544 
L 435.600402 285.175544 
L 432.768406 285.175544 
L 429.93641 285.175544 
L 427.104414 285.175544 
L 424.272418 285.175544 
L 421.440422 285.175544 
L 418.608426 285.175544 
L 415.77643 285.175544 
L 412.944435 285.175544 
L 410.112439 285.175544 
L 407.280443 285.175544 
L 404.448447 285.175544 
L 401.616451 285.175544 
L 398.784455 285.175544 
L 395.952459 285.175544 
L 393.120463 285.175544 
L 390.288467 285.175544 
L 387.456471 285.175544 
L 384.624475 285.175544 
L 381.792479 285.175544 
L 378.960483 285.175544 
L 376.128487 285.175544 
L 373.296491 285.175544 
L 370.464495 285.175544 
L 367.6325 285.175544 
L 364.800504 285.175544 
L 361.968508 285.175544 
L 359.136512 285.175544 
L 356.304516 285.175544 
L 353.47252 285.175544 
L 350.640524 285.175544 
L 347.808528 285.175544 
L 344.976532 285.175544 
L 342.144536 285.175544 
L 339.31254 285.175544 
L 336.480544 285.175544 
L 333.648548 285.175544 
L 330.816552 285.175544 
L 327.984556 285.175544 
L 325.15256 285.175544 
L 322.320565 285.175544 
L 319.488569 285.175544 
L 316.656573 285.175544 
L 313.824577 285.175544 
L 310.992581 285.175544 
L 308.160585 285.175544 
L 305.328589 285.175544 
L 302.496593 285.175544 
L 299.664597 285.175544 
L 296.832601 285.175544 
L 294.000605 285.175544 
L 291.168609 285.175544 
L 288.336613 285.175544 
L 285.504617 285.175544 
L 282.672621 285.175544 
L 279.840625 285.175544 
L 277.00863 285.175544 
L 274.176634 285.175544 
L 271.344638 285.175544 
L 268.512642 285.175544 
L 265.680646 285.175544 
L 262.84865 285.175544 
L 260.016654 285.175544 
L 257.184658 285.175544 
L 254.352662 285.175544 
L 251.520666 285.175544 
L 248.68867 285.175544 
L 245.856674 285.175544 
L 243.024678 285.175544 
L 240.192682 285.175544 
L 237.360686 285.175544 
L 234.52869 285.175544 
L 231.696695 285.175544 
L 228.864699 285.175544 
L 226.032703 285.175544 
L 223.200707 285.175544 
L 220.368711 285.175544 
L 217.536715 285.175544 
L 214.704719 285.175544 
L 211.872723 285.175544 
L 209.040727 285.175544 
L 206.208731 285.175544 
L 203.376735 285.175544 
L 200.544739 285.175544 
L 197.712743 285.175544 
L 194.880747 285.175544 
L 192.048751 285.175544 
L 189.216755 285.175544 
L 186.38476 285.175544 
L 183.552764 285.175544 
L 180.720768 285.175544 
L 177.888772 285.175544 
L 175.056776 285.175544 
L 172.22478 285.175544 
L 169.392784 285.175544 
L 166.560788 285.175544 
L 163.728792 285.175544 
L 160.896796 285.175544 
L 158.0648 285.175544 
L 155.232804 285.175544 
L 152.400808 285.175544 
L 149.568812 285.175544 
L 146.736816 285.175544 
L 143.90482 285.175544 
L 141.072825 285.175544 
L 138.240829 285.175544 
L 135.408833 285.175544 
L 132.576837 285.175544 
L 129.744841 285.175544 
L 126.912845 285.175544 
L 124.080849 285.175544 
L 121.248853 285.175544 
L 118.416857 285.175544 
L 115.584861 285.175544 
L 112.752865 285.175544 
L 109.920869 285.175544 
L 107.088873 285.175544 
L 104.256877 285.175544 
L 101.424881 285.175544 
L 98.592886 285.175544 
L 95.76089 285.175544 
L 92.928894 285.175544 
L 90.096898 285.175544 
L 87.264902 285.175544 
L 84.432906 285.175544 
L 81.60091 285.175544 
L 78.768914 285.175544 
L 75.936918 285.175544 
L 73.104922 285.175544 
L 70.272926 285.175544 
z
" clip-path="url(#p369d52b002)" style="fill: #1f77b4; fill-opacity: 0.12"/>
   </g>
   <g id="FillBetweenPolyCollection_2">
    <path d="M 70.272926 17.033105 
L 70.272926 52.008206 
L 73.104922 52.008206 
L 75.936918 52.008206 
L 78.768914 52.008206 
L 81.60091 52.008206 
L 84.432906 52.008206 
L 87.264902 52.008206 
L 90.096898 52.008206 
L 92.928894 52.008206 
L 95.76089 52.008206 
L 98.592886 52.008206 
L 101.424881 52.008206 
L 104.256877 52.008206 
L 107.088873 52.008206 
L 109.920869 52.008206 
L 112.752865 52.008206 
L 115.584861 52.008206 
L 118.416857 52.008206 
L 121.248853 52.008206 
L 124.080849 52.008206 
L 126.912845 52.008206 
L 129.744841 52.008206 
L 132.576837 52.008206 
L 135.408833 52.008206 
L 138.240829 52.008206 
L 141.072825 52.008206 
L 143.90482 52.008206 
L 146.736816 52.008206 
L 149.568812 52.008206 
L 152.400808 52.008206 
L 155.232804 52.008206 
L 158.0648 52.008206 
L 160.896796 52.008206 
L 163.728792 52.008206 
L 166.560788 52.008206 
L 169.392784 52.008206 
L 172.22478 52.008206 
L 175.056776 52.008206 
L 177.888772 52.008206 
L 180.720768 52.008206 
L 183.552764 52.008206 
L 186.38476 52.008206 
L 189.216755 52.008206 
L 192.048751 52.008206 
L 194.880747 52.008206 
L 197.712743 52.008206 
L 200.544739 52.008206 
L 203.376735 52.008206 
L 206.208731 52.008206 
L 209.040727 52.008206 
L 211.872723 52.008206 
L 214.704719 52.008206 
L 217.536715 52.008206 
L 220.368711 52.008206 
L 223.200707 52.008206 
L 226.032703 52.008206 
L 228.864699 52.008206 
L 231.696695 52.008206 
L 234.52869 52.008206 
L 237.360686 52.008206 
L 240.192682 52.008206 
L 243.024678 52.008206 
L 245.856674 52.008206 
L 248.68867 52.008206 
L 251.520666 52.008206 
L 254.352662 52.008206 
L 257.184658 52.008206 
L 260.016654 52.008206 
L 262.84865 52.008206 
L 265.680646 52.008206 
L 268.512642 52.008206 
L 271.344638 52.008206 
L 274.176634 52.008206 
L 277.00863 52.008206 
L 279.840625 52.008206 
L 282.672621 52.008206 
L 285.504617 52.008206 
L 288.336613 52.008206 
L 291.168609 52.008206 
L 294.000605 52.008206 
L 296.832601 52.008206 
L 299.664597 52.008206 
L 302.496593 52.008206 
L 305.328589 52.008206 
L 308.160585 52.008206 
L 310.992581 52.008206 
L 313.824577 52.008206 
L 316.656573 52.008206 
L 319.488569 52.008206 
L 322.320565 52.008206 
L 325.15256 52.008206 
L 327.984556 52.008206 
L 330.816552 52.008206 
L 333.648548 52.008206 
L 336.480544 52.008206 
L 339.31254 52.008206 
L 342.144536 52.008206 
L 344.976532 52.008206 
L 347.808528 52.008206 
L 350.640524 52.008206 
L 353.47252 52.008206 
L 356.304516 52.008206 
L 359.136512 52.008206 
L 361.968508 52.008206 
L 364.800504 52.008206 
L 367.6325 52.008206 
L 370.464495 52.008206 
L 373.296491 52.008206 
L 376.128487 52.008206 
L 378.960483 52.008206 
L 381.792479 52.008206 
L 384.624475 52.008206 
L 387.456471 52.008206 
L 390.288467 52.008206 
L 393.120463 52.008206 
L 395.952459 52.008206 
L 398.784455 52.008206 
L 401.616451 52.008206 
L 404.448447 52.008206 
L 407.280443 52.008206 
L 410.112439 52.008206 
L 412.944435 52.008206 
L 415.77643 52.008206 
L 418.608426 52.008206 
L 421.440422 52.008206 
L 424.272418 52.008206 
L 427.104414 52.008206 
L 429.93641 52.008206 
L 432.768406 52.008206 
L 435.600402 52.008206 
L 438.432398 52.008206 
L 441.264394 52.008206 
L 444.09639 52.008206 
L 446.928386 52.008206 
L 449.760382 52.008206 
L 452.592378 52.008206 
L 455.424374 52.008206 
L 458.25637 52.008206 
L 461.088365 52.008206 
L 463.920361 52.008206 
L 466.752357 52.008206 
L 469.584353 52.008206 
L 472.416349 52.008206 
L 475.248345 52.008206 
L 478.080341 52.008206 
L 480.912337 52.008206 
L 483.744333 52.008206 
L 486.576329 52.008206 
L 489.408325 52.008206 
L 492.240321 52.008206 
L 495.072317 52.008206 
L 497.904313 52.008206 
L 500.736309 52.008206 
L 503.568305 52.008206 
L 506.4003 52.008206 
L 509.232296 52.008206 
L 512.064292 52.008206 
L 514.896288 52.008206 
L 517.728284 52.008206 
L 520.56028 52.008206 
L 523.392276 52.008206 
L 526.224272 52.008206 
L 529.056268 52.008206 
L 531.888264 52.008206 
L 534.72026 52.008206 
L 537.552256 52.008206 
L 540.384252 52.008206 
L 543.216248 52.008206 
L 546.048244 52.008206 
L 548.880239 52.008206 
L 551.712235 52.008206 
L 554.544231 52.008206 
L 557.376227 52.008206 
L 560.208223 52.008206 
L 563.040219 52.008206 
L 565.872215 52.008206 
L 568.704211 52.008206 
L 571.536207 52.008206 
L 574.368203 52.008206 
L 577.200199 52.008206 
L 577.200199 17.033105 
L 577.200199 17.033105 
L 574.368203 17.033105 
L 571.536207 17.033105 
L 568.704211 17.033105 
L 565.872215 17.033105 
L 563.040219 17.033105 
L 560.208223 17.033105 
L 557.376227 17.033105 
L 554.544231 17.033105 
L 551.712235 17.033105 
L 548.880239 17.033105 
L 546.048244 17.033105 
L 543.216248 17.033105 
L 540.384252 17.033105 
L 537.552256 17.033105 
L 534.72026 17.033105 
L 531.888264 17.033105 
L 529.056268 17.033105 
L 526.224272 17.033105 
L 523.392276 17.033105 
L 520.56028 17.033105 
L 517.728284 17.033105 
L 514.896288 17.033105 
L 512.064292 17.033105 
L 509.232296 17.033105 
L 506.4003 17.033105 
L 503.568305 17.033105 
L 500.736309 17.033105 
L 497.904313 17.033105 
L 495.072317 17.033105 
L 492.240321 17.033105 
L 489.408325 17.033105 
L 486.576329 17.033105 
L 483.744333 17.033105 
L 480.912337 17.033105 
L 478.080341 17.033105 
L 475.248345 17.033105 
L 472.416349 17.033105 
L 469.584353 17.033105 
L 466.752357 17.033105 
L 463.920361 17.033105 
L 461.088365 17.033105 
L 458.25637 17.033105 
L 455.424374 17.033105 
L 452.592378 17.033105 
L 449.760382 17.033105 
L 446.928386 17.033105 
L 444.09639 17.033105 
L 441.264394 17.033105 
L 438.432398 17.033105 
L 435.600402 17.033105 
L 432.768406 17.033105 
L 429.93641 17.033105 
L 427.104414 17.033105 
L 424.272418 17.033105 
L 421.440422 17.033105 
L 418.608426 17.033105 
L 415.77643 17.033105 
L 412.944435 17.033105 
L 410.112439 17.033105 
L 407.280443 17.033105 
L 404.448447 17.033105 
L 401.616451 17.033105 
L 398.784455 17.033105 
L 395.952459 17.033105 
L 393.120463 17.033105 
L 390.288467 17.033105 
L 387.456471 17.033105 
L 384.624475 17.033105 
L 381.792479 17.033105 
L 378.960483 17.033105 
L 376.128487 17.033105 
L 373.296491 17.033105 
L 370.464495 17.033105 
L 367.6325 17.033105 
L 364.800504 17.033105 
L 361.968508 17.033105 
L 359.136512 17.033105 
L 356.304516 17.033105 
L 353.47252 17.033105 
L 350.640524 17.033105 
L 347.808528 17.033105 
L 344.976532 17.033105 
L 342.144536 17.033105 
L 339.31254 17.033105 
L 336.480544 17.033105 
L 333.648548 17.033105 
L 330.816552 17.033105 
L 327.984556 17.033105 
L 325.15256 17.033105 
L 322.320565 17.033105 
L 319.488569 17.033105 
L 316.656573 17.033105 
L 313.824577 17.033105 
L 310.992581 17.033105 
L 308.160585 17.033105 
L 305.328589 17.033105 
L 302.496593 17.033105 
L 299.664597 17.033105 
L 296.832601 17.033105 
L 294.000605 17.033105 
L 291.168609 17.033105 
L 288.336613 17.033105 
L 285.504617 17.033105 
L 282.672621 17.033105 
L 279.840625 17.033105 
L 277.00863 17.033105 
L 274.176634 17.033105 
L 271.344638 17.033105 
L 268.512642 17.033105 
L 265.680646 17.033105 
L 262.84865 17.033105 
L 260.016654 17.033105 
L 257.184658 17.033105 
L 254.352662 17.033105 
L 251.520666 17.033105 
L 248.68867 17.033105 
L 245.856674 17.033105 
L 243.024678 17.033105 
L 240.192682 17.033105 
L 237.360686 17.033105 
L 234.52869 17.033105 
L 231.696695 17.033105 
L 228.864699 17.033105 
L 226.032703 17.033105 
L 223.200707 17.033105 
L 220.368711 17.033105 
L 217.536715 17.033105 
L 214.704719 17.033105 
L 211.872723 17.033105 
L 209.040727 17.033105 
L 206.208731 17.033105 
L 203.376735 17.033105 
L 200.544739 17.033105 
L 197.712743 17.033105 
L 194.880747 17.033105 
L 192.048751 17.033105 
L 189.216755 17.033105 
L 186.38476 17.033105 
L 183.552764 17.033105 
L 180.720768 17.033105 
L 177.888772 17.033105 
L 175.056776 17.033105 
L 172.22478 17.033105 
L 169.392784 17.033105 
L 166.560788 17.033105 
L 163.728792 17.033105 
L 160.896796 17.033105 
L 158.0648 17.033105 
L 155.232804 17.033105 
L 152.400808 17.033105 
L 149.568812 17.033105 
L 146.736816 17.033105 
L 143.90482 17.033105 
L 141.072825 17.033105 
L 138.240829 17.033105 
L 135.408833 17.033105 
L 132.576837 17.033105 
L 129.744841 17.033105 
L 126.912845 17.033105 
L 124.080849 17.033105 
L 121.248853 17.033105 
L 118.416857 17.033105 
L 115.584861 17.033105 
L 112.752865 17.033105 
L 109.920869 17.033105 
L 107.088873 17.033105 
L 104.256877 17.033105 
L 101.424881 17.033105 
L 98.592886 17.033105 
L 95.76089 17.033105 
L 92.928894 17.033105 
L 90.096898 17.033105 
L 87.264902 17.033105 
L 84.432906 17.033105 
L 81.60091 17.033105 
L 78.768914 17.033105 
L 75.936918 17.033105 
L 73.104922 17.033105 
L 70.272926 17.033105 
z
" clip-path="url(#p369d52b002)" style="fill: #ff7f0e; fill-opacity: 0.12"/>
   </g>
   <g id="matplotlib.axis_1">
    <g id="xtick_1">
     <g id="line2d_1">
      <path d="M 70.272926 313.155625 
L 70.272926 24.028125 
" clip-path="url(#p369d52b002)" style="fill: none; stroke: #b0b0b0; stroke-opacity: 0.22; stroke-width: 0.8; stroke-linecap: square"/>
     </g>
     <g id="line2d_2">
      <defs>
       <path id="mbc2cc1acc0" d="M 0 0 
L 0 3.5 
" style="stroke: #000000; stroke-width: 0.8"/>
      </defs>
      <g>
       <use xlink:href="#mbc2cc1acc0" x="70.272926" y="313.155625" style="stroke: #000000; stroke-width: 0.8"/>
      </g>
     </g>
     <g id="text_1">
      <!-- -0.2 -->
      <g transform="translate(59.272926 327.718125) scale(0.11 -0.11)">
       <defs>
        <path id="SimHei-2d" d="M 2975 2125 
L 125 2125 
L 125 2525 
L 2975 2525 
L 2975 2125 
z
" transform="scale(0.015625)"/>
        <path id="SimHei-30" d="M 225 2537 
Q 250 3200 412 3587 
Q 575 3975 875 4225 
Q 1175 4475 1612 4475 
Q 2050 4475 2375 4112 
Q 2700 3750 2800 3200 
Q 2900 2650 2862 1937 
Q 2825 1225 2612 775 
Q 2400 325 1975 150 
Q 1550 -25 1125 187 
Q 700 400 525 750 
Q 350 1100 275 1487 
Q 200 1875 225 2537 
z
M 750 2687 
Q 675 2000 800 1462 
Q 925 925 1212 700 
Q 1500 475 1800 612 
Q 2100 750 2237 1162 
Q 2375 1575 2375 2062 
Q 2375 2550 2337 2950 
Q 2300 3350 2112 3675 
Q 1925 4000 1612 4012 
Q 1300 4025 1062 3700 
Q 825 3375 750 2687 
z
" transform="scale(0.015625)"/>
        <path id="SimHei-2e" d="M 1075 125 
L 500 125 
L 500 675 
L 1075 675 
L 1075 125 
z
" transform="scale(0.015625)"/>
        <path id="SimHei-32" d="M 300 250 
Q 325 625 650 925 
Q 975 1225 1475 1862 
Q 1975 2500 2125 2850 
Q 2275 3200 2237 3450 
Q 2200 3700 2000 3862 
Q 1800 4025 1537 4000 
Q 1275 3975 1037 3800 
Q 800 3625 675 3275 
L 200 3350 
Q 400 3925 712 4187 
Q 1025 4450 1450 4475 
Q 1700 4500 1900 4462 
Q 2100 4425 2312 4287 
Q 2525 4150 2662 3875 
Q 2800 3600 2762 3212 
Q 2725 2825 2375 2287 
Q 2025 1750 1025 600 
L 2825 600 
L 2825 150 
L 300 150 
L 300 250 
z
" transform="scale(0.015625)"/>
       </defs>
       <use xlink:href="#SimHei-2d"/>
       <use xlink:href="#SimHei-30" transform="translate(50 0)"/>
       <use xlink:href="#SimHei-2e" transform="translate(100 0)"/>
       <use xlink:href="#SimHei-32" transform="translate(150 0)"/>
      </g>
     </g>
    </g>
    <g id="xtick_2">
     <g id="line2d_3">
      <path d="M 142.691108 313.155625 
L 142.691108 24.028125 
" clip-path="url(#p369d52b002)" style="fill: none; stroke: #b0b0b0; stroke-opacity: 0.22; stroke-width: 0.8; stroke-linecap: square"/>
     </g>
     <g id="line2d_4">
      <g>
       <use xlink:href="#mbc2cc1acc0" x="142.691108" y="313.155625" style="stroke: #000000; stroke-width: 0.8"/>
      </g>
     </g>
     <g id="text_2">
      <!-- 0.0 -->
      <g transform="translate(134.441108 327.718125) scale(0.11 -0.11)">
       <use xlink:href="#SimHei-30"/>
       <use xlink:href="#SimHei-2e" transform="translate(50 0)"/>
       <use xlink:href="#SimHei-30" transform="translate(100 0)"/>
      </g>
     </g>
    </g>
    <g id="xtick_3">
     <g id="line2d_5">
      <path d="M 215.10929 313.155625 
L 215.10929 24.028125 
" clip-path="url(#p369d52b002)" style="fill: none; stroke: #b0b0b0; stroke-opacity: 0.22; stroke-width: 0.8; stroke-linecap: square"/>
     </g>
     <g id="line2d_6">
      <g>
       <use xlink:href="#mbc2cc1acc0" x="215.10929" y="313.155625" style="stroke: #000000; stroke-width: 0.8"/>
      </g>
     </g>
     <g id="text_3">
      <!-- 0.2 -->
      <g transform="translate(206.85929 327.718125) scale(0.11 -0.11)">
       <use xlink:href="#SimHei-30"/>
       <use xlink:href="#SimHei-2e" transform="translate(50 0)"/>
       <use xlink:href="#SimHei-32" transform="translate(100 0)"/>
      </g>
     </g>
    </g>
    <g id="xtick_4">
     <g id="line2d_7">
      <path d="M 287.527472 313.155625 
L 287.527472 24.028125 
" clip-path="url(#p369d52b002)" style="fill: none; stroke: #b0b0b0; stroke-opacity: 0.22; stroke-width: 0.8; stroke-linecap: square"/>
     </g>
     <g id="line2d_8">
      <g>
       <use xlink:href="#mbc2cc1acc0" x="287.527472" y="313.155625" style="stroke: #000000; stroke-width: 0.8"/>
      </g>
     </g>
     <g id="text_4">
      <!-- 0.4 -->
      <g transform="translate(279.277472 327.718125) scale(0.11 -0.11)">
       <defs>
        <path id="SimHei-34" d="M 2000 1100 
L 75 1100 
L 75 1525 
L 2100 4450 
L 2475 4450 
L 2475 1525 
L 3075 1525 
L 3075 1100 
L 2475 1100 
L 2475 150 
L 2000 150 
L 2000 1100 
z
M 2000 1525 
L 2000 3500 
L 600 1525 
L 2000 1525 
z
" transform="scale(0.015625)"/>
       </defs>
       <use xlink:href="#SimHei-30"/>
       <use xlink:href="#SimHei-2e" transform="translate(50 0)"/>
       <use xlink:href="#SimHei-34" transform="translate(100 0)"/>
      </g>
     </g>
    </g>
    <g id="xtick_5">
     <g id="line2d_9">
      <path d="M 359.945653 313.155625 
L 359.945653 24.028125 
" clip-path="url(#p369d52b002)" style="fill: none; stroke: #b0b0b0; stroke-opacity: 0.22; stroke-width: 0.8; stroke-linecap: square"/>
     </g>
     <g id="line2d_10">
      <g>
       <use xlink:href="#mbc2cc1acc0" x="359.945653" y="313.155625" style="stroke: #000000; stroke-width: 0.8"/>
      </g>
     </g>
     <g id="text_5">
      <!-- 0.6 -->
      <g transform="translate(351.695653 327.718125) scale(0.11 -0.11)">
       <defs>
        <path id="SimHei-36" d="M 250 1612 
Q 275 1975 387 2225 
Q 500 2475 725 2850 
L 1750 4450 
L 2325 4450 
L 1275 2800 
Q 1950 2975 2350 2750 
Q 2750 2525 2887 2237 
Q 3025 1950 3037 1612 
Q 3050 1275 2937 950 
Q 2825 625 2537 362 
Q 2250 100 1737 75 
Q 1225 50 862 262 
Q 500 475 362 862 
Q 225 1250 250 1612 
z
M 1025 787 
Q 1250 550 1625 525 
Q 2000 500 2250 775 
Q 2500 1050 2500 1575 
Q 2500 2100 2187 2300 
Q 1875 2500 1487 2450 
Q 1100 2400 925 2075 
Q 750 1750 775 1387 
Q 800 1025 1025 787 
z
" transform="scale(0.015625)"/>
       </defs>
       <use xlink:href="#SimHei-30"/>
       <use xlink:href="#SimHei-2e" transform="translate(50 0)"/>
       <use xlink:href="#SimHei-36" transform="translate(100 0)"/>
      </g>
     </g>
    </g>
    <g id="xtick_6">
     <g id="line2d_11">
      <path d="M 432.363835 313.155625 
L 432.363835 24.028125 
" clip-path="url(#p369d52b002)" style="fill: none; stroke: #b0b0b0; stroke-opacity: 0.22; stroke-width: 0.8; stroke-linecap: square"/>
     </g>
     <g id="line2d_12">
      <g>
       <use xlink:href="#mbc2cc1acc0" x="432.363835" y="313.155625" style="stroke: #000000; stroke-width: 0.8"/>
      </g>
     </g>
     <g id="text_6">
      <!-- 0.8 -->
      <g transform="translate(424.113835 327.718125) scale(0.11 -0.11)">
       <defs>
        <path id="SimHei-38" d="M 175 1375 
Q 175 1675 325 1962 
Q 475 2250 825 2425 
Q 525 2600 425 2812 
Q 325 3025 312 3300 
Q 300 3575 387 3775 
Q 475 3975 650 4150 
Q 825 4325 1037 4387 
Q 1250 4450 1500 4450 
Q 1750 4450 1950 4400 
Q 2150 4350 2375 4187 
Q 2600 4025 2700 3725 
Q 2800 3425 2687 3025 
Q 2575 2625 2100 2400 
Q 2525 2275 2700 2012 
Q 2875 1750 2875 1375 
Q 2875 1000 2762 775 
Q 2650 550 2512 400 
Q 2375 250 2137 162 
Q 1900 75 1537 75 
Q 1175 75 912 162 
Q 650 250 475 425 
Q 300 600 237 837 
Q 175 1075 175 1375 
z
M 687 1400 
Q 675 1100 787 875 
Q 900 650 1200 587 
Q 1500 525 1825 600 
Q 2150 675 2275 950 
Q 2400 1225 2362 1500 
Q 2325 1775 2050 1962 
Q 1775 2150 1450 2125 
Q 1125 2100 912 1900 
Q 700 1700 687 1400 
z
M 775 3350 
Q 775 3100 950 2875 
Q 1125 2650 1500 2650 
Q 1875 2650 2062 2875 
Q 2250 3100 2237 3412 
Q 2225 3725 2012 3875 
Q 1800 4025 1437 4000 
Q 1075 3975 925 3787 
Q 775 3600 775 3350 
z
" transform="scale(0.015625)"/>
       </defs>
       <use xlink:href="#SimHei-30"/>
       <use xlink:href="#SimHei-2e" transform="translate(50 0)"/>
       <use xlink:href="#SimHei-38" transform="translate(100 0)"/>
      </g>
     </g>
    </g>
    <g id="xtick_7">
     <g id="line2d_13">
      <path d="M 504.782017 313.155625 
L 504.782017 24.028125 
" clip-path="url(#p369d52b002)" style="fill: none; stroke: #b0b0b0; stroke-opacity: 0.22; stroke-width: 0.8; stroke-linecap: square"/>
     </g>
     <g id="line2d_14">
      <g>
       <use xlink:href="#mbc2cc1acc0" x="504.782017" y="313.155625" style="stroke: #000000; stroke-width: 0.8"/>
      </g>
     </g>
     <g id="text_7">
      <!-- 1.0 -->
      <g transform="translate(496.532017 327.718125) scale(0.11 -0.11)">
       <defs>
        <path id="SimHei-31" d="M 1400 3600 
Q 1075 3275 575 2975 
L 575 3450 
Q 1200 3875 1600 4450 
L 1900 4450 
L 1900 150 
L 1400 150 
L 1400 3600 
z
" transform="scale(0.015625)"/>
       </defs>
       <use xlink:href="#SimHei-31"/>
       <use xlink:href="#SimHei-2e" transform="translate(50 0)"/>
       <use xlink:href="#SimHei-30" transform="translate(100 0)"/>
      </g>
     </g>
    </g>
    <g id="xtick_8">
     <g id="line2d_15">
      <path d="M 577.200199 313.155625 
L 577.200199 24.028125 
" clip-path="url(#p369d52b002)" style="fill: none; stroke: #b0b0b0; stroke-opacity: 0.22; stroke-width: 0.8; stroke-linecap: square"/>
     </g>
     <g id="line2d_16">
      <g>
       <use xlink:href="#mbc2cc1acc0" x="577.200199" y="313.155625" style="stroke: #000000; stroke-width: 0.8"/>
      </g>
     </g>
     <g id="text_8">
      <!-- 1.2 -->
      <g transform="translate(568.950199 327.718125) scale(0.11 -0.11)">
       <use xlink:href="#SimHei-31"/>
       <use xlink:href="#SimHei-2e" transform="translate(50 0)"/>
       <use xlink:href="#SimHei-32" transform="translate(100 0)"/>
      </g>
     </g>
    </g>
    <g id="text_9">
     <!-- 抵押能力 collateral -->
     <g transform="translate(271.486562 341.85875) scale(0.11 -0.11)">
      <defs>
       <path id="SimHei-62b5" d="M 2575 125 
Q 2725 325 2725 625 
L 2725 3850 
Q 2725 4375 2700 4725 
Q 3400 4750 4087 4850 
Q 4775 4950 5300 5175 
Q 5425 4900 5625 4625 
Q 5300 4600 4600 4500 
Q 4625 3350 4650 2975 
Q 5375 2975 5975 3000 
L 5975 2525 
Q 5375 2550 4675 2550 
Q 4700 2050 4862 1387 
Q 5025 725 5225 412 
Q 5425 100 5512 200 
Q 5600 300 5700 800 
Q 5900 550 6200 450 
Q 5975 -125 5837 -312 
Q 5700 -500 5475 -487 
Q 5250 -475 4950 -37 
Q 4650 400 4462 1137 
Q 4275 1875 4225 2550 
L 3150 2550 
L 3150 650 
Q 3425 900 3825 1350 
Q 3925 1075 4050 875 
Q 3600 500 2925 -275 
L 2575 125 
z
M 300 3925 
Q 825 3900 1200 3900 
Q 1200 4750 1175 5225 
L 1700 5225 
Q 1675 4750 1675 3900 
Q 2225 3900 2400 3925 
L 2400 3450 
Q 2225 3475 1675 3475 
L 1675 2400 
Q 2150 2600 2350 2675 
Q 2350 2475 2375 2225 
Q 2150 2150 1675 1975 
L 1675 275 
Q 1675 -150 1487 -300 
Q 1300 -450 700 -575 
Q 650 -300 500 0 
Q 925 25 1062 75 
Q 1200 125 1200 400 
L 1200 1775 
Q 700 1575 450 1450 
Q 350 1675 225 1950 
Q 525 2025 1200 2250 
L 1200 3475 
Q 825 3475 300 3450 
L 300 3925 
z
M 4175 2975 
Q 4175 3325 4125 4425 
Q 3600 4375 3150 4350 
L 3150 2975 
L 4175 2975 
z
M 3925 475 
Q 4250 75 4525 -250 
Q 4325 -350 4125 -575 
Q 3875 -200 3575 125 
Q 3750 275 3925 475 
z
" transform="scale(0.015625)"/>
       <path id="SimHei-62bc" d="M 5925 4950 
Q 5900 4500 5900 3975 
L 5900 2100 
Q 5900 1550 5925 1025 
L 5450 1025 
L 5450 1400 
L 4550 1400 
L 4550 450 
Q 4550 -50 4575 -600 
L 4050 -600 
Q 4050 -50 4075 450 
L 4075 1400 
L 3150 1400 
L 3150 1050 
L 2650 1050 
Q 2650 1575 2675 2100 
L 2675 4000 
Q 2650 4475 2650 4950 
L 5925 4950 
z
M 1150 3800 
Q 1150 4925 1125 5225 
L 1675 5225 
Q 1650 4950 1650 3800 
Q 1900 3800 2250 3825 
L 2250 3375 
Q 1800 3400 1650 3400 
L 1650 2450 
Q 1950 2550 2225 2650 
Q 2200 2525 2225 2225 
Q 1900 2125 1650 2025 
L 1650 75 
Q 1650 -175 1487 -250 
Q 1325 -325 725 -450 
Q 675 -175 500 100 
Q 1000 100 1075 150 
Q 1150 200 1150 325 
L 1150 1875 
Q 675 1675 475 1525 
Q 375 1800 225 2075 
Q 475 2100 1150 2325 
L 1150 3400 
Q 675 3400 300 3375 
L 300 3825 
Q 550 3800 1150 3800 
z
M 4075 3300 
L 4075 4525 
L 3150 4525 
L 3150 3300 
L 4075 3300 
z
M 5450 3300 
L 5450 4525 
L 4550 4525 
L 4550 3300 
L 5450 3300 
z
M 4075 1825 
L 4075 2900 
L 3150 2900 
L 3150 1825 
L 4075 1825 
z
M 5450 1825 
L 5450 2900 
L 4550 2900 
L 4550 1825 
L 5450 1825 
z
" transform="scale(0.015625)"/>
       <path id="SimHei-80fd" d="M 2025 -150 
Q 2475 -150 2525 -62 
Q 2575 25 2575 200 
L 2575 550 
L 1225 550 
L 1225 -625 
L 750 -625 
Q 775 -125 775 275 
L 775 1950 
Q 775 2400 750 2750 
L 3050 2750 
Q 3025 2375 3025 1925 
L 3025 -175 
Q 3000 -450 2800 -525 
Q 2600 -600 2225 -650 
Q 2175 -425 2025 -150 
z
M 5800 1625 
Q 5700 1600 5212 1375 
Q 4725 1150 4100 950 
L 4100 250 
Q 4100 -50 4375 -50 
L 5275 -50 
Q 5475 0 5550 575 
Q 5750 475 6050 375 
Q 5875 -425 5475 -425 
L 4125 -425 
Q 3650 -425 3650 50 
L 3650 1675 
Q 3650 2050 3625 2350 
L 4125 2350 
Q 4100 2050 4100 1700 
L 4100 1375 
Q 4350 1450 4762 1650 
Q 5175 1850 5425 2075 
Q 5650 1775 5800 1625 
z
M 4100 4100 
Q 4450 4250 4775 4412 
Q 5100 4575 5425 4825 
Q 5625 4575 5775 4400 
Q 5625 4350 5137 4112 
Q 4650 3875 4100 3700 
L 4100 3325 
Q 4100 3025 4450 3025 
L 5175 3025 
Q 5425 3025 5500 3675 
Q 5750 3550 6000 3450 
Q 5825 2650 5375 2650 
L 4250 2650 
Q 3650 2650 3650 3200 
L 3650 4475 
Q 3650 4775 3625 5125 
L 4125 5125 
Q 4100 4950 4100 4400 
L 4100 4100 
z
M 3025 3075 
Q 2950 3200 2825 3350 
Q 2000 3300 1450 3250 
Q 900 3200 625 3125 
Q 550 3425 450 3650 
Q 625 3725 987 4187 
Q 1350 4650 1575 5175 
Q 1700 5075 1850 5025 
Q 2000 4975 2175 4900 
Q 1975 4750 1762 4450 
Q 1550 4150 1075 3600 
Q 2125 3650 2625 3675 
Q 2325 4075 2200 4200 
Q 2375 4300 2600 4475 
Q 2800 4200 2987 3975 
Q 3175 3750 3475 3400 
Q 3200 3200 3025 3075 
z
M 2575 950 
L 2575 1475 
L 1225 1475 
L 1225 950 
L 2575 950 
z
M 2575 1875 
L 2575 2350 
L 1225 2350 
L 1225 1875 
L 2575 1875 
z
" transform="scale(0.015625)"/>
       <path id="SimHei-529b" d="M 3275 3275 
Q 3200 2400 3050 1875 
Q 2900 1350 2637 912 
Q 2375 475 1950 87 
Q 1525 -300 925 -675 
Q 800 -475 425 -250 
Q 1025 50 1425 375 
Q 1825 700 2112 1112 
Q 2400 1525 2537 2050 
Q 2675 2575 2725 3275 
L 2000 3275 
Q 1275 3275 675 3250 
L 675 3750 
Q 1275 3725 2000 3725 
L 2750 3725 
L 2750 4475 
Q 2750 4825 2725 5200 
Q 3000 5150 3350 5125 
Q 3300 4900 3287 4475 
Q 3275 4050 3275 3725 
L 5825 3725 
Q 5725 2375 5700 1862 
Q 5675 1350 5600 612 
Q 5525 -125 5187 -300 
Q 4850 -475 4025 -550 
Q 4000 -250 3775 100 
Q 4500 75 4750 175 
Q 5000 275 5037 550 
Q 5075 825 5112 1262 
Q 5150 1700 5225 3275 
L 3275 3275 
z
" transform="scale(0.015625)"/>
       <path id="SimHei-20" transform="scale(0.015625)"/>
       <path id="SimHei-63" d="M 2850 1250 
Q 2850 725 2487 400 
Q 2125 75 1575 75 
Q 1025 75 625 462 
Q 225 850 225 1525 
Q 225 2200 625 2587 
Q 1025 2975 1575 2975 
Q 2125 2975 2450 2687 
Q 2775 2400 2775 2000 
L 2225 2000 
Q 2200 2300 2012 2412 
Q 1825 2525 1575 2525 
Q 1275 2525 1025 2287 
Q 775 2050 775 1525 
Q 775 1000 1025 762 
Q 1275 525 1575 525 
Q 1900 525 2100 700 
Q 2300 875 2300 1250 
L 2850 1250 
z
" transform="scale(0.015625)"/>
       <path id="SimHei-6f" d="M 2925 1525 
Q 2925 875 2525 475 
Q 2125 75 1575 75 
Q 1025 75 625 475 
Q 225 875 225 1525 
Q 225 2175 625 2575 
Q 1025 2975 1575 2975 
Q 2125 2975 2525 2575 
Q 2925 2175 2925 1525 
z
M 2375 1525 
Q 2375 2025 2125 2275 
Q 1875 2525 1575 2525 
Q 1275 2525 1025 2275 
Q 775 2025 775 1525 
Q 775 1025 1025 775 
Q 1275 525 1575 525 
Q 1875 525 2125 775 
Q 2375 1025 2375 1525 
z
" transform="scale(0.015625)"/>
       <path id="SimHei-6c" d="M 1825 125 
L 1325 125 
L 1325 4400 
L 1825 4400 
L 1825 125 
z
" transform="scale(0.015625)"/>
       <path id="SimHei-61" d="M 2875 125 
L 2275 125 
Q 2225 175 2200 262 
Q 2175 350 2175 475 
Q 2000 275 1750 175 
Q 1500 75 1225 75 
Q 825 75 550 275 
Q 275 475 275 850 
Q 275 1225 525 1450 
Q 775 1675 1300 1750 
Q 1650 1800 1912 1875 
Q 2175 1950 2175 2075 
Q 2175 2225 2062 2375 
Q 1950 2525 1575 2525 
Q 1275 2525 1137 2412 
Q 1000 2300 950 2100 
L 400 2100 
Q 450 2500 762 2737 
Q 1075 2975 1575 2975 
Q 2125 2975 2400 2725 
Q 2675 2475 2675 2025 
L 2675 650 
Q 2675 500 2725 375 
Q 2775 250 2875 125 
z
M 2175 1050 
L 2175 1550 
Q 2025 1500 1887 1462 
Q 1750 1425 1425 1375 
Q 1050 1325 937 1200 
Q 825 1075 825 900 
Q 825 750 937 637 
Q 1050 525 1275 525 
Q 1500 525 1762 650 
Q 2025 775 2175 1050 
z
" transform="scale(0.015625)"/>
       <path id="SimHei-74" d="M 2750 200 
Q 2625 150 2462 112 
Q 2300 75 2025 75 
Q 1575 75 1300 325 
Q 1025 575 1025 1025 
L 1025 2525 
L 175 2525 
L 175 2925 
L 1025 2925 
L 1025 3900 
L 1525 3900 
L 1525 2925 
L 2550 2925 
L 2550 2525 
L 1525 2525 
L 1525 1000 
Q 1525 800 1625 662 
Q 1725 525 2000 525 
Q 2275 525 2450 575 
Q 2625 625 2750 700 
L 2750 200 
z
" transform="scale(0.015625)"/>
       <path id="SimHei-65" d="M 2850 1075 
Q 2800 625 2450 350 
Q 2100 75 1625 75 
Q 1025 75 637 462 
Q 250 850 250 1525 
Q 250 2200 637 2587 
Q 1025 2975 1625 2975 
Q 2150 2975 2487 2637 
Q 2825 2300 2825 1525 
L 800 1525 
Q 800 975 1037 750 
Q 1275 525 1625 525 
Q 1900 525 2075 662 
Q 2250 800 2300 1075 
L 2850 1075 
z
M 2250 1925 
Q 2200 2275 2025 2412 
Q 1850 2550 1575 2550 
Q 1325 2550 1125 2412 
Q 925 2275 825 1925 
L 2250 1925 
z
" transform="scale(0.015625)"/>
       <path id="SimHei-72" d="M 2500 2425 
Q 2025 2500 1700 2287 
Q 1375 2075 1150 1550 
L 1150 125 
L 650 125 
L 650 2925 
L 1150 2925 
L 1150 2200 
Q 1375 2600 1712 2787 
Q 2050 2975 2500 2975 
L 2500 2425 
z
" transform="scale(0.015625)"/>
      </defs>
      <use xlink:href="#SimHei-62b5"/>
      <use xlink:href="#SimHei-62bc" transform="translate(100 0)"/>
      <use xlink:href="#SimHei-80fd" transform="translate(200 0)"/>
      <use xlink:href="#SimHei-529b" transform="translate(300 0)"/>
      <use xlink:href="#SimHei-20" transform="translate(400 0)"/>
      <use xlink:href="#SimHei-63" transform="translate(450 0)"/>
      <use xlink:href="#SimHei-6f" transform="translate(500 0)"/>
      <use xlink:href="#SimHei-6c" transform="translate(550 0)"/>
      <use xlink:href="#SimHei-6c" transform="translate(600 0)"/>
      <use xlink:href="#SimHei-61" transform="translate(650 0)"/>
      <use xlink:href="#SimHei-74" transform="translate(700 0)"/>
      <use xlink:href="#SimHei-65" transform="translate(750 0)"/>
      <use xlink:href="#SimHei-72" transform="translate(800 0)"/>
      <use xlink:href="#SimHei-61" transform="translate(850 0)"/>
      <use xlink:href="#SimHei-6c" transform="translate(900 0)"/>
     </g>
    </g>
   </g>
   <g id="matplotlib.axis_2">
    <g id="ytick_1">
     <g id="line2d_17">
      <path d="M 44.926563 285.175544 
L 602.546562 285.175544 
" clip-path="url(#p369d52b002)" style="fill: none; stroke: #b0b0b0; stroke-opacity: 0.22; stroke-width: 0.8; stroke-linecap: square"/>
     </g>
     <g id="line2d_18">
      <defs>
       <path id="mb828191307" d="M 0 0 
L -3.5 0 
" style="stroke: #000000; stroke-width: 0.8"/>
      </defs>
      <g>
       <use xlink:href="#mb828191307" x="44.926563" y="285.175544" style="stroke: #000000; stroke-width: 0.8"/>
      </g>
     </g>
     <g id="text_10">
      <!-- 0.0 -->
      <g transform="translate(21.426563 288.956794) scale(0.11 -0.11)">
       <use xlink:href="#SimHei-30"/>
       <use xlink:href="#SimHei-2e" transform="translate(50 0)"/>
       <use xlink:href="#SimHei-30" transform="translate(100 0)"/>
      </g>
     </g>
    </g>
    <g id="ytick_2">
     <g id="line2d_19">
      <path d="M 44.926563 238.542077 
L 602.546562 238.542077 
" clip-path="url(#p369d52b002)" style="fill: none; stroke: #b0b0b0; stroke-opacity: 0.22; stroke-width: 0.8; stroke-linecap: square"/>
     </g>
     <g id="line2d_20">
      <g>
       <use xlink:href="#mb828191307" x="44.926563" y="238.542077" style="stroke: #000000; stroke-width: 0.8"/>
      </g>
     </g>
     <g id="text_11">
      <!-- 0.2 -->
      <g transform="translate(21.426563 242.323327) scale(0.11 -0.11)">
       <use xlink:href="#SimHei-30"/>
       <use xlink:href="#SimHei-2e" transform="translate(50 0)"/>
       <use xlink:href="#SimHei-32" transform="translate(100 0)"/>
      </g>
     </g>
    </g>
    <g id="ytick_3">
     <g id="line2d_21">
      <path d="M 44.926563 191.908609 
L 602.546562 191.908609 
" clip-path="url(#p369d52b002)" style="fill: none; stroke: #b0b0b0; stroke-opacity: 0.22; stroke-width: 0.8; stroke-linecap: square"/>
     </g>
     <g id="line2d_22">
      <g>
       <use xlink:href="#mb828191307" x="44.926563" y="191.908609" style="stroke: #000000; stroke-width: 0.8"/>
      </g>
     </g>
     <g id="text_12">
      <!-- 0.4 -->
      <g transform="translate(21.426563 195.689859) scale(0.11 -0.11)">
       <use xlink:href="#SimHei-30"/>
       <use xlink:href="#SimHei-2e" transform="translate(50 0)"/>
       <use xlink:href="#SimHei-34" transform="translate(100 0)"/>
      </g>
     </g>
    </g>
    <g id="ytick_4">
     <g id="line2d_23">
      <path d="M 44.926563 145.275141 
L 602.546562 145.275141 
" clip-path="url(#p369d52b002)" style="fill: none; stroke: #b0b0b0; stroke-opacity: 0.22; stroke-width: 0.8; stroke-linecap: square"/>
     </g>
     <g id="line2d_24">
      <g>
       <use xlink:href="#mb828191307" x="44.926563" y="145.275141" style="stroke: #000000; stroke-width: 0.8"/>
      </g>
     </g>
     <g id="text_13">
      <!-- 0.6 -->
      <g transform="translate(21.426563 149.056391) scale(0.11 -0.11)">
       <use xlink:href="#SimHei-30"/>
       <use xlink:href="#SimHei-2e" transform="translate(50 0)"/>
       <use xlink:href="#SimHei-36" transform="translate(100 0)"/>
      </g>
     </g>
    </g>
    <g id="ytick_5">
     <g id="line2d_25">
      <path d="M 44.926563 98.641673 
L 602.546562 98.641673 
" clip-path="url(#p369d52b002)" style="fill: none; stroke: #b0b0b0; stroke-opacity: 0.22; stroke-width: 0.8; stroke-linecap: square"/>
     </g>
     <g id="line2d_26">
      <g>
       <use xlink:href="#mb828191307" x="44.926563" y="98.641673" style="stroke: #000000; stroke-width: 0.8"/>
      </g>
     </g>
     <g id="text_14">
      <!-- 0.8 -->
      <g transform="translate(21.426563 102.422923) scale(0.11 -0.11)">
       <use xlink:href="#SimHei-30"/>
       <use xlink:href="#SimHei-2e" transform="translate(50 0)"/>
       <use xlink:href="#SimHei-38" transform="translate(100 0)"/>
      </g>
     </g>
    </g>
    <g id="ytick_6">
     <g id="line2d_27">
      <path d="M 44.926563 52.008206 
L 602.546562 52.008206 
" clip-path="url(#p369d52b002)" style="fill: none; stroke: #b0b0b0; stroke-opacity: 0.22; stroke-width: 0.8; stroke-linecap: square"/>
     </g>
     <g id="line2d_28">
      <g>
       <use xlink:href="#mb828191307" x="44.926563" y="52.008206" style="stroke: #000000; stroke-width: 0.8"/>
      </g>
     </g>
     <g id="text_15">
      <!-- 1.0 -->
      <g transform="translate(21.426563 55.789456) scale(0.11 -0.11)">
       <use xlink:href="#SimHei-31"/>
       <use xlink:href="#SimHei-2e" transform="translate(50 0)"/>
       <use xlink:href="#SimHei-30" transform="translate(100 0)"/>
      </g>
     </g>
    </g>
    <g id="text_16">
     <!-- 绿色贷款占比预测值 -->
     <g transform="translate(16.051562 218.091875) rotate(-90) scale(0.11 -0.11)">
      <defs>
       <path id="SimHei-7eff" d="M 3750 3525 
Q 3300 3525 2900 3500 
L 2900 3950 
Q 3275 3900 3725 3900 
L 5050 3900 
L 5100 4500 
L 3525 4500 
Q 3075 4500 2700 4475 
L 2700 4900 
Q 3075 4875 3525 4875 
L 5600 4875 
Q 5500 4050 5425 2925 
Q 5700 2925 6075 2950 
L 6075 2500 
Q 5675 2525 5275 2525 
L 4425 2525 
L 4425 2075 
Q 4600 1700 4775 1500 
Q 4925 1600 5112 1775 
Q 5300 1950 5550 2175 
Q 5700 1975 5900 1725 
Q 5775 1700 5525 1562 
Q 5275 1425 4975 1200 
Q 5175 925 5437 675 
Q 5700 425 6150 300 
Q 5900 -25 5825 -275 
Q 5225 125 4975 462 
Q 4725 800 4425 1325 
L 4425 -75 
Q 4425 -475 4162 -562 
Q 3900 -650 3625 -700 
Q 3550 -400 3425 -150 
Q 3850 -150 3912 -62 
Q 3975 25 3975 225 
L 3975 1050 
Q 3675 750 3350 462 
Q 3025 175 2625 -100 
Q 2450 225 2300 400 
Q 2750 575 3137 875 
Q 3525 1175 3975 1575 
L 3975 2525 
L 3250 2525 
Q 2850 2525 2375 2500 
L 2375 2950 
Q 2875 2925 3250 2925 
L 4975 2925 
L 5025 3525 
L 3750 3525 
z
M 1800 4825 
Q 1625 4600 1400 4137 
Q 1175 3675 850 3150 
L 1675 3150 
Q 1950 3700 2050 4075 
Q 2275 3825 2550 3675 
Q 2375 3550 2137 3137 
Q 1900 2725 1175 1600 
Q 1650 1650 2350 1775 
Q 2325 1500 2300 1325 
Q 1875 1275 1475 1225 
Q 1075 1175 600 1075 
Q 550 1300 450 1525 
Q 700 1625 950 1975 
Q 1200 2325 1475 2775 
Q 1125 2750 900 2725 
Q 675 2700 450 2625 
Q 375 2875 275 3100 
Q 550 3300 825 3912 
Q 1100 4525 1250 5150 
Q 1525 4950 1800 4825 
z
M 2250 725 
Q 2250 475 2275 325 
Q 1975 250 1487 112 
Q 1000 -25 575 -200 
Q 500 50 375 300 
Q 925 375 1325 475 
Q 1725 575 2250 725 
z
M 3050 2175 
Q 3150 2025 3525 1450 
Q 3300 1325 3125 1175 
Q 2950 1525 2650 1900 
Q 2850 2050 3050 2175 
z
" transform="scale(0.015625)"/>
       <path id="SimHei-8272" d="M 2925 4975 
Q 2725 4875 2425 4450 
L 4750 4450 
Q 4625 4325 4375 3962 
Q 4125 3600 3900 3250 
L 5300 3250 
Q 5250 2950 5250 2250 
Q 5250 1575 5300 1175 
L 4775 1175 
L 4775 1525 
L 1750 1525 
L 1750 400 
Q 1775 50 2150 0 
L 4850 0 
Q 5375 -50 5425 550 
Q 5650 400 5925 350 
Q 5700 -450 4875 -425 
L 1975 -425 
Q 1275 -450 1250 250 
L 1250 3125 
Q 1025 2950 775 2750 
Q 600 2975 325 3125 
Q 725 3375 1075 3625 
Q 1425 3875 1787 4362 
Q 2150 4850 2250 5200 
L 2925 4975 
z
M 3325 3250 
Q 3750 3800 3850 4050 
L 2150 4050 
Q 1800 3625 1400 3250 
L 3325 3250 
z
M 3025 1900 
L 3025 2850 
L 1750 2850 
L 1750 1900 
L 3025 1900 
z
M 4775 1900 
L 4775 2850 
L 3500 2850 
L 3500 1900 
L 4775 1900 
z
" transform="scale(0.015625)"/>
       <path id="SimHei-8d37" d="M 2975 5125 
Q 3250 5150 3500 5200 
Q 3550 4900 3600 4662 
Q 3650 4425 3750 4100 
Q 4675 4250 5700 4475 
L 5800 4050 
Q 5500 4025 5037 3937 
Q 4575 3850 3950 3750 
Q 4300 3250 4675 3012 
Q 5050 2775 5225 2850 
Q 5400 2925 5500 3400 
Q 5700 3250 6050 3175 
Q 5875 2775 5637 2525 
Q 5400 2275 4887 2412 
Q 4375 2550 4000 2937 
Q 3625 3325 3425 3675 
Q 2900 3550 2075 3400 
L 1950 3800 
Q 2375 3850 3275 4025 
L 2975 5125 
z
M 5275 2300 
Q 5250 1925 5250 1500 
Q 5250 1100 5275 625 
L 4700 625 
L 4700 1900 
L 1750 1900 
L 1750 550 
L 1200 550 
Q 1225 1175 1225 1550 
Q 1225 1925 1200 2300 
L 5275 2300 
z
M 3525 1450 
Q 3375 1075 3275 762 
Q 3175 450 2887 175 
Q 2600 -100 2075 -312 
Q 1550 -525 650 -650 
Q 525 -375 325 -125 
Q 1000 -100 1437 -12 
Q 1875 75 2200 287 
Q 2525 500 2687 775 
Q 2850 1050 2900 1600 
Q 3175 1500 3525 1450 
z
M 2250 4875 
Q 2050 4775 1650 4275 
Q 1650 2900 1675 2525 
L 1150 2525 
Q 1175 2900 1175 3875 
Q 800 3475 600 3300 
Q 400 3525 225 3675 
Q 775 4000 1112 4375 
Q 1450 4750 1750 5250 
L 2250 4875 
z
M 3900 675 
Q 4425 450 5875 -225 
Q 5675 -450 5525 -650 
Q 4725 -200 3575 275 
Q 3750 500 3900 675 
z
M 4500 5250 
Q 4675 5075 5100 4675 
Q 4825 4500 4650 4375 
Q 4475 4650 4100 4950 
Q 4325 5075 4500 5250 
z
" transform="scale(0.015625)"/>
       <path id="SimHei-6b3e" d="M 4900 2700 
Q 4850 2500 4812 2237 
Q 4775 1975 4925 1462 
Q 5075 950 5450 512 
Q 5825 75 6200 -100 
Q 5900 -350 5800 -525 
Q 5275 -75 5025 300 
Q 4775 675 4625 1125 
Q 4475 650 4225 250 
Q 3975 -150 3425 -625 
Q 3225 -300 3100 -200 
Q 3400 0 3637 275 
Q 3875 550 4025 862 
Q 4175 1175 4237 1487 
Q 4300 1800 4312 2112 
Q 4325 2425 4325 2800 
Q 4675 2725 4900 2700 
z
M 1775 4500 
Q 1775 4850 1750 5175 
L 2250 5175 
Q 2225 4875 2225 4500 
L 2650 4500 
Q 3050 4500 3500 4525 
L 3500 4075 
Q 3050 4125 2650 4125 
L 2225 4125 
L 2225 3575 
L 2475 3575 
Q 2800 3575 3250 3600 
L 3250 3175 
Q 2800 3200 2475 3200 
L 1450 3200 
Q 1125 3200 625 3150 
L 625 3600 
Q 1100 3575 1450 3575 
L 1775 3575 
L 1775 4125 
L 1250 4125 
Q 925 4125 450 4075 
L 450 4525 
Q 925 4500 1225 4500 
L 1775 4500 
z
M 4250 3525 
Q 4050 3050 3750 2600 
Q 3500 2775 3300 2850 
Q 3600 3225 3762 3625 
Q 3925 4025 4037 4387 
Q 4150 4750 4200 5075 
Q 4475 4950 4750 4900 
Q 4550 4500 4375 3925 
L 6150 3925 
Q 6050 3550 5962 3262 
Q 5875 2975 5800 2700 
L 5300 2750 
Q 5450 3150 5550 3525 
L 4250 3525 
z
M 2650 1825 
Q 3050 1825 3425 1850 
L 3425 1400 
Q 3050 1450 2650 1450 
L 2225 1450 
L 2225 100 
Q 2225 -275 2037 -375 
Q 1850 -475 1375 -575 
Q 1325 -300 1125 -25 
Q 1625 -50 1687 25 
Q 1750 100 1750 225 
L 1750 1450 
L 1175 1450 
Q 825 1450 400 1400 
L 400 1850 
Q 850 1825 1200 1825 
L 2650 1825 
z
M 2450 2700 
Q 2775 2700 3200 2725 
L 3200 2275 
Q 2800 2325 2450 2325 
L 1400 2325 
Q 1050 2325 650 2275 
L 650 2725 
Q 1050 2700 1400 2700 
L 2450 2700 
z
M 1400 975 
Q 1275 775 1100 475 
Q 925 175 675 -150 
Q 550 25 275 150 
Q 450 350 625 625 
Q 800 900 925 1225 
Q 1175 1100 1400 975 
z
M 2900 1175 
Q 3000 1000 3125 800 
Q 3250 600 3400 325 
Q 3175 200 2975 50 
L 2750 500 
Q 2650 700 2475 925 
Q 2650 1025 2900 1175 
z
" transform="scale(0.015625)"/>
       <path id="SimHei-5360" d="M 2725 4400 
Q 2725 4800 2700 5075 
L 3375 5075 
Q 3350 4775 3350 4400 
L 3350 4000 
L 5250 4000 
Q 5900 4000 6150 4025 
L 6150 3525 
Q 5900 3550 5300 3550 
L 3350 3550 
L 3350 2325 
L 5450 2325 
Q 5400 2000 5400 1525 
L 5400 325 
Q 5400 -250 5450 -550 
L 4850 -550 
L 4850 -25 
L 1475 -25 
L 1475 -550 
L 875 -550 
Q 900 -150 900 175 
L 900 1550 
Q 900 2000 875 2325 
L 2725 2325 
L 2725 4400 
z
M 4850 425 
L 4850 1875 
L 1475 1875 
L 1475 425 
L 4850 425 
z
" transform="scale(0.015625)"/>
       <path id="SimHei-6bd4" d="M 3775 5100 
Q 3750 4575 3750 4100 
L 3750 3050 
Q 4925 3600 5475 4175 
Q 5675 3900 5900 3675 
Q 5600 3500 5037 3187 
Q 4475 2875 3750 2550 
L 3750 450 
Q 3750 100 4050 100 
L 5000 100 
Q 5175 100 5262 250 
Q 5350 400 5450 900 
Q 5650 775 6025 675 
Q 5850 0 5650 -175 
Q 5450 -350 5225 -350 
L 3900 -350 
Q 3250 -350 3250 275 
L 3250 4000 
Q 3250 4550 3225 5100 
L 3775 5100 
z
M 1275 4975 
Q 1250 4575 1250 4000 
L 1250 3150 
L 1850 3150 
Q 2325 3150 2875 3175 
L 2875 2650 
Q 2325 2675 1850 2675 
L 1250 2675 
L 1250 475 
Q 1650 650 1962 812 
Q 2275 975 2850 1275 
Q 2900 950 2950 750 
Q 2375 475 1762 175 
Q 1150 -125 925 -325 
Q 750 -100 575 200 
Q 700 300 750 600 
L 750 3950 
Q 750 4550 725 4975 
L 1275 4975 
z
" transform="scale(0.015625)"/>
       <path id="SimHei-9884" d="M 5200 4800 
Q 5575 4800 5950 4825 
L 5950 4400 
Q 5575 4425 5200 4425 
L 4500 4425 
Q 4425 4050 4350 3600 
L 5725 3600 
Q 5700 3225 5700 2800 
L 5700 1725 
Q 5700 1300 5725 850 
L 5250 850 
L 5250 3225 
L 3550 3225 
L 3550 800 
L 3075 800 
Q 3100 1375 3100 1725 
L 3100 2775 
Q 3100 3175 3075 3600 
L 3900 3600 
Q 4000 4150 4000 4425 
L 3725 4425 
Q 3300 4425 2850 4400 
L 2850 4825 
Q 3325 4800 3725 4800 
L 5200 4800 
z
M 2600 1775 
Q 2350 1825 2150 1825 
Q 2250 2250 2300 2450 
L 1750 2450 
L 1750 125 
Q 1725 -300 1425 -400 
Q 1125 -500 750 -500 
Q 700 -225 575 25 
Q 1125 -25 1212 37 
Q 1300 100 1300 350 
L 1300 2450 
L 1025 2450 
Q 700 2450 350 2425 
L 350 2850 
Q 700 2825 1000 2825 
L 2850 2825 
Q 2725 2325 2600 1775 
z
M 4725 2875 
Q 4625 2575 4600 2100 
Q 4575 1625 4462 1037 
Q 4350 450 3962 62 
Q 3575 -325 2925 -675 
Q 2700 -500 2475 -350 
Q 3075 -125 3437 200 
Q 3800 525 3950 937 
Q 4100 1350 4137 1850 
Q 4175 2350 4175 2925 
L 4725 2875 
z
M 1625 2900 
Q 1275 3275 800 3650 
Q 925 3775 1075 3950 
Q 1250 3825 1425 3675 
Q 1750 4150 1950 4375 
L 1400 4375 
Q 900 4375 450 4350 
L 450 4775 
Q 900 4750 1375 4750 
L 2575 4750 
L 2575 4375 
Q 2200 4100 1725 3400 
L 1950 3200 
Q 1750 3025 1625 2900 
z
M 4775 725 
Q 5725 0 6075 -325 
Q 5850 -500 5725 -650 
Q 5400 -325 5137 -87 
Q 4875 150 4525 350 
Q 4650 525 4775 725 
z
" transform="scale(0.015625)"/>
       <path id="SimHei-6d4b" d="M 4025 4725 
Q 4000 4475 4000 4000 
L 4000 2225 
Q 4000 1775 4025 1350 
L 3550 1350 
L 3550 4325 
L 2350 4325 
L 2350 1325 
L 1900 1325 
Q 1925 1775 1925 2225 
L 1925 4000 
Q 1925 4200 1900 4725 
L 4025 4725 
z
M 5900 5075 
Q 5875 4800 5875 4375 
L 5875 0 
Q 5875 -325 5650 -425 
Q 5425 -525 4975 -600 
Q 4925 -325 4775 -50 
Q 5125 -50 5262 -25 
Q 5400 0 5400 250 
L 5400 4375 
Q 5400 4775 5375 5075 
L 5900 5075 
z
M 3275 3725 
Q 3225 3400 3200 2325 
Q 3175 1250 2837 550 
Q 2500 -150 2075 -600 
Q 1850 -400 1600 -325 
Q 2200 250 2475 962 
Q 2750 1675 2762 2475 
Q 2775 3275 2725 3800 
Q 3000 3750 3275 3725 
z
M 4950 4275 
Q 4925 4000 4925 3575 
L 4925 1825 
Q 4925 1300 4950 850 
L 4450 850 
Q 4475 1150 4475 1825 
L 4475 3575 
Q 4475 4000 4450 4275 
L 4950 4275 
z
M 1700 1675 
Q 1375 1075 1112 487 
Q 850 -100 725 -400 
Q 500 -200 200 -25 
Q 475 300 762 850 
Q 1050 1400 1250 2000 
Q 1475 1825 1700 1675 
z
M 3400 1050 
Q 3800 650 4300 -125 
Q 4100 -225 3875 -450 
Q 3475 275 3025 750 
Q 3225 875 3400 1050 
z
M 600 3525 
Q 1125 3125 1500 2775 
Q 1300 2575 1150 2375 
Q 825 2775 300 3150 
Q 450 3300 600 3525 
z
M 1350 4000 
Q 950 4375 475 4675 
Q 625 4850 775 5050 
Q 1300 4700 1675 4375 
Q 1500 4250 1350 4000 
z
" transform="scale(0.015625)"/>
       <path id="SimHei-503c" d="M 3675 4450 
L 3675 5100 
Q 3975 5075 4350 5050 
Q 4225 4875 4200 4450 
L 5125 4450 
Q 5550 4450 5875 4475 
L 5875 4025 
Q 5525 4050 5125 4050 
L 4175 4050 
L 4125 3500 
L 5400 3500 
Q 5375 3200 5375 2700 
L 5375 150 
Q 5875 150 6100 175 
L 6100 -275 
Q 5775 -250 5200 -250 
L 2850 -250 
Q 2275 -250 1900 -275 
L 1900 175 
Q 2125 150 2600 150 
L 2600 2700 
Q 2600 3175 2575 3500 
L 3600 3500 
L 3650 4050 
L 3200 4050 
Q 2575 4050 2225 4025 
L 2225 4475 
Q 2550 4450 3200 4450 
L 3675 4450 
z
M 2225 4900 
Q 2025 4675 1650 3750 
L 1650 450 
Q 1650 -75 1675 -550 
L 1150 -550 
Q 1175 -125 1175 375 
L 1175 2950 
Q 875 2450 625 2150 
Q 425 2425 250 2575 
Q 500 2825 937 3537 
Q 1375 4250 1625 5150 
Q 1975 4975 2225 4900 
z
M 4925 2650 
L 4925 3150 
L 3075 3150 
L 3075 2650 
L 4925 2650 
z
M 4925 150 
L 4925 625 
L 3075 625 
L 3075 150 
L 4925 150 
z
M 4925 1000 
L 4925 1450 
L 3075 1450 
L 3075 1000 
L 4925 1000 
z
M 4925 1825 
L 4925 2275 
L 3075 2275 
L 3075 1825 
L 4925 1825 
z
" transform="scale(0.015625)"/>
      </defs>
      <use xlink:href="#SimHei-7eff"/>
      <use xlink:href="#SimHei-8272" transform="translate(100 0)"/>
      <use xlink:href="#SimHei-8d37" transform="translate(200 0)"/>
      <use xlink:href="#SimHei-6b3e" transform="translate(300 0)"/>
      <use xlink:href="#SimHei-5360" transform="translate(400 0)"/>
      <use xlink:href="#SimHei-6bd4" transform="translate(500 0)"/>
      <use xlink:href="#SimHei-9884" transform="translate(600 0)"/>
      <use xlink:href="#SimHei-6d4b" transform="translate(700 0)"/>
      <use xlink:href="#SimHei-503c" transform="translate(800 0)"/>
     </g>
    </g>
   </g>
   <g id="line2d_29">
    <path d="M 70.272926 193.248311 
L 577.200199 70.141225 
L 577.200199 70.141225 
" clip-path="url(#p369d52b002)" style="fill: none; stroke: #1f77b4; stroke-width: 2.2; stroke-linecap: square"/>
   </g>
   <g id="line2d_30">
    <path d="M 70.272926 199.571215 
L 95.76089 192.456749 
L 126.912845 183.508073 
L 169.392784 171.032939 
L 234.52869 151.894852 
L 265.680646 142.994468 
L 291.168609 135.933503 
L 313.824577 129.866283 
L 336.480544 124.026022 
L 359.136512 118.436472 
L 378.960483 113.766031 
L 398.784455 109.311109 
L 418.608426 105.078049 
L 438.432398 101.070456 
L 458.25637 97.289407 
L 478.080341 93.733709 
L 497.904313 90.400169 
L 517.728284 87.283879 
L 537.552256 84.3785 
L 557.376227 81.67654 
L 577.200199 79.169605 
L 577.200199 79.169605 
" clip-path="url(#p369d52b002)" style="fill: none; stroke-dasharray: 8.14,3.52; stroke-dashoffset: 0; stroke: #ff7f0e; stroke-width: 2.2"/>
   </g>
   <g id="line2d_31">
    <path d="M 44.926563 285.175544 
L 602.546562 285.175544 
" clip-path="url(#p369d52b002)" style="fill: none; stroke: #000000; stroke-opacity: 0.8; stroke-linecap: square"/>
   </g>
   <g id="line2d_32">
    <path d="M 44.926563 52.008206 
L 602.546562 52.008206 
" clip-path="url(#p369d52b002)" style="fill: none; stroke: #000000; stroke-opacity: 0.8; stroke-linecap: square"/>
   </g>
   <g id="patch_3">
    <path d="M 44.926563 313.155625 
L 44.926563 24.028125 
" style="fill: none; stroke: #000000; stroke-width: 0.8; stroke-linejoin: miter; stroke-linecap: square"/>
   </g>
   <g id="patch_4">
    <path d="M 44.926563 313.155625 
L 602.546562 313.155625 
" style="fill: none; stroke: #000000; stroke-width: 0.8; stroke-linejoin: miter; stroke-linecap: square"/>
   </g>
   <g id="text_17">
    <!-- Fractional response：预测值自然落在 [0, 1] 内 -->
    <g transform="translate(175.236562 18.028125) scale(0.132 -0.132)">
     <defs>
      <path id="SimHei-46" d="M 2925 3925 
L 875 3925 
L 875 2525 
L 2425 2525 
L 2425 2050 
L 875 2050 
L 875 125 
L 300 125 
L 300 4400 
L 2925 4400 
L 2925 3925 
z
" transform="scale(0.015625)"/>
      <path id="SimHei-69" d="M 1800 3725 
L 1300 3725 
L 1300 4375 
L 1800 4375 
L 1800 3725 
z
M 1800 125 
L 1300 125 
L 1300 2925 
L 1800 2925 
L 1800 125 
z
" transform="scale(0.015625)"/>
      <path id="SimHei-6e" d="M 2800 125 
L 2300 125 
L 2300 1925 
Q 2300 2225 2150 2400 
Q 2000 2575 1750 2575 
Q 1425 2575 1137 2237 
Q 850 1900 850 1400 
L 850 125 
L 350 125 
L 350 2925 
L 850 2925 
L 850 2400 
Q 1050 2675 1287 2825 
Q 1525 2975 1900 2975 
Q 2350 2975 2575 2725 
Q 2800 2475 2800 2100 
L 2800 125 
z
" transform="scale(0.015625)"/>
      <path id="SimHei-73" d="M 2750 900 
Q 2750 500 2437 287 
Q 2125 75 1650 75 
Q 1050 75 725 312 
Q 400 550 400 1000 
L 900 1000 
Q 900 700 1112 600 
Q 1325 500 1625 500 
Q 1925 500 2075 612 
Q 2225 725 2225 900 
Q 2225 1025 2100 1150 
Q 1975 1275 1475 1350 
Q 900 1425 687 1637 
Q 475 1850 475 2200 
Q 475 2500 762 2737 
Q 1050 2975 1600 2975 
Q 2100 2975 2387 2750 
Q 2675 2525 2675 2150 
L 2175 2150 
Q 2175 2375 2012 2462 
Q 1850 2550 1600 2550 
Q 1275 2550 1137 2437 
Q 1000 2325 1000 2175 
Q 1000 2000 1125 1900 
Q 1250 1800 1650 1750 
Q 2300 1650 2525 1437 
Q 2750 1225 2750 900 
z
" transform="scale(0.015625)"/>
      <path id="SimHei-70" d="M 2825 1525 
Q 2825 800 2475 425 
Q 2125 50 1625 50 
Q 1350 50 1150 162 
Q 950 275 800 500 
L 800 -800 
L 300 -800 
L 300 2925 
L 800 2925 
L 800 2550 
Q 950 2775 1150 2875 
Q 1350 2975 1625 2975 
Q 2125 2975 2475 2612 
Q 2825 2250 2825 1525 
z
M 2275 1525 
Q 2275 2000 2087 2262 
Q 1900 2525 1525 2525 
Q 1225 2525 1012 2262 
Q 800 2000 800 1525 
Q 800 1050 1012 775 
Q 1225 500 1525 500 
Q 1900 500 2087 775 
Q 2275 1050 2275 1525 
z
" transform="scale(0.015625)"/>
      <path id="SimHei-ff1a" d="M 1200 2425 
L 2025 2425 
L 2025 1600 
L 1200 1600 
L 1200 2425 
z
M 1200 825 
L 2025 825 
L 2025 0 
L 1200 0 
L 1200 825 
z
" transform="scale(0.015625)"/>
      <path id="SimHei-81ea" d="M 3200 5075 
Q 3050 4850 2900 4225 
L 5400 4225 
Q 5375 3650 5375 3175 
L 5375 375 
Q 5375 -75 5400 -525 
L 4900 -525 
L 4900 75 
L 1550 75 
L 1550 -525 
L 1050 -525 
Q 1075 -50 1075 350 
L 1075 3200 
Q 1075 3650 1050 4225 
L 2425 4225 
Q 2525 4900 2550 5225 
Q 2850 5125 3200 5075 
z
M 4900 475 
L 4900 1375 
L 1550 1375 
L 1550 475 
L 4900 475 
z
M 4900 2975 
L 4900 3800 
L 1550 3800 
L 1550 2975 
L 4900 2975 
z
M 4900 1775 
L 4900 2575 
L 1550 2575 
L 1550 1775 
L 4900 1775 
z
" transform="scale(0.015625)"/>
      <path id="SimHei-7136" d="M 2025 4950 
Q 1875 4750 1650 4325 
L 3100 4325 
Q 3025 3850 2837 3187 
Q 2650 2525 2087 1862 
Q 1525 1200 900 825 
Q 750 1025 450 1150 
Q 1050 1450 1475 1925 
Q 1300 2175 850 2500 
Q 1025 2650 1150 2850 
Q 1550 2525 1800 2250 
Q 1975 2450 2125 2700 
Q 1775 3050 1400 3300 
Q 1550 3475 1650 3650 
Q 2075 3350 2325 3100 
Q 2475 3425 2550 3925 
L 1475 3925 
Q 1175 3400 675 2725 
Q 475 2900 200 2975 
Q 675 3475 987 4087 
Q 1300 4700 1450 5150 
Q 1700 5025 2025 4950 
z
M 5775 3100 
Q 5425 3125 4525 3125 
Q 4700 2500 5112 2025 
Q 5525 1550 6125 1300 
Q 5800 1100 5625 875 
Q 5100 1225 4775 1650 
Q 4450 2075 4225 2625 
Q 4050 2150 3725 1675 
Q 3400 1200 2900 800 
Q 2725 1000 2425 1175 
Q 2900 1425 3275 1912 
Q 3650 2400 3875 3125 
Q 3375 3125 3000 3100 
L 3000 3525 
Q 3475 3500 3925 3500 
Q 3950 4700 3900 5050 
Q 4200 5000 4450 5000 
Q 4400 4575 4400 3500 
Q 5350 3500 5775 3525 
L 5775 3100 
z
M 5600 -625 
Q 5325 -75 4750 600 
Q 4975 700 5175 875 
Q 5750 150 6050 -350 
Q 5800 -425 5600 -625 
z
M 1525 450 
Q 1150 -75 775 -675 
Q 625 -525 325 -425 
Q 675 25 1075 750 
Q 1225 625 1525 450 
z
M 4025 -550 
Q 3850 -75 3400 525 
L 3800 775 
Q 4325 50 4475 -325 
Q 4150 -475 4025 -550 
z
M 2475 -600 
Q 2375 -200 2050 500 
Q 2325 550 2500 675 
Q 2800 125 2950 -425 
Q 2600 -525 2475 -600 
z
M 5475 3725 
Q 5125 4200 4725 4550 
Q 4850 4650 5025 4850 
Q 5450 4500 5825 4025 
Q 5650 3900 5475 3725 
z
" transform="scale(0.015625)"/>
      <path id="SimHei-843d" d="M 3650 3825 
Q 3525 3725 3350 3500 
L 5475 3500 
Q 5325 3175 5000 2762 
Q 4675 2350 4375 2125 
Q 4675 2000 5050 1925 
Q 5425 1850 6175 1850 
Q 5975 1600 5925 1325 
Q 5350 1400 4887 1512 
Q 4425 1625 3950 1825 
Q 3575 1625 3187 1487 
Q 2800 1350 2000 1125 
Q 1925 1400 1725 1600 
Q 2250 1650 2750 1787 
Q 3250 1925 3575 2100 
Q 3375 2250 3200 2412 
Q 3025 2575 2875 2775 
Q 2750 2575 2325 2100 
Q 2150 2300 1925 2425 
Q 2300 2725 2637 3200 
Q 2975 3675 3075 4025 
Q 3300 3900 3650 3825 
z
M 5350 1225 
Q 5325 900 5325 550 
L 5325 225 
Q 5325 -150 5350 -575 
L 4850 -575 
L 4850 -250 
L 3100 -250 
L 3100 -600 
L 2575 -600 
Q 2600 -175 2600 225 
L 2600 550 
Q 2600 850 2575 1225 
L 5350 1225 
z
M 2450 5150 
Q 2425 4875 2425 4675 
L 3725 4675 
Q 3725 4875 3700 5150 
L 4225 5150 
Q 4200 4875 4200 4675 
L 5000 4675 
Q 5575 4675 6050 4700 
L 6050 4275 
Q 5600 4300 5000 4300 
L 4200 4300 
Q 4200 4100 4225 3850 
L 3725 3850 
L 3725 4300 
L 2425 4300 
L 2425 3725 
L 1925 3725 
Q 1950 4150 1950 4300 
L 1375 4300 
Q 825 4300 350 4250 
L 350 4700 
Q 825 4675 1375 4675 
L 1950 4675 
Q 1950 4875 1925 5150 
L 2450 5150 
z
M 4850 125 
L 4850 850 
L 3100 850 
L 3100 125 
L 4850 125 
z
M 1700 1300 
Q 1525 1050 1275 550 
Q 1025 50 800 -450 
Q 575 -225 300 -50 
Q 600 300 850 750 
Q 1100 1200 1325 1650 
Q 1475 1475 1700 1300 
z
M 3950 2350 
Q 4200 2525 4362 2712 
Q 4525 2900 4700 3125 
L 3125 3125 
Q 3250 2925 3487 2700 
Q 3725 2475 3950 2350 
z
M 650 2725 
Q 850 2625 1075 2487 
Q 1300 2350 1575 2150 
Q 1375 1950 1225 1750 
Q 1025 1925 825 2050 
Q 625 2175 350 2325 
Q 525 2500 650 2725 
z
M 975 3850 
Q 1175 3725 1375 3587 
Q 1575 3450 1850 3250 
Q 1650 3100 1525 2900 
Q 1325 3075 1112 3225 
Q 900 3375 675 3475 
Q 850 3700 975 3850 
z
" transform="scale(0.015625)"/>
      <path id="SimHei-5728" d="M 2425 4200 
Q 2525 4525 2600 4762 
Q 2675 5000 2700 5250 
Q 3050 5175 3325 5100 
Q 3200 4850 3150 4712 
Q 3100 4575 2975 4200 
L 5000 4200 
Q 5525 4200 5950 4225 
L 5950 3750 
Q 5525 3775 5000 3775 
L 2825 3775 
Q 2675 3425 2437 3000 
Q 2200 2575 1825 2075 
L 1825 325 
Q 1825 -175 1850 -650 
L 1325 -650 
Q 1350 -175 1350 325 
L 1350 1625 
Q 950 1250 625 1000 
Q 450 1225 200 1375 
Q 500 1550 800 1800 
Q 1100 2050 1350 2375 
Q 1350 2600 1325 2825 
L 1725 2825 
Q 1900 3025 2037 3275 
Q 2175 3525 2275 3775 
L 1675 3775 
Q 1075 3775 625 3750 
L 625 4225 
Q 1100 4200 1675 4200 
L 2425 4200 
z
M 3700 2250 
L 3700 2600 
Q 3700 3100 3675 3400 
L 4225 3400 
Q 4200 3100 4200 2600 
L 4200 2250 
L 4775 2250 
Q 5225 2250 5600 2275 
L 5600 1800 
Q 5225 1825 4775 1825 
L 4200 1825 
L 4200 150 
L 5150 150 
Q 5625 150 6000 175 
L 6000 -275 
Q 5625 -250 5150 -250 
L 3125 -250 
Q 2475 -250 2100 -275 
L 2100 175 
Q 2475 150 3125 150 
L 3700 150 
L 3700 1825 
L 3225 1825 
Q 2775 1825 2350 1800 
L 2350 2275 
Q 2775 2250 3225 2250 
L 3700 2250 
z
" transform="scale(0.015625)"/>
      <path id="SimHei-5b" d="M 2825 -525 
L 1250 -525 
L 1250 5050 
L 2825 5050 
L 2825 4650 
L 1675 4650 
L 1675 -125 
L 2825 -125 
L 2825 -525 
z
" transform="scale(0.015625)"/>
      <path id="SimHei-2c" d="M 1100 125 
L 775 -550 
L 525 -550 
L 775 125 
L 525 125 
L 525 675 
L 1100 675 
L 1100 125 
z
" transform="scale(0.015625)"/>
      <path id="SimHei-5d" d="M 1875 -525 
L 300 -525 
L 300 -125 
L 1450 -125 
L 1450 4650 
L 300 4650 
L 300 5050 
L 1875 5050 
L 1875 -525 
z
" transform="scale(0.015625)"/>
      <path id="SimHei-5185" d="M 1425 1300 
Q 2175 1825 2537 2375 
Q 2900 2925 2925 3750 
L 1225 3750 
L 1225 -500 
L 650 -500 
Q 700 0 700 350 
L 700 3125 
Q 700 3625 675 4175 
L 2950 4175 
Q 2950 4850 2925 5175 
Q 3325 5150 3550 5150 
Q 3425 4825 3425 4175 
L 5775 4175 
Q 5725 3650 5725 3125 
L 5725 75 
Q 5725 -300 5425 -387 
Q 5125 -475 4600 -550 
Q 4525 -300 4250 0 
Q 4850 0 5025 37 
Q 5200 75 5200 275 
L 5200 3750 
L 3400 3750 
Q 3400 3300 3325 2875 
Q 3550 2700 4125 2262 
Q 4700 1825 4950 1575 
Q 4675 1350 4525 1175 
Q 4100 1675 3175 2425 
Q 2725 1650 2000 975 
Q 1700 1225 1425 1300 
z
" transform="scale(0.015625)"/>
     </defs>
     <use xlink:href="#SimHei-46"/>
     <use xlink:href="#SimHei-72" transform="translate(50 0)"/>
     <use xlink:href="#SimHei-61" transform="translate(100 0)"/>
     <use xlink:href="#SimHei-63" transform="translate(150 0)"/>
     <use xlink:href="#SimHei-74" transform="translate(200 0)"/>
     <use xlink:href="#SimHei-69" transform="translate(250 0)"/>
     <use xlink:href="#SimHei-6f" transform="translate(300 0)"/>
     <use xlink:href="#SimHei-6e" transform="translate(350 0)"/>
     <use xlink:href="#SimHei-61" transform="translate(400 0)"/>
     <use xlink:href="#SimHei-6c" transform="translate(450 0)"/>
     <use xlink:href="#SimHei-20" transform="translate(500 0)"/>
     <use xlink:href="#SimHei-72" transform="translate(550 0)"/>
     <use xlink:href="#SimHei-65" transform="translate(600 0)"/>
     <use xlink:href="#SimHei-73" transform="translate(650 0)"/>
     <use xlink:href="#SimHei-70" transform="translate(700 0)"/>
     <use xlink:href="#SimHei-6f" transform="translate(750 0)"/>
     <use xlink:href="#SimHei-6e" transform="translate(800 0)"/>
     <use xlink:href="#SimHei-73" transform="translate(850 0)"/>
     <use xlink:href="#SimHei-65" transform="translate(900 0)"/>
     <use xlink:href="#SimHei-ff1a" transform="translate(950 0)"/>
     <use xlink:href="#SimHei-9884" transform="translate(1050 0)"/>
     <use xlink:href="#SimHei-6d4b" transform="translate(1150 0)"/>
     <use xlink:href="#SimHei-503c" transform="translate(1250 0)"/>
     <use xlink:href="#SimHei-81ea" transform="translate(1350 0)"/>
     <use xlink:href="#SimHei-7136" transform="translate(1450 0)"/>
     <use xlink:href="#SimHei-843d" transform="translate(1550 0)"/>
     <use xlink:href="#SimHei-5728" transform="translate(1650 0)"/>
     <use xlink:href="#SimHei-20" transform="translate(1750 0)"/>
     <use xlink:href="#SimHei-5b" transform="translate(1800 0)"/>
     <use xlink:href="#SimHei-30" transform="translate(1850 0)"/>
     <use xlink:href="#SimHei-2c" transform="translate(1900 0)"/>
     <use xlink:href="#SimHei-20" transform="translate(1950 0)"/>
     <use xlink:href="#SimHei-31" transform="translate(2000 0)"/>
     <use xlink:href="#SimHei-5d" transform="translate(2050 0)"/>
     <use xlink:href="#SimHei-20" transform="translate(2100 0)"/>
     <use xlink:href="#SimHei-5185" transform="translate(2150 0)"/>
    </g>
   </g>
   <g id="legend_1">
    <g id="line2d_33">
     <path d="M 517.846562 160.616875 
L 528.846562 160.616875 
L 539.846562 160.616875 
" style="fill: none; stroke: #1f77b4; stroke-width: 2.2; stroke-linecap: square"/>
    </g>
    <g id="text_18">
     <!-- OLS 预测 -->
     <g transform="translate(548.646562 164.466875) scale(0.11 -0.11)">
      <defs>
       <path id="SimHei-4f" d="M 2950 2275 
Q 2950 1100 2587 587 
Q 2225 75 1575 75 
Q 925 75 550 587 
Q 175 1100 175 2275 
Q 175 3450 550 3950 
Q 925 4450 1575 4450 
Q 2225 4450 2587 3950 
Q 2950 3450 2950 2275 
z
M 2350 2275 
Q 2350 3325 2125 3650 
Q 1900 3975 1575 3975 
Q 1250 3975 1012 3650 
Q 775 3325 775 2275 
Q 775 1225 1012 887 
Q 1250 550 1575 550 
Q 1900 550 2125 887 
Q 2350 1225 2350 2275 
z
" transform="scale(0.015625)"/>
       <path id="SimHei-4c" d="M 2900 125 
L 300 125 
L 300 4400 
L 875 4400 
L 875 600 
L 2900 600 
L 2900 125 
z
" transform="scale(0.015625)"/>
       <path id="SimHei-53" d="M 2900 1325 
Q 2900 750 2537 412 
Q 2175 75 1550 75 
Q 925 75 575 425 
Q 225 775 225 1300 
L 225 1475 
L 800 1475 
L 800 1325 
Q 800 950 1025 750 
Q 1250 550 1550 550 
Q 1950 550 2137 762 
Q 2325 975 2325 1275 
Q 2325 1525 2100 1737 
Q 1875 1950 1450 2125 
Q 850 2350 587 2625 
Q 325 2900 325 3275 
Q 325 3800 687 4125 
Q 1050 4450 1550 4450 
Q 2200 4450 2487 4062 
Q 2775 3675 2775 3225 
L 2200 3225 
Q 2225 3500 2050 3725 
Q 1875 3950 1550 3950 
Q 1250 3950 1075 3787 
Q 900 3625 900 3350 
Q 900 3125 1037 2962 
Q 1175 2800 1750 2575 
Q 2300 2350 2600 2037 
Q 2900 1725 2900 1325 
z
" transform="scale(0.015625)"/>
      </defs>
      <use xlink:href="#SimHei-4f"/>
      <use xlink:href="#SimHei-4c" transform="translate(50 0)"/>
      <use xlink:href="#SimHei-53" transform="translate(100 0)"/>
      <use xlink:href="#SimHei-20" transform="translate(150 0)"/>
      <use xlink:href="#SimHei-9884" transform="translate(200 0)"/>
      <use xlink:href="#SimHei-6d4b" transform="translate(300 0)"/>
     </g>
    </g>
    <g id="line2d_34">
     <path d="M 517.846562 175.999687 
L 528.846562 175.999687 
L 539.846562 175.999687 
" style="fill: none; stroke-dasharray: 8.14,3.52; stroke-dashoffset: 0; stroke: #ff7f0e; stroke-width: 2.2"/>
    </g>
    <g id="text_19">
     <!-- FRM 预测 -->
     <g transform="translate(548.646562 179.849687) scale(0.11 -0.11)">
      <defs>
       <path id="SimHei-52" d="M 3000 125 
L 2400 125 
L 1500 1975 
L 850 1975 
L 850 125 
L 275 125 
L 275 4400 
L 1525 4400 
Q 2125 4400 2500 4112 
Q 2875 3825 2875 3175 
Q 2875 2675 2625 2400 
Q 2375 2125 2050 2050 
L 3000 125 
z
M 2300 3175 
Q 2300 3525 2087 3725 
Q 1875 3925 1400 3925 
L 850 3925 
L 850 2450 
L 1550 2450 
Q 1850 2450 2075 2612 
Q 2300 2775 2300 3175 
z
" transform="scale(0.015625)"/>
       <path id="SimHei-4d" d="M 2925 125 
L 2425 125 
L 2425 3175 
L 2375 3175 
L 1775 125 
L 1375 125 
L 775 3175 
L 725 3175 
L 725 125 
L 225 125 
L 225 4400 
L 1000 4400 
L 1550 1575 
L 1600 1575 
L 2150 4400 
L 2925 4400 
L 2925 125 
z
" transform="scale(0.015625)"/>
      </defs>
      <use xlink:href="#SimHei-46"/>
      <use xlink:href="#SimHei-52" transform="translate(50 0)"/>
      <use xlink:href="#SimHei-4d" transform="translate(100 0)"/>
      <use xlink:href="#SimHei-20" transform="translate(150 0)"/>
      <use xlink:href="#SimHei-9884" transform="translate(200 0)"/>
      <use xlink:href="#SimHei-6d4b" transform="translate(300 0)"/>
     </g>
    </g>
   </g>
  </g>
 </g>
 <defs>
  <clipPath id="p369d52b002">
   <rect x="44.926563" y="24.028125" width="557.62" height="289.1275"/>
  </clipPath>
 </defs>
</svg>
