<?xml version="1.0" encoding="utf-8" standalone="no"?>
<!DOCTYPE svg PUBLIC "-//W3C//DTD SVG 1.1//EN"
  "http://www.w3.org/Graphics/SVG/1.1/DTD/svg11.dtd">
<svg xmlns:xlink="http://www.w3.org/1999/xlink" width="609.899219pt" height="336.209844pt" viewBox="0 0 609.899219 336.209844" xmlns="http://www.w3.org/2000/svg" version="1.1">
 <metadata>
  <rdf:RDF xmlns:dc="http://purl.org/dc/elements/1.1/" xmlns:cc="http://creativecommons.org/ns#" xmlns:rdf="http://www.w3.org/1999/02/22-rdf-syntax-ns#">
   <cc:Work>
    <dc:type rdf:resource="http://purl.org/dc/dcmitype/StillImage"/>
    <dc:date>2026-04-30T01:04:12.660433</dc:date>
    <dc:format>image/svg+xml</dc:format>
    <dc:creator>
     <cc:Agent>
      <dc:title>Matplotlib v3.10.8, https://matplotlib.org/</dc:title>
     </cc:Agent>
    </dc:creator>
   </cc:Work>
  </rdf:RDF>
 </metadata>
 <defs>
  <style type="text/css">*{stroke-linejoin: round; stroke-linecap: butt}</style>
 </defs>
 <g id="figure_1">
  <g id="patch_1">
   <path d="M 0 336.209844 
L 609.899219 336.209844 
L 609.899219 0 
L 0 0 
z
" style="fill: #ffffff"/>
  </g>
  <g id="axes_1">
   <g id="patch_2">
    <path d="M 44.711719 298.88875 
L 602.699219 298.88875 
L 602.699219 24.13125 
L 44.711719 24.13125 
z
" style="fill: #ffffff"/>
   </g>
   <g id="patch_3">
    <path d="M 70.074787 298.88875 
L 116.189456 298.88875 
L 116.189456 37.21494 
L 70.074787 37.21494 
z
" clip-path="url(#p8258299f0d)" style="fill: #1f77b4; opacity: 0.85"/>
   </g>
   <g id="patch_4">
    <path d="M 127.718124 298.88875 
L 173.832793 298.88875 
L 173.832793 233.240356 
L 127.718124 233.240356 
z
" clip-path="url(#p8258299f0d)" style="fill: #1f77b4; opacity: 0.85"/>
   </g>
   <g id="patch_5">
    <path d="M 185.36146 298.88875 
L 231.47613 298.88875 
L 231.47613 239.793698 
L 185.36146 239.793698 
z
" clip-path="url(#p8258299f0d)" style="fill: #1f77b4; opacity: 0.85"/>
   </g>
   <g id="patch_6">
    <path d="M 243.004797 298.88875 
L 289.119467 298.88875 
L 289.119467 259.338754 
L 243.004797 259.338754 
z
" clip-path="url(#p8258299f0d)" style="fill: #1f77b4; opacity: 0.85"/>
   </g>
   <g id="patch_7">
    <path d="M 300.648134 298.88875 
L 346.762803 298.88875 
L 346.762803 280.493403 
L 300.648134 280.493403 
z
" clip-path="url(#p8258299f0d)" style="fill: #1f77b4; opacity: 0.85"/>
   </g>
   <g id="patch_8">
    <path d="M 358.291471 298.88875 
L 404.40614 298.88875 
L 404.40614 289.806047 
L 358.291471 289.806047 
z
" clip-path="url(#p8258299f0d)" style="fill: #1f77b4; opacity: 0.85"/>
   </g>
   <g id="patch_9">
    <path d="M 415.934808 298.88875 
L 462.049477 298.88875 
L 462.049477 295.554593 
L 415.934808 295.554593 
z
" clip-path="url(#p8258299f0d)" style="fill: #1f77b4; opacity: 0.85"/>
   </g>
   <g id="patch_10">
    <path d="M 473.578144 298.88875 
L 519.692814 298.88875 
L 519.692814 296.819273 
L 473.578144 296.819273 
z
" clip-path="url(#p8258299f0d)" style="fill: #1f77b4; opacity: 0.85"/>
   </g>
   <g id="patch_11">
    <path d="M 531.221481 298.88875 
L 577.336151 298.88875 
L 577.336151 297.854012 
L 531.221481 297.854012 
z
" clip-path="url(#p8258299f0d)" style="fill: #1f77b4; opacity: 0.85"/>
   </g>
   <g id="matplotlib.axis_1">
    <g id="xtick_1">
     <g id="line2d_1">
      <path d="M 93.132122 298.88875 
L 93.132122 24.13125 
" clip-path="url(#p8258299f0d)" style="fill: none; stroke: #b0b0b0; stroke-opacity: 0.22; stroke-width: 0.8; stroke-linecap: square"/>
     </g>
     <g id="line2d_2">
      <defs>
       <path id="m0137c98812" d="M 0 0 
L 0 3.5 
" style="stroke: #000000; stroke-width: 0.8"/>
      </defs>
      <g>
       <use xlink:href="#m0137c98812" x="93.132122" y="298.88875" style="stroke: #000000; stroke-width: 0.8"/>
      </g>
     </g>
     <g id="text_1">
      <!-- 0 -->
      <g transform="translate(90.382122 313.45125) scale(0.11 -0.11)">
       <defs>
        <path id="SimHei-30" d="M 225 2537 
Q 250 3200 412 3587 
Q 575 3975 875 4225 
Q 1175 4475 1612 4475 
Q 2050 4475 2375 4112 
Q 2700 3750 2800 3200 
Q 2900 2650 2862 1937 
Q 2825 1225 2612 775 
Q 2400 325 1975 150 
Q 1550 -25 1125 187 
Q 700 400 525 750 
Q 350 1100 275 1487 
Q 200 1875 225 2537 
z
M 750 2687 
Q 675 2000 800 1462 
Q 925 925 1212 700 
Q 1500 475 1800 612 
Q 2100 750 2237 1162 
Q 2375 1575 2375 2062 
Q 2375 2550 2337 2950 
Q 2300 3350 2112 3675 
Q 1925 4000 1612 4012 
Q 1300 4025 1062 3700 
Q 825 3375 750 2687 
z
" transform="scale(0.015625)"/>
       </defs>
       <use xlink:href="#SimHei-30"/>
      </g>
     </g>
    </g>
    <g id="xtick_2">
     <g id="line2d_3">
      <path d="M 150.775458 298.88875 
L 150.775458 24.13125 
" clip-path="url(#p8258299f0d)" style="fill: none; stroke: #b0b0b0; stroke-opacity: 0.22; stroke-width: 0.8; stroke-linecap: square"/>
     </g>
     <g id="line2d_4">
      <g>
       <use xlink:href="#m0137c98812" x="150.775458" y="298.88875" style="stroke: #000000; stroke-width: 0.8"/>
      </g>
     </g>
     <g id="text_2">
      <!-- 1 -->
      <g transform="translate(148.025458 313.45125) scale(0.11 -0.11)">
       <defs>
        <path id="SimHei-31" d="M 1400 3600 
Q 1075 3275 575 2975 
L 575 3450 
Q 1200 3875 1600 4450 
L 1900 4450 
L 1900 150 
L 1400 150 
L 1400 3600 
z
" transform="scale(0.015625)"/>
       </defs>
       <use xlink:href="#SimHei-31"/>
      </g>
     </g>
    </g>
    <g id="xtick_3">
     <g id="line2d_5">
      <path d="M 208.418795 298.88875 
L 208.418795 24.13125 
" clip-path="url(#p8258299f0d)" style="fill: none; stroke: #b0b0b0; stroke-opacity: 0.22; stroke-width: 0.8; stroke-linecap: square"/>
     </g>
     <g id="line2d_6">
      <g>
       <use xlink:href="#m0137c98812" x="208.418795" y="298.88875" style="stroke: #000000; stroke-width: 0.8"/>
      </g>
     </g>
     <g id="text_3">
      <!-- 2 -->
      <g transform="translate(205.668795 313.45125) scale(0.11 -0.11)">
       <defs>
        <path id="SimHei-32" d="M 300 250 
Q 325 625 650 925 
Q 975 1225 1475 1862 
Q 1975 2500 2125 2850 
Q 2275 3200 2237 3450 
Q 2200 3700 2000 3862 
Q 1800 4025 1537 4000 
Q 1275 3975 1037 3800 
Q 800 3625 675 3275 
L 200 3350 
Q 400 3925 712 4187 
Q 1025 4450 1450 4475 
Q 1700 4500 1900 4462 
Q 2100 4425 2312 4287 
Q 2525 4150 2662 3875 
Q 2800 3600 2762 3212 
Q 2725 2825 2375 2287 
Q 2025 1750 1025 600 
L 2825 600 
L 2825 150 
L 300 150 
L 300 250 
z
" transform="scale(0.015625)"/>
       </defs>
       <use xlink:href="#SimHei-32"/>
      </g>
     </g>
    </g>
    <g id="xtick_4">
     <g id="line2d_7">
      <path d="M 266.062132 298.88875 
L 266.062132 24.13125 
" clip-path="url(#p8258299f0d)" style="fill: none; stroke: #b0b0b0; stroke-opacity: 0.22; stroke-width: 0.8; stroke-linecap: square"/>
     </g>
     <g id="line2d_8">
      <g>
       <use xlink:href="#m0137c98812" x="266.062132" y="298.88875" style="stroke: #000000; stroke-width: 0.8"/>
      </g>
     </g>
     <g id="text_4">
      <!-- 3 -->
      <g transform="translate(263.312132 313.45125) scale(0.11 -0.11)">
       <defs>
        <path id="SimHei-33" d="M 250 1225 
L 700 1300 
Q 800 975 1025 762 
Q 1250 550 1587 562 
Q 1925 575 2125 837 
Q 2325 1100 2300 1437 
Q 2275 1775 2037 1962 
Q 1800 2150 1275 2225 
L 1275 2550 
Q 1800 2600 2037 2825 
Q 2275 3050 2250 3412 
Q 2225 3775 1925 3937 
Q 1625 4100 1287 3975 
Q 950 3850 750 3275 
L 300 3350 
Q 450 3800 712 4100 
Q 975 4400 1425 4450 
Q 1875 4500 2212 4337 
Q 2550 4175 2687 3837 
Q 2825 3500 2725 3100 
Q 2625 2700 2150 2400 
Q 2500 2250 2687 1950 
Q 2875 1650 2812 1162 
Q 2750 675 2375 375 
Q 2000 75 1525 87 
Q 1050 100 700 387 
Q 350 675 250 1225 
z
" transform="scale(0.015625)"/>
       </defs>
       <use xlink:href="#SimHei-33"/>
      </g>
     </g>
    </g>
    <g id="xtick_5">
     <g id="line2d_9">
      <path d="M 323.705469 298.88875 
L 323.705469 24.13125 
" clip-path="url(#p8258299f0d)" style="fill: none; stroke: #b0b0b0; stroke-opacity: 0.22; stroke-width: 0.8; stroke-linecap: square"/>
     </g>
     <g id="line2d_10">
      <g>
       <use xlink:href="#m0137c98812" x="323.705469" y="298.88875" style="stroke: #000000; stroke-width: 0.8"/>
      </g>
     </g>
     <g id="text_5">
      <!-- 4 -->
      <g transform="translate(320.955469 313.45125) scale(0.11 -0.11)">
       <defs>
        <path id="SimHei-34" d="M 2000 1100 
L 75 1100 
L 75 1525 
L 2100 4450 
L 2475 4450 
L 2475 1525 
L 3075 1525 
L 3075 1100 
L 2475 1100 
L 2475 150 
L 2000 150 
L 2000 1100 
z
M 2000 1525 
L 2000 3500 
L 600 1525 
L 2000 1525 
z
" transform="scale(0.015625)"/>
       </defs>
       <use xlink:href="#SimHei-34"/>
      </g>
     </g>
    </g>
    <g id="xtick_6">
     <g id="line2d_11">
      <path d="M 381.348806 298.88875 
L 381.348806 24.13125 
" clip-path="url(#p8258299f0d)" style="fill: none; stroke: #b0b0b0; stroke-opacity: 0.22; stroke-width: 0.8; stroke-linecap: square"/>
     </g>
     <g id="line2d_12">
      <g>
       <use xlink:href="#m0137c98812" x="381.348806" y="298.88875" style="stroke: #000000; stroke-width: 0.8"/>
      </g>
     </g>
     <g id="text_6">
      <!-- 5 -->
      <g transform="translate(378.598806 313.45125) scale(0.11 -0.11)">
       <defs>
        <path id="SimHei-35" d="M 550 1325 
Q 725 650 1150 575 
Q 1575 500 1837 662 
Q 2100 825 2212 1087 
Q 2325 1350 2312 1675 
Q 2300 2000 2137 2225 
Q 1975 2450 1725 2525 
Q 1475 2600 1162 2525 
Q 850 2450 650 2175 
L 225 2225 
Q 275 2375 700 4375 
L 2675 4375 
L 2675 3925 
L 1075 3925 
Q 950 3250 825 2850 
Q 1200 3025 1525 3012 
Q 1850 3000 2150 2862 
Q 2450 2725 2587 2487 
Q 2725 2250 2787 2012 
Q 2850 1775 2837 1500 
Q 2825 1225 2725 937 
Q 2625 650 2425 462 
Q 2225 275 1937 162 
Q 1650 50 1275 75 
Q 900 100 562 350 
Q 225 600 100 1200 
L 550 1325 
z
" transform="scale(0.015625)"/>
       </defs>
       <use xlink:href="#SimHei-35"/>
      </g>
     </g>
    </g>
    <g id="xtick_7">
     <g id="line2d_13">
      <path d="M 438.992142 298.88875 
L 438.992142 24.13125 
" clip-path="url(#p8258299f0d)" style="fill: none; stroke: #b0b0b0; stroke-opacity: 0.22; stroke-width: 0.8; stroke-linecap: square"/>
     </g>
     <g id="line2d_14">
      <g>
       <use xlink:href="#m0137c98812" x="438.992142" y="298.88875" style="stroke: #000000; stroke-width: 0.8"/>
      </g>
     </g>
     <g id="text_7">
      <!-- 6 -->
      <g transform="translate(436.242142 313.45125) scale(0.11 -0.11)">
       <defs>
        <path id="SimHei-36" d="M 250 1612 
Q 275 1975 387 2225 
Q 500 2475 725 2850 
L 1750 4450 
L 2325 4450 
L 1275 2800 
Q 1950 2975 2350 2750 
Q 2750 2525 2887 2237 
Q 3025 1950 3037 1612 
Q 3050 1275 2937 950 
Q 2825 625 2537 362 
Q 2250 100 1737 75 
Q 1225 50 862 262 
Q 500 475 362 862 
Q 225 1250 250 1612 
z
M 1025 787 
Q 1250 550 1625 525 
Q 2000 500 2250 775 
Q 2500 1050 2500 1575 
Q 2500 2100 2187 2300 
Q 1875 2500 1487 2450 
Q 1100 2400 925 2075 
Q 750 1750 775 1387 
Q 800 1025 1025 787 
z
" transform="scale(0.015625)"/>
       </defs>
       <use xlink:href="#SimHei-36"/>
      </g>
     </g>
    </g>
    <g id="xtick_8">
     <g id="line2d_15">
      <path d="M 496.635479 298.88875 
L 496.635479 24.13125 
" clip-path="url(#p8258299f0d)" style="fill: none; stroke: #b0b0b0; stroke-opacity: 0.22; stroke-width: 0.8; stroke-linecap: square"/>
     </g>
     <g id="line2d_16">
      <g>
       <use xlink:href="#m0137c98812" x="496.635479" y="298.88875" style="stroke: #000000; stroke-width: 0.8"/>
      </g>
     </g>
     <g id="text_8">
      <!-- 7 -->
      <g transform="translate(493.885479 313.45125) scale(0.11 -0.11)">
       <defs>
        <path id="SimHei-37" d="M 850 150 
Q 1300 2050 2425 3925 
L 275 3925 
L 275 4375 
L 2950 4375 
L 2950 3950 
Q 1775 2050 1400 150 
L 850 150 
z
" transform="scale(0.015625)"/>
       </defs>
       <use xlink:href="#SimHei-37"/>
      </g>
     </g>
    </g>
    <g id="xtick_9">
     <g id="line2d_17">
      <path d="M 554.278816 298.88875 
L 554.278816 24.13125 
" clip-path="url(#p8258299f0d)" style="fill: none; stroke: #b0b0b0; stroke-opacity: 0.22; stroke-width: 0.8; stroke-linecap: square"/>
     </g>
     <g id="line2d_18">
      <g>
       <use xlink:href="#m0137c98812" x="554.278816" y="298.88875" style="stroke: #000000; stroke-width: 0.8"/>
      </g>
     </g>
     <g id="text_9">
      <!-- 8+ -->
      <g transform="translate(548.778816 313.45125) scale(0.11 -0.11)">
       <defs>
        <path id="SimHei-38" d="M 175 1375 
Q 175 1675 325 1962 
Q 475 2250 825 2425 
Q 525 2600 425 2812 
Q 325 3025 312 3300 
Q 300 3575 387 3775 
Q 475 3975 650 4150 
Q 825 4325 1037 4387 
Q 1250 4450 1500 4450 
Q 1750 4450 1950 4400 
Q 2150 4350 2375 4187 
Q 2600 4025 2700 3725 
Q 2800 3425 2687 3025 
Q 2575 2625 2100 2400 
Q 2525 2275 2700 2012 
Q 2875 1750 2875 1375 
Q 2875 1000 2762 775 
Q 2650 550 2512 400 
Q 2375 250 2137 162 
Q 1900 75 1537 75 
Q 1175 75 912 162 
Q 650 250 475 425 
Q 300 600 237 837 
Q 175 1075 175 1375 
z
M 687 1400 
Q 675 1100 787 875 
Q 900 650 1200 587 
Q 1500 525 1825 600 
Q 2150 675 2275 950 
Q 2400 1225 2362 1500 
Q 2325 1775 2050 1962 
Q 1775 2150 1450 2125 
Q 1125 2100 912 1900 
Q 700 1700 687 1400 
z
M 775 3350 
Q 775 3100 950 2875 
Q 1125 2650 1500 2650 
Q 1875 2650 2062 2875 
Q 2250 3100 2237 3412 
Q 2225 3725 2012 3875 
Q 1800 4025 1437 4000 
Q 1075 3975 925 3787 
Q 775 3600 775 3350 
z
" transform="scale(0.015625)"/>
        <path id="SimHei-2b" d="M 3000 2125 
L 1775 2125 
L 1775 900 
L 1350 900 
L 1350 2125 
L 125 2125 
L 125 2525 
L 1350 2525 
L 1350 3750 
L 1775 3750 
L 1775 2525 
L 3000 2525 
L 3000 2125 
z
" transform="scale(0.015625)"/>
       </defs>
       <use xlink:href="#SimHei-38"/>
       <use xlink:href="#SimHei-2b" transform="translate(50 0)"/>
      </g>
     </g>
    </g>
    <g id="text_10">
     <!-- 贷款笔数 -->
     <g transform="translate(301.705469 327.634844) scale(0.11 -0.11)">
      <defs>
       <path id="SimHei-8d37" d="M 2975 5125 
Q 3250 5150 3500 5200 
Q 3550 4900 3600 4662 
Q 3650 4425 3750 4100 
Q 4675 4250 5700 4475 
L 5800 4050 
Q 5500 4025 5037 3937 
Q 4575 3850 3950 3750 
Q 4300 3250 4675 3012 
Q 5050 2775 5225 2850 
Q 5400 2925 5500 3400 
Q 5700 3250 6050 3175 
Q 5875 2775 5637 2525 
Q 5400 2275 4887 2412 
Q 4375 2550 4000 2937 
Q 3625 3325 3425 3675 
Q 2900 3550 2075 3400 
L 1950 3800 
Q 2375 3850 3275 4025 
L 2975 5125 
z
M 5275 2300 
Q 5250 1925 5250 1500 
Q 5250 1100 5275 625 
L 4700 625 
L 4700 1900 
L 1750 1900 
L 1750 550 
L 1200 550 
Q 1225 1175 1225 1550 
Q 1225 1925 1200 2300 
L 5275 2300 
z
M 3525 1450 
Q 3375 1075 3275 762 
Q 3175 450 2887 175 
Q 2600 -100 2075 -312 
Q 1550 -525 650 -650 
Q 525 -375 325 -125 
Q 1000 -100 1437 -12 
Q 1875 75 2200 287 
Q 2525 500 2687 775 
Q 2850 1050 2900 1600 
Q 3175 1500 3525 1450 
z
M 2250 4875 
Q 2050 4775 1650 4275 
Q 1650 2900 1675 2525 
L 1150 2525 
Q 1175 2900 1175 3875 
Q 800 3475 600 3300 
Q 400 3525 225 3675 
Q 775 4000 1112 4375 
Q 1450 4750 1750 5250 
L 2250 4875 
z
M 3900 675 
Q 4425 450 5875 -225 
Q 5675 -450 5525 -650 
Q 4725 -200 3575 275 
Q 3750 500 3900 675 
z
M 4500 5250 
Q 4675 5075 5100 4675 
Q 4825 4500 4650 4375 
Q 4475 4650 4100 4950 
Q 4325 5075 4500 5250 
z
" transform="scale(0.015625)"/>
       <path id="SimHei-6b3e" d="M 4900 2700 
Q 4850 2500 4812 2237 
Q 4775 1975 4925 1462 
Q 5075 950 5450 512 
Q 5825 75 6200 -100 
Q 5900 -350 5800 -525 
Q 5275 -75 5025 300 
Q 4775 675 4625 1125 
Q 4475 650 4225 250 
Q 3975 -150 3425 -625 
Q 3225 -300 3100 -200 
Q 3400 0 3637 275 
Q 3875 550 4025 862 
Q 4175 1175 4237 1487 
Q 4300 1800 4312 2112 
Q 4325 2425 4325 2800 
Q 4675 2725 4900 2700 
z
M 1775 4500 
Q 1775 4850 1750 5175 
L 2250 5175 
Q 2225 4875 2225 4500 
L 2650 4500 
Q 3050 4500 3500 4525 
L 3500 4075 
Q 3050 4125 2650 4125 
L 2225 4125 
L 2225 3575 
L 2475 3575 
Q 2800 3575 3250 3600 
L 3250 3175 
Q 2800 3200 2475 3200 
L 1450 3200 
Q 1125 3200 625 3150 
L 625 3600 
Q 1100 3575 1450 3575 
L 1775 3575 
L 1775 4125 
L 1250 4125 
Q 925 4125 450 4075 
L 450 4525 
Q 925 4500 1225 4500 
L 1775 4500 
z
M 4250 3525 
Q 4050 3050 3750 2600 
Q 3500 2775 3300 2850 
Q 3600 3225 3762 3625 
Q 3925 4025 4037 4387 
Q 4150 4750 4200 5075 
Q 4475 4950 4750 4900 
Q 4550 4500 4375 3925 
L 6150 3925 
Q 6050 3550 5962 3262 
Q 5875 2975 5800 2700 
L 5300 2750 
Q 5450 3150 5550 3525 
L 4250 3525 
z
M 2650 1825 
Q 3050 1825 3425 1850 
L 3425 1400 
Q 3050 1450 2650 1450 
L 2225 1450 
L 2225 100 
Q 2225 -275 2037 -375 
Q 1850 -475 1375 -575 
Q 1325 -300 1125 -25 
Q 1625 -50 1687 25 
Q 1750 100 1750 225 
L 1750 1450 
L 1175 1450 
Q 825 1450 400 1400 
L 400 1850 
Q 850 1825 1200 1825 
L 2650 1825 
z
M 2450 2700 
Q 2775 2700 3200 2725 
L 3200 2275 
Q 2800 2325 2450 2325 
L 1400 2325 
Q 1050 2325 650 2275 
L 650 2725 
Q 1050 2700 1400 2700 
L 2450 2700 
z
M 1400 975 
Q 1275 775 1100 475 
Q 925 175 675 -150 
Q 550 25 275 150 
Q 450 350 625 625 
Q 800 900 925 1225 
Q 1175 1100 1400 975 
z
M 2900 1175 
Q 3000 1000 3125 800 
Q 3250 600 3400 325 
Q 3175 200 2975 50 
L 2750 500 
Q 2650 700 2475 925 
Q 2650 1025 2900 1175 
z
" transform="scale(0.015625)"/>
       <path id="SimHei-7b14" d="M 5475 2850 
Q 5175 2850 4625 2800 
L 3250 2675 
L 3250 2150 
Q 4875 2225 5500 2275 
L 5525 1800 
Q 5225 1800 4700 1775 
Q 4175 1750 3250 1700 
L 3250 1175 
Q 3650 1175 4362 1200 
Q 5075 1225 5900 1275 
L 5950 800 
Q 5550 800 4775 762 
Q 4000 725 3250 700 
L 3250 250 
Q 3250 -125 3650 -125 
L 5150 -125 
Q 5350 -125 5412 12 
Q 5475 150 5550 550 
Q 5825 325 6175 250 
Q 5925 -325 5787 -425 
Q 5650 -525 5375 -525 
L 3475 -525 
Q 2725 -525 2725 150 
L 2725 675 
Q 2125 650 1612 637 
Q 1100 625 325 575 
L 300 1075 
Q 825 1075 1525 1100 
Q 2225 1125 2725 1150 
L 2725 1675 
Q 2175 1650 1612 1625 
Q 1050 1600 650 1575 
L 625 2050 
Q 1900 2075 2725 2100 
L 2725 2650 
Q 2225 2625 1850 2612 
Q 1475 2600 950 2550 
Q 875 2825 775 3025 
Q 1700 3000 3037 3087 
Q 4375 3175 5125 3350 
Q 5225 3100 5475 2850 
z
M 1950 5050 
Q 1750 4850 1600 4625 
L 2475 4625 
Q 2950 4625 3275 4650 
L 3275 4200 
Q 2975 4225 2575 4225 
L 2375 4225 
Q 2525 3825 2750 3425 
Q 2450 3350 2200 3225 
Q 2100 3650 1925 4225 
L 1375 4225 
Q 1125 3750 700 3150 
Q 475 3400 250 3500 
Q 625 3875 887 4350 
Q 1150 4825 1325 5275 
Q 1625 5125 1950 5050 
z
M 3625 3300 
Q 3375 3450 3150 3525 
Q 3450 3850 3662 4337 
Q 3875 4825 3975 5250 
L 4575 5050 
Q 4400 4825 4300 4625 
L 5275 4625 
Q 5525 4625 6125 4650 
L 6125 4200 
Q 5625 4225 5175 4225 
Q 5375 3950 5575 3625 
Q 5325 3525 5075 3400 
Q 4950 3775 4675 4225 
L 4125 4225 
Q 3900 3750 3625 3300 
z
" transform="scale(0.015625)"/>
       <path id="SimHei-6570" d="M 4525 4925 
Q 4475 4800 4400 4587 
Q 4325 4375 4175 3825 
L 5325 3825 
Q 5575 3825 5925 3850 
L 5925 3400 
Q 5650 3425 5500 3425 
Q 5500 3025 5362 2162 
Q 5225 1300 4875 675 
Q 5125 375 5437 137 
Q 5750 -100 6025 -200 
Q 5725 -425 5625 -625 
Q 5325 -450 5075 -225 
Q 4825 0 4575 325 
Q 4300 25 3987 -187 
Q 3675 -400 3200 -650 
Q 3075 -425 2850 -300 
Q 3225 -150 3650 125 
Q 4075 400 4300 675 
Q 4125 1025 3962 1425 
Q 3800 1825 3675 2475 
Q 3600 2275 3425 1950 
Q 3250 2050 3000 2150 
Q 3400 2850 3650 3675 
Q 3900 4500 3975 5100 
Q 4275 4975 4525 4925 
z
M 2100 2250 
Q 2000 2150 1875 1925 
L 3250 1925 
Q 3100 1300 2725 675 
Q 3125 525 3350 400 
Q 3225 225 3125 25 
Q 2900 175 2450 325 
Q 1950 -225 725 -650 
Q 600 -375 400 -275 
Q 1575 0 2000 475 
Q 1300 650 850 775 
Q 1000 1000 1250 1525 
Q 1000 1525 425 1500 
L 425 1950 
Q 900 1925 1400 1925 
Q 1500 2150 1550 2425 
Q 1825 2325 2100 2250 
z
M 1775 3950 
Q 1775 4550 1750 5100 
L 2250 5100 
Q 2225 4575 2225 3950 
Q 3075 3950 3425 3975 
L 3425 3525 
Q 3075 3550 2225 3550 
Q 2225 2825 2250 2425 
L 1750 2425 
Q 1775 2775 1775 3300 
Q 1650 3100 1300 2787 
Q 950 2475 650 2300 
Q 525 2525 275 2625 
Q 500 2700 875 2975 
Q 1250 3250 1450 3550 
Q 950 3550 500 3525 
L 500 3975 
Q 925 3950 1775 3950 
z
M 3975 3175 
Q 4200 1700 4600 1125 
Q 4850 1700 4937 2287 
Q 5025 2875 5050 3425 
L 4075 3425 
L 3975 3175 
z
M 1450 1000 
Q 1750 925 2275 800 
Q 2475 1050 2650 1525 
L 1725 1525 
Q 1600 1275 1450 1000 
z
M 3325 4825 
Q 3200 4625 3125 4450 
Q 3050 4275 2925 4025 
Q 2725 4125 2525 4175 
Q 2725 4500 2900 5000 
Q 3150 4875 3325 4825 
z
M 2575 3375 
Q 2900 3050 3200 2725 
Q 3050 2600 2875 2425 
Q 2525 2850 2300 3100 
Q 2450 3225 2575 3375 
z
M 925 5000 
Q 1275 4650 1500 4300 
L 1125 4075 
Q 950 4425 600 4725 
Q 825 4875 925 5000 
z
" transform="scale(0.015625)"/>
      </defs>
      <use xlink:href="#SimHei-8d37"/>
      <use xlink:href="#SimHei-6b3e" transform="translate(100 0)"/>
      <use xlink:href="#SimHei-7b14" transform="translate(200 0)"/>
      <use xlink:href="#SimHei-6570" transform="translate(300 0)"/>
     </g>
    </g>
   </g>
   <g id="matplotlib.axis_2">
    <g id="ytick_1">
     <g id="line2d_19">
      <path d="M 44.711719 298.88875 
L 602.699219 298.88875 
" clip-path="url(#p8258299f0d)" style="fill: none; stroke: #b0b0b0; stroke-opacity: 0.22; stroke-width: 0.8; stroke-linecap: square"/>
     </g>
     <g id="line2d_20">
      <defs>
       <path id="m9756f72e43" d="M 0 0 
L -3.5 0 
" style="stroke: #000000; stroke-width: 0.8"/>
      </defs>
      <g>
       <use xlink:href="#m9756f72e43" x="44.711719" y="298.88875" style="stroke: #000000; stroke-width: 0.8"/>
      </g>
     </g>
     <g id="text_11">
      <!-- 0.0 -->
      <g transform="translate(21.211719 302.67) scale(0.11 -0.11)">
       <defs>
        <path id="SimHei-2e" d="M 1075 125 
L 500 125 
L 500 675 
L 1075 675 
L 1075 125 
z
" transform="scale(0.015625)"/>
       </defs>
       <use xlink:href="#SimHei-30"/>
       <use xlink:href="#SimHei-2e" transform="translate(50 0)"/>
       <use xlink:href="#SimHei-30" transform="translate(100 0)"/>
      </g>
     </g>
    </g>
    <g id="ytick_2">
     <g id="line2d_21">
      <path d="M 44.711719 252.900383 
L 602.699219 252.900383 
" clip-path="url(#p8258299f0d)" style="fill: none; stroke: #b0b0b0; stroke-opacity: 0.22; stroke-width: 0.8; stroke-linecap: square"/>
     </g>
     <g id="line2d_22">
      <g>
       <use xlink:href="#m9756f72e43" x="44.711719" y="252.900383" style="stroke: #000000; stroke-width: 0.8"/>
      </g>
     </g>
     <g id="text_12">
      <!-- 0.1 -->
      <g transform="translate(21.211719 256.681633) scale(0.11 -0.11)">
       <use xlink:href="#SimHei-30"/>
       <use xlink:href="#SimHei-2e" transform="translate(50 0)"/>
       <use xlink:href="#SimHei-31" transform="translate(100 0)"/>
      </g>
     </g>
    </g>
    <g id="ytick_3">
     <g id="line2d_23">
      <path d="M 44.711719 206.912016 
L 602.699219 206.912016 
" clip-path="url(#p8258299f0d)" style="fill: none; stroke: #b0b0b0; stroke-opacity: 0.22; stroke-width: 0.8; stroke-linecap: square"/>
     </g>
     <g id="line2d_24">
      <g>
       <use xlink:href="#m9756f72e43" x="44.711719" y="206.912016" style="stroke: #000000; stroke-width: 0.8"/>
      </g>
     </g>
     <g id="text_13">
      <!-- 0.2 -->
      <g transform="translate(21.211719 210.693266) scale(0.11 -0.11)">
       <use xlink:href="#SimHei-30"/>
       <use xlink:href="#SimHei-2e" transform="translate(50 0)"/>
       <use xlink:href="#SimHei-32" transform="translate(100 0)"/>
      </g>
     </g>
    </g>
    <g id="ytick_4">
     <g id="line2d_25">
      <path d="M 44.711719 160.923648 
L 602.699219 160.923648 
" clip-path="url(#p8258299f0d)" style="fill: none; stroke: #b0b0b0; stroke-opacity: 0.22; stroke-width: 0.8; stroke-linecap: square"/>
     </g>
     <g id="line2d_26">
      <g>
       <use xlink:href="#m9756f72e43" x="44.711719" y="160.923648" style="stroke: #000000; stroke-width: 0.8"/>
      </g>
     </g>
     <g id="text_14">
      <!-- 0.3 -->
      <g transform="translate(21.211719 164.704898) scale(0.11 -0.11)">
       <use xlink:href="#SimHei-30"/>
       <use xlink:href="#SimHei-2e" transform="translate(50 0)"/>
       <use xlink:href="#SimHei-33" transform="translate(100 0)"/>
      </g>
     </g>
    </g>
    <g id="ytick_5">
     <g id="line2d_27">
      <path d="M 44.711719 114.935281 
L 602.699219 114.935281 
" clip-path="url(#p8258299f0d)" style="fill: none; stroke: #b0b0b0; stroke-opacity: 0.22; stroke-width: 0.8; stroke-linecap: square"/>
     </g>
     <g id="line2d_28">
      <g>
       <use xlink:href="#m9756f72e43" x="44.711719" y="114.935281" style="stroke: #000000; stroke-width: 0.8"/>
      </g>
     </g>
     <g id="text_15">
      <!-- 0.4 -->
      <g transform="translate(21.211719 118.716531) scale(0.11 -0.11)">
       <use xlink:href="#SimHei-30"/>
       <use xlink:href="#SimHei-2e" transform="translate(50 0)"/>
       <use xlink:href="#SimHei-34" transform="translate(100 0)"/>
      </g>
     </g>
    </g>
    <g id="ytick_6">
     <g id="line2d_29">
      <path d="M 44.711719 68.946914 
L 602.699219 68.946914 
" clip-path="url(#p8258299f0d)" style="fill: none; stroke: #b0b0b0; stroke-opacity: 0.22; stroke-width: 0.8; stroke-linecap: square"/>
     </g>
     <g id="line2d_30">
      <g>
       <use xlink:href="#m9756f72e43" x="44.711719" y="68.946914" style="stroke: #000000; stroke-width: 0.8"/>
      </g>
     </g>
     <g id="text_16">
      <!-- 0.5 -->
      <g transform="translate(21.211719 72.728164) scale(0.11 -0.11)">
       <use xlink:href="#SimHei-30"/>
       <use xlink:href="#SimHei-2e" transform="translate(50 0)"/>
       <use xlink:href="#SimHei-35" transform="translate(100 0)"/>
      </g>
     </g>
    </g>
    <g id="text_17">
     <!-- 样本占比 -->
     <g transform="translate(15.836719 183.51) rotate(-90) scale(0.11 -0.11)">
      <defs>
       <path id="SimHei-6837" d="M 4350 4025 
Q 4600 4575 4850 5225 
Q 5250 5075 5375 5000 
Q 5150 4725 4850 4025 
L 4950 4025 
Q 5650 4050 5950 4050 
L 5950 3600 
Q 5675 3625 5175 3625 
L 4550 3625 
L 4550 2650 
L 4950 2650 
Q 5525 2675 5800 2675 
L 5800 2225 
Q 5475 2250 5025 2250 
L 4550 2250 
L 4550 1225 
L 5325 1225 
Q 5800 1250 6100 1250 
L 6100 800 
Q 5825 825 5325 825 
L 4550 825 
L 4550 275 
Q 4550 -250 4575 -600 
L 4075 -600 
L 4075 825 
L 3475 825 
Q 3000 825 2550 800 
L 2550 1275 
Q 3000 1250 3500 1225 
L 4075 1225 
L 4075 2250 
L 3650 2250 
Q 3225 2250 2900 2225 
L 2900 2700 
Q 3200 2675 3675 2650 
L 4075 2650 
L 4075 3625 
L 3475 3625 
Q 3050 3625 2750 3600 
L 2750 4075 
Q 3050 4050 3475 4025 
L 4350 4025 
z
M 1325 4350 
Q 1325 4775 1300 5125 
L 1825 5125 
Q 1800 4725 1800 4350 
L 1800 3750 
Q 2125 3750 2475 3775 
L 2475 3325 
Q 2125 3350 1800 3350 
L 1800 2425 
Q 2000 2600 2100 2675 
Q 2375 2325 2725 1775 
Q 2575 1700 2300 1475 
Q 2025 1975 1800 2350 
L 1800 475 
Q 1800 -50 1825 -575 
L 1300 -575 
Q 1325 -25 1325 475 
L 1325 2250 
Q 925 1300 525 725 
Q 425 950 225 1175 
Q 950 2150 1225 3350 
Q 825 3350 350 3325 
L 350 3775 
Q 825 3750 1325 3750 
L 1325 4350 
z
M 3575 5200 
Q 3800 4775 3950 4350 
Q 3650 4250 3525 4175 
Q 3350 4600 3150 5000 
Q 3425 5125 3575 5200 
z
" transform="scale(0.015625)"/>
       <path id="SimHei-672c" d="M 2950 3925 
L 2950 4425 
Q 2950 4825 2925 5175 
L 3475 5175 
Q 3450 4900 3450 4450 
L 3450 3925 
L 4850 3925 
Q 5275 3925 5850 3950 
L 5850 3475 
Q 5300 3500 4875 3500 
L 3850 3500 
Q 4200 2350 4862 1687 
Q 5525 1025 6075 800 
Q 5850 625 5650 325 
Q 4800 900 4262 1637 
Q 3725 2375 3450 3350 
L 3450 1000 
L 3775 1000 
Q 4175 1000 4600 1025 
L 4600 550 
Q 4175 575 3750 575 
L 3450 575 
Q 3450 0 3475 -600 
L 2925 -600 
Q 2950 0 2950 575 
L 2625 575 
Q 2225 575 1825 550 
L 1825 1025 
Q 2225 1000 2625 1000 
L 2950 1000 
L 2950 3300 
Q 2550 2275 2062 1575 
Q 1575 875 750 175 
Q 550 450 275 575 
Q 1100 1075 1650 1825 
Q 2200 2575 2525 3500 
L 1425 3500 
Q 1025 3500 575 3475 
L 575 3950 
Q 1025 3925 1400 3925 
L 2950 3925 
z
" transform="scale(0.015625)"/>
       <path id="SimHei-5360" d="M 2725 4400 
Q 2725 4800 2700 5075 
L 3375 5075 
Q 3350 4775 3350 4400 
L 3350 4000 
L 5250 4000 
Q 5900 4000 6150 4025 
L 6150 3525 
Q 5900 3550 5300 3550 
L 3350 3550 
L 3350 2325 
L 5450 2325 
Q 5400 2000 5400 1525 
L 5400 325 
Q 5400 -250 5450 -550 
L 4850 -550 
L 4850 -25 
L 1475 -25 
L 1475 -550 
L 875 -550 
Q 900 -150 900 175 
L 900 1550 
Q 900 2000 875 2325 
L 2725 2325 
L 2725 4400 
z
M 4850 425 
L 4850 1875 
L 1475 1875 
L 1475 425 
L 4850 425 
z
" transform="scale(0.015625)"/>
       <path id="SimHei-6bd4" d="M 3775 5100 
Q 3750 4575 3750 4100 
L 3750 3050 
Q 4925 3600 5475 4175 
Q 5675 3900 5900 3675 
Q 5600 3500 5037 3187 
Q 4475 2875 3750 2550 
L 3750 450 
Q 3750 100 4050 100 
L 5000 100 
Q 5175 100 5262 250 
Q 5350 400 5450 900 
Q 5650 775 6025 675 
Q 5850 0 5650 -175 
Q 5450 -350 5225 -350 
L 3900 -350 
Q 3250 -350 3250 275 
L 3250 4000 
Q 3250 4550 3225 5100 
L 3775 5100 
z
M 1275 4975 
Q 1250 4575 1250 4000 
L 1250 3150 
L 1850 3150 
Q 2325 3150 2875 3175 
L 2875 2650 
Q 2325 2675 1850 2675 
L 1250 2675 
L 1250 475 
Q 1650 650 1962 812 
Q 2275 975 2850 1275 
Q 2900 950 2950 750 
Q 2375 475 1762 175 
Q 1150 -125 925 -325 
Q 750 -100 575 200 
Q 700 300 750 600 
L 750 3950 
Q 750 4550 725 4975 
L 1275 4975 
z
" transform="scale(0.015625)"/>
      </defs>
      <use xlink:href="#SimHei-6837"/>
      <use xlink:href="#SimHei-672c" transform="translate(100 0)"/>
      <use xlink:href="#SimHei-5360" transform="translate(200 0)"/>
      <use xlink:href="#SimHei-6bd4" transform="translate(300 0)"/>
     </g>
    </g>
   </g>
   <g id="patch_12">
    <path d="M 44.711719 298.88875 
L 44.711719 24.13125 
" style="fill: none; stroke: #000000; stroke-width: 0.8; stroke-linejoin: miter; stroke-linecap: square"/>
   </g>
   <g id="patch_13">
    <path d="M 44.711719 298.88875 
L 602.699219 298.88875 
" style="fill: none; stroke: #000000; stroke-width: 0.8; stroke-linejoin: miter; stroke-linecap: square"/>
   </g>
   <g id="text_18">
    <!-- 第一阶段产生的 0 -->
    <g transform="translate(53.132122 30.316685) scale(0.1 -0.1)">
     <defs>
      <path id="SimHei-7b2c" d="M 4475 -350 
Q 4450 -125 4250 200 
Q 4900 175 5087 262 
Q 5275 350 5275 1000 
L 3475 1000 
L 3475 175 
Q 3475 -50 3500 -675 
L 2975 -675 
Q 3000 -25 3000 175 
L 3000 775 
Q 2625 400 2037 50 
Q 1450 -300 700 -600 
Q 600 -350 325 -150 
Q 900 -25 1600 312 
Q 2300 650 2625 1000 
L 875 1000 
Q 975 1750 1000 2450 
L 3000 2450 
L 3000 3100 
L 1975 3100 
Q 1525 3100 975 3075 
L 975 3525 
Q 1525 3500 1825 3500 
L 5400 3500 
Q 5375 3050 5375 2725 
Q 5375 2400 5400 2050 
L 3475 2050 
L 3475 1400 
L 5800 1400 
Q 5725 525 5662 225 
Q 5600 -75 5275 -187 
Q 4950 -300 4475 -350 
z
M 2050 5025 
Q 1775 4800 1650 4625 
L 2500 4625 
Q 3025 4625 3325 4650 
L 3325 4225 
L 2325 4225 
Q 2475 4000 2625 3725 
Q 2400 3650 2200 3550 
Q 2050 3900 1825 4225 
L 1425 4225 
Q 1150 3825 725 3350 
Q 500 3500 250 3600 
Q 700 3975 975 4375 
Q 1250 4775 1450 5275 
Q 1825 5075 2050 5025 
z
M 3600 3550 
Q 3350 3650 3125 3750 
Q 3375 3975 3600 4387 
Q 3825 4800 3950 5200 
Q 4225 5075 4525 4975 
Q 4400 4875 4275 4650 
L 5250 4650 
Q 5425 4650 6000 4675 
L 6000 4225 
Q 5625 4250 5000 4250 
Q 5175 4000 5350 3725 
Q 5075 3650 4900 3550 
Q 4725 3900 4475 4250 
L 4075 4250 
Q 3850 3850 3600 3550 
z
M 3000 1400 
L 3000 2050 
L 1475 2050 
Q 1425 1750 1400 1400 
L 3000 1400 
z
M 4900 2450 
L 4900 3100 
L 3475 3100 
L 3475 2450 
L 4900 2450 
z
" transform="scale(0.015625)"/>
      <path id="SimHei-4e00" d="M 4875 2675 
Q 5525 2675 6050 2700 
L 6050 2050 
Q 5525 2075 4900 2075 
L 1600 2075 
Q 950 2075 350 2050 
L 350 2700 
Q 950 2675 1600 2675 
L 4875 2675 
z
" transform="scale(0.015625)"/>
      <path id="SimHei-9636" d="M 2450 4850 
Q 2350 4575 2175 3962 
Q 2000 3350 1825 2800 
Q 2225 2225 2312 1912 
Q 2400 1600 2375 1250 
Q 2350 900 2137 725 
Q 1925 550 1400 475 
Q 1300 925 1200 1075 
Q 1725 1025 1837 1225 
Q 1950 1425 1875 1775 
Q 1800 2125 1350 2725 
Q 1700 3825 1825 4400 
L 975 4400 
L 975 -500 
L 500 -500 
Q 525 175 525 675 
L 525 3650 
Q 525 4225 500 4850 
L 2450 4850 
z
M 4250 4825 
Q 4600 4100 5187 3637 
Q 5775 3175 6200 3025 
Q 5950 2775 5800 2500 
Q 4975 3075 4600 3512 
Q 4225 3950 4025 4400 
Q 3850 4025 3512 3487 
Q 3175 2950 2625 2350 
Q 2425 2575 2175 2700 
Q 2700 3075 3150 3787 
Q 3600 4500 3850 5275 
Q 4050 5150 4375 5075 
Q 4275 4900 4250 4825 
z
M 3750 2700 
Q 3650 2325 3575 1512 
Q 3500 700 3250 225 
Q 3000 -250 2650 -575 
Q 2425 -400 2175 -300 
Q 2550 -25 2762 337 
Q 2975 700 3087 1200 
Q 3200 1700 3200 2800 
Q 3350 2725 3750 2700 
z
M 5025 2775 
Q 4975 2425 4975 2025 
L 4975 350 
Q 4975 100 5000 -525 
L 4475 -525 
Q 4500 150 4500 375 
L 4500 2025 
Q 4500 2375 4475 2775 
L 5025 2775 
z
" transform="scale(0.015625)"/>
      <path id="SimHei-6bb5" d="M 5500 2475 
Q 5350 1775 5100 1237 
Q 4850 700 4600 400 
Q 4825 225 5250 87 
Q 5675 -50 6125 -125 
Q 5950 -275 5825 -650 
Q 5150 -450 4825 -287 
Q 4500 -125 4225 75 
Q 3825 -175 3450 -337 
Q 3075 -500 2625 -650 
Q 2525 -400 2325 -225 
Q 2675 -150 3100 0 
Q 3525 150 3925 425 
Q 3725 675 3525 1150 
Q 3325 1600 3225 2075 
Q 3050 2075 2900 2075 
L 2900 2500 
Q 3375 2475 3800 2475 
L 5500 2475 
z
M 2650 4625 
Q 2300 4550 1887 4475 
Q 1475 4400 1300 4375 
L 1300 3550 
Q 2050 3550 2525 3600 
L 2525 3125 
Q 2050 3150 1300 3150 
L 1300 2350 
Q 2050 2350 2525 2375 
L 2525 1900 
Q 2050 1925 1300 1925 
L 1300 975 
Q 1950 1075 2625 1250 
Q 2600 1000 2600 775 
Q 1900 675 1300 525 
L 1300 100 
Q 1300 -200 1325 -625 
L 800 -625 
Q 825 -200 825 100 
L 825 425 
Q 575 375 350 300 
Q 300 650 250 825 
Q 500 850 825 900 
L 825 3800 
Q 825 4225 800 4725 
Q 1100 4725 1575 4825 
Q 2050 4925 2375 5125 
Q 2475 4850 2650 4625 
z
M 5100 4975 
Q 5075 4600 5075 4275 
L 5075 3650 
Q 5075 3425 5237 3387 
Q 5400 3350 5975 3400 
Q 5875 3225 5850 2950 
L 5075 2950 
Q 4650 2950 4625 3375 
L 4625 4575 
L 3775 4575 
Q 3775 3925 3675 3525 
Q 3575 3125 3200 2725 
Q 3025 2900 2800 3050 
Q 3275 3400 3300 3937 
Q 3325 4475 3300 4975 
L 5100 4975 
z
M 3675 2100 
Q 3775 1675 3962 1287 
Q 4150 900 4275 775 
Q 4450 950 4625 1312 
Q 4800 1675 4900 2100 
L 3800 2100 
L 3675 2100 
z
" transform="scale(0.015625)"/>
      <path id="SimHei-4ea7" d="M 5050 3700 
Q 4925 3550 4762 3262 
Q 4600 2975 4475 2725 
L 5250 2725 
Q 5775 2725 5950 2750 
L 5950 2250 
Q 5750 2275 5300 2275 
L 1525 2275 
Q 1525 300 575 -625 
Q 475 -425 200 -250 
Q 850 475 950 1262 
Q 1050 2050 1000 2725 
L 3950 2725 
Q 4275 3400 4425 3975 
Q 4750 3825 5050 3700 
z
M 3500 5275 
Q 3550 5100 3700 4475 
L 4950 4475 
Q 5400 4475 5800 4500 
L 5800 4025 
Q 5400 4050 5025 4050 
L 2000 4050 
Q 1625 4050 1050 4025 
L 1050 4500 
Q 1650 4475 1825 4475 
L 3125 4475 
Q 3050 4800 2925 5150 
Q 3225 5225 3500 5275 
z
M 2375 3950 
Q 2675 3550 2950 3025 
Q 2700 2925 2425 2775 
Q 2200 3300 1900 3675 
Q 2150 3825 2375 3950 
z
" transform="scale(0.015625)"/>
      <path id="SimHei-751f" d="M 1875 4650 
Q 1725 4475 1625 4212 
Q 1525 3950 1425 3700 
L 2925 3700 
L 2925 4575 
Q 2925 4900 2900 5200 
L 3475 5200 
Q 3450 4925 3450 4575 
L 3450 3700 
L 4550 3700 
Q 4950 3700 5450 3725 
L 5450 3225 
Q 4975 3250 4550 3250 
L 3450 3250 
L 3450 2125 
L 4225 2125 
Q 4575 2125 5075 2150 
L 5075 1650 
Q 4600 1675 4225 1675 
L 3450 1675 
L 3450 175 
L 4950 175 
Q 5350 175 5875 200 
L 5875 -275 
Q 5375 -250 4950 -250 
L 1350 -250 
Q 925 -250 475 -275 
L 475 200 
Q 950 175 1350 175 
L 2925 175 
L 2925 1675 
L 2000 1675 
Q 1650 1675 1275 1650 
L 1275 2150 
Q 1650 2125 2000 2125 
L 2925 2125 
L 2925 3250 
L 1250 3250 
Q 1025 2725 800 2350 
Q 525 2475 200 2525 
Q 475 2825 787 3487 
Q 1100 4150 1225 4900 
L 1875 4650 
z
" transform="scale(0.015625)"/>
      <path id="SimHei-7684" d="M 2100 4975 
Q 1975 4750 1750 3950 
L 2875 3950 
Q 2850 3525 2850 2875 
L 2850 675 
Q 2850 300 2875 -400 
L 2375 -400 
L 2375 100 
L 1100 100 
L 1100 -450 
L 600 -450 
Q 625 350 625 550 
L 625 2850 
Q 625 3525 600 3950 
L 1325 3950 
Q 1450 4525 1525 5150 
Q 1875 5025 2100 4975 
z
M 5825 3075 
Q 5800 1550 5700 175 
Q 5650 -275 5225 -425 
Q 4800 -575 4275 -625 
Q 4250 -350 4050 -50 
Q 4550 -75 4837 -25 
Q 5125 25 5200 200 
Q 5275 375 5312 1225 
Q 5350 2075 5375 3600 
L 3925 3600 
Q 3725 3125 3350 2475 
Q 3175 2650 2925 2750 
Q 3150 3050 3350 3475 
Q 3550 3900 3700 4400 
Q 3850 4900 3875 5175 
Q 4225 5025 4475 4950 
Q 4350 4750 4262 4512 
Q 4175 4275 4075 4050 
L 5850 4050 
Q 5825 3525 5825 3075 
z
M 2375 525 
L 2375 1850 
L 1100 1850 
L 1100 525 
L 2375 525 
z
M 2375 2275 
L 2375 3525 
L 1100 3525 
L 1100 2275 
L 2375 2275 
z
M 4350 2050 
Q 4500 1750 4700 1275 
Q 4525 1200 4225 1025 
Q 4050 1500 3900 1837 
Q 3750 2175 3600 2400 
Q 3775 2500 4050 2650 
L 4350 2050 
z
" transform="scale(0.015625)"/>
      <path id="SimHei-20" transform="scale(0.015625)"/>
     </defs>
     <use xlink:href="#SimHei-7b2c"/>
     <use xlink:href="#SimHei-4e00" transform="translate(100 0)"/>
     <use xlink:href="#SimHei-9636" transform="translate(200 0)"/>
     <use xlink:href="#SimHei-6bb5" transform="translate(300 0)"/>
     <use xlink:href="#SimHei-4ea7" transform="translate(400 0)"/>
     <use xlink:href="#SimHei-751f" transform="translate(500 0)"/>
     <use xlink:href="#SimHei-7684" transform="translate(600 0)"/>
     <use xlink:href="#SimHei-20" transform="translate(700 0)"/>
     <use xlink:href="#SimHei-30" transform="translate(750 0)"/>
    </g>
   </g>
   <g id="text_19">
    <!-- 跨过门槛后，正计数从 1 开始 -->
    <g transform="translate(227.3838 246.002128) scale(0.1 -0.1)">
     <defs>
      <path id="SimHei-8de8" d="M 2625 425 
Q 1325 50 1037 -62 
Q 750 -175 425 -325 
Q 350 -100 225 175 
Q 425 200 650 250 
Q 650 2050 625 2375 
L 1100 2375 
Q 1075 1900 1075 375 
Q 1300 425 1475 475 
L 1475 3050 
L 600 3050 
Q 625 3325 625 3925 
Q 625 4525 600 4775 
L 2500 4775 
Q 2475 4525 2475 3925 
Q 2475 3325 2500 3050 
L 1925 3050 
L 1925 2150 
Q 2225 2150 2525 2175 
L 2525 1725 
Q 2150 1775 1925 1775 
L 1925 600 
Q 2125 700 2600 850 
Q 2575 625 2625 425 
z
M 3400 2950 
Q 3200 2675 2775 2400 
Q 2700 2575 2425 2800 
Q 2825 3025 3150 3325 
Q 3475 3625 3750 4150 
Q 2950 4150 2675 4125 
L 2675 4550 
Q 2975 4525 3850 4525 
Q 3975 4925 4000 5300 
Q 4350 5175 4625 5100 
Q 4500 4950 4450 4812 
Q 4400 4675 4325 4525 
Q 5775 4525 6075 4550 
L 6075 4125 
Q 5750 4150 4825 4150 
Q 5050 3550 5412 3312 
Q 5775 3075 6200 3000 
Q 5975 2725 5950 2475 
Q 5500 2625 5150 2925 
L 5150 2650 
Q 4900 2675 4225 2675 
Q 3575 2675 3400 2650 
L 3400 2950 
z
M 5650 1125 
Q 5550 175 5475 -112 
Q 5400 -400 5137 -525 
Q 4875 -650 4400 -675 
Q 4375 -375 4225 -100 
Q 4775 -125 4912 -37 
Q 5050 50 5100 725 
L 3275 725 
Q 3425 1375 3500 1675 
Q 3025 1675 2775 1650 
L 2775 2100 
Q 3075 2075 3525 2075 
L 5300 2075 
Q 5750 2075 6050 2100 
L 6050 1650 
Q 5775 1675 5300 1675 
L 3975 1675 
Q 3900 1275 3850 1125 
L 5650 1125 
z
M 2050 3425 
L 2050 4400 
L 1075 4400 
L 1075 3425 
L 2050 3425 
z
M 5000 3125 
Q 4625 3450 4425 4150 
L 4225 4150 
Q 3950 3550 3550 3125 
Q 3700 3100 4250 3100 
Q 4825 3100 5000 3125 
z
" transform="scale(0.015625)"/>
      <path id="SimHei-8fc7" d="M 250 -200 
Q 1025 475 1275 650 
L 1275 2475 
Q 675 2475 400 2450 
L 400 2950 
Q 625 2900 1325 2900 
L 1800 2900 
Q 1775 2525 1775 2150 
L 1775 600 
Q 2500 -25 3912 -37 
Q 5325 -50 6150 75 
Q 6000 -175 5925 -550 
L 4425 -550 
Q 3800 -550 3275 -512 
Q 2750 -475 2387 -300 
Q 2025 -125 1750 75 
Q 1475 275 1237 37 
Q 1000 -200 700 -625 
Q 550 -375 250 -200 
z
M 3625 850 
Q 4200 825 4350 875 
Q 4500 925 4500 1300 
L 4500 3575 
L 2875 3575 
Q 2600 3575 2275 3550 
L 2275 4025 
Q 2600 4000 3075 4000 
L 4500 4000 
Q 4500 4650 4450 5125 
L 5025 5125 
Q 5000 4800 5000 4000 
Q 5525 4000 5950 4025 
L 5950 3550 
Q 5550 3575 5000 3575 
L 5000 1100 
Q 5000 525 4662 412 
Q 4325 300 3825 275 
Q 3775 550 3625 850 
z
M 3125 1600 
Q 2900 2275 2575 2850 
Q 2800 2950 3050 3125 
Q 3500 2225 3625 1875 
Q 3450 1775 3125 1600 
z
M 1150 4975 
Q 1400 4675 1925 3875 
Q 1675 3725 1450 3550 
Q 950 4400 700 4625 
Q 925 4750 1150 4975 
z
" transform="scale(0.015625)"/>
      <path id="SimHei-95e8" d="M 5800 4825 
Q 5775 4325 5775 3850 
L 5775 375 
Q 5775 -225 5450 -325 
Q 5125 -425 4675 -475 
Q 4625 -200 4450 100 
Q 4950 100 5100 162 
Q 5250 225 5250 475 
L 5250 4400 
L 3775 4400 
Q 3175 4400 2700 4325 
L 2700 4850 
Q 3575 4825 3775 4825 
L 5800 4825 
z
M 1175 3875 
Q 1150 3500 1150 3200 
L 1150 -450 
L 600 -450 
Q 625 25 625 450 
L 625 3075 
Q 625 3500 600 3875 
L 1175 3875 
z
M 1525 5300 
Q 1825 4825 2150 4375 
Q 1925 4225 1650 4075 
Q 1350 4550 1025 5000 
Q 1300 5150 1525 5300 
z
" transform="scale(0.015625)"/>
      <path id="SimHei-69db" d="M 5775 1875 
Q 5750 1575 5750 1175 
L 5750 75 
Q 5950 75 6125 100 
L 6125 -350 
Q 5750 -325 5475 -325 
L 2850 -325 
Q 2400 -325 2050 -350 
L 2050 100 
Q 2325 75 2500 75 
L 2500 1175 
Q 2500 1600 2475 1875 
L 5775 1875 
z
M 1650 2450 
Q 1800 2525 1950 2675 
L 2200 2325 
Q 2325 2150 2475 1925 
Q 2250 1775 2075 1625 
Q 1975 1825 1875 1975 
Q 1775 2125 1650 2300 
L 1650 200 
Q 1650 -175 1675 -600 
L 1200 -600 
Q 1225 -250 1225 200 
L 1225 2300 
Q 1150 2075 962 1700 
Q 775 1325 550 975 
Q 350 1200 175 1350 
Q 500 1750 800 2387 
Q 1100 3025 1150 3375 
L 825 3375 
Q 700 3375 450 3350 
L 450 3825 
Q 775 3800 900 3800 
L 1225 3800 
L 1225 4475 
Q 1225 4850 1200 5150 
L 1700 5150 
Q 1650 4850 1650 4475 
L 1650 3800 
L 1925 3800 
Q 2050 3800 2275 3825 
L 2275 3375 
Q 2025 3400 1900 3400 
L 1650 3400 
L 1650 2450 
z
M 5300 4950 
Q 5150 4675 5062 4462 
Q 4975 4250 4925 4150 
L 5450 4150 
Q 5700 4150 6025 4175 
L 6025 3725 
Q 5725 3750 5450 3750 
L 4775 3750 
Q 4650 3475 4550 3287 
Q 4450 3100 4325 2925 
Q 4150 3100 3875 3200 
Q 4175 3550 4412 4112 
Q 4650 4675 4725 5125 
Q 4950 5025 5300 4950 
z
M 3875 5050 
Q 3850 4850 3850 4400 
L 3850 2950 
Q 3850 2525 3875 2225 
L 3400 2225 
Q 3425 2500 3425 2950 
L 3425 4425 
Q 3425 4800 3400 5050 
L 3875 5050 
z
M 2975 4775 
Q 2925 4500 2925 4075 
L 2925 3150 
Q 2925 2775 2950 2475 
L 2475 2475 
Q 2500 2775 2500 3225 
L 2500 4075 
Q 2500 4500 2475 4775 
L 2975 4775 
z
M 3475 75 
L 3475 1475 
L 2925 1475 
L 2925 75 
L 3475 75 
z
M 5325 75 
L 5325 1475 
L 4800 1475 
L 4800 75 
L 5325 75 
z
M 4375 75 
L 4375 1475 
L 3900 1475 
L 3900 75 
L 4375 75 
z
M 5150 3475 
Q 5250 3325 5412 3037 
Q 5575 2750 5700 2550 
Q 5475 2475 5225 2300 
L 5050 2650 
Q 4950 2850 4700 3200 
Q 4900 3325 5150 3475 
z
" transform="scale(0.015625)"/>
      <path id="SimHei-540e" d="M 5475 2150 
Q 5450 1750 5450 775 
Q 5450 -175 5500 -550 
L 4975 -550 
L 4975 -25 
L 2525 -25 
L 2525 -600 
L 2025 -600 
Q 2050 -175 2050 775 
Q 2050 1750 2025 2150 
L 5475 2150 
z
M 5175 5075 
Q 5300 4800 5525 4525 
Q 4950 4475 3750 4337 
Q 2550 4200 1575 4175 
L 1575 3375 
L 5200 3375 
Q 5550 3375 5975 3400 
L 5975 2900 
Q 5575 2925 5200 2925 
L 1575 2925 
Q 1550 2425 1487 1875 
Q 1425 1325 1250 712 
Q 1075 100 800 -325 
Q 650 -200 225 -50 
Q 625 325 825 1062 
Q 1025 1800 1050 2825 
Q 1075 3850 1075 4575 
Q 2300 4600 3625 4775 
Q 4950 4950 5175 5075 
z
M 4975 375 
L 4975 1725 
L 2525 1725 
L 2525 375 
L 4975 375 
z
" transform="scale(0.015625)"/>
      <path id="SimHei-ff0c" d="M 875 950 
L 1775 950 
L 1775 -50 
Q 1700 -675 1150 -975 
L 900 -750 
Q 1350 -500 1350 0 
L 875 0 
L 875 950 
z
" transform="scale(0.015625)"/>
      <path id="SimHei-6b63" d="M 4825 4625 
Q 5300 4625 5675 4650 
L 5675 4150 
Q 5300 4175 4775 4175 
L 3575 4175 
L 3575 2600 
L 4850 2600 
Q 5250 2600 5550 2625 
L 5550 2150 
Q 5250 2175 4850 2175 
L 3575 2175 
L 3575 150 
L 4850 150 
Q 5375 150 5900 175 
L 5900 -325 
Q 5375 -300 4975 -300 
L 1175 -300 
Q 700 -300 375 -325 
L 375 175 
Q 700 150 1175 150 
L 1325 150 
L 1325 2350 
Q 1325 2800 1300 3125 
L 1875 3125 
Q 1850 2825 1850 2350 
L 1850 150 
L 3075 150 
L 3075 4175 
L 1625 4175 
Q 1150 4175 800 4150 
L 800 4650 
Q 1150 4625 1625 4625 
L 4825 4625 
z
" transform="scale(0.015625)"/>
      <path id="SimHei-8ba1" d="M 3925 3100 
L 3925 4350 
Q 3925 4850 3900 5125 
L 4425 5125 
Q 4400 4800 4400 4550 
L 4400 3100 
L 5425 3100 
Q 5725 3100 6075 3125 
L 6075 2650 
Q 5700 2675 5450 2675 
L 4400 2675 
L 4400 175 
Q 4400 -125 4425 -550 
L 3900 -550 
Q 3925 -125 3925 150 
L 3925 2675 
L 2950 2675 
Q 2575 2675 2200 2650 
L 2200 3125 
Q 2575 3100 2900 3100 
L 3925 3100 
z
M 1775 3150 
Q 1750 2675 1750 2150 
L 1750 625 
Q 2175 1050 2425 1400 
Q 2575 1200 2775 1000 
L 2075 300 
Q 1750 -25 1450 -350 
Q 1275 -125 1125 50 
Q 1300 250 1275 650 
L 1275 2725 
Q 600 2725 275 2700 
L 275 3175 
Q 675 3150 825 3150 
L 1775 3150 
z
M 1150 5050 
Q 1475 4725 2175 4000 
Q 1950 3800 1750 3625 
Q 1425 4100 775 4750 
Q 950 4875 1150 5050 
z
" transform="scale(0.015625)"/>
      <path id="SimHei-4ece" d="M 4400 5000 
Q 4350 4725 4337 4400 
Q 4325 4075 4362 3225 
Q 4400 2375 4900 1412 
Q 5400 450 6100 -50 
Q 5825 -300 5675 -525 
Q 4550 500 4125 2150 
Q 3775 550 2500 -625 
Q 2325 -425 2075 -275 
Q 2850 325 3250 1125 
Q 3650 1925 3750 2687 
Q 3850 3450 3800 5075 
Q 4100 5025 4400 5000 
z
M 2175 4900 
Q 2125 4575 2075 2600 
Q 2950 1700 3225 1350 
Q 2975 1200 2800 950 
Q 2625 1300 1975 2050 
Q 1750 900 650 -325 
Q 600 -200 250 25 
Q 1050 825 1337 1600 
Q 1625 2375 1625 3525 
Q 1625 4675 1600 4975 
Q 1925 4900 2175 4900 
z
" transform="scale(0.015625)"/>
      <path id="SimHei-5f00" d="M 2200 4450 
Q 1450 4450 800 4425 
L 800 4925 
Q 1425 4900 1950 4900 
L 4650 4900 
Q 5150 4900 5725 4925 
L 5725 4425 
Q 5175 4450 4500 4450 
L 4500 2600 
L 4975 2600 
Q 5475 2600 6050 2625 
L 6050 2125 
Q 5475 2175 4975 2175 
L 4500 2175 
L 4500 825 
Q 4500 200 4525 -575 
L 3950 -575 
Q 3975 200 3975 825 
L 3975 2175 
L 2725 2175 
Q 2650 1700 2525 1287 
Q 2400 875 2125 450 
Q 1850 25 1100 -575 
Q 900 -350 500 -150 
Q 1000 50 1362 412 
Q 1725 775 1937 1262 
Q 2150 1750 2175 2175 
L 1600 2175 
Q 950 2175 350 2100 
L 350 2625 
Q 975 2600 1600 2600 
L 2200 2600 
L 2200 4450 
z
M 3975 2600 
L 3975 4450 
L 2725 4450 
L 2725 2600 
L 3975 2600 
z
" transform="scale(0.015625)"/>
      <path id="SimHei-59cb" d="M 1750 5075 
Q 1650 4900 1587 4587 
Q 1525 4275 1475 3875 
L 2550 3875 
Q 2400 2150 1950 1100 
Q 2275 850 2725 425 
Q 2550 275 2375 50 
Q 2000 500 1750 675 
Q 1525 275 1250 -62 
Q 975 -400 700 -675 
Q 600 -525 250 -350 
Q 575 -125 862 200 
Q 1150 525 1375 975 
Q 800 1400 500 1550 
Q 875 2925 950 3425 
Q 650 3425 325 3400 
L 325 3900 
Q 675 3875 1025 3875 
Q 1175 4825 1175 5225 
Q 1550 5125 1750 5075 
z
M 5725 2050 
Q 5700 1650 5700 650 
Q 5700 -325 5725 -650 
L 5200 -650 
L 5200 -100 
L 3450 -100 
L 3450 -675 
L 2950 -675 
Q 2975 -300 2975 675 
Q 2975 1650 2950 2050 
L 5725 2050 
z
M 4400 4950 
Q 3750 3875 3250 3150 
Q 3875 3150 4250 3175 
Q 4625 3200 5200 3225 
Q 4875 3675 4625 3900 
Q 4825 4000 5025 4225 
Q 5750 3300 6125 2850 
Q 6000 2775 5725 2550 
Q 5575 2775 5450 2875 
Q 4575 2825 3937 2762 
Q 3300 2700 2825 2575 
Q 2775 2800 2600 3100 
Q 2875 3225 3237 3850 
Q 3600 4475 3825 5200 
Q 4025 5050 4400 4950 
z
M 5200 325 
L 5200 1600 
L 3450 1600 
L 3450 325 
L 5200 325 
z
M 1025 1775 
Q 1300 1550 1575 1400 
Q 1725 1725 1875 2337 
Q 2025 2950 2050 3425 
L 1400 3425 
Q 1300 2950 1025 1775 
z
" transform="scale(0.015625)"/>
     </defs>
     <use xlink:href="#SimHei-8de8"/>
     <use xlink:href="#SimHei-8fc7" transform="translate(100 0)"/>
     <use xlink:href="#SimHei-95e8" transform="translate(200 0)"/>
     <use xlink:href="#SimHei-69db" transform="translate(300 0)"/>
     <use xlink:href="#SimHei-540e" transform="translate(400 0)"/>
     <use xlink:href="#SimHei-ff0c" transform="translate(500 0)"/>
     <use xlink:href="#SimHei-6b63" transform="translate(600 0)"/>
     <use xlink:href="#SimHei-8ba1" transform="translate(700 0)"/>
     <use xlink:href="#SimHei-6570" transform="translate(800 0)"/>
     <use xlink:href="#SimHei-4ece" transform="translate(900 0)"/>
     <use xlink:href="#SimHei-20" transform="translate(1000 0)"/>
     <use xlink:href="#SimHei-31" transform="translate(1050 0)"/>
     <use xlink:href="#SimHei-20" transform="translate(1100 0)"/>
     <use xlink:href="#SimHei-5f00" transform="translate(1150 0)"/>
     <use xlink:href="#SimHei-59cb" transform="translate(1250 0)"/>
    </g>
   </g>
   <g id="text_20">
    <!-- Hurdle model：先决定是否跨过 0，再决定正计数 -->
    <g transform="translate(178.505469 18.13125) scale(0.132 -0.132)">
     <defs>
      <path id="SimHei-48" d="M 2850 125 
L 2275 125 
L 2275 2125 
L 850 2125 
L 850 125 
L 275 125 
L 275 4400 
L 850 4400 
L 850 2600 
L 2275 2600 
L 2275 4400 
L 2850 4400 
L 2850 125 
z
" transform="scale(0.015625)"/>
      <path id="SimHei-75" d="M 2800 125 
L 2300 125 
L 2300 650 
Q 2100 375 1862 225 
Q 1625 75 1250 75 
Q 800 75 575 325 
Q 350 575 350 950 
L 350 2925 
L 850 2925 
L 850 1125 
Q 850 825 1000 650 
Q 1150 475 1400 475 
Q 1725 475 2012 812 
Q 2300 1150 2300 1650 
L 2300 2925 
L 2800 2925 
L 2800 125 
z
" transform="scale(0.015625)"/>
      <path id="SimHei-72" d="M 2500 2425 
Q 2025 2500 1700 2287 
Q 1375 2075 1150 1550 
L 1150 125 
L 650 125 
L 650 2925 
L 1150 2925 
L 1150 2200 
Q 1375 2600 1712 2787 
Q 2050 2975 2500 2975 
L 2500 2425 
z
" transform="scale(0.015625)"/>
      <path id="SimHei-64" d="M 2750 125 
L 2250 125 
L 2250 500 
Q 2100 275 1900 175 
Q 1700 75 1425 75 
Q 925 75 575 437 
Q 225 800 225 1525 
Q 225 2250 575 2625 
Q 925 3000 1425 3000 
Q 1700 3000 1900 2887 
Q 2100 2775 2250 2550 
L 2250 4400 
L 2750 4400 
L 2750 125 
z
M 2250 1525 
Q 2250 2000 2037 2275 
Q 1825 2550 1525 2550 
Q 1150 2550 962 2275 
Q 775 2000 775 1525 
Q 775 1050 962 787 
Q 1150 525 1525 525 
Q 1825 525 2037 787 
Q 2250 1050 2250 1525 
z
" transform="scale(0.015625)"/>
      <path id="SimHei-6c" d="M 1825 125 
L 1325 125 
L 1325 4400 
L 1825 4400 
L 1825 125 
z
" transform="scale(0.015625)"/>
      <path id="SimHei-65" d="M 2850 1075 
Q 2800 625 2450 350 
Q 2100 75 1625 75 
Q 1025 75 637 462 
Q 250 850 250 1525 
Q 250 2200 637 2587 
Q 1025 2975 1625 2975 
Q 2150 2975 2487 2637 
Q 2825 2300 2825 1525 
L 800 1525 
Q 800 975 1037 750 
Q 1275 525 1625 525 
Q 1900 525 2075 662 
Q 2250 800 2300 1075 
L 2850 1075 
z
M 2250 1925 
Q 2200 2275 2025 2412 
Q 1850 2550 1575 2550 
Q 1325 2550 1125 2412 
Q 925 2275 825 1925 
L 2250 1925 
z
" transform="scale(0.015625)"/>
      <path id="SimHei-6d" d="M 3050 125 
L 2550 125 
L 2550 2150 
Q 2550 2300 2500 2400 
Q 2450 2500 2300 2500 
Q 2125 2500 1975 2312 
Q 1825 2125 1825 1825 
L 1825 125 
L 1325 125 
L 1325 2150 
Q 1325 2300 1275 2400 
Q 1225 2500 1075 2500 
Q 900 2500 750 2312 
Q 600 2125 600 1825 
L 600 125 
L 100 125 
L 100 2925 
L 600 2925 
L 600 2550 
Q 725 2750 900 2862 
Q 1075 2975 1275 2975 
Q 1475 2975 1612 2862 
Q 1750 2750 1800 2550 
Q 1925 2750 2087 2862 
Q 2250 2975 2450 2975 
Q 2750 2975 2900 2812 
Q 3050 2650 3050 2350 
L 3050 125 
z
" transform="scale(0.015625)"/>
      <path id="SimHei-6f" d="M 2925 1525 
Q 2925 875 2525 475 
Q 2125 75 1575 75 
Q 1025 75 625 475 
Q 225 875 225 1525 
Q 225 2175 625 2575 
Q 1025 2975 1575 2975 
Q 2125 2975 2525 2575 
Q 2925 2175 2925 1525 
z
M 2375 1525 
Q 2375 2025 2125 2275 
Q 1875 2525 1575 2525 
Q 1275 2525 1025 2275 
Q 775 2025 775 1525 
Q 775 1025 1025 775 
Q 1275 525 1575 525 
Q 1875 525 2125 775 
Q 2375 1025 2375 1525 
z
" transform="scale(0.015625)"/>
      <path id="SimHei-ff1a" d="M 1200 2425 
L 2025 2425 
L 2025 1600 
L 1200 1600 
L 1200 2425 
z
M 1200 825 
L 2025 825 
L 2025 0 
L 1200 0 
L 1200 825 
z
" transform="scale(0.015625)"/>
      <path id="SimHei-5148" d="M 2125 4725 
Q 2000 4575 1925 4387 
Q 1850 4200 1750 3975 
L 2950 3975 
Q 2950 4725 2925 5075 
L 3500 5075 
Q 3475 4775 3475 3975 
L 4325 3975 
Q 4825 3975 5300 4000 
L 5300 3500 
Q 4850 3525 4350 3525 
L 3475 3525 
L 3475 2550 
L 5200 2550 
Q 5675 2550 6050 2575 
L 6050 2075 
Q 5675 2100 5200 2100 
L 4175 2100 
L 4175 300 
Q 4150 -75 4500 -75 
L 5000 -75 
Q 5225 -75 5312 125 
Q 5400 325 5425 725 
Q 5725 500 6050 475 
Q 5825 -250 5662 -375 
Q 5500 -500 5250 -525 
L 4300 -525 
Q 3725 -525 3675 25 
L 3675 2100 
L 2675 2100 
Q 2575 225 850 -650 
Q 700 -450 350 -225 
Q 1975 225 2150 2100 
L 1225 2100 
Q 700 2100 350 2075 
L 350 2575 
Q 725 2550 1225 2550 
L 2950 2550 
L 2950 3525 
L 1575 3525 
Q 1475 3300 1175 2750 
Q 975 2925 675 2975 
Q 1275 3850 1525 4925 
Q 1825 4800 2125 4725 
z
" transform="scale(0.015625)"/>
      <path id="SimHei-51b3" d="M 3400 3700 
Q 2675 3700 2225 3675 
L 2225 4150 
Q 2675 4125 3400 4125 
Q 3400 4825 3375 5200 
Q 3650 5175 3950 5150 
Q 3900 4800 3900 4125 
L 5375 4125 
Q 5350 3725 5350 2300 
Q 5750 2300 6050 2325 
L 6050 1850 
Q 5675 1875 5300 1875 
L 4025 1875 
Q 4750 325 6200 50 
Q 5925 -150 5825 -525 
Q 4275 0 3700 1500 
Q 3150 150 1800 -650 
Q 1650 -400 1375 -250 
Q 2850 500 3300 1875 
L 2900 1875 
Q 2450 1875 2000 1850 
L 2000 2325 
Q 2450 2300 2900 2300 
L 3350 2300 
Q 3400 3125 3400 3700 
z
M 4850 2300 
L 4850 3700 
L 3900 3700 
Q 3875 2850 3850 2300 
L 4850 2300 
z
M 1825 2150 
Q 1550 1675 1250 1087 
Q 950 500 800 150 
Q 575 350 250 525 
Q 525 850 850 1400 
Q 1175 1950 1375 2500 
Q 1550 2300 1825 2150 
z
M 750 4725 
Q 1025 4425 1275 4125 
Q 1525 3825 1800 3500 
Q 1600 3350 1375 3125 
Q 1150 3450 350 4350 
Q 550 4525 750 4725 
z
" transform="scale(0.015625)"/>
      <path id="SimHei-5b9a" d="M 4200 3125 
Q 4675 3125 5175 3150 
L 5175 2675 
Q 4725 2700 4100 2700 
L 3550 2700 
L 3550 1700 
L 4600 1700 
Q 4875 1700 5375 1725 
L 5375 1250 
Q 4875 1275 4575 1275 
L 3550 1275 
L 3550 100 
Q 4600 -25 6050 125 
Q 5850 -200 5800 -475 
Q 4800 -475 4150 -450 
Q 3500 -425 3050 -300 
Q 2600 -175 2250 75 
Q 1900 325 1600 675 
Q 1200 -50 675 -575 
Q 450 -350 175 -250 
Q 875 300 1200 1050 
Q 1525 1800 1550 2200 
Q 1800 2050 2150 1975 
Q 2075 1875 1987 1662 
Q 1900 1450 1775 1125 
Q 1950 900 2300 612 
Q 2650 325 3050 200 
L 3050 2700 
L 2250 2700 
Q 1825 2700 1400 2675 
L 1400 3150 
Q 1825 3125 2400 3125 
L 4200 3125 
z
M 5750 4275 
Q 5725 3925 5725 3750 
Q 5725 3575 5750 3275 
L 5225 3275 
L 5225 3875 
L 1225 3875 
L 1225 3275 
L 700 3275 
Q 725 3475 725 3725 
Q 725 3975 700 4275 
L 5750 4275 
z
M 2650 5050 
Q 2875 5125 3100 5300 
Q 3375 4975 3600 4550 
Q 3250 4400 3100 4300 
Q 3050 4525 2650 5050 
z
" transform="scale(0.015625)"/>
      <path id="SimHei-662f" d="M 5075 5000 
Q 5050 4625 5050 3950 
Q 5050 3300 5075 2725 
L 1350 2725 
Q 1375 3300 1375 3950 
Q 1375 4625 1350 5000 
L 5075 5000 
z
M 5075 2275 
Q 5500 2275 6025 2300 
L 6025 1850 
Q 5500 1875 5075 1875 
L 3475 1875 
L 3475 1250 
Q 4950 1250 5400 1275 
L 5400 825 
Q 4950 850 3475 850 
L 3475 100 
Q 3950 25 4650 25 
Q 5350 25 6200 125 
Q 6000 -150 5950 -475 
L 4675 -475 
Q 4125 -475 3650 -412 
Q 3175 -350 2712 -175 
Q 2250 0 1725 450 
Q 1625 250 1437 -12 
Q 1250 -275 875 -650 
Q 625 -450 375 -300 
Q 875 0 1200 575 
Q 1525 1150 1575 1650 
L 2175 1475 
Q 2100 1375 1925 900 
Q 2375 425 3000 225 
L 3000 1875 
L 1400 1875 
Q 950 1875 450 1850 
L 450 2300 
Q 975 2275 1400 2275 
L 5075 2275 
z
M 4550 3150 
L 4550 3675 
L 1875 3675 
L 1875 3150 
L 4550 3150 
z
M 4550 4100 
L 4550 4600 
L 1875 4600 
L 1875 4100 
L 4550 4100 
z
" transform="scale(0.015625)"/>
      <path id="SimHei-5426" d="M 700 4800 
Q 1075 4775 1675 4775 
L 4800 4775 
Q 5525 4775 5750 4800 
L 5750 4325 
Q 5275 4350 4775 4350 
L 3725 4350 
L 3350 3975 
L 3350 1900 
L 5200 1900 
Q 5175 1675 5175 650 
Q 5175 -375 5200 -575 
L 4650 -575 
L 4650 -125 
L 1750 -125 
L 1750 -625 
L 1200 -625 
Q 1225 -325 1225 600 
Q 1225 1550 1200 1900 
L 2800 1900 
L 2800 3400 
Q 2500 3100 1762 2700 
Q 1025 2300 600 2125 
Q 475 2400 250 2600 
Q 900 2800 1725 3300 
Q 2550 3800 3000 4350 
L 1750 4350 
Q 1175 4350 700 4325 
L 700 4800 
z
M 4650 325 
L 4650 1450 
L 1750 1450 
L 1750 325 
L 4650 325 
z
M 4075 3725 
Q 4625 3450 5075 3237 
Q 5525 3025 6125 2675 
Q 6000 2450 5800 2150 
Q 5250 2500 4762 2762 
Q 4275 3025 3800 3250 
Q 3950 3450 4075 3725 
z
" transform="scale(0.015625)"/>
      <path id="SimHei-518d" d="M 4025 -125 
Q 4375 -150 4537 -125 
Q 4700 -100 4700 175 
L 4700 875 
L 1675 875 
L 1675 -650 
L 1125 -650 
Q 1175 -225 1175 200 
L 1175 875 
Q 600 875 225 850 
L 225 1325 
Q 575 1275 1175 1275 
L 1175 2825 
Q 1175 3375 1125 3700 
L 2950 3700 
L 2950 4475 
L 1550 4475 
Q 1050 4475 600 4450 
L 600 4925 
Q 1050 4900 1525 4900 
L 4850 4900 
Q 5425 4900 5775 4925 
L 5775 4450 
Q 5425 4475 4850 4475 
L 3450 4475 
L 3450 3700 
L 5225 3700 
Q 5200 3375 5200 2750 
L 5200 1275 
Q 5825 1275 6200 1325 
L 6200 850 
Q 5850 875 5200 875 
L 5200 -175 
Q 5200 -475 4950 -550 
Q 4700 -625 4250 -675 
Q 4175 -400 4025 -125 
z
M 2950 2475 
L 2950 3325 
L 1675 3325 
L 1675 2475 
L 2950 2475 
z
M 4700 2475 
L 4700 3325 
L 3450 3325 
L 3450 2475 
L 4700 2475 
z
M 2950 1275 
L 2950 2100 
L 1675 2100 
L 1675 1275 
L 2950 1275 
z
M 4700 1275 
L 4700 2100 
L 3450 2100 
L 3450 1275 
L 4700 1275 
z
" transform="scale(0.015625)"/>
     </defs>
     <use xlink:href="#SimHei-48"/>
     <use xlink:href="#SimHei-75" transform="translate(50 0)"/>
     <use xlink:href="#SimHei-72" transform="translate(100 0)"/>
     <use xlink:href="#SimHei-64" transform="translate(150 0)"/>
     <use xlink:href="#SimHei-6c" transform="translate(200 0)"/>
     <use xlink:href="#SimHei-65" transform="translate(250 0)"/>
     <use xlink:href="#SimHei-20" transform="translate(300 0)"/>
     <use xlink:href="#SimHei-6d" transform="translate(350 0)"/>
     <use xlink:href="#SimHei-6f" transform="translate(400 0)"/>
     <use xlink:href="#SimHei-64" transform="translate(450 0)"/>
     <use xlink:href="#SimHei-65" transform="translate(500 0)"/>
     <use xlink:href="#SimHei-6c" transform="translate(550 0)"/>
     <use xlink:href="#SimHei-ff1a" transform="translate(600 0)"/>
     <use xlink:href="#SimHei-5148" transform="translate(700 0)"/>
     <use xlink:href="#SimHei-51b3" transform="translate(800 0)"/>
     <use xlink:href="#SimHei-5b9a" transform="translate(900 0)"/>
     <use xlink:href="#SimHei-662f" transform="translate(1000 0)"/>
     <use xlink:href="#SimHei-5426" transform="translate(1100 0)"/>
     <use xlink:href="#SimHei-8de8" transform="translate(1200 0)"/>
     <use xlink:href="#SimHei-8fc7" transform="translate(1300 0)"/>
     <use xlink:href="#SimHei-20" transform="translate(1400 0)"/>
     <use xlink:href="#SimHei-30" transform="translate(1450 0)"/>
     <use xlink:href="#SimHei-ff0c" transform="translate(1500 0)"/>
     <use xlink:href="#SimHei-518d" transform="translate(1600 0)"/>
     <use xlink:href="#SimHei-51b3" transform="translate(1700 0)"/>
     <use xlink:href="#SimHei-5b9a" transform="translate(1800 0)"/>
     <use xlink:href="#SimHei-6b63" transform="translate(1900 0)"/>
     <use xlink:href="#SimHei-8ba1" transform="translate(2000 0)"/>
     <use xlink:href="#SimHei-6570" transform="translate(2100 0)"/>
    </g>
   </g>
  </g>
 </g>
 <defs>
  <clipPath id="p8258299f0d">
   <rect x="44.711719" y="24.13125" width="557.9875" height="274.7575"/>
  </clipPath>
 </defs>
</svg>
