<?xml version="1.0" encoding="utf-8" standalone="no"?>
<!DOCTYPE svg PUBLIC "-//W3C//DTD SVG 1.1//EN"
  "http://www.w3.org/Graphics/SVG/1.1/DTD/svg11.dtd">
<svg xmlns:xlink="http://www.w3.org/1999/xlink" width="671.297656pt" height="318.544938pt" viewBox="0 0 671.297656 318.544938" xmlns="http://www.w3.org/2000/svg" version="1.1">
 <metadata>
  <rdf:RDF xmlns:dc="http://purl.org/dc/elements/1.1/" xmlns:cc="http://creativecommons.org/ns#" xmlns:rdf="http://www.w3.org/1999/02/22-rdf-syntax-ns#">
   <cc:Work>
    <dc:type rdf:resource="http://purl.org/dc/dcmitype/StillImage"/>
    <dc:date>2026-04-30T01:29:32.508319</dc:date>
    <dc:format>image/svg+xml</dc:format>
    <dc:creator>
     <cc:Agent>
      <dc:title>Matplotlib v3.10.8, https://matplotlib.org/</dc:title>
     </cc:Agent>
    </dc:creator>
   </cc:Work>
  </rdf:RDF>
 </metadata>
 <defs>
  <style type="text/css">*{stroke-linejoin: round; stroke-linecap: butt}</style>
 </defs>
 <g id="figure_1">
  <g id="patch_1">
   <path d="M 0 318.544938 
L 671.297656 318.544938 
L 671.297656 0 
L 0 0 
z
" style="fill: #ffffff"/>
  </g>
  <g id="axes_1">
   <g id="patch_2">
    <path d="M 50.297656 282.384 
L 329.297656 282.384 
L 329.297656 49.536 
L 50.297656 49.536 
z
" style="fill: #ffffff"/>
   </g>
   <g id="patch_3">
    <path d="M 62.979474 282.384 
L 69.482971 282.384 
L 69.482971 60.624 
L 62.979474 60.624 
z
" clip-path="url(#p2c9fd446b0)" style="fill: #1f77b4; opacity: 0.85"/>
   </g>
   <g id="patch_4">
    <path d="M 69.482971 282.384 
L 75.986467 282.384 
L 75.986467 282.384 
L 69.482971 282.384 
z
" clip-path="url(#p2c9fd446b0)" style="fill: #1f77b4; opacity: 0.85"/>
   </g>
   <g id="patch_5">
    <path d="M 75.986467 282.384 
L 82.489964 282.384 
L 82.489964 282.384 
L 75.986467 282.384 
z
" clip-path="url(#p2c9fd446b0)" style="fill: #1f77b4; opacity: 0.85"/>
   </g>
   <g id="patch_6">
    <path d="M 82.489964 282.384 
L 88.99346 282.384 
L 88.99346 280.770548 
L 82.489964 280.770548 
z
" clip-path="url(#p2c9fd446b0)" style="fill: #1f77b4; opacity: 0.85"/>
   </g>
   <g id="patch_7">
    <path d="M 88.99346 282.384 
L 95.496957 282.384 
L 95.496957 278.619279 
L 88.99346 278.619279 
z
" clip-path="url(#p2c9fd446b0)" style="fill: #1f77b4; opacity: 0.85"/>
   </g>
   <g id="patch_8">
    <path d="M 95.496957 282.384 
L 102.000453 282.384 
L 102.000453 277.005827 
L 95.496957 277.005827 
z
" clip-path="url(#p2c9fd446b0)" style="fill: #1f77b4; opacity: 0.85"/>
   </g>
   <g id="patch_9">
    <path d="M 102.000453 282.384 
L 108.50395 282.384 
L 108.50395 273.778923 
L 102.000453 273.778923 
z
" clip-path="url(#p2c9fd446b0)" style="fill: #1f77b4; opacity: 0.85"/>
   </g>
   <g id="patch_10">
    <path d="M 108.50395 282.384 
L 115.007446 282.384 
L 115.007446 271.806926 
L 108.50395 271.806926 
z
" clip-path="url(#p2c9fd446b0)" style="fill: #1f77b4; opacity: 0.85"/>
   </g>
   <g id="patch_11">
    <path d="M 115.007446 282.384 
L 121.510943 282.384 
L 121.510943 270.372747 
L 115.007446 270.372747 
z
" clip-path="url(#p2c9fd446b0)" style="fill: #1f77b4; opacity: 0.85"/>
   </g>
   <g id="patch_12">
    <path d="M 121.510943 282.384 
L 128.014439 282.384 
L 128.014439 267.145843 
L 121.510943 267.145843 
z
" clip-path="url(#p2c9fd446b0)" style="fill: #1f77b4; opacity: 0.85"/>
   </g>
   <g id="patch_13">
    <path d="M 128.014439 282.384 
L 134.517936 282.384 
L 134.517936 267.68366 
L 128.014439 267.68366 
z
" clip-path="url(#p2c9fd446b0)" style="fill: #1f77b4; opacity: 0.85"/>
   </g>
   <g id="patch_14">
    <path d="M 134.517936 282.384 
L 141.021432 282.384 
L 141.021432 266.249481 
L 134.517936 266.249481 
z
" clip-path="url(#p2c9fd446b0)" style="fill: #1f77b4; opacity: 0.85"/>
   </g>
   <g id="patch_15">
    <path d="M 141.021432 282.384 
L 147.524929 282.384 
L 147.524929 264.277484 
L 141.021432 264.277484 
z
" clip-path="url(#p2c9fd446b0)" style="fill: #1f77b4; opacity: 0.85"/>
   </g>
   <g id="patch_16">
    <path d="M 147.524929 282.384 
L 154.028425 282.384 
L 154.028425 265.353119 
L 147.524929 265.353119 
z
" clip-path="url(#p2c9fd446b0)" style="fill: #1f77b4; opacity: 0.85"/>
   </g>
   <g id="patch_17">
    <path d="M 154.028425 282.384 
L 160.531922 282.384 
L 160.531922 267.68366 
L 154.028425 267.68366 
z
" clip-path="url(#p2c9fd446b0)" style="fill: #1f77b4; opacity: 0.85"/>
   </g>
   <g id="patch_18">
    <path d="M 160.531922 282.384 
L 167.035418 282.384 
L 167.035418 269.11784 
L 160.531922 269.11784 
z
" clip-path="url(#p2c9fd446b0)" style="fill: #1f77b4; opacity: 0.85"/>
   </g>
   <g id="patch_19">
    <path d="M 167.035418 282.384 
L 173.538915 282.384 
L 173.538915 269.655657 
L 167.035418 269.655657 
z
" clip-path="url(#p2c9fd446b0)" style="fill: #1f77b4; opacity: 0.85"/>
   </g>
   <g id="patch_20">
    <path d="M 173.538915 282.384 
L 180.042411 282.384 
L 180.042411 270.372747 
L 173.538915 270.372747 
z
" clip-path="url(#p2c9fd446b0)" style="fill: #1f77b4; opacity: 0.85"/>
   </g>
   <g id="patch_21">
    <path d="M 180.042411 282.384 
L 186.545908 282.384 
L 186.545908 269.297112 
L 180.042411 269.297112 
z
" clip-path="url(#p2c9fd446b0)" style="fill: #1f77b4; opacity: 0.85"/>
   </g>
   <g id="patch_22">
    <path d="M 186.545908 282.384 
L 193.049405 282.384 
L 193.049405 270.910564 
L 186.545908 270.910564 
z
" clip-path="url(#p2c9fd446b0)" style="fill: #1f77b4; opacity: 0.85"/>
   </g>
   <g id="patch_23">
    <path d="M 193.049405 282.384 
L 199.552901 282.384 
L 199.552901 272.344744 
L 193.049405 272.344744 
z
" clip-path="url(#p2c9fd446b0)" style="fill: #1f77b4; opacity: 0.85"/>
   </g>
   <g id="patch_24">
    <path d="M 199.552901 282.384 
L 206.056398 282.384 
L 206.056398 273.958196 
L 199.552901 273.958196 
z
" clip-path="url(#p2c9fd446b0)" style="fill: #1f77b4; opacity: 0.85"/>
   </g>
   <g id="patch_25">
    <path d="M 206.056398 282.384 
L 212.559894 282.384 
L 212.559894 274.675285 
L 206.056398 274.675285 
z
" clip-path="url(#p2c9fd446b0)" style="fill: #1f77b4; opacity: 0.85"/>
   </g>
   <g id="patch_26">
    <path d="M 212.559894 282.384 
L 219.063391 282.384 
L 219.063391 274.137468 
L 212.559894 274.137468 
z
" clip-path="url(#p2c9fd446b0)" style="fill: #1f77b4; opacity: 0.85"/>
   </g>
   <g id="patch_27">
    <path d="M 219.063391 282.384 
L 225.566887 282.384 
L 225.566887 275.571648 
L 219.063391 275.571648 
z
" clip-path="url(#p2c9fd446b0)" style="fill: #1f77b4; opacity: 0.85"/>
   </g>
   <g id="patch_28">
    <path d="M 225.566887 282.384 
L 232.070384 282.384 
L 232.070384 275.930192 
L 225.566887 275.930192 
z
" clip-path="url(#p2c9fd446b0)" style="fill: #1f77b4; opacity: 0.85"/>
   </g>
   <g id="patch_29">
    <path d="M 232.070384 282.384 
L 238.57388 282.384 
L 238.57388 274.675285 
L 232.070384 274.675285 
z
" clip-path="url(#p2c9fd446b0)" style="fill: #1f77b4; opacity: 0.85"/>
   </g>
   <g id="patch_30">
    <path d="M 238.57388 282.384 
L 245.077377 282.384 
L 245.077377 277.185099 
L 238.57388 277.185099 
z
" clip-path="url(#p2c9fd446b0)" style="fill: #1f77b4; opacity: 0.85"/>
   </g>
   <g id="patch_31">
    <path d="M 245.077377 282.384 
L 251.580873 282.384 
L 251.580873 278.440006 
L 245.077377 278.440006 
z
" clip-path="url(#p2c9fd446b0)" style="fill: #1f77b4; opacity: 0.85"/>
   </g>
   <g id="patch_32">
    <path d="M 251.580873 282.384 
L 258.08437 282.384 
L 258.08437 278.977824 
L 251.580873 278.977824 
z
" clip-path="url(#p2c9fd446b0)" style="fill: #1f77b4; opacity: 0.85"/>
   </g>
   <g id="patch_33">
    <path d="M 258.08437 282.384 
L 264.587866 282.384 
L 264.587866 279.874186 
L 258.08437 279.874186 
z
" clip-path="url(#p2c9fd446b0)" style="fill: #1f77b4; opacity: 0.85"/>
   </g>
   <g id="patch_34">
    <path d="M 264.587866 282.384 
L 271.091363 282.384 
L 271.091363 279.874186 
L 264.587866 279.874186 
z
" clip-path="url(#p2c9fd446b0)" style="fill: #1f77b4; opacity: 0.85"/>
   </g>
   <g id="patch_35">
    <path d="M 271.091363 282.384 
L 277.594859 282.384 
L 277.594859 279.336369 
L 271.091363 279.336369 
z
" clip-path="url(#p2c9fd446b0)" style="fill: #1f77b4; opacity: 0.85"/>
   </g>
   <g id="patch_36">
    <path d="M 277.594859 282.384 
L 284.098356 282.384 
L 284.098356 279.336369 
L 277.594859 279.336369 
z
" clip-path="url(#p2c9fd446b0)" style="fill: #1f77b4; opacity: 0.85"/>
   </g>
   <g id="patch_37">
    <path d="M 284.098356 282.384 
L 290.601852 282.384 
L 290.601852 280.412003 
L 284.098356 280.412003 
z
" clip-path="url(#p2c9fd446b0)" style="fill: #1f77b4; opacity: 0.85"/>
   </g>
   <g id="patch_38">
    <path d="M 290.601852 282.384 
L 297.105349 282.384 
L 297.105349 279.694914 
L 290.601852 279.694914 
z
" clip-path="url(#p2c9fd446b0)" style="fill: #1f77b4; opacity: 0.85"/>
   </g>
   <g id="patch_39">
    <path d="M 297.105349 282.384 
L 303.608845 282.384 
L 303.608845 280.412003 
L 297.105349 280.412003 
z
" clip-path="url(#p2c9fd446b0)" style="fill: #1f77b4; opacity: 0.85"/>
   </g>
   <g id="patch_40">
    <path d="M 303.608845 282.384 
L 310.112342 282.384 
L 310.112342 281.308365 
L 303.608845 281.308365 
z
" clip-path="url(#p2c9fd446b0)" style="fill: #1f77b4; opacity: 0.85"/>
   </g>
   <g id="patch_41">
    <path d="M 310.112342 282.384 
L 316.615838 282.384 
L 316.615838 280.412003 
L 310.112342 280.412003 
z
" clip-path="url(#p2c9fd446b0)" style="fill: #1f77b4; opacity: 0.85"/>
   </g>
   <g id="matplotlib.axis_1">
    <g id="xtick_1">
     <g id="line2d_1">
      <path d="M 62.979474 282.384 
L 62.979474 49.536 
" clip-path="url(#p2c9fd446b0)" style="fill: none; stroke: #b0b0b0; stroke-opacity: 0.22; stroke-width: 0.8; stroke-linecap: square"/>
     </g>
     <g id="line2d_2">
      <defs>
       <path id="m2187b13c0a" d="M 0 0 
L 0 3.5 
" style="stroke: #000000; stroke-width: 0.8"/>
      </defs>
      <g>
       <use xlink:href="#m2187b13c0a" x="62.979474" y="282.384" style="stroke: #000000; stroke-width: 0.8"/>
      </g>
     </g>
     <g id="text_1">
      <!-- 0 -->
      <g transform="translate(60.229474 296.9465) scale(0.11 -0.11)">
       <defs>
        <path id="SimHei-30" d="M 225 2537 
Q 250 3200 412 3587 
Q 575 3975 875 4225 
Q 1175 4475 1612 4475 
Q 2050 4475 2375 4112 
Q 2700 3750 2800 3200 
Q 2900 2650 2862 1937 
Q 2825 1225 2612 775 
Q 2400 325 1975 150 
Q 1550 -25 1125 187 
Q 700 400 525 750 
Q 350 1100 275 1487 
Q 200 1875 225 2537 
z
M 750 2687 
Q 675 2000 800 1462 
Q 925 925 1212 700 
Q 1500 475 1800 612 
Q 2100 750 2237 1162 
Q 2375 1575 2375 2062 
Q 2375 2550 2337 2950 
Q 2300 3350 2112 3675 
Q 1925 4000 1612 4012 
Q 1300 4025 1062 3700 
Q 825 3375 750 2687 
z
" transform="scale(0.015625)"/>
       </defs>
       <use xlink:href="#SimHei-30"/>
      </g>
     </g>
    </g>
    <g id="xtick_2">
     <g id="line2d_3">
      <path d="M 103.386055 282.384 
L 103.386055 49.536 
" clip-path="url(#p2c9fd446b0)" style="fill: none; stroke: #b0b0b0; stroke-opacity: 0.22; stroke-width: 0.8; stroke-linecap: square"/>
     </g>
     <g id="line2d_4">
      <g>
       <use xlink:href="#m2187b13c0a" x="103.386055" y="282.384" style="stroke: #000000; stroke-width: 0.8"/>
      </g>
     </g>
     <g id="text_2">
      <!-- 5000 -->
      <g transform="translate(92.386055 296.9465) scale(0.11 -0.11)">
       <defs>
        <path id="SimHei-35" d="M 550 1325 
Q 725 650 1150 575 
Q 1575 500 1837 662 
Q 2100 825 2212 1087 
Q 2325 1350 2312 1675 
Q 2300 2000 2137 2225 
Q 1975 2450 1725 2525 
Q 1475 2600 1162 2525 
Q 850 2450 650 2175 
L 225 2225 
Q 275 2375 700 4375 
L 2675 4375 
L 2675 3925 
L 1075 3925 
Q 950 3250 825 2850 
Q 1200 3025 1525 3012 
Q 1850 3000 2150 2862 
Q 2450 2725 2587 2487 
Q 2725 2250 2787 2012 
Q 2850 1775 2837 1500 
Q 2825 1225 2725 937 
Q 2625 650 2425 462 
Q 2225 275 1937 162 
Q 1650 50 1275 75 
Q 900 100 562 350 
Q 225 600 100 1200 
L 550 1325 
z
" transform="scale(0.015625)"/>
       </defs>
       <use xlink:href="#SimHei-35"/>
       <use xlink:href="#SimHei-30" transform="translate(50 0)"/>
       <use xlink:href="#SimHei-30" transform="translate(100 0)"/>
       <use xlink:href="#SimHei-30" transform="translate(150 0)"/>
      </g>
     </g>
    </g>
    <g id="xtick_3">
     <g id="line2d_5">
      <path d="M 143.792637 282.384 
L 143.792637 49.536 
" clip-path="url(#p2c9fd446b0)" style="fill: none; stroke: #b0b0b0; stroke-opacity: 0.22; stroke-width: 0.8; stroke-linecap: square"/>
     </g>
     <g id="line2d_6">
      <g>
       <use xlink:href="#m2187b13c0a" x="143.792637" y="282.384" style="stroke: #000000; stroke-width: 0.8"/>
      </g>
     </g>
     <g id="text_3">
      <!-- 10000 -->
      <g transform="translate(130.042637 296.9465) scale(0.11 -0.11)">
       <defs>
        <path id="SimHei-31" d="M 1400 3600 
Q 1075 3275 575 2975 
L 575 3450 
Q 1200 3875 1600 4450 
L 1900 4450 
L 1900 150 
L 1400 150 
L 1400 3600 
z
" transform="scale(0.015625)"/>
       </defs>
       <use xlink:href="#SimHei-31"/>
       <use xlink:href="#SimHei-30" transform="translate(50 0)"/>
       <use xlink:href="#SimHei-30" transform="translate(100 0)"/>
       <use xlink:href="#SimHei-30" transform="translate(150 0)"/>
       <use xlink:href="#SimHei-30" transform="translate(200 0)"/>
      </g>
     </g>
    </g>
    <g id="xtick_4">
     <g id="line2d_7">
      <path d="M 184.199218 282.384 
L 184.199218 49.536 
" clip-path="url(#p2c9fd446b0)" style="fill: none; stroke: #b0b0b0; stroke-opacity: 0.22; stroke-width: 0.8; stroke-linecap: square"/>
     </g>
     <g id="line2d_8">
      <g>
       <use xlink:href="#m2187b13c0a" x="184.199218" y="282.384" style="stroke: #000000; stroke-width: 0.8"/>
      </g>
     </g>
     <g id="text_4">
      <!-- 15000 -->
      <g transform="translate(170.449218 296.9465) scale(0.11 -0.11)">
       <use xlink:href="#SimHei-31"/>
       <use xlink:href="#SimHei-35" transform="translate(50 0)"/>
       <use xlink:href="#SimHei-30" transform="translate(100 0)"/>
       <use xlink:href="#SimHei-30" transform="translate(150 0)"/>
       <use xlink:href="#SimHei-30" transform="translate(200 0)"/>
      </g>
     </g>
    </g>
    <g id="xtick_5">
     <g id="line2d_9">
      <path d="M 224.605799 282.384 
L 224.605799 49.536 
" clip-path="url(#p2c9fd446b0)" style="fill: none; stroke: #b0b0b0; stroke-opacity: 0.22; stroke-width: 0.8; stroke-linecap: square"/>
     </g>
     <g id="line2d_10">
      <g>
       <use xlink:href="#m2187b13c0a" x="224.605799" y="282.384" style="stroke: #000000; stroke-width: 0.8"/>
      </g>
     </g>
     <g id="text_5">
      <!-- 20000 -->
      <g transform="translate(210.855799 296.9465) scale(0.11 -0.11)">
       <defs>
        <path id="SimHei-32" d="M 300 250 
Q 325 625 650 925 
Q 975 1225 1475 1862 
Q 1975 2500 2125 2850 
Q 2275 3200 2237 3450 
Q 2200 3700 2000 3862 
Q 1800 4025 1537 4000 
Q 1275 3975 1037 3800 
Q 800 3625 675 3275 
L 200 3350 
Q 400 3925 712 4187 
Q 1025 4450 1450 4475 
Q 1700 4500 1900 4462 
Q 2100 4425 2312 4287 
Q 2525 4150 2662 3875 
Q 2800 3600 2762 3212 
Q 2725 2825 2375 2287 
Q 2025 1750 1025 600 
L 2825 600 
L 2825 150 
L 300 150 
L 300 250 
z
" transform="scale(0.015625)"/>
       </defs>
       <use xlink:href="#SimHei-32"/>
       <use xlink:href="#SimHei-30" transform="translate(50 0)"/>
       <use xlink:href="#SimHei-30" transform="translate(100 0)"/>
       <use xlink:href="#SimHei-30" transform="translate(150 0)"/>
       <use xlink:href="#SimHei-30" transform="translate(200 0)"/>
      </g>
     </g>
    </g>
    <g id="xtick_6">
     <g id="line2d_11">
      <path d="M 265.01238 282.384 
L 265.01238 49.536 
" clip-path="url(#p2c9fd446b0)" style="fill: none; stroke: #b0b0b0; stroke-opacity: 0.22; stroke-width: 0.8; stroke-linecap: square"/>
     </g>
     <g id="line2d_12">
      <g>
       <use xlink:href="#m2187b13c0a" x="265.01238" y="282.384" style="stroke: #000000; stroke-width: 0.8"/>
      </g>
     </g>
     <g id="text_6">
      <!-- 25000 -->
      <g transform="translate(251.26238 296.9465) scale(0.11 -0.11)">
       <use xlink:href="#SimHei-32"/>
       <use xlink:href="#SimHei-35" transform="translate(50 0)"/>
       <use xlink:href="#SimHei-30" transform="translate(100 0)"/>
       <use xlink:href="#SimHei-30" transform="translate(150 0)"/>
       <use xlink:href="#SimHei-30" transform="translate(200 0)"/>
      </g>
     </g>
    </g>
    <g id="xtick_7">
     <g id="line2d_13">
      <path d="M 305.418961 282.384 
L 305.418961 49.536 
" clip-path="url(#p2c9fd446b0)" style="fill: none; stroke: #b0b0b0; stroke-opacity: 0.22; stroke-width: 0.8; stroke-linecap: square"/>
     </g>
     <g id="line2d_14">
      <g>
       <use xlink:href="#m2187b13c0a" x="305.418961" y="282.384" style="stroke: #000000; stroke-width: 0.8"/>
      </g>
     </g>
     <g id="text_7">
      <!-- 30000 -->
      <g transform="translate(291.668961 296.9465) scale(0.11 -0.11)">
       <defs>
        <path id="SimHei-33" d="M 250 1225 
L 700 1300 
Q 800 975 1025 762 
Q 1250 550 1587 562 
Q 1925 575 2125 837 
Q 2325 1100 2300 1437 
Q 2275 1775 2037 1962 
Q 1800 2150 1275 2225 
L 1275 2550 
Q 1800 2600 2037 2825 
Q 2275 3050 2250 3412 
Q 2225 3775 1925 3937 
Q 1625 4100 1287 3975 
Q 950 3850 750 3275 
L 300 3350 
Q 450 3800 712 4100 
Q 975 4400 1425 4450 
Q 1875 4500 2212 4337 
Q 2550 4175 2687 3837 
Q 2825 3500 2725 3100 
Q 2625 2700 2150 2400 
Q 2500 2250 2687 1950 
Q 2875 1650 2812 1162 
Q 2750 675 2375 375 
Q 2000 75 1525 87 
Q 1050 100 700 387 
Q 350 675 250 1225 
z
" transform="scale(0.015625)"/>
       </defs>
       <use xlink:href="#SimHei-33"/>
       <use xlink:href="#SimHei-30" transform="translate(50 0)"/>
       <use xlink:href="#SimHei-30" transform="translate(100 0)"/>
       <use xlink:href="#SimHei-30" transform="translate(150 0)"/>
       <use xlink:href="#SimHei-30" transform="translate(200 0)"/>
      </g>
     </g>
    </g>
    <g id="text_8">
     <!-- loan_amt -->
     <g transform="translate(167.797656 309.884) scale(0.11 -0.11)">
      <defs>
       <path id="SimHei-6c" d="M 1825 125 
L 1325 125 
L 1325 4400 
L 1825 4400 
L 1825 125 
z
" transform="scale(0.015625)"/>
       <path id="SimHei-6f" d="M 2925 1525 
Q 2925 875 2525 475 
Q 2125 75 1575 75 
Q 1025 75 625 475 
Q 225 875 225 1525 
Q 225 2175 625 2575 
Q 1025 2975 1575 2975 
Q 2125 2975 2525 2575 
Q 2925 2175 2925 1525 
z
M 2375 1525 
Q 2375 2025 2125 2275 
Q 1875 2525 1575 2525 
Q 1275 2525 1025 2275 
Q 775 2025 775 1525 
Q 775 1025 1025 775 
Q 1275 525 1575 525 
Q 1875 525 2125 775 
Q 2375 1025 2375 1525 
z
" transform="scale(0.015625)"/>
       <path id="SimHei-61" d="M 2875 125 
L 2275 125 
Q 2225 175 2200 262 
Q 2175 350 2175 475 
Q 2000 275 1750 175 
Q 1500 75 1225 75 
Q 825 75 550 275 
Q 275 475 275 850 
Q 275 1225 525 1450 
Q 775 1675 1300 1750 
Q 1650 1800 1912 1875 
Q 2175 1950 2175 2075 
Q 2175 2225 2062 2375 
Q 1950 2525 1575 2525 
Q 1275 2525 1137 2412 
Q 1000 2300 950 2100 
L 400 2100 
Q 450 2500 762 2737 
Q 1075 2975 1575 2975 
Q 2125 2975 2400 2725 
Q 2675 2475 2675 2025 
L 2675 650 
Q 2675 500 2725 375 
Q 2775 250 2875 125 
z
M 2175 1050 
L 2175 1550 
Q 2025 1500 1887 1462 
Q 1750 1425 1425 1375 
Q 1050 1325 937 1200 
Q 825 1075 825 900 
Q 825 750 937 637 
Q 1050 525 1275 525 
Q 1500 525 1762 650 
Q 2025 775 2175 1050 
z
" transform="scale(0.015625)"/>
       <path id="SimHei-6e" d="M 2800 125 
L 2300 125 
L 2300 1925 
Q 2300 2225 2150 2400 
Q 2000 2575 1750 2575 
Q 1425 2575 1137 2237 
Q 850 1900 850 1400 
L 850 125 
L 350 125 
L 350 2925 
L 850 2925 
L 850 2400 
Q 1050 2675 1287 2825 
Q 1525 2975 1900 2975 
Q 2350 2975 2575 2725 
Q 2800 2475 2800 2100 
L 2800 125 
z
" transform="scale(0.015625)"/>
       <path id="SimHei-5f" d="M 3150 -850 
L 0 -850 
L 0 -550 
L 3150 -550 
L 3150 -850 
z
" transform="scale(0.015625)"/>
       <path id="SimHei-6d" d="M 3050 125 
L 2550 125 
L 2550 2150 
Q 2550 2300 2500 2400 
Q 2450 2500 2300 2500 
Q 2125 2500 1975 2312 
Q 1825 2125 1825 1825 
L 1825 125 
L 1325 125 
L 1325 2150 
Q 1325 2300 1275 2400 
Q 1225 2500 1075 2500 
Q 900 2500 750 2312 
Q 600 2125 600 1825 
L 600 125 
L 100 125 
L 100 2925 
L 600 2925 
L 600 2550 
Q 725 2750 900 2862 
Q 1075 2975 1275 2975 
Q 1475 2975 1612 2862 
Q 1750 2750 1800 2550 
Q 1925 2750 2087 2862 
Q 2250 2975 2450 2975 
Q 2750 2975 2900 2812 
Q 3050 2650 3050 2350 
L 3050 125 
z
" transform="scale(0.015625)"/>
       <path id="SimHei-74" d="M 2750 200 
Q 2625 150 2462 112 
Q 2300 75 2025 75 
Q 1575 75 1300 325 
Q 1025 575 1025 1025 
L 1025 2525 
L 175 2525 
L 175 2925 
L 1025 2925 
L 1025 3900 
L 1525 3900 
L 1525 2925 
L 2550 2925 
L 2550 2525 
L 1525 2525 
L 1525 1000 
Q 1525 800 1625 662 
Q 1725 525 2000 525 
Q 2275 525 2450 575 
Q 2625 625 2750 700 
L 2750 200 
z
" transform="scale(0.015625)"/>
      </defs>
      <use xlink:href="#SimHei-6c"/>
      <use xlink:href="#SimHei-6f" transform="translate(50 0)"/>
      <use xlink:href="#SimHei-61" transform="translate(100 0)"/>
      <use xlink:href="#SimHei-6e" transform="translate(150 0)"/>
      <use xlink:href="#SimHei-5f" transform="translate(200 0)"/>
      <use xlink:href="#SimHei-61" transform="translate(250 0)"/>
      <use xlink:href="#SimHei-6d" transform="translate(300 0)"/>
      <use xlink:href="#SimHei-74" transform="translate(350 0)"/>
     </g>
    </g>
   </g>
   <g id="matplotlib.axis_2">
    <g id="ytick_1">
     <g id="line2d_15">
      <path d="M 50.297656 282.384 
L 329.297656 282.384 
" clip-path="url(#p2c9fd446b0)" style="fill: none; stroke: #b0b0b0; stroke-opacity: 0.22; stroke-width: 0.8; stroke-linecap: square"/>
     </g>
     <g id="line2d_16">
      <defs>
       <path id="me0fe1cef27" d="M 0 0 
L -3.5 0 
" style="stroke: #000000; stroke-width: 0.8"/>
      </defs>
      <g>
       <use xlink:href="#me0fe1cef27" x="50.297656" y="282.384" style="stroke: #000000; stroke-width: 0.8"/>
      </g>
     </g>
     <g id="text_9">
      <!-- 0 -->
      <g transform="translate(37.797656 286.16525) scale(0.11 -0.11)">
       <use xlink:href="#SimHei-30"/>
      </g>
     </g>
    </g>
    <g id="ytick_2">
     <g id="line2d_17">
      <path d="M 50.297656 246.529513 
L 329.297656 246.529513 
" clip-path="url(#p2c9fd446b0)" style="fill: none; stroke: #b0b0b0; stroke-opacity: 0.22; stroke-width: 0.8; stroke-linecap: square"/>
     </g>
     <g id="line2d_18">
      <g>
       <use xlink:href="#me0fe1cef27" x="50.297656" y="246.529513" style="stroke: #000000; stroke-width: 0.8"/>
      </g>
     </g>
     <g id="text_10">
      <!-- 200 -->
      <g transform="translate(26.797656 250.310763) scale(0.11 -0.11)">
       <use xlink:href="#SimHei-32"/>
       <use xlink:href="#SimHei-30" transform="translate(50 0)"/>
       <use xlink:href="#SimHei-30" transform="translate(100 0)"/>
      </g>
     </g>
    </g>
    <g id="ytick_3">
     <g id="line2d_19">
      <path d="M 50.297656 210.675027 
L 329.297656 210.675027 
" clip-path="url(#p2c9fd446b0)" style="fill: none; stroke: #b0b0b0; stroke-opacity: 0.22; stroke-width: 0.8; stroke-linecap: square"/>
     </g>
     <g id="line2d_20">
      <g>
       <use xlink:href="#me0fe1cef27" x="50.297656" y="210.675027" style="stroke: #000000; stroke-width: 0.8"/>
      </g>
     </g>
     <g id="text_11">
      <!-- 400 -->
      <g transform="translate(26.797656 214.456277) scale(0.11 -0.11)">
       <defs>
        <path id="SimHei-34" d="M 2000 1100 
L 75 1100 
L 75 1525 
L 2100 4450 
L 2475 4450 
L 2475 1525 
L 3075 1525 
L 3075 1100 
L 2475 1100 
L 2475 150 
L 2000 150 
L 2000 1100 
z
M 2000 1525 
L 2000 3500 
L 600 1525 
L 2000 1525 
z
" transform="scale(0.015625)"/>
       </defs>
       <use xlink:href="#SimHei-34"/>
       <use xlink:href="#SimHei-30" transform="translate(50 0)"/>
       <use xlink:href="#SimHei-30" transform="translate(100 0)"/>
      </g>
     </g>
    </g>
    <g id="ytick_4">
     <g id="line2d_21">
      <path d="M 50.297656 174.82054 
L 329.297656 174.82054 
" clip-path="url(#p2c9fd446b0)" style="fill: none; stroke: #b0b0b0; stroke-opacity: 0.22; stroke-width: 0.8; stroke-linecap: square"/>
     </g>
     <g id="line2d_22">
      <g>
       <use xlink:href="#me0fe1cef27" x="50.297656" y="174.82054" style="stroke: #000000; stroke-width: 0.8"/>
      </g>
     </g>
     <g id="text_12">
      <!-- 600 -->
      <g transform="translate(26.797656 178.60179) scale(0.11 -0.11)">
       <defs>
        <path id="SimHei-36" d="M 250 1612 
Q 275 1975 387 2225 
Q 500 2475 725 2850 
L 1750 4450 
L 2325 4450 
L 1275 2800 
Q 1950 2975 2350 2750 
Q 2750 2525 2887 2237 
Q 3025 1950 3037 1612 
Q 3050 1275 2937 950 
Q 2825 625 2537 362 
Q 2250 100 1737 75 
Q 1225 50 862 262 
Q 500 475 362 862 
Q 225 1250 250 1612 
z
M 1025 787 
Q 1250 550 1625 525 
Q 2000 500 2250 775 
Q 2500 1050 2500 1575 
Q 2500 2100 2187 2300 
Q 1875 2500 1487 2450 
Q 1100 2400 925 2075 
Q 750 1750 775 1387 
Q 800 1025 1025 787 
z
" transform="scale(0.015625)"/>
       </defs>
       <use xlink:href="#SimHei-36"/>
       <use xlink:href="#SimHei-30" transform="translate(50 0)"/>
       <use xlink:href="#SimHei-30" transform="translate(100 0)"/>
      </g>
     </g>
    </g>
    <g id="ytick_5">
     <g id="line2d_23">
      <path d="M 50.297656 138.966053 
L 329.297656 138.966053 
" clip-path="url(#p2c9fd446b0)" style="fill: none; stroke: #b0b0b0; stroke-opacity: 0.22; stroke-width: 0.8; stroke-linecap: square"/>
     </g>
     <g id="line2d_24">
      <g>
       <use xlink:href="#me0fe1cef27" x="50.297656" y="138.966053" style="stroke: #000000; stroke-width: 0.8"/>
      </g>
     </g>
     <g id="text_13">
      <!-- 800 -->
      <g transform="translate(26.797656 142.747303) scale(0.11 -0.11)">
       <defs>
        <path id="SimHei-38" d="M 175 1375 
Q 175 1675 325 1962 
Q 475 2250 825 2425 
Q 525 2600 425 2812 
Q 325 3025 312 3300 
Q 300 3575 387 3775 
Q 475 3975 650 4150 
Q 825 4325 1037 4387 
Q 1250 4450 1500 4450 
Q 1750 4450 1950 4400 
Q 2150 4350 2375 4187 
Q 2600 4025 2700 3725 
Q 2800 3425 2687 3025 
Q 2575 2625 2100 2400 
Q 2525 2275 2700 2012 
Q 2875 1750 2875 1375 
Q 2875 1000 2762 775 
Q 2650 550 2512 400 
Q 2375 250 2137 162 
Q 1900 75 1537 75 
Q 1175 75 912 162 
Q 650 250 475 425 
Q 300 600 237 837 
Q 175 1075 175 1375 
z
M 687 1400 
Q 675 1100 787 875 
Q 900 650 1200 587 
Q 1500 525 1825 600 
Q 2150 675 2275 950 
Q 2400 1225 2362 1500 
Q 2325 1775 2050 1962 
Q 1775 2150 1450 2125 
Q 1125 2100 912 1900 
Q 700 1700 687 1400 
z
M 775 3350 
Q 775 3100 950 2875 
Q 1125 2650 1500 2650 
Q 1875 2650 2062 2875 
Q 2250 3100 2237 3412 
Q 2225 3725 2012 3875 
Q 1800 4025 1437 4000 
Q 1075 3975 925 3787 
Q 775 3600 775 3350 
z
" transform="scale(0.015625)"/>
       </defs>
       <use xlink:href="#SimHei-38"/>
       <use xlink:href="#SimHei-30" transform="translate(50 0)"/>
       <use xlink:href="#SimHei-30" transform="translate(100 0)"/>
      </g>
     </g>
    </g>
    <g id="ytick_6">
     <g id="line2d_25">
      <path d="M 50.297656 103.111567 
L 329.297656 103.111567 
" clip-path="url(#p2c9fd446b0)" style="fill: none; stroke: #b0b0b0; stroke-opacity: 0.22; stroke-width: 0.8; stroke-linecap: square"/>
     </g>
     <g id="line2d_26">
      <g>
       <use xlink:href="#me0fe1cef27" x="50.297656" y="103.111567" style="stroke: #000000; stroke-width: 0.8"/>
      </g>
     </g>
     <g id="text_14">
      <!-- 1000 -->
      <g transform="translate(21.297656 106.892817) scale(0.11 -0.11)">
       <use xlink:href="#SimHei-31"/>
       <use xlink:href="#SimHei-30" transform="translate(50 0)"/>
       <use xlink:href="#SimHei-30" transform="translate(100 0)"/>
       <use xlink:href="#SimHei-30" transform="translate(150 0)"/>
      </g>
     </g>
    </g>
    <g id="ytick_7">
     <g id="line2d_27">
      <path d="M 50.297656 67.25708 
L 329.297656 67.25708 
" clip-path="url(#p2c9fd446b0)" style="fill: none; stroke: #b0b0b0; stroke-opacity: 0.22; stroke-width: 0.8; stroke-linecap: square"/>
     </g>
     <g id="line2d_28">
      <g>
       <use xlink:href="#me0fe1cef27" x="50.297656" y="67.25708" style="stroke: #000000; stroke-width: 0.8"/>
      </g>
     </g>
     <g id="text_15">
      <!-- 1200 -->
      <g transform="translate(21.297656 71.03833) scale(0.11 -0.11)">
       <use xlink:href="#SimHei-31"/>
       <use xlink:href="#SimHei-32" transform="translate(50 0)"/>
       <use xlink:href="#SimHei-30" transform="translate(100 0)"/>
       <use xlink:href="#SimHei-30" transform="translate(150 0)"/>
      </g>
     </g>
    </g>
    <g id="text_16">
     <!-- 样本数 -->
     <g transform="translate(15.922656 182.46) rotate(-90) scale(0.11 -0.11)">
      <defs>
       <path id="SimHei-6837" d="M 4350 4025 
Q 4600 4575 4850 5225 
Q 5250 5075 5375 5000 
Q 5150 4725 4850 4025 
L 4950 4025 
Q 5650 4050 5950 4050 
L 5950 3600 
Q 5675 3625 5175 3625 
L 4550 3625 
L 4550 2650 
L 4950 2650 
Q 5525 2675 5800 2675 
L 5800 2225 
Q 5475 2250 5025 2250 
L 4550 2250 
L 4550 1225 
L 5325 1225 
Q 5800 1250 6100 1250 
L 6100 800 
Q 5825 825 5325 825 
L 4550 825 
L 4550 275 
Q 4550 -250 4575 -600 
L 4075 -600 
L 4075 825 
L 3475 825 
Q 3000 825 2550 800 
L 2550 1275 
Q 3000 1250 3500 1225 
L 4075 1225 
L 4075 2250 
L 3650 2250 
Q 3225 2250 2900 2225 
L 2900 2700 
Q 3200 2675 3675 2650 
L 4075 2650 
L 4075 3625 
L 3475 3625 
Q 3050 3625 2750 3600 
L 2750 4075 
Q 3050 4050 3475 4025 
L 4350 4025 
z
M 1325 4350 
Q 1325 4775 1300 5125 
L 1825 5125 
Q 1800 4725 1800 4350 
L 1800 3750 
Q 2125 3750 2475 3775 
L 2475 3325 
Q 2125 3350 1800 3350 
L 1800 2425 
Q 2000 2600 2100 2675 
Q 2375 2325 2725 1775 
Q 2575 1700 2300 1475 
Q 2025 1975 1800 2350 
L 1800 475 
Q 1800 -50 1825 -575 
L 1300 -575 
Q 1325 -25 1325 475 
L 1325 2250 
Q 925 1300 525 725 
Q 425 950 225 1175 
Q 950 2150 1225 3350 
Q 825 3350 350 3325 
L 350 3775 
Q 825 3750 1325 3750 
L 1325 4350 
z
M 3575 5200 
Q 3800 4775 3950 4350 
Q 3650 4250 3525 4175 
Q 3350 4600 3150 5000 
Q 3425 5125 3575 5200 
z
" transform="scale(0.015625)"/>
       <path id="SimHei-672c" d="M 2950 3925 
L 2950 4425 
Q 2950 4825 2925 5175 
L 3475 5175 
Q 3450 4900 3450 4450 
L 3450 3925 
L 4850 3925 
Q 5275 3925 5850 3950 
L 5850 3475 
Q 5300 3500 4875 3500 
L 3850 3500 
Q 4200 2350 4862 1687 
Q 5525 1025 6075 800 
Q 5850 625 5650 325 
Q 4800 900 4262 1637 
Q 3725 2375 3450 3350 
L 3450 1000 
L 3775 1000 
Q 4175 1000 4600 1025 
L 4600 550 
Q 4175 575 3750 575 
L 3450 575 
Q 3450 0 3475 -600 
L 2925 -600 
Q 2950 0 2950 575 
L 2625 575 
Q 2225 575 1825 550 
L 1825 1025 
Q 2225 1000 2625 1000 
L 2950 1000 
L 2950 3300 
Q 2550 2275 2062 1575 
Q 1575 875 750 175 
Q 550 450 275 575 
Q 1100 1075 1650 1825 
Q 2200 2575 2525 3500 
L 1425 3500 
Q 1025 3500 575 3475 
L 575 3950 
Q 1025 3925 1400 3925 
L 2950 3925 
z
" transform="scale(0.015625)"/>
       <path id="SimHei-6570" d="M 4525 4925 
Q 4475 4800 4400 4587 
Q 4325 4375 4175 3825 
L 5325 3825 
Q 5575 3825 5925 3850 
L 5925 3400 
Q 5650 3425 5500 3425 
Q 5500 3025 5362 2162 
Q 5225 1300 4875 675 
Q 5125 375 5437 137 
Q 5750 -100 6025 -200 
Q 5725 -425 5625 -625 
Q 5325 -450 5075 -225 
Q 4825 0 4575 325 
Q 4300 25 3987 -187 
Q 3675 -400 3200 -650 
Q 3075 -425 2850 -300 
Q 3225 -150 3650 125 
Q 4075 400 4300 675 
Q 4125 1025 3962 1425 
Q 3800 1825 3675 2475 
Q 3600 2275 3425 1950 
Q 3250 2050 3000 2150 
Q 3400 2850 3650 3675 
Q 3900 4500 3975 5100 
Q 4275 4975 4525 4925 
z
M 2100 2250 
Q 2000 2150 1875 1925 
L 3250 1925 
Q 3100 1300 2725 675 
Q 3125 525 3350 400 
Q 3225 225 3125 25 
Q 2900 175 2450 325 
Q 1950 -225 725 -650 
Q 600 -375 400 -275 
Q 1575 0 2000 475 
Q 1300 650 850 775 
Q 1000 1000 1250 1525 
Q 1000 1525 425 1500 
L 425 1950 
Q 900 1925 1400 1925 
Q 1500 2150 1550 2425 
Q 1825 2325 2100 2250 
z
M 1775 3950 
Q 1775 4550 1750 5100 
L 2250 5100 
Q 2225 4575 2225 3950 
Q 3075 3950 3425 3975 
L 3425 3525 
Q 3075 3550 2225 3550 
Q 2225 2825 2250 2425 
L 1750 2425 
Q 1775 2775 1775 3300 
Q 1650 3100 1300 2787 
Q 950 2475 650 2300 
Q 525 2525 275 2625 
Q 500 2700 875 2975 
Q 1250 3250 1450 3550 
Q 950 3550 500 3525 
L 500 3975 
Q 925 3950 1775 3950 
z
M 3975 3175 
Q 4200 1700 4600 1125 
Q 4850 1700 4937 2287 
Q 5025 2875 5050 3425 
L 4075 3425 
L 3975 3175 
z
M 1450 1000 
Q 1750 925 2275 800 
Q 2475 1050 2650 1525 
L 1725 1525 
Q 1600 1275 1450 1000 
z
M 3325 4825 
Q 3200 4625 3125 4450 
Q 3050 4275 2925 4025 
Q 2725 4125 2525 4175 
Q 2725 4500 2900 5000 
Q 3150 4875 3325 4825 
z
M 2575 3375 
Q 2900 3050 3200 2725 
Q 3050 2600 2875 2425 
Q 2525 2850 2300 3100 
Q 2450 3225 2575 3375 
z
M 925 5000 
Q 1275 4650 1500 4300 
L 1125 4075 
Q 950 4425 600 4725 
Q 825 4875 925 5000 
z
" transform="scale(0.015625)"/>
      </defs>
      <use xlink:href="#SimHei-6837"/>
      <use xlink:href="#SimHei-672c" transform="translate(100 0)"/>
      <use xlink:href="#SimHei-6570" transform="translate(200 0)"/>
     </g>
    </g>
   </g>
   <g id="line2d_29">
    <path d="M 62.979474 282.384 
L 62.979474 49.536 
" clip-path="url(#p2c9fd446b0)" style="fill: none; stroke: #000000; stroke-width: 1.2; stroke-linecap: square"/>
   </g>
   <g id="patch_42">
    <path d="M 50.297656 282.384 
L 50.297656 49.536 
" style="fill: none; stroke: #000000; stroke-width: 0.8; stroke-linejoin: miter; stroke-linecap: square"/>
   </g>
   <g id="patch_43">
    <path d="M 50.297656 282.384 
L 329.297656 282.384 
" style="fill: none; stroke: #000000; stroke-width: 0.8; stroke-linejoin: miter; stroke-linecap: square"/>
   </g>
   <g id="text_17">
    <!-- 贷款金额：未贷款企业记为 0 -->
    <g transform="translate(103.997656 43.536) scale(0.132 -0.132)">
     <defs>
      <path id="SimHei-8d37" d="M 2975 5125 
Q 3250 5150 3500 5200 
Q 3550 4900 3600 4662 
Q 3650 4425 3750 4100 
Q 4675 4250 5700 4475 
L 5800 4050 
Q 5500 4025 5037 3937 
Q 4575 3850 3950 3750 
Q 4300 3250 4675 3012 
Q 5050 2775 5225 2850 
Q 5400 2925 5500 3400 
Q 5700 3250 6050 3175 
Q 5875 2775 5637 2525 
Q 5400 2275 4887 2412 
Q 4375 2550 4000 2937 
Q 3625 3325 3425 3675 
Q 2900 3550 2075 3400 
L 1950 3800 
Q 2375 3850 3275 4025 
L 2975 5125 
z
M 5275 2300 
Q 5250 1925 5250 1500 
Q 5250 1100 5275 625 
L 4700 625 
L 4700 1900 
L 1750 1900 
L 1750 550 
L 1200 550 
Q 1225 1175 1225 1550 
Q 1225 1925 1200 2300 
L 5275 2300 
z
M 3525 1450 
Q 3375 1075 3275 762 
Q 3175 450 2887 175 
Q 2600 -100 2075 -312 
Q 1550 -525 650 -650 
Q 525 -375 325 -125 
Q 1000 -100 1437 -12 
Q 1875 75 2200 287 
Q 2525 500 2687 775 
Q 2850 1050 2900 1600 
Q 3175 1500 3525 1450 
z
M 2250 4875 
Q 2050 4775 1650 4275 
Q 1650 2900 1675 2525 
L 1150 2525 
Q 1175 2900 1175 3875 
Q 800 3475 600 3300 
Q 400 3525 225 3675 
Q 775 4000 1112 4375 
Q 1450 4750 1750 5250 
L 2250 4875 
z
M 3900 675 
Q 4425 450 5875 -225 
Q 5675 -450 5525 -650 
Q 4725 -200 3575 275 
Q 3750 500 3900 675 
z
M 4500 5250 
Q 4675 5075 5100 4675 
Q 4825 4500 4650 4375 
Q 4475 4650 4100 4950 
Q 4325 5075 4500 5250 
z
" transform="scale(0.015625)"/>
      <path id="SimHei-6b3e" d="M 4900 2700 
Q 4850 2500 4812 2237 
Q 4775 1975 4925 1462 
Q 5075 950 5450 512 
Q 5825 75 6200 -100 
Q 5900 -350 5800 -525 
Q 5275 -75 5025 300 
Q 4775 675 4625 1125 
Q 4475 650 4225 250 
Q 3975 -150 3425 -625 
Q 3225 -300 3100 -200 
Q 3400 0 3637 275 
Q 3875 550 4025 862 
Q 4175 1175 4237 1487 
Q 4300 1800 4312 2112 
Q 4325 2425 4325 2800 
Q 4675 2725 4900 2700 
z
M 1775 4500 
Q 1775 4850 1750 5175 
L 2250 5175 
Q 2225 4875 2225 4500 
L 2650 4500 
Q 3050 4500 3500 4525 
L 3500 4075 
Q 3050 4125 2650 4125 
L 2225 4125 
L 2225 3575 
L 2475 3575 
Q 2800 3575 3250 3600 
L 3250 3175 
Q 2800 3200 2475 3200 
L 1450 3200 
Q 1125 3200 625 3150 
L 625 3600 
Q 1100 3575 1450 3575 
L 1775 3575 
L 1775 4125 
L 1250 4125 
Q 925 4125 450 4075 
L 450 4525 
Q 925 4500 1225 4500 
L 1775 4500 
z
M 4250 3525 
Q 4050 3050 3750 2600 
Q 3500 2775 3300 2850 
Q 3600 3225 3762 3625 
Q 3925 4025 4037 4387 
Q 4150 4750 4200 5075 
Q 4475 4950 4750 4900 
Q 4550 4500 4375 3925 
L 6150 3925 
Q 6050 3550 5962 3262 
Q 5875 2975 5800 2700 
L 5300 2750 
Q 5450 3150 5550 3525 
L 4250 3525 
z
M 2650 1825 
Q 3050 1825 3425 1850 
L 3425 1400 
Q 3050 1450 2650 1450 
L 2225 1450 
L 2225 100 
Q 2225 -275 2037 -375 
Q 1850 -475 1375 -575 
Q 1325 -300 1125 -25 
Q 1625 -50 1687 25 
Q 1750 100 1750 225 
L 1750 1450 
L 1175 1450 
Q 825 1450 400 1400 
L 400 1850 
Q 850 1825 1200 1825 
L 2650 1825 
z
M 2450 2700 
Q 2775 2700 3200 2725 
L 3200 2275 
Q 2800 2325 2450 2325 
L 1400 2325 
Q 1050 2325 650 2275 
L 650 2725 
Q 1050 2700 1400 2700 
L 2450 2700 
z
M 1400 975 
Q 1275 775 1100 475 
Q 925 175 675 -150 
Q 550 25 275 150 
Q 450 350 625 625 
Q 800 900 925 1225 
Q 1175 1100 1400 975 
z
M 2900 1175 
Q 3000 1000 3125 800 
Q 3250 600 3400 325 
Q 3175 200 2975 50 
L 2750 500 
Q 2650 700 2475 925 
Q 2650 1025 2900 1175 
z
" transform="scale(0.015625)"/>
      <path id="SimHei-91d1" d="M 1800 1250 
Q 2200 700 2500 225 
Q 2325 125 2150 -50 
L 2925 -50 
L 2925 1400 
L 2075 1400 
Q 1725 1400 1100 1375 
L 1100 1850 
Q 1725 1825 2050 1825 
L 2925 1825 
L 2925 2600 
Q 2100 2600 1625 2575 
L 1625 2975 
Q 1225 2675 650 2350 
Q 500 2575 275 2775 
Q 750 2950 1250 3300 
Q 1750 3650 2225 4162 
Q 2700 4675 3000 5250 
Q 3050 5200 3525 4975 
L 3375 4825 
Q 3650 4525 4050 4150 
Q 4450 3775 5000 3487 
Q 5550 3200 6150 3025 
Q 5950 2825 5825 2550 
Q 5325 2725 4800 3000 
L 4800 2575 
Q 4300 2600 4000 2600 
L 3400 2600 
L 3400 1825 
L 4275 1825 
Q 4700 1825 5325 1850 
L 5325 1375 
Q 4725 1400 4275 1400 
L 3400 1400 
L 3400 -50 
L 3875 -50 
Q 4450 950 4500 1300 
Q 4725 1150 5050 1000 
Q 4875 775 4375 -50 
Q 5150 -50 5875 -25 
L 5875 -500 
Q 5150 -475 4700 -475 
L 1725 -475 
Q 1200 -475 700 -500 
L 700 -25 
Q 1225 -50 1725 -50 
L 2025 -50 
Q 1850 350 1400 950 
Q 1625 1100 1800 1250 
z
M 1700 3050 
Q 2075 3025 2400 3025 
L 3900 3025 
Q 4275 3050 4700 3050 
Q 4275 3350 3837 3762 
Q 3400 4175 3125 4525 
Q 2850 4150 2462 3762 
Q 2075 3375 1700 3050 
z
" transform="scale(0.015625)"/>
      <path id="SimHei-989d" d="M 1925 3700 
Q 1725 3550 1550 3350 
L 2950 3350 
Q 2875 3150 2700 2875 
Q 2525 2600 2300 2300 
Q 2500 2200 2712 2075 
Q 2925 1950 3275 1725 
Q 3125 1575 2950 1325 
Q 2700 1525 2475 1662 
Q 2250 1800 1950 1950 
Q 1575 1650 1150 1375 
L 2800 1375 
Q 2775 950 2775 500 
Q 2775 50 2800 -450 
L 2325 -450 
L 2325 -50 
L 1325 -50 
L 1325 -575 
L 875 -575 
Q 900 -75 900 275 
L 900 1175 
Q 675 1075 550 1000 
Q 400 1225 225 1400 
Q 625 1550 975 1762 
Q 1325 1975 1550 2200 
Q 1300 2350 1075 2475 
Q 1175 2625 1350 2800 
Q 1625 2650 1925 2500 
Q 2150 2750 2300 3000 
L 1300 3000 
Q 1200 2875 1025 2687 
Q 850 2500 650 2275 
Q 475 2425 250 2575 
Q 650 2875 937 3237 
Q 1225 3600 1375 3925 
Q 1650 3800 1925 3700 
z
M 4150 4400 
Q 3775 4400 3375 4375 
L 3375 4825 
Q 3750 4800 4200 4800 
L 5300 4800 
Q 5600 4800 6000 4825 
L 6000 4375 
Q 5625 4400 5300 4400 
L 4950 4400 
Q 4850 3975 4725 3525 
L 5750 3525 
Q 5725 3125 5725 2775 
L 5725 1625 
Q 5725 1300 5750 825 
L 5300 825 
L 5300 3175 
L 3925 3175 
L 3925 800 
L 3450 800 
Q 3475 1275 3475 1650 
L 3475 2800 
Q 3475 3175 3450 3525 
L 4300 3525 
Q 4400 4025 4450 4400 
L 4150 4400 
z
M 2050 5100 
Q 2100 4825 2200 4475 
L 3225 4475 
Q 3200 4275 3200 4075 
Q 3200 3875 3225 3675 
L 2775 3675 
L 2775 4100 
L 875 4100 
L 875 3500 
L 400 3500 
Q 425 3775 425 4000 
Q 425 4250 400 4475 
L 1650 4475 
Q 1550 4750 1475 5000 
Q 1800 5050 2050 5100 
z
M 4925 2725 
Q 4850 2425 4837 2025 
Q 4825 1625 4712 1175 
Q 4600 725 4262 250 
Q 3925 -225 3250 -675 
Q 3050 -425 2850 -250 
Q 3375 -25 3687 262 
Q 4000 550 4162 937 
Q 4325 1325 4350 1750 
Q 4375 2175 4375 2775 
Q 4575 2750 4925 2725 
z
M 2325 325 
L 2325 1025 
L 1325 1025 
L 1325 325 
L 2325 325 
z
M 5075 800 
Q 5300 575 5487 400 
Q 5675 225 6025 -100 
Q 5800 -275 5600 -500 
Q 5450 -275 5275 -87 
Q 5100 100 4675 400 
Q 4875 575 5075 800 
z
" transform="scale(0.015625)"/>
      <path id="SimHei-ff1a" d="M 1200 2425 
L 2025 2425 
L 2025 1600 
L 1200 1600 
L 1200 2425 
z
M 1200 825 
L 2025 825 
L 2025 0 
L 1200 0 
L 1200 825 
z
" transform="scale(0.015625)"/>
      <path id="SimHei-672a" d="M 2875 4150 
Q 2875 4900 2850 5225 
L 3400 5225 
Q 3375 4925 3375 4150 
L 4475 4150 
Q 4950 4150 5375 4175 
L 5375 3725 
Q 4950 3750 4475 3750 
L 3375 3750 
L 3375 2750 
L 4850 2750 
Q 5400 2750 5875 2775 
L 5875 2325 
Q 5400 2350 4875 2350 
L 3675 2350 
Q 4125 1675 4662 1187 
Q 5200 700 6175 425 
Q 5850 275 5725 -100 
Q 5050 150 4462 650 
Q 3875 1150 3375 2050 
L 3375 300 
Q 3375 -175 3400 -575 
L 2825 -575 
Q 2875 -175 2875 300 
L 2875 2125 
Q 2275 1150 1700 650 
Q 1125 150 675 -150 
Q 575 75 225 300 
Q 650 450 1312 1000 
Q 1975 1550 2475 2350 
L 1225 2350 
Q 675 2350 375 2325 
L 375 2775 
Q 750 2750 1275 2750 
L 2875 2750 
L 2875 3750 
L 1825 3750 
Q 1225 3750 850 3725 
L 850 4175 
Q 1225 4150 1775 4150 
L 2875 4150 
z
" transform="scale(0.015625)"/>
      <path id="SimHei-4f01" d="M 1450 -300 
Q 1300 -300 700 -325 
L 700 150 
Q 1375 125 1350 125 
L 1625 125 
L 1625 1725 
Q 1625 2025 1575 2500 
L 2175 2500 
Q 2125 2025 2125 1725 
L 2125 125 
L 3100 125 
L 3100 2550 
Q 3100 2850 3075 3325 
L 3625 3325 
Q 3600 2875 3600 2075 
L 4375 2075 
Q 4775 2075 5250 2100 
L 5250 1625 
Q 4800 1650 4400 1650 
L 3600 1650 
L 3600 125 
L 5150 125 
Q 5225 125 5675 150 
L 5675 -325 
Q 5225 -300 5125 -300 
L 1450 -300 
z
M 3450 4800 
Q 4275 3525 6150 3000 
Q 5900 2825 5775 2450 
Q 3825 3275 3175 4475 
Q 2325 3225 575 2300 
Q 400 2625 200 2800 
Q 1475 3300 2162 4037 
Q 2850 4775 3000 5225 
Q 3150 5125 3575 4975 
L 3450 4800 
z
" transform="scale(0.015625)"/>
      <path id="SimHei-4e1a" d="M 2825 5025 
Q 2775 4325 2775 3825 
L 2775 150 
L 3600 150 
L 3600 4125 
Q 3600 4525 3550 5025 
L 4175 5025 
Q 4125 4625 4125 4175 
L 4125 150 
L 5100 150 
Q 5500 150 6075 200 
L 6075 -350 
Q 5500 -300 5125 -300 
L 1325 -300 
Q 975 -300 325 -350 
L 325 200 
Q 975 150 1300 150 
L 2225 150 
L 2225 3850 
Q 2225 4375 2150 5025 
L 2825 5025 
z
M 1025 3775 
Q 1325 3000 1850 1500 
Q 1575 1450 1275 1300 
Q 825 2750 475 3550 
Q 725 3650 1025 3775 
z
M 5850 3625 
Q 5525 2775 4950 1250 
Q 4700 1400 4425 1475 
Q 4950 2450 5225 3825 
Q 5500 3725 5850 3625 
z
" transform="scale(0.015625)"/>
      <path id="SimHei-8bb0" d="M 5600 4700 
Q 5575 4325 5575 3775 
L 5575 2925 
Q 5575 2375 5600 1925 
L 5100 1925 
L 5100 2300 
L 3350 2300 
L 3350 400 
Q 3350 -75 3825 -100 
L 5000 -100 
Q 5375 -100 5437 125 
Q 5500 350 5575 775 
Q 5700 650 5850 575 
Q 6000 500 6150 475 
Q 6000 -50 5850 -287 
Q 5700 -525 5325 -525 
L 3575 -525 
Q 2900 -525 2900 150 
L 2900 1925 
Q 2900 2350 2875 2725 
L 5100 2725 
L 5100 4275 
L 3575 4275 
Q 3200 4275 2625 4250 
L 2625 4725 
Q 3100 4700 3550 4700 
L 5600 4700 
z
M 2675 725 
Q 2450 550 2100 225 
Q 1750 -100 1350 -475 
Q 1150 -200 975 -25 
Q 1275 250 1275 650 
L 1275 2825 
L 800 2825 
Q 650 2825 325 2800 
L 325 3275 
Q 650 3250 800 3250 
L 1775 3250 
Q 1750 2700 1750 2325 
L 1750 500 
Q 1975 725 2450 1225 
Q 2550 950 2675 725 
z
M 1175 5050 
Q 1500 4775 2225 4125 
Q 2025 3925 1850 3725 
Q 1525 4125 850 4700 
Q 1000 4850 1175 5050 
z
" transform="scale(0.015625)"/>
      <path id="SimHei-4e3a" d="M 3525 5125 
Q 3425 4900 3387 4475 
Q 3350 4050 3275 3350 
L 5850 3350 
Q 5800 2925 5775 2625 
L 5500 125 
Q 5425 -325 5025 -450 
Q 4625 -575 4025 -600 
Q 3950 -250 3775 0 
Q 4525 -50 4750 25 
Q 4975 100 5025 475 
L 5275 2925 
L 3225 2925 
Q 3000 1775 2387 925 
Q 1775 75 850 -600 
Q 600 -275 400 -150 
Q 1200 250 1837 1037 
Q 2475 1825 2700 2925 
L 1875 2925 
Q 1450 2925 775 2900 
L 775 3375 
Q 1450 3350 1700 3350 
L 2775 3350 
Q 2875 4200 2875 5225 
Q 3275 5150 3525 5125 
z
M 3500 2175 
Q 4125 1775 4750 1350 
Q 4600 1200 4400 850 
Q 3850 1350 3250 1725 
Q 3425 2000 3500 2175 
z
M 1125 4550 
Q 1350 4725 1500 4900 
Q 2200 4225 2450 3925 
Q 2250 3750 2025 3550 
Q 1750 3950 1125 4550 
z
" transform="scale(0.015625)"/>
      <path id="SimHei-20" transform="scale(0.015625)"/>
     </defs>
     <use xlink:href="#SimHei-8d37"/>
     <use xlink:href="#SimHei-6b3e" transform="translate(100 0)"/>
     <use xlink:href="#SimHei-91d1" transform="translate(200 0)"/>
     <use xlink:href="#SimHei-989d" transform="translate(300 0)"/>
     <use xlink:href="#SimHei-ff1a" transform="translate(400 0)"/>
     <use xlink:href="#SimHei-672a" transform="translate(500 0)"/>
     <use xlink:href="#SimHei-8d37" transform="translate(600 0)"/>
     <use xlink:href="#SimHei-6b3e" transform="translate(700 0)"/>
     <use xlink:href="#SimHei-4f01" transform="translate(800 0)"/>
     <use xlink:href="#SimHei-4e1a" transform="translate(900 0)"/>
     <use xlink:href="#SimHei-8bb0" transform="translate(1000 0)"/>
     <use xlink:href="#SimHei-4e3a" transform="translate(1100 0)"/>
     <use xlink:href="#SimHei-20" transform="translate(1200 0)"/>
     <use xlink:href="#SimHei-30" transform="translate(1250 0)"/>
    </g>
   </g>
  </g>
  <g id="axes_2">
   <g id="patch_44">
    <path d="M 385.097656 282.384 
L 664.097656 282.384 
L 664.097656 49.536 
L 385.097656 49.536 
z
" style="fill: #ffffff"/>
   </g>
   <g id="patch_45">
    <path d="M 397.779474 282.384 
L 405.026228 282.384 
L 405.026228 279.193209 
L 397.779474 279.193209 
z
" clip-path="url(#p522f650542)" style="fill: #1f77b4; opacity: 0.85"/>
   </g>
   <g id="patch_46">
    <path d="M 405.026228 282.384 
L 412.272981 282.384 
L 412.272981 276.002417 
L 405.026228 276.002417 
z
" clip-path="url(#p522f650542)" style="fill: #1f77b4; opacity: 0.85"/>
   </g>
   <g id="patch_47">
    <path d="M 412.272981 282.384 
L 419.519734 282.384 
L 419.519734 274.407022 
L 412.272981 274.407022 
z
" clip-path="url(#p522f650542)" style="fill: #1f77b4; opacity: 0.85"/>
   </g>
   <g id="patch_48">
    <path d="M 419.519734 282.384 
L 426.766487 282.384 
L 426.766487 274.407022 
L 419.519734 274.407022 
z
" clip-path="url(#p522f650542)" style="fill: #1f77b4; opacity: 0.85"/>
   </g>
   <g id="patch_49">
    <path d="M 426.766487 282.384 
L 434.013241 282.384 
L 434.013241 264.834647 
L 426.766487 264.834647 
z
" clip-path="url(#p522f650542)" style="fill: #1f77b4; opacity: 0.85"/>
   </g>
   <g id="patch_50">
    <path d="M 434.013241 282.384 
L 441.259994 282.384 
L 441.259994 253.666878 
L 434.013241 253.666878 
z
" clip-path="url(#p522f650542)" style="fill: #1f77b4; opacity: 0.85"/>
   </g>
   <g id="patch_51">
    <path d="M 441.259994 282.384 
L 448.506747 282.384 
L 448.506747 245.689899 
L 441.259994 245.689899 
z
" clip-path="url(#p522f650542)" style="fill: #1f77b4; opacity: 0.85"/>
   </g>
   <g id="patch_52">
    <path d="M 448.506747 282.384 
L 455.7535 282.384 
L 455.7535 240.903712 
L 448.506747 240.903712 
z
" clip-path="url(#p522f650542)" style="fill: #1f77b4; opacity: 0.85"/>
   </g>
   <g id="patch_53">
    <path d="M 455.7535 282.384 
L 463.000254 282.384 
L 463.000254 221.758964 
L 455.7535 221.758964 
z
" clip-path="url(#p522f650542)" style="fill: #1f77b4; opacity: 0.85"/>
   </g>
   <g id="patch_54">
    <path d="M 463.000254 282.384 
L 470.247007 282.384 
L 470.247007 205.805007 
L 463.000254 205.805007 
z
" clip-path="url(#p522f650542)" style="fill: #1f77b4; opacity: 0.85"/>
   </g>
   <g id="patch_55">
    <path d="M 470.247007 282.384 
L 477.49376 282.384 
L 477.49376 189.85105 
L 470.247007 189.85105 
z
" clip-path="url(#p522f650542)" style="fill: #1f77b4; opacity: 0.85"/>
   </g>
   <g id="patch_56">
    <path d="M 477.49376 282.384 
L 484.740513 282.384 
L 484.740513 154.752345 
L 477.49376 154.752345 
z
" clip-path="url(#p522f650542)" style="fill: #1f77b4; opacity: 0.85"/>
   </g>
   <g id="patch_57">
    <path d="M 484.740513 282.384 
L 491.987267 282.384 
L 491.987267 126.035223 
L 484.740513 126.035223 
z
" clip-path="url(#p522f650542)" style="fill: #1f77b4; opacity: 0.85"/>
   </g>
   <g id="patch_58">
    <path d="M 491.987267 282.384 
L 499.23402 282.384 
L 499.23402 118.058245 
L 491.987267 118.058245 
z
" clip-path="url(#p522f650542)" style="fill: #1f77b4; opacity: 0.85"/>
   </g>
   <g id="patch_59">
    <path d="M 499.23402 282.384 
L 506.480773 282.384 
L 506.480773 82.95954 
L 499.23402 82.95954 
z
" clip-path="url(#p522f650542)" style="fill: #1f77b4; opacity: 0.85"/>
   </g>
   <g id="patch_60">
    <path d="M 506.480773 282.384 
L 513.727526 282.384 
L 513.727526 114.867453 
L 506.480773 114.867453 
z
" clip-path="url(#p522f650542)" style="fill: #1f77b4; opacity: 0.85"/>
   </g>
   <g id="patch_61">
    <path d="M 513.727526 282.384 
L 520.97428 282.384 
L 520.97428 111.676662 
L 513.727526 111.676662 
z
" clip-path="url(#p522f650542)" style="fill: #1f77b4; opacity: 0.85"/>
   </g>
   <g id="patch_62">
    <path d="M 520.97428 282.384 
L 528.221033 282.384 
L 528.221033 100.508892 
L 520.97428 100.508892 
z
" clip-path="url(#p522f650542)" style="fill: #1f77b4; opacity: 0.85"/>
   </g>
   <g id="patch_63">
    <path d="M 528.221033 282.384 
L 535.467786 282.384 
L 535.467786 60.624 
L 528.221033 60.624 
z
" clip-path="url(#p522f650542)" style="fill: #1f77b4; opacity: 0.85"/>
   </g>
   <g id="patch_64">
    <path d="M 535.467786 282.384 
L 542.714539 282.384 
L 542.714539 87.745727 
L 535.467786 87.745727 
z
" clip-path="url(#p522f650542)" style="fill: #1f77b4; opacity: 0.85"/>
   </g>
   <g id="patch_65">
    <path d="M 542.714539 282.384 
L 549.961293 282.384 
L 549.961293 105.295079 
L 542.714539 105.295079 
z
" clip-path="url(#p522f650542)" style="fill: #1f77b4; opacity: 0.85"/>
   </g>
   <g id="patch_66">
    <path d="M 549.961293 282.384 
L 557.208046 282.384 
L 557.208046 151.561554 
L 549.961293 151.561554 
z
" clip-path="url(#p522f650542)" style="fill: #1f77b4; opacity: 0.85"/>
   </g>
   <g id="patch_67">
    <path d="M 557.208046 282.384 
L 564.454799 282.384 
L 564.454799 137.202993 
L 557.208046 137.202993 
z
" clip-path="url(#p522f650542)" style="fill: #1f77b4; opacity: 0.85"/>
   </g>
   <g id="patch_68">
    <path d="M 564.454799 282.384 
L 571.701552 282.384 
L 571.701552 178.683281 
L 564.454799 178.683281 
z
" clip-path="url(#p522f650542)" style="fill: #1f77b4; opacity: 0.85"/>
   </g>
   <g id="patch_69">
    <path d="M 571.701552 282.384 
L 578.948306 282.384 
L 578.948306 191.446446 
L 571.701552 191.446446 
z
" clip-path="url(#p522f650542)" style="fill: #1f77b4; opacity: 0.85"/>
   </g>
   <g id="patch_70">
    <path d="M 578.948306 282.384 
L 586.195059 282.384 
L 586.195059 220.163568 
L 578.948306 220.163568 
z
" clip-path="url(#p522f650542)" style="fill: #1f77b4; opacity: 0.85"/>
   </g>
   <g id="patch_71">
    <path d="M 586.195059 282.384 
L 593.441812 282.384 
L 593.441812 221.758964 
L 586.195059 221.758964 
z
" clip-path="url(#p522f650542)" style="fill: #1f77b4; opacity: 0.85"/>
   </g>
   <g id="patch_72">
    <path d="M 593.441812 282.384 
L 600.688565 282.384 
L 600.688565 252.071482 
L 593.441812 252.071482 
z
" clip-path="url(#p522f650542)" style="fill: #1f77b4; opacity: 0.85"/>
   </g>
   <g id="patch_73">
    <path d="M 600.688565 282.384 
L 607.935319 282.384 
L 607.935319 271.21623 
L 600.688565 271.21623 
z
" clip-path="url(#p522f650542)" style="fill: #1f77b4; opacity: 0.85"/>
   </g>
   <g id="patch_74">
    <path d="M 607.935319 282.384 
L 615.182072 282.384 
L 615.182072 269.620835 
L 607.935319 269.620835 
z
" clip-path="url(#p522f650542)" style="fill: #1f77b4; opacity: 0.85"/>
   </g>
   <g id="patch_75">
    <path d="M 615.182072 282.384 
L 622.428825 282.384 
L 622.428825 274.407022 
L 615.182072 274.407022 
z
" clip-path="url(#p522f650542)" style="fill: #1f77b4; opacity: 0.85"/>
   </g>
   <g id="patch_76">
    <path d="M 622.428825 282.384 
L 629.675578 282.384 
L 629.675578 276.002417 
L 622.428825 276.002417 
z
" clip-path="url(#p522f650542)" style="fill: #1f77b4; opacity: 0.85"/>
   </g>
   <g id="patch_77">
    <path d="M 629.675578 282.384 
L 636.922332 282.384 
L 636.922332 279.193209 
L 629.675578 279.193209 
z
" clip-path="url(#p522f650542)" style="fill: #1f77b4; opacity: 0.85"/>
   </g>
   <g id="patch_78">
    <path d="M 636.922332 282.384 
L 644.169085 282.384 
L 644.169085 280.788604 
L 636.922332 280.788604 
z
" clip-path="url(#p522f650542)" style="fill: #1f77b4; opacity: 0.85"/>
   </g>
   <g id="patch_79">
    <path d="M 644.169085 282.384 
L 651.415838 282.384 
L 651.415838 277.597813 
L 644.169085 277.597813 
z
" clip-path="url(#p522f650542)" style="fill: #1f77b4; opacity: 0.85"/>
   </g>
   <g id="matplotlib.axis_3">
    <g id="xtick_8">
     <g id="line2d_30">
      <path d="M 430.550696 282.384 
L 430.550696 49.536 
" clip-path="url(#p522f650542)" style="fill: none; stroke: #b0b0b0; stroke-opacity: 0.22; stroke-width: 0.8; stroke-linecap: square"/>
     </g>
     <g id="line2d_31">
      <g>
       <use xlink:href="#m2187b13c0a" x="430.550696" y="282.384" style="stroke: #000000; stroke-width: 0.8"/>
      </g>
     </g>
     <g id="text_18">
      <!-- 2 -->
      <g transform="translate(427.800696 296.9465) scale(0.11 -0.11)">
       <use xlink:href="#SimHei-32"/>
      </g>
     </g>
    </g>
    <g id="xtick_9">
     <g id="line2d_32">
      <path d="M 490.594494 282.384 
L 490.594494 49.536 
" clip-path="url(#p522f650542)" style="fill: none; stroke: #b0b0b0; stroke-opacity: 0.22; stroke-width: 0.8; stroke-linecap: square"/>
     </g>
     <g id="line2d_33">
      <g>
       <use xlink:href="#m2187b13c0a" x="490.594494" y="282.384" style="stroke: #000000; stroke-width: 0.8"/>
      </g>
     </g>
     <g id="text_19">
      <!-- 4 -->
      <g transform="translate(487.844494 296.9465) scale(0.11 -0.11)">
       <use xlink:href="#SimHei-34"/>
      </g>
     </g>
    </g>
    <g id="xtick_10">
     <g id="line2d_34">
      <path d="M 550.638293 282.384 
L 550.638293 49.536 
" clip-path="url(#p522f650542)" style="fill: none; stroke: #b0b0b0; stroke-opacity: 0.22; stroke-width: 0.8; stroke-linecap: square"/>
     </g>
     <g id="line2d_35">
      <g>
       <use xlink:href="#m2187b13c0a" x="550.638293" y="282.384" style="stroke: #000000; stroke-width: 0.8"/>
      </g>
     </g>
     <g id="text_20">
      <!-- 6 -->
      <g transform="translate(547.888293 296.9465) scale(0.11 -0.11)">
       <use xlink:href="#SimHei-36"/>
      </g>
     </g>
    </g>
    <g id="xtick_11">
     <g id="line2d_36">
      <path d="M 610.682091 282.384 
L 610.682091 49.536 
" clip-path="url(#p522f650542)" style="fill: none; stroke: #b0b0b0; stroke-opacity: 0.22; stroke-width: 0.8; stroke-linecap: square"/>
     </g>
     <g id="line2d_37">
      <g>
       <use xlink:href="#m2187b13c0a" x="610.682091" y="282.384" style="stroke: #000000; stroke-width: 0.8"/>
      </g>
     </g>
     <g id="text_21">
      <!-- 8 -->
      <g transform="translate(607.932091 296.9465) scale(0.11 -0.11)">
       <use xlink:href="#SimHei-38"/>
      </g>
     </g>
    </g>
    <g id="text_22">
     <!-- loan_rate -->
     <g transform="translate(499.847656 309.884) scale(0.11 -0.11)">
      <defs>
       <path id="SimHei-72" d="M 2500 2425 
Q 2025 2500 1700 2287 
Q 1375 2075 1150 1550 
L 1150 125 
L 650 125 
L 650 2925 
L 1150 2925 
L 1150 2200 
Q 1375 2600 1712 2787 
Q 2050 2975 2500 2975 
L 2500 2425 
z
" transform="scale(0.015625)"/>
       <path id="SimHei-65" d="M 2850 1075 
Q 2800 625 2450 350 
Q 2100 75 1625 75 
Q 1025 75 637 462 
Q 250 850 250 1525 
Q 250 2200 637 2587 
Q 1025 2975 1625 2975 
Q 2150 2975 2487 2637 
Q 2825 2300 2825 1525 
L 800 1525 
Q 800 975 1037 750 
Q 1275 525 1625 525 
Q 1900 525 2075 662 
Q 2250 800 2300 1075 
L 2850 1075 
z
M 2250 1925 
Q 2200 2275 2025 2412 
Q 1850 2550 1575 2550 
Q 1325 2550 1125 2412 
Q 925 2275 825 1925 
L 2250 1925 
z
" transform="scale(0.015625)"/>
      </defs>
      <use xlink:href="#SimHei-6c"/>
      <use xlink:href="#SimHei-6f" transform="translate(50 0)"/>
      <use xlink:href="#SimHei-61" transform="translate(100 0)"/>
      <use xlink:href="#SimHei-6e" transform="translate(150 0)"/>
      <use xlink:href="#SimHei-5f" transform="translate(200 0)"/>
      <use xlink:href="#SimHei-72" transform="translate(250 0)"/>
      <use xlink:href="#SimHei-61" transform="translate(300 0)"/>
      <use xlink:href="#SimHei-74" transform="translate(350 0)"/>
      <use xlink:href="#SimHei-65" transform="translate(400 0)"/>
     </g>
    </g>
   </g>
   <g id="matplotlib.axis_4">
    <g id="ytick_8">
     <g id="line2d_38">
      <path d="M 385.097656 282.384 
L 664.097656 282.384 
" clip-path="url(#p522f650542)" style="fill: none; stroke: #b0b0b0; stroke-opacity: 0.22; stroke-width: 0.8; stroke-linecap: square"/>
     </g>
     <g id="line2d_39">
      <g>
       <use xlink:href="#me0fe1cef27" x="385.097656" y="282.384" style="stroke: #000000; stroke-width: 0.8"/>
      </g>
     </g>
     <g id="text_23">
      <!-- 0 -->
      <g transform="translate(372.597656 286.16525) scale(0.11 -0.11)">
       <use xlink:href="#SimHei-30"/>
      </g>
     </g>
    </g>
    <g id="ytick_9">
     <g id="line2d_40">
      <path d="M 385.097656 250.476086 
L 664.097656 250.476086 
" clip-path="url(#p522f650542)" style="fill: none; stroke: #b0b0b0; stroke-opacity: 0.22; stroke-width: 0.8; stroke-linecap: square"/>
     </g>
     <g id="line2d_41">
      <g>
       <use xlink:href="#me0fe1cef27" x="385.097656" y="250.476086" style="stroke: #000000; stroke-width: 0.8"/>
      </g>
     </g>
     <g id="text_24">
      <!-- 20 -->
      <g transform="translate(367.097656 254.257336) scale(0.11 -0.11)">
       <use xlink:href="#SimHei-32"/>
       <use xlink:href="#SimHei-30" transform="translate(50 0)"/>
      </g>
     </g>
    </g>
    <g id="ytick_10">
     <g id="line2d_42">
      <path d="M 385.097656 218.568173 
L 664.097656 218.568173 
" clip-path="url(#p522f650542)" style="fill: none; stroke: #b0b0b0; stroke-opacity: 0.22; stroke-width: 0.8; stroke-linecap: square"/>
     </g>
     <g id="line2d_43">
      <g>
       <use xlink:href="#me0fe1cef27" x="385.097656" y="218.568173" style="stroke: #000000; stroke-width: 0.8"/>
      </g>
     </g>
     <g id="text_25">
      <!-- 40 -->
      <g transform="translate(367.097656 222.349423) scale(0.11 -0.11)">
       <use xlink:href="#SimHei-34"/>
       <use xlink:href="#SimHei-30" transform="translate(50 0)"/>
      </g>
     </g>
    </g>
    <g id="ytick_11">
     <g id="line2d_44">
      <path d="M 385.097656 186.660259 
L 664.097656 186.660259 
" clip-path="url(#p522f650542)" style="fill: none; stroke: #b0b0b0; stroke-opacity: 0.22; stroke-width: 0.8; stroke-linecap: square"/>
     </g>
     <g id="line2d_45">
      <g>
       <use xlink:href="#me0fe1cef27" x="385.097656" y="186.660259" style="stroke: #000000; stroke-width: 0.8"/>
      </g>
     </g>
     <g id="text_26">
      <!-- 60 -->
      <g transform="translate(367.097656 190.441509) scale(0.11 -0.11)">
       <use xlink:href="#SimHei-36"/>
       <use xlink:href="#SimHei-30" transform="translate(50 0)"/>
      </g>
     </g>
    </g>
    <g id="ytick_12">
     <g id="line2d_46">
      <path d="M 385.097656 154.752345 
L 664.097656 154.752345 
" clip-path="url(#p522f650542)" style="fill: none; stroke: #b0b0b0; stroke-opacity: 0.22; stroke-width: 0.8; stroke-linecap: square"/>
     </g>
     <g id="line2d_47">
      <g>
       <use xlink:href="#me0fe1cef27" x="385.097656" y="154.752345" style="stroke: #000000; stroke-width: 0.8"/>
      </g>
     </g>
     <g id="text_27">
      <!-- 80 -->
      <g transform="translate(367.097656 158.533595) scale(0.11 -0.11)">
       <use xlink:href="#SimHei-38"/>
       <use xlink:href="#SimHei-30" transform="translate(50 0)"/>
      </g>
     </g>
    </g>
    <g id="ytick_13">
     <g id="line2d_48">
      <path d="M 385.097656 122.844432 
L 664.097656 122.844432 
" clip-path="url(#p522f650542)" style="fill: none; stroke: #b0b0b0; stroke-opacity: 0.22; stroke-width: 0.8; stroke-linecap: square"/>
     </g>
     <g id="line2d_49">
      <g>
       <use xlink:href="#me0fe1cef27" x="385.097656" y="122.844432" style="stroke: #000000; stroke-width: 0.8"/>
      </g>
     </g>
     <g id="text_28">
      <!-- 100 -->
      <g transform="translate(361.597656 126.625682) scale(0.11 -0.11)">
       <use xlink:href="#SimHei-31"/>
       <use xlink:href="#SimHei-30" transform="translate(50 0)"/>
       <use xlink:href="#SimHei-30" transform="translate(100 0)"/>
      </g>
     </g>
    </g>
    <g id="ytick_14">
     <g id="line2d_50">
      <path d="M 385.097656 90.936518 
L 664.097656 90.936518 
" clip-path="url(#p522f650542)" style="fill: none; stroke: #b0b0b0; stroke-opacity: 0.22; stroke-width: 0.8; stroke-linecap: square"/>
     </g>
     <g id="line2d_51">
      <g>
       <use xlink:href="#me0fe1cef27" x="385.097656" y="90.936518" style="stroke: #000000; stroke-width: 0.8"/>
      </g>
     </g>
     <g id="text_29">
      <!-- 120 -->
      <g transform="translate(361.597656 94.717768) scale(0.11 -0.11)">
       <use xlink:href="#SimHei-31"/>
       <use xlink:href="#SimHei-32" transform="translate(50 0)"/>
       <use xlink:href="#SimHei-30" transform="translate(100 0)"/>
      </g>
     </g>
    </g>
    <g id="ytick_15">
     <g id="line2d_52">
      <path d="M 385.097656 59.028604 
L 664.097656 59.028604 
" clip-path="url(#p522f650542)" style="fill: none; stroke: #b0b0b0; stroke-opacity: 0.22; stroke-width: 0.8; stroke-linecap: square"/>
     </g>
     <g id="line2d_53">
      <g>
       <use xlink:href="#me0fe1cef27" x="385.097656" y="59.028604" style="stroke: #000000; stroke-width: 0.8"/>
      </g>
     </g>
     <g id="text_30">
      <!-- 140 -->
      <g transform="translate(361.597656 62.809854) scale(0.11 -0.11)">
       <use xlink:href="#SimHei-31"/>
       <use xlink:href="#SimHei-34" transform="translate(50 0)"/>
       <use xlink:href="#SimHei-30" transform="translate(100 0)"/>
      </g>
     </g>
    </g>
    <g id="text_31">
     <!-- 样本数 -->
     <g transform="translate(356.222656 182.46) rotate(-90) scale(0.11 -0.11)">
      <use xlink:href="#SimHei-6837"/>
      <use xlink:href="#SimHei-672c" transform="translate(100 0)"/>
      <use xlink:href="#SimHei-6570" transform="translate(200 0)"/>
     </g>
    </g>
   </g>
   <g id="patch_80">
    <path d="M 385.097656 282.384 
L 385.097656 49.536 
" style="fill: none; stroke: #000000; stroke-width: 0.8; stroke-linejoin: miter; stroke-linecap: square"/>
   </g>
   <g id="patch_81">
    <path d="M 385.097656 282.384 
L 664.097656 282.384 
" style="fill: none; stroke: #000000; stroke-width: 0.8; stroke-linejoin: miter; stroke-linecap: square"/>
   </g>
   <g id="text_32">
    <!-- 贷款利率：只在贷款企业中可观测 -->
    <g transform="translate(425.597656 43.536) scale(0.132 -0.132)">
     <defs>
      <path id="SimHei-5229" d="M 2400 2650 
Q 2950 2150 3500 1525 
Q 3325 1375 3125 1150 
Q 2775 1675 2400 2075 
L 2400 225 
Q 2400 -375 2425 -675 
L 1875 -675 
Q 1900 -350 1900 225 
L 1900 1975 
Q 1625 1450 1375 1100 
Q 1125 750 725 275 
Q 575 525 300 700 
Q 850 1150 1287 1837 
Q 1725 2525 1850 2950 
L 1375 2950 
Q 775 2950 500 2925 
L 500 3400 
Q 800 3375 1375 3375 
L 1900 3375 
L 1900 4350 
Q 1400 4250 825 4150 
Q 750 4400 625 4625 
Q 1050 4650 1800 4800 
Q 2550 4950 3225 5175 
Q 3350 4875 3550 4650 
Q 3050 4575 2400 4450 
L 2400 3375 
L 2825 3375 
Q 3350 3375 3750 3400 
L 3750 2925 
Q 3350 2950 2850 2950 
L 2400 2950 
L 2400 2650 
z
M 5775 5125 
Q 5750 4875 5750 4275 
L 5750 -100 
Q 5750 -400 5512 -487 
Q 5275 -575 4675 -675 
Q 4600 -300 4500 -75 
Q 5025 -100 5137 -50 
Q 5250 0 5250 150 
L 5250 4300 
Q 5250 4650 5225 5125 
L 5775 5125 
z
M 4625 4100 
Q 4600 3800 4600 3300 
L 4600 1725 
Q 4600 1200 4625 825 
L 4075 825 
Q 4100 1275 4100 1725 
L 4100 3300 
Q 4100 3700 4075 4100 
L 4625 4100 
z
" transform="scale(0.015625)"/>
      <path id="SimHei-7387" d="M 3325 5150 
Q 3425 4900 3550 4525 
L 4800 4525 
Q 5250 4525 5800 4550 
L 5800 4125 
Q 5250 4175 4775 4175 
L 2800 4175 
Q 2975 4050 3300 3900 
Q 3075 3750 2875 3537 
Q 2675 3325 2475 3125 
L 3275 3125 
Q 3575 3425 3775 3775 
Q 4000 3600 4275 3425 
Q 3950 3250 3600 2875 
Q 3250 2500 2625 2000 
L 3850 2100 
Q 3725 2250 3600 2425 
Q 3750 2475 4000 2650 
Q 4250 2350 4700 1700 
Q 4475 1625 4225 1450 
Q 4175 1600 4025 1775 
Q 3700 1750 3425 1750 
L 3425 1050 
L 5150 1050 
Q 5675 1050 6100 1075 
L 6100 650 
Q 5700 675 5125 675 
L 3425 675 
L 3425 175 
Q 3425 -300 3450 -625 
L 2900 -625 
Q 2925 -300 2925 175 
L 2925 675 
L 1325 675 
Q 825 675 325 650 
L 325 1075 
Q 825 1050 1350 1050 
L 2925 1050 
L 2925 1700 
Q 2700 1675 2475 1637 
Q 2250 1600 2025 1525 
Q 1950 1775 1850 2000 
Q 2075 2025 2325 2200 
Q 2575 2375 2975 2800 
Q 2300 2725 2025 2625 
Q 1975 2875 1850 3175 
Q 2075 3175 2325 3487 
Q 2575 3800 2750 4175 
L 1700 4175 
Q 1150 4175 650 4125 
L 650 4550 
Q 1150 4525 1550 4525 
L 2975 4525 
Q 2900 4825 2800 5025 
Q 3025 5075 3325 5150 
z
M 1625 2575 
Q 1725 2400 1825 2200 
Q 1575 2050 1325 1862 
Q 1075 1675 800 1425 
Q 625 1675 475 1875 
Q 800 2025 1100 2212 
Q 1400 2400 1625 2575 
z
M 4850 2650 
Q 5125 2475 5337 2337 
Q 5550 2200 5875 1950 
Q 5675 1800 5500 1600 
Q 5300 1775 5062 1975 
Q 4825 2175 4575 2325 
Q 4725 2475 4850 2650 
z
M 5725 3525 
Q 5550 3450 5300 3262 
Q 5050 3075 4800 2825 
Q 4625 3050 4475 3175 
Q 4700 3325 4875 3487 
Q 5050 3650 5300 3925 
Q 5525 3700 5725 3525 
z
M 1050 3850 
Q 1425 3600 1775 3275 
Q 1575 3100 1425 2925 
Q 1075 3300 675 3525 
Q 875 3700 1050 3850 
z
" transform="scale(0.015625)"/>
      <path id="SimHei-53ea" d="M 5150 4800 
Q 5125 4375 5125 3400 
Q 5125 2450 5150 1875 
L 1225 1875 
Q 1250 2325 1250 3300 
Q 1250 4275 1225 4800 
L 5150 4800 
z
M 4600 2325 
L 4600 4375 
L 1775 4375 
L 1775 2325 
L 4600 2325 
z
M 4175 1575 
Q 5400 300 5925 -200 
Q 5850 -250 5425 -600 
Q 4975 0 3750 1225 
Q 3975 1375 4175 1575 
z
M 2575 1200 
Q 2250 850 1775 337 
Q 1300 -175 800 -675 
Q 625 -500 375 -275 
Q 825 50 1300 562 
Q 1775 1075 2125 1600 
Q 2425 1375 2575 1200 
z
" transform="scale(0.015625)"/>
      <path id="SimHei-5728" d="M 2425 4200 
Q 2525 4525 2600 4762 
Q 2675 5000 2700 5250 
Q 3050 5175 3325 5100 
Q 3200 4850 3150 4712 
Q 3100 4575 2975 4200 
L 5000 4200 
Q 5525 4200 5950 4225 
L 5950 3750 
Q 5525 3775 5000 3775 
L 2825 3775 
Q 2675 3425 2437 3000 
Q 2200 2575 1825 2075 
L 1825 325 
Q 1825 -175 1850 -650 
L 1325 -650 
Q 1350 -175 1350 325 
L 1350 1625 
Q 950 1250 625 1000 
Q 450 1225 200 1375 
Q 500 1550 800 1800 
Q 1100 2050 1350 2375 
Q 1350 2600 1325 2825 
L 1725 2825 
Q 1900 3025 2037 3275 
Q 2175 3525 2275 3775 
L 1675 3775 
Q 1075 3775 625 3750 
L 625 4225 
Q 1100 4200 1675 4200 
L 2425 4200 
z
M 3700 2250 
L 3700 2600 
Q 3700 3100 3675 3400 
L 4225 3400 
Q 4200 3100 4200 2600 
L 4200 2250 
L 4775 2250 
Q 5225 2250 5600 2275 
L 5600 1800 
Q 5225 1825 4775 1825 
L 4200 1825 
L 4200 150 
L 5150 150 
Q 5625 150 6000 175 
L 6000 -275 
Q 5625 -250 5150 -250 
L 3125 -250 
Q 2475 -250 2100 -275 
L 2100 175 
Q 2475 150 3125 150 
L 3700 150 
L 3700 1825 
L 3225 1825 
Q 2775 1825 2350 1800 
L 2350 2275 
Q 2775 2250 3225 2250 
L 3700 2250 
z
" transform="scale(0.015625)"/>
      <path id="SimHei-4e2d" d="M 3475 5200 
Q 3450 4500 3450 3875 
L 5625 3875 
Q 5600 3375 5600 2500 
Q 5600 1650 5625 1225 
L 5075 1225 
L 5075 1600 
L 3450 1600 
L 3450 525 
Q 3450 225 3475 -600 
L 2875 -600 
Q 2925 -150 2925 450 
L 2925 1600 
L 1300 1600 
L 1300 1225 
L 750 1225 
Q 775 1600 775 2500 
Q 775 3425 750 3875 
L 2925 3875 
Q 2925 4550 2900 5200 
L 3475 5200 
z
M 5075 2000 
L 5075 3475 
L 3450 3475 
L 3450 2000 
L 5075 2000 
z
M 2925 2000 
L 2925 3475 
L 1300 3475 
L 1300 2000 
L 2925 2000 
z
" transform="scale(0.015625)"/>
      <path id="SimHei-53ef" d="M 3600 3500 
Q 3575 3175 3575 2775 
L 3575 1550 
Q 3575 1125 3600 825 
L 3075 825 
L 3075 1275 
L 1650 1275 
L 1650 600 
L 1150 600 
Q 1175 775 1175 1175 
L 1175 2775 
Q 1175 3175 1150 3500 
L 3600 3500 
z
M 5200 4675 
Q 5600 4675 6050 4700 
L 6050 4225 
Q 5650 4250 5225 4250 
L 5075 4250 
L 5075 125 
Q 5075 -325 4812 -462 
Q 4550 -600 3750 -675 
Q 3700 -350 3550 -75 
Q 4075 -100 4300 -50 
Q 4525 0 4525 225 
L 4525 4250 
L 1525 4250 
Q 875 4250 350 4225 
L 350 4700 
Q 875 4675 1500 4675 
L 5200 4675 
z
M 3075 1700 
L 3075 3075 
L 1650 3075 
L 1650 1700 
L 3075 1700 
z
" transform="scale(0.015625)"/>
      <path id="SimHei-89c2" d="M 2600 4750 
Q 2500 3900 2387 3325 
Q 2275 2750 2075 2150 
Q 2425 1625 2800 1000 
Q 2575 825 2350 625 
Q 2100 1200 1800 1675 
Q 1600 1275 1300 912 
Q 1000 550 650 175 
Q 500 375 200 625 
Q 675 950 975 1300 
Q 1275 1650 1500 2100 
Q 1075 2725 625 3200 
Q 850 3375 1025 3525 
Q 1375 3150 1725 2600 
Q 1975 3400 2075 4350 
L 1300 4350 
Q 850 4350 475 4325 
L 475 4775 
Q 825 4750 1275 4750 
L 2600 4750 
z
M 4775 225 
Q 4775 0 4887 -25 
Q 5000 -50 5225 -50 
Q 5475 -50 5537 37 
Q 5600 125 5650 675 
Q 5875 525 6175 450 
Q 6025 -300 5850 -400 
Q 5675 -500 5400 -500 
L 4825 -500 
Q 4525 -500 4425 -325 
Q 4325 -150 4325 50 
L 4325 1600 
Q 4200 1125 3900 687 
Q 3600 250 3187 -87 
Q 2775 -425 2325 -650 
Q 2225 -400 1925 -150 
Q 2625 25 3087 475 
Q 3550 925 3737 1425 
Q 3925 1925 3962 2562 
Q 4000 3200 3975 3875 
Q 4325 3825 4550 3800 
Q 4450 3400 4425 2750 
Q 4400 2100 4325 1700 
L 4825 1700 
Q 4800 1550 4775 1025 
L 4775 225 
z
M 5700 5050 
Q 5675 4650 5675 3350 
Q 5675 2050 5700 1575 
L 5200 1575 
L 5200 4650 
L 3450 4650 
L 3450 1550 
L 2950 1550 
Q 2975 2150 2975 3300 
Q 2975 4475 2950 5050 
L 5700 5050 
z
" transform="scale(0.015625)"/>
      <path id="SimHei-6d4b" d="M 4025 4725 
Q 4000 4475 4000 4000 
L 4000 2225 
Q 4000 1775 4025 1350 
L 3550 1350 
L 3550 4325 
L 2350 4325 
L 2350 1325 
L 1900 1325 
Q 1925 1775 1925 2225 
L 1925 4000 
Q 1925 4200 1900 4725 
L 4025 4725 
z
M 5900 5075 
Q 5875 4800 5875 4375 
L 5875 0 
Q 5875 -325 5650 -425 
Q 5425 -525 4975 -600 
Q 4925 -325 4775 -50 
Q 5125 -50 5262 -25 
Q 5400 0 5400 250 
L 5400 4375 
Q 5400 4775 5375 5075 
L 5900 5075 
z
M 3275 3725 
Q 3225 3400 3200 2325 
Q 3175 1250 2837 550 
Q 2500 -150 2075 -600 
Q 1850 -400 1600 -325 
Q 2200 250 2475 962 
Q 2750 1675 2762 2475 
Q 2775 3275 2725 3800 
Q 3000 3750 3275 3725 
z
M 4950 4275 
Q 4925 4000 4925 3575 
L 4925 1825 
Q 4925 1300 4950 850 
L 4450 850 
Q 4475 1150 4475 1825 
L 4475 3575 
Q 4475 4000 4450 4275 
L 4950 4275 
z
M 1700 1675 
Q 1375 1075 1112 487 
Q 850 -100 725 -400 
Q 500 -200 200 -25 
Q 475 300 762 850 
Q 1050 1400 1250 2000 
Q 1475 1825 1700 1675 
z
M 3400 1050 
Q 3800 650 4300 -125 
Q 4100 -225 3875 -450 
Q 3475 275 3025 750 
Q 3225 875 3400 1050 
z
M 600 3525 
Q 1125 3125 1500 2775 
Q 1300 2575 1150 2375 
Q 825 2775 300 3150 
Q 450 3300 600 3525 
z
M 1350 4000 
Q 950 4375 475 4675 
Q 625 4850 775 5050 
Q 1300 4700 1675 4375 
Q 1500 4250 1350 4000 
z
" transform="scale(0.015625)"/>
     </defs>
     <use xlink:href="#SimHei-8d37"/>
     <use xlink:href="#SimHei-6b3e" transform="translate(100 0)"/>
     <use xlink:href="#SimHei-5229" transform="translate(200 0)"/>
     <use xlink:href="#SimHei-7387" transform="translate(300 0)"/>
     <use xlink:href="#SimHei-ff1a" transform="translate(400 0)"/>
     <use xlink:href="#SimHei-53ea" transform="translate(500 0)"/>
     <use xlink:href="#SimHei-5728" transform="translate(600 0)"/>
     <use xlink:href="#SimHei-8d37" transform="translate(700 0)"/>
     <use xlink:href="#SimHei-6b3e" transform="translate(800 0)"/>
     <use xlink:href="#SimHei-4f01" transform="translate(900 0)"/>
     <use xlink:href="#SimHei-4e1a" transform="translate(1000 0)"/>
     <use xlink:href="#SimHei-4e2d" transform="translate(1100 0)"/>
     <use xlink:href="#SimHei-53ef" transform="translate(1200 0)"/>
     <use xlink:href="#SimHei-89c2" transform="translate(1300 0)"/>
     <use xlink:href="#SimHei-6d4b" transform="translate(1400 0)"/>
    </g>
   </g>
  </g>
  <g id="text_33">
   <!-- 同一信贷背景下，0 与 missing 的含义不同 -->
   <g transform="translate(210.797656 18.739062) scale(0.14 -0.14)">
    <defs>
     <path id="SimHei-540c" d="M 5825 4925 
Q 5775 4550 5775 3975 
L 5775 -50 
Q 5775 -400 5525 -487 
Q 5275 -575 4725 -625 
Q 4725 -400 4525 -50 
Q 4925 -50 5100 -12 
Q 5275 25 5275 200 
L 5275 4450 
L 1150 4450 
L 1150 -600 
L 575 -600 
Q 600 -250 625 200 
L 625 3975 
Q 625 4575 600 4925 
L 5825 4925 
z
M 4375 2550 
Q 4325 2275 4325 1700 
Q 4325 1150 4375 725 
L 2025 725 
Q 2050 1175 2050 1750 
Q 2050 2325 2025 2550 
L 4375 2550 
z
M 4100 3750 
Q 4600 3750 4825 3775 
L 4825 3275 
Q 4575 3300 4075 3300 
L 2450 3300 
Q 1850 3300 1600 3275 
L 1600 3775 
Q 1875 3750 2475 3750 
L 4100 3750 
z
M 3875 1150 
L 3875 2150 
L 2525 2150 
L 2525 1150 
L 3875 1150 
z
" transform="scale(0.015625)"/>
     <path id="SimHei-4e00" d="M 4875 2675 
Q 5525 2675 6050 2700 
L 6050 2050 
Q 5525 2075 4900 2075 
L 1600 2075 
Q 950 2075 350 2050 
L 350 2700 
Q 950 2675 1600 2675 
L 4875 2675 
z
" transform="scale(0.015625)"/>
     <path id="SimHei-4fe1" d="M 5650 1575 
Q 5625 1275 5625 575 
Q 5625 -100 5650 -450 
L 5175 -450 
L 5175 -25 
L 3025 -25 
L 3025 -550 
L 2525 -550 
Q 2550 -175 2550 500 
Q 2550 1200 2525 1575 
L 5650 1575 
z
M 2125 4975 
Q 1975 4825 1650 3975 
L 1650 550 
Q 1650 -200 1675 -625 
L 1125 -625 
Q 1200 -175 1200 575 
L 1200 3100 
Q 900 2500 625 2100 
Q 475 2350 250 2500 
Q 525 2800 925 3562 
Q 1325 4325 1525 5175 
Q 1800 5075 2125 4975 
z
M 5175 375 
L 5175 1225 
L 3025 1225 
L 3025 375 
L 5175 375 
z
M 6075 3900 
Q 5575 3925 4100 3925 
Q 2625 3925 2100 3900 
L 2100 4325 
L 6075 4325 
L 6075 3900 
z
M 5700 3000 
Q 5275 3025 4150 3025 
Q 3025 3025 2475 3000 
L 2475 3425 
Q 2950 3400 4100 3400 
Q 5275 3400 5700 3425 
L 5700 3000 
z
M 5700 2125 
Q 5350 2150 4175 2150 
Q 3025 2150 2475 2125 
L 2475 2550 
Q 3000 2525 4175 2525 
Q 5375 2525 5700 2550 
L 5700 2125 
z
M 4025 5200 
Q 4100 5050 4175 4875 
Q 4250 4700 4325 4500 
Q 4100 4425 3875 4375 
Q 3700 4900 3575 5025 
Q 3825 5125 4025 5200 
z
" transform="scale(0.015625)"/>
     <path id="SimHei-80cc" d="M 5250 2525 
Q 5225 2050 5225 1600 
L 5225 25 
Q 5225 -350 4937 -450 
Q 4650 -550 4200 -625 
Q 4125 -325 3975 -100 
Q 4575 -100 4675 -50 
Q 4775 0 4750 450 
L 1800 450 
L 1800 -625 
L 1300 -625 
Q 1325 -125 1325 1000 
Q 1325 2125 1300 2525 
L 5250 2525 
z
M 4150 5125 
Q 4125 4850 4125 4375 
Q 4900 4525 5500 4775 
Q 5575 4550 5725 4325 
Q 5475 4275 5087 4200 
Q 4700 4125 4125 4000 
L 4125 3525 
Q 4125 3225 4400 3200 
L 5225 3200 
Q 5425 3200 5487 3300 
Q 5550 3400 5600 3725 
Q 5825 3500 6125 3450 
Q 5975 3100 5850 2975 
Q 5725 2850 5475 2850 
L 4225 2850 
Q 3675 2850 3675 3425 
L 3675 4425 
Q 3675 4800 3650 5125 
L 4150 5125 
z
M 2250 4500 
Q 2250 4850 2225 5125 
L 2725 5125 
Q 2700 4925 2700 4475 
L 2700 3550 
Q 2700 3200 2725 2850 
L 2250 2850 
L 2250 3250 
Q 1750 3175 1250 3087 
Q 750 3000 475 2925 
Q 425 3150 300 3400 
Q 725 3425 1150 3475 
Q 1575 3525 2250 3625 
L 2250 4125 
L 1325 4125 
Q 975 4125 600 4100 
L 600 4525 
Q 975 4500 1300 4500 
L 2250 4500 
z
M 4750 1650 
L 4750 2150 
L 1800 2150 
L 1800 1650 
L 4750 1650 
z
M 4750 825 
L 4750 1275 
L 1800 1275 
L 1800 825 
L 4750 825 
z
" transform="scale(0.015625)"/>
     <path id="SimHei-666f" d="M 5200 5100 
Q 5175 4700 5175 4150 
Q 5175 3625 5225 3225 
L 1175 3225 
Q 1200 3625 1200 4150 
Q 1200 4700 1175 5100 
L 5200 5100 
z
M 5125 2075 
Q 5100 1675 5100 1375 
Q 5100 1075 5125 900 
L 3525 900 
L 3525 -175 
Q 3525 -475 3312 -575 
Q 3100 -675 2575 -700 
Q 2550 -425 2375 -100 
Q 2800 -175 2937 -137 
Q 3075 -100 3050 100 
L 3050 900 
L 1350 900 
Q 1375 1125 1375 1450 
Q 1375 1800 1350 2075 
L 5125 2075 
z
M 3325 3200 
Q 3400 2950 3500 2750 
L 5200 2750 
Q 5625 2750 6050 2800 
L 6050 2350 
Q 5625 2375 5200 2375 
L 1175 2375 
Q 850 2375 350 2350 
L 350 2775 
Q 850 2750 1175 2750 
L 2900 2750 
Q 2875 2900 2800 3125 
Q 3100 3175 3325 3200 
z
M 4650 1250 
L 4650 1700 
L 1825 1700 
L 1825 1250 
L 4650 1250 
z
M 4700 4300 
L 4700 4700 
L 1675 4700 
L 1675 4300 
L 4700 4300 
z
M 4700 3600 
L 4700 3925 
L 1675 3925 
L 1675 3600 
L 4700 3600 
z
M 4325 725 
Q 4600 575 4987 387 
Q 5375 200 5850 -50 
Q 5700 -275 5550 -550 
Q 5325 -350 4925 -125 
Q 4525 100 4075 275 
L 4325 725 
z
M 2450 250 
Q 2225 175 1812 -100 
Q 1400 -375 1000 -600 
Q 850 -375 700 -175 
Q 975 -25 1350 187 
Q 1725 400 2075 700 
Q 2250 500 2450 250 
z
" transform="scale(0.015625)"/>
     <path id="SimHei-4e0b" d="M 5000 4700 
Q 5475 4700 5975 4725 
L 5975 4200 
Q 5425 4225 5000 4225 
L 3275 4225 
L 3275 375 
Q 3275 50 3300 -450 
L 2725 -450 
Q 2750 0 2750 375 
L 2750 4225 
L 1375 4225 
Q 875 4225 400 4200 
L 400 4725 
Q 875 4700 1375 4700 
L 5000 4700 
z
M 5650 1400 
Q 5400 1225 5200 1000 
Q 4800 1525 3650 2575 
L 4025 2950 
Q 4700 2400 5650 1400 
z
" transform="scale(0.015625)"/>
     <path id="SimHei-ff0c" d="M 875 950 
L 1775 950 
L 1775 -50 
Q 1700 -675 1150 -975 
L 900 -750 
Q 1350 -500 1350 0 
L 875 0 
L 875 950 
z
" transform="scale(0.015625)"/>
     <path id="SimHei-4e0e" d="M 5350 100 
Q 5275 -300 4925 -425 
Q 4575 -550 3900 -600 
Q 3875 -375 3650 -25 
Q 4375 -50 4575 0 
Q 4775 50 4837 225 
Q 4900 400 5100 2350 
L 1125 2350 
Q 1450 4350 1475 5200 
Q 1800 5150 2075 5125 
Q 1975 4825 1900 4275 
L 4900 4275 
Q 5400 4275 5800 4300 
L 5800 3825 
Q 5400 3850 4950 3850 
L 1850 3850 
L 1700 2750 
L 5675 2750 
Q 5625 2450 5575 2050 
L 5350 100 
z
M 3675 1350 
Q 4125 1350 4500 1375 
L 4500 875 
Q 4125 900 3850 900 
L 1450 900 
Q 1000 900 500 875 
L 500 1375 
Q 1000 1350 1450 1350 
L 3675 1350 
z
" transform="scale(0.015625)"/>
     <path id="SimHei-69" d="M 1800 3725 
L 1300 3725 
L 1300 4375 
L 1800 4375 
L 1800 3725 
z
M 1800 125 
L 1300 125 
L 1300 2925 
L 1800 2925 
L 1800 125 
z
" transform="scale(0.015625)"/>
     <path id="SimHei-73" d="M 2750 900 
Q 2750 500 2437 287 
Q 2125 75 1650 75 
Q 1050 75 725 312 
Q 400 550 400 1000 
L 900 1000 
Q 900 700 1112 600 
Q 1325 500 1625 500 
Q 1925 500 2075 612 
Q 2225 725 2225 900 
Q 2225 1025 2100 1150 
Q 1975 1275 1475 1350 
Q 900 1425 687 1637 
Q 475 1850 475 2200 
Q 475 2500 762 2737 
Q 1050 2975 1600 2975 
Q 2100 2975 2387 2750 
Q 2675 2525 2675 2150 
L 2175 2150 
Q 2175 2375 2012 2462 
Q 1850 2550 1600 2550 
Q 1275 2550 1137 2437 
Q 1000 2325 1000 2175 
Q 1000 2000 1125 1900 
Q 1250 1800 1650 1750 
Q 2300 1650 2525 1437 
Q 2750 1225 2750 900 
z
" transform="scale(0.015625)"/>
     <path id="SimHei-67" d="M 2975 2500 
Q 2800 2550 2637 2562 
Q 2475 2575 2300 2525 
Q 2375 2450 2425 2337 
Q 2475 2225 2475 2000 
Q 2475 1575 2187 1300 
Q 1900 1025 1475 1025 
Q 1375 1025 1212 1062 
Q 1050 1100 950 1150 
Q 875 1100 850 1050 
Q 825 1000 825 925 
Q 825 800 1000 737 
Q 1175 675 1625 675 
Q 2350 675 2612 475 
Q 2875 275 2875 -25 
Q 2875 -425 2487 -612 
Q 2100 -800 1575 -800 
Q 900 -800 575 -625 
Q 250 -450 250 -150 
Q 250 0 375 150 
Q 500 300 700 400 
Q 550 475 462 587 
Q 375 700 375 875 
Q 375 1025 487 1137 
Q 600 1250 750 1325 
Q 625 1450 550 1625 
Q 475 1800 475 2000 
Q 475 2425 762 2700 
Q 1050 2975 1475 2975 
Q 1700 2975 1862 2912 
Q 2025 2850 2150 2725 
Q 2350 2875 2550 2937 
Q 2750 3000 2975 2975 
L 2975 2500 
z
M 1975 2000 
Q 1975 2250 1850 2400 
Q 1725 2550 1475 2550 
Q 1225 2550 1100 2400 
Q 975 2250 975 2000 
Q 975 1750 1100 1600 
Q 1225 1450 1475 1450 
Q 1725 1450 1850 1600 
Q 1975 1750 1975 2000 
z
M 2400 -75 
Q 2400 25 2287 125 
Q 2175 225 1725 225 
Q 1625 225 1450 237 
Q 1275 250 1050 275 
Q 850 200 775 100 
Q 700 0 700 -100 
Q 700 -250 900 -350 
Q 1100 -450 1600 -450 
Q 2025 -450 2212 -337 
Q 2400 -225 2400 -75 
z
" transform="scale(0.015625)"/>
     <path id="SimHei-7684" d="M 2100 4975 
Q 1975 4750 1750 3950 
L 2875 3950 
Q 2850 3525 2850 2875 
L 2850 675 
Q 2850 300 2875 -400 
L 2375 -400 
L 2375 100 
L 1100 100 
L 1100 -450 
L 600 -450 
Q 625 350 625 550 
L 625 2850 
Q 625 3525 600 3950 
L 1325 3950 
Q 1450 4525 1525 5150 
Q 1875 5025 2100 4975 
z
M 5825 3075 
Q 5800 1550 5700 175 
Q 5650 -275 5225 -425 
Q 4800 -575 4275 -625 
Q 4250 -350 4050 -50 
Q 4550 -75 4837 -25 
Q 5125 25 5200 200 
Q 5275 375 5312 1225 
Q 5350 2075 5375 3600 
L 3925 3600 
Q 3725 3125 3350 2475 
Q 3175 2650 2925 2750 
Q 3150 3050 3350 3475 
Q 3550 3900 3700 4400 
Q 3850 4900 3875 5175 
Q 4225 5025 4475 4950 
Q 4350 4750 4262 4512 
Q 4175 4275 4075 4050 
L 5850 4050 
Q 5825 3525 5825 3075 
z
M 2375 525 
L 2375 1850 
L 1100 1850 
L 1100 525 
L 2375 525 
z
M 2375 2275 
L 2375 3525 
L 1100 3525 
L 1100 2275 
L 2375 2275 
z
M 4350 2050 
Q 4500 1750 4700 1275 
Q 4525 1200 4225 1025 
Q 4050 1500 3900 1837 
Q 3750 2175 3600 2400 
Q 3775 2500 4050 2650 
L 4350 2050 
z
" transform="scale(0.015625)"/>
     <path id="SimHei-542b" d="M 4525 -575 
L 4525 -200 
L 1850 -200 
L 1850 -625 
L 1325 -625 
Q 1350 -275 1350 275 
Q 1350 850 1325 1450 
L 5050 1450 
Q 5025 1175 5025 425 
Q 5025 -300 5050 -575 
L 4525 -575 
z
M 3350 4850 
Q 3625 4525 4325 4062 
Q 5025 3600 6150 3300 
Q 5850 3075 5750 2750 
Q 5050 3025 4337 3462 
Q 3625 3900 3125 4500 
Q 2500 3800 1912 3387 
Q 1325 2975 625 2650 
Q 550 2850 275 3100 
Q 1100 3325 1862 3925 
Q 2625 4525 2975 5275 
Q 3325 5150 3525 5050 
L 3350 4850 
z
M 4525 200 
L 4525 1050 
L 1850 1050 
L 1850 200 
L 4525 200 
z
M 4775 2875 
Q 4525 2600 4200 2200 
Q 3875 1800 3600 1500 
Q 3425 1675 3250 1750 
Q 3525 2025 3875 2500 
L 1975 2500 
Q 1750 2500 1350 2475 
L 1350 2900 
Q 1750 2875 1975 2875 
L 4775 2875 
z
M 3050 3925 
Q 3425 3400 3475 3225 
Q 3375 3200 3050 3025 
Q 2850 3475 2675 3700 
Q 2925 3800 3050 3925 
z
" transform="scale(0.015625)"/>
     <path id="SimHei-4e49" d="M 3550 1175 
Q 4450 375 6025 -25 
Q 5775 -300 5675 -625 
Q 4275 -175 3125 800 
Q 2250 0 675 -625 
Q 525 -325 350 -100 
Q 1750 250 2775 1150 
Q 1875 2175 1150 4350 
Q 1325 4350 1625 4550 
Q 2275 2500 3175 1550 
Q 4100 2625 4675 4675 
Q 5050 4500 5250 4450 
Q 5075 4025 4637 2987 
Q 4200 1950 3550 1175 
z
M 2975 5175 
Q 3425 4350 3675 3650 
Q 3375 3550 3175 3450 
Q 2925 4175 2525 4950 
Q 2750 5025 2975 5175 
z
" transform="scale(0.015625)"/>
     <path id="SimHei-4e0d" d="M 5975 4450 
Q 5525 4475 5200 4475 
L 3725 4475 
Q 3550 4125 3300 3700 
L 3300 575 
Q 3300 75 3325 -550 
L 2775 -550 
Q 2800 50 2800 575 
L 2800 3025 
Q 2025 1950 700 1050 
Q 500 1350 325 1475 
Q 825 1700 1650 2437 
Q 2475 3175 3175 4475 
L 1525 4475 
Q 1050 4475 525 4450 
L 525 4950 
Q 1275 4925 1675 4925 
L 5175 4925 
Q 5500 4925 5975 4950 
L 5975 4450 
z
M 5450 1125 
Q 4975 1725 3750 2975 
Q 3950 3150 4075 3325 
Q 4675 2775 5100 2362 
Q 5525 1950 5900 1550 
Q 5650 1350 5450 1125 
z
" transform="scale(0.015625)"/>
    </defs>
    <use xlink:href="#SimHei-540c"/>
    <use xlink:href="#SimHei-4e00" transform="translate(100 0)"/>
    <use xlink:href="#SimHei-4fe1" transform="translate(200 0)"/>
    <use xlink:href="#SimHei-8d37" transform="translate(300 0)"/>
    <use xlink:href="#SimHei-80cc" transform="translate(400 0)"/>
    <use xlink:href="#SimHei-666f" transform="translate(500 0)"/>
    <use xlink:href="#SimHei-4e0b" transform="translate(600 0)"/>
    <use xlink:href="#SimHei-ff0c" transform="translate(700 0)"/>
    <use xlink:href="#SimHei-30" transform="translate(800 0)"/>
    <use xlink:href="#SimHei-20" transform="translate(850 0)"/>
    <use xlink:href="#SimHei-4e0e" transform="translate(900 0)"/>
    <use xlink:href="#SimHei-20" transform="translate(1000 0)"/>
    <use xlink:href="#SimHei-6d" transform="translate(1050 0)"/>
    <use xlink:href="#SimHei-69" transform="translate(1100 0)"/>
    <use xlink:href="#SimHei-73" transform="translate(1150 0)"/>
    <use xlink:href="#SimHei-73" transform="translate(1200 0)"/>
    <use xlink:href="#SimHei-69" transform="translate(1250 0)"/>
    <use xlink:href="#SimHei-6e" transform="translate(1300 0)"/>
    <use xlink:href="#SimHei-67" transform="translate(1350 0)"/>
    <use xlink:href="#SimHei-20" transform="translate(1400 0)"/>
    <use xlink:href="#SimHei-7684" transform="translate(1450 0)"/>
    <use xlink:href="#SimHei-542b" transform="translate(1550 0)"/>
    <use xlink:href="#SimHei-4e49" transform="translate(1650 0)"/>
    <use xlink:href="#SimHei-4e0d" transform="translate(1750 0)"/>
    <use xlink:href="#SimHei-540c" transform="translate(1850 0)"/>
   </g>
  </g>
 </g>
 <defs>
  <clipPath id="p2c9fd446b0">
   <rect x="50.297656" y="49.536" width="279" height="232.848"/>
  </clipPath>
  <clipPath id="p522f650542">
   <rect x="385.097656" y="49.536" width="279" height="232.848"/>
  </clipPath>
 </defs>
</svg>
