<?xml version="1.0" encoding="utf-8" standalone="no"?>
<!DOCTYPE svg PUBLIC "-//W3C//DTD SVG 1.1//EN"
  "http://www.w3.org/Graphics/SVG/1.1/DTD/svg11.dtd">
<svg xmlns:xlink="http://www.w3.org/1999/xlink" width="460.8pt" height="280.512pt" viewBox="0 0 460.8 280.512" xmlns="http://www.w3.org/2000/svg" version="1.1">
 <metadata>
  <rdf:RDF xmlns:dc="http://purl.org/dc/elements/1.1/" xmlns:cc="http://creativecommons.org/ns#" xmlns:rdf="http://www.w3.org/1999/02/22-rdf-syntax-ns#">
   <cc:Work>
    <dc:type rdf:resource="http://purl.org/dc/dcmitype/StillImage"/>
    <dc:date>2026-04-30T01:29:35.794406</dc:date>
    <dc:format>image/svg+xml</dc:format>
    <dc:creator>
     <cc:Agent>
      <dc:title>Matplotlib v3.10.8, https://matplotlib.org/</dc:title>
     </cc:Agent>
    </dc:creator>
   </cc:Work>
  </rdf:RDF>
 </metadata>
 <defs>
  <style type="text/css">*{stroke-linejoin: round; stroke-linecap: butt}</style>
 </defs>
 <g id="figure_1">
  <g id="patch_1">
   <path d="M 0 280.512 
L 460.8 280.512 
L 460.8 0 
L 0 0 
z
" style="fill: #ffffff"/>
  </g>
  <g id="axes_1">
   <g id="patch_2">
    <path d="M 27.288 96.613632 
L 112.104 96.613632 
Q 117.4608 96.613632 117.4608 90.226944 
L 117.4608 62.551296 
Q 117.4608 56.164608 112.104 56.164608 
L 27.288 56.164608 
Q 21.9312 56.164608 21.9312 62.551296 
L 21.9312 90.226944 
Q 21.9312 96.613632 27.288 96.613632 
z
" clip-path="url(#pfdf98c2d95)" style="fill: #fff6dd; stroke: #d89c00; stroke-width: 1.4; stroke-linejoin: miter"/>
   </g>
   <g id="patch_3">
    <path d="M 27.288 219.025152 
L 112.104 219.025152 
Q 117.4608 219.025152 117.4608 212.638464 
L 117.4608 184.962816 
Q 117.4608 178.576128 112.104 178.576128 
L 27.288 178.576128 
Q 21.9312 178.576128 21.9312 184.962816 
L 21.9312 212.638464 
Q 21.9312 219.025152 27.288 219.025152 
z
" clip-path="url(#pfdf98c2d95)" style="fill: #eaf4ff; stroke: #4c78a8; stroke-width: 1.4; stroke-linejoin: miter"/>
   </g>
   <g id="patch_4">
    <path d="M 172.368 155.158272 
L 261.648 155.158272 
Q 267.0048 155.158272 267.0048 148.771584 
L 267.0048 121.095936 
Q 267.0048 114.709248 261.648 114.709248 
L 172.368 114.709248 
Q 167.0112 114.709248 167.0112 121.095936 
L 167.0112 148.771584 
Q 167.0112 155.158272 172.368 155.158272 
z
" clip-path="url(#pfdf98c2d95)" style="fill: #e9f7ef; stroke: #2e8b57; stroke-width: 1.4; stroke-linejoin: miter"/>
   </g>
   <g id="patch_5">
    <path d="M 319.68 155.158272 
L 408.96 155.158272 
Q 414.3168 155.158272 414.3168 148.771584 
L 414.3168 121.095936 
Q 414.3168 114.709248 408.96 114.709248 
L 319.68 114.709248 
Q 314.3232 114.709248 314.3232 121.095936 
L 314.3232 148.771584 
Q 314.3232 155.158272 319.68 155.158272 
z
" clip-path="url(#pfdf98c2d95)" style="fill: #f0f0ff; stroke: #6f63b6; stroke-width: 1.4; stroke-linejoin: miter"/>
   </g>
   <g id="patch_6">
    <path d="M 122.992901 87.099218 
Q 143.352837 100.339744 162.025686 112.48312 
" clip-path="url(#pfdf98c2d95)" style="fill: none; stroke: #333333; stroke-width: 1.8; stroke-linecap: round"/>
    <path d="M 158.857594 107.082824 
L 162.025686 112.48312 
L 155.804594 111.777417 
z
" clip-path="url(#pfdf98c2d95)" style="fill: #333333; stroke: #333333; stroke-width: 1.8; stroke-linecap: round"/>
   </g>
   <g id="patch_7">
    <path d="M 122.579306 190.201376 
Q 143.353585 172.188066 162.607393 155.493151 
" clip-path="url(#pfdf98c2d95)" style="fill: none; stroke: #333333; stroke-width: 1.8; stroke-linecap: round"/>
    <path d="M 156.54211 157.046322 
L 162.607393 155.493151 
L 160.21076 161.27728 
z
" clip-path="url(#pfdf98c2d95)" style="fill: #333333; stroke: #333333; stroke-width: 1.8; stroke-linecap: round"/>
   </g>
   <g id="patch_8">
    <path d="M 271.11411 134.93376 
Q 290.665751 134.93376 308.20493 134.93376 
" clip-path="url(#pfdf98c2d95)" style="fill: none; stroke: #333333; stroke-width: 1.8; stroke-linecap: round"/>
    <path d="M 302.60493 132.13376 
L 308.20493 134.93376 
L 302.60493 137.73376 
z
" clip-path="url(#pfdf98c2d95)" style="fill: #333333; stroke: #333333; stroke-width: 1.8; stroke-linecap: round"/>
   </g>
   <g id="patch_9">
    <path d="M 123.62828 205.475692 
Q 217.008876 180.172563 308.447057 155.395765 
" clip-path="url(#pfdf98c2d95)" style="fill: none; stroke: #333333; stroke-width: 1.8; stroke-linecap: round"/>
    <path d="M 302.309671 154.157826 
L 308.447057 155.395765 
L 303.774275 159.562911 
z
" clip-path="url(#pfdf98c2d95)" style="fill: #333333; stroke: #333333; stroke-width: 1.8; stroke-linecap: round"/>
   </g>
   <g id="line2d_1">
    <path d="M 118.8 76.38912 
L 315.216 113.6448 
" clip-path="url(#pfdf98c2d95)" style="fill: none; stroke-dasharray: 5.18,2.24; stroke-dashoffset: 0; stroke: #777777; stroke-width: 1.4"/>
   </g>
   <g id="text_1">
    <!-- bank_access -->
    <g style="fill: #111111" transform="translate(39.446 73.415682) scale(0.11 -0.11)">
     <defs>
      <path id="SimHei-62" d="M 2825 1525 
Q 2825 800 2475 437 
Q 2125 75 1625 75 
Q 1350 75 1150 175 
Q 950 275 800 500 
L 800 125 
L 300 125 
L 300 4400 
L 800 4400 
L 800 2550 
Q 950 2775 1150 2887 
Q 1350 3000 1625 3000 
Q 2125 3000 2475 2625 
Q 2825 2250 2825 1525 
z
M 2275 1525 
Q 2275 2000 2087 2275 
Q 1900 2550 1525 2550 
Q 1225 2550 1012 2275 
Q 800 2000 800 1525 
Q 800 1050 1012 787 
Q 1225 525 1525 525 
Q 1900 525 2087 787 
Q 2275 1050 2275 1525 
z
" transform="scale(0.015625)"/>
      <path id="SimHei-61" d="M 2875 125 
L 2275 125 
Q 2225 175 2200 262 
Q 2175 350 2175 475 
Q 2000 275 1750 175 
Q 1500 75 1225 75 
Q 825 75 550 275 
Q 275 475 275 850 
Q 275 1225 525 1450 
Q 775 1675 1300 1750 
Q 1650 1800 1912 1875 
Q 2175 1950 2175 2075 
Q 2175 2225 2062 2375 
Q 1950 2525 1575 2525 
Q 1275 2525 1137 2412 
Q 1000 2300 950 2100 
L 400 2100 
Q 450 2500 762 2737 
Q 1075 2975 1575 2975 
Q 2125 2975 2400 2725 
Q 2675 2475 2675 2025 
L 2675 650 
Q 2675 500 2725 375 
Q 2775 250 2875 125 
z
M 2175 1050 
L 2175 1550 
Q 2025 1500 1887 1462 
Q 1750 1425 1425 1375 
Q 1050 1325 937 1200 
Q 825 1075 825 900 
Q 825 750 937 637 
Q 1050 525 1275 525 
Q 1500 525 1762 650 
Q 2025 775 2175 1050 
z
" transform="scale(0.015625)"/>
      <path id="SimHei-6e" d="M 2800 125 
L 2300 125 
L 2300 1925 
Q 2300 2225 2150 2400 
Q 2000 2575 1750 2575 
Q 1425 2575 1137 2237 
Q 850 1900 850 1400 
L 850 125 
L 350 125 
L 350 2925 
L 850 2925 
L 850 2400 
Q 1050 2675 1287 2825 
Q 1525 2975 1900 2975 
Q 2350 2975 2575 2725 
Q 2800 2475 2800 2100 
L 2800 125 
z
" transform="scale(0.015625)"/>
      <path id="SimHei-6b" d="M 2925 125 
L 2350 125 
L 1450 1650 
L 875 1100 
L 875 125 
L 375 125 
L 375 4400 
L 875 4400 
L 875 1675 
L 2125 2925 
L 2750 2925 
L 1775 1975 
L 2925 125 
z
" transform="scale(0.015625)"/>
      <path id="SimHei-5f" d="M 3150 -850 
L 0 -850 
L 0 -550 
L 3150 -550 
L 3150 -850 
z
" transform="scale(0.015625)"/>
      <path id="SimHei-63" d="M 2850 1250 
Q 2850 725 2487 400 
Q 2125 75 1575 75 
Q 1025 75 625 462 
Q 225 850 225 1525 
Q 225 2200 625 2587 
Q 1025 2975 1575 2975 
Q 2125 2975 2450 2687 
Q 2775 2400 2775 2000 
L 2225 2000 
Q 2200 2300 2012 2412 
Q 1825 2525 1575 2525 
Q 1275 2525 1025 2287 
Q 775 2050 775 1525 
Q 775 1000 1025 762 
Q 1275 525 1575 525 
Q 1900 525 2100 700 
Q 2300 875 2300 1250 
L 2850 1250 
z
" transform="scale(0.015625)"/>
      <path id="SimHei-65" d="M 2850 1075 
Q 2800 625 2450 350 
Q 2100 75 1625 75 
Q 1025 75 637 462 
Q 250 850 250 1525 
Q 250 2200 637 2587 
Q 1025 2975 1625 2975 
Q 2150 2975 2487 2637 
Q 2825 2300 2825 1525 
L 800 1525 
Q 800 975 1037 750 
Q 1275 525 1625 525 
Q 1900 525 2075 662 
Q 2250 800 2300 1075 
L 2850 1075 
z
M 2250 1925 
Q 2200 2275 2025 2412 
Q 1850 2550 1575 2550 
Q 1325 2550 1125 2412 
Q 925 2275 825 1925 
L 2250 1925 
z
" transform="scale(0.015625)"/>
      <path id="SimHei-73" d="M 2750 900 
Q 2750 500 2437 287 
Q 2125 75 1650 75 
Q 1050 75 725 312 
Q 400 550 400 1000 
L 900 1000 
Q 900 700 1112 600 
Q 1325 500 1625 500 
Q 1925 500 2075 612 
Q 2225 725 2225 900 
Q 2225 1025 2100 1150 
Q 1975 1275 1475 1350 
Q 900 1425 687 1637 
Q 475 1850 475 2200 
Q 475 2500 762 2737 
Q 1050 2975 1600 2975 
Q 2100 2975 2387 2750 
Q 2675 2525 2675 2150 
L 2175 2150 
Q 2175 2375 2012 2462 
Q 1850 2550 1600 2550 
Q 1275 2550 1137 2437 
Q 1000 2325 1000 2175 
Q 1000 2000 1125 1900 
Q 1250 1800 1650 1750 
Q 2300 1650 2525 1437 
Q 2750 1225 2750 900 
z
" transform="scale(0.015625)"/>
     </defs>
     <use xlink:href="#SimHei-62"/>
     <use xlink:href="#SimHei-61" transform="translate(50 0)"/>
     <use xlink:href="#SimHei-6e" transform="translate(100 0)"/>
     <use xlink:href="#SimHei-6b" transform="translate(150 0)"/>
     <use xlink:href="#SimHei-5f" transform="translate(200 0)"/>
     <use xlink:href="#SimHei-61" transform="translate(250 0)"/>
     <use xlink:href="#SimHei-63" transform="translate(300 0)"/>
     <use xlink:href="#SimHei-63" transform="translate(350 0)"/>
     <use xlink:href="#SimHei-65" transform="translate(400 0)"/>
     <use xlink:href="#SimHei-73" transform="translate(450 0)"/>
     <use xlink:href="#SimHei-73" transform="translate(500 0)"/>
    </g>
    <!-- 银行可得性 -->
    <g style="fill: #111111" transform="translate(42.196 85.550057) scale(0.11 -0.11)">
     <defs>
      <path id="SimHei-94f6" d="M 5675 4900 
Q 5650 4425 5650 3875 
L 5650 3275 
Q 5650 2850 5675 2375 
L 4450 2375 
Q 4525 1925 4725 1500 
Q 5225 1825 5500 2225 
Q 5675 2050 5950 1800 
Q 5225 1400 4925 1100 
Q 5350 375 6200 25 
Q 5900 -175 5725 -450 
Q 5125 -50 4650 712 
Q 4175 1475 4000 2375 
L 3575 2375 
L 3575 150 
Q 3775 250 4200 600 
Q 4275 350 4400 150 
Q 3925 -100 3225 -625 
Q 3075 -375 2975 -200 
Q 3125 25 3150 450 
L 3150 3775 
Q 3150 4300 3125 4900 
L 5675 4900 
z
M 2500 2775 
Q 2100 2800 1850 2800 
L 1850 2075 
Q 2275 2075 2725 2100 
L 2725 1600 
Q 2275 1625 1850 1625 
L 1850 350 
Q 2225 675 2500 950 
Q 2575 625 2650 425 
Q 2500 350 2150 50 
Q 1800 -250 1525 -550 
Q 1375 -325 1200 -125 
Q 1375 125 1400 475 
L 1400 1625 
Q 1050 1625 600 1600 
L 600 2100 
Q 1100 2075 1400 2075 
L 1400 2800 
Q 1250 2800 950 2775 
L 950 3200 
Q 1350 3175 1725 3175 
Q 2125 3175 2500 3200 
L 2500 2775 
z
M 550 2925 
Q 350 3175 200 3350 
Q 575 3700 862 4225 
Q 1150 4750 1350 5275 
Q 1575 5125 1950 5050 
Q 1700 4750 1425 4250 
L 1800 4250 
Q 2125 4250 2675 4275 
L 2675 3800 
Q 2125 3825 1800 3825 
L 1200 3825 
Q 750 3175 550 2925 
z
M 5200 2800 
L 5200 3450 
L 3575 3450 
L 3575 2800 
L 5200 2800 
z
M 5200 3850 
L 5200 4475 
L 3575 4475 
L 3575 3850 
L 5200 3850 
z
" transform="scale(0.015625)"/>
      <path id="SimHei-884c" d="M 5300 3100 
Q 5775 3100 6175 3125 
L 6175 2625 
Q 5775 2650 5325 2650 
L 4975 2650 
L 4975 -75 
Q 5000 -375 4787 -487 
Q 4575 -600 3950 -675 
Q 3900 -375 3675 -75 
Q 4100 -125 4275 -112 
Q 4450 -100 4475 150 
L 4475 2650 
L 3475 2650 
Q 3000 2650 2575 2625 
L 2575 3125 
Q 3025 3100 3475 3100 
L 5300 3100 
z
M 2300 3400 
Q 2075 3275 1962 3075 
Q 1850 2875 1650 2575 
L 1650 325 
Q 1650 0 1675 -675 
L 1150 -675 
Q 1175 75 1175 450 
L 1175 2050 
Q 950 1675 575 1300 
Q 400 1550 250 1725 
Q 825 2275 1150 2775 
Q 1475 3275 1725 3725 
Q 1975 3575 2300 3400 
z
M 4875 4800 
Q 5300 4800 5750 4825 
L 5750 4350 
Q 5300 4375 4825 4375 
L 3900 4375 
Q 3350 4375 2950 4350 
L 2950 4825 
Q 3350 4800 3900 4800 
L 4875 4800 
z
M 2075 4925 
Q 1875 4900 1550 4387 
Q 1225 3875 650 3250 
Q 500 3450 325 3625 
Q 725 4025 1050 4487 
Q 1375 4950 1525 5300 
Q 1775 5150 2075 4925 
z
" transform="scale(0.015625)"/>
      <path id="SimHei-53ef" d="M 3600 3500 
Q 3575 3175 3575 2775 
L 3575 1550 
Q 3575 1125 3600 825 
L 3075 825 
L 3075 1275 
L 1650 1275 
L 1650 600 
L 1150 600 
Q 1175 775 1175 1175 
L 1175 2775 
Q 1175 3175 1150 3500 
L 3600 3500 
z
M 5200 4675 
Q 5600 4675 6050 4700 
L 6050 4225 
Q 5650 4250 5225 4250 
L 5075 4250 
L 5075 125 
Q 5075 -325 4812 -462 
Q 4550 -600 3750 -675 
Q 3700 -350 3550 -75 
Q 4075 -100 4300 -50 
Q 4525 0 4525 225 
L 4525 4250 
L 1525 4250 
Q 875 4250 350 4225 
L 350 4700 
Q 875 4675 1500 4675 
L 5200 4675 
z
M 3075 1700 
L 3075 3075 
L 1650 3075 
L 1650 1700 
L 3075 1700 
z
" transform="scale(0.015625)"/>
      <path id="SimHei-5f97" d="M 5575 4975 
Q 5550 4625 5550 3950 
Q 5550 3300 5575 2900 
L 2675 2900 
Q 2700 3300 2700 3950 
Q 2700 4600 2675 4975 
L 5575 4975 
z
M 1950 1625 
Q 2400 1600 2950 1600 
L 4775 1600 
L 4775 2100 
L 3125 2100 
Q 2700 2100 2325 2075 
L 2325 2500 
Q 2700 2475 3125 2475 
L 5000 2475 
Q 5525 2475 5900 2500 
L 5900 2075 
Q 5575 2100 5225 2100 
L 5225 1600 
Q 5675 1600 6075 1625 
L 6075 1175 
Q 5700 1200 5225 1200 
L 5225 250 
Q 5250 -275 4950 -400 
Q 4650 -525 4175 -600 
Q 4125 -350 3975 -25 
Q 4550 -25 4675 62 
Q 4800 150 4775 425 
L 4775 1200 
L 2950 1200 
Q 2400 1200 1950 1175 
L 1950 1625 
z
M 1150 -550 
Q 1175 125 1175 575 
L 1175 2075 
Q 950 1825 625 1500 
Q 475 1750 275 1925 
Q 775 2300 1150 2775 
Q 1525 3250 1800 3775 
Q 2000 3600 2275 3450 
Q 2050 3150 1625 2575 
L 1625 575 
Q 1625 125 1650 -550 
L 1150 -550 
z
M 2150 4875 
Q 1450 4000 825 3375 
Q 675 3575 475 3750 
Q 1175 4325 1700 5200 
Q 1900 5025 2150 4875 
z
M 5100 3300 
L 5100 3775 
L 3150 3775 
L 3150 3300 
L 5100 3300 
z
M 5100 4150 
L 5100 4600 
L 3150 4600 
L 3150 4150 
L 5100 4150 
z
M 2950 1050 
Q 3325 525 3550 175 
Q 3375 75 3100 -125 
Q 2950 275 2575 750 
Q 2800 900 2950 1050 
z
" transform="scale(0.015625)"/>
      <path id="SimHei-6027" d="M 3450 4525 
Q 3325 4075 3275 3750 
L 4050 3750 
L 4050 4275 
Q 4050 4700 4025 5100 
L 4550 5100 
Q 4525 4700 4525 4275 
L 4525 3750 
L 5025 3750 
Q 5350 3750 5800 3775 
L 5800 3300 
Q 5350 3325 5025 3325 
L 4525 3325 
L 4525 2000 
L 4975 2000 
Q 5350 2000 5725 2025 
L 5725 1550 
Q 5350 1575 4975 1575 
L 4525 1575 
L 4525 25 
L 5200 25 
Q 5625 25 6025 50 
L 6025 -400 
Q 5625 -375 5200 -375 
L 3275 -375 
Q 2825 -375 2400 -400 
L 2400 50 
Q 2825 25 3250 25 
L 4050 25 
L 4050 1575 
L 3625 1575 
Q 3300 1575 2875 1550 
L 2875 2025 
Q 3200 2000 3625 2000 
L 4050 2000 
L 4050 3325 
L 3175 3325 
Q 3100 2950 2775 2225 
Q 2500 2375 2325 2400 
Q 2675 3125 2775 3650 
Q 2875 4175 2950 4650 
Q 3200 4575 3450 4525 
z
M 1700 5150 
Q 1675 4650 1675 4175 
L 1675 425 
Q 1675 -100 1700 -625 
L 1175 -625 
Q 1200 -100 1200 425 
L 1200 4175 
Q 1200 4700 1175 5150 
L 1700 5150 
z
M 975 3725 
Q 825 2675 700 2150 
Q 450 2200 250 2250 
Q 425 2900 525 3800 
Q 725 3775 975 3725 
z
M 2125 4025 
Q 2325 3625 2525 3000 
Q 2300 2925 2125 2825 
Q 1950 3375 1750 3850 
Q 1950 3950 2125 4025 
z
" transform="scale(0.015625)"/>
     </defs>
     <use xlink:href="#SimHei-94f6"/>
     <use xlink:href="#SimHei-884c" transform="translate(100 0)"/>
     <use xlink:href="#SimHei-53ef" transform="translate(200 0)"/>
     <use xlink:href="#SimHei-5f97" transform="translate(300 0)"/>
     <use xlink:href="#SimHei-6027" transform="translate(400 0)"/>
    </g>
   </g>
   <g id="text_2">
    <!-- collateral, risk -->
    <g style="fill: #111111" transform="translate(25.696 195.921734) scale(0.11 -0.11)">
     <defs>
      <path id="SimHei-6f" d="M 2925 1525 
Q 2925 875 2525 475 
Q 2125 75 1575 75 
Q 1025 75 625 475 
Q 225 875 225 1525 
Q 225 2175 625 2575 
Q 1025 2975 1575 2975 
Q 2125 2975 2525 2575 
Q 2925 2175 2925 1525 
z
M 2375 1525 
Q 2375 2025 2125 2275 
Q 1875 2525 1575 2525 
Q 1275 2525 1025 2275 
Q 775 2025 775 1525 
Q 775 1025 1025 775 
Q 1275 525 1575 525 
Q 1875 525 2125 775 
Q 2375 1025 2375 1525 
z
" transform="scale(0.015625)"/>
      <path id="SimHei-6c" d="M 1825 125 
L 1325 125 
L 1325 4400 
L 1825 4400 
L 1825 125 
z
" transform="scale(0.015625)"/>
      <path id="SimHei-74" d="M 2750 200 
Q 2625 150 2462 112 
Q 2300 75 2025 75 
Q 1575 75 1300 325 
Q 1025 575 1025 1025 
L 1025 2525 
L 175 2525 
L 175 2925 
L 1025 2925 
L 1025 3900 
L 1525 3900 
L 1525 2925 
L 2550 2925 
L 2550 2525 
L 1525 2525 
L 1525 1000 
Q 1525 800 1625 662 
Q 1725 525 2000 525 
Q 2275 525 2450 575 
Q 2625 625 2750 700 
L 2750 200 
z
" transform="scale(0.015625)"/>
      <path id="SimHei-72" d="M 2500 2425 
Q 2025 2500 1700 2287 
Q 1375 2075 1150 1550 
L 1150 125 
L 650 125 
L 650 2925 
L 1150 2925 
L 1150 2200 
Q 1375 2600 1712 2787 
Q 2050 2975 2500 2975 
L 2500 2425 
z
" transform="scale(0.015625)"/>
      <path id="SimHei-2c" d="M 1100 125 
L 775 -550 
L 525 -550 
L 775 125 
L 525 125 
L 525 675 
L 1100 675 
L 1100 125 
z
" transform="scale(0.015625)"/>
      <path id="SimHei-20" transform="scale(0.015625)"/>
      <path id="SimHei-69" d="M 1800 3725 
L 1300 3725 
L 1300 4375 
L 1800 4375 
L 1800 3725 
z
M 1800 125 
L 1300 125 
L 1300 2925 
L 1800 2925 
L 1800 125 
z
" transform="scale(0.015625)"/>
     </defs>
     <use xlink:href="#SimHei-63"/>
     <use xlink:href="#SimHei-6f" transform="translate(50 0)"/>
     <use xlink:href="#SimHei-6c" transform="translate(100 0)"/>
     <use xlink:href="#SimHei-6c" transform="translate(150 0)"/>
     <use xlink:href="#SimHei-61" transform="translate(200 0)"/>
     <use xlink:href="#SimHei-74" transform="translate(250 0)"/>
     <use xlink:href="#SimHei-65" transform="translate(300 0)"/>
     <use xlink:href="#SimHei-72" transform="translate(350 0)"/>
     <use xlink:href="#SimHei-61" transform="translate(400 0)"/>
     <use xlink:href="#SimHei-6c" transform="translate(450 0)"/>
     <use xlink:href="#SimHei-2c" transform="translate(500 0)"/>
     <use xlink:href="#SimHei-20" transform="translate(550 0)"/>
     <use xlink:href="#SimHei-72" transform="translate(600 0)"/>
     <use xlink:href="#SimHei-69" transform="translate(650 0)"/>
     <use xlink:href="#SimHei-73" transform="translate(700 0)"/>
     <use xlink:href="#SimHei-6b" transform="translate(750 0)"/>
    </g>
    <!-- 抵押与风险 -->
    <g style="fill: #111111" transform="translate(42.196 207.867046) scale(0.11 -0.11)">
     <defs>
      <path id="SimHei-62b5" d="M 2575 125 
Q 2725 325 2725 625 
L 2725 3850 
Q 2725 4375 2700 4725 
Q 3400 4750 4087 4850 
Q 4775 4950 5300 5175 
Q 5425 4900 5625 4625 
Q 5300 4600 4600 4500 
Q 4625 3350 4650 2975 
Q 5375 2975 5975 3000 
L 5975 2525 
Q 5375 2550 4675 2550 
Q 4700 2050 4862 1387 
Q 5025 725 5225 412 
Q 5425 100 5512 200 
Q 5600 300 5700 800 
Q 5900 550 6200 450 
Q 5975 -125 5837 -312 
Q 5700 -500 5475 -487 
Q 5250 -475 4950 -37 
Q 4650 400 4462 1137 
Q 4275 1875 4225 2550 
L 3150 2550 
L 3150 650 
Q 3425 900 3825 1350 
Q 3925 1075 4050 875 
Q 3600 500 2925 -275 
L 2575 125 
z
M 300 3925 
Q 825 3900 1200 3900 
Q 1200 4750 1175 5225 
L 1700 5225 
Q 1675 4750 1675 3900 
Q 2225 3900 2400 3925 
L 2400 3450 
Q 2225 3475 1675 3475 
L 1675 2400 
Q 2150 2600 2350 2675 
Q 2350 2475 2375 2225 
Q 2150 2150 1675 1975 
L 1675 275 
Q 1675 -150 1487 -300 
Q 1300 -450 700 -575 
Q 650 -300 500 0 
Q 925 25 1062 75 
Q 1200 125 1200 400 
L 1200 1775 
Q 700 1575 450 1450 
Q 350 1675 225 1950 
Q 525 2025 1200 2250 
L 1200 3475 
Q 825 3475 300 3450 
L 300 3925 
z
M 4175 2975 
Q 4175 3325 4125 4425 
Q 3600 4375 3150 4350 
L 3150 2975 
L 4175 2975 
z
M 3925 475 
Q 4250 75 4525 -250 
Q 4325 -350 4125 -575 
Q 3875 -200 3575 125 
Q 3750 275 3925 475 
z
" transform="scale(0.015625)"/>
      <path id="SimHei-62bc" d="M 5925 4950 
Q 5900 4500 5900 3975 
L 5900 2100 
Q 5900 1550 5925 1025 
L 5450 1025 
L 5450 1400 
L 4550 1400 
L 4550 450 
Q 4550 -50 4575 -600 
L 4050 -600 
Q 4050 -50 4075 450 
L 4075 1400 
L 3150 1400 
L 3150 1050 
L 2650 1050 
Q 2650 1575 2675 2100 
L 2675 4000 
Q 2650 4475 2650 4950 
L 5925 4950 
z
M 1150 3800 
Q 1150 4925 1125 5225 
L 1675 5225 
Q 1650 4950 1650 3800 
Q 1900 3800 2250 3825 
L 2250 3375 
Q 1800 3400 1650 3400 
L 1650 2450 
Q 1950 2550 2225 2650 
Q 2200 2525 2225 2225 
Q 1900 2125 1650 2025 
L 1650 75 
Q 1650 -175 1487 -250 
Q 1325 -325 725 -450 
Q 675 -175 500 100 
Q 1000 100 1075 150 
Q 1150 200 1150 325 
L 1150 1875 
Q 675 1675 475 1525 
Q 375 1800 225 2075 
Q 475 2100 1150 2325 
L 1150 3400 
Q 675 3400 300 3375 
L 300 3825 
Q 550 3800 1150 3800 
z
M 4075 3300 
L 4075 4525 
L 3150 4525 
L 3150 3300 
L 4075 3300 
z
M 5450 3300 
L 5450 4525 
L 4550 4525 
L 4550 3300 
L 5450 3300 
z
M 4075 1825 
L 4075 2900 
L 3150 2900 
L 3150 1825 
L 4075 1825 
z
M 5450 1825 
L 5450 2900 
L 4550 2900 
L 4550 1825 
L 5450 1825 
z
" transform="scale(0.015625)"/>
      <path id="SimHei-4e0e" d="M 5350 100 
Q 5275 -300 4925 -425 
Q 4575 -550 3900 -600 
Q 3875 -375 3650 -25 
Q 4375 -50 4575 0 
Q 4775 50 4837 225 
Q 4900 400 5100 2350 
L 1125 2350 
Q 1450 4350 1475 5200 
Q 1800 5150 2075 5125 
Q 1975 4825 1900 4275 
L 4900 4275 
Q 5400 4275 5800 4300 
L 5800 3825 
Q 5400 3850 4950 3850 
L 1850 3850 
L 1700 2750 
L 5675 2750 
Q 5625 2450 5575 2050 
L 5350 100 
z
M 3675 1350 
Q 4125 1350 4500 1375 
L 4500 875 
Q 4125 900 3850 900 
L 1450 900 
Q 1000 900 500 875 
L 500 1375 
Q 1000 1350 1450 1350 
L 3675 1350 
z
" transform="scale(0.015625)"/>
      <path id="SimHei-98ce" d="M 5100 4950 
Q 5050 3950 5062 3137 
Q 5075 2325 5087 1825 
Q 5100 1325 5262 712 
Q 5425 100 5525 150 
Q 5625 200 5700 775 
Q 5925 550 6200 450 
Q 5950 -475 5687 -562 
Q 5425 -650 5175 -337 
Q 4925 -25 4787 575 
Q 4650 1175 4625 1862 
Q 4600 2550 4600 4500 
L 1500 4500 
Q 1500 2475 1437 1825 
Q 1375 1175 1187 525 
Q 1000 -125 625 -675 
Q 400 -425 275 -275 
Q 600 150 775 737 
Q 950 1325 1000 2062 
Q 1050 2800 1050 3675 
Q 1050 4550 1025 4950 
L 5100 4950 
z
M 4225 3625 
Q 4075 3425 3875 2950 
Q 3675 2475 3475 2100 
Q 4025 1200 4350 525 
Q 4100 400 3925 275 
Q 3750 700 3225 1625 
Q 2950 1250 2650 925 
Q 2350 600 1950 250 
Q 1750 525 1600 625 
Q 2000 875 2375 1287 
Q 2750 1700 2950 2025 
Q 2450 2825 1850 3450 
Q 2075 3600 2200 3750 
Q 2700 3175 3200 2475 
Q 3475 3000 3725 3925 
L 4225 3625 
z
" transform="scale(0.015625)"/>
      <path id="SimHei-9669" d="M 2325 4875 
Q 2175 4525 2025 3975 
Q 1875 3425 1675 2850 
Q 2025 2350 2137 1987 
Q 2250 1625 2250 1300 
Q 2250 975 2000 800 
Q 1750 625 1400 550 
Q 1325 850 1175 1075 
Q 1650 1075 1712 1250 
Q 1775 1425 1712 1775 
Q 1650 2125 1225 2750 
Q 1600 3925 1700 4475 
L 1000 4475 
L 1000 -650 
L 525 -650 
Q 550 0 550 550 
L 550 3750 
Q 550 4250 525 4875 
L 2325 4875 
z
M 4225 4875 
Q 4675 4100 5112 3737 
Q 5550 3375 6200 3050 
Q 5950 2875 5825 2600 
Q 5425 2800 4975 3175 
L 4975 2750 
Q 4675 2775 4350 2775 
L 3675 2775 
Q 3275 2775 2925 2750 
L 2925 3025 
Q 2650 2725 2350 2425 
Q 2200 2675 1925 2825 
Q 2350 3075 2875 3725 
Q 3400 4375 3700 5250 
Q 4050 5100 4350 5025 
L 4225 4875 
z
M 5500 2100 
Q 5350 1850 5150 1262 
Q 4950 675 4775 25 
Q 5425 25 5950 50 
L 5950 -400 
Q 5525 -375 5100 -375 
L 3100 -375 
Q 2475 -375 2100 -400 
L 2100 50 
Q 2550 25 3125 25 
L 4325 25 
Q 4600 875 4712 1387 
Q 4825 1900 4850 2275 
Q 5125 2175 5500 2100 
z
M 4950 3200 
Q 4450 3675 3950 4550 
Q 3550 3825 3050 3200 
L 4950 3200 
z
M 3950 2250 
Q 4125 1625 4275 775 
Q 4050 775 3800 725 
Q 3625 1750 3500 2150 
Q 3750 2175 3950 2250 
z
M 2950 2075 
Q 3125 1425 3350 525 
Q 3125 500 2925 400 
Q 2825 975 2525 1925 
Q 2750 2000 2950 2075 
z
" transform="scale(0.015625)"/>
     </defs>
     <use xlink:href="#SimHei-62b5"/>
     <use xlink:href="#SimHei-62bc" transform="translate(100 0)"/>
     <use xlink:href="#SimHei-4e0e" transform="translate(200 0)"/>
     <use xlink:href="#SimHei-98ce" transform="translate(300 0)"/>
     <use xlink:href="#SimHei-9669" transform="translate(400 0)"/>
    </g>
   </g>
   <g id="text_3">
    <!-- 是否获得贷款 -->
    <g style="fill: #111111" transform="translate(184.008 132.876072) scale(0.11 -0.11)">
     <defs>
      <path id="SimHei-662f" d="M 5075 5000 
Q 5050 4625 5050 3950 
Q 5050 3300 5075 2725 
L 1350 2725 
Q 1375 3300 1375 3950 
Q 1375 4625 1350 5000 
L 5075 5000 
z
M 5075 2275 
Q 5500 2275 6025 2300 
L 6025 1850 
Q 5500 1875 5075 1875 
L 3475 1875 
L 3475 1250 
Q 4950 1250 5400 1275 
L 5400 825 
Q 4950 850 3475 850 
L 3475 100 
Q 3950 25 4650 25 
Q 5350 25 6200 125 
Q 6000 -150 5950 -475 
L 4675 -475 
Q 4125 -475 3650 -412 
Q 3175 -350 2712 -175 
Q 2250 0 1725 450 
Q 1625 250 1437 -12 
Q 1250 -275 875 -650 
Q 625 -450 375 -300 
Q 875 0 1200 575 
Q 1525 1150 1575 1650 
L 2175 1475 
Q 2100 1375 1925 900 
Q 2375 425 3000 225 
L 3000 1875 
L 1400 1875 
Q 950 1875 450 1850 
L 450 2300 
Q 975 2275 1400 2275 
L 5075 2275 
z
M 4550 3150 
L 4550 3675 
L 1875 3675 
L 1875 3150 
L 4550 3150 
z
M 4550 4100 
L 4550 4600 
L 1875 4600 
L 1875 4100 
L 4550 4100 
z
" transform="scale(0.015625)"/>
      <path id="SimHei-5426" d="M 700 4800 
Q 1075 4775 1675 4775 
L 4800 4775 
Q 5525 4775 5750 4800 
L 5750 4325 
Q 5275 4350 4775 4350 
L 3725 4350 
L 3350 3975 
L 3350 1900 
L 5200 1900 
Q 5175 1675 5175 650 
Q 5175 -375 5200 -575 
L 4650 -575 
L 4650 -125 
L 1750 -125 
L 1750 -625 
L 1200 -625 
Q 1225 -325 1225 600 
Q 1225 1550 1200 1900 
L 2800 1900 
L 2800 3400 
Q 2500 3100 1762 2700 
Q 1025 2300 600 2125 
Q 475 2400 250 2600 
Q 900 2800 1725 3300 
Q 2550 3800 3000 4350 
L 1750 4350 
Q 1175 4350 700 4325 
L 700 4800 
z
M 4650 325 
L 4650 1450 
L 1750 1450 
L 1750 325 
L 4650 325 
z
M 4075 3725 
Q 4625 3450 5075 3237 
Q 5525 3025 6125 2675 
Q 6000 2450 5800 2150 
Q 5250 2500 4762 2762 
Q 4275 3025 3800 3250 
Q 3950 3450 4075 3725 
z
" transform="scale(0.015625)"/>
      <path id="SimHei-83b7" d="M 4325 3350 
Q 4275 3075 4275 2350 
L 5175 2350 
Q 5550 2350 5825 2375 
L 5825 1925 
Q 5550 1950 5175 1950 
L 4300 1950 
Q 4350 1700 4475 1400 
Q 4600 1100 4825 812 
Q 5050 525 5375 262 
Q 5700 0 5950 -75 
Q 5650 -300 5525 -525 
Q 5075 -200 4675 262 
Q 4275 725 4050 1350 
Q 3875 825 3637 475 
Q 3400 125 3187 -112 
Q 2975 -350 2625 -600 
Q 2450 -375 2250 -225 
Q 2550 -50 2825 200 
Q 3100 450 3287 750 
Q 3475 1050 3600 1387 
Q 3725 1725 3750 1950 
L 3475 1950 
Q 3050 1950 2600 1925 
L 2600 2375 
Q 3050 2350 3475 2350 
L 3800 2350 
Q 3800 3150 3775 3425 
Q 4025 3375 4325 3350 
z
M 2575 3200 
Q 2400 3100 2225 2962 
Q 2050 2825 1950 2725 
Q 2200 2375 2325 1837 
Q 2450 1300 2387 700 
Q 2325 100 1962 -187 
Q 1600 -475 975 -600 
Q 950 -400 775 -150 
Q 1350 -75 1587 100 
Q 1825 275 1887 512 
Q 1950 750 1962 987 
Q 1975 1225 1925 1625 
Q 1750 1375 1500 1162 
Q 1250 950 700 525 
Q 575 725 350 875 
Q 800 1075 1187 1412 
Q 1575 1750 1800 2050 
Q 1700 2300 1600 2450 
Q 1475 2350 1287 2225 
Q 1100 2100 700 1850 
Q 550 2025 375 2175 
Q 925 2400 1350 2775 
Q 1025 3050 750 3175 
Q 925 3325 1050 3525 
Q 1500 3200 1700 3050 
Q 2050 3325 2175 3550 
Q 2300 3375 2575 3200 
z
M 2550 4125 
Q 2550 3875 2575 3625 
L 2050 3625 
Q 2075 3950 2075 4125 
L 1400 4125 
Q 1025 4125 575 4100 
L 575 4550 
Q 1050 4525 1425 4525 
L 2075 4525 
Q 2075 4825 2050 5125 
L 2575 5125 
Q 2550 4875 2550 4525 
L 3825 4525 
Q 3825 4875 3800 5150 
L 4325 5150 
Q 4300 4875 4300 4525 
L 4925 4525 
Q 5325 4525 5825 4550 
L 5825 4100 
Q 5375 4125 4950 4125 
L 4300 4125 
Q 4300 3900 4325 3625 
L 3800 3625 
Q 3825 3875 3825 4125 
L 2550 4125 
z
M 4975 3425 
Q 5250 3175 5600 2700 
Q 5400 2575 5225 2400 
Q 4925 2850 4625 3150 
Q 4750 3225 4975 3425 
z
" transform="scale(0.015625)"/>
      <path id="SimHei-8d37" d="M 2975 5125 
Q 3250 5150 3500 5200 
Q 3550 4900 3600 4662 
Q 3650 4425 3750 4100 
Q 4675 4250 5700 4475 
L 5800 4050 
Q 5500 4025 5037 3937 
Q 4575 3850 3950 3750 
Q 4300 3250 4675 3012 
Q 5050 2775 5225 2850 
Q 5400 2925 5500 3400 
Q 5700 3250 6050 3175 
Q 5875 2775 5637 2525 
Q 5400 2275 4887 2412 
Q 4375 2550 4000 2937 
Q 3625 3325 3425 3675 
Q 2900 3550 2075 3400 
L 1950 3800 
Q 2375 3850 3275 4025 
L 2975 5125 
z
M 5275 2300 
Q 5250 1925 5250 1500 
Q 5250 1100 5275 625 
L 4700 625 
L 4700 1900 
L 1750 1900 
L 1750 550 
L 1200 550 
Q 1225 1175 1225 1550 
Q 1225 1925 1200 2300 
L 5275 2300 
z
M 3525 1450 
Q 3375 1075 3275 762 
Q 3175 450 2887 175 
Q 2600 -100 2075 -312 
Q 1550 -525 650 -650 
Q 525 -375 325 -125 
Q 1000 -100 1437 -12 
Q 1875 75 2200 287 
Q 2525 500 2687 775 
Q 2850 1050 2900 1600 
Q 3175 1500 3525 1450 
z
M 2250 4875 
Q 2050 4775 1650 4275 
Q 1650 2900 1675 2525 
L 1150 2525 
Q 1175 2900 1175 3875 
Q 800 3475 600 3300 
Q 400 3525 225 3675 
Q 775 4000 1112 4375 
Q 1450 4750 1750 5250 
L 2250 4875 
z
M 3900 675 
Q 4425 450 5875 -225 
Q 5675 -450 5525 -650 
Q 4725 -200 3575 275 
Q 3750 500 3900 675 
z
M 4500 5250 
Q 4675 5075 5100 4675 
Q 4825 4500 4650 4375 
Q 4475 4650 4100 4950 
Q 4325 5075 4500 5250 
z
" transform="scale(0.015625)"/>
      <path id="SimHei-6b3e" d="M 4900 2700 
Q 4850 2500 4812 2237 
Q 4775 1975 4925 1462 
Q 5075 950 5450 512 
Q 5825 75 6200 -100 
Q 5900 -350 5800 -525 
Q 5275 -75 5025 300 
Q 4775 675 4625 1125 
Q 4475 650 4225 250 
Q 3975 -150 3425 -625 
Q 3225 -300 3100 -200 
Q 3400 0 3637 275 
Q 3875 550 4025 862 
Q 4175 1175 4237 1487 
Q 4300 1800 4312 2112 
Q 4325 2425 4325 2800 
Q 4675 2725 4900 2700 
z
M 1775 4500 
Q 1775 4850 1750 5175 
L 2250 5175 
Q 2225 4875 2225 4500 
L 2650 4500 
Q 3050 4500 3500 4525 
L 3500 4075 
Q 3050 4125 2650 4125 
L 2225 4125 
L 2225 3575 
L 2475 3575 
Q 2800 3575 3250 3600 
L 3250 3175 
Q 2800 3200 2475 3200 
L 1450 3200 
Q 1125 3200 625 3150 
L 625 3600 
Q 1100 3575 1450 3575 
L 1775 3575 
L 1775 4125 
L 1250 4125 
Q 925 4125 450 4075 
L 450 4525 
Q 925 4500 1225 4500 
L 1775 4500 
z
M 4250 3525 
Q 4050 3050 3750 2600 
Q 3500 2775 3300 2850 
Q 3600 3225 3762 3625 
Q 3925 4025 4037 4387 
Q 4150 4750 4200 5075 
Q 4475 4950 4750 4900 
Q 4550 4500 4375 3925 
L 6150 3925 
Q 6050 3550 5962 3262 
Q 5875 2975 5800 2700 
L 5300 2750 
Q 5450 3150 5550 3525 
L 4250 3525 
z
M 2650 1825 
Q 3050 1825 3425 1850 
L 3425 1400 
Q 3050 1450 2650 1450 
L 2225 1450 
L 2225 100 
Q 2225 -275 2037 -375 
Q 1850 -475 1375 -575 
Q 1325 -300 1125 -25 
Q 1625 -50 1687 25 
Q 1750 100 1750 225 
L 1750 1450 
L 1175 1450 
Q 825 1450 400 1400 
L 400 1850 
Q 850 1825 1200 1825 
L 2650 1825 
z
M 2450 2700 
Q 2775 2700 3200 2725 
L 3200 2275 
Q 2800 2325 2450 2325 
L 1400 2325 
Q 1050 2325 650 2275 
L 650 2725 
Q 1050 2700 1400 2700 
L 2450 2700 
z
M 1400 975 
Q 1275 775 1100 475 
Q 925 175 675 -150 
Q 550 25 275 150 
Q 450 350 625 625 
Q 800 900 925 1225 
Q 1175 1100 1400 975 
z
M 2900 1175 
Q 3000 1000 3125 800 
Q 3250 600 3400 325 
Q 3175 200 2975 50 
L 2750 500 
Q 2650 700 2475 925 
Q 2650 1025 2900 1175 
z
" transform="scale(0.015625)"/>
     </defs>
     <use xlink:href="#SimHei-662f"/>
     <use xlink:href="#SimHei-5426" transform="translate(100 0)"/>
     <use xlink:href="#SimHei-83b7" transform="translate(200 0)"/>
     <use xlink:href="#SimHei-5f97" transform="translate(300 0)"/>
     <use xlink:href="#SimHei-8d37" transform="translate(400 0)"/>
     <use xlink:href="#SimHei-6b3e" transform="translate(500 0)"/>
    </g>
    <!-- $D_i$ -->
    <g style="fill: #111111" transform="translate(211.508 143.887072) scale(0.11 -0.11)">
     <defs>
      <path id="DejaVuSans-Oblique-44" d="M 1081 4666 
L 2438 4666 
Q 3519 4666 4070 4208 
Q 4622 3750 4622 2847 
Q 4622 2250 4412 1698 
Q 4203 1147 3834 769 
Q 3463 381 2891 190 
Q 2319 0 1538 0 
L 172 0 
L 1081 4666 
z
M 1613 4147 
L 909 519 
L 1734 519 
Q 2794 519 3375 1128 
Q 3956 1738 3956 2847 
Q 3956 3519 3581 3833 
Q 3206 4147 2406 4147 
L 1613 4147 
z
" transform="scale(0.015625)"/>
      <path id="DejaVuSans-Oblique-69" d="M 1172 4863 
L 1747 4863 
L 1606 4134 
L 1031 4134 
L 1172 4863 
z
M 909 3500 
L 1484 3500 
L 800 0 
L 225 0 
L 909 3500 
z
" transform="scale(0.015625)"/>
     </defs>
     <use xlink:href="#DejaVuSans-Oblique-44" transform="translate(0 0.09375)"/>
     <use xlink:href="#DejaVuSans-Oblique-69" transform="translate(77.001953 -16.3125) scale(0.7)"/>
    </g>
   </g>
   <g id="text_4">
    <!-- 贷款利率 -->
    <g style="fill: #111111" transform="translate(342.32 132.897557) scale(0.11 -0.11)">
     <defs>
      <path id="SimHei-5229" d="M 2400 2650 
Q 2950 2150 3500 1525 
Q 3325 1375 3125 1150 
Q 2775 1675 2400 2075 
L 2400 225 
Q 2400 -375 2425 -675 
L 1875 -675 
Q 1900 -350 1900 225 
L 1900 1975 
Q 1625 1450 1375 1100 
Q 1125 750 725 275 
Q 575 525 300 700 
Q 850 1150 1287 1837 
Q 1725 2525 1850 2950 
L 1375 2950 
Q 775 2950 500 2925 
L 500 3400 
Q 800 3375 1375 3375 
L 1900 3375 
L 1900 4350 
Q 1400 4250 825 4150 
Q 750 4400 625 4625 
Q 1050 4650 1800 4800 
Q 2550 4950 3225 5175 
Q 3350 4875 3550 4650 
Q 3050 4575 2400 4450 
L 2400 3375 
L 2825 3375 
Q 3350 3375 3750 3400 
L 3750 2925 
Q 3350 2950 2850 2950 
L 2400 2950 
L 2400 2650 
z
M 5775 5125 
Q 5750 4875 5750 4275 
L 5750 -100 
Q 5750 -400 5512 -487 
Q 5275 -575 4675 -675 
Q 4600 -300 4500 -75 
Q 5025 -100 5137 -50 
Q 5250 0 5250 150 
L 5250 4300 
Q 5250 4650 5225 5125 
L 5775 5125 
z
M 4625 4100 
Q 4600 3800 4600 3300 
L 4600 1725 
Q 4600 1200 4625 825 
L 4075 825 
Q 4100 1275 4100 1725 
L 4100 3300 
Q 4100 3700 4075 4100 
L 4625 4100 
z
" transform="scale(0.015625)"/>
      <path id="SimHei-7387" d="M 3325 5150 
Q 3425 4900 3550 4525 
L 4800 4525 
Q 5250 4525 5800 4550 
L 5800 4125 
Q 5250 4175 4775 4175 
L 2800 4175 
Q 2975 4050 3300 3900 
Q 3075 3750 2875 3537 
Q 2675 3325 2475 3125 
L 3275 3125 
Q 3575 3425 3775 3775 
Q 4000 3600 4275 3425 
Q 3950 3250 3600 2875 
Q 3250 2500 2625 2000 
L 3850 2100 
Q 3725 2250 3600 2425 
Q 3750 2475 4000 2650 
Q 4250 2350 4700 1700 
Q 4475 1625 4225 1450 
Q 4175 1600 4025 1775 
Q 3700 1750 3425 1750 
L 3425 1050 
L 5150 1050 
Q 5675 1050 6100 1075 
L 6100 650 
Q 5700 675 5125 675 
L 3425 675 
L 3425 175 
Q 3425 -300 3450 -625 
L 2900 -625 
Q 2925 -300 2925 175 
L 2925 675 
L 1325 675 
Q 825 675 325 650 
L 325 1075 
Q 825 1050 1350 1050 
L 2925 1050 
L 2925 1700 
Q 2700 1675 2475 1637 
Q 2250 1600 2025 1525 
Q 1950 1775 1850 2000 
Q 2075 2025 2325 2200 
Q 2575 2375 2975 2800 
Q 2300 2725 2025 2625 
Q 1975 2875 1850 3175 
Q 2075 3175 2325 3487 
Q 2575 3800 2750 4175 
L 1700 4175 
Q 1150 4175 650 4125 
L 650 4550 
Q 1150 4525 1550 4525 
L 2975 4525 
Q 2900 4825 2800 5025 
Q 3025 5075 3325 5150 
z
M 1625 2575 
Q 1725 2400 1825 2200 
Q 1575 2050 1325 1862 
Q 1075 1675 800 1425 
Q 625 1675 475 1875 
Q 800 2025 1100 2212 
Q 1400 2400 1625 2575 
z
M 4850 2650 
Q 5125 2475 5337 2337 
Q 5550 2200 5875 1950 
Q 5675 1800 5500 1600 
Q 5300 1775 5062 1975 
Q 4825 2175 4575 2325 
Q 4725 2475 4850 2650 
z
M 5725 3525 
Q 5550 3450 5300 3262 
Q 5050 3075 4800 2825 
Q 4625 3050 4475 3175 
Q 4700 3325 4875 3487 
Q 5050 3650 5300 3925 
Q 5525 3700 5725 3525 
z
M 1050 3850 
Q 1425 3600 1775 3275 
Q 1575 3100 1425 2925 
Q 1075 3300 675 3525 
Q 875 3700 1050 3850 
z
" transform="scale(0.015625)"/>
     </defs>
     <use xlink:href="#SimHei-8d37"/>
     <use xlink:href="#SimHei-6b3e" transform="translate(100 0)"/>
     <use xlink:href="#SimHei-5229" transform="translate(200 0)"/>
     <use xlink:href="#SimHei-7387" transform="translate(300 0)"/>
    </g>
    <!-- $R_i$ -->
    <g style="fill: #111111" transform="translate(359.26 143.908557) scale(0.11 -0.11)">
     <defs>
      <path id="DejaVuSans-Oblique-52" d="M 1613 4147 
L 1294 2491 
L 2106 2491 
Q 2584 2491 2879 2755 
Q 3175 3019 3175 3444 
Q 3175 3784 2976 3965 
Q 2778 4147 2406 4147 
L 1613 4147 
z
M 2772 2241 
Q 2972 2194 3105 2009 
Q 3238 1825 3413 1275 
L 3809 0 
L 3144 0 
L 2778 1197 
Q 2638 1659 2453 1815 
Q 2269 1972 1888 1972 
L 1191 1972 
L 806 0 
L 172 0 
L 1081 4666 
L 2503 4666 
Q 3150 4666 3495 4373 
Q 3841 4081 3841 3531 
Q 3841 3044 3547 2687 
Q 3253 2331 2772 2241 
z
" transform="scale(0.015625)"/>
     </defs>
     <use xlink:href="#DejaVuSans-Oblique-52" transform="translate(0 0.09375)"/>
     <use xlink:href="#DejaVuSans-Oblique-69" transform="translate(69.482422 -16.3125) scale(0.7)"/>
    </g>
   </g>
   <g id="text_5">
    <!-- 排他性限制：bank_access 主要影响是否进入信贷关系， -->
    <g transform="translate(79.508 21.513544) scale(0.11 -0.11)">
     <defs>
      <path id="SimHei-6392" d="M 225 1825 
Q 675 1900 1150 2075 
L 1150 3425 
L 950 3425 
Q 650 3425 350 3400 
L 350 3850 
Q 600 3825 950 3825 
L 1150 3825 
L 1150 4500 
Q 1150 4850 1125 5175 
L 1675 5175 
Q 1625 4900 1625 4500 
L 1625 3825 
Q 2075 3825 2275 3850 
L 2275 3400 
Q 1875 3425 1625 3425 
L 1625 2225 
Q 1950 2325 2275 2500 
Q 2275 2200 2300 2050 
Q 2075 1975 1625 1800 
L 1625 -100 
Q 1600 -425 1412 -500 
Q 1225 -575 700 -650 
Q 600 -225 450 -75 
Q 875 -125 1000 -112 
Q 1125 -100 1150 75 
L 1150 1650 
Q 850 1550 450 1300 
Q 375 1525 225 1825 
z
M 5050 5125 
Q 5025 4800 5025 4300 
L 5025 4000 
Q 5700 4000 6100 4050 
L 6100 3575 
Q 5725 3600 5525 3600 
L 5025 3600 
L 5025 2625 
Q 5625 2625 5950 2650 
L 5950 2175 
Q 5625 2200 5025 2200 
L 5025 1075 
Q 5750 1075 6150 1100 
L 6150 625 
Q 5850 650 5025 650 
L 5025 275 
Q 5025 75 5050 -600 
L 4550 -600 
L 4550 4300 
Q 4550 4850 4525 5125 
L 5050 5125 
z
M 3425 4350 
Q 3425 4925 3400 5150 
L 3925 5150 
Q 3900 4800 3900 4250 
L 3900 -600 
L 3400 -600 
Q 3425 -50 3425 275 
L 3425 650 
Q 2625 650 2225 625 
L 2225 1100 
Q 2550 1075 3425 1075 
L 3425 2200 
Q 2775 2200 2525 2150 
L 2525 2650 
Q 2750 2625 3425 2625 
L 3425 3600 
Q 2700 3600 2450 3575 
L 2450 4050 
Q 2725 4000 3425 4000 
L 3425 4350 
z
" transform="scale(0.015625)"/>
      <path id="SimHei-4ed6" d="M 2500 2875 
Q 2500 3850 2475 4225 
L 3000 4225 
Q 2975 3900 2975 3025 
L 3775 3275 
L 3775 4300 
Q 3775 4800 3725 5150 
L 4250 5150 
Q 4225 4800 4225 4275 
L 4225 3450 
L 5575 3925 
Q 5550 2600 5550 2075 
Q 5550 1550 5275 1425 
Q 5000 1300 4575 1225 
Q 4525 1475 4375 1750 
Q 4850 1750 4950 1787 
Q 5050 1825 5050 2025 
L 5075 3275 
L 4225 2975 
L 4225 1375 
Q 4225 950 4250 650 
L 3750 650 
Q 3775 950 3775 1375 
L 3775 2850 
L 2975 2575 
L 2975 425 
Q 2975 75 3325 100 
L 5100 100 
Q 5300 100 5400 212 
Q 5500 325 5550 925 
Q 5850 700 6125 650 
Q 5950 0 5750 -175 
Q 5550 -350 5175 -325 
L 3225 -325 
Q 2550 -350 2500 275 
L 2500 2425 
Q 2125 2300 1900 2175 
L 1700 2650 
Q 2025 2700 2500 2875 
z
M 2250 4925 
Q 2025 4625 1650 3775 
L 1650 475 
Q 1650 -150 1700 -575 
L 1175 -575 
Q 1200 -150 1200 475 
L 1200 2925 
Q 875 2325 700 2050 
Q 525 2275 300 2400 
Q 625 2750 1062 3637 
Q 1500 4525 1650 5175 
Q 2050 5000 2250 4925 
z
" transform="scale(0.015625)"/>
      <path id="SimHei-9650" d="M 5550 4950 
Q 5525 4500 5525 3700 
Q 5525 2925 5550 2475 
L 4375 2475 
Q 4375 2000 4625 1475 
Q 5275 1900 5475 2250 
Q 5675 1950 5850 1800 
Q 5400 1575 4750 1150 
Q 5025 775 5325 500 
Q 5625 225 6200 25 
Q 5900 -125 5750 -450 
Q 5150 -75 4812 312 
Q 4475 700 4262 1212 
Q 4050 1725 3975 2475 
L 3400 2475 
L 3400 200 
Q 3800 400 4125 675 
Q 4150 450 4225 150 
Q 4000 25 3637 -175 
Q 3275 -375 3025 -575 
Q 2925 -375 2750 -125 
Q 2900 25 2950 325 
L 2950 3850 
Q 2950 4350 2925 4950 
L 5550 4950 
z
M 2500 4950 
Q 2050 3475 1875 2950 
Q 2375 2350 2450 1850 
Q 2525 1350 2237 1025 
Q 1950 700 1525 575 
Q 1500 900 1300 1150 
Q 1750 1150 1875 1325 
Q 2000 1500 1975 1887 
Q 1950 2275 1375 2925 
Q 1775 4050 1875 4550 
L 1125 4550 
L 1125 -500 
L 650 -500 
Q 675 200 675 875 
L 675 3800 
Q 675 4250 650 4950 
L 2500 4950 
z
M 5075 2875 
L 5075 3550 
L 3400 3550 
L 3400 2875 
L 5075 2875 
z
M 5075 3925 
L 5075 4550 
L 3400 4550 
L 3400 3925 
L 5075 3925 
z
" transform="scale(0.015625)"/>
      <path id="SimHei-5236" d="M 1325 4625 
Q 1175 4375 1075 4150 
L 1800 4150 
Q 1800 4775 1775 5125 
L 2350 5125 
Q 2325 4800 2325 4150 
L 2700 4150 
Q 3200 4150 3600 4175 
L 3600 3725 
Q 3250 3750 2725 3750 
L 2325 3750 
L 2325 3025 
L 2950 3025 
Q 3325 3025 3750 3050 
L 3750 2625 
L 2325 2625 
L 2325 1950 
L 3675 1950 
Q 3650 1650 3637 1125 
Q 3625 600 3612 412 
Q 3600 225 3400 137 
Q 3200 50 2825 -25 
Q 2775 250 2650 550 
Q 2975 550 3050 587 
Q 3125 625 3125 975 
L 3125 1550 
L 2325 1550 
L 2325 175 
Q 2325 -250 2350 -550 
L 1775 -550 
Q 1800 -75 1800 175 
L 1800 1550 
L 1025 1550 
L 1025 -25 
L 500 -25 
Q 525 300 525 650 
L 525 1200 
Q 525 1675 500 1950 
L 1800 1950 
L 1800 2625 
L 1000 2625 
Q 550 2625 225 2600 
L 225 3050 
Q 550 3025 1000 3025 
L 1800 3025 
L 1800 3750 
L 925 3750 
Q 800 3450 675 3250 
Q 450 3400 225 3500 
Q 400 3750 525 4075 
Q 650 4400 750 4800 
Q 1000 4700 1325 4625 
z
M 5875 5075 
Q 5850 4825 5850 4350 
L 5850 25 
Q 5850 -325 5587 -412 
Q 5325 -500 4825 -575 
Q 4750 -250 4625 0 
Q 5050 0 5200 25 
Q 5350 50 5350 350 
L 5350 4350 
Q 5350 4775 5325 5075 
L 5875 5075 
z
M 4675 4325 
Q 4650 3975 4650 3700 
L 4650 1625 
Q 4650 1275 4675 775 
L 4125 775 
Q 4175 1200 4175 1625 
L 4175 3700 
Q 4175 3950 4125 4325 
L 4675 4325 
z
" transform="scale(0.015625)"/>
      <path id="SimHei-ff1a" d="M 1200 2425 
L 2025 2425 
L 2025 1600 
L 1200 1600 
L 1200 2425 
z
M 1200 825 
L 2025 825 
L 2025 0 
L 1200 0 
L 1200 825 
z
" transform="scale(0.015625)"/>
      <path id="SimHei-4e3b" d="M 4750 3850 
Q 5150 3850 5750 3875 
L 5750 3400 
Q 5150 3425 4750 3425 
L 3425 3425 
L 3425 2175 
L 4425 2175 
Q 4825 2175 5375 2200 
L 5375 1725 
Q 4825 1750 4425 1750 
L 3425 1750 
L 3425 150 
L 5000 150 
Q 5450 150 6050 175 
L 6050 -300 
Q 5450 -275 5000 -275 
L 350 -275 
L 350 200 
Q 950 150 1425 150 
L 2900 150 
L 2900 1750 
L 1925 1750 
Q 1525 1750 975 1725 
L 975 2200 
Q 1575 2175 1925 2175 
L 2900 2175 
L 2900 3425 
L 1650 3425 
Q 1125 3425 625 3400 
L 625 3875 
Q 1175 3850 1675 3850 
L 4750 3850 
z
M 3175 3900 
Q 2875 4350 2400 4875 
Q 2650 5050 2800 5200 
Q 3325 4600 3625 4175 
Q 3475 4100 3175 3900 
z
" transform="scale(0.015625)"/>
      <path id="SimHei-8981" d="M 5100 5000 
Q 5475 5000 5950 5025 
L 5950 4600 
Q 5475 4625 5100 4625 
L 4100 4625 
L 4100 3975 
L 5500 3975 
Q 5475 3550 5475 3175 
Q 5475 2800 5500 2400 
L 2850 2400 
Q 3125 2225 3275 2125 
Q 3050 1975 2950 1850 
L 5300 1850 
Q 5700 1850 6150 1900 
L 6150 1425 
Q 5700 1450 5275 1450 
L 4550 1450 
Q 4300 1025 3875 525 
Q 5000 225 6000 -125 
Q 5750 -300 5600 -550 
Q 4650 -125 3500 200 
Q 3150 -50 2612 -250 
Q 2075 -450 1587 -525 
Q 1100 -600 700 -650 
Q 625 -325 375 -125 
Q 850 -150 1375 -100 
Q 1900 -50 2325 87 
Q 2750 225 3000 375 
Q 2175 575 1375 725 
Q 1750 1100 2075 1450 
L 1025 1450 
Q 600 1450 200 1425 
L 200 1875 
Q 700 1850 1025 1850 
L 2350 1850 
Q 2600 2150 2750 2400 
L 900 2400 
Q 925 2800 925 3175 
Q 925 3550 900 3975 
L 2275 3975 
L 2275 4625 
L 1300 4625 
Q 875 4625 400 4600 
L 400 5025 
Q 875 5000 1275 5000 
L 5100 5000 
z
M 2225 975 
Q 2625 900 3400 675 
Q 3700 975 4025 1450 
L 2675 1450 
Q 2450 1225 2225 975 
z
M 3650 2775 
L 3650 3575 
L 2750 3575 
L 2750 2775 
L 3650 2775 
z
M 5000 2775 
L 5000 3575 
L 4100 3575 
L 4100 2775 
L 5000 2775 
z
M 2275 2775 
L 2275 3575 
L 1400 3575 
L 1400 2775 
L 2275 2775 
z
M 3650 3975 
L 3650 4625 
L 2750 4625 
L 2750 3975 
L 3650 3975 
z
" transform="scale(0.015625)"/>
      <path id="SimHei-5f71" d="M 3550 5025 
Q 3500 4625 3512 4187 
Q 3525 3750 3550 3325 
L 775 3325 
Q 800 3750 787 4187 
Q 775 4625 775 5025 
L 3550 5025 
z
M 1450 -100 
Q 2050 -75 1975 200 
L 1975 1100 
L 775 1100 
Q 800 1375 787 1650 
Q 775 1925 775 2225 
L 3550 2225 
Q 3525 1925 3512 1650 
Q 3500 1375 3550 1100 
L 2475 1100 
L 2475 175 
Q 2500 -250 2300 -375 
Q 2100 -500 1625 -600 
Q 1575 -325 1450 -100 
z
M 2375 3250 
Q 2400 3075 2425 2875 
L 3175 2875 
Q 3600 2875 4050 2900 
L 4050 2475 
Q 3600 2500 3175 2500 
L 1200 2500 
Q 700 2500 275 2475 
L 275 2900 
Q 700 2875 1200 2875 
L 1900 2875 
Q 1875 3025 1850 3200 
Q 2100 3250 2375 3250 
z
M 6150 1350 
Q 5675 775 5000 225 
Q 4325 -325 3725 -650 
Q 3575 -400 3400 -250 
Q 3975 25 4600 500 
Q 5225 975 5775 1725 
Q 5950 1525 6150 1350 
z
M 5925 3125 
Q 5625 2850 5212 2362 
Q 4800 1875 4200 1425 
Q 4025 1625 3800 1725 
Q 4375 2050 4787 2525 
Q 5200 3000 5525 3500 
Q 5675 3325 5925 3125 
z
M 5725 4825 
Q 5325 4550 5037 4162 
Q 4750 3775 4175 3275 
Q 3975 3450 3800 3550 
Q 4175 3825 4550 4237 
Q 4925 4650 5225 5175 
Q 5425 5000 5725 4825 
z
M 3075 1475 
L 3075 1850 
L 1250 1850 
L 1250 1475 
L 3075 1475 
z
M 3075 3700 
L 3075 4000 
L 1250 4000 
L 1250 3700 
L 3075 3700 
z
M 3075 4375 
L 3075 4675 
L 1250 4675 
L 1250 4375 
L 3075 4375 
z
M 1500 500 
Q 1075 75 575 -325 
Q 475 -175 275 -25 
Q 700 250 1125 825 
Q 1300 625 1500 500 
z
M 3250 -50 
Q 3050 275 2750 550 
Q 2900 700 3075 850 
Q 3400 525 3600 250 
L 3250 -50 
z
" transform="scale(0.015625)"/>
      <path id="SimHei-54cd" d="M 4150 5125 
Q 4000 4975 3850 4325 
L 5875 4325 
Q 5850 3800 5850 3325 
L 5850 50 
Q 5825 -225 5625 -350 
Q 5425 -475 4850 -550 
Q 4850 -325 4600 25 
Q 5125 25 5237 62 
Q 5350 100 5350 225 
L 5350 3950 
L 2950 3950 
L 2950 -575 
L 2450 -575 
Q 2475 -75 2475 450 
L 2475 3125 
Q 2475 3750 2450 4325 
L 3350 4325 
Q 3475 4775 3525 5250 
Q 3950 5150 4150 5125 
z
M 4875 900 
L 3425 900 
L 3425 3100 
L 4875 3100 
L 4875 900 
z
M 4450 1275 
L 4450 2700 
L 3875 2700 
L 3875 1275 
L 4450 1275 
z
M 2075 4500 
Q 2050 3975 2050 3425 
L 2050 1750 
Q 2050 1250 2075 600 
L 1650 600 
L 1650 1050 
L 950 1050 
L 950 275 
L 500 275 
Q 525 750 525 1275 
L 525 3425 
Q 525 3975 500 4500 
L 2075 4500 
z
M 1650 1400 
L 1650 4125 
L 950 4125 
L 950 1400 
L 1650 1400 
z
" transform="scale(0.015625)"/>
      <path id="SimHei-8fdb" d="M 4400 4100 
Q 4400 4600 4375 5200 
L 4900 5200 
Q 4875 4900 4875 4100 
Q 5400 4100 5900 4125 
L 5900 3650 
Q 5400 3675 4875 3675 
L 4875 2575 
Q 5475 2575 6025 2600 
L 6025 2125 
Q 5475 2150 4875 2150 
L 4875 1125 
Q 4875 700 4900 250 
L 4375 250 
Q 4375 700 4400 1125 
L 4400 2150 
L 3450 2150 
Q 3350 1475 3162 1050 
Q 2975 625 2600 200 
Q 2350 400 2125 525 
Q 2600 950 2750 1312 
Q 2900 1675 2975 2150 
Q 2400 2150 1975 2125 
L 1975 2600 
Q 2425 2575 3025 2575 
Q 3075 3150 3075 3675 
Q 2575 3675 2100 3625 
L 2100 4125 
Q 2575 4100 3100 4100 
Q 3100 4675 3075 5200 
Q 3325 5175 3600 5150 
Q 3575 4825 3550 4100 
L 4400 4100 
z
M 1600 3125 
Q 1550 2575 1550 2200 
L 1550 625 
Q 2275 125 3100 37 
Q 3925 -50 4712 -25 
Q 5500 0 6125 100 
Q 6000 -200 5975 -525 
Q 4775 -525 4012 -500 
Q 3250 -475 2612 -312 
Q 1975 -150 1650 37 
Q 1325 225 1087 37 
Q 850 -150 575 -450 
Q 425 -225 200 -50 
Q 800 400 1075 575 
L 1075 2700 
Q 800 2700 375 2650 
L 375 3150 
Q 875 3125 1125 3125 
L 1600 3125 
z
M 4400 2575 
L 4400 3675 
L 3550 3675 
Q 3525 3150 3475 2575 
L 4400 2575 
z
M 1200 5050 
Q 1600 4250 1700 3925 
Q 1425 3875 1200 3725 
Q 1125 4175 700 4850 
L 1200 5050 
z
" transform="scale(0.015625)"/>
      <path id="SimHei-5165" d="M 5650 -375 
Q 5050 25 4500 650 
Q 3950 1275 3275 3050 
Q 2575 975 675 -475 
Q 575 -225 225 50 
Q 1850 825 2975 3525 
Q 2900 3725 2525 4125 
Q 2150 4525 1750 4675 
Q 2025 4900 2175 5125 
Q 2800 4650 3175 4225 
Q 3550 3800 4125 2375 
Q 4700 950 6125 250 
Q 5775 0 5650 -375 
z
" transform="scale(0.015625)"/>
      <path id="SimHei-4fe1" d="M 5650 1575 
Q 5625 1275 5625 575 
Q 5625 -100 5650 -450 
L 5175 -450 
L 5175 -25 
L 3025 -25 
L 3025 -550 
L 2525 -550 
Q 2550 -175 2550 500 
Q 2550 1200 2525 1575 
L 5650 1575 
z
M 2125 4975 
Q 1975 4825 1650 3975 
L 1650 550 
Q 1650 -200 1675 -625 
L 1125 -625 
Q 1200 -175 1200 575 
L 1200 3100 
Q 900 2500 625 2100 
Q 475 2350 250 2500 
Q 525 2800 925 3562 
Q 1325 4325 1525 5175 
Q 1800 5075 2125 4975 
z
M 5175 375 
L 5175 1225 
L 3025 1225 
L 3025 375 
L 5175 375 
z
M 6075 3900 
Q 5575 3925 4100 3925 
Q 2625 3925 2100 3900 
L 2100 4325 
L 6075 4325 
L 6075 3900 
z
M 5700 3000 
Q 5275 3025 4150 3025 
Q 3025 3025 2475 3000 
L 2475 3425 
Q 2950 3400 4100 3400 
Q 5275 3400 5700 3425 
L 5700 3000 
z
M 5700 2125 
Q 5350 2150 4175 2150 
Q 3025 2150 2475 2125 
L 2475 2550 
Q 3000 2525 4175 2525 
Q 5375 2525 5700 2550 
L 5700 2125 
z
M 4025 5200 
Q 4100 5050 4175 4875 
Q 4250 4700 4325 4500 
Q 4100 4425 3875 4375 
Q 3700 4900 3575 5025 
Q 3825 5125 4025 5200 
z
" transform="scale(0.015625)"/>
      <path id="SimHei-5173" d="M 4675 4850 
Q 4525 4675 4362 4375 
Q 4200 4075 4075 3825 
L 4625 3825 
Q 5150 3825 5550 3850 
L 5550 3375 
Q 5225 3400 4700 3400 
L 3400 3400 
L 3400 2150 
L 4975 2150 
Q 5475 2150 5875 2175 
L 5875 1700 
Q 5475 1725 5025 1725 
L 3500 1725 
Q 4250 450 6000 75 
Q 5775 -175 5600 -525 
Q 4025 0 3225 1300 
Q 2800 200 875 -600 
Q 775 -350 500 -150 
Q 2425 375 2875 1725 
L 1550 1725 
Q 975 1725 600 1700 
L 600 2150 
Q 875 2125 1450 2125 
L 2925 2125 
L 2925 3400 
L 1750 3400 
Q 1275 3400 900 3375 
L 900 3850 
Q 1275 3825 1775 3825 
L 3575 3825 
Q 3925 4625 4075 5150 
Q 4325 5000 4675 4850 
z
M 2125 5125 
Q 2450 4725 2800 4175 
Q 2500 4025 2325 3875 
Q 2025 4450 1725 4825 
Q 1950 4975 2125 5125 
z
" transform="scale(0.015625)"/>
      <path id="SimHei-7cfb" d="M 5300 5200 
Q 5450 4950 5725 4675 
Q 4975 4650 4437 4587 
Q 3900 4525 3125 4450 
Q 3250 4325 3475 4225 
Q 3150 4025 2837 3762 
Q 2525 3500 2225 3275 
L 3475 3275 
Q 4100 3700 4525 4050 
Q 4775 3850 5125 3700 
Q 4775 3550 4450 3375 
Q 4125 3200 3387 2737 
Q 2650 2275 2125 1975 
Q 3600 2050 4875 2100 
Q 4750 2225 4225 2625 
Q 4475 2725 4650 2875 
Q 4950 2650 5337 2312 
Q 5725 1975 6075 1650 
Q 5775 1475 5600 1325 
Q 5400 1575 5225 1725 
Q 4550 1700 3625 1650 
L 3625 150 
Q 3625 -325 3387 -412 
Q 3150 -500 2525 -600 
Q 2475 -300 2300 -25 
Q 2875 -25 3012 12 
Q 3150 50 3150 300 
L 3150 1650 
Q 1625 1625 1075 1525 
Q 1000 1775 900 2050 
Q 1450 2100 1875 2300 
Q 2300 2500 2900 2900 
Q 2325 2900 2037 2875 
Q 1750 2850 1400 2800 
Q 1325 3075 1250 3325 
Q 1675 3325 2100 3662 
Q 2525 4000 2750 4400 
Q 1350 4350 925 4300 
Q 850 4550 750 4750 
Q 2150 4750 3250 4850 
Q 4350 4950 5300 5200 
z
M 4625 1250 
Q 4925 1025 5325 737 
Q 5725 450 6000 175 
Q 5800 0 5600 -225 
Q 5275 125 4925 400 
Q 4575 675 4275 875 
Q 4500 1050 4625 1250 
z
M 2200 875 
Q 1900 725 1537 375 
Q 1175 25 800 -300 
Q 575 -75 375 25 
Q 1075 450 1675 1225 
Q 1900 1050 2200 875 
z
" transform="scale(0.015625)"/>
      <path id="SimHei-ff0c" d="M 875 950 
L 1775 950 
L 1775 -50 
Q 1700 -675 1150 -975 
L 900 -750 
Q 1350 -500 1350 0 
L 875 0 
L 875 950 
z
" transform="scale(0.015625)"/>
     </defs>
     <use xlink:href="#SimHei-6392"/>
     <use xlink:href="#SimHei-4ed6" transform="translate(100 0)"/>
     <use xlink:href="#SimHei-6027" transform="translate(200 0)"/>
     <use xlink:href="#SimHei-9650" transform="translate(300 0)"/>
     <use xlink:href="#SimHei-5236" transform="translate(400 0)"/>
     <use xlink:href="#SimHei-ff1a" transform="translate(500 0)"/>
     <use xlink:href="#SimHei-62" transform="translate(600 0)"/>
     <use xlink:href="#SimHei-61" transform="translate(650 0)"/>
     <use xlink:href="#SimHei-6e" transform="translate(700 0)"/>
     <use xlink:href="#SimHei-6b" transform="translate(750 0)"/>
     <use xlink:href="#SimHei-5f" transform="translate(800 0)"/>
     <use xlink:href="#SimHei-61" transform="translate(850 0)"/>
     <use xlink:href="#SimHei-63" transform="translate(900 0)"/>
     <use xlink:href="#SimHei-63" transform="translate(950 0)"/>
     <use xlink:href="#SimHei-65" transform="translate(1000 0)"/>
     <use xlink:href="#SimHei-73" transform="translate(1050 0)"/>
     <use xlink:href="#SimHei-73" transform="translate(1100 0)"/>
     <use xlink:href="#SimHei-20" transform="translate(1150 0)"/>
     <use xlink:href="#SimHei-4e3b" transform="translate(1200 0)"/>
     <use xlink:href="#SimHei-8981" transform="translate(1300 0)"/>
     <use xlink:href="#SimHei-5f71" transform="translate(1400 0)"/>
     <use xlink:href="#SimHei-54cd" transform="translate(1500 0)"/>
     <use xlink:href="#SimHei-662f" transform="translate(1600 0)"/>
     <use xlink:href="#SimHei-5426" transform="translate(1700 0)"/>
     <use xlink:href="#SimHei-8fdb" transform="translate(1800 0)"/>
     <use xlink:href="#SimHei-5165" transform="translate(1900 0)"/>
     <use xlink:href="#SimHei-4fe1" transform="translate(2000 0)"/>
     <use xlink:href="#SimHei-8d37" transform="translate(2100 0)"/>
     <use xlink:href="#SimHei-5173" transform="translate(2200 0)"/>
     <use xlink:href="#SimHei-7cfb" transform="translate(2300 0)"/>
     <use xlink:href="#SimHei-ff0c" transform="translate(2400 0)"/>
    </g>
    <!-- 不应在控制抵押与风险后直接影响利率。 -->
    <g transform="translate(118.008 33.8112) scale(0.11 -0.11)">
     <defs>
      <path id="SimHei-4e0d" d="M 5975 4450 
Q 5525 4475 5200 4475 
L 3725 4475 
Q 3550 4125 3300 3700 
L 3300 575 
Q 3300 75 3325 -550 
L 2775 -550 
Q 2800 50 2800 575 
L 2800 3025 
Q 2025 1950 700 1050 
Q 500 1350 325 1475 
Q 825 1700 1650 2437 
Q 2475 3175 3175 4475 
L 1525 4475 
Q 1050 4475 525 4450 
L 525 4950 
Q 1275 4925 1675 4925 
L 5175 4925 
Q 5500 4925 5975 4950 
L 5975 4450 
z
M 5450 1125 
Q 4975 1725 3750 2975 
Q 3950 3150 4075 3325 
Q 4675 2775 5100 2362 
Q 5525 1950 5900 1550 
Q 5650 1350 5450 1125 
z
" transform="scale(0.015625)"/>
      <path id="SimHei-5e94" d="M 3525 5275 
Q 3700 4825 3850 4400 
L 4750 4400 
Q 5275 4400 5850 4425 
L 5850 3975 
Q 5275 4000 4750 4000 
L 1475 4000 
Q 1475 2525 1425 1900 
Q 1375 1275 1237 625 
Q 1100 -25 750 -625 
Q 575 -400 300 -250 
Q 625 175 800 937 
Q 975 1700 1000 2575 
Q 1025 3450 1000 4400 
L 3250 4400 
Q 3175 4750 3000 5100 
Q 3250 5150 3525 5275 
z
M 5625 3125 
Q 5375 2575 5187 2050 
Q 5000 1525 4450 225 
L 5150 225 
Q 5500 225 5925 250 
L 5925 -275 
Q 5500 -250 5150 -250 
L 2475 -250 
Q 2050 -250 1450 -275 
L 1450 250 
Q 2025 225 2475 225 
L 3950 225 
Q 4325 1000 4612 1850 
Q 4900 2700 5025 3350 
Q 5350 3175 5625 3125 
z
M 2100 2850 
Q 2750 1825 3075 1050 
Q 2900 950 2650 800 
Q 2150 1925 1700 2575 
Q 1925 2750 2100 2850 
z
M 3300 3425 
Q 3800 2550 4175 1700 
Q 3950 1575 3700 1450 
Q 3400 2300 2900 3200 
Q 3100 3275 3300 3425 
z
" transform="scale(0.015625)"/>
      <path id="SimHei-5728" d="M 2425 4200 
Q 2525 4525 2600 4762 
Q 2675 5000 2700 5250 
Q 3050 5175 3325 5100 
Q 3200 4850 3150 4712 
Q 3100 4575 2975 4200 
L 5000 4200 
Q 5525 4200 5950 4225 
L 5950 3750 
Q 5525 3775 5000 3775 
L 2825 3775 
Q 2675 3425 2437 3000 
Q 2200 2575 1825 2075 
L 1825 325 
Q 1825 -175 1850 -650 
L 1325 -650 
Q 1350 -175 1350 325 
L 1350 1625 
Q 950 1250 625 1000 
Q 450 1225 200 1375 
Q 500 1550 800 1800 
Q 1100 2050 1350 2375 
Q 1350 2600 1325 2825 
L 1725 2825 
Q 1900 3025 2037 3275 
Q 2175 3525 2275 3775 
L 1675 3775 
Q 1075 3775 625 3750 
L 625 4225 
Q 1100 4200 1675 4200 
L 2425 4200 
z
M 3700 2250 
L 3700 2600 
Q 3700 3100 3675 3400 
L 4225 3400 
Q 4200 3100 4200 2600 
L 4200 2250 
L 4775 2250 
Q 5225 2250 5600 2275 
L 5600 1800 
Q 5225 1825 4775 1825 
L 4200 1825 
L 4200 150 
L 5150 150 
Q 5625 150 6000 175 
L 6000 -275 
Q 5625 -250 5150 -250 
L 3125 -250 
Q 2475 -250 2100 -275 
L 2100 175 
Q 2475 150 3125 150 
L 3700 150 
L 3700 1825 
L 3225 1825 
Q 2775 1825 2350 1800 
L 2350 2275 
Q 2775 2250 3225 2250 
L 3700 2250 
z
" transform="scale(0.015625)"/>
      <path id="SimHei-63a7" d="M 400 1300 
Q 350 1650 225 1875 
Q 725 2000 1100 2125 
L 1100 3350 
L 925 3350 
Q 550 3350 325 3325 
L 325 3775 
Q 550 3750 925 3750 
L 1100 3750 
L 1100 4325 
Q 1100 4750 1050 5150 
L 1625 5150 
Q 1575 4850 1575 4425 
L 1575 3750 
Q 1850 3750 2125 3775 
L 2125 3325 
Q 1850 3350 1575 3350 
L 1575 2300 
Q 1950 2500 2125 2575 
Q 2125 2475 2150 2100 
Q 1850 1975 1575 1850 
L 1575 125 
Q 1550 -400 1312 -475 
Q 1075 -550 700 -625 
Q 625 -225 500 -25 
Q 900 -75 1012 -37 
Q 1125 0 1100 275 
L 1100 1650 
Q 900 1575 400 1300 
z
M 4850 2025 
Q 5300 2025 5675 2050 
L 5675 1600 
Q 5300 1625 4875 1625 
L 4400 1625 
L 4400 75 
L 5225 75 
Q 5675 75 6125 125 
L 6125 -350 
Q 5675 -325 5275 -325 
L 3200 -325 
Q 2600 -325 2300 -350 
L 2300 125 
Q 2600 75 3125 75 
L 3925 75 
L 3925 1625 
L 3350 1625 
Q 2900 1625 2600 1575 
L 2600 2050 
Q 2875 2025 3325 2025 
L 4850 2025 
z
M 3900 4475 
Q 3825 4750 3675 5075 
Q 3900 5125 4250 5200 
Q 4350 4900 4450 4475 
L 6050 4475 
Q 6025 4200 6025 3900 
Q 6025 3600 6050 3375 
L 5550 3375 
L 5550 4025 
L 2875 4025 
L 2875 3375 
L 2375 3375 
Q 2400 3625 2400 3875 
Q 2400 4150 2375 4475 
L 3900 4475 
z
M 3975 3350 
Q 3825 3225 3575 2925 
Q 3325 2625 2825 2100 
L 2425 2450 
Q 3050 2975 3500 3675 
Q 3750 3475 3975 3350 
z
M 4875 3650 
Q 5700 2775 5900 2475 
Q 5775 2375 5475 2175 
Q 4825 3075 4475 3350 
Q 4625 3450 4875 3650 
z
" transform="scale(0.015625)"/>
      <path id="SimHei-540e" d="M 5475 2150 
Q 5450 1750 5450 775 
Q 5450 -175 5500 -550 
L 4975 -550 
L 4975 -25 
L 2525 -25 
L 2525 -600 
L 2025 -600 
Q 2050 -175 2050 775 
Q 2050 1750 2025 2150 
L 5475 2150 
z
M 5175 5075 
Q 5300 4800 5525 4525 
Q 4950 4475 3750 4337 
Q 2550 4200 1575 4175 
L 1575 3375 
L 5200 3375 
Q 5550 3375 5975 3400 
L 5975 2900 
Q 5575 2925 5200 2925 
L 1575 2925 
Q 1550 2425 1487 1875 
Q 1425 1325 1250 712 
Q 1075 100 800 -325 
Q 650 -200 225 -50 
Q 625 325 825 1062 
Q 1025 1800 1050 2825 
Q 1075 3850 1075 4575 
Q 2300 4600 3625 4775 
Q 4950 4950 5175 5075 
z
M 4975 375 
L 4975 1725 
L 2525 1725 
L 2525 375 
L 4975 375 
z
" transform="scale(0.015625)"/>
      <path id="SimHei-76f4" d="M 3550 5025 
Q 3475 4875 3400 4525 
L 4825 4525 
Q 5225 4525 5775 4550 
L 5775 4100 
Q 5250 4125 4825 4125 
L 3350 4125 
Q 3300 3775 3275 3525 
L 5100 3525 
Q 5075 3075 5075 2525 
L 5075 100 
L 5300 100 
Q 5650 100 6100 125 
L 6100 -350 
Q 5675 -325 5300 -325 
L 1225 -325 
Q 800 -325 325 -350 
L 325 125 
Q 825 100 1225 100 
L 1375 100 
L 1375 2525 
Q 1375 3175 1350 3525 
L 2775 3525 
Q 2825 3825 2850 4125 
L 1550 4125 
Q 1075 4125 600 4100 
L 600 4550 
Q 1075 4525 1525 4525 
L 2875 4525 
Q 2900 4800 2875 5075 
Q 3275 5025 3550 5025 
z
M 4600 975 
L 4600 1450 
L 1850 1450 
L 1850 975 
L 4600 975 
z
M 4600 100 
L 4600 575 
L 1850 575 
L 1850 100 
L 4600 100 
z
M 4600 2650 
L 4600 3125 
L 1850 3125 
L 1850 2650 
L 4600 2650 
z
M 4600 1825 
L 4600 2275 
L 1850 2275 
L 1850 1825 
L 4600 1825 
z
" transform="scale(0.015625)"/>
      <path id="SimHei-63a5" d="M 4225 2275 
Q 4150 2200 4000 1900 
L 5600 1900 
Q 6050 1925 6150 1925 
L 6150 1475 
Q 5975 1500 5650 1500 
L 5225 1500 
Q 5000 925 4700 500 
Q 5475 125 6050 -175 
Q 5975 -250 5675 -625 
Q 5275 -325 4375 150 
Q 4025 -150 3562 -337 
Q 3100 -525 2450 -650 
Q 2425 -450 2225 -200 
Q 2625 -150 3075 -37 
Q 3525 75 3925 350 
Q 3700 450 2875 800 
Q 3025 1025 3275 1500 
L 2875 1500 
Q 2475 1500 2300 1475 
L 2300 1950 
Q 2425 1925 2850 1900 
L 3450 1900 
Q 3625 2325 3650 2500 
Q 4075 2325 4225 2275 
z
M 1175 3950 
L 1175 4700 
Q 1175 4850 1125 5125 
L 1675 5125 
Q 1625 4850 1625 4700 
L 1625 3950 
Q 1875 3950 2250 3975 
L 2250 3500 
Q 1875 3525 1625 3525 
L 1625 2350 
Q 1750 2425 2200 2625 
Q 2200 2300 2225 2150 
Q 1775 1950 1625 1875 
L 1625 75 
Q 1625 -275 1425 -425 
Q 1225 -575 650 -625 
Q 650 -450 450 -25 
Q 950 -100 1050 -25 
Q 1150 50 1175 275 
L 1175 1700 
Q 975 1625 450 1325 
Q 325 1700 225 1875 
Q 850 2025 1175 2175 
L 1175 3525 
L 1000 3525 
Q 650 3525 300 3500 
L 300 4000 
Q 675 3950 1000 3950 
L 1175 3950 
z
M 4775 4100 
Q 5200 3875 5350 3825 
Q 5200 3700 4925 2950 
L 5425 2950 
Q 5825 2975 5950 3000 
L 5950 2525 
Q 5775 2550 5475 2550 
L 3025 2550 
Q 2850 2550 2450 2525 
L 2450 3000 
Q 2825 2975 2975 2950 
L 4450 2950 
Q 4700 3625 4775 4100 
z
M 3950 4575 
Q 3850 5000 3775 5150 
Q 4125 5225 4300 5275 
L 4500 4575 
L 5350 4575 
Q 5700 4600 5950 4600 
L 5950 4150 
Q 5675 4175 5375 4175 
L 3175 4175 
Q 2775 4175 2500 4150 
L 2500 4600 
Q 2750 4575 3100 4575 
L 3950 4575 
z
M 3475 1000 
Q 4050 800 4300 650 
Q 4625 1125 4750 1500 
L 3800 1500 
Q 3575 1175 3475 1000 
z
M 3425 3950 
Q 3725 3450 3850 3200 
Q 3450 3075 3350 3000 
Q 3150 3475 2975 3700 
Q 3250 3825 3425 3950 
z
" transform="scale(0.015625)"/>
      <path id="SimHei-3002" d="M 2275 975 
Q 2375 700 2300 437 
Q 2225 175 2025 37 
Q 1825 -100 1550 -100 
Q 1275 -100 1050 125 
Q 825 350 825 612 
Q 825 875 950 1075 
Q 1075 1275 1337 1375 
Q 1600 1475 1887 1362 
Q 2175 1250 2275 975 
z
M 1825 275 
Q 2050 425 2037 687 
Q 2025 950 1787 1075 
Q 1550 1200 1337 1050 
Q 1125 900 1125 650 
Q 1125 400 1362 262 
Q 1600 125 1825 275 
z
" transform="scale(0.015625)"/>
     </defs>
     <use xlink:href="#SimHei-4e0d"/>
     <use xlink:href="#SimHei-5e94" transform="translate(100 0)"/>
     <use xlink:href="#SimHei-5728" transform="translate(200 0)"/>
     <use xlink:href="#SimHei-63a7" transform="translate(300 0)"/>
     <use xlink:href="#SimHei-5236" transform="translate(400 0)"/>
     <use xlink:href="#SimHei-62b5" transform="translate(500 0)"/>
     <use xlink:href="#SimHei-62bc" transform="translate(600 0)"/>
     <use xlink:href="#SimHei-4e0e" transform="translate(700 0)"/>
     <use xlink:href="#SimHei-98ce" transform="translate(800 0)"/>
     <use xlink:href="#SimHei-9669" transform="translate(900 0)"/>
     <use xlink:href="#SimHei-540e" transform="translate(1000 0)"/>
     <use xlink:href="#SimHei-76f4" transform="translate(1100 0)"/>
     <use xlink:href="#SimHei-63a5" transform="translate(1200 0)"/>
     <use xlink:href="#SimHei-5f71" transform="translate(1300 0)"/>
     <use xlink:href="#SimHei-54cd" transform="translate(1400 0)"/>
     <use xlink:href="#SimHei-5229" transform="translate(1500 0)"/>
     <use xlink:href="#SimHei-7387" transform="translate(1600 0)"/>
     <use xlink:href="#SimHei-3002" transform="translate(1700 0)"/>
    </g>
   </g>
   <g id="text_6">
    <!-- 虚线：需要根据制度背景进行论证 -->
    <g style="fill: #555555" transform="translate(150.936 79.05024) scale(0.1 -0.1)">
     <defs>
      <path id="SimHei-865a" d="M 3325 5300 
Q 3275 5025 3275 4875 
L 4650 4875 
Q 5000 4875 5450 4900 
L 5450 4475 
Q 5000 4500 4650 4500 
L 3275 4500 
L 3275 4075 
L 6125 4075 
Q 6000 3825 5937 3587 
Q 5875 3350 5825 3075 
Q 5525 3175 5325 3200 
Q 5400 3450 5475 3675 
L 3250 3675 
L 3250 3200 
Q 4325 3300 4700 3350 
L 4775 2975 
Q 4350 2925 3225 2800 
L 3225 2575 
Q 3225 2350 3525 2350 
L 4650 2350 
Q 4850 2350 4937 2437 
Q 5025 2525 5075 2925 
Q 5300 2775 5575 2700 
Q 5425 2175 5262 2087 
Q 5100 2000 4900 2000 
L 3325 2000 
Q 2775 2000 2775 2375 
L 2775 2750 
Q 2325 2725 1775 2625 
L 1675 3100 
Q 2225 3125 2775 3175 
L 2775 3675 
L 1425 3675 
L 1425 2500 
Q 1425 1975 1362 1475 
Q 1300 975 1150 462 
Q 1000 -50 700 -675 
Q 525 -475 200 -325 
Q 525 75 675 537 
Q 825 1000 875 1437 
Q 925 1875 937 2275 
Q 950 2675 950 3125 
Q 950 3575 925 4075 
L 2800 4075 
L 2800 4500 
Q 2800 4850 2775 5300 
L 3325 5300 
z
M 3350 1675 
Q 3325 1300 3325 850 
L 3325 -75 
L 4000 -75 
L 4000 925 
Q 4000 1325 3975 1700 
L 4500 1700 
Q 4475 1325 4475 925 
L 4475 -75 
L 5300 -75 
Q 5650 -75 6125 -50 
L 6125 -500 
Q 5650 -475 5300 -475 
L 2325 -475 
Q 1825 -475 1425 -500 
L 1425 -50 
Q 1875 -75 2325 -75 
L 2850 -75 
L 2850 950 
Q 2850 1325 2825 1675 
L 3350 1675 
z
M 5850 1250 
Q 5650 925 5525 700 
Q 5400 475 5225 200 
Q 4975 300 4775 375 
Q 4975 700 5062 887 
Q 5150 1075 5325 1475 
Q 5550 1375 5850 1250 
z
M 2075 1500 
Q 2225 1175 2325 937 
Q 2425 700 2550 375 
Q 2325 300 2075 175 
Q 1975 450 1912 612 
Q 1850 775 1625 1275 
Q 1900 1375 2075 1500 
z
" transform="scale(0.015625)"/>
      <path id="SimHei-7ebf" d="M 3450 4300 
Q 3450 4675 3375 5125 
Q 3700 5100 4050 5050 
Q 3975 4900 3950 4562 
Q 3925 4225 3950 3600 
L 4800 3750 
Q 5225 3850 5650 3975 
L 5750 3500 
Q 5325 3450 4875 3375 
L 3975 3200 
Q 3975 2800 4025 2500 
L 5000 2675 
Q 5500 2775 5950 2925 
L 6025 2450 
Q 5575 2375 5075 2275 
L 4100 2100 
Q 4150 1600 4350 1175 
Q 4575 1350 4787 1575 
Q 5000 1800 5175 2075 
Q 5550 1775 5750 1675 
Q 5425 1525 5237 1337 
Q 5050 1150 4625 750 
Q 4925 250 5162 112 
Q 5400 -25 5500 100 
Q 5600 225 5675 625 
Q 5900 450 6200 350 
Q 5775 -750 5275 -537 
Q 4775 -325 4225 450 
Q 3875 175 3537 -62 
Q 3200 -300 2700 -550 
Q 2575 -300 2325 -100 
Q 2825 75 3175 275 
Q 3525 475 3975 850 
Q 3750 1350 3650 2025 
Q 2900 1900 2600 1800 
L 2525 2275 
Q 2825 2275 3550 2425 
Q 3500 2825 3500 3100 
Q 2825 2950 2575 2875 
L 2475 3350 
Q 2725 3350 3450 3500 
L 3450 4300 
z
M 1950 4875 
Q 1700 4650 1462 4237 
Q 1225 3825 825 3225 
Q 1425 3250 1650 3250 
Q 1875 3625 2050 4075 
Q 2300 3900 2600 3800 
Q 2350 3550 2087 3125 
Q 1825 2700 1175 1675 
Q 1850 1725 2375 1775 
Q 2300 1525 2300 1350 
Q 2125 1350 1525 1287 
Q 925 1225 550 1125 
Q 525 1375 400 1650 
Q 700 1725 950 2050 
Q 1200 2375 1475 2875 
Q 650 2825 425 2675 
Q 350 2950 200 3225 
Q 525 3450 825 3962 
Q 1125 4475 1375 5150 
Q 1625 4975 1950 4875 
z
M 2575 875 
Q 2550 600 2575 450 
Q 1950 325 1450 200 
Q 950 75 525 -75 
Q 450 200 250 475 
Q 950 550 1325 612 
Q 1700 675 2575 875 
z
M 4850 4025 
Q 4675 4300 4375 4675 
L 4775 4875 
Q 4875 4750 5275 4275 
Q 5025 4175 4850 4025 
z
" transform="scale(0.015625)"/>
      <path id="SimHei-9700" d="M 5150 2100 
Q 5500 2100 5975 2125 
L 5975 1700 
Q 5500 1725 5150 1725 
L 3425 1725 
Q 3300 1500 3250 1275 
L 5600 1275 
Q 5575 950 5575 700 
L 5575 -50 
Q 5575 -350 5425 -437 
Q 5275 -525 4775 -625 
Q 4750 -400 4550 -100 
Q 4950 -100 5025 -50 
Q 5100 0 5100 200 
L 5100 900 
L 4125 900 
L 4125 -375 
L 3650 -375 
L 3650 900 
L 2775 900 
L 2775 -375 
L 2300 -375 
L 2300 900 
L 1350 900 
L 1350 -575 
L 875 -575 
Q 900 -225 900 175 
L 900 575 
Q 900 900 875 1275 
L 2800 1275 
Q 2875 1500 2925 1725 
L 1350 1725 
Q 925 1725 525 1700 
L 525 2125 
Q 900 2100 1325 2100 
L 5150 2100 
z
M 4700 5075 
Q 5075 5075 5550 5100 
L 5550 4675 
Q 5075 4700 4700 4700 
L 3475 4700 
L 3475 4275 
L 5975 4275 
L 5975 3100 
L 5500 3100 
L 5500 3900 
L 3475 3900 
L 3475 3200 
Q 3475 2775 3500 2425 
L 2975 2425 
Q 3000 2750 3000 3175 
L 3000 3900 
L 950 3900 
L 950 3100 
L 450 3100 
Q 450 3375 462 3650 
Q 475 3925 450 4275 
L 3000 4275 
L 3000 4700 
L 1775 4700 
Q 1400 4700 1025 4675 
L 1025 5100 
Q 1400 5075 1750 5075 
L 4700 5075 
z
M 2475 2450 
L 1250 2450 
L 1250 2800 
L 2475 2800 
L 2475 2450 
z
M 2500 3150 
L 1325 3150 
L 1325 3500 
L 2500 3500 
L 2500 3150 
z
M 5000 3175 
L 3825 3175 
L 3825 3525 
L 5000 3525 
L 5000 3175 
z
M 5025 2500 
L 3850 2500 
L 3850 2850 
L 5025 2850 
L 5025 2500 
z
" transform="scale(0.015625)"/>
      <path id="SimHei-6839" d="M 5825 1850 
Q 5625 1750 5375 1512 
Q 5125 1275 4825 975 
Q 5025 675 5400 437 
Q 5775 200 6100 125 
Q 5850 -75 5700 -400 
Q 5175 -100 4837 237 
Q 4500 575 4325 912 
Q 4150 1250 4050 1650 
Q 3950 2050 3925 2400 
L 3425 2400 
L 3425 225 
Q 3775 425 4125 650 
Q 4150 400 4225 150 
Q 4025 50 3662 -162 
Q 3300 -375 3075 -600 
Q 2900 -350 2725 -175 
Q 2900 50 2950 325 
L 2950 3775 
Q 2950 4325 2925 4850 
L 5500 4850 
Q 5475 4400 5475 3625 
Q 5475 2850 5500 2400 
L 4375 2400 
Q 4375 1950 4600 1400 
Q 4800 1575 5000 1787 
Q 5200 2000 5400 2275 
L 5825 1850 
z
M 200 1075 
Q 650 1575 900 2162 
Q 1150 2750 1275 3325 
Q 850 3325 450 3300 
L 450 3775 
Q 875 3750 1375 3750 
L 1375 4325 
Q 1375 4700 1350 5050 
L 1900 5050 
Q 1850 4750 1850 4325 
L 1850 3750 
Q 2175 3750 2575 3775 
L 2575 3300 
Q 2175 3325 1850 3325 
L 1850 475 
Q 1875 -300 1875 -575 
L 1350 -575 
Q 1375 -25 1375 475 
L 1375 2175 
Q 1175 1475 625 650 
Q 450 850 200 1075 
z
M 5025 2775 
L 5025 3450 
L 3425 3450 
L 3425 2775 
L 5025 2775 
z
M 5025 3825 
L 5025 4450 
L 3425 4450 
L 3425 3825 
L 5025 3825 
z
M 2350 2775 
Q 2600 2300 2875 1700 
Q 2650 1600 2425 1425 
Q 2150 2100 1900 2525 
L 2350 2775 
z
" transform="scale(0.015625)"/>
      <path id="SimHei-636e" d="M 5750 4775 
Q 5725 4550 5725 4225 
L 5725 3900 
Q 5725 3450 5750 3250 
L 3100 3250 
L 3100 2500 
L 4250 2500 
Q 4250 2725 4225 3175 
L 4700 3175 
Q 4675 2775 4675 2500 
L 5350 2500 
Q 5800 2500 6100 2525 
L 6100 2075 
Q 5800 2100 5375 2100 
L 4675 2100 
L 4675 1425 
L 5775 1425 
Q 5750 950 5750 800 
L 5750 175 
Q 5750 -225 5775 -575 
L 5325 -575 
L 5325 -225 
L 3675 -225 
L 3675 -600 
L 3225 -600 
Q 3250 -325 3250 100 
L 3250 825 
Q 3250 1075 3225 1425 
L 4250 1425 
L 4250 2100 
L 3075 2100 
Q 3050 1375 2887 737 
Q 2725 100 2425 -475 
Q 2200 -325 1950 -250 
Q 2250 150 2387 600 
Q 2525 1050 2600 1562 
Q 2675 2075 2675 2625 
L 2675 3575 
Q 2675 3975 2650 4775 
L 5750 4775 
z
M 1275 4425 
Q 1275 4775 1250 5075 
L 1750 5075 
Q 1725 4800 1725 4425 
L 1725 3775 
Q 1975 3775 2500 3800 
L 2500 3375 
Q 1975 3400 1725 3400 
L 1725 2450 
Q 2050 2625 2400 2850 
Q 2425 2650 2525 2475 
Q 2050 2200 1725 2000 
L 1725 175 
Q 1725 -300 1487 -400 
Q 1250 -500 775 -575 
Q 725 -325 600 -50 
Q 1025 -50 1150 -12 
Q 1275 25 1275 325 
L 1275 1800 
Q 900 1600 525 1325 
Q 450 1525 275 1800 
Q 775 1975 1275 2250 
L 1275 3400 
Q 800 3400 350 3375 
L 350 3800 
Q 800 3775 1275 3775 
L 1275 4425 
z
M 5300 3625 
L 5300 4400 
L 3100 4400 
L 3100 3625 
L 5300 3625 
z
M 5325 150 
L 5325 1075 
L 3675 1075 
L 3675 150 
L 5325 150 
z
" transform="scale(0.015625)"/>
      <path id="SimHei-5ea6" d="M 1750 1675 
Q 2450 1650 2875 1650 
L 5200 1650 
Q 4975 1250 4650 850 
Q 4325 450 4025 200 
Q 4350 50 4950 -50 
Q 5550 -150 6100 -150 
Q 5950 -300 5825 -650 
Q 5100 -550 4550 -412 
Q 4000 -275 3625 -100 
Q 3100 -325 2587 -462 
Q 2075 -600 1525 -675 
Q 1450 -475 1225 -250 
Q 1675 -250 2250 -125 
Q 2825 0 3250 200 
Q 2825 550 2400 1275 
L 1750 1250 
L 1750 1675 
z
M 2975 5075 
Q 3250 5150 3475 5250 
Q 3625 4975 3775 4525 
L 4700 4525 
Q 4975 4525 5700 4550 
L 5700 4100 
Q 5000 4125 4650 4125 
L 1375 4125 
Q 1375 3000 1350 2312 
Q 1325 1625 1212 950 
Q 1100 275 725 -525 
Q 500 -375 250 -300 
Q 650 400 762 1075 
Q 875 1750 887 2800 
Q 900 3850 875 4525 
L 3200 4525 
Q 3100 4850 2975 5075 
z
M 2475 3300 
Q 2475 3700 2450 3925 
L 2975 3925 
Q 2950 3725 2950 3300 
L 4300 3300 
Q 4300 3700 4275 3950 
L 4800 3950 
Q 4775 3650 4775 3300 
Q 5325 3300 5725 3325 
L 5725 2900 
Q 5350 2925 4775 2925 
Q 4775 2250 4800 1950 
L 2450 1950 
Q 2475 2350 2475 2925 
Q 2175 2925 1600 2900 
L 1600 3325 
Q 2175 3300 2475 3300 
z
M 4300 2350 
L 4300 2925 
L 2950 2925 
L 2950 2350 
L 4300 2350 
z
M 2875 1275 
Q 3200 775 3650 425 
Q 4025 700 4425 1275 
L 2900 1275 
L 2875 1275 
z
" transform="scale(0.015625)"/>
      <path id="SimHei-80cc" d="M 5250 2525 
Q 5225 2050 5225 1600 
L 5225 25 
Q 5225 -350 4937 -450 
Q 4650 -550 4200 -625 
Q 4125 -325 3975 -100 
Q 4575 -100 4675 -50 
Q 4775 0 4750 450 
L 1800 450 
L 1800 -625 
L 1300 -625 
Q 1325 -125 1325 1000 
Q 1325 2125 1300 2525 
L 5250 2525 
z
M 4150 5125 
Q 4125 4850 4125 4375 
Q 4900 4525 5500 4775 
Q 5575 4550 5725 4325 
Q 5475 4275 5087 4200 
Q 4700 4125 4125 4000 
L 4125 3525 
Q 4125 3225 4400 3200 
L 5225 3200 
Q 5425 3200 5487 3300 
Q 5550 3400 5600 3725 
Q 5825 3500 6125 3450 
Q 5975 3100 5850 2975 
Q 5725 2850 5475 2850 
L 4225 2850 
Q 3675 2850 3675 3425 
L 3675 4425 
Q 3675 4800 3650 5125 
L 4150 5125 
z
M 2250 4500 
Q 2250 4850 2225 5125 
L 2725 5125 
Q 2700 4925 2700 4475 
L 2700 3550 
Q 2700 3200 2725 2850 
L 2250 2850 
L 2250 3250 
Q 1750 3175 1250 3087 
Q 750 3000 475 2925 
Q 425 3150 300 3400 
Q 725 3425 1150 3475 
Q 1575 3525 2250 3625 
L 2250 4125 
L 1325 4125 
Q 975 4125 600 4100 
L 600 4525 
Q 975 4500 1300 4500 
L 2250 4500 
z
M 4750 1650 
L 4750 2150 
L 1800 2150 
L 1800 1650 
L 4750 1650 
z
M 4750 825 
L 4750 1275 
L 1800 1275 
L 1800 825 
L 4750 825 
z
" transform="scale(0.015625)"/>
      <path id="SimHei-666f" d="M 5200 5100 
Q 5175 4700 5175 4150 
Q 5175 3625 5225 3225 
L 1175 3225 
Q 1200 3625 1200 4150 
Q 1200 4700 1175 5100 
L 5200 5100 
z
M 5125 2075 
Q 5100 1675 5100 1375 
Q 5100 1075 5125 900 
L 3525 900 
L 3525 -175 
Q 3525 -475 3312 -575 
Q 3100 -675 2575 -700 
Q 2550 -425 2375 -100 
Q 2800 -175 2937 -137 
Q 3075 -100 3050 100 
L 3050 900 
L 1350 900 
Q 1375 1125 1375 1450 
Q 1375 1800 1350 2075 
L 5125 2075 
z
M 3325 3200 
Q 3400 2950 3500 2750 
L 5200 2750 
Q 5625 2750 6050 2800 
L 6050 2350 
Q 5625 2375 5200 2375 
L 1175 2375 
Q 850 2375 350 2350 
L 350 2775 
Q 850 2750 1175 2750 
L 2900 2750 
Q 2875 2900 2800 3125 
Q 3100 3175 3325 3200 
z
M 4650 1250 
L 4650 1700 
L 1825 1700 
L 1825 1250 
L 4650 1250 
z
M 4700 4300 
L 4700 4700 
L 1675 4700 
L 1675 4300 
L 4700 4300 
z
M 4700 3600 
L 4700 3925 
L 1675 3925 
L 1675 3600 
L 4700 3600 
z
M 4325 725 
Q 4600 575 4987 387 
Q 5375 200 5850 -50 
Q 5700 -275 5550 -550 
Q 5325 -350 4925 -125 
Q 4525 100 4075 275 
L 4325 725 
z
M 2450 250 
Q 2225 175 1812 -100 
Q 1400 -375 1000 -600 
Q 850 -375 700 -175 
Q 975 -25 1350 187 
Q 1725 400 2075 700 
Q 2250 500 2450 250 
z
" transform="scale(0.015625)"/>
      <path id="SimHei-8bba" d="M 3500 1600 
Q 3825 1725 4250 2000 
Q 4675 2275 4975 2575 
Q 5225 2275 5400 2100 
Q 5050 1950 4550 1675 
Q 4050 1400 3500 1150 
L 3500 300 
Q 3500 -100 3800 -100 
L 4825 -100 
Q 5125 -100 5250 137 
Q 5375 375 5375 575 
Q 5675 350 5925 275 
Q 5750 -225 5550 -375 
Q 5350 -525 5100 -525 
L 3550 -525 
Q 3025 -475 3025 0 
L 3025 2175 
Q 3025 2525 3000 2850 
L 3525 2850 
Q 3500 2400 3500 2200 
L 3500 1600 
z
M 4175 4850 
Q 4400 4350 4950 3687 
Q 5500 3025 6175 2700 
Q 5975 2575 5800 2275 
Q 5100 2750 4637 3375 
Q 4175 4000 3950 4425 
Q 3725 3950 3387 3425 
Q 3050 2900 2325 2200 
Q 2175 2375 1950 2575 
Q 2350 2825 2650 3175 
Q 2950 3525 3200 3962 
Q 3450 4400 3575 4725 
Q 3700 5050 3750 5250 
Q 3975 5150 4275 5050 
L 4175 4850 
z
M 1600 3150 
Q 1575 2750 1575 2275 
L 1575 550 
Q 1950 825 2400 1300 
Q 2500 1075 2650 800 
Q 2250 475 1900 187 
Q 1550 -100 1250 -375 
Q 1150 -225 900 50 
Q 1100 250 1100 450 
L 1100 2700 
L 800 2700 
Q 550 2700 275 2675 
L 275 3175 
Q 550 3150 800 3150 
L 1600 3150 
z
M 975 5000 
Q 1550 4525 2125 4025 
Q 1950 3875 1750 3650 
Q 1325 4150 650 4650 
Q 825 4800 975 5000 
z
" transform="scale(0.015625)"/>
      <path id="SimHei-8bc1" d="M 5125 4675 
Q 5625 4675 6050 4700 
L 6050 4225 
Q 5625 4250 5125 4250 
L 4500 4250 
L 4500 2625 
L 5075 2625 
Q 5500 2625 5900 2650 
L 5900 2175 
Q 5525 2200 5075 2200 
L 4500 2200 
L 4500 125 
L 5200 125 
Q 5625 125 6175 150 
L 6175 -325 
Q 5625 -300 5200 -300 
L 3000 -300 
Q 2400 -300 2000 -325 
L 2000 150 
Q 2400 125 2775 125 
L 2775 2075 
Q 2775 2600 2750 2950 
L 3275 2950 
Q 3250 2625 3250 2075 
L 3250 125 
L 4000 125 
L 4000 4250 
L 3550 4250 
Q 2975 4250 2450 4225 
L 2450 4700 
Q 2975 4675 3550 4675 
L 5125 4675 
z
M 850 -125 
Q 1150 175 1150 500 
L 1150 2750 
L 925 2750 
Q 575 2750 225 2725 
L 225 3200 
Q 550 3175 925 3175 
L 1650 3175 
Q 1625 2700 1625 2175 
L 1625 800 
Q 1850 1075 2025 1325 
Q 2150 1050 2325 825 
Q 2050 500 1812 212 
Q 1575 -75 1225 -525 
Q 1050 -300 850 -125 
z
M 1525 3900 
Q 1100 4500 800 4825 
Q 1000 4975 1175 5175 
L 1925 4275 
Q 1675 4100 1525 3900 
z
" transform="scale(0.015625)"/>
     </defs>
     <use xlink:href="#SimHei-865a"/>
     <use xlink:href="#SimHei-7ebf" transform="translate(100 0)"/>
     <use xlink:href="#SimHei-ff1a" transform="translate(200 0)"/>
     <use xlink:href="#SimHei-9700" transform="translate(300 0)"/>
     <use xlink:href="#SimHei-8981" transform="translate(400 0)"/>
     <use xlink:href="#SimHei-6839" transform="translate(500 0)"/>
     <use xlink:href="#SimHei-636e" transform="translate(600 0)"/>
     <use xlink:href="#SimHei-5236" transform="translate(700 0)"/>
     <use xlink:href="#SimHei-5ea6" transform="translate(800 0)"/>
     <use xlink:href="#SimHei-80cc" transform="translate(900 0)"/>
     <use xlink:href="#SimHei-666f" transform="translate(1000 0)"/>
     <use xlink:href="#SimHei-8fdb" transform="translate(1100 0)"/>
     <use xlink:href="#SimHei-884c" transform="translate(1200 0)"/>
     <use xlink:href="#SimHei-8bba" transform="translate(1300 0)"/>
     <use xlink:href="#SimHei-8bc1" transform="translate(1400 0)"/>
    </g>
   </g>
  </g>
 </g>
 <defs>
  <clipPath id="pfdf98c2d95">
   <rect x="7.2" y="7.2" width="446.4" height="266.112"/>
  </clipPath>
 </defs>
</svg>
