<?xml version="1.0" encoding="utf-8" standalone="no"?>
<!DOCTYPE svg PUBLIC "-//W3C//DTD SVG 1.1//EN"
  "http://www.w3.org/Graphics/SVG/1.1/DTD/svg11.dtd">
<svg xmlns:xlink="http://www.w3.org/1999/xlink" width="572.4pt" height="335.952pt" viewBox="0 0 572.4 335.952" xmlns="http://www.w3.org/2000/svg" version="1.1">
 <metadata>
  <rdf:RDF xmlns:dc="http://purl.org/dc/elements/1.1/" xmlns:cc="http://creativecommons.org/ns#" xmlns:rdf="http://www.w3.org/1999/02/22-rdf-syntax-ns#">
   <cc:Work>
    <dc:type rdf:resource="http://purl.org/dc/dcmitype/StillImage"/>
    <dc:date>2026-04-30T01:29:31.469278</dc:date>
    <dc:format>image/svg+xml</dc:format>
    <dc:creator>
     <cc:Agent>
      <dc:title>Matplotlib v3.10.8, https://matplotlib.org/</dc:title>
     </cc:Agent>
    </dc:creator>
   </cc:Work>
  </rdf:RDF>
 </metadata>
 <defs>
  <style type="text/css">*{stroke-linejoin: round; stroke-linecap: butt}</style>
 </defs>
 <g id="figure_1">
  <g id="patch_1">
   <path d="M 0 335.952 
L 572.4 335.952 
L 572.4 0 
L 0 0 
z
" style="fill: #ffffff"/>
  </g>
  <g id="axes_1">
   <g id="patch_2">
    <path d="M 88.947 81.15696 
L 197.757 81.15696 
Q 204.453 81.15696 204.453 74.72592 
L 204.453 46.85808 
Q 204.453 40.42704 197.757 40.42704 
L 88.947 40.42704 
Q 82.251 40.42704 82.251 46.85808 
L 82.251 74.72592 
Q 82.251 81.15696 88.947 81.15696 
z
" clip-path="url(#pb326aedb36)" style="fill: #eaf4ff; stroke: #4c78a8; stroke-width: 1.4; stroke-linejoin: miter"/>
   </g>
   <g id="patch_3">
    <path d="M 237.375 81.15696 
L 335.025 81.15696 
Q 341.721 81.15696 341.721 74.72592 
L 341.721 46.85808 
Q 341.721 40.42704 335.025 40.42704 
L 237.375 40.42704 
Q 230.679 40.42704 230.679 46.85808 
L 230.679 74.72592 
Q 230.679 81.15696 237.375 81.15696 
z
" clip-path="url(#pb326aedb36)" style="fill: #fff6dd; stroke: #d89c00; stroke-width: 1.4; stroke-linejoin: miter"/>
   </g>
   <g id="patch_4">
    <path d="M 371.853 81.15696 
L 486.243 81.15696 
Q 492.939 81.15696 492.939 74.72592 
L 492.939 46.85808 
Q 492.939 40.42704 486.243 40.42704 
L 371.853 40.42704 
Q 365.157 40.42704 365.157 46.85808 
L 365.157 74.72592 
Q 365.157 81.15696 371.853 81.15696 
z
" clip-path="url(#pb326aedb36)" style="fill: #e9f7ef; stroke: #2e8b57; stroke-width: 1.4; stroke-linejoin: miter"/>
   </g>
   <g id="patch_5">
    <path d="M 242.955 149.75472 
L 329.445 149.75472 
Q 336.141 149.75472 336.141 143.32368 
L 336.141 115.45584 
Q 336.141 109.0248 329.445 109.0248 
L 242.955 109.0248 
Q 236.259 109.0248 236.259 115.45584 
L 236.259 143.32368 
Q 236.259 149.75472 242.955 149.75472 
z
" clip-path="url(#pb326aedb36)" style="fill: #f0f0ff; stroke: #6f63b6; stroke-width: 1.4; stroke-linejoin: miter"/>
   </g>
   <g id="patch_6">
    <path d="M 125.775 210.8496 
L 223.425 210.8496 
Q 230.121 210.8496 230.121 204.41856 
L 230.121 174.40704 
Q 230.121 167.976 223.425 167.976 
L 125.775 167.976 
Q 119.079 167.976 119.079 174.40704 
L 119.079 204.41856 
Q 119.079 210.8496 125.775 210.8496 
z
" clip-path="url(#pb326aedb36)" style="fill: #fdeeee; stroke: #c95c5c; stroke-width: 1.4; stroke-linejoin: miter"/>
   </g>
   <g id="patch_7">
    <path d="M 353.16 210.8496 
L 442.44 210.8496 
Q 449.136 210.8496 449.136 204.41856 
L 449.136 174.40704 
Q 449.136 167.976 442.44 167.976 
L 353.16 167.976 
Q 346.464 167.976 346.464 174.40704 
L 346.464 204.41856 
Q 346.464 210.8496 353.16 210.8496 
z
" clip-path="url(#pb326aedb36)" style="fill: #e9f7ef; stroke: #2e8b57; stroke-width: 1.4; stroke-linejoin: miter"/>
   </g>
   <g id="patch_8">
    <path d="M 220.635 266.58528 
L 351.765 266.58528 
Q 358.461 266.58528 358.461 260.15424 
L 358.461 230.14272 
Q 358.461 223.71168 351.765 223.71168 
L 220.635 223.71168 
Q 213.939 223.71168 213.939 230.14272 
L 213.939 260.15424 
Q 213.939 266.58528 220.635 266.58528 
z
" clip-path="url(#pb326aedb36)" style="fill: #edf7f8; stroke: #1b8a8f; stroke-width: 1.4; stroke-linejoin: miter"/>
   </g>
   <g id="patch_9">
    <path d="M 204.174 60.792 
Q 217.566 60.792 228.945539 60.792 
" clip-path="url(#pb326aedb36)" style="fill: none; stroke: #333333; stroke-width: 1.8; stroke-linecap: round"/>
    <path d="M 223.345539 57.992 
L 228.945539 60.792 
L 223.345539 63.592 
z
" clip-path="url(#pb326aedb36)" style="fill: #333333; stroke: #333333; stroke-width: 1.8; stroke-linecap: round"/>
   </g>
   <g id="patch_10">
    <path d="M 341.442 60.792 
Q 353.439 60.792 363.423539 60.792 
" clip-path="url(#pb326aedb36)" style="fill: none; stroke: #333333; stroke-width: 1.8; stroke-linecap: round"/>
    <path d="M 357.823539 57.992 
L 363.423539 60.792 
L 357.823539 63.592 
z
" clip-path="url(#pb326aedb36)" style="fill: #333333; stroke: #333333; stroke-width: 1.8; stroke-linecap: round"/>
   </g>
   <g id="patch_11">
    <path d="M 286.2 80.889 
Q 286.2 95.09088 286.2 107.280299 
" clip-path="url(#pb326aedb36)" style="fill: none; stroke: #333333; stroke-width: 1.8; stroke-linecap: round"/>
    <path d="M 289 101.680299 
L 286.2 107.280299 
L 283.4 101.680299 
z
" clip-path="url(#pb326aedb36)" style="fill: #333333; stroke: #333333; stroke-width: 1.8; stroke-linecap: round"/>
   </g>
   <g id="patch_12">
    <path d="M 255.789 149.48676 
Q 232.074 158.86536 210.230432 167.503863 
" clip-path="url(#pb326aedb36)" style="fill: none; stroke: #333333; stroke-width: 1.8; stroke-linecap: round"/>
    <path d="M 216.467714 168.048203 
L 210.230432 167.503863 
L 214.408273 162.840641 
z
" clip-path="url(#pb326aedb36)" style="fill: #333333; stroke: #333333; stroke-width: 1.8; stroke-linecap: round"/>
   </g>
   <g id="patch_13">
    <path d="M 316.611 149.48676 
Q 341.5815 158.86536 364.668038 167.536368 
" clip-path="url(#pb326aedb36)" style="fill: none; stroke: #333333; stroke-width: 1.8; stroke-linecap: round"/>
    <path d="M 360.410102 162.946163 
L 364.668038 167.536368 
L 358.441112 168.188593 
z
" clip-path="url(#pb326aedb36)" style="fill: #333333; stroke: #333333; stroke-width: 1.8; stroke-linecap: round"/>
   </g>
   <g id="patch_14">
    <path d="M 199.6542 210.58164 
Q 219.6027 217.28064 237.643437 223.338985 
" clip-path="url(#pb326aedb36)" style="fill: none; stroke: #333333; stroke-width: 1.8; stroke-linecap: round"/>
    <path d="M 233.226139 218.901928 
L 237.643437 223.338985 
L 231.443412 224.210589 
z
" clip-path="url(#pb326aedb36)" style="fill: #333333; stroke: #333333; stroke-width: 1.8; stroke-linecap: round"/>
   </g>
   <g id="patch_15">
    <path d="M 374.5872 210.58164 
Q 353.718 217.28064 334.76496 223.364554 
" clip-path="url(#pb326aedb36)" style="fill: none; stroke: #333333; stroke-width: 1.8; stroke-linecap: round"/>
    <path d="M 340.952775 224.31899 
L 334.76496 223.364554 
L 339.241198 218.986964 
z
" clip-path="url(#pb326aedb36)" style="fill: #333333; stroke: #333333; stroke-width: 1.8; stroke-linecap: round"/>
   </g>
   <g id="text_1">
    <!-- 企业信贷背景 -->
    <g style="fill: #111111" transform="translate(110.352 59.305281) scale(0.11 -0.11)">
     <defs>
      <path id="SimHei-4f01" d="M 1450 -300 
Q 1300 -300 700 -325 
L 700 150 
Q 1375 125 1350 125 
L 1625 125 
L 1625 1725 
Q 1625 2025 1575 2500 
L 2175 2500 
Q 2125 2025 2125 1725 
L 2125 125 
L 3100 125 
L 3100 2550 
Q 3100 2850 3075 3325 
L 3625 3325 
Q 3600 2875 3600 2075 
L 4375 2075 
Q 4775 2075 5250 2100 
L 5250 1625 
Q 4800 1650 4400 1650 
L 3600 1650 
L 3600 125 
L 5150 125 
Q 5225 125 5675 150 
L 5675 -325 
Q 5225 -300 5125 -300 
L 1450 -300 
z
M 3450 4800 
Q 4275 3525 6150 3000 
Q 5900 2825 5775 2450 
Q 3825 3275 3175 4475 
Q 2325 3225 575 2300 
Q 400 2625 200 2800 
Q 1475 3300 2162 4037 
Q 2850 4775 3000 5225 
Q 3150 5125 3575 4975 
L 3450 4800 
z
" transform="scale(0.015625)"/>
      <path id="SimHei-4e1a" d="M 2825 5025 
Q 2775 4325 2775 3825 
L 2775 150 
L 3600 150 
L 3600 4125 
Q 3600 4525 3550 5025 
L 4175 5025 
Q 4125 4625 4125 4175 
L 4125 150 
L 5100 150 
Q 5500 150 6075 200 
L 6075 -350 
Q 5500 -300 5125 -300 
L 1325 -300 
Q 975 -300 325 -350 
L 325 200 
Q 975 150 1300 150 
L 2225 150 
L 2225 3850 
Q 2225 4375 2150 5025 
L 2825 5025 
z
M 1025 3775 
Q 1325 3000 1850 1500 
Q 1575 1450 1275 1300 
Q 825 2750 475 3550 
Q 725 3650 1025 3775 
z
M 5850 3625 
Q 5525 2775 4950 1250 
Q 4700 1400 4425 1475 
Q 4950 2450 5225 3825 
Q 5500 3725 5850 3625 
z
" transform="scale(0.015625)"/>
      <path id="SimHei-4fe1" d="M 5650 1575 
Q 5625 1275 5625 575 
Q 5625 -100 5650 -450 
L 5175 -450 
L 5175 -25 
L 3025 -25 
L 3025 -550 
L 2525 -550 
Q 2550 -175 2550 500 
Q 2550 1200 2525 1575 
L 5650 1575 
z
M 2125 4975 
Q 1975 4825 1650 3975 
L 1650 550 
Q 1650 -200 1675 -625 
L 1125 -625 
Q 1200 -175 1200 575 
L 1200 3100 
Q 900 2500 625 2100 
Q 475 2350 250 2500 
Q 525 2800 925 3562 
Q 1325 4325 1525 5175 
Q 1800 5075 2125 4975 
z
M 5175 375 
L 5175 1225 
L 3025 1225 
L 3025 375 
L 5175 375 
z
M 6075 3900 
Q 5575 3925 4100 3925 
Q 2625 3925 2100 3900 
L 2100 4325 
L 6075 4325 
L 6075 3900 
z
M 5700 3000 
Q 5275 3025 4150 3025 
Q 3025 3025 2475 3000 
L 2475 3425 
Q 2950 3400 4100 3400 
Q 5275 3400 5700 3425 
L 5700 3000 
z
M 5700 2125 
Q 5350 2150 4175 2150 
Q 3025 2150 2475 2125 
L 2475 2550 
Q 3000 2525 4175 2525 
Q 5375 2525 5700 2550 
L 5700 2125 
z
M 4025 5200 
Q 4100 5050 4175 4875 
Q 4250 4700 4325 4500 
Q 4100 4425 3875 4375 
Q 3700 4900 3575 5025 
Q 3825 5125 4025 5200 
z
" transform="scale(0.015625)"/>
      <path id="SimHei-8d37" d="M 2975 5125 
Q 3250 5150 3500 5200 
Q 3550 4900 3600 4662 
Q 3650 4425 3750 4100 
Q 4675 4250 5700 4475 
L 5800 4050 
Q 5500 4025 5037 3937 
Q 4575 3850 3950 3750 
Q 4300 3250 4675 3012 
Q 5050 2775 5225 2850 
Q 5400 2925 5500 3400 
Q 5700 3250 6050 3175 
Q 5875 2775 5637 2525 
Q 5400 2275 4887 2412 
Q 4375 2550 4000 2937 
Q 3625 3325 3425 3675 
Q 2900 3550 2075 3400 
L 1950 3800 
Q 2375 3850 3275 4025 
L 2975 5125 
z
M 5275 2300 
Q 5250 1925 5250 1500 
Q 5250 1100 5275 625 
L 4700 625 
L 4700 1900 
L 1750 1900 
L 1750 550 
L 1200 550 
Q 1225 1175 1225 1550 
Q 1225 1925 1200 2300 
L 5275 2300 
z
M 3525 1450 
Q 3375 1075 3275 762 
Q 3175 450 2887 175 
Q 2600 -100 2075 -312 
Q 1550 -525 650 -650 
Q 525 -375 325 -125 
Q 1000 -100 1437 -12 
Q 1875 75 2200 287 
Q 2525 500 2687 775 
Q 2850 1050 2900 1600 
Q 3175 1500 3525 1450 
z
M 2250 4875 
Q 2050 4775 1650 4275 
Q 1650 2900 1675 2525 
L 1150 2525 
Q 1175 2900 1175 3875 
Q 800 3475 600 3300 
Q 400 3525 225 3675 
Q 775 4000 1112 4375 
Q 1450 4750 1750 5250 
L 2250 4875 
z
M 3900 675 
Q 4425 450 5875 -225 
Q 5675 -450 5525 -650 
Q 4725 -200 3575 275 
Q 3750 500 3900 675 
z
M 4500 5250 
Q 4675 5075 5100 4675 
Q 4825 4500 4650 4375 
Q 4475 4650 4100 4950 
Q 4325 5075 4500 5250 
z
" transform="scale(0.015625)"/>
      <path id="SimHei-80cc" d="M 5250 2525 
Q 5225 2050 5225 1600 
L 5225 25 
Q 5225 -350 4937 -450 
Q 4650 -550 4200 -625 
Q 4125 -325 3975 -100 
Q 4575 -100 4675 -50 
Q 4775 0 4750 450 
L 1800 450 
L 1800 -625 
L 1300 -625 
Q 1325 -125 1325 1000 
Q 1325 2125 1300 2525 
L 5250 2525 
z
M 4150 5125 
Q 4125 4850 4125 4375 
Q 4900 4525 5500 4775 
Q 5575 4550 5725 4325 
Q 5475 4275 5087 4200 
Q 4700 4125 4125 4000 
L 4125 3525 
Q 4125 3225 4400 3200 
L 5225 3200 
Q 5425 3200 5487 3300 
Q 5550 3400 5600 3725 
Q 5825 3500 6125 3450 
Q 5975 3100 5850 2975 
Q 5725 2850 5475 2850 
L 4225 2850 
Q 3675 2850 3675 3425 
L 3675 4425 
Q 3675 4800 3650 5125 
L 4150 5125 
z
M 2250 4500 
Q 2250 4850 2225 5125 
L 2725 5125 
Q 2700 4925 2700 4475 
L 2700 3550 
Q 2700 3200 2725 2850 
L 2250 2850 
L 2250 3250 
Q 1750 3175 1250 3087 
Q 750 3000 475 2925 
Q 425 3150 300 3400 
Q 725 3425 1150 3475 
Q 1575 3525 2250 3625 
L 2250 4125 
L 1325 4125 
Q 975 4125 600 4100 
L 600 4525 
Q 975 4500 1300 4500 
L 2250 4500 
z
M 4750 1650 
L 4750 2150 
L 1800 2150 
L 1800 1650 
L 4750 1650 
z
M 4750 825 
L 4750 1275 
L 1800 1275 
L 1800 825 
L 4750 825 
z
" transform="scale(0.015625)"/>
      <path id="SimHei-666f" d="M 5200 5100 
Q 5175 4700 5175 4150 
Q 5175 3625 5225 3225 
L 1175 3225 
Q 1200 3625 1200 4150 
Q 1200 4700 1175 5100 
L 5200 5100 
z
M 5125 2075 
Q 5100 1675 5100 1375 
Q 5100 1075 5125 900 
L 3525 900 
L 3525 -175 
Q 3525 -475 3312 -575 
Q 3100 -675 2575 -700 
Q 2550 -425 2375 -100 
Q 2800 -175 2937 -137 
Q 3075 -100 3050 100 
L 3050 900 
L 1350 900 
Q 1375 1125 1375 1450 
Q 1375 1800 1350 2075 
L 5125 2075 
z
M 3325 3200 
Q 3400 2950 3500 2750 
L 5200 2750 
Q 5625 2750 6050 2800 
L 6050 2350 
Q 5625 2375 5200 2375 
L 1175 2375 
Q 850 2375 350 2350 
L 350 2775 
Q 850 2750 1175 2750 
L 2900 2750 
Q 2875 2900 2800 3125 
Q 3100 3175 3325 3200 
z
M 4650 1250 
L 4650 1700 
L 1825 1700 
L 1825 1250 
L 4650 1250 
z
M 4700 4300 
L 4700 4700 
L 1675 4700 
L 1675 4300 
L 4700 4300 
z
M 4700 3600 
L 4700 3925 
L 1675 3925 
L 1675 3600 
L 4700 3600 
z
M 4325 725 
Q 4600 575 4987 387 
Q 5375 200 5850 -50 
Q 5700 -275 5550 -550 
Q 5325 -350 4925 -125 
Q 4525 100 4075 275 
L 4325 725 
z
M 2450 250 
Q 2225 175 1812 -100 
Q 1400 -375 1000 -600 
Q 850 -375 700 -175 
Q 975 -25 1350 187 
Q 1725 400 2075 700 
Q 2250 500 2450 250 
z
" transform="scale(0.015625)"/>
     </defs>
     <use xlink:href="#SimHei-4f01"/>
     <use xlink:href="#SimHei-4e1a" transform="translate(100 0)"/>
     <use xlink:href="#SimHei-4fe1" transform="translate(200 0)"/>
     <use xlink:href="#SimHei-8d37" transform="translate(300 0)"/>
     <use xlink:href="#SimHei-80cc" transform="translate(400 0)"/>
     <use xlink:href="#SimHei-666f" transform="translate(500 0)"/>
    </g>
    <!-- Firm credit data -->
    <g style="fill: #111111" transform="translate(99.352 69.755281) scale(0.11 -0.11)">
     <defs>
      <path id="SimHei-46" d="M 2925 3925 
L 875 3925 
L 875 2525 
L 2425 2525 
L 2425 2050 
L 875 2050 
L 875 125 
L 300 125 
L 300 4400 
L 2925 4400 
L 2925 3925 
z
" transform="scale(0.015625)"/>
      <path id="SimHei-69" d="M 1800 3725 
L 1300 3725 
L 1300 4375 
L 1800 4375 
L 1800 3725 
z
M 1800 125 
L 1300 125 
L 1300 2925 
L 1800 2925 
L 1800 125 
z
" transform="scale(0.015625)"/>
      <path id="SimHei-72" d="M 2500 2425 
Q 2025 2500 1700 2287 
Q 1375 2075 1150 1550 
L 1150 125 
L 650 125 
L 650 2925 
L 1150 2925 
L 1150 2200 
Q 1375 2600 1712 2787 
Q 2050 2975 2500 2975 
L 2500 2425 
z
" transform="scale(0.015625)"/>
      <path id="SimHei-6d" d="M 3050 125 
L 2550 125 
L 2550 2150 
Q 2550 2300 2500 2400 
Q 2450 2500 2300 2500 
Q 2125 2500 1975 2312 
Q 1825 2125 1825 1825 
L 1825 125 
L 1325 125 
L 1325 2150 
Q 1325 2300 1275 2400 
Q 1225 2500 1075 2500 
Q 900 2500 750 2312 
Q 600 2125 600 1825 
L 600 125 
L 100 125 
L 100 2925 
L 600 2925 
L 600 2550 
Q 725 2750 900 2862 
Q 1075 2975 1275 2975 
Q 1475 2975 1612 2862 
Q 1750 2750 1800 2550 
Q 1925 2750 2087 2862 
Q 2250 2975 2450 2975 
Q 2750 2975 2900 2812 
Q 3050 2650 3050 2350 
L 3050 125 
z
" transform="scale(0.015625)"/>
      <path id="SimHei-20" transform="scale(0.015625)"/>
      <path id="SimHei-63" d="M 2850 1250 
Q 2850 725 2487 400 
Q 2125 75 1575 75 
Q 1025 75 625 462 
Q 225 850 225 1525 
Q 225 2200 625 2587 
Q 1025 2975 1575 2975 
Q 2125 2975 2450 2687 
Q 2775 2400 2775 2000 
L 2225 2000 
Q 2200 2300 2012 2412 
Q 1825 2525 1575 2525 
Q 1275 2525 1025 2287 
Q 775 2050 775 1525 
Q 775 1000 1025 762 
Q 1275 525 1575 525 
Q 1900 525 2100 700 
Q 2300 875 2300 1250 
L 2850 1250 
z
" transform="scale(0.015625)"/>
      <path id="SimHei-65" d="M 2850 1075 
Q 2800 625 2450 350 
Q 2100 75 1625 75 
Q 1025 75 637 462 
Q 250 850 250 1525 
Q 250 2200 637 2587 
Q 1025 2975 1625 2975 
Q 2150 2975 2487 2637 
Q 2825 2300 2825 1525 
L 800 1525 
Q 800 975 1037 750 
Q 1275 525 1625 525 
Q 1900 525 2075 662 
Q 2250 800 2300 1075 
L 2850 1075 
z
M 2250 1925 
Q 2200 2275 2025 2412 
Q 1850 2550 1575 2550 
Q 1325 2550 1125 2412 
Q 925 2275 825 1925 
L 2250 1925 
z
" transform="scale(0.015625)"/>
      <path id="SimHei-64" d="M 2750 125 
L 2250 125 
L 2250 500 
Q 2100 275 1900 175 
Q 1700 75 1425 75 
Q 925 75 575 437 
Q 225 800 225 1525 
Q 225 2250 575 2625 
Q 925 3000 1425 3000 
Q 1700 3000 1900 2887 
Q 2100 2775 2250 2550 
L 2250 4400 
L 2750 4400 
L 2750 125 
z
M 2250 1525 
Q 2250 2000 2037 2275 
Q 1825 2550 1525 2550 
Q 1150 2550 962 2275 
Q 775 2000 775 1525 
Q 775 1050 962 787 
Q 1150 525 1525 525 
Q 1825 525 2037 787 
Q 2250 1050 2250 1525 
z
" transform="scale(0.015625)"/>
      <path id="SimHei-74" d="M 2750 200 
Q 2625 150 2462 112 
Q 2300 75 2025 75 
Q 1575 75 1300 325 
Q 1025 575 1025 1025 
L 1025 2525 
L 175 2525 
L 175 2925 
L 1025 2925 
L 1025 3900 
L 1525 3900 
L 1525 2925 
L 2550 2925 
L 2550 2525 
L 1525 2525 
L 1525 1000 
Q 1525 800 1625 662 
Q 1725 525 2000 525 
Q 2275 525 2450 575 
Q 2625 625 2750 700 
L 2750 200 
z
" transform="scale(0.015625)"/>
      <path id="SimHei-61" d="M 2875 125 
L 2275 125 
Q 2225 175 2200 262 
Q 2175 350 2175 475 
Q 2000 275 1750 175 
Q 1500 75 1225 75 
Q 825 75 550 275 
Q 275 475 275 850 
Q 275 1225 525 1450 
Q 775 1675 1300 1750 
Q 1650 1800 1912 1875 
Q 2175 1950 2175 2075 
Q 2175 2225 2062 2375 
Q 1950 2525 1575 2525 
Q 1275 2525 1137 2412 
Q 1000 2300 950 2100 
L 400 2100 
Q 450 2500 762 2737 
Q 1075 2975 1575 2975 
Q 2125 2975 2400 2725 
Q 2675 2475 2675 2025 
L 2675 650 
Q 2675 500 2725 375 
Q 2775 250 2875 125 
z
M 2175 1050 
L 2175 1550 
Q 2025 1500 1887 1462 
Q 1750 1425 1425 1375 
Q 1050 1325 937 1200 
Q 825 1075 825 900 
Q 825 750 937 637 
Q 1050 525 1275 525 
Q 1500 525 1762 650 
Q 2025 775 2175 1050 
z
" transform="scale(0.015625)"/>
     </defs>
     <use xlink:href="#SimHei-46"/>
     <use xlink:href="#SimHei-69" transform="translate(50 0)"/>
     <use xlink:href="#SimHei-72" transform="translate(100 0)"/>
     <use xlink:href="#SimHei-6d" transform="translate(150 0)"/>
     <use xlink:href="#SimHei-20" transform="translate(200 0)"/>
     <use xlink:href="#SimHei-63" transform="translate(250 0)"/>
     <use xlink:href="#SimHei-72" transform="translate(300 0)"/>
     <use xlink:href="#SimHei-65" transform="translate(350 0)"/>
     <use xlink:href="#SimHei-64" transform="translate(400 0)"/>
     <use xlink:href="#SimHei-69" transform="translate(450 0)"/>
     <use xlink:href="#SimHei-74" transform="translate(500 0)"/>
     <use xlink:href="#SimHei-20" transform="translate(550 0)"/>
     <use xlink:href="#SimHei-64" transform="translate(600 0)"/>
     <use xlink:href="#SimHei-61" transform="translate(650 0)"/>
     <use xlink:href="#SimHei-74" transform="translate(700 0)"/>
     <use xlink:href="#SimHei-61" transform="translate(750 0)"/>
    </g>
   </g>
   <g id="text_2">
    <!-- 是否获得贷款？ -->
    <g style="fill: #111111" transform="translate(247.7 58.734312) scale(0.11 -0.11)">
     <defs>
      <path id="SimHei-662f" d="M 5075 5000 
Q 5050 4625 5050 3950 
Q 5050 3300 5075 2725 
L 1350 2725 
Q 1375 3300 1375 3950 
Q 1375 4625 1350 5000 
L 5075 5000 
z
M 5075 2275 
Q 5500 2275 6025 2300 
L 6025 1850 
Q 5500 1875 5075 1875 
L 3475 1875 
L 3475 1250 
Q 4950 1250 5400 1275 
L 5400 825 
Q 4950 850 3475 850 
L 3475 100 
Q 3950 25 4650 25 
Q 5350 25 6200 125 
Q 6000 -150 5950 -475 
L 4675 -475 
Q 4125 -475 3650 -412 
Q 3175 -350 2712 -175 
Q 2250 0 1725 450 
Q 1625 250 1437 -12 
Q 1250 -275 875 -650 
Q 625 -450 375 -300 
Q 875 0 1200 575 
Q 1525 1150 1575 1650 
L 2175 1475 
Q 2100 1375 1925 900 
Q 2375 425 3000 225 
L 3000 1875 
L 1400 1875 
Q 950 1875 450 1850 
L 450 2300 
Q 975 2275 1400 2275 
L 5075 2275 
z
M 4550 3150 
L 4550 3675 
L 1875 3675 
L 1875 3150 
L 4550 3150 
z
M 4550 4100 
L 4550 4600 
L 1875 4600 
L 1875 4100 
L 4550 4100 
z
" transform="scale(0.015625)"/>
      <path id="SimHei-5426" d="M 700 4800 
Q 1075 4775 1675 4775 
L 4800 4775 
Q 5525 4775 5750 4800 
L 5750 4325 
Q 5275 4350 4775 4350 
L 3725 4350 
L 3350 3975 
L 3350 1900 
L 5200 1900 
Q 5175 1675 5175 650 
Q 5175 -375 5200 -575 
L 4650 -575 
L 4650 -125 
L 1750 -125 
L 1750 -625 
L 1200 -625 
Q 1225 -325 1225 600 
Q 1225 1550 1200 1900 
L 2800 1900 
L 2800 3400 
Q 2500 3100 1762 2700 
Q 1025 2300 600 2125 
Q 475 2400 250 2600 
Q 900 2800 1725 3300 
Q 2550 3800 3000 4350 
L 1750 4350 
Q 1175 4350 700 4325 
L 700 4800 
z
M 4650 325 
L 4650 1450 
L 1750 1450 
L 1750 325 
L 4650 325 
z
M 4075 3725 
Q 4625 3450 5075 3237 
Q 5525 3025 6125 2675 
Q 6000 2450 5800 2150 
Q 5250 2500 4762 2762 
Q 4275 3025 3800 3250 
Q 3950 3450 4075 3725 
z
" transform="scale(0.015625)"/>
      <path id="SimHei-83b7" d="M 4325 3350 
Q 4275 3075 4275 2350 
L 5175 2350 
Q 5550 2350 5825 2375 
L 5825 1925 
Q 5550 1950 5175 1950 
L 4300 1950 
Q 4350 1700 4475 1400 
Q 4600 1100 4825 812 
Q 5050 525 5375 262 
Q 5700 0 5950 -75 
Q 5650 -300 5525 -525 
Q 5075 -200 4675 262 
Q 4275 725 4050 1350 
Q 3875 825 3637 475 
Q 3400 125 3187 -112 
Q 2975 -350 2625 -600 
Q 2450 -375 2250 -225 
Q 2550 -50 2825 200 
Q 3100 450 3287 750 
Q 3475 1050 3600 1387 
Q 3725 1725 3750 1950 
L 3475 1950 
Q 3050 1950 2600 1925 
L 2600 2375 
Q 3050 2350 3475 2350 
L 3800 2350 
Q 3800 3150 3775 3425 
Q 4025 3375 4325 3350 
z
M 2575 3200 
Q 2400 3100 2225 2962 
Q 2050 2825 1950 2725 
Q 2200 2375 2325 1837 
Q 2450 1300 2387 700 
Q 2325 100 1962 -187 
Q 1600 -475 975 -600 
Q 950 -400 775 -150 
Q 1350 -75 1587 100 
Q 1825 275 1887 512 
Q 1950 750 1962 987 
Q 1975 1225 1925 1625 
Q 1750 1375 1500 1162 
Q 1250 950 700 525 
Q 575 725 350 875 
Q 800 1075 1187 1412 
Q 1575 1750 1800 2050 
Q 1700 2300 1600 2450 
Q 1475 2350 1287 2225 
Q 1100 2100 700 1850 
Q 550 2025 375 2175 
Q 925 2400 1350 2775 
Q 1025 3050 750 3175 
Q 925 3325 1050 3525 
Q 1500 3200 1700 3050 
Q 2050 3325 2175 3550 
Q 2300 3375 2575 3200 
z
M 2550 4125 
Q 2550 3875 2575 3625 
L 2050 3625 
Q 2075 3950 2075 4125 
L 1400 4125 
Q 1025 4125 575 4100 
L 575 4550 
Q 1050 4525 1425 4525 
L 2075 4525 
Q 2075 4825 2050 5125 
L 2575 5125 
Q 2550 4875 2550 4525 
L 3825 4525 
Q 3825 4875 3800 5150 
L 4325 5150 
Q 4300 4875 4300 4525 
L 4925 4525 
Q 5325 4525 5825 4550 
L 5825 4100 
Q 5375 4125 4950 4125 
L 4300 4125 
Q 4300 3900 4325 3625 
L 3800 3625 
Q 3825 3875 3825 4125 
L 2550 4125 
z
M 4975 3425 
Q 5250 3175 5600 2700 
Q 5400 2575 5225 2400 
Q 4925 2850 4625 3150 
Q 4750 3225 4975 3425 
z
" transform="scale(0.015625)"/>
      <path id="SimHei-5f97" d="M 5575 4975 
Q 5550 4625 5550 3950 
Q 5550 3300 5575 2900 
L 2675 2900 
Q 2700 3300 2700 3950 
Q 2700 4600 2675 4975 
L 5575 4975 
z
M 1950 1625 
Q 2400 1600 2950 1600 
L 4775 1600 
L 4775 2100 
L 3125 2100 
Q 2700 2100 2325 2075 
L 2325 2500 
Q 2700 2475 3125 2475 
L 5000 2475 
Q 5525 2475 5900 2500 
L 5900 2075 
Q 5575 2100 5225 2100 
L 5225 1600 
Q 5675 1600 6075 1625 
L 6075 1175 
Q 5700 1200 5225 1200 
L 5225 250 
Q 5250 -275 4950 -400 
Q 4650 -525 4175 -600 
Q 4125 -350 3975 -25 
Q 4550 -25 4675 62 
Q 4800 150 4775 425 
L 4775 1200 
L 2950 1200 
Q 2400 1200 1950 1175 
L 1950 1625 
z
M 1150 -550 
Q 1175 125 1175 575 
L 1175 2075 
Q 950 1825 625 1500 
Q 475 1750 275 1925 
Q 775 2300 1150 2775 
Q 1525 3250 1800 3775 
Q 2000 3600 2275 3450 
Q 2050 3150 1625 2575 
L 1625 575 
Q 1625 125 1650 -550 
L 1150 -550 
z
M 2150 4875 
Q 1450 4000 825 3375 
Q 675 3575 475 3750 
Q 1175 4325 1700 5200 
Q 1900 5025 2150 4875 
z
M 5100 3300 
L 5100 3775 
L 3150 3775 
L 3150 3300 
L 5100 3300 
z
M 5100 4150 
L 5100 4600 
L 3150 4600 
L 3150 4150 
L 5100 4150 
z
M 2950 1050 
Q 3325 525 3550 175 
Q 3375 75 3100 -125 
Q 2950 275 2575 750 
Q 2800 900 2950 1050 
z
" transform="scale(0.015625)"/>
      <path id="SimHei-6b3e" d="M 4900 2700 
Q 4850 2500 4812 2237 
Q 4775 1975 4925 1462 
Q 5075 950 5450 512 
Q 5825 75 6200 -100 
Q 5900 -350 5800 -525 
Q 5275 -75 5025 300 
Q 4775 675 4625 1125 
Q 4475 650 4225 250 
Q 3975 -150 3425 -625 
Q 3225 -300 3100 -200 
Q 3400 0 3637 275 
Q 3875 550 4025 862 
Q 4175 1175 4237 1487 
Q 4300 1800 4312 2112 
Q 4325 2425 4325 2800 
Q 4675 2725 4900 2700 
z
M 1775 4500 
Q 1775 4850 1750 5175 
L 2250 5175 
Q 2225 4875 2225 4500 
L 2650 4500 
Q 3050 4500 3500 4525 
L 3500 4075 
Q 3050 4125 2650 4125 
L 2225 4125 
L 2225 3575 
L 2475 3575 
Q 2800 3575 3250 3600 
L 3250 3175 
Q 2800 3200 2475 3200 
L 1450 3200 
Q 1125 3200 625 3150 
L 625 3600 
Q 1100 3575 1450 3575 
L 1775 3575 
L 1775 4125 
L 1250 4125 
Q 925 4125 450 4075 
L 450 4525 
Q 925 4500 1225 4500 
L 1775 4500 
z
M 4250 3525 
Q 4050 3050 3750 2600 
Q 3500 2775 3300 2850 
Q 3600 3225 3762 3625 
Q 3925 4025 4037 4387 
Q 4150 4750 4200 5075 
Q 4475 4950 4750 4900 
Q 4550 4500 4375 3925 
L 6150 3925 
Q 6050 3550 5962 3262 
Q 5875 2975 5800 2700 
L 5300 2750 
Q 5450 3150 5550 3525 
L 4250 3525 
z
M 2650 1825 
Q 3050 1825 3425 1850 
L 3425 1400 
Q 3050 1450 2650 1450 
L 2225 1450 
L 2225 100 
Q 2225 -275 2037 -375 
Q 1850 -475 1375 -575 
Q 1325 -300 1125 -25 
Q 1625 -50 1687 25 
Q 1750 100 1750 225 
L 1750 1450 
L 1175 1450 
Q 825 1450 400 1400 
L 400 1850 
Q 850 1825 1200 1825 
L 2650 1825 
z
M 2450 2700 
Q 2775 2700 3200 2725 
L 3200 2275 
Q 2800 2325 2450 2325 
L 1400 2325 
Q 1050 2325 650 2275 
L 650 2725 
Q 1050 2700 1400 2700 
L 2450 2700 
z
M 1400 975 
Q 1275 775 1100 475 
Q 925 175 675 -150 
Q 550 25 275 150 
Q 450 350 625 625 
Q 800 900 925 1225 
Q 1175 1100 1400 975 
z
M 2900 1175 
Q 3000 1000 3125 800 
Q 3250 600 3400 325 
Q 3175 200 2975 50 
L 2750 500 
Q 2650 700 2475 925 
Q 2650 1025 2900 1175 
z
" transform="scale(0.015625)"/>
      <path id="SimHei-ff1f" d="M 2000 4600 
Q 2650 4675 3050 3925 
Q 3300 3075 2375 2225 
Q 2075 1775 2075 1250 
L 1625 1250 
Q 1600 2175 2450 3000 
Q 2650 3300 2625 3650 
Q 2475 4150 2050 4125 
L 1950 4125 
Q 1425 4100 1450 3350 
L 975 3350 
Q 950 4275 1600 4500 
Q 1700 4575 2000 4600 
z
M 1525 725 
L 2225 725 
L 2225 0 
L 1525 0 
L 1525 725 
z
" transform="scale(0.015625)"/>
     </defs>
     <use xlink:href="#SimHei-662f"/>
     <use xlink:href="#SimHei-5426" transform="translate(100 0)"/>
     <use xlink:href="#SimHei-83b7" transform="translate(200 0)"/>
     <use xlink:href="#SimHei-5f97" transform="translate(300 0)"/>
     <use xlink:href="#SimHei-8d37" transform="translate(400 0)"/>
     <use xlink:href="#SimHei-6b3e" transform="translate(500 0)"/>
     <use xlink:href="#SimHei-ff1f" transform="translate(600 0)"/>
    </g>
    <!-- $D_i=1$ -->
    <g style="fill: #111111" transform="translate(270.47 69.745312) scale(0.11 -0.11)">
     <defs>
      <path id="DejaVuSans-Oblique-44" d="M 1081 4666 
L 2438 4666 
Q 3519 4666 4070 4208 
Q 4622 3750 4622 2847 
Q 4622 2250 4412 1698 
Q 4203 1147 3834 769 
Q 3463 381 2891 190 
Q 2319 0 1538 0 
L 172 0 
L 1081 4666 
z
M 1613 4147 
L 909 519 
L 1734 519 
Q 2794 519 3375 1128 
Q 3956 1738 3956 2847 
Q 3956 3519 3581 3833 
Q 3206 4147 2406 4147 
L 1613 4147 
z
" transform="scale(0.015625)"/>
      <path id="DejaVuSans-Oblique-69" d="M 1172 4863 
L 1747 4863 
L 1606 4134 
L 1031 4134 
L 1172 4863 
z
M 909 3500 
L 1484 3500 
L 800 0 
L 225 0 
L 909 3500 
z
" transform="scale(0.015625)"/>
      <path id="DejaVuSans-3d" d="M 678 2906 
L 4684 2906 
L 4684 2381 
L 678 2381 
L 678 2906 
z
M 678 1631 
L 4684 1631 
L 4684 1100 
L 678 1100 
L 678 1631 
z
" transform="scale(0.015625)"/>
      <path id="DejaVuSans-31" d="M 794 531 
L 1825 531 
L 1825 4091 
L 703 3866 
L 703 4441 
L 1819 4666 
L 2450 4666 
L 2450 531 
L 3481 531 
L 3481 0 
L 794 0 
L 794 531 
z
" transform="scale(0.015625)"/>
     </defs>
     <use xlink:href="#DejaVuSans-Oblique-44" transform="translate(0 0.09375)"/>
     <use xlink:href="#DejaVuSans-Oblique-69" transform="translate(77.001953 -16.3125) scale(0.7)"/>
     <use xlink:href="#DejaVuSans-3d" transform="translate(118.666992 0.09375)"/>
     <use xlink:href="#DejaVuSans-31" transform="translate(221.938477 0.09375)"/>
    </g>
   </g>
   <g id="text_3">
    <!-- 贷款金额 -->
    <g style="fill: #111111" transform="translate(407.048 58.161797) scale(0.11 -0.11)">
     <defs>
      <path id="SimHei-91d1" d="M 1800 1250 
Q 2200 700 2500 225 
Q 2325 125 2150 -50 
L 2925 -50 
L 2925 1400 
L 2075 1400 
Q 1725 1400 1100 1375 
L 1100 1850 
Q 1725 1825 2050 1825 
L 2925 1825 
L 2925 2600 
Q 2100 2600 1625 2575 
L 1625 2975 
Q 1225 2675 650 2350 
Q 500 2575 275 2775 
Q 750 2950 1250 3300 
Q 1750 3650 2225 4162 
Q 2700 4675 3000 5250 
Q 3050 5200 3525 4975 
L 3375 4825 
Q 3650 4525 4050 4150 
Q 4450 3775 5000 3487 
Q 5550 3200 6150 3025 
Q 5950 2825 5825 2550 
Q 5325 2725 4800 3000 
L 4800 2575 
Q 4300 2600 4000 2600 
L 3400 2600 
L 3400 1825 
L 4275 1825 
Q 4700 1825 5325 1850 
L 5325 1375 
Q 4725 1400 4275 1400 
L 3400 1400 
L 3400 -50 
L 3875 -50 
Q 4450 950 4500 1300 
Q 4725 1150 5050 1000 
Q 4875 775 4375 -50 
Q 5150 -50 5875 -25 
L 5875 -500 
Q 5150 -475 4700 -475 
L 1725 -475 
Q 1200 -475 700 -500 
L 700 -25 
Q 1225 -50 1725 -50 
L 2025 -50 
Q 1850 350 1400 950 
Q 1625 1100 1800 1250 
z
M 1700 3050 
Q 2075 3025 2400 3025 
L 3900 3025 
Q 4275 3050 4700 3050 
Q 4275 3350 3837 3762 
Q 3400 4175 3125 4525 
Q 2850 4150 2462 3762 
Q 2075 3375 1700 3050 
z
" transform="scale(0.015625)"/>
      <path id="SimHei-989d" d="M 1925 3700 
Q 1725 3550 1550 3350 
L 2950 3350 
Q 2875 3150 2700 2875 
Q 2525 2600 2300 2300 
Q 2500 2200 2712 2075 
Q 2925 1950 3275 1725 
Q 3125 1575 2950 1325 
Q 2700 1525 2475 1662 
Q 2250 1800 1950 1950 
Q 1575 1650 1150 1375 
L 2800 1375 
Q 2775 950 2775 500 
Q 2775 50 2800 -450 
L 2325 -450 
L 2325 -50 
L 1325 -50 
L 1325 -575 
L 875 -575 
Q 900 -75 900 275 
L 900 1175 
Q 675 1075 550 1000 
Q 400 1225 225 1400 
Q 625 1550 975 1762 
Q 1325 1975 1550 2200 
Q 1300 2350 1075 2475 
Q 1175 2625 1350 2800 
Q 1625 2650 1925 2500 
Q 2150 2750 2300 3000 
L 1300 3000 
Q 1200 2875 1025 2687 
Q 850 2500 650 2275 
Q 475 2425 250 2575 
Q 650 2875 937 3237 
Q 1225 3600 1375 3925 
Q 1650 3800 1925 3700 
z
M 4150 4400 
Q 3775 4400 3375 4375 
L 3375 4825 
Q 3750 4800 4200 4800 
L 5300 4800 
Q 5600 4800 6000 4825 
L 6000 4375 
Q 5625 4400 5300 4400 
L 4950 4400 
Q 4850 3975 4725 3525 
L 5750 3525 
Q 5725 3125 5725 2775 
L 5725 1625 
Q 5725 1300 5750 825 
L 5300 825 
L 5300 3175 
L 3925 3175 
L 3925 800 
L 3450 800 
Q 3475 1275 3475 1650 
L 3475 2800 
Q 3475 3175 3450 3525 
L 4300 3525 
Q 4400 4025 4450 4400 
L 4150 4400 
z
M 2050 5100 
Q 2100 4825 2200 4475 
L 3225 4475 
Q 3200 4275 3200 4075 
Q 3200 3875 3225 3675 
L 2775 3675 
L 2775 4100 
L 875 4100 
L 875 3500 
L 400 3500 
Q 425 3775 425 4000 
Q 425 4250 400 4475 
L 1650 4475 
Q 1550 4750 1475 5000 
Q 1800 5050 2050 5100 
z
M 4925 2725 
Q 4850 2425 4837 2025 
Q 4825 1625 4712 1175 
Q 4600 725 4262 250 
Q 3925 -225 3250 -675 
Q 3050 -425 2850 -250 
Q 3375 -25 3687 262 
Q 4000 550 4162 937 
Q 4325 1325 4350 1750 
Q 4375 2175 4375 2775 
Q 4575 2750 4925 2725 
z
M 2325 325 
L 2325 1025 
L 1325 1025 
L 1325 325 
L 2325 325 
z
M 5075 800 
Q 5300 575 5487 400 
Q 5675 225 6025 -100 
Q 5800 -275 5600 -500 
Q 5450 -275 5275 -87 
Q 5100 100 4675 400 
Q 4875 575 5075 800 
z
" transform="scale(0.015625)"/>
     </defs>
     <use xlink:href="#SimHei-8d37"/>
     <use xlink:href="#SimHei-6b3e" transform="translate(100 0)"/>
     <use xlink:href="#SimHei-91d1" transform="translate(200 0)"/>
     <use xlink:href="#SimHei-989d" transform="translate(300 0)"/>
    </g>
    <!-- $B_i=0$ 或 $B_i&gt;0$ -->
    <g style="fill: #111111" transform="translate(387.523 70.360797) scale(0.11 -0.11)">
     <defs>
      <path id="DejaVuSans-Oblique-42" d="M 1081 4666 
L 2694 4666 
Q 3350 4666 3675 4422 
Q 4000 4178 4000 3688 
Q 4000 3238 3720 2911 
Q 3441 2584 2988 2516 
Q 3375 2428 3569 2181 
Q 3763 1934 3763 1522 
Q 3763 819 3242 409 
Q 2722 0 1819 0 
L 172 0 
L 1081 4666 
z
M 1234 2228 
L 903 519 
L 1919 519 
Q 2491 519 2800 781 
Q 3109 1044 3109 1522 
Q 3109 1891 2904 2059 
Q 2700 2228 2247 2228 
L 1234 2228 
z
M 1606 4147 
L 1331 2741 
L 2272 2741 
Q 2775 2741 3058 2959 
Q 3341 3178 3341 3566 
Q 3341 3869 3150 4008 
Q 2959 4147 2541 4147 
L 1606 4147 
z
" transform="scale(0.015625)"/>
      <path id="DejaVuSans-30" d="M 2034 4250 
Q 1547 4250 1301 3770 
Q 1056 3291 1056 2328 
Q 1056 1369 1301 889 
Q 1547 409 2034 409 
Q 2525 409 2770 889 
Q 3016 1369 3016 2328 
Q 3016 3291 2770 3770 
Q 2525 4250 2034 4250 
z
M 2034 4750 
Q 2819 4750 3233 4129 
Q 3647 3509 3647 2328 
Q 3647 1150 3233 529 
Q 2819 -91 2034 -91 
Q 1250 -91 836 529 
Q 422 1150 422 2328 
Q 422 3509 836 4129 
Q 1250 4750 2034 4750 
z
" transform="scale(0.015625)"/>
      <path id="SimHei-6216" d="M 3425 4100 
Q 3425 4800 3400 5225 
Q 3725 5175 3950 5175 
Q 3900 4800 3900 4100 
L 4825 4100 
Q 5200 4100 5825 4125 
L 5825 3675 
Q 5200 3700 4825 3700 
L 3925 3700 
Q 3950 3150 4050 2450 
Q 4150 1750 4325 1375 
Q 4875 2275 5100 3075 
Q 5350 2875 5600 2775 
Q 5400 2425 5150 1937 
Q 4900 1450 4525 875 
Q 4900 200 5112 25 
Q 5325 -150 5437 87 
Q 5550 325 5600 650 
Q 5875 400 6100 350 
Q 5775 -675 5287 -625 
Q 4800 -575 4200 500 
Q 3575 -175 2675 -650 
Q 2525 -425 2325 -275 
Q 2925 0 3362 350 
Q 3800 700 3975 925 
Q 3850 1175 3675 1925 
Q 3500 2675 3450 3700 
L 1300 3700 
Q 850 3700 425 3675 
L 425 4125 
Q 850 4100 1275 4100 
L 3425 4100 
z
M 2850 3100 
Q 2825 2775 2825 2225 
Q 2825 1700 2850 1275 
L 825 1275 
Q 850 1775 850 2275 
Q 850 2775 825 3100 
L 2850 3100 
z
M 3200 1000 
Q 3150 800 3150 525 
Q 2300 350 1850 237 
Q 1400 125 600 -125 
Q 525 100 375 400 
Q 650 425 1375 575 
Q 2100 725 3200 1000 
z
M 2375 1675 
L 2375 2700 
L 1300 2700 
L 1300 1675 
L 2375 1675 
z
M 4625 5200 
Q 5200 4650 5325 4475 
Q 5175 4350 4975 4150 
Q 4800 4425 4300 4875 
Q 4500 5050 4625 5200 
z
" transform="scale(0.015625)"/>
      <path id="DejaVuSans-3e" d="M 678 3150 
L 678 3719 
L 4684 2266 
L 4684 1747 
L 678 294 
L 678 863 
L 3897 2003 
L 678 3150 
z
" transform="scale(0.015625)"/>
     </defs>
     <use xlink:href="#DejaVuSans-Oblique-42" transform="translate(0 0.359375)"/>
     <use xlink:href="#DejaVuSans-Oblique-69" transform="translate(68.603516 -16.046875) scale(0.7)"/>
     <use xlink:href="#DejaVuSans-3d" transform="translate(110.268555 0.359375)"/>
     <use xlink:href="#DejaVuSans-30" transform="translate(213.540039 0.359375)"/>
     <use xlink:href="#SimHei-20" transform="translate(277.163086 0.359375)"/>
     <use xlink:href="#SimHei-6216" transform="translate(327.163086 0.359375)"/>
     <use xlink:href="#SimHei-20" transform="translate(427.163086 0.359375)"/>
     <use xlink:href="#DejaVuSans-Oblique-42" transform="translate(477.163086 0.359375)"/>
     <use xlink:href="#DejaVuSans-Oblique-69" transform="translate(545.766602 -16.046875) scale(0.7)"/>
     <use xlink:href="#DejaVuSans-3e" transform="translate(587.431641 0.359375)"/>
     <use xlink:href="#DejaVuSans-30" transform="translate(690.703125 0.359375)"/>
    </g>
   </g>
   <g id="text_4">
    <!-- 研究贷款利率 -->
    <g style="fill: #111111" transform="translate(253.2 127.375041) scale(0.11 -0.11)">
     <defs>
      <path id="SimHei-7814" d="M 5125 5025 
Q 5600 5025 5900 5050 
L 5900 4600 
Q 5550 4625 5275 4625 
L 5275 2775 
Q 5775 2775 6100 2800 
L 6100 2300 
Q 5750 2325 5275 2325 
L 5275 325 
Q 5275 -100 5300 -675 
L 4800 -675 
Q 4825 150 4825 450 
L 4825 2325 
L 3975 2325 
Q 3925 1325 3700 687 
Q 3475 50 2850 -625 
Q 2625 -375 2375 -275 
Q 2950 150 3212 812 
Q 3475 1475 3525 2325 
Q 3250 2325 2825 2300 
L 2825 2800 
Q 3250 2775 3525 2775 
L 3525 4625 
Q 3100 4625 2900 4600 
L 2900 5050 
Q 3250 5025 3625 5025 
L 5125 5025 
z
M 1950 4875 
Q 2325 4875 2575 4900 
L 2575 4450 
Q 2325 4475 1950 4475 
L 1750 4475 
Q 1600 3800 1375 3175 
L 2550 3175 
Q 2525 2750 2525 2375 
L 2525 1225 
Q 2525 825 2550 250 
L 2075 250 
L 2075 750 
L 1375 750 
L 1375 -250 
L 900 -250 
Q 925 500 925 950 
L 925 2425 
Q 775 2200 500 1875 
Q 375 2100 175 2300 
Q 500 2600 687 2875 
Q 875 3150 1037 3562 
Q 1200 3975 1275 4475 
Q 775 4475 500 4450 
L 500 4900 
Q 1050 4875 1350 4875 
L 1950 4875 
z
M 4825 2775 
L 4825 4625 
L 3975 4625 
L 3975 2775 
L 4825 2775 
z
M 2075 1200 
L 2075 2775 
L 1375 2775 
L 1375 1200 
L 2075 1200 
z
" transform="scale(0.015625)"/>
      <path id="SimHei-7a76" d="M 4625 350 
Q 4625 25 4787 0 
Q 4950 -25 5187 -12 
Q 5425 0 5500 125 
Q 5575 250 5600 700 
Q 5850 400 6175 400 
Q 6000 -250 5812 -337 
Q 5625 -425 4975 -437 
Q 4325 -450 4200 -262 
Q 4075 -75 4075 250 
L 4075 1600 
L 3000 1600 
Q 2875 1000 2662 675 
Q 2450 350 2162 100 
Q 1875 -150 1500 -325 
Q 1125 -500 625 -675 
Q 525 -400 225 -100 
Q 800 -25 1175 112 
Q 1550 250 1825 475 
Q 2100 700 2237 987 
Q 2375 1275 2450 1600 
L 1525 1600 
Q 1125 1600 825 1575 
L 825 2025 
Q 1275 2000 1525 2000 
L 2500 2000 
Q 2525 2425 2475 2825 
Q 2825 2775 3125 2750 
Q 3050 2575 3050 2400 
Q 3050 2225 3025 2000 
L 4650 2000 
Q 4625 1725 4625 1450 
L 4625 350 
z
M 5875 4425 
Q 5850 4175 5850 3925 
Q 5850 3675 5875 3400 
L 5300 3400 
L 5300 4025 
L 975 4025 
L 975 3275 
L 425 3275 
Q 450 3575 450 3850 
Q 450 4150 425 4425 
L 2925 4425 
Q 2825 4775 2650 5125 
Q 2950 5200 3200 5275 
Q 3325 4950 3475 4550 
Q 3250 4500 3025 4425 
L 5875 4425 
z
M 3975 3650 
Q 4175 3550 4637 3312 
Q 5100 3075 5850 2625 
Q 5700 2450 5450 2200 
Q 4950 2575 4512 2812 
Q 4075 3050 3650 3275 
Q 3825 3475 3975 3650 
z
M 2650 3275 
Q 2400 3125 1925 2800 
Q 1450 2475 875 2175 
Q 675 2400 500 2600 
Q 875 2725 1362 3012 
Q 1850 3300 2200 3625 
Q 2400 3450 2650 3275 
z
" transform="scale(0.015625)"/>
      <path id="SimHei-5229" d="M 2400 2650 
Q 2950 2150 3500 1525 
Q 3325 1375 3125 1150 
Q 2775 1675 2400 2075 
L 2400 225 
Q 2400 -375 2425 -675 
L 1875 -675 
Q 1900 -350 1900 225 
L 1900 1975 
Q 1625 1450 1375 1100 
Q 1125 750 725 275 
Q 575 525 300 700 
Q 850 1150 1287 1837 
Q 1725 2525 1850 2950 
L 1375 2950 
Q 775 2950 500 2925 
L 500 3400 
Q 800 3375 1375 3375 
L 1900 3375 
L 1900 4350 
Q 1400 4250 825 4150 
Q 750 4400 625 4625 
Q 1050 4650 1800 4800 
Q 2550 4950 3225 5175 
Q 3350 4875 3550 4650 
Q 3050 4575 2400 4450 
L 2400 3375 
L 2825 3375 
Q 3350 3375 3750 3400 
L 3750 2925 
Q 3350 2950 2850 2950 
L 2400 2950 
L 2400 2650 
z
M 5775 5125 
Q 5750 4875 5750 4275 
L 5750 -100 
Q 5750 -400 5512 -487 
Q 5275 -575 4675 -675 
Q 4600 -300 4500 -75 
Q 5025 -100 5137 -50 
Q 5250 0 5250 150 
L 5250 4300 
Q 5250 4650 5225 5125 
L 5775 5125 
z
M 4625 4100 
Q 4600 3800 4600 3300 
L 4600 1725 
Q 4600 1200 4625 825 
L 4075 825 
Q 4100 1275 4100 1725 
L 4100 3300 
Q 4100 3700 4075 4100 
L 4625 4100 
z
" transform="scale(0.015625)"/>
      <path id="SimHei-7387" d="M 3325 5150 
Q 3425 4900 3550 4525 
L 4800 4525 
Q 5250 4525 5800 4550 
L 5800 4125 
Q 5250 4175 4775 4175 
L 2800 4175 
Q 2975 4050 3300 3900 
Q 3075 3750 2875 3537 
Q 2675 3325 2475 3125 
L 3275 3125 
Q 3575 3425 3775 3775 
Q 4000 3600 4275 3425 
Q 3950 3250 3600 2875 
Q 3250 2500 2625 2000 
L 3850 2100 
Q 3725 2250 3600 2425 
Q 3750 2475 4000 2650 
Q 4250 2350 4700 1700 
Q 4475 1625 4225 1450 
Q 4175 1600 4025 1775 
Q 3700 1750 3425 1750 
L 3425 1050 
L 5150 1050 
Q 5675 1050 6100 1075 
L 6100 650 
Q 5700 675 5125 675 
L 3425 675 
L 3425 175 
Q 3425 -300 3450 -625 
L 2900 -625 
Q 2925 -300 2925 175 
L 2925 675 
L 1325 675 
Q 825 675 325 650 
L 325 1075 
Q 825 1050 1350 1050 
L 2925 1050 
L 2925 1700 
Q 2700 1675 2475 1637 
Q 2250 1600 2025 1525 
Q 1950 1775 1850 2000 
Q 2075 2025 2325 2200 
Q 2575 2375 2975 2800 
Q 2300 2725 2025 2625 
Q 1975 2875 1850 3175 
Q 2075 3175 2325 3487 
Q 2575 3800 2750 4175 
L 1700 4175 
Q 1150 4175 650 4125 
L 650 4550 
Q 1150 4525 1550 4525 
L 2975 4525 
Q 2900 4825 2800 5025 
Q 3025 5075 3325 5150 
z
M 1625 2575 
Q 1725 2400 1825 2200 
Q 1575 2050 1325 1862 
Q 1075 1675 800 1425 
Q 625 1675 475 1875 
Q 800 2025 1100 2212 
Q 1400 2400 1625 2575 
z
M 4850 2650 
Q 5125 2475 5337 2337 
Q 5550 2200 5875 1950 
Q 5675 1800 5500 1600 
Q 5300 1775 5062 1975 
Q 4825 2175 4575 2325 
Q 4725 2475 4850 2650 
z
M 5725 3525 
Q 5550 3450 5300 3262 
Q 5050 3075 4800 2825 
Q 4625 3050 4475 3175 
Q 4700 3325 4875 3487 
Q 5050 3650 5300 3925 
Q 5525 3700 5725 3525 
z
M 1050 3850 
Q 1425 3600 1775 3275 
Q 1575 3100 1425 2925 
Q 1075 3300 675 3525 
Q 875 3700 1050 3850 
z
" transform="scale(0.015625)"/>
     </defs>
     <use xlink:href="#SimHei-7814"/>
     <use xlink:href="#SimHei-7a76" transform="translate(100 0)"/>
     <use xlink:href="#SimHei-8d37" transform="translate(200 0)"/>
     <use xlink:href="#SimHei-6b3e" transform="translate(300 0)"/>
     <use xlink:href="#SimHei-5229" transform="translate(400 0)"/>
     <use xlink:href="#SimHei-7387" transform="translate(500 0)"/>
    </g>
    <!-- $R_i$ -->
    <g style="fill: #111111" transform="translate(281.14 138.386041) scale(0.11 -0.11)">
     <defs>
      <path id="DejaVuSans-Oblique-52" d="M 1613 4147 
L 1294 2491 
L 2106 2491 
Q 2584 2491 2879 2755 
Q 3175 3019 3175 3444 
Q 3175 3784 2976 3965 
Q 2778 4147 2406 4147 
L 1613 4147 
z
M 2772 2241 
Q 2972 2194 3105 2009 
Q 3238 1825 3413 1275 
L 3809 0 
L 3144 0 
L 2778 1197 
Q 2638 1659 2453 1815 
Q 2269 1972 1888 1972 
L 1191 1972 
L 806 0 
L 172 0 
L 1081 4666 
L 2503 4666 
Q 3150 4666 3495 4373 
Q 3841 4081 3841 3531 
Q 3841 3044 3547 2687 
Q 3253 2331 2772 2241 
z
" transform="scale(0.015625)"/>
     </defs>
     <use xlink:href="#DejaVuSans-Oblique-52" transform="translate(0 0.09375)"/>
     <use xlink:href="#DejaVuSans-Oblique-69" transform="translate(69.482422 -16.3125) scale(0.7)"/>
    </g>
   </g>
   <g id="text_5">
    <!-- 未贷款企业 -->
    <g style="fill: #111111" transform="translate(147.1 186.893112) scale(0.11 -0.11)">
     <defs>
      <path id="SimHei-672a" d="M 2875 4150 
Q 2875 4900 2850 5225 
L 3400 5225 
Q 3375 4925 3375 4150 
L 4475 4150 
Q 4950 4150 5375 4175 
L 5375 3725 
Q 4950 3750 4475 3750 
L 3375 3750 
L 3375 2750 
L 4850 2750 
Q 5400 2750 5875 2775 
L 5875 2325 
Q 5400 2350 4875 2350 
L 3675 2350 
Q 4125 1675 4662 1187 
Q 5200 700 6175 425 
Q 5850 275 5725 -100 
Q 5050 150 4462 650 
Q 3875 1150 3375 2050 
L 3375 300 
Q 3375 -175 3400 -575 
L 2825 -575 
Q 2875 -175 2875 300 
L 2875 2125 
Q 2275 1150 1700 650 
Q 1125 150 675 -150 
Q 575 75 225 300 
Q 650 450 1312 1000 
Q 1975 1550 2475 2350 
L 1225 2350 
Q 675 2350 375 2325 
L 375 2775 
Q 750 2750 1275 2750 
L 2875 2750 
L 2875 3750 
L 1825 3750 
Q 1225 3750 850 3725 
L 850 4175 
Q 1225 4150 1775 4150 
L 2875 4150 
z
" transform="scale(0.015625)"/>
     </defs>
     <use xlink:href="#SimHei-672a"/>
     <use xlink:href="#SimHei-8d37" transform="translate(100 0)"/>
     <use xlink:href="#SimHei-6b3e" transform="translate(200 0)"/>
     <use xlink:href="#SimHei-4f01" transform="translate(300 0)"/>
     <use xlink:href="#SimHei-4e1a" transform="translate(400 0)"/>
    </g>
    <!-- $R_i$ 不可观测 -->
    <g style="fill: #111111" transform="translate(144.79 198.828112) scale(0.11 -0.11)">
     <defs>
      <path id="SimHei-4e0d" d="M 5975 4450 
Q 5525 4475 5200 4475 
L 3725 4475 
Q 3550 4125 3300 3700 
L 3300 575 
Q 3300 75 3325 -550 
L 2775 -550 
Q 2800 50 2800 575 
L 2800 3025 
Q 2025 1950 700 1050 
Q 500 1350 325 1475 
Q 825 1700 1650 2437 
Q 2475 3175 3175 4475 
L 1525 4475 
Q 1050 4475 525 4450 
L 525 4950 
Q 1275 4925 1675 4925 
L 5175 4925 
Q 5500 4925 5975 4950 
L 5975 4450 
z
M 5450 1125 
Q 4975 1725 3750 2975 
Q 3950 3150 4075 3325 
Q 4675 2775 5100 2362 
Q 5525 1950 5900 1550 
Q 5650 1350 5450 1125 
z
" transform="scale(0.015625)"/>
      <path id="SimHei-53ef" d="M 3600 3500 
Q 3575 3175 3575 2775 
L 3575 1550 
Q 3575 1125 3600 825 
L 3075 825 
L 3075 1275 
L 1650 1275 
L 1650 600 
L 1150 600 
Q 1175 775 1175 1175 
L 1175 2775 
Q 1175 3175 1150 3500 
L 3600 3500 
z
M 5200 4675 
Q 5600 4675 6050 4700 
L 6050 4225 
Q 5650 4250 5225 4250 
L 5075 4250 
L 5075 125 
Q 5075 -325 4812 -462 
Q 4550 -600 3750 -675 
Q 3700 -350 3550 -75 
Q 4075 -100 4300 -50 
Q 4525 0 4525 225 
L 4525 4250 
L 1525 4250 
Q 875 4250 350 4225 
L 350 4700 
Q 875 4675 1500 4675 
L 5200 4675 
z
M 3075 1700 
L 3075 3075 
L 1650 3075 
L 1650 1700 
L 3075 1700 
z
" transform="scale(0.015625)"/>
      <path id="SimHei-89c2" d="M 2600 4750 
Q 2500 3900 2387 3325 
Q 2275 2750 2075 2150 
Q 2425 1625 2800 1000 
Q 2575 825 2350 625 
Q 2100 1200 1800 1675 
Q 1600 1275 1300 912 
Q 1000 550 650 175 
Q 500 375 200 625 
Q 675 950 975 1300 
Q 1275 1650 1500 2100 
Q 1075 2725 625 3200 
Q 850 3375 1025 3525 
Q 1375 3150 1725 2600 
Q 1975 3400 2075 4350 
L 1300 4350 
Q 850 4350 475 4325 
L 475 4775 
Q 825 4750 1275 4750 
L 2600 4750 
z
M 4775 225 
Q 4775 0 4887 -25 
Q 5000 -50 5225 -50 
Q 5475 -50 5537 37 
Q 5600 125 5650 675 
Q 5875 525 6175 450 
Q 6025 -300 5850 -400 
Q 5675 -500 5400 -500 
L 4825 -500 
Q 4525 -500 4425 -325 
Q 4325 -150 4325 50 
L 4325 1600 
Q 4200 1125 3900 687 
Q 3600 250 3187 -87 
Q 2775 -425 2325 -650 
Q 2225 -400 1925 -150 
Q 2625 25 3087 475 
Q 3550 925 3737 1425 
Q 3925 1925 3962 2562 
Q 4000 3200 3975 3875 
Q 4325 3825 4550 3800 
Q 4450 3400 4425 2750 
Q 4400 2100 4325 1700 
L 4825 1700 
Q 4800 1550 4775 1025 
L 4775 225 
z
M 5700 5050 
Q 5675 4650 5675 3350 
Q 5675 2050 5700 1575 
L 5200 1575 
L 5200 4650 
L 3450 4650 
L 3450 1550 
L 2950 1550 
Q 2975 2150 2975 3300 
Q 2975 4475 2950 5050 
L 5700 5050 
z
" transform="scale(0.015625)"/>
      <path id="SimHei-6d4b" d="M 4025 4725 
Q 4000 4475 4000 4000 
L 4000 2225 
Q 4000 1775 4025 1350 
L 3550 1350 
L 3550 4325 
L 2350 4325 
L 2350 1325 
L 1900 1325 
Q 1925 1775 1925 2225 
L 1925 4000 
Q 1925 4200 1900 4725 
L 4025 4725 
z
M 5900 5075 
Q 5875 4800 5875 4375 
L 5875 0 
Q 5875 -325 5650 -425 
Q 5425 -525 4975 -600 
Q 4925 -325 4775 -50 
Q 5125 -50 5262 -25 
Q 5400 0 5400 250 
L 5400 4375 
Q 5400 4775 5375 5075 
L 5900 5075 
z
M 3275 3725 
Q 3225 3400 3200 2325 
Q 3175 1250 2837 550 
Q 2500 -150 2075 -600 
Q 1850 -400 1600 -325 
Q 2200 250 2475 962 
Q 2750 1675 2762 2475 
Q 2775 3275 2725 3800 
Q 3000 3750 3275 3725 
z
M 4950 4275 
Q 4925 4000 4925 3575 
L 4925 1825 
Q 4925 1300 4950 850 
L 4450 850 
Q 4475 1150 4475 1825 
L 4475 3575 
Q 4475 4000 4450 4275 
L 4950 4275 
z
M 1700 1675 
Q 1375 1075 1112 487 
Q 850 -100 725 -400 
Q 500 -200 200 -25 
Q 475 300 762 850 
Q 1050 1400 1250 2000 
Q 1475 1825 1700 1675 
z
M 3400 1050 
Q 3800 650 4300 -125 
Q 4100 -225 3875 -450 
Q 3475 275 3025 750 
Q 3225 875 3400 1050 
z
M 600 3525 
Q 1125 3125 1500 2775 
Q 1300 2575 1150 2375 
Q 825 2775 300 3150 
Q 450 3300 600 3525 
z
M 1350 4000 
Q 950 4375 475 4675 
Q 625 4850 775 5050 
Q 1300 4700 1675 4375 
Q 1500 4250 1350 4000 
z
" transform="scale(0.015625)"/>
     </defs>
     <use xlink:href="#DejaVuSans-Oblique-52" transform="translate(0 0.703125)"/>
     <use xlink:href="#DejaVuSans-Oblique-69" transform="translate(69.482422 -15.703125) scale(0.7)"/>
     <use xlink:href="#SimHei-20" transform="translate(91.665039 0.703125)"/>
     <use xlink:href="#SimHei-4e0d" transform="translate(141.665039 0.703125)"/>
     <use xlink:href="#SimHei-53ef" transform="translate(241.665039 0.703125)"/>
     <use xlink:href="#SimHei-89c2" transform="translate(341.665039 0.703125)"/>
     <use xlink:href="#SimHei-6d4b" transform="translate(441.665039 0.703125)"/>
    </g>
   </g>
   <g id="text_6">
    <!-- 贷款企业 -->
    <g style="fill: #111111" transform="translate(375.8 186.827112) scale(0.11 -0.11)">
     <use xlink:href="#SimHei-8d37"/>
     <use xlink:href="#SimHei-6b3e" transform="translate(100 0)"/>
     <use xlink:href="#SimHei-4f01" transform="translate(200 0)"/>
     <use xlink:href="#SimHei-4e1a" transform="translate(300 0)"/>
    </g>
    <!-- 观测到 $R_i$ -->
    <g style="fill: #111111" transform="translate(373.49 198.894112) scale(0.11 -0.11)">
     <defs>
      <path id="SimHei-5230" d="M 3675 150 
Q 2275 -50 1537 -175 
Q 800 -300 500 -400 
Q 425 -75 325 225 
Q 775 250 1062 275 
Q 1350 300 1750 350 
L 1750 1325 
L 1400 1325 
Q 900 1325 550 1275 
L 550 1750 
Q 975 1725 1325 1725 
L 1750 1725 
L 1750 2550 
Q 1250 2525 1037 2500 
Q 825 2475 575 2425 
Q 525 2750 425 3000 
Q 825 3100 1137 3500 
Q 1450 3900 1625 4400 
L 1250 4400 
Q 825 4400 450 4375 
L 450 4850 
Q 850 4825 1225 4825 
L 2825 4825 
Q 3275 4825 3625 4850 
L 3625 4375 
Q 3250 4400 2825 4400 
L 1800 4400 
L 2250 4100 
Q 2000 3900 1775 3600 
Q 1550 3300 1250 2950 
Q 2150 3000 2925 3050 
Q 2725 3375 2475 3700 
Q 2725 3825 2925 3975 
Q 3175 3625 3400 3300 
Q 3625 2975 3825 2700 
Q 3600 2525 3325 2375 
Q 3225 2550 3150 2675 
Q 2625 2600 2275 2575 
L 2275 1725 
L 2750 1725 
Q 3175 1725 3475 1750 
L 3475 1275 
Q 3150 1325 2775 1325 
L 2275 1325 
L 2275 400 
Q 2975 500 3750 625 
Q 3700 375 3675 150 
z
M 5875 5175 
Q 5825 4800 5825 4325 
L 5825 225 
Q 5825 -350 5612 -450 
Q 5400 -550 4700 -675 
Q 4625 -350 4475 -75 
Q 5000 -75 5162 -37 
Q 5325 0 5325 375 
L 5325 4325 
Q 5325 4875 5300 5175 
L 5875 5175 
z
M 4600 4375 
Q 4550 4050 4550 3475 
L 4550 1600 
Q 4550 1075 4575 725 
L 4050 725 
Q 4075 1075 4075 1600 
L 4075 3575 
Q 4075 4075 4050 4375 
L 4600 4375 
z
" transform="scale(0.015625)"/>
     </defs>
     <use xlink:href="#SimHei-89c2" transform="translate(0 0.140625)"/>
     <use xlink:href="#SimHei-6d4b" transform="translate(100 0.140625)"/>
     <use xlink:href="#SimHei-5230" transform="translate(200 0.140625)"/>
     <use xlink:href="#SimHei-20" transform="translate(300 0.140625)"/>
     <use xlink:href="#DejaVuSans-Oblique-52" transform="translate(350 0.140625)"/>
     <use xlink:href="#DejaVuSans-Oblique-69" transform="translate(419.482422 -16.265625) scale(0.7)"/>
    </g>
   </g>
   <g id="text_7">
    <!-- Heckman selection -->
    <g style="fill: #111111" transform="translate(239.45 242.218011) scale(0.11 -0.11)">
     <defs>
      <path id="SimHei-48" d="M 2850 125 
L 2275 125 
L 2275 2125 
L 850 2125 
L 850 125 
L 275 125 
L 275 4400 
L 850 4400 
L 850 2600 
L 2275 2600 
L 2275 4400 
L 2850 4400 
L 2850 125 
z
" transform="scale(0.015625)"/>
      <path id="SimHei-6b" d="M 2925 125 
L 2350 125 
L 1450 1650 
L 875 1100 
L 875 125 
L 375 125 
L 375 4400 
L 875 4400 
L 875 1675 
L 2125 2925 
L 2750 2925 
L 1775 1975 
L 2925 125 
z
" transform="scale(0.015625)"/>
      <path id="SimHei-6e" d="M 2800 125 
L 2300 125 
L 2300 1925 
Q 2300 2225 2150 2400 
Q 2000 2575 1750 2575 
Q 1425 2575 1137 2237 
Q 850 1900 850 1400 
L 850 125 
L 350 125 
L 350 2925 
L 850 2925 
L 850 2400 
Q 1050 2675 1287 2825 
Q 1525 2975 1900 2975 
Q 2350 2975 2575 2725 
Q 2800 2475 2800 2100 
L 2800 125 
z
" transform="scale(0.015625)"/>
      <path id="SimHei-73" d="M 2750 900 
Q 2750 500 2437 287 
Q 2125 75 1650 75 
Q 1050 75 725 312 
Q 400 550 400 1000 
L 900 1000 
Q 900 700 1112 600 
Q 1325 500 1625 500 
Q 1925 500 2075 612 
Q 2225 725 2225 900 
Q 2225 1025 2100 1150 
Q 1975 1275 1475 1350 
Q 900 1425 687 1637 
Q 475 1850 475 2200 
Q 475 2500 762 2737 
Q 1050 2975 1600 2975 
Q 2100 2975 2387 2750 
Q 2675 2525 2675 2150 
L 2175 2150 
Q 2175 2375 2012 2462 
Q 1850 2550 1600 2550 
Q 1275 2550 1137 2437 
Q 1000 2325 1000 2175 
Q 1000 2000 1125 1900 
Q 1250 1800 1650 1750 
Q 2300 1650 2525 1437 
Q 2750 1225 2750 900 
z
" transform="scale(0.015625)"/>
      <path id="SimHei-6c" d="M 1825 125 
L 1325 125 
L 1325 4400 
L 1825 4400 
L 1825 125 
z
" transform="scale(0.015625)"/>
      <path id="SimHei-6f" d="M 2925 1525 
Q 2925 875 2525 475 
Q 2125 75 1575 75 
Q 1025 75 625 475 
Q 225 875 225 1525 
Q 225 2175 625 2575 
Q 1025 2975 1575 2975 
Q 2125 2975 2525 2575 
Q 2925 2175 2925 1525 
z
M 2375 1525 
Q 2375 2025 2125 2275 
Q 1875 2525 1575 2525 
Q 1275 2525 1025 2275 
Q 775 2025 775 1525 
Q 775 1025 1025 775 
Q 1275 525 1575 525 
Q 1875 525 2125 775 
Q 2375 1025 2375 1525 
z
" transform="scale(0.015625)"/>
     </defs>
     <use xlink:href="#SimHei-48"/>
     <use xlink:href="#SimHei-65" transform="translate(50 0)"/>
     <use xlink:href="#SimHei-63" transform="translate(100 0)"/>
     <use xlink:href="#SimHei-6b" transform="translate(150 0)"/>
     <use xlink:href="#SimHei-6d" transform="translate(200 0)"/>
     <use xlink:href="#SimHei-61" transform="translate(250 0)"/>
     <use xlink:href="#SimHei-6e" transform="translate(300 0)"/>
     <use xlink:href="#SimHei-20" transform="translate(350 0)"/>
     <use xlink:href="#SimHei-73" transform="translate(400 0)"/>
     <use xlink:href="#SimHei-65" transform="translate(450 0)"/>
     <use xlink:href="#SimHei-6c" transform="translate(500 0)"/>
     <use xlink:href="#SimHei-65" transform="translate(550 0)"/>
     <use xlink:href="#SimHei-63" transform="translate(600 0)"/>
     <use xlink:href="#SimHei-74" transform="translate(650 0)"/>
     <use xlink:href="#SimHei-69" transform="translate(700 0)"/>
     <use xlink:href="#SimHei-6f" transform="translate(750 0)"/>
     <use xlink:href="#SimHei-6e" transform="translate(800 0)"/>
    </g>
    <!-- 修正选择性观测 -->
    <g style="fill: #111111" transform="translate(247.7 254.266449) scale(0.11 -0.11)">
     <defs>
      <path id="SimHei-4fee" d="M 4150 5075 
Q 3925 4850 3825 4575 
L 5600 4575 
Q 5425 4225 5225 3887 
Q 5025 3550 4725 3250 
Q 5475 2775 6200 2800 
Q 6000 2625 5925 2300 
Q 5050 2450 4400 2950 
Q 3450 2350 2750 2150 
Q 2650 2375 2375 2600 
Q 3150 2725 4050 3250 
Q 3725 3500 3450 3900 
Q 3225 3525 2925 3125 
Q 2750 3275 2525 3375 
Q 2900 3775 3200 4375 
Q 3500 4975 3550 5300 
Q 3800 5175 4150 5075 
z
M 2000 5000 
Q 1825 4875 1475 3825 
L 1475 600 
Q 1475 -200 1500 -550 
L 1025 -550 
Q 1050 -50 1050 525 
L 1050 3125 
Q 925 2800 600 2300 
Q 500 2425 225 2650 
Q 450 2875 862 3700 
Q 1275 4525 1425 5225 
Q 1600 5125 2000 5000 
z
M 6100 700 
Q 5800 575 4950 125 
Q 4100 -325 2775 -675 
Q 2700 -425 2425 -225 
Q 3550 50 4387 400 
Q 5225 750 5675 1125 
Q 5925 825 6100 700 
z
M 2325 3950 
Q 2300 3675 2300 3325 
L 2300 1200 
Q 2300 875 2325 625 
L 1850 625 
Q 1875 900 1875 1200 
L 1875 3325 
Q 1875 3650 1850 3950 
L 2325 3950 
z
M 5425 1525 
Q 4775 1100 4175 775 
Q 3575 450 3250 275 
Q 3000 600 2825 700 
Q 3250 800 3875 1112 
Q 4500 1425 4975 1900 
Q 5275 1625 5425 1525 
z
M 4825 2200 
Q 4400 1975 3250 1325 
Q 3125 1525 2900 1725 
Q 4100 2175 4425 2575 
Q 4650 2325 4825 2200 
z
M 4400 3500 
Q 4675 3825 4900 4200 
L 3725 4200 
Q 4100 3700 4400 3500 
z
" transform="scale(0.015625)"/>
      <path id="SimHei-6b63" d="M 4825 4625 
Q 5300 4625 5675 4650 
L 5675 4150 
Q 5300 4175 4775 4175 
L 3575 4175 
L 3575 2600 
L 4850 2600 
Q 5250 2600 5550 2625 
L 5550 2150 
Q 5250 2175 4850 2175 
L 3575 2175 
L 3575 150 
L 4850 150 
Q 5375 150 5900 175 
L 5900 -325 
Q 5375 -300 4975 -300 
L 1175 -300 
Q 700 -300 375 -325 
L 375 175 
Q 700 150 1175 150 
L 1325 150 
L 1325 2350 
Q 1325 2800 1300 3125 
L 1875 3125 
Q 1850 2825 1850 2350 
L 1850 150 
L 3075 150 
L 3075 4175 
L 1625 4175 
Q 1150 4175 800 4150 
L 800 4650 
Q 1150 4625 1625 4625 
L 4825 4625 
z
" transform="scale(0.015625)"/>
      <path id="SimHei-9009" d="M 3200 4850 
Q 3025 4575 2900 4225 
L 3725 4225 
Q 3725 4725 3700 5175 
L 4275 5175 
Q 4225 4825 4225 4225 
Q 5100 4250 5475 4250 
L 5475 3825 
Q 5050 3850 4225 3850 
L 4225 2975 
L 5075 2975 
Q 5450 2975 5825 3000 
L 5825 2550 
Q 5450 2575 4675 2575 
L 4675 1200 
Q 4675 950 4950 950 
L 5250 950 
Q 5425 1050 5450 1525 
Q 5700 1375 5975 1325 
Q 5825 475 5450 475 
L 4775 475 
Q 4200 475 4200 1000 
L 4200 2575 
L 3700 2575 
Q 3700 1825 3425 1300 
Q 3150 775 2675 325 
Q 2500 500 2175 600 
Q 2800 1050 3012 1487 
Q 3225 1925 3225 2575 
Q 2475 2575 2100 2550 
L 2100 3025 
Q 2500 2975 2800 2975 
L 3725 2975 
L 3725 3850 
L 2775 3850 
Q 2650 3550 2575 3275 
Q 2300 3375 2075 3450 
Q 2450 4100 2625 5000 
Q 2875 4925 3200 4850 
z
M 1675 2875 
Q 1650 2350 1650 1925 
L 1650 575 
Q 2300 50 3725 0 
Q 5150 -50 6125 125 
Q 6000 0 5875 -450 
Q 4325 -475 3637 -425 
Q 2950 -375 2475 -237 
Q 2000 -100 1725 75 
Q 1450 250 1250 37 
Q 1050 -175 800 -500 
Q 625 -300 350 -175 
Q 625 125 1175 525 
L 1175 2475 
Q 800 2475 375 2450 
L 375 2900 
Q 850 2875 1675 2875 
z
M 1300 4850 
Q 1625 4100 1750 3725 
Q 1525 3650 1300 3550 
Q 1200 3850 800 4675 
Q 1025 4750 1300 4850 
z
" transform="scale(0.015625)"/>
      <path id="SimHei-62e9" d="M 2675 5050 
Q 3025 5050 3525 5025 
L 5675 5025 
Q 5400 4475 5187 4150 
Q 4975 3825 4500 3375 
Q 4825 3175 5187 3100 
Q 5550 3025 6150 2975 
Q 5900 2700 5850 2450 
Q 5225 2575 4850 2712 
Q 4475 2850 4125 3100 
Q 3750 2875 3425 2737 
Q 3100 2600 2575 2450 
Q 2525 2650 2225 2875 
Q 2675 2950 3025 3050 
Q 3375 3150 3725 3375 
Q 3175 3950 2975 4625 
L 2675 4625 
L 2675 5050 
z
M 2125 2825 
Q 2125 2600 2150 2350 
Q 1875 2250 1625 2125 
L 1625 175 
Q 1575 -250 1350 -337 
Q 1125 -425 625 -500 
Q 600 -200 500 175 
Q 1100 125 1125 250 
L 1125 1925 
Q 625 1675 450 1550 
Q 350 1850 200 2125 
Q 450 2175 1125 2400 
L 1125 3600 
Q 675 3600 350 3575 
L 350 4050 
Q 650 4025 1125 4025 
Q 1125 4575 1100 5225 
L 1650 5225 
Q 1625 4625 1625 4025 
Q 1900 4025 2350 4050 
L 2350 3575 
Q 1950 3600 1625 3600 
L 1625 2600 
Q 1875 2700 2125 2825 
z
M 3825 2025 
Q 3825 2325 3775 2650 
L 4350 2650 
Q 4325 2325 4325 2025 
Q 4950 2025 5525 2050 
L 5525 1600 
Q 4850 1625 4325 1625 
L 4325 875 
Q 5125 875 6000 900 
L 6000 450 
Q 5300 475 4325 475 
Q 4325 -400 4350 -675 
L 3775 -675 
Q 3825 -400 3825 475 
Q 2450 475 2075 450 
L 2075 900 
Q 2475 875 3825 875 
L 3825 1625 
Q 2900 1625 2575 1600 
L 2575 2050 
Q 3000 2025 3825 2025 
z
M 3425 4625 
Q 3725 3875 4125 3625 
Q 4325 3775 4537 4012 
Q 4750 4250 4950 4625 
L 3425 4625 
z
" transform="scale(0.015625)"/>
      <path id="SimHei-6027" d="M 3450 4525 
Q 3325 4075 3275 3750 
L 4050 3750 
L 4050 4275 
Q 4050 4700 4025 5100 
L 4550 5100 
Q 4525 4700 4525 4275 
L 4525 3750 
L 5025 3750 
Q 5350 3750 5800 3775 
L 5800 3300 
Q 5350 3325 5025 3325 
L 4525 3325 
L 4525 2000 
L 4975 2000 
Q 5350 2000 5725 2025 
L 5725 1550 
Q 5350 1575 4975 1575 
L 4525 1575 
L 4525 25 
L 5200 25 
Q 5625 25 6025 50 
L 6025 -400 
Q 5625 -375 5200 -375 
L 3275 -375 
Q 2825 -375 2400 -400 
L 2400 50 
Q 2825 25 3250 25 
L 4050 25 
L 4050 1575 
L 3625 1575 
Q 3300 1575 2875 1550 
L 2875 2025 
Q 3200 2000 3625 2000 
L 4050 2000 
L 4050 3325 
L 3175 3325 
Q 3100 2950 2775 2225 
Q 2500 2375 2325 2400 
Q 2675 3125 2775 3650 
Q 2875 4175 2950 4650 
Q 3200 4575 3450 4525 
z
M 1700 5150 
Q 1675 4650 1675 4175 
L 1675 425 
Q 1675 -100 1700 -625 
L 1175 -625 
Q 1200 -100 1200 425 
L 1200 4175 
Q 1200 4700 1175 5150 
L 1700 5150 
z
M 975 3725 
Q 825 2675 700 2150 
Q 450 2200 250 2250 
Q 425 2900 525 3800 
Q 725 3775 975 3725 
z
M 2125 4025 
Q 2325 3625 2525 3000 
Q 2300 2925 2125 2825 
Q 1950 3375 1750 3850 
Q 1950 3950 2125 4025 
z
" transform="scale(0.015625)"/>
     </defs>
     <use xlink:href="#SimHei-4fee"/>
     <use xlink:href="#SimHei-6b63" transform="translate(100 0)"/>
     <use xlink:href="#SimHei-9009" transform="translate(200 0)"/>
     <use xlink:href="#SimHei-62e9" transform="translate(300 0)"/>
     <use xlink:href="#SimHei-6027" transform="translate(400 0)"/>
     <use xlink:href="#SimHei-89c2" transform="translate(500 0)"/>
     <use xlink:href="#SimHei-6d4b" transform="translate(600 0)"/>
    </g>
   </g>
  </g>
 </g>
 <defs>
  <clipPath id="pb326aedb36">
   <rect x="7.2" y="7.2" width="558" height="321.552"/>
  </clipPath>
 </defs>
</svg>
