<?xml version="1.0" encoding="utf-8" standalone="no"?>
<!DOCTYPE svg PUBLIC "-//W3C//DTD SVG 1.1//EN"
  "http://www.w3.org/Graphics/SVG/1.1/DTD/svg11.dtd">
<svg xmlns:xlink="http://www.w3.org/1999/xlink" width="421.84pt" height="284.430937pt" viewBox="0 0 421.84 284.430937" xmlns="http://www.w3.org/2000/svg" version="1.1">
 <metadata>
  <rdf:RDF xmlns:dc="http://purl.org/dc/elements/1.1/" xmlns:cc="http://creativecommons.org/ns#" xmlns:rdf="http://www.w3.org/1999/02/22-rdf-syntax-ns#">
   <cc:Work>
    <dc:type rdf:resource="http://purl.org/dc/dcmitype/StillImage"/>
    <dc:date>2026-04-30T01:29:34.446112</dc:date>
    <dc:format>image/svg+xml</dc:format>
    <dc:creator>
     <cc:Agent>
      <dc:title>Matplotlib v3.10.8, https://matplotlib.org/</dc:title>
     </cc:Agent>
    </dc:creator>
   </cc:Work>
  </rdf:RDF>
 </metadata>
 <defs>
  <style type="text/css">*{stroke-linejoin: round; stroke-linecap: butt}</style>
 </defs>
 <g id="figure_1">
  <g id="patch_1">
   <path d="M 0 284.430937 
L 421.84 284.430937 
L 421.84 0 
L 0 0 
z
" style="fill: #ffffff"/>
  </g>
  <g id="axes_1">
   <g id="patch_2">
    <path d="M 46.36 245.633437 
L 414.64 245.633437 
L 414.64 23.873437 
L 46.36 23.873437 
z
" style="fill: #ffffff"/>
   </g>
   <g id="matplotlib.axis_1">
    <g id="xtick_1">
     <g id="line2d_1">
      <path d="M 63.1 245.633437 
L 63.1 23.873437 
" clip-path="url(#p301a6ac896)" style="fill: none; stroke: #b0b0b0; stroke-opacity: 0.22; stroke-width: 0.8; stroke-linecap: square"/>
     </g>
     <g id="line2d_2">
      <defs>
       <path id="m396e7d15a1" d="M 0 0 
L 0 3.5 
" style="stroke: #000000; stroke-width: 0.8"/>
      </defs>
      <g>
       <use xlink:href="#m396e7d15a1" x="63.1" y="245.633437" style="stroke: #000000; stroke-width: 0.8"/>
      </g>
     </g>
     <g id="text_1">
      <!-- -3 -->
      <g transform="translate(57.6 260.195937) scale(0.11 -0.11)">
       <defs>
        <path id="SimHei-2d" d="M 2975 2125 
L 125 2125 
L 125 2525 
L 2975 2525 
L 2975 2125 
z
" transform="scale(0.015625)"/>
        <path id="SimHei-33" d="M 250 1225 
L 700 1300 
Q 800 975 1025 762 
Q 1250 550 1587 562 
Q 1925 575 2125 837 
Q 2325 1100 2300 1437 
Q 2275 1775 2037 1962 
Q 1800 2150 1275 2225 
L 1275 2550 
Q 1800 2600 2037 2825 
Q 2275 3050 2250 3412 
Q 2225 3775 1925 3937 
Q 1625 4100 1287 3975 
Q 950 3850 750 3275 
L 300 3350 
Q 450 3800 712 4100 
Q 975 4400 1425 4450 
Q 1875 4500 2212 4337 
Q 2550 4175 2687 3837 
Q 2825 3500 2725 3100 
Q 2625 2700 2150 2400 
Q 2500 2250 2687 1950 
Q 2875 1650 2812 1162 
Q 2750 675 2375 375 
Q 2000 75 1525 87 
Q 1050 100 700 387 
Q 350 675 250 1225 
z
" transform="scale(0.015625)"/>
       </defs>
       <use xlink:href="#SimHei-2d"/>
       <use xlink:href="#SimHei-33" transform="translate(50 0)"/>
      </g>
     </g>
    </g>
    <g id="xtick_2">
     <g id="line2d_3">
      <path d="M 118.9 245.633437 
L 118.9 23.873437 
" clip-path="url(#p301a6ac896)" style="fill: none; stroke: #b0b0b0; stroke-opacity: 0.22; stroke-width: 0.8; stroke-linecap: square"/>
     </g>
     <g id="line2d_4">
      <g>
       <use xlink:href="#m396e7d15a1" x="118.9" y="245.633437" style="stroke: #000000; stroke-width: 0.8"/>
      </g>
     </g>
     <g id="text_2">
      <!-- -2 -->
      <g transform="translate(113.4 260.195937) scale(0.11 -0.11)">
       <defs>
        <path id="SimHei-32" d="M 300 250 
Q 325 625 650 925 
Q 975 1225 1475 1862 
Q 1975 2500 2125 2850 
Q 2275 3200 2237 3450 
Q 2200 3700 2000 3862 
Q 1800 4025 1537 4000 
Q 1275 3975 1037 3800 
Q 800 3625 675 3275 
L 200 3350 
Q 400 3925 712 4187 
Q 1025 4450 1450 4475 
Q 1700 4500 1900 4462 
Q 2100 4425 2312 4287 
Q 2525 4150 2662 3875 
Q 2800 3600 2762 3212 
Q 2725 2825 2375 2287 
Q 2025 1750 1025 600 
L 2825 600 
L 2825 150 
L 300 150 
L 300 250 
z
" transform="scale(0.015625)"/>
       </defs>
       <use xlink:href="#SimHei-2d"/>
       <use xlink:href="#SimHei-32" transform="translate(50 0)"/>
      </g>
     </g>
    </g>
    <g id="xtick_3">
     <g id="line2d_5">
      <path d="M 174.7 245.633437 
L 174.7 23.873437 
" clip-path="url(#p301a6ac896)" style="fill: none; stroke: #b0b0b0; stroke-opacity: 0.22; stroke-width: 0.8; stroke-linecap: square"/>
     </g>
     <g id="line2d_6">
      <g>
       <use xlink:href="#m396e7d15a1" x="174.7" y="245.633437" style="stroke: #000000; stroke-width: 0.8"/>
      </g>
     </g>
     <g id="text_3">
      <!-- -1 -->
      <g transform="translate(169.2 260.195937) scale(0.11 -0.11)">
       <defs>
        <path id="SimHei-31" d="M 1400 3600 
Q 1075 3275 575 2975 
L 575 3450 
Q 1200 3875 1600 4450 
L 1900 4450 
L 1900 150 
L 1400 150 
L 1400 3600 
z
" transform="scale(0.015625)"/>
       </defs>
       <use xlink:href="#SimHei-2d"/>
       <use xlink:href="#SimHei-31" transform="translate(50 0)"/>
      </g>
     </g>
    </g>
    <g id="xtick_4">
     <g id="line2d_7">
      <path d="M 230.5 245.633437 
L 230.5 23.873437 
" clip-path="url(#p301a6ac896)" style="fill: none; stroke: #b0b0b0; stroke-opacity: 0.22; stroke-width: 0.8; stroke-linecap: square"/>
     </g>
     <g id="line2d_8">
      <g>
       <use xlink:href="#m396e7d15a1" x="230.5" y="245.633437" style="stroke: #000000; stroke-width: 0.8"/>
      </g>
     </g>
     <g id="text_4">
      <!-- 0 -->
      <g transform="translate(227.75 260.195937) scale(0.11 -0.11)">
       <defs>
        <path id="SimHei-30" d="M 225 2537 
Q 250 3200 412 3587 
Q 575 3975 875 4225 
Q 1175 4475 1612 4475 
Q 2050 4475 2375 4112 
Q 2700 3750 2800 3200 
Q 2900 2650 2862 1937 
Q 2825 1225 2612 775 
Q 2400 325 1975 150 
Q 1550 -25 1125 187 
Q 700 400 525 750 
Q 350 1100 275 1487 
Q 200 1875 225 2537 
z
M 750 2687 
Q 675 2000 800 1462 
Q 925 925 1212 700 
Q 1500 475 1800 612 
Q 2100 750 2237 1162 
Q 2375 1575 2375 2062 
Q 2375 2550 2337 2950 
Q 2300 3350 2112 3675 
Q 1925 4000 1612 4012 
Q 1300 4025 1062 3700 
Q 825 3375 750 2687 
z
" transform="scale(0.015625)"/>
       </defs>
       <use xlink:href="#SimHei-30"/>
      </g>
     </g>
    </g>
    <g id="xtick_5">
     <g id="line2d_9">
      <path d="M 286.3 245.633437 
L 286.3 23.873437 
" clip-path="url(#p301a6ac896)" style="fill: none; stroke: #b0b0b0; stroke-opacity: 0.22; stroke-width: 0.8; stroke-linecap: square"/>
     </g>
     <g id="line2d_10">
      <g>
       <use xlink:href="#m396e7d15a1" x="286.3" y="245.633437" style="stroke: #000000; stroke-width: 0.8"/>
      </g>
     </g>
     <g id="text_5">
      <!-- 1 -->
      <g transform="translate(283.55 260.195937) scale(0.11 -0.11)">
       <use xlink:href="#SimHei-31"/>
      </g>
     </g>
    </g>
    <g id="xtick_6">
     <g id="line2d_11">
      <path d="M 342.1 245.633437 
L 342.1 23.873437 
" clip-path="url(#p301a6ac896)" style="fill: none; stroke: #b0b0b0; stroke-opacity: 0.22; stroke-width: 0.8; stroke-linecap: square"/>
     </g>
     <g id="line2d_12">
      <g>
       <use xlink:href="#m396e7d15a1" x="342.1" y="245.633437" style="stroke: #000000; stroke-width: 0.8"/>
      </g>
     </g>
     <g id="text_6">
      <!-- 2 -->
      <g transform="translate(339.35 260.195937) scale(0.11 -0.11)">
       <use xlink:href="#SimHei-32"/>
      </g>
     </g>
    </g>
    <g id="xtick_7">
     <g id="line2d_13">
      <path d="M 397.9 245.633437 
L 397.9 23.873437 
" clip-path="url(#p301a6ac896)" style="fill: none; stroke: #b0b0b0; stroke-opacity: 0.22; stroke-width: 0.8; stroke-linecap: square"/>
     </g>
     <g id="line2d_14">
      <g>
       <use xlink:href="#m396e7d15a1" x="397.9" y="245.633437" style="stroke: #000000; stroke-width: 0.8"/>
      </g>
     </g>
     <g id="text_7">
      <!-- 3 -->
      <g transform="translate(395.15 260.195937) scale(0.11 -0.11)">
       <use xlink:href="#SimHei-33"/>
      </g>
     </g>
    </g>
    <g id="text_8">
     <!-- selection index $z_i'\gamma$ -->
     <g transform="translate(178.855 274.150937) scale(0.11 -0.11)">
      <defs>
       <path id="SimHei-73" d="M 2750 900 
Q 2750 500 2437 287 
Q 2125 75 1650 75 
Q 1050 75 725 312 
Q 400 550 400 1000 
L 900 1000 
Q 900 700 1112 600 
Q 1325 500 1625 500 
Q 1925 500 2075 612 
Q 2225 725 2225 900 
Q 2225 1025 2100 1150 
Q 1975 1275 1475 1350 
Q 900 1425 687 1637 
Q 475 1850 475 2200 
Q 475 2500 762 2737 
Q 1050 2975 1600 2975 
Q 2100 2975 2387 2750 
Q 2675 2525 2675 2150 
L 2175 2150 
Q 2175 2375 2012 2462 
Q 1850 2550 1600 2550 
Q 1275 2550 1137 2437 
Q 1000 2325 1000 2175 
Q 1000 2000 1125 1900 
Q 1250 1800 1650 1750 
Q 2300 1650 2525 1437 
Q 2750 1225 2750 900 
z
" transform="scale(0.015625)"/>
       <path id="SimHei-65" d="M 2850 1075 
Q 2800 625 2450 350 
Q 2100 75 1625 75 
Q 1025 75 637 462 
Q 250 850 250 1525 
Q 250 2200 637 2587 
Q 1025 2975 1625 2975 
Q 2150 2975 2487 2637 
Q 2825 2300 2825 1525 
L 800 1525 
Q 800 975 1037 750 
Q 1275 525 1625 525 
Q 1900 525 2075 662 
Q 2250 800 2300 1075 
L 2850 1075 
z
M 2250 1925 
Q 2200 2275 2025 2412 
Q 1850 2550 1575 2550 
Q 1325 2550 1125 2412 
Q 925 2275 825 1925 
L 2250 1925 
z
" transform="scale(0.015625)"/>
       <path id="SimHei-6c" d="M 1825 125 
L 1325 125 
L 1325 4400 
L 1825 4400 
L 1825 125 
z
" transform="scale(0.015625)"/>
       <path id="SimHei-63" d="M 2850 1250 
Q 2850 725 2487 400 
Q 2125 75 1575 75 
Q 1025 75 625 462 
Q 225 850 225 1525 
Q 225 2200 625 2587 
Q 1025 2975 1575 2975 
Q 2125 2975 2450 2687 
Q 2775 2400 2775 2000 
L 2225 2000 
Q 2200 2300 2012 2412 
Q 1825 2525 1575 2525 
Q 1275 2525 1025 2287 
Q 775 2050 775 1525 
Q 775 1000 1025 762 
Q 1275 525 1575 525 
Q 1900 525 2100 700 
Q 2300 875 2300 1250 
L 2850 1250 
z
" transform="scale(0.015625)"/>
       <path id="SimHei-74" d="M 2750 200 
Q 2625 150 2462 112 
Q 2300 75 2025 75 
Q 1575 75 1300 325 
Q 1025 575 1025 1025 
L 1025 2525 
L 175 2525 
L 175 2925 
L 1025 2925 
L 1025 3900 
L 1525 3900 
L 1525 2925 
L 2550 2925 
L 2550 2525 
L 1525 2525 
L 1525 1000 
Q 1525 800 1625 662 
Q 1725 525 2000 525 
Q 2275 525 2450 575 
Q 2625 625 2750 700 
L 2750 200 
z
" transform="scale(0.015625)"/>
       <path id="SimHei-69" d="M 1800 3725 
L 1300 3725 
L 1300 4375 
L 1800 4375 
L 1800 3725 
z
M 1800 125 
L 1300 125 
L 1300 2925 
L 1800 2925 
L 1800 125 
z
" transform="scale(0.015625)"/>
       <path id="SimHei-6f" d="M 2925 1525 
Q 2925 875 2525 475 
Q 2125 75 1575 75 
Q 1025 75 625 475 
Q 225 875 225 1525 
Q 225 2175 625 2575 
Q 1025 2975 1575 2975 
Q 2125 2975 2525 2575 
Q 2925 2175 2925 1525 
z
M 2375 1525 
Q 2375 2025 2125 2275 
Q 1875 2525 1575 2525 
Q 1275 2525 1025 2275 
Q 775 2025 775 1525 
Q 775 1025 1025 775 
Q 1275 525 1575 525 
Q 1875 525 2125 775 
Q 2375 1025 2375 1525 
z
" transform="scale(0.015625)"/>
       <path id="SimHei-6e" d="M 2800 125 
L 2300 125 
L 2300 1925 
Q 2300 2225 2150 2400 
Q 2000 2575 1750 2575 
Q 1425 2575 1137 2237 
Q 850 1900 850 1400 
L 850 125 
L 350 125 
L 350 2925 
L 850 2925 
L 850 2400 
Q 1050 2675 1287 2825 
Q 1525 2975 1900 2975 
Q 2350 2975 2575 2725 
Q 2800 2475 2800 2100 
L 2800 125 
z
" transform="scale(0.015625)"/>
       <path id="SimHei-20" transform="scale(0.015625)"/>
       <path id="SimHei-64" d="M 2750 125 
L 2250 125 
L 2250 500 
Q 2100 275 1900 175 
Q 1700 75 1425 75 
Q 925 75 575 437 
Q 225 800 225 1525 
Q 225 2250 575 2625 
Q 925 3000 1425 3000 
Q 1700 3000 1900 2887 
Q 2100 2775 2250 2550 
L 2250 4400 
L 2750 4400 
L 2750 125 
z
M 2250 1525 
Q 2250 2000 2037 2275 
Q 1825 2550 1525 2550 
Q 1150 2550 962 2275 
Q 775 2000 775 1525 
Q 775 1050 962 787 
Q 1150 525 1525 525 
Q 1825 525 2037 787 
Q 2250 1050 2250 1525 
z
" transform="scale(0.015625)"/>
       <path id="SimHei-78" d="M 2875 125 
L 2275 125 
L 1550 1200 
L 825 125 
L 225 125 
L 1250 1550 
L 300 2925 
L 900 2925 
L 1550 1875 
L 2200 2925 
L 2800 2925 
L 1850 1550 
L 2875 125 
z
" transform="scale(0.015625)"/>
       <path id="DejaVuSans-Oblique-7a" d="M 744 3500 
L 3475 3500 
L 3372 2975 
L 738 459 
L 2913 459 
L 2822 0 
L -19 0 
L 84 525 
L 2719 3041 
L 653 3041 
L 744 3500 
z
" transform="scale(0.015625)"/>
       <path id="Cmsy10-30" d="M 225 347 
Q 184 359 184 409 
L 966 3316 
Q 1003 3434 1093 3506 
Q 1184 3578 1300 3578 
Q 1450 3578 1564 3479 
Q 1678 3381 1678 3231 
Q 1678 3166 1644 3084 
L 488 319 
Q 466 275 428 275 
Q 394 275 320 306 
Q 247 338 225 347 
z
" transform="scale(0.015625)"/>
       <path id="DejaVuSans-Oblique-69" d="M 1172 4863 
L 1747 4863 
L 1606 4134 
L 1031 4134 
L 1172 4863 
z
M 909 3500 
L 1484 3500 
L 800 0 
L 225 0 
L 909 3500 
z
" transform="scale(0.015625)"/>
       <path id="DejaVuSans-Oblique-3b3" d="M 1491 2950 
L 1838 788 
L 3456 3500 
L 4066 3500 
L 1972 0 
L 1713 -1331 
L 1138 -1331 
L 1397 0 
L 988 2613 
Q 925 3006 628 3006 
L 475 3006 
L 569 3500 
L 788 3500 
Q 1403 3500 1491 2950 
z
" transform="scale(0.015625)"/>
      </defs>
      <use xlink:href="#SimHei-73" transform="translate(0 0.520313)"/>
      <use xlink:href="#SimHei-65" transform="translate(50 0.520313)"/>
      <use xlink:href="#SimHei-6c" transform="translate(100 0.520313)"/>
      <use xlink:href="#SimHei-65" transform="translate(150 0.520313)"/>
      <use xlink:href="#SimHei-63" transform="translate(200 0.520313)"/>
      <use xlink:href="#SimHei-74" transform="translate(250 0.520313)"/>
      <use xlink:href="#SimHei-69" transform="translate(300 0.520313)"/>
      <use xlink:href="#SimHei-6f" transform="translate(350 0.520313)"/>
      <use xlink:href="#SimHei-6e" transform="translate(400 0.520313)"/>
      <use xlink:href="#SimHei-20" transform="translate(450 0.520313)"/>
      <use xlink:href="#SimHei-69" transform="translate(500 0.520313)"/>
      <use xlink:href="#SimHei-6e" transform="translate(550 0.520313)"/>
      <use xlink:href="#SimHei-64" transform="translate(600 0.520313)"/>
      <use xlink:href="#SimHei-65" transform="translate(650 0.520313)"/>
      <use xlink:href="#SimHei-78" transform="translate(700 0.520313)"/>
      <use xlink:href="#SimHei-20" transform="translate(750 0.520313)"/>
      <use xlink:href="#DejaVuSans-Oblique-7a" transform="translate(800 0.520313)"/>
      <use xlink:href="#Cmsy10-30" transform="translate(856.95638 38.865625) scale(0.7)"/>
      <use xlink:href="#DejaVuSans-Oblique-69" transform="translate(852.490234 -26.823437) scale(0.7)"/>
      <use xlink:href="#DejaVuSans-Oblique-3b3" transform="translate(878.933919 0.520313)"/>
     </g>
    </g>
   </g>
   <g id="matplotlib.axis_2">
    <g id="ytick_1">
     <g id="line2d_15">
      <path d="M 46.36 235.826314 
L 414.64 235.826314 
" clip-path="url(#p301a6ac896)" style="fill: none; stroke: #b0b0b0; stroke-opacity: 0.22; stroke-width: 0.8; stroke-linecap: square"/>
     </g>
     <g id="line2d_16">
      <defs>
       <path id="mb843022069" d="M 0 0 
L -3.5 0 
" style="stroke: #000000; stroke-width: 0.8"/>
      </defs>
      <g>
       <use xlink:href="#mb843022069" x="46.36" y="235.826314" style="stroke: #000000; stroke-width: 0.8"/>
      </g>
     </g>
     <g id="text_9">
      <!-- 0.0 -->
      <g transform="translate(22.86 239.607564) scale(0.11 -0.11)">
       <defs>
        <path id="SimHei-2e" d="M 1075 125 
L 500 125 
L 500 675 
L 1075 675 
L 1075 125 
z
" transform="scale(0.015625)"/>
       </defs>
       <use xlink:href="#SimHei-30"/>
       <use xlink:href="#SimHei-2e" transform="translate(50 0)"/>
       <use xlink:href="#SimHei-30" transform="translate(100 0)"/>
      </g>
     </g>
    </g>
    <g id="ytick_2">
     <g id="line2d_17">
      <path d="M 46.36 205.082054 
L 414.64 205.082054 
" clip-path="url(#p301a6ac896)" style="fill: none; stroke: #b0b0b0; stroke-opacity: 0.22; stroke-width: 0.8; stroke-linecap: square"/>
     </g>
     <g id="line2d_18">
      <g>
       <use xlink:href="#mb843022069" x="46.36" y="205.082054" style="stroke: #000000; stroke-width: 0.8"/>
      </g>
     </g>
     <g id="text_10">
      <!-- 0.5 -->
      <g transform="translate(22.86 208.863304) scale(0.11 -0.11)">
       <defs>
        <path id="SimHei-35" d="M 550 1325 
Q 725 650 1150 575 
Q 1575 500 1837 662 
Q 2100 825 2212 1087 
Q 2325 1350 2312 1675 
Q 2300 2000 2137 2225 
Q 1975 2450 1725 2525 
Q 1475 2600 1162 2525 
Q 850 2450 650 2175 
L 225 2225 
Q 275 2375 700 4375 
L 2675 4375 
L 2675 3925 
L 1075 3925 
Q 950 3250 825 2850 
Q 1200 3025 1525 3012 
Q 1850 3000 2150 2862 
Q 2450 2725 2587 2487 
Q 2725 2250 2787 2012 
Q 2850 1775 2837 1500 
Q 2825 1225 2725 937 
Q 2625 650 2425 462 
Q 2225 275 1937 162 
Q 1650 50 1275 75 
Q 900 100 562 350 
Q 225 600 100 1200 
L 550 1325 
z
" transform="scale(0.015625)"/>
       </defs>
       <use xlink:href="#SimHei-30"/>
       <use xlink:href="#SimHei-2e" transform="translate(50 0)"/>
       <use xlink:href="#SimHei-35" transform="translate(100 0)"/>
      </g>
     </g>
    </g>
    <g id="ytick_3">
     <g id="line2d_19">
      <path d="M 46.36 174.337794 
L 414.64 174.337794 
" clip-path="url(#p301a6ac896)" style="fill: none; stroke: #b0b0b0; stroke-opacity: 0.22; stroke-width: 0.8; stroke-linecap: square"/>
     </g>
     <g id="line2d_20">
      <g>
       <use xlink:href="#mb843022069" x="46.36" y="174.337794" style="stroke: #000000; stroke-width: 0.8"/>
      </g>
     </g>
     <g id="text_11">
      <!-- 1.0 -->
      <g transform="translate(22.86 178.119044) scale(0.11 -0.11)">
       <use xlink:href="#SimHei-31"/>
       <use xlink:href="#SimHei-2e" transform="translate(50 0)"/>
       <use xlink:href="#SimHei-30" transform="translate(100 0)"/>
      </g>
     </g>
    </g>
    <g id="ytick_4">
     <g id="line2d_21">
      <path d="M 46.36 143.593534 
L 414.64 143.593534 
" clip-path="url(#p301a6ac896)" style="fill: none; stroke: #b0b0b0; stroke-opacity: 0.22; stroke-width: 0.8; stroke-linecap: square"/>
     </g>
     <g id="line2d_22">
      <g>
       <use xlink:href="#mb843022069" x="46.36" y="143.593534" style="stroke: #000000; stroke-width: 0.8"/>
      </g>
     </g>
     <g id="text_12">
      <!-- 1.5 -->
      <g transform="translate(22.86 147.374784) scale(0.11 -0.11)">
       <use xlink:href="#SimHei-31"/>
       <use xlink:href="#SimHei-2e" transform="translate(50 0)"/>
       <use xlink:href="#SimHei-35" transform="translate(100 0)"/>
      </g>
     </g>
    </g>
    <g id="ytick_5">
     <g id="line2d_23">
      <path d="M 46.36 112.849274 
L 414.64 112.849274 
" clip-path="url(#p301a6ac896)" style="fill: none; stroke: #b0b0b0; stroke-opacity: 0.22; stroke-width: 0.8; stroke-linecap: square"/>
     </g>
     <g id="line2d_24">
      <g>
       <use xlink:href="#mb843022069" x="46.36" y="112.849274" style="stroke: #000000; stroke-width: 0.8"/>
      </g>
     </g>
     <g id="text_13">
      <!-- 2.0 -->
      <g transform="translate(22.86 116.630524) scale(0.11 -0.11)">
       <use xlink:href="#SimHei-32"/>
       <use xlink:href="#SimHei-2e" transform="translate(50 0)"/>
       <use xlink:href="#SimHei-30" transform="translate(100 0)"/>
      </g>
     </g>
    </g>
    <g id="ytick_6">
     <g id="line2d_25">
      <path d="M 46.36 82.105015 
L 414.64 82.105015 
" clip-path="url(#p301a6ac896)" style="fill: none; stroke: #b0b0b0; stroke-opacity: 0.22; stroke-width: 0.8; stroke-linecap: square"/>
     </g>
     <g id="line2d_26">
      <g>
       <use xlink:href="#mb843022069" x="46.36" y="82.105015" style="stroke: #000000; stroke-width: 0.8"/>
      </g>
     </g>
     <g id="text_14">
      <!-- 2.5 -->
      <g transform="translate(22.86 85.886265) scale(0.11 -0.11)">
       <use xlink:href="#SimHei-32"/>
       <use xlink:href="#SimHei-2e" transform="translate(50 0)"/>
       <use xlink:href="#SimHei-35" transform="translate(100 0)"/>
      </g>
     </g>
    </g>
    <g id="ytick_7">
     <g id="line2d_27">
      <path d="M 46.36 51.360755 
L 414.64 51.360755 
" clip-path="url(#p301a6ac896)" style="fill: none; stroke: #b0b0b0; stroke-opacity: 0.22; stroke-width: 0.8; stroke-linecap: square"/>
     </g>
     <g id="line2d_28">
      <g>
       <use xlink:href="#mb843022069" x="46.36" y="51.360755" style="stroke: #000000; stroke-width: 0.8"/>
      </g>
     </g>
     <g id="text_15">
      <!-- 3.0 -->
      <g transform="translate(22.86 55.142005) scale(0.11 -0.11)">
       <use xlink:href="#SimHei-33"/>
       <use xlink:href="#SimHei-2e" transform="translate(50 0)"/>
       <use xlink:href="#SimHei-30" transform="translate(100 0)"/>
      </g>
     </g>
    </g>
    <g id="text_16">
     <!-- $\lambda(z_i'\gamma)=\phi(z_i'\gamma)/\Phi(z_i'\gamma)$ -->
     <g transform="translate(15.78 190.248437) rotate(-90) scale(0.11 -0.11)">
      <defs>
       <path id="DejaVuSans-Oblique-3bb" d="M 2350 4316 
L 3125 0 
L 2516 0 
L 2038 2588 
L 328 0 
L -281 0 
L 1903 3356 
L 1794 3975 
Q 1725 4369 1391 4369 
L 1091 4369 
L 1184 4863 
L 1550 4856 
Q 2253 4847 2350 4316 
z
" transform="scale(0.015625)"/>
       <path id="DejaVuSans-28" d="M 1984 4856 
Q 1566 4138 1362 3434 
Q 1159 2731 1159 2009 
Q 1159 1288 1364 580 
Q 1569 -128 1984 -844 
L 1484 -844 
Q 1016 -109 783 600 
Q 550 1309 550 2009 
Q 550 2706 781 3412 
Q 1013 4119 1484 4856 
L 1984 4856 
z
" transform="scale(0.015625)"/>
       <path id="DejaVuSans-29" d="M 513 4856 
L 1013 4856 
Q 1481 4119 1714 3412 
Q 1947 2706 1947 2009 
Q 1947 1309 1714 600 
Q 1481 -109 1013 -844 
L 513 -844 
Q 928 -128 1133 580 
Q 1338 1288 1338 2009 
Q 1338 2731 1133 3434 
Q 928 4138 513 4856 
z
" transform="scale(0.015625)"/>
       <path id="DejaVuSans-3d" d="M 678 2906 
L 4684 2906 
L 4684 2381 
L 678 2381 
L 678 2906 
z
M 678 1631 
L 4684 1631 
L 4684 1100 
L 678 1100 
L 678 1631 
z
" transform="scale(0.015625)"/>
       <path id="DejaVuSans-Oblique-3d5" d="M 2991 4863 
L 2738 3572 
Q 3363 3572 3684 3094 
Q 4016 2606 3850 1747 
Q 3681 888 3159 400 
Q 2653 -78 2028 -78 
L 1784 -1331 
L 1213 -1331 
L 1456 -78 
Q 834 -78 509 400 
Q 178 888 347 1747 
Q 513 2606 1034 3094 
Q 1544 3572 2166 3572 
L 2419 4863 
L 2991 4863 
z
M 2128 434 
Q 2481 434 2784 756 
Q 3116 1116 3244 1747 
Q 3369 2372 3169 2738 
Q 2991 3059 2638 3059 
L 2128 434 
z
M 1556 434 
L 2066 3059 
Q 1716 3059 1413 2738 
Q 1072 2372 953 1747 
Q 834 1116 1028 756 
Q 1203 434 1556 434 
z
" transform="scale(0.015625)"/>
       <path id="DejaVuSans-2f" d="M 1625 4666 
L 2156 4666 
L 531 -594 
L 0 -594 
L 1625 4666 
z
" transform="scale(0.015625)"/>
       <path id="DejaVuSans-3a6" d="M 2206 3644 
Q 1738 3578 1431 3306 
Q 1025 2947 1025 2328 
Q 1025 1713 1431 1353 
Q 1738 1081 2206 1016 
L 2206 3644 
z
M 2838 1016 
Q 3306 1081 3613 1353 
Q 4013 1713 4013 2328 
Q 4013 2947 3613 3306 
Q 3306 3578 2838 3644 
L 2838 1016 
z
M 2206 494 
Q 1444 563 950 981 
Q 359 1481 359 2328 
Q 359 3175 950 3678 
Q 1441 4100 2206 4169 
L 2206 4666 
L 2838 4666 
L 2838 4169 
Q 3600 4097 4091 3678 
Q 4678 3175 4678 2328 
Q 4678 1484 4091 981 
Q 3600 563 2838 491 
L 2838 0 
L 2206 0 
L 2206 494 
z
" transform="scale(0.015625)"/>
      </defs>
      <use xlink:href="#DejaVuSans-Oblique-3bb" transform="translate(0 0.520313)"/>
      <use xlink:href="#DejaVuSans-28" transform="translate(59.179688 0.520313)"/>
      <use xlink:href="#DejaVuSans-Oblique-7a" transform="translate(98.193359 0.520313)"/>
      <use xlink:href="#Cmsy10-30" transform="translate(155.14974 38.865625) scale(0.7)"/>
      <use xlink:href="#DejaVuSans-Oblique-69" transform="translate(150.683594 -26.823437) scale(0.7)"/>
      <use xlink:href="#DejaVuSans-Oblique-3b3" transform="translate(177.127279 0.520313)"/>
      <use xlink:href="#DejaVuSans-29" transform="translate(236.306966 0.520313)"/>
      <use xlink:href="#DejaVuSans-3d" transform="translate(294.80306 0.520313)"/>
      <use xlink:href="#DejaVuSans-Oblique-3d5" transform="translate(398.074544 0.520313)"/>
      <use xlink:href="#DejaVuSans-28" transform="translate(464.041341 0.520313)"/>
      <use xlink:href="#DejaVuSans-Oblique-7a" transform="translate(503.055013 0.520313)"/>
      <use xlink:href="#Cmsy10-30" transform="translate(560.011393 38.865625) scale(0.7)"/>
      <use xlink:href="#DejaVuSans-Oblique-69" transform="translate(555.545247 -26.823437) scale(0.7)"/>
      <use xlink:href="#DejaVuSans-Oblique-3b3" transform="translate(581.988932 0.520313)"/>
      <use xlink:href="#DejaVuSans-29" transform="translate(641.16862 0.520313)"/>
      <use xlink:href="#DejaVuSans-2f" transform="translate(680.182292 0.520313)"/>
      <use xlink:href="#DejaVuSans-3a6" transform="translate(713.873698 0.520313)"/>
      <use xlink:href="#DejaVuSans-28" transform="translate(792.584635 0.520313)"/>
      <use xlink:href="#DejaVuSans-Oblique-7a" transform="translate(831.598307 0.520313)"/>
      <use xlink:href="#Cmsy10-30" transform="translate(888.554688 38.865625) scale(0.7)"/>
      <use xlink:href="#DejaVuSans-Oblique-69" transform="translate(884.088542 -26.823437) scale(0.7)"/>
      <use xlink:href="#DejaVuSans-Oblique-3b3" transform="translate(910.532227 0.520313)"/>
      <use xlink:href="#DejaVuSans-29" transform="translate(969.711914 0.520313)"/>
     </g>
    </g>
   </g>
   <g id="line2d_29">
    <path d="M 63.1 33.953437 
L 84.374916 55.590863 
L 103.410368 74.65028 
L 120.206355 91.174821 
L 135.882609 106.295005 
L 150.43913 120.019309 
L 163.87592 132.365684 
L 176.192977 143.363041 
L 187.390301 153.052011 
L 197.467893 161.484694 
L 207.545485 169.609648 
L 216.503344 176.543454 
L 225.461204 183.176969 
L 233.299331 188.712342 
L 241.137458 193.976261 
L 248.975585 198.949536 
L 255.69398 202.967138 
L 262.412375 206.747218 
L 269.130769 210.280508 
L 275.849164 213.559422 
L 282.567559 216.578473 
L 289.285953 219.334651 
L 296.004348 221.827765 
L 302.722742 224.060688 
L 309.441137 226.039494 
L 316.159532 227.773451 
L 322.877926 229.274856 
L 329.596321 230.558711 
L 337.434448 231.80468 
L 345.272575 232.808197 
L 353.110702 233.601013 
L 362.068562 234.289987 
L 372.146154 234.842579 
L 384.463211 235.279568 
L 397.9 235.553437 
L 397.9 235.553437 
" clip-path="url(#p301a6ac896)" style="fill: none; stroke: #1f77b4; stroke-width: 2.2; stroke-linecap: square"/>
   </g>
   <g id="patch_3">
    <path d="M 46.36 245.633437 
L 46.36 23.873437 
" style="fill: none; stroke: #000000; stroke-width: 0.8; stroke-linejoin: miter; stroke-linecap: square"/>
   </g>
   <g id="patch_4">
    <path d="M 46.36 245.633437 
L 414.64 245.633437 
" style="fill: none; stroke: #000000; stroke-width: 0.8; stroke-linejoin: miter; stroke-linecap: square"/>
   </g>
   <g id="patch_5">
    <path d="M 175.625003 73.609832 
Q 148.223267 81.479394 122.111047 88.978616 
" style="fill: none; stroke: #000000; stroke-width: 1.2; stroke-linecap: round"/>
    <path d="M 126.507706 89.796776 
L 122.111047 88.978616 
L 125.40357 85.952185 
" style="fill: none; stroke: #000000; stroke-width: 1.2; stroke-linecap: round"/>
   </g>
   <g id="text_17">
    <!-- 越难被选择却被选中 -->
    <g transform="translate(174.7 58.854186) scale(0.1 -0.1)">
     <defs>
      <path id="SimHei-8d8a" d="M 1275 1875 
Q 1225 1525 1175 1125 
Q 1400 825 1750 600 
L 1750 2550 
Q 975 2550 500 2525 
L 500 2925 
Q 975 2900 1625 2900 
L 1625 3850 
Q 1075 3850 700 3825 
L 700 4225 
Q 1075 4200 1625 4200 
Q 1625 4700 1600 5125 
L 2075 5125 
Q 2050 4750 2050 4200 
Q 2475 4200 2850 4225 
L 2850 3825 
Q 2475 3850 2050 3850 
L 2050 2900 
Q 2450 2900 2900 2925 
L 2900 2525 
Q 2475 2550 2175 2550 
L 2175 1700 
Q 2450 1700 2800 1725 
L 2800 1350 
Q 2450 1375 2175 1375 
L 2175 350 
Q 2925 0 4162 -25 
Q 5400 -50 6025 50 
Q 5850 -250 5825 -475 
Q 4900 -475 4137 -462 
Q 3375 -450 2825 -312 
Q 2275 -175 1850 50 
Q 1425 275 1100 650 
Q 925 -75 675 -525 
Q 450 -325 350 -250 
Q 575 175 662 537 
Q 750 900 787 1287 
Q 825 1675 825 2000 
Q 1075 1900 1275 1875 
z
M 4600 5000 
Q 4550 4725 4550 4500 
L 4550 3975 
Q 5350 3975 5825 4000 
L 5825 3625 
Q 5350 3650 4575 3650 
Q 4600 3400 4650 2837 
Q 4700 2275 4800 1875 
Q 5100 2550 5225 3200 
Q 5425 3050 5675 2950 
Q 5550 2800 5400 2387 
Q 5250 1975 5000 1375 
Q 5100 1125 5300 937 
Q 5500 750 5600 1425 
Q 5800 1200 6000 1125 
Q 5800 500 5525 350 
Q 5250 200 4725 1025 
Q 4375 600 4000 225 
Q 3825 400 3625 475 
Q 3850 625 4087 850 
Q 4325 1075 4500 1425 
Q 4300 2075 4175 3650 
L 3550 3650 
L 3550 1525 
Q 3750 1650 4025 1900 
Q 4075 1675 4175 1475 
Q 3975 1325 3737 1150 
Q 3500 975 3250 775 
Q 3150 950 3000 1150 
Q 3150 1250 3150 1475 
L 3150 3200 
Q 3150 3525 3125 3975 
L 4150 3975 
Q 4125 4650 4100 5075 
Q 4375 5000 4600 5000 
z
M 5100 4975 
Q 5300 4800 5750 4425 
Q 5600 4325 5475 4125 
Q 5150 4475 4825 4700 
Q 4975 4825 5100 4975 
z
" transform="scale(0.015625)"/>
      <path id="SimHei-96be" d="M 5775 1100 
Q 5425 1125 5000 1125 
L 4825 1125 
L 4825 200 
L 5200 200 
Q 5725 200 6075 225 
L 6075 -200 
Q 5750 -175 5200 -175 
L 3425 -175 
L 3425 -675 
L 3000 -675 
Q 3025 -300 3025 600 
L 3025 3125 
Q 2925 2925 2850 2750 
Q 2775 2575 2650 2350 
Q 2500 2500 2200 2600 
Q 2425 2925 2600 3287 
Q 2775 3650 2900 3950 
Q 3025 4250 3112 4550 
Q 3200 4850 3225 5100 
Q 3525 5000 3775 4925 
Q 3700 4825 3600 4587 
Q 3500 4350 3375 4000 
L 5075 4000 
Q 5525 4000 5925 4025 
L 5925 3600 
Q 5700 3625 5100 3625 
L 4825 3625 
L 4825 2800 
L 5025 2800 
Q 5425 2800 5750 2825 
L 5750 2375 
Q 5475 2400 5025 2400 
L 4825 2400 
L 4825 1500 
L 5000 1500 
Q 5450 1500 5775 1525 
L 5775 1100 
z
M 1675 1350 
Q 1450 975 1175 575 
Q 900 175 575 -200 
Q 450 50 250 200 
Q 600 550 850 887 
Q 1100 1225 1350 1750 
Q 1150 2125 962 2425 
Q 775 2725 500 3025 
Q 700 3150 850 3300 
Q 1025 3100 1187 2850 
Q 1350 2600 1550 2300 
Q 1675 2625 1750 3075 
Q 1825 3525 1875 4075 
L 1200 4075 
Q 775 4075 525 4050 
L 525 4525 
Q 775 4500 1175 4500 
L 2375 4500 
Q 2350 4175 2312 3887 
Q 2275 3600 2187 3087 
Q 2100 2575 2012 2300 
Q 1925 2025 1875 1850 
Q 2000 1675 2225 1337 
Q 2450 1000 2675 650 
Q 2475 550 2275 350 
Q 2125 650 1950 937 
Q 1775 1225 1675 1350 
z
M 4350 200 
L 4350 1125 
L 3425 1125 
L 3425 200 
L 4350 200 
z
M 4350 1500 
L 4350 2400 
L 3425 2400 
L 3425 1500 
L 4350 1500 
z
M 4350 2800 
L 4350 3625 
L 3425 3625 
L 3425 2800 
L 4350 2800 
z
M 4675 4200 
Q 4525 4475 4375 4662 
Q 4225 4850 4150 4950 
Q 4325 5075 4475 5225 
Q 4675 5000 4825 4850 
Q 4975 4700 5075 4550 
Q 4850 4375 4675 4200 
z
" transform="scale(0.015625)"/>
      <path id="SimHei-88ab" d="M 4100 4175 
Q 4100 4800 4075 5175 
L 4575 5175 
Q 4550 4825 4550 4175 
L 6025 4175 
Q 5900 3825 5725 3225 
Q 5550 3300 5225 3325 
Q 5375 3675 5400 3800 
L 4550 3800 
L 4550 2650 
L 5575 2650 
Q 5425 2075 5225 1575 
Q 5025 1075 4675 550 
Q 4925 325 5375 150 
Q 5825 -25 6125 -50 
Q 5850 -300 5775 -550 
Q 5325 -375 5000 -187 
Q 4675 0 4400 250 
Q 3975 -200 3225 -625 
Q 3050 -350 2850 -250 
Q 3575 0 4100 575 
Q 3675 1125 3400 2275 
L 3275 2275 
Q 3250 1575 3087 925 
Q 2925 275 2350 -550 
Q 2175 -400 1875 -300 
Q 2375 225 2600 825 
Q 2825 1425 2850 2150 
L 2850 3375 
Q 2850 3900 2825 4175 
L 4100 4175 
z
M 1825 2325 
Q 2075 2600 2300 2950 
Q 2500 2725 2650 2600 
Q 2425 2400 2075 2050 
L 2550 1575 
Q 2400 1450 2200 1225 
Q 1975 1575 1575 1975 
L 1575 525 
Q 1575 0 1600 -625 
L 1125 -625 
Q 1150 175 1150 700 
L 1150 2075 
Q 900 1800 525 1475 
Q 400 1675 200 1850 
Q 675 2175 1037 2600 
Q 1400 3025 1650 3525 
L 1150 3525 
Q 800 3525 400 3500 
L 400 3925 
Q 950 3900 1300 3900 
L 2350 3900 
Q 1950 3075 1550 2550 
Q 1650 2475 1825 2325 
z
M 4100 2650 
L 4100 3800 
L 3275 3800 
L 3275 2650 
L 4100 2650 
z
M 3825 2275 
Q 4050 1375 4400 900 
Q 4600 1200 4737 1512 
Q 4875 1825 5000 2275 
L 3825 2275 
z
M 1500 5250 
Q 1750 4800 1950 4375 
L 1500 4150 
Q 1325 4650 1075 5025 
Q 1300 5100 1500 5250 
z
" transform="scale(0.015625)"/>
      <path id="SimHei-9009" d="M 3200 4850 
Q 3025 4575 2900 4225 
L 3725 4225 
Q 3725 4725 3700 5175 
L 4275 5175 
Q 4225 4825 4225 4225 
Q 5100 4250 5475 4250 
L 5475 3825 
Q 5050 3850 4225 3850 
L 4225 2975 
L 5075 2975 
Q 5450 2975 5825 3000 
L 5825 2550 
Q 5450 2575 4675 2575 
L 4675 1200 
Q 4675 950 4950 950 
L 5250 950 
Q 5425 1050 5450 1525 
Q 5700 1375 5975 1325 
Q 5825 475 5450 475 
L 4775 475 
Q 4200 475 4200 1000 
L 4200 2575 
L 3700 2575 
Q 3700 1825 3425 1300 
Q 3150 775 2675 325 
Q 2500 500 2175 600 
Q 2800 1050 3012 1487 
Q 3225 1925 3225 2575 
Q 2475 2575 2100 2550 
L 2100 3025 
Q 2500 2975 2800 2975 
L 3725 2975 
L 3725 3850 
L 2775 3850 
Q 2650 3550 2575 3275 
Q 2300 3375 2075 3450 
Q 2450 4100 2625 5000 
Q 2875 4925 3200 4850 
z
M 1675 2875 
Q 1650 2350 1650 1925 
L 1650 575 
Q 2300 50 3725 0 
Q 5150 -50 6125 125 
Q 6000 0 5875 -450 
Q 4325 -475 3637 -425 
Q 2950 -375 2475 -237 
Q 2000 -100 1725 75 
Q 1450 250 1250 37 
Q 1050 -175 800 -500 
Q 625 -300 350 -175 
Q 625 125 1175 525 
L 1175 2475 
Q 800 2475 375 2450 
L 375 2900 
Q 850 2875 1675 2875 
z
M 1300 4850 
Q 1625 4100 1750 3725 
Q 1525 3650 1300 3550 
Q 1200 3850 800 4675 
Q 1025 4750 1300 4850 
z
" transform="scale(0.015625)"/>
      <path id="SimHei-62e9" d="M 2675 5050 
Q 3025 5050 3525 5025 
L 5675 5025 
Q 5400 4475 5187 4150 
Q 4975 3825 4500 3375 
Q 4825 3175 5187 3100 
Q 5550 3025 6150 2975 
Q 5900 2700 5850 2450 
Q 5225 2575 4850 2712 
Q 4475 2850 4125 3100 
Q 3750 2875 3425 2737 
Q 3100 2600 2575 2450 
Q 2525 2650 2225 2875 
Q 2675 2950 3025 3050 
Q 3375 3150 3725 3375 
Q 3175 3950 2975 4625 
L 2675 4625 
L 2675 5050 
z
M 2125 2825 
Q 2125 2600 2150 2350 
Q 1875 2250 1625 2125 
L 1625 175 
Q 1575 -250 1350 -337 
Q 1125 -425 625 -500 
Q 600 -200 500 175 
Q 1100 125 1125 250 
L 1125 1925 
Q 625 1675 450 1550 
Q 350 1850 200 2125 
Q 450 2175 1125 2400 
L 1125 3600 
Q 675 3600 350 3575 
L 350 4050 
Q 650 4025 1125 4025 
Q 1125 4575 1100 5225 
L 1650 5225 
Q 1625 4625 1625 4025 
Q 1900 4025 2350 4050 
L 2350 3575 
Q 1950 3600 1625 3600 
L 1625 2600 
Q 1875 2700 2125 2825 
z
M 3825 2025 
Q 3825 2325 3775 2650 
L 4350 2650 
Q 4325 2325 4325 2025 
Q 4950 2025 5525 2050 
L 5525 1600 
Q 4850 1625 4325 1625 
L 4325 875 
Q 5125 875 6000 900 
L 6000 450 
Q 5300 475 4325 475 
Q 4325 -400 4350 -675 
L 3775 -675 
Q 3825 -400 3825 475 
Q 2450 475 2075 450 
L 2075 900 
Q 2475 875 3825 875 
L 3825 1625 
Q 2900 1625 2575 1600 
L 2575 2050 
Q 3000 2025 3825 2025 
z
M 3425 4625 
Q 3725 3875 4125 3625 
Q 4325 3775 4537 4012 
Q 4750 4250 4950 4625 
L 3425 4625 
z
" transform="scale(0.015625)"/>
      <path id="SimHei-5374" d="M 4775 925 
Q 5200 925 5312 937 
Q 5425 950 5425 1150 
L 5425 4375 
L 4375 4375 
L 4375 -625 
L 3850 -625 
Q 3900 -125 3900 675 
L 3900 3650 
Q 3900 4350 3875 4750 
L 5950 4750 
Q 5925 4350 5925 3700 
L 5925 900 
Q 5900 600 5700 512 
Q 5500 425 5000 350 
Q 4925 675 4775 925 
z
M 1625 4300 
Q 1625 4975 1575 5250 
L 2175 5250 
Q 2100 4925 2125 4300 
Q 2850 4300 3200 4325 
L 3200 3900 
Q 2850 3925 2125 3925 
L 2125 2850 
L 2525 2850 
Q 3050 2850 3450 2875 
L 3450 2450 
Q 3050 2475 2525 2475 
L 1125 2475 
Q 650 2475 225 2425 
L 225 2875 
Q 650 2850 1625 2850 
L 1625 3925 
Q 850 3925 525 3900 
L 525 4325 
Q 850 4300 1625 4300 
z
M 2900 500 
Q 2175 400 1475 275 
Q 775 150 525 50 
Q 425 300 225 550 
Q 650 825 950 1300 
Q 1250 1775 1425 2400 
Q 1750 2250 2025 2100 
Q 1825 1900 1575 1500 
Q 1325 1100 900 550 
Q 1425 625 1837 687 
Q 2250 750 2725 825 
Q 2625 1025 2250 1475 
Q 2475 1550 2650 1725 
Q 2925 1400 3162 1050 
Q 3400 700 3600 300 
Q 3425 200 3150 50 
Q 3050 275 2900 500 
z
" transform="scale(0.015625)"/>
      <path id="SimHei-4e2d" d="M 3475 5200 
Q 3450 4500 3450 3875 
L 5625 3875 
Q 5600 3375 5600 2500 
Q 5600 1650 5625 1225 
L 5075 1225 
L 5075 1600 
L 3450 1600 
L 3450 525 
Q 3450 225 3475 -600 
L 2875 -600 
Q 2925 -150 2925 450 
L 2925 1600 
L 1300 1600 
L 1300 1225 
L 750 1225 
Q 775 1600 775 2500 
Q 775 3425 750 3875 
L 2925 3875 
Q 2925 4550 2900 5200 
L 3475 5200 
z
M 5075 2000 
L 5075 3475 
L 3450 3475 
L 3450 2000 
L 5075 2000 
z
M 2925 2000 
L 2925 3475 
L 1300 3475 
L 1300 2000 
L 2925 2000 
z
" transform="scale(0.015625)"/>
     </defs>
     <use xlink:href="#SimHei-8d8a"/>
     <use xlink:href="#SimHei-96be" transform="translate(100 0)"/>
     <use xlink:href="#SimHei-88ab" transform="translate(200 0)"/>
     <use xlink:href="#SimHei-9009" transform="translate(300 0)"/>
     <use xlink:href="#SimHei-62e9" transform="translate(400 0)"/>
     <use xlink:href="#SimHei-5374" transform="translate(500 0)"/>
     <use xlink:href="#SimHei-88ab" transform="translate(600 0)"/>
     <use xlink:href="#SimHei-9009" transform="translate(700 0)"/>
     <use xlink:href="#SimHei-4e2d" transform="translate(800 0)"/>
    </g>
    <!-- 未观测因素修正越大 -->
    <g transform="translate(174.7 69.807311) scale(0.1 -0.1)">
     <defs>
      <path id="SimHei-672a" d="M 2875 4150 
Q 2875 4900 2850 5225 
L 3400 5225 
Q 3375 4925 3375 4150 
L 4475 4150 
Q 4950 4150 5375 4175 
L 5375 3725 
Q 4950 3750 4475 3750 
L 3375 3750 
L 3375 2750 
L 4850 2750 
Q 5400 2750 5875 2775 
L 5875 2325 
Q 5400 2350 4875 2350 
L 3675 2350 
Q 4125 1675 4662 1187 
Q 5200 700 6175 425 
Q 5850 275 5725 -100 
Q 5050 150 4462 650 
Q 3875 1150 3375 2050 
L 3375 300 
Q 3375 -175 3400 -575 
L 2825 -575 
Q 2875 -175 2875 300 
L 2875 2125 
Q 2275 1150 1700 650 
Q 1125 150 675 -150 
Q 575 75 225 300 
Q 650 450 1312 1000 
Q 1975 1550 2475 2350 
L 1225 2350 
Q 675 2350 375 2325 
L 375 2775 
Q 750 2750 1275 2750 
L 2875 2750 
L 2875 3750 
L 1825 3750 
Q 1225 3750 850 3725 
L 850 4175 
Q 1225 4150 1775 4150 
L 2875 4150 
z
" transform="scale(0.015625)"/>
      <path id="SimHei-89c2" d="M 2600 4750 
Q 2500 3900 2387 3325 
Q 2275 2750 2075 2150 
Q 2425 1625 2800 1000 
Q 2575 825 2350 625 
Q 2100 1200 1800 1675 
Q 1600 1275 1300 912 
Q 1000 550 650 175 
Q 500 375 200 625 
Q 675 950 975 1300 
Q 1275 1650 1500 2100 
Q 1075 2725 625 3200 
Q 850 3375 1025 3525 
Q 1375 3150 1725 2600 
Q 1975 3400 2075 4350 
L 1300 4350 
Q 850 4350 475 4325 
L 475 4775 
Q 825 4750 1275 4750 
L 2600 4750 
z
M 4775 225 
Q 4775 0 4887 -25 
Q 5000 -50 5225 -50 
Q 5475 -50 5537 37 
Q 5600 125 5650 675 
Q 5875 525 6175 450 
Q 6025 -300 5850 -400 
Q 5675 -500 5400 -500 
L 4825 -500 
Q 4525 -500 4425 -325 
Q 4325 -150 4325 50 
L 4325 1600 
Q 4200 1125 3900 687 
Q 3600 250 3187 -87 
Q 2775 -425 2325 -650 
Q 2225 -400 1925 -150 
Q 2625 25 3087 475 
Q 3550 925 3737 1425 
Q 3925 1925 3962 2562 
Q 4000 3200 3975 3875 
Q 4325 3825 4550 3800 
Q 4450 3400 4425 2750 
Q 4400 2100 4325 1700 
L 4825 1700 
Q 4800 1550 4775 1025 
L 4775 225 
z
M 5700 5050 
Q 5675 4650 5675 3350 
Q 5675 2050 5700 1575 
L 5200 1575 
L 5200 4650 
L 3450 4650 
L 3450 1550 
L 2950 1550 
Q 2975 2150 2975 3300 
Q 2975 4475 2950 5050 
L 5700 5050 
z
" transform="scale(0.015625)"/>
      <path id="SimHei-6d4b" d="M 4025 4725 
Q 4000 4475 4000 4000 
L 4000 2225 
Q 4000 1775 4025 1350 
L 3550 1350 
L 3550 4325 
L 2350 4325 
L 2350 1325 
L 1900 1325 
Q 1925 1775 1925 2225 
L 1925 4000 
Q 1925 4200 1900 4725 
L 4025 4725 
z
M 5900 5075 
Q 5875 4800 5875 4375 
L 5875 0 
Q 5875 -325 5650 -425 
Q 5425 -525 4975 -600 
Q 4925 -325 4775 -50 
Q 5125 -50 5262 -25 
Q 5400 0 5400 250 
L 5400 4375 
Q 5400 4775 5375 5075 
L 5900 5075 
z
M 3275 3725 
Q 3225 3400 3200 2325 
Q 3175 1250 2837 550 
Q 2500 -150 2075 -600 
Q 1850 -400 1600 -325 
Q 2200 250 2475 962 
Q 2750 1675 2762 2475 
Q 2775 3275 2725 3800 
Q 3000 3750 3275 3725 
z
M 4950 4275 
Q 4925 4000 4925 3575 
L 4925 1825 
Q 4925 1300 4950 850 
L 4450 850 
Q 4475 1150 4475 1825 
L 4475 3575 
Q 4475 4000 4450 4275 
L 4950 4275 
z
M 1700 1675 
Q 1375 1075 1112 487 
Q 850 -100 725 -400 
Q 500 -200 200 -25 
Q 475 300 762 850 
Q 1050 1400 1250 2000 
Q 1475 1825 1700 1675 
z
M 3400 1050 
Q 3800 650 4300 -125 
Q 4100 -225 3875 -450 
Q 3475 275 3025 750 
Q 3225 875 3400 1050 
z
M 600 3525 
Q 1125 3125 1500 2775 
Q 1300 2575 1150 2375 
Q 825 2775 300 3150 
Q 450 3300 600 3525 
z
M 1350 4000 
Q 950 4375 475 4675 
Q 625 4850 775 5050 
Q 1300 4700 1675 4375 
Q 1500 4250 1350 4000 
z
" transform="scale(0.015625)"/>
      <path id="SimHei-56e0" d="M 5775 4950 
Q 5750 4325 5750 3600 
L 5750 850 
Q 5750 200 5775 -550 
L 5275 -550 
L 5275 -100 
L 1150 -100 
L 1150 -600 
L 650 -600 
Q 675 100 675 850 
L 675 3600 
Q 675 4275 650 4950 
L 5775 4950 
z
M 5275 325 
L 5275 4550 
L 1150 4550 
L 1150 325 
L 5275 325 
z
M 2975 3350 
Q 2975 3975 2950 4275 
Q 3225 4250 3525 4250 
Q 3450 3975 3450 3750 
L 3450 3350 
L 4025 3350 
Q 4425 3350 4950 3375 
L 4950 2900 
Q 4425 2925 4025 2925 
L 3425 2925 
Q 3400 2750 3325 2425 
Q 3625 2250 3975 1975 
Q 4325 1700 4900 1225 
Q 4700 1050 4475 800 
Q 4225 1100 3862 1450 
Q 3500 1800 3200 2025 
Q 3025 1700 2700 1375 
Q 2375 1050 1900 700 
Q 1750 925 1475 1075 
Q 2200 1400 2537 1875 
Q 2875 2350 2925 2925 
L 2475 2925 
Q 2025 2925 1525 2900 
L 1525 3375 
Q 2025 3350 2450 3350 
L 2975 3350 
z
" transform="scale(0.015625)"/>
      <path id="SimHei-7d20" d="M 2950 4650 
Q 2950 4775 2925 5125 
L 3450 5125 
Q 3425 4825 3425 4650 
L 4750 4650 
Q 5150 4650 5550 4675 
L 5550 4225 
Q 5150 4250 4775 4250 
L 3425 4250 
L 3425 3825 
L 4425 3825 
Q 4775 3825 5225 3850 
L 5225 3450 
Q 4800 3475 4425 3475 
L 3425 3475 
L 3425 3075 
L 5150 3075 
Q 5500 3075 5950 3100 
L 5950 2675 
Q 5500 2700 5150 2700 
L 3200 2700 
Q 2925 2475 2475 2200 
Q 3125 2225 3750 2250 
Q 4025 2350 4400 2650 
Q 4675 2450 4900 2300 
Q 4475 2150 3950 1875 
L 2825 1325 
Q 3725 1375 4825 1450 
Q 4700 1625 4550 1725 
Q 4750 1825 4925 1975 
Q 5525 1375 5800 1075 
Q 5575 925 5350 750 
Q 5200 1000 5100 1100 
Q 4025 1050 3550 1000 
L 3550 50 
Q 3575 -325 3350 -412 
Q 3125 -500 2675 -575 
Q 2600 -350 2425 -50 
Q 2750 -50 2912 -25 
Q 3075 0 3075 200 
L 3075 975 
Q 2725 950 2062 887 
Q 1400 825 1150 775 
Q 1100 1025 1000 1225 
Q 1375 1250 1712 1325 
Q 2050 1400 2375 1512 
Q 2700 1625 3125 1875 
Q 2475 1850 2187 1825 
Q 1900 1800 1525 1750 
Q 1475 2050 1375 2225 
Q 1750 2225 2012 2350 
Q 2275 2475 2525 2700 
L 1275 2700 
Q 875 2700 425 2675 
L 425 3100 
Q 875 3075 1250 3075 
L 2950 3075 
L 2950 3475 
L 1975 3475 
Q 1625 3475 1200 3450 
L 1200 3850 
Q 1625 3825 1950 3825 
L 2950 3825 
L 2950 4250 
L 1725 4250 
Q 1350 4250 900 4225 
L 900 4675 
Q 1350 4650 1725 4650 
L 2950 4650 
z
M 4375 750 
Q 5075 475 5875 100 
Q 5700 -125 5600 -375 
Q 4850 75 4150 350 
Q 4300 525 4375 750 
z
M 2375 400 
Q 2050 275 1662 50 
Q 1275 -175 800 -400 
Q 700 -175 450 25 
Q 900 150 1325 362 
Q 1750 575 2025 775 
Q 2200 550 2375 400 
z
" transform="scale(0.015625)"/>
      <path id="SimHei-4fee" d="M 4150 5075 
Q 3925 4850 3825 4575 
L 5600 4575 
Q 5425 4225 5225 3887 
Q 5025 3550 4725 3250 
Q 5475 2775 6200 2800 
Q 6000 2625 5925 2300 
Q 5050 2450 4400 2950 
Q 3450 2350 2750 2150 
Q 2650 2375 2375 2600 
Q 3150 2725 4050 3250 
Q 3725 3500 3450 3900 
Q 3225 3525 2925 3125 
Q 2750 3275 2525 3375 
Q 2900 3775 3200 4375 
Q 3500 4975 3550 5300 
Q 3800 5175 4150 5075 
z
M 2000 5000 
Q 1825 4875 1475 3825 
L 1475 600 
Q 1475 -200 1500 -550 
L 1025 -550 
Q 1050 -50 1050 525 
L 1050 3125 
Q 925 2800 600 2300 
Q 500 2425 225 2650 
Q 450 2875 862 3700 
Q 1275 4525 1425 5225 
Q 1600 5125 2000 5000 
z
M 6100 700 
Q 5800 575 4950 125 
Q 4100 -325 2775 -675 
Q 2700 -425 2425 -225 
Q 3550 50 4387 400 
Q 5225 750 5675 1125 
Q 5925 825 6100 700 
z
M 2325 3950 
Q 2300 3675 2300 3325 
L 2300 1200 
Q 2300 875 2325 625 
L 1850 625 
Q 1875 900 1875 1200 
L 1875 3325 
Q 1875 3650 1850 3950 
L 2325 3950 
z
M 5425 1525 
Q 4775 1100 4175 775 
Q 3575 450 3250 275 
Q 3000 600 2825 700 
Q 3250 800 3875 1112 
Q 4500 1425 4975 1900 
Q 5275 1625 5425 1525 
z
M 4825 2200 
Q 4400 1975 3250 1325 
Q 3125 1525 2900 1725 
Q 4100 2175 4425 2575 
Q 4650 2325 4825 2200 
z
M 4400 3500 
Q 4675 3825 4900 4200 
L 3725 4200 
Q 4100 3700 4400 3500 
z
" transform="scale(0.015625)"/>
      <path id="SimHei-6b63" d="M 4825 4625 
Q 5300 4625 5675 4650 
L 5675 4150 
Q 5300 4175 4775 4175 
L 3575 4175 
L 3575 2600 
L 4850 2600 
Q 5250 2600 5550 2625 
L 5550 2150 
Q 5250 2175 4850 2175 
L 3575 2175 
L 3575 150 
L 4850 150 
Q 5375 150 5900 175 
L 5900 -325 
Q 5375 -300 4975 -300 
L 1175 -300 
Q 700 -300 375 -325 
L 375 175 
Q 700 150 1175 150 
L 1325 150 
L 1325 2350 
Q 1325 2800 1300 3125 
L 1875 3125 
Q 1850 2825 1850 2350 
L 1850 150 
L 3075 150 
L 3075 4175 
L 1625 4175 
Q 1150 4175 800 4150 
L 800 4650 
Q 1150 4625 1625 4625 
L 4825 4625 
z
" transform="scale(0.015625)"/>
      <path id="SimHei-5927" d="M 2900 3400 
Q 2925 4275 2912 4575 
Q 2900 4875 2875 5150 
Q 3175 5100 3550 5075 
Q 3475 4825 3437 4350 
Q 3400 3875 3400 3400 
L 4675 3400 
Q 5350 3400 5925 3450 
L 5925 2900 
Q 5425 2925 4900 2925 
L 3425 2925 
Q 3525 2500 3775 2062 
Q 4025 1625 4287 1287 
Q 4550 950 5012 575 
Q 5475 200 6025 -50 
Q 5825 -200 5625 -550 
Q 5175 -300 4737 75 
Q 4300 450 3862 1062 
Q 3425 1675 3200 2200 
Q 3000 1650 2775 1287 
Q 2550 925 2287 625 
Q 2025 325 1612 25 
Q 1200 -275 675 -575 
Q 475 -275 225 -50 
Q 750 125 1262 450 
Q 1775 775 2100 1187 
Q 2425 1600 2625 2050 
Q 2825 2500 2875 2925 
L 1500 2925 
Q 900 2925 550 2900 
L 550 3450 
Q 900 3425 1500 3400 
L 2900 3400 
z
" transform="scale(0.015625)"/>
     </defs>
     <use xlink:href="#SimHei-672a"/>
     <use xlink:href="#SimHei-89c2" transform="translate(100 0)"/>
     <use xlink:href="#SimHei-6d4b" transform="translate(200 0)"/>
     <use xlink:href="#SimHei-56e0" transform="translate(300 0)"/>
     <use xlink:href="#SimHei-7d20" transform="translate(400 0)"/>
     <use xlink:href="#SimHei-4fee" transform="translate(500 0)"/>
     <use xlink:href="#SimHei-6b63" transform="translate(600 0)"/>
     <use xlink:href="#SimHei-8d8a" transform="translate(700 0)"/>
     <use xlink:href="#SimHei-5927" transform="translate(800 0)"/>
    </g>
   </g>
   <g id="patch_6">
    <path d="M 345.185776 185.345792 
Q 330.287677 205.513878 316.186735 224.602824 
" style="fill: none; stroke: #000000; stroke-width: 1.2; stroke-linecap: round"/>
    <path d="M 320.172082 222.573783 
L 316.186735 224.602824 
L 316.954711 220.197121 
" style="fill: none; stroke: #000000; stroke-width: 1.2; stroke-linecap: round"/>
   </g>
   <g id="text_18">
    <!-- 选择概率较高 -->
    <g transform="translate(325.36 169.533521) scale(0.1 -0.1)">
     <defs>
      <path id="SimHei-6982" d="M 3100 1150 
Q 3000 1350 2900 1475 
Q 3075 1600 3275 1725 
Q 3425 1475 3537 1262 
Q 3650 1050 3825 750 
Q 3675 625 3425 450 
Q 3375 600 3275 800 
Q 3075 625 2775 412 
Q 2475 200 2250 -50 
Q 2075 200 1925 350 
Q 2100 525 2125 875 
L 2125 4000 
Q 2125 4425 2100 4700 
L 3575 4700 
Q 3550 4325 3550 3475 
Q 3550 2650 3575 2200 
L 2550 2200 
L 2550 750 
Q 2725 850 3100 1150 
z
M 3325 -700 
Q 3200 -500 2950 -325 
Q 3400 -75 3850 637 
Q 4300 1350 4500 2350 
L 3800 2350 
Q 3825 2725 3825 3075 
Q 3825 3425 3800 3750 
L 4275 3750 
Q 4225 3550 4225 3250 
L 4225 2725 
L 4600 2725 
Q 4675 3500 4675 4400 
L 4425 4400 
Q 4075 4400 3800 4375 
L 3800 4800 
Q 4100 4775 4425 4775 
L 5150 4775 
Q 5625 4775 5850 4800 
L 5850 4375 
Q 5650 4400 5100 4400 
Q 5100 3700 5025 2725 
L 5375 2725 
Q 5600 2725 5925 2750 
L 5925 2325 
Q 5600 2350 5425 2350 
L 4950 2350 
Q 4625 1075 4287 462 
Q 3950 -150 3325 -700 
z
M 1000 4425 
Q 1000 4750 975 5050 
L 1475 5050 
Q 1425 4725 1425 4300 
L 1425 3800 
Q 1625 3800 1925 3825 
L 1925 3400 
Q 1600 3425 1425 3425 
L 1425 2650 
Q 1550 2725 1700 2825 
Q 1900 2350 2075 1875 
Q 1850 1825 1700 1700 
Q 1600 2050 1425 2450 
L 1425 300 
Q 1425 -125 1450 -575 
L 975 -575 
Q 1000 -50 1000 300 
L 1000 2025 
Q 825 1450 550 950 
Q 450 1150 175 1350 
Q 500 1825 662 2275 
Q 825 2725 950 3425 
Q 500 3425 350 3400 
L 350 3825 
Q 550 3800 1000 3800 
L 1000 4425 
z
M 5300 1725 
Q 5275 1050 5275 225 
Q 5275 -50 5412 -75 
Q 5550 -100 5625 -87 
Q 5700 -75 5737 37 
Q 5775 150 5775 475 
Q 6000 350 6250 300 
Q 6150 -225 6050 -350 
Q 5950 -475 5650 -475 
L 5350 -475 
Q 4800 -450 4850 50 
Q 4850 925 4850 1725 
L 5300 1725 
z
M 3125 2575 
L 3125 3275 
L 2550 3275 
L 2550 2575 
L 3125 2575 
z
M 3125 3650 
L 3125 4325 
L 2550 4325 
L 2550 3650 
L 3125 3650 
z
" transform="scale(0.015625)"/>
      <path id="SimHei-7387" d="M 3325 5150 
Q 3425 4900 3550 4525 
L 4800 4525 
Q 5250 4525 5800 4550 
L 5800 4125 
Q 5250 4175 4775 4175 
L 2800 4175 
Q 2975 4050 3300 3900 
Q 3075 3750 2875 3537 
Q 2675 3325 2475 3125 
L 3275 3125 
Q 3575 3425 3775 3775 
Q 4000 3600 4275 3425 
Q 3950 3250 3600 2875 
Q 3250 2500 2625 2000 
L 3850 2100 
Q 3725 2250 3600 2425 
Q 3750 2475 4000 2650 
Q 4250 2350 4700 1700 
Q 4475 1625 4225 1450 
Q 4175 1600 4025 1775 
Q 3700 1750 3425 1750 
L 3425 1050 
L 5150 1050 
Q 5675 1050 6100 1075 
L 6100 650 
Q 5700 675 5125 675 
L 3425 675 
L 3425 175 
Q 3425 -300 3450 -625 
L 2900 -625 
Q 2925 -300 2925 175 
L 2925 675 
L 1325 675 
Q 825 675 325 650 
L 325 1075 
Q 825 1050 1350 1050 
L 2925 1050 
L 2925 1700 
Q 2700 1675 2475 1637 
Q 2250 1600 2025 1525 
Q 1950 1775 1850 2000 
Q 2075 2025 2325 2200 
Q 2575 2375 2975 2800 
Q 2300 2725 2025 2625 
Q 1975 2875 1850 3175 
Q 2075 3175 2325 3487 
Q 2575 3800 2750 4175 
L 1700 4175 
Q 1150 4175 650 4125 
L 650 4550 
Q 1150 4525 1550 4525 
L 2975 4525 
Q 2900 4825 2800 5025 
Q 3025 5075 3325 5150 
z
M 1625 2575 
Q 1725 2400 1825 2200 
Q 1575 2050 1325 1862 
Q 1075 1675 800 1425 
Q 625 1675 475 1875 
Q 800 2025 1100 2212 
Q 1400 2400 1625 2575 
z
M 4850 2650 
Q 5125 2475 5337 2337 
Q 5550 2200 5875 1950 
Q 5675 1800 5500 1600 
Q 5300 1775 5062 1975 
Q 4825 2175 4575 2325 
Q 4725 2475 4850 2650 
z
M 5725 3525 
Q 5550 3450 5300 3262 
Q 5050 3075 4800 2825 
Q 4625 3050 4475 3175 
Q 4700 3325 4875 3487 
Q 5050 3650 5300 3925 
Q 5525 3700 5725 3525 
z
M 1050 3850 
Q 1425 3600 1775 3275 
Q 1575 3100 1425 2925 
Q 1075 3300 675 3525 
Q 875 3700 1050 3850 
z
" transform="scale(0.015625)"/>
      <path id="SimHei-8f83" d="M 2950 1425 
Q 2925 1225 2925 1000 
Q 2725 975 2025 850 
Q 2025 225 2050 -625 
L 1525 -625 
Q 1550 225 1550 750 
Q 875 600 425 450 
Q 350 750 200 1000 
Q 625 1050 1550 1175 
L 1550 2100 
Q 1250 2100 937 2087 
Q 625 2075 425 2000 
L 275 2450 
Q 500 2675 662 3075 
Q 825 3475 950 3950 
Q 775 3950 350 3925 
L 350 4400 
Q 725 4350 1050 4350 
Q 1225 4800 1275 5250 
Q 1550 5150 1850 5075 
Q 1725 4775 1575 4350 
Q 2200 4350 2650 4375 
L 2650 3925 
Q 2200 3950 1450 3950 
Q 1300 3475 900 2500 
L 1550 2500 
Q 1550 3100 1525 3400 
L 2050 3400 
Q 2025 3050 2025 2500 
L 2675 2500 
L 2675 2100 
L 2025 2100 
L 2025 1250 
Q 2700 1375 2950 1425 
z
M 5450 2325 
Q 5300 1925 5100 1437 
Q 4900 950 4675 575 
Q 4900 375 5300 225 
Q 5700 75 6200 -25 
Q 6000 -275 5950 -575 
Q 5300 -375 4925 -162 
Q 4550 50 4325 250 
Q 4025 -25 3687 -212 
Q 3350 -400 2825 -625 
Q 2725 -375 2450 -125 
Q 3025 0 3425 212 
Q 3825 425 4025 625 
Q 3800 1000 3650 1425 
L 3350 2275 
Q 3550 2375 3850 2475 
Q 4000 1875 4100 1600 
Q 4200 1325 4350 1025 
Q 4525 1275 4650 1662 
Q 4775 2050 4850 2525 
Q 5125 2425 5450 2325 
z
M 5175 4400 
Q 5725 4425 6025 4425 
L 6025 3975 
Q 5725 4000 5200 4000 
L 3800 4000 
Q 3250 4000 2925 3975 
L 2925 4425 
Q 3350 4400 3800 4400 
L 5175 4400 
z
M 4150 3425 
Q 3875 3100 3175 2275 
Q 3025 2475 2775 2625 
Q 3425 3300 3675 3750 
Q 3875 3600 4150 3425 
z
M 5200 3750 
Q 5450 3500 6125 2750 
Q 5825 2550 5650 2400 
Q 5425 2775 4775 3425 
Q 4975 3600 5200 3750 
z
M 4275 5300 
Q 4625 4925 4775 4675 
Q 4525 4550 4300 4425 
Q 4225 4625 3850 5050 
Q 4075 5175 4275 5300 
z
" transform="scale(0.015625)"/>
      <path id="SimHei-9ad8" d="M 5825 -25 
Q 5850 -400 5550 -500 
Q 5250 -600 4975 -625 
Q 4875 -325 4725 -100 
Q 4975 -100 5175 -87 
Q 5375 -75 5350 250 
L 5350 1825 
L 1100 1825 
L 1100 -575 
L 600 -575 
Q 625 -225 625 850 
Q 625 1950 600 2200 
L 5850 2200 
Q 5825 1850 5825 1425 
L 5825 -25 
z
M 4925 3800 
Q 4900 3475 4900 3175 
Q 4900 2900 4925 2600 
L 1400 2600 
Q 1425 2825 1425 3175 
Q 1425 3525 1400 3800 
L 4925 3800 
z
M 4500 1400 
Q 4475 1125 4475 800 
Q 4475 500 4500 200 
L 1950 200 
Q 2000 500 2000 800 
Q 2000 1125 1950 1400 
L 4500 1400 
z
M 425 4600 
Q 750 4575 1125 4575 
L 2925 4575 
Q 2850 4875 2750 5100 
Q 3050 5125 3350 5200 
Q 3400 4950 3525 4575 
L 5250 4575 
Q 5600 4575 5975 4600 
L 5975 4150 
Q 5600 4175 5050 4175 
L 1150 4175 
Q 750 4175 425 4150 
L 425 4600 
z
M 4450 2975 
L 4450 3425 
L 1900 3425 
L 1900 2975 
L 4450 2975 
z
M 4025 550 
L 4025 1050 
L 2400 1050 
L 2400 550 
L 4025 550 
z
" transform="scale(0.015625)"/>
     </defs>
     <use xlink:href="#SimHei-9009"/>
     <use xlink:href="#SimHei-62e9" transform="translate(100 0)"/>
     <use xlink:href="#SimHei-6982" transform="translate(200 0)"/>
     <use xlink:href="#SimHei-7387" transform="translate(300 0)"/>
     <use xlink:href="#SimHei-8f83" transform="translate(400 0)"/>
     <use xlink:href="#SimHei-9ad8" transform="translate(500 0)"/>
    </g>
    <!-- 修正项较小 -->
    <g transform="translate(325.36 180.486646) scale(0.1 -0.1)">
     <defs>
      <path id="SimHei-9879" d="M 5200 4800 
Q 5600 4800 6000 4825 
L 6000 4400 
Q 5600 4425 5200 4425 
L 4400 4425 
Q 4325 4025 4225 3625 
L 5600 3625 
Q 5575 3250 5575 2800 
L 5575 1550 
Q 5575 1225 5600 750 
L 5125 750 
L 5125 3250 
L 3225 3250 
L 3225 725 
L 2725 725 
Q 2750 1175 2750 1525 
L 2750 2800 
Q 2750 3175 2725 3625 
L 3775 3625 
Q 3850 4050 3875 4425 
L 3250 4425 
Q 2875 4425 2475 4400 
L 2475 4825 
Q 2875 4800 3250 4800 
L 5200 4800 
z
M 2225 1300 
Q 1750 1175 1350 1037 
Q 950 900 450 675 
Q 400 975 250 1225 
Q 650 1300 1025 1400 
L 1025 4175 
Q 700 4175 325 4150 
L 325 4575 
Q 750 4550 1300 4550 
Q 1850 4550 2200 4575 
L 2200 4150 
Q 1925 4175 1500 4175 
L 1500 1550 
Q 1825 1625 2250 1800 
Q 2200 1550 2225 1300 
z
M 4500 2625 
Q 4450 2325 4400 1925 
Q 4350 1525 4212 1025 
Q 4075 525 3575 112 
Q 3075 -300 2250 -675 
Q 2125 -425 1850 -200 
Q 2675 25 3087 300 
Q 3500 575 3687 950 
Q 3875 1325 3900 1762 
Q 3925 2200 3925 2725 
Q 4175 2675 4500 2625 
z
M 4625 950 
Q 5500 275 5975 -175 
Q 5725 -325 5575 -575 
Q 5300 -200 4250 550 
Q 4500 775 4625 950 
z
" transform="scale(0.015625)"/>
      <path id="SimHei-5c0f" d="M 3500 5150 
Q 3475 4800 3475 4200 
L 3475 175 
Q 3475 -300 3225 -425 
Q 2975 -550 2375 -600 
Q 2325 -300 2150 -25 
Q 2700 -25 2837 0 
Q 2975 25 2975 300 
L 2975 4200 
Q 2975 4650 2950 5150 
L 3500 5150 
z
M 2075 3400 
Q 1850 2775 1550 1962 
Q 1250 1150 1025 750 
Q 775 950 500 1000 
Q 925 1750 1175 2487 
Q 1425 3225 1500 3575 
Q 1800 3425 2075 3400 
z
M 4675 3600 
Q 5675 1800 5875 1150 
Q 5625 1100 5375 925 
Q 5000 2000 4225 3325 
Q 4425 3425 4675 3600 
z
" transform="scale(0.015625)"/>
     </defs>
     <use xlink:href="#SimHei-4fee"/>
     <use xlink:href="#SimHei-6b63" transform="translate(100 0)"/>
     <use xlink:href="#SimHei-9879" transform="translate(200 0)"/>
     <use xlink:href="#SimHei-8f83" transform="translate(300 0)"/>
     <use xlink:href="#SimHei-5c0f" transform="translate(400 0)"/>
    </g>
   </g>
   <g id="text_19">
    <!-- 逆米尔斯比率：被选择样本中误差项的条件均值修正 -->
    <g transform="translate(78.7 17.873437) scale(0.132 -0.132)">
     <defs>
      <path id="SimHei-9006" d="M 6000 -525 
Q 4950 -550 4237 -525 
Q 3525 -500 3050 -450 
Q 2575 -400 2287 -300 
Q 2000 -200 1687 -25 
Q 1375 150 1162 -50 
Q 950 -250 725 -525 
Q 550 -325 275 -150 
Q 850 225 1150 450 
L 1150 2575 
Q 825 2575 425 2550 
L 425 3000 
Q 825 2975 1125 2975 
L 1625 2975 
Q 1600 2475 1600 1875 
L 1600 525 
Q 1975 150 2725 25 
Q 2600 300 2375 500 
Q 2950 650 3262 925 
Q 3575 1200 3650 1525 
L 2350 1525 
Q 2375 1850 2375 2275 
Q 2375 2725 2350 3025 
L 2850 3025 
Q 2825 2650 2825 1925 
L 3700 1925 
Q 3725 2250 3775 3600 
L 3050 3600 
Q 2475 3600 2100 3575 
L 2100 4025 
Q 2325 4000 3050 3975 
L 4275 3975 
Q 4625 4850 4725 5250 
Q 4975 5125 5300 5000 
Q 5150 4900 4725 3975 
L 5300 3975 
Q 5825 4000 6025 4000 
L 6025 3600 
L 4225 3600 
Q 4200 2400 4175 1925 
L 5175 1925 
Q 5175 2650 5150 3000 
L 5625 3000 
Q 5600 2675 5600 2100 
Q 5600 1525 5625 1175 
L 5175 1175 
L 5175 1525 
L 4125 1525 
Q 4000 1025 3687 687 
Q 3375 350 2875 25 
Q 3175 -50 3700 -50 
Q 5225 -100 6200 50 
Q 6025 -225 6000 -525 
z
M 1200 4975 
Q 1550 4125 1675 3850 
Q 1400 3775 1175 3675 
Q 1100 3900 775 4775 
Q 950 4875 1200 4975 
z
M 3075 5200 
Q 3475 4525 3550 4375 
Q 3325 4275 3150 4125 
Q 3000 4400 2675 4925 
Q 2850 5075 3075 5200 
z
" transform="scale(0.015625)"/>
      <path id="SimHei-7c73" d="M 2975 2850 
L 2975 4450 
Q 2975 4900 2900 5250 
L 3500 5250 
Q 3475 4775 3475 4450 
L 3475 2850 
L 5075 2850 
Q 5550 2850 6075 2875 
L 6075 2375 
Q 5550 2425 5075 2425 
L 3900 2425 
Q 4300 1750 4812 1337 
Q 5325 925 6150 675 
Q 5825 250 5850 50 
Q 5000 450 4487 925 
Q 3975 1400 3475 2325 
L 3475 150 
Q 3475 -125 3500 -650 
L 2950 -650 
Q 2975 -125 2975 150 
L 2975 2350 
L 2900 2350 
Q 2625 1525 2162 950 
Q 1700 375 725 -125 
Q 650 75 350 425 
Q 1050 625 1575 1125 
Q 2100 1625 2425 2425 
L 1200 2425 
Q 850 2425 300 2375 
L 300 2875 
Q 850 2850 1200 2850 
L 2975 2850 
z
M 4100 3600 
Q 4575 4200 4900 4950 
Q 5200 4775 5500 4625 
Q 5325 4475 5087 4112 
Q 4850 3750 4575 3325 
Q 4350 3475 4100 3600 
z
M 1775 3325 
Q 1475 3975 1025 4575 
Q 1275 4725 1500 4875 
Q 1950 4275 2300 3625 
Q 2000 3500 1775 3325 
z
" transform="scale(0.015625)"/>
      <path id="SimHei-5c14" d="M 4825 2900 
Q 5025 3250 5175 3650 
L 1875 3650 
Q 1375 3025 925 2600 
Q 800 2800 525 2950 
Q 1150 3425 1600 4162 
Q 2050 4900 2200 5250 
Q 2575 5050 2700 5025 
Q 2450 4625 2125 4100 
L 5925 4100 
Q 5550 3225 5325 2725 
Q 5050 2850 4825 2900 
z
M 3550 3225 
Q 3525 2850 3525 2500 
L 3525 375 
Q 3525 -225 3225 -387 
Q 2925 -550 2350 -625 
Q 2300 -350 2125 -25 
Q 2725 -50 2862 25 
Q 3000 100 3000 375 
L 3000 2450 
Q 3000 2825 2975 3225 
L 3550 3225 
z
M 4575 2300 
Q 5550 1125 6100 475 
Q 5875 350 5625 100 
Q 4625 1475 4175 1950 
Q 4400 2125 4575 2300 
z
M 2325 2025 
Q 2125 1800 1737 1300 
Q 1350 800 725 125 
Q 625 325 325 525 
Q 675 800 1100 1312 
Q 1525 1825 1850 2400 
Q 2125 2125 2325 2025 
z
" transform="scale(0.015625)"/>
      <path id="SimHei-65af" d="M 950 4350 
Q 950 4825 925 5100 
L 1450 5100 
Q 1400 4925 1400 4350 
L 2525 4350 
Q 2525 4850 2500 5125 
L 3025 5125 
Q 3000 4900 3000 4350 
Q 3050 4350 3375 4375 
L 3375 3925 
Q 3050 3950 3000 3950 
L 3000 1625 
Q 3025 1625 3450 1650 
L 3450 1200 
Q 2950 1225 2650 1225 
L 1050 1225 
Q 700 1225 275 1200 
L 275 1650 
Q 650 1625 950 1625 
L 950 3950 
Q 675 3950 325 3925 
L 325 4375 
Q 700 4350 950 4350 
z
M 6075 4550 
Q 5750 4500 5237 4450 
Q 4725 4400 4200 4375 
L 4200 3000 
L 5425 3000 
Q 5775 3000 6125 3025 
L 6125 2575 
Q 5750 2600 5425 2600 
L 5425 575 
Q 5425 100 5450 -525 
L 4950 -525 
Q 4975 -50 4975 550 
L 4975 2600 
L 4200 2600 
Q 4175 1450 4000 912 
Q 3825 375 3700 125 
Q 3575 -125 3125 -650 
Q 2900 -475 2650 -350 
Q 3125 75 3350 512 
Q 3575 950 3650 1600 
Q 3725 2250 3725 3175 
Q 3725 4125 3700 4775 
Q 4250 4775 4862 4837 
Q 5475 4900 5800 5025 
Q 5875 4800 6075 4550 
z
M 1625 700 
Q 1425 575 1125 250 
Q 825 -75 600 -325 
Q 425 -150 225 0 
Q 350 100 625 387 
Q 900 675 1125 1075 
Q 1350 900 1625 700 
z
M 2525 2525 
L 2525 3050 
L 1400 3050 
L 1400 2525 
L 2525 2525 
z
M 2525 1625 
L 2525 2125 
L 1400 2125 
L 1400 1625 
L 2525 1625 
z
M 2525 3450 
L 2525 3950 
L 1400 3950 
L 1400 3450 
L 2525 3450 
z
M 2475 1050 
Q 2700 850 3150 350 
Q 2900 175 2725 25 
Q 2500 375 2125 750 
Q 2325 900 2475 1050 
z
" transform="scale(0.015625)"/>
      <path id="SimHei-6bd4" d="M 3775 5100 
Q 3750 4575 3750 4100 
L 3750 3050 
Q 4925 3600 5475 4175 
Q 5675 3900 5900 3675 
Q 5600 3500 5037 3187 
Q 4475 2875 3750 2550 
L 3750 450 
Q 3750 100 4050 100 
L 5000 100 
Q 5175 100 5262 250 
Q 5350 400 5450 900 
Q 5650 775 6025 675 
Q 5850 0 5650 -175 
Q 5450 -350 5225 -350 
L 3900 -350 
Q 3250 -350 3250 275 
L 3250 4000 
Q 3250 4550 3225 5100 
L 3775 5100 
z
M 1275 4975 
Q 1250 4575 1250 4000 
L 1250 3150 
L 1850 3150 
Q 2325 3150 2875 3175 
L 2875 2650 
Q 2325 2675 1850 2675 
L 1250 2675 
L 1250 475 
Q 1650 650 1962 812 
Q 2275 975 2850 1275 
Q 2900 950 2950 750 
Q 2375 475 1762 175 
Q 1150 -125 925 -325 
Q 750 -100 575 200 
Q 700 300 750 600 
L 750 3950 
Q 750 4550 725 4975 
L 1275 4975 
z
" transform="scale(0.015625)"/>
      <path id="SimHei-ff1a" d="M 1200 2425 
L 2025 2425 
L 2025 1600 
L 1200 1600 
L 1200 2425 
z
M 1200 825 
L 2025 825 
L 2025 0 
L 1200 0 
L 1200 825 
z
" transform="scale(0.015625)"/>
      <path id="SimHei-6837" d="M 4350 4025 
Q 4600 4575 4850 5225 
Q 5250 5075 5375 5000 
Q 5150 4725 4850 4025 
L 4950 4025 
Q 5650 4050 5950 4050 
L 5950 3600 
Q 5675 3625 5175 3625 
L 4550 3625 
L 4550 2650 
L 4950 2650 
Q 5525 2675 5800 2675 
L 5800 2225 
Q 5475 2250 5025 2250 
L 4550 2250 
L 4550 1225 
L 5325 1225 
Q 5800 1250 6100 1250 
L 6100 800 
Q 5825 825 5325 825 
L 4550 825 
L 4550 275 
Q 4550 -250 4575 -600 
L 4075 -600 
L 4075 825 
L 3475 825 
Q 3000 825 2550 800 
L 2550 1275 
Q 3000 1250 3500 1225 
L 4075 1225 
L 4075 2250 
L 3650 2250 
Q 3225 2250 2900 2225 
L 2900 2700 
Q 3200 2675 3675 2650 
L 4075 2650 
L 4075 3625 
L 3475 3625 
Q 3050 3625 2750 3600 
L 2750 4075 
Q 3050 4050 3475 4025 
L 4350 4025 
z
M 1325 4350 
Q 1325 4775 1300 5125 
L 1825 5125 
Q 1800 4725 1800 4350 
L 1800 3750 
Q 2125 3750 2475 3775 
L 2475 3325 
Q 2125 3350 1800 3350 
L 1800 2425 
Q 2000 2600 2100 2675 
Q 2375 2325 2725 1775 
Q 2575 1700 2300 1475 
Q 2025 1975 1800 2350 
L 1800 475 
Q 1800 -50 1825 -575 
L 1300 -575 
Q 1325 -25 1325 475 
L 1325 2250 
Q 925 1300 525 725 
Q 425 950 225 1175 
Q 950 2150 1225 3350 
Q 825 3350 350 3325 
L 350 3775 
Q 825 3750 1325 3750 
L 1325 4350 
z
M 3575 5200 
Q 3800 4775 3950 4350 
Q 3650 4250 3525 4175 
Q 3350 4600 3150 5000 
Q 3425 5125 3575 5200 
z
" transform="scale(0.015625)"/>
      <path id="SimHei-672c" d="M 2950 3925 
L 2950 4425 
Q 2950 4825 2925 5175 
L 3475 5175 
Q 3450 4900 3450 4450 
L 3450 3925 
L 4850 3925 
Q 5275 3925 5850 3950 
L 5850 3475 
Q 5300 3500 4875 3500 
L 3850 3500 
Q 4200 2350 4862 1687 
Q 5525 1025 6075 800 
Q 5850 625 5650 325 
Q 4800 900 4262 1637 
Q 3725 2375 3450 3350 
L 3450 1000 
L 3775 1000 
Q 4175 1000 4600 1025 
L 4600 550 
Q 4175 575 3750 575 
L 3450 575 
Q 3450 0 3475 -600 
L 2925 -600 
Q 2950 0 2950 575 
L 2625 575 
Q 2225 575 1825 550 
L 1825 1025 
Q 2225 1000 2625 1000 
L 2950 1000 
L 2950 3300 
Q 2550 2275 2062 1575 
Q 1575 875 750 175 
Q 550 450 275 575 
Q 1100 1075 1650 1825 
Q 2200 2575 2525 3500 
L 1425 3500 
Q 1025 3500 575 3475 
L 575 3950 
Q 1025 3925 1400 3925 
L 2950 3925 
z
" transform="scale(0.015625)"/>
      <path id="SimHei-8bef" d="M 4625 2750 
Q 5325 2750 5800 2775 
L 5800 2350 
Q 5300 2375 4625 2375 
L 4150 2375 
Q 4150 2125 4100 1650 
L 5025 1650 
Q 5575 1650 6100 1675 
L 6100 1225 
Q 5575 1250 5025 1250 
L 4250 1250 
Q 4575 600 5050 287 
Q 5525 -25 6125 -125 
Q 5900 -350 5775 -625 
Q 4875 -275 4450 175 
Q 4025 625 3900 1000 
Q 3600 325 3125 -62 
Q 2650 -450 2025 -675 
Q 1975 -450 1725 -200 
Q 2475 -75 2937 437 
Q 3400 950 3475 1250 
L 2975 1250 
Q 2400 1250 2025 1225 
L 2025 1675 
Q 2475 1650 2900 1650 
L 3600 1650 
Q 3650 2025 3650 2375 
L 3325 2375 
Q 2675 2375 2225 2350 
L 2225 2775 
Q 2700 2750 3150 2750 
L 4625 2750 
z
M 5425 4875 
Q 5400 4550 5400 4075 
Q 5400 3600 5425 3325 
L 2450 3325 
Q 2475 3575 2475 4050 
Q 2475 4525 2450 4875 
L 5425 4875 
z
M 1550 3325 
Q 1525 3000 1525 2500 
L 1525 675 
L 1900 1100 
Q 2025 875 2225 700 
Q 1675 300 1250 -325 
Q 1100 -100 825 50 
Q 1025 250 1050 500 
L 1050 2900 
Q 700 2900 325 2875 
L 325 3350 
Q 550 3325 750 3325 
L 1550 3325 
z
M 4975 3700 
L 4975 4475 
L 2900 4475 
L 2900 3700 
L 4975 3700 
z
M 975 5125 
Q 1150 5000 1900 4275 
Q 1725 4125 1550 3925 
Q 1150 4400 675 4775 
Q 875 4975 975 5125 
z
" transform="scale(0.015625)"/>
      <path id="SimHei-5dee" d="M 4725 4975 
Q 4500 4725 4250 4275 
L 4850 4275 
Q 5450 4275 5825 4300 
L 5825 3850 
Q 5425 3875 4850 3875 
L 3275 3875 
Q 3225 3600 3150 3275 
L 4525 3275 
Q 5075 3275 5525 3300 
L 5525 2850 
Q 5075 2875 4500 2875 
L 3050 2875 
Q 2975 2650 2850 2325 
L 5125 2325 
Q 5675 2325 6025 2350 
L 6025 1900 
Q 5700 1925 5150 1925 
L 2650 1925 
Q 2425 1550 2250 1300 
Q 2650 1275 3100 1275 
L 4525 1275 
Q 4975 1275 5350 1300 
L 5350 850 
Q 4975 875 4575 875 
L 3925 875 
L 3925 -50 
L 5000 -50 
Q 5200 -50 5900 -25 
L 5900 -500 
Q 5275 -475 5025 -475 
L 2100 -475 
Q 1700 -475 1400 -500 
L 1400 -25 
Q 1775 -50 2125 -50 
L 3425 -50 
L 3425 875 
L 3100 875 
Q 2625 875 2175 850 
L 2175 1200 
Q 1925 875 1487 475 
Q 1050 75 625 -250 
Q 425 -25 200 150 
Q 750 475 1262 925 
Q 1775 1375 2100 1925 
L 1325 1925 
Q 750 1925 375 1900 
L 375 2350 
Q 750 2325 1350 2325 
L 2325 2325 
Q 2450 2575 2550 2875 
L 1725 2875 
Q 1375 2875 1000 2850 
L 1000 3300 
Q 1500 3275 1700 3275 
L 2650 3275 
Q 2725 3575 2775 3875 
L 1500 3875 
Q 1100 3875 650 3850 
L 650 4300 
Q 1025 4275 1425 4275 
L 2275 4275 
Q 2075 4675 1850 4950 
Q 2025 5050 2250 5225 
Q 2450 4975 2725 4550 
Q 2525 4450 2325 4275 
L 3750 4275 
Q 4000 4700 4150 5250 
Q 4400 5100 4725 4975 
z
" transform="scale(0.015625)"/>
      <path id="SimHei-7684" d="M 2100 4975 
Q 1975 4750 1750 3950 
L 2875 3950 
Q 2850 3525 2850 2875 
L 2850 675 
Q 2850 300 2875 -400 
L 2375 -400 
L 2375 100 
L 1100 100 
L 1100 -450 
L 600 -450 
Q 625 350 625 550 
L 625 2850 
Q 625 3525 600 3950 
L 1325 3950 
Q 1450 4525 1525 5150 
Q 1875 5025 2100 4975 
z
M 5825 3075 
Q 5800 1550 5700 175 
Q 5650 -275 5225 -425 
Q 4800 -575 4275 -625 
Q 4250 -350 4050 -50 
Q 4550 -75 4837 -25 
Q 5125 25 5200 200 
Q 5275 375 5312 1225 
Q 5350 2075 5375 3600 
L 3925 3600 
Q 3725 3125 3350 2475 
Q 3175 2650 2925 2750 
Q 3150 3050 3350 3475 
Q 3550 3900 3700 4400 
Q 3850 4900 3875 5175 
Q 4225 5025 4475 4950 
Q 4350 4750 4262 4512 
Q 4175 4275 4075 4050 
L 5850 4050 
Q 5825 3525 5825 3075 
z
M 2375 525 
L 2375 1850 
L 1100 1850 
L 1100 525 
L 2375 525 
z
M 2375 2275 
L 2375 3525 
L 1100 3525 
L 1100 2275 
L 2375 2275 
z
M 4350 2050 
Q 4500 1750 4700 1275 
Q 4525 1200 4225 1025 
Q 4050 1500 3900 1837 
Q 3750 2175 3600 2400 
Q 3775 2500 4050 2650 
L 4350 2050 
z
" transform="scale(0.015625)"/>
      <path id="SimHei-6761" d="M 2700 5075 
Q 2600 5000 2400 4700 
L 5225 4700 
Q 4975 4300 4625 3875 
Q 4275 3450 3750 3050 
Q 4100 2850 4750 2687 
Q 5400 2525 6200 2525 
Q 5950 2275 5925 2000 
Q 5000 2100 4387 2300 
Q 3775 2500 3275 2825 
Q 2500 2375 1837 2175 
Q 1175 1975 575 1850 
Q 500 2125 275 2300 
Q 1250 2400 1912 2625 
Q 2575 2850 2825 3075 
Q 2400 3425 1925 3975 
Q 1600 3550 1150 3075 
Q 925 3300 725 3350 
Q 1225 3775 1625 4350 
Q 2025 4925 2125 5300 
Q 2525 5125 2700 5075 
z
M 2950 1775 
Q 2950 2000 2925 2400 
L 3475 2400 
Q 3450 1975 3450 1775 
L 4500 1775 
Q 5025 1775 5550 1800 
L 5550 1325 
Q 5025 1350 4525 1350 
L 3450 1350 
L 3450 -50 
Q 3475 -575 2450 -625 
Q 2375 -375 2225 -75 
Q 2975 -150 2950 200 
L 2950 1350 
L 1850 1350 
Q 1350 1350 825 1325 
L 825 1800 
Q 1350 1775 1850 1775 
L 2950 1775 
z
M 3300 3300 
Q 4025 3775 4325 4275 
L 2250 4275 
Q 2700 3675 3300 3300 
z
M 4200 1000 
Q 4950 575 5800 0 
Q 5650 -175 5500 -400 
Q 5150 -150 4787 100 
Q 4425 350 3925 600 
Q 4075 775 4200 1000 
z
M 2375 700 
Q 2275 600 1800 250 
Q 1325 -100 850 -400 
Q 700 -200 500 -50 
Q 825 100 1287 437 
Q 1750 775 1950 1050 
L 2375 700 
z
" transform="scale(0.015625)"/>
      <path id="SimHei-4ef6" d="M 3275 4475 
Q 3150 4375 2925 3775 
L 3900 3775 
L 3900 4275 
Q 3900 4900 3875 5125 
L 4400 5125 
Q 4375 4925 4375 4300 
L 4375 3775 
L 5125 3775 
Q 5450 3775 5725 3800 
L 5725 3325 
Q 5450 3350 5125 3350 
L 4375 3350 
L 4375 2000 
L 5200 2000 
Q 5575 2000 6100 2025 
L 6100 1550 
Q 5675 1575 5175 1575 
L 4375 1575 
L 4375 275 
Q 4375 -100 4400 -550 
L 3875 -550 
Q 3900 -100 3900 275 
L 3900 1575 
L 2925 1575 
Q 2500 1575 1925 1550 
L 1925 2025 
Q 2475 2000 2825 2000 
L 3900 2000 
L 3900 3350 
L 2775 3350 
Q 2700 3150 2350 2425 
Q 2275 2500 1900 2650 
Q 2150 3025 2350 3500 
Q 2550 3975 2700 4700 
Q 2900 4575 3275 4475 
z
M 1150 3200 
Q 900 2825 550 2375 
Q 425 2625 200 2750 
Q 650 3200 1025 3850 
Q 1400 4500 1650 5250 
Q 1950 5050 2175 4975 
Q 2000 4825 1625 4025 
L 1625 625 
Q 1625 -175 1650 -575 
L 1125 -575 
Q 1150 -225 1150 600 
L 1150 3200 
z
" transform="scale(0.015625)"/>
      <path id="SimHei-5747" d="M 5775 275 
Q 5775 -325 5362 -450 
Q 4950 -575 4425 -600 
Q 4375 -275 4250 25 
Q 4950 -25 5125 62 
Q 5300 150 5300 500 
L 5375 3700 
L 3550 3700 
Q 3425 3375 3262 3037 
Q 3100 2700 2925 2400 
Q 2675 2550 2475 2625 
Q 3150 3625 3500 5200 
Q 3800 5100 4075 5025 
Q 3975 4875 3875 4650 
Q 3775 4425 3675 4125 
L 5900 4125 
L 5775 275 
z
M 1250 3625 
L 1250 4375 
Q 1250 4775 1225 5100 
L 1775 5100 
Q 1750 4725 1750 4375 
L 1750 3625 
L 1900 3625 
Q 2200 3625 2525 3650 
L 2525 3150 
Q 2200 3175 1900 3175 
L 1750 3175 
L 1750 1100 
L 2500 1375 
Q 2475 1125 2525 900 
Q 1225 475 962 362 
Q 700 250 475 150 
Q 375 475 250 750 
Q 575 800 800 850 
Q 1025 900 1250 975 
L 1250 3175 
L 1125 3175 
Q 850 3175 400 3150 
L 400 3650 
Q 850 3625 1100 3625 
L 1250 3625 
z
M 4950 1625 
Q 4675 1425 4137 1050 
Q 3600 675 3175 300 
Q 3000 575 2850 775 
Q 3350 1050 3762 1325 
Q 4175 1600 4775 2075 
Q 4825 1850 4950 1625 
z
M 3775 3150 
Q 4125 2800 4475 2300 
Q 4250 2125 4100 1975 
Q 3900 2325 3450 2825 
Q 3600 3000 3775 3150 
z
" transform="scale(0.015625)"/>
      <path id="SimHei-503c" d="M 3675 4450 
L 3675 5100 
Q 3975 5075 4350 5050 
Q 4225 4875 4200 4450 
L 5125 4450 
Q 5550 4450 5875 4475 
L 5875 4025 
Q 5525 4050 5125 4050 
L 4175 4050 
L 4125 3500 
L 5400 3500 
Q 5375 3200 5375 2700 
L 5375 150 
Q 5875 150 6100 175 
L 6100 -275 
Q 5775 -250 5200 -250 
L 2850 -250 
Q 2275 -250 1900 -275 
L 1900 175 
Q 2125 150 2600 150 
L 2600 2700 
Q 2600 3175 2575 3500 
L 3600 3500 
L 3650 4050 
L 3200 4050 
Q 2575 4050 2225 4025 
L 2225 4475 
Q 2550 4450 3200 4450 
L 3675 4450 
z
M 2225 4900 
Q 2025 4675 1650 3750 
L 1650 450 
Q 1650 -75 1675 -550 
L 1150 -550 
Q 1175 -125 1175 375 
L 1175 2950 
Q 875 2450 625 2150 
Q 425 2425 250 2575 
Q 500 2825 937 3537 
Q 1375 4250 1625 5150 
Q 1975 4975 2225 4900 
z
M 4925 2650 
L 4925 3150 
L 3075 3150 
L 3075 2650 
L 4925 2650 
z
M 4925 150 
L 4925 625 
L 3075 625 
L 3075 150 
L 4925 150 
z
M 4925 1000 
L 4925 1450 
L 3075 1450 
L 3075 1000 
L 4925 1000 
z
M 4925 1825 
L 4925 2275 
L 3075 2275 
L 3075 1825 
L 4925 1825 
z
" transform="scale(0.015625)"/>
     </defs>
     <use xlink:href="#SimHei-9006"/>
     <use xlink:href="#SimHei-7c73" transform="translate(100 0)"/>
     <use xlink:href="#SimHei-5c14" transform="translate(200 0)"/>
     <use xlink:href="#SimHei-65af" transform="translate(300 0)"/>
     <use xlink:href="#SimHei-6bd4" transform="translate(400 0)"/>
     <use xlink:href="#SimHei-7387" transform="translate(500 0)"/>
     <use xlink:href="#SimHei-ff1a" transform="translate(600 0)"/>
     <use xlink:href="#SimHei-88ab" transform="translate(700 0)"/>
     <use xlink:href="#SimHei-9009" transform="translate(800 0)"/>
     <use xlink:href="#SimHei-62e9" transform="translate(900 0)"/>
     <use xlink:href="#SimHei-6837" transform="translate(1000 0)"/>
     <use xlink:href="#SimHei-672c" transform="translate(1100 0)"/>
     <use xlink:href="#SimHei-4e2d" transform="translate(1200 0)"/>
     <use xlink:href="#SimHei-8bef" transform="translate(1300 0)"/>
     <use xlink:href="#SimHei-5dee" transform="translate(1400 0)"/>
     <use xlink:href="#SimHei-9879" transform="translate(1500 0)"/>
     <use xlink:href="#SimHei-7684" transform="translate(1600 0)"/>
     <use xlink:href="#SimHei-6761" transform="translate(1700 0)"/>
     <use xlink:href="#SimHei-4ef6" transform="translate(1800 0)"/>
     <use xlink:href="#SimHei-5747" transform="translate(1900 0)"/>
     <use xlink:href="#SimHei-503c" transform="translate(2000 0)"/>
     <use xlink:href="#SimHei-4fee" transform="translate(2100 0)"/>
     <use xlink:href="#SimHei-6b63" transform="translate(2200 0)"/>
    </g>
   </g>
  </g>
 </g>
 <defs>
  <clipPath id="p301a6ac896">
   <rect x="46.36" y="23.873437" width="368.28" height="221.76"/>
  </clipPath>
 </defs>
</svg>
