<?xml version="1.0" encoding="utf-8" standalone="no"?>
<!DOCTYPE svg PUBLIC "-//W3C//DTD SVG 1.1//EN"
  "http://www.w3.org/Graphics/SVG/1.1/DTD/svg11.dtd">
<svg xmlns:xlink="http://www.w3.org/1999/xlink" width="410.308269pt" height="384.789pt" viewBox="0 0 410.308269 384.789" xmlns="http://www.w3.org/2000/svg" version="1.1">
 <metadata>
  <rdf:RDF xmlns:dc="http://purl.org/dc/elements/1.1/" xmlns:cc="http://creativecommons.org/ns#" xmlns:rdf="http://www.w3.org/1999/02/22-rdf-syntax-ns#">
   <cc:Work>
    <dc:type rdf:resource="http://purl.org/dc/dcmitype/StillImage"/>
    <dc:date>2026-04-30T03:43:38.370754</dc:date>
    <dc:format>image/svg+xml</dc:format>
    <dc:creator>
     <cc:Agent>
      <dc:title>Matplotlib v3.10.8, https://matplotlib.org/</dc:title>
     </cc:Agent>
    </dc:creator>
   </cc:Work>
  </rdf:RDF>
 </metadata>
 <defs>
  <style type="text/css">*{stroke-linejoin: round; stroke-linecap: butt}</style>
 </defs>
 <g id="figure_1">
  <g id="patch_1">
   <path d="M 0 384.789 
L 410.308269 384.789 
L 410.308269 0 
L 0 0 
z
" style="fill: #ffffff"/>
  </g>
  <g id="axes_1">
   <g id="FillBetweenPolyCollection_1">
    <path d="M 44.151438 -7.761715 
L 44.151438 150.601592 
L 45.210725 151.660879 
L 46.270011 152.720165 
L 47.329297 153.779451 
L 48.388584 154.838738 
L 49.44787 155.898024 
L 50.507156 156.95731 
L 51.566443 158.016597 
L 52.625729 159.075883 
L 53.685016 160.135169 
L 54.744302 161.194456 
L 55.803588 162.253742 
L 56.862875 163.313028 
L 57.922161 164.372315 
L 58.981447 165.431601 
L 60.040734 166.490887 
L 61.10002 167.550174 
L 62.159306 168.60946 
L 63.218593 169.668746 
L 64.277879 170.728033 
L 65.337165 171.787319 
L 66.396452 172.846605 
L 67.455738 173.905892 
L 68.515024 174.965178 
L 69.574311 176.024464 
L 70.633597 177.083751 
L 71.692883 178.143037 
L 72.75217 179.202323 
L 73.811456 180.26161 
L 74.870742 181.320896 
L 75.930029 182.380182 
L 76.989315 183.439469 
L 78.048601 184.498755 
L 79.107888 185.558041 
L 80.167174 186.617328 
L 81.22646 187.676614 
L 82.285747 188.735901 
L 83.345033 189.795187 
L 84.404319 190.854473 
L 85.463606 191.91376 
L 86.522892 192.973046 
L 87.582178 194.032332 
L 88.641465 195.091619 
L 89.700751 196.150905 
L 90.760037 197.210191 
L 91.819324 198.269478 
L 92.87861 199.328764 
L 93.937896 200.38805 
L 94.997183 201.447337 
L 96.056469 202.506623 
L 97.115755 203.565909 
L 98.175042 204.625196 
L 99.234328 205.684482 
L 100.293614 206.743768 
L 101.352901 207.803055 
L 102.412187 208.862341 
L 103.471473 209.921627 
L 104.53076 210.980914 
L 105.590046 212.0402 
L 106.649332 213.099486 
L 107.708619 214.158773 
L 108.767905 215.218059 
L 109.827191 216.277345 
L 110.886478 217.336632 
L 111.945764 218.395918 
L 113.005051 219.455204 
L 114.064337 220.514491 
L 115.123623 221.573777 
L 116.18291 222.633063 
L 117.242196 223.69235 
L 118.301482 224.751636 
L 119.360769 225.810922 
L 120.420055 226.870209 
L 121.479341 227.929495 
L 122.538628 228.988781 
L 123.597914 230.048068 
L 124.6572 231.107354 
L 125.716487 232.16664 
L 126.775773 233.225927 
L 127.835059 234.285213 
L 128.894346 235.344499 
L 129.953632 236.403786 
L 131.012918 237.463072 
L 132.072205 238.522358 
L 133.131491 239.581645 
L 134.190777 240.640931 
L 135.250064 241.700217 
L 136.30935 242.759504 
L 137.368636 243.81879 
L 138.427923 244.878076 
L 139.487209 245.937363 
L 140.546495 246.996649 
L 141.605782 248.055936 
L 142.665068 249.115222 
L 143.724354 250.174508 
L 144.783641 251.233795 
L 145.842927 252.293081 
L 146.902213 253.352367 
L 147.9615 254.411654 
L 149.020786 255.47094 
L 150.080072 256.530226 
L 151.139359 257.589513 
L 152.198645 258.648799 
L 153.257931 259.708085 
L 154.317218 260.767372 
L 155.376504 261.826658 
L 156.43579 262.885944 
L 157.495077 263.945231 
L 158.554363 265.004517 
L 159.613649 266.063803 
L 160.672936 267.12309 
L 161.732222 268.182376 
L 162.791508 269.241662 
L 163.850795 270.300949 
L 164.910081 271.360235 
L 165.969367 272.419521 
L 167.028654 273.478808 
L 168.08794 274.538094 
L 169.147226 275.59738 
L 170.206513 276.656667 
L 171.265799 277.715953 
L 172.325085 278.775239 
L 173.384372 279.834526 
L 174.443658 280.893812 
L 175.502945 281.953098 
L 176.562231 283.012385 
L 177.621517 284.071671 
L 178.680804 285.130957 
L 179.74009 286.190244 
L 180.799376 287.24953 
L 181.858663 288.308816 
L 182.917949 289.368103 
L 183.977235 290.427389 
L 185.036522 291.486675 
L 186.095808 292.545962 
L 187.155094 293.605248 
L 188.214381 294.664534 
L 189.273667 295.723821 
L 190.332953 296.783107 
L 191.39224 297.842393 
L 192.451526 298.90168 
L 193.510812 299.960966 
L 194.570099 301.020252 
L 195.629385 302.079539 
L 196.688671 303.138825 
L 197.747958 304.198111 
L 198.807244 305.257398 
L 199.86653 306.316684 
L 200.925817 307.37597 
L 201.985103 308.435257 
L 203.044389 309.494543 
L 204.103676 310.55383 
L 205.162962 311.613116 
L 206.222248 312.672402 
L 207.281535 313.731689 
L 208.340821 314.790975 
L 209.400107 315.850261 
L 210.459394 316.909548 
L 211.51868 317.968834 
L 212.577966 319.02812 
L 213.637253 320.087407 
L 214.696539 321.146693 
L 215.755825 322.205979 
L 216.815112 323.265266 
L 217.874398 324.324552 
L 218.933684 325.383838 
L 219.992971 326.443125 
L 221.052257 327.502411 
L 222.111543 328.561697 
L 223.17083 329.620984 
L 224.230116 330.68027 
L 225.289402 331.739556 
L 226.348689 332.798843 
L 227.407975 333.858129 
L 228.467261 334.917415 
L 229.526548 335.976702 
L 230.585834 337.035988 
L 231.64512 338.095274 
L 232.704407 339.154561 
L 233.763693 340.213847 
L 234.822979 341.273133 
L 235.882266 342.33242 
L 236.941552 343.391706 
L 238.000839 344.450992 
L 239.060125 345.510279 
L 240.119411 346.569565 
L 241.178698 347.628851 
L 242.237984 348.688138 
L 243.29727 349.747424 
L 244.356557 350.80671 
L 245.415843 351.865997 
L 246.475129 352.925283 
L 247.534416 353.984569 
L 248.593702 355.043856 
L 249.652988 356.103142 
L 250.712275 357.162428 
L 251.771561 358.221715 
L 252.830847 359.281001 
L 253.890134 360.340287 
L 254.94942 361.399574 
L 256.008706 362.45886 
L 257.067993 363.518146 
L 258.127279 364.577433 
L 259.186565 365.636719 
L 260.245852 366.696005 
L 261.305138 367.755292 
L 262.364424 368.814578 
L 263.423711 369.873864 
L 264.482997 370.933151 
L 265.542283 371.992437 
L 266.60157 373.051724 
L 267.660856 374.11101 
L 268.720142 375.170296 
L 269.779429 376.229583 
L 270.838715 377.288869 
L 271.898001 378.348155 
L 272.957288 379.407442 
L 274.016574 380.466728 
L 275.07586 381.526014 
L 276.135147 382.585301 
L 277.194433 383.644587 
L 278.253719 384.703873 
L 279.313006 385.76316 
L 280.372292 386.822446 
L 281.431578 387.881732 
L 282.490865 388.941019 
L 283.550151 390.000305 
L 284.609437 391.059591 
L 285.668724 392.118878 
L 286.72801 393.178164 
L 287.787296 394.23745 
L 288.846583 395.296737 
L 289.905869 396.356023 
L 290.965155 397.415309 
L 292.024442 398.474596 
L 293.083728 399.533882 
L 294.143014 400.593168 
L 295.202301 401.652455 
L 296.261587 402.711741 
L 297.320874 403.771027 
L 298.38016 404.830314 
L 299.439446 405.8896 
L 300.498733 406.948886 
L 301.558019 408.008173 
L 302.617305 409.067459 
L 303.676592 410.126745 
L 304.735878 411.186032 
L 305.795164 412.245318 
L 306.854451 413.304604 
L 307.913737 414.363891 
L 308.973023 415.423177 
L 310.03231 416.482463 
L 311.091596 417.54175 
L 312.150882 418.601036 
L 313.210169 419.660322 
L 314.269455 420.719609 
L 315.328741 421.778895 
L 316.388028 422.838181 
L 317.447314 423.897468 
L 318.5066 424.956754 
L 319.565887 426.01604 
L 320.625173 427.075327 
L 321.684459 428.134613 
L 322.743746 429.193899 
L 323.803032 430.253186 
L 324.862318 431.312472 
L 325.921605 432.371759 
L 326.980891 433.431045 
L 328.040177 434.490331 
L 329.099464 435.549618 
L 330.15875 436.608904 
L 331.218036 437.66819 
L 332.277323 438.727477 
L 333.336609 439.786763 
L 334.395895 440.846049 
L 335.455182 441.905336 
L 336.514468 442.964622 
L 337.573754 444.023908 
L 338.633041 445.083195 
L 339.692327 446.142481 
L 340.751613 447.201767 
L 341.8109 448.261054 
L 342.870186 449.32034 
L 343.929472 450.379626 
L 344.988759 451.438913 
L 346.048045 452.498199 
L 347.107331 453.557485 
L 348.166618 454.616772 
L 349.225904 455.676058 
L 350.28519 456.735344 
L 351.344477 457.794631 
L 352.403763 458.853917 
L 353.463049 459.913203 
L 354.522336 460.97249 
L 355.581622 462.031776 
L 356.640908 463.091062 
L 357.700195 464.150349 
L 358.759481 465.209635 
L 359.818768 466.268921 
L 360.878054 467.328208 
L 360.878054 308.9649 
L 360.878054 308.9649 
L 359.818768 307.905614 
L 358.759481 306.846327 
L 357.700195 305.787041 
L 356.640908 304.727755 
L 355.581622 303.668468 
L 354.522336 302.609182 
L 353.463049 301.549896 
L 352.403763 300.490609 
L 351.344477 299.431323 
L 350.28519 298.372037 
L 349.225904 297.31275 
L 348.166618 296.253464 
L 347.107331 295.194178 
L 346.048045 294.134891 
L 344.988759 293.075605 
L 343.929472 292.016319 
L 342.870186 290.957032 
L 341.8109 289.897746 
L 340.751613 288.83846 
L 339.692327 287.779173 
L 338.633041 286.719887 
L 337.573754 285.660601 
L 336.514468 284.601314 
L 335.455182 283.542028 
L 334.395895 282.482742 
L 333.336609 281.423455 
L 332.277323 280.364169 
L 331.218036 279.304883 
L 330.15875 278.245596 
L 329.099464 277.18631 
L 328.040177 276.127023 
L 326.980891 275.067737 
L 325.921605 274.008451 
L 324.862318 272.949164 
L 323.803032 271.889878 
L 322.743746 270.830592 
L 321.684459 269.771305 
L 320.625173 268.712019 
L 319.565887 267.652733 
L 318.5066 266.593446 
L 317.447314 265.53416 
L 316.388028 264.474874 
L 315.328741 263.415587 
L 314.269455 262.356301 
L 313.210169 261.297015 
L 312.150882 260.237728 
L 311.091596 259.178442 
L 310.03231 258.119156 
L 308.973023 257.059869 
L 307.913737 256.000583 
L 306.854451 254.941297 
L 305.795164 253.88201 
L 304.735878 252.822724 
L 303.676592 251.763438 
L 302.617305 250.704151 
L 301.558019 249.644865 
L 300.498733 248.585579 
L 299.439446 247.526292 
L 298.38016 246.467006 
L 297.320874 245.40772 
L 296.261587 244.348433 
L 295.202301 243.289147 
L 294.143014 242.229861 
L 293.083728 241.170574 
L 292.024442 240.111288 
L 290.965155 239.052002 
L 289.905869 237.992715 
L 288.846583 236.933429 
L 287.787296 235.874143 
L 286.72801 234.814856 
L 285.668724 233.75557 
L 284.609437 232.696284 
L 283.550151 231.636997 
L 282.490865 230.577711 
L 281.431578 229.518425 
L 280.372292 228.459138 
L 279.313006 227.399852 
L 278.253719 226.340566 
L 277.194433 225.281279 
L 276.135147 224.221993 
L 275.07586 223.162707 
L 274.016574 222.10342 
L 272.957288 221.044134 
L 271.898001 219.984848 
L 270.838715 218.925561 
L 269.779429 217.866275 
L 268.720142 216.806989 
L 267.660856 215.747702 
L 266.60157 214.688416 
L 265.542283 213.629129 
L 264.482997 212.569843 
L 263.423711 211.510557 
L 262.364424 210.45127 
L 261.305138 209.391984 
L 260.245852 208.332698 
L 259.186565 207.273411 
L 258.127279 206.214125 
L 257.067993 205.154839 
L 256.008706 204.095552 
L 254.94942 203.036266 
L 253.890134 201.97698 
L 252.830847 200.917693 
L 251.771561 199.858407 
L 250.712275 198.799121 
L 249.652988 197.739834 
L 248.593702 196.680548 
L 247.534416 195.621262 
L 246.475129 194.561975 
L 245.415843 193.502689 
L 244.356557 192.443403 
L 243.29727 191.384116 
L 242.237984 190.32483 
L 241.178698 189.265544 
L 240.119411 188.206257 
L 239.060125 187.146971 
L 238.000839 186.087685 
L 236.941552 185.028398 
L 235.882266 183.969112 
L 234.822979 182.909826 
L 233.763693 181.850539 
L 232.704407 180.791253 
L 231.64512 179.731967 
L 230.585834 178.67268 
L 229.526548 177.613394 
L 228.467261 176.554108 
L 227.407975 175.494821 
L 226.348689 174.435535 
L 225.289402 173.376249 
L 224.230116 172.316962 
L 223.17083 171.257676 
L 222.111543 170.19839 
L 221.052257 169.139103 
L 219.992971 168.079817 
L 218.933684 167.020531 
L 217.874398 165.961244 
L 216.815112 164.901958 
L 215.755825 163.842672 
L 214.696539 162.783385 
L 213.637253 161.724099 
L 212.577966 160.664813 
L 211.51868 159.605526 
L 210.459394 158.54624 
L 209.400107 157.486954 
L 208.340821 156.427667 
L 207.281535 155.368381 
L 206.222248 154.309094 
L 205.162962 153.249808 
L 204.103676 152.190522 
L 203.044389 151.131235 
L 201.985103 150.071949 
L 200.925817 149.012663 
L 199.86653 147.953376 
L 198.807244 146.89409 
L 197.747958 145.834804 
L 196.688671 144.775517 
L 195.629385 143.716231 
L 194.570099 142.656945 
L 193.510812 141.597658 
L 192.451526 140.538372 
L 191.39224 139.479086 
L 190.332953 138.419799 
L 189.273667 137.360513 
L 188.214381 136.301227 
L 187.155094 135.24194 
L 186.095808 134.182654 
L 185.036522 133.123368 
L 183.977235 132.064081 
L 182.917949 131.004795 
L 181.858663 129.945509 
L 180.799376 128.886222 
L 179.74009 127.826936 
L 178.680804 126.76765 
L 177.621517 125.708363 
L 176.562231 124.649077 
L 175.502945 123.589791 
L 174.443658 122.530504 
L 173.384372 121.471218 
L 172.325085 120.411932 
L 171.265799 119.352645 
L 170.206513 118.293359 
L 169.147226 117.234073 
L 168.08794 116.174786 
L 167.028654 115.1155 
L 165.969367 114.056214 
L 164.910081 112.996927 
L 163.850795 111.937641 
L 162.791508 110.878355 
L 161.732222 109.819068 
L 160.672936 108.759782 
L 159.613649 107.700496 
L 158.554363 106.641209 
L 157.495077 105.581923 
L 156.43579 104.522637 
L 155.376504 103.46335 
L 154.317218 102.404064 
L 153.257931 101.344778 
L 152.198645 100.285491 
L 151.139359 99.226205 
L 150.080072 98.166919 
L 149.020786 97.107632 
L 147.9615 96.048346 
L 146.902213 94.98906 
L 145.842927 93.929773 
L 144.783641 92.870487 
L 143.724354 91.8112 
L 142.665068 90.751914 
L 141.605782 89.692628 
L 140.546495 88.633341 
L 139.487209 87.574055 
L 138.427923 86.514769 
L 137.368636 85.455482 
L 136.30935 84.396196 
L 135.250064 83.33691 
L 134.190777 82.277623 
L 133.131491 81.218337 
L 132.072205 80.159051 
L 131.012918 79.099764 
L 129.953632 78.040478 
L 128.894346 76.981192 
L 127.835059 75.921905 
L 126.775773 74.862619 
L 125.716487 73.803333 
L 124.6572 72.744046 
L 123.597914 71.68476 
L 122.538628 70.625474 
L 121.479341 69.566187 
L 120.420055 68.506901 
L 119.360769 67.447615 
L 118.301482 66.388328 
L 117.242196 65.329042 
L 116.18291 64.269756 
L 115.123623 63.210469 
L 114.064337 62.151183 
L 113.005051 61.091897 
L 111.945764 60.03261 
L 110.886478 58.973324 
L 109.827191 57.914038 
L 108.767905 56.854751 
L 107.708619 55.795465 
L 106.649332 54.736179 
L 105.590046 53.676892 
L 104.53076 52.617606 
L 103.471473 51.55832 
L 102.412187 50.499033 
L 101.352901 49.439747 
L 100.293614 48.380461 
L 99.234328 47.321174 
L 98.175042 46.261888 
L 97.115755 45.202602 
L 96.056469 44.143315 
L 94.997183 43.084029 
L 93.937896 42.024743 
L 92.87861 40.965456 
L 91.819324 39.90617 
L 90.760037 38.846884 
L 89.700751 37.787597 
L 88.641465 36.728311 
L 87.582178 35.669025 
L 86.522892 34.609738 
L 85.463606 33.550452 
L 84.404319 32.491166 
L 83.345033 31.431879 
L 82.285747 30.372593 
L 81.22646 29.313306 
L 80.167174 28.25402 
L 79.107888 27.194734 
L 78.048601 26.135447 
L 76.989315 25.076161 
L 75.930029 24.016875 
L 74.870742 22.957588 
L 73.811456 21.898302 
L 72.75217 20.839016 
L 71.692883 19.779729 
L 70.633597 18.720443 
L 69.574311 17.661157 
L 68.515024 16.60187 
L 67.455738 15.542584 
L 66.396452 14.483298 
L 65.337165 13.424011 
L 64.277879 12.364725 
L 63.218593 11.305439 
L 62.159306 10.246152 
L 61.10002 9.186866 
L 60.040734 8.12758 
L 58.981447 7.068293 
L 57.922161 6.009007 
L 56.862875 4.949721 
L 55.803588 3.890434 
L 54.744302 2.831148 
L 53.685016 1.771862 
L 52.625729 0.712575 
L 51.566443 -0.346711 
L 50.507156 -1.405997 
L 49.44787 -2.465284 
L 48.388584 -3.52457 
L 47.329297 -4.583856 
L 46.270011 -5.643143 
L 45.210725 -6.702429 
L 44.151438 -7.761715 
z
" clip-path="url(#pe30ccc7b26)" style="fill: #808080; fill-opacity: 0.12; stroke: #808080; stroke-opacity: 0.12"/>
   </g>
   <g id="line2d_1">
    <path d="M 33.593885 60.862385 
L 358.5205 385.789 
L 358.5205 385.789 
" clip-path="url(#pe30ccc7b26)" style="fill: none; stroke: #333333; stroke-width: 2.2; stroke-linecap: square"/>
   </g>
   <g id="line2d_2">
    <path d="M 50.913154 -1 
L 376.714385 324.801231 
L 376.714385 324.801231 
" clip-path="url(#pe30ccc7b26)" style="fill: none; stroke-dasharray: 5.92,2.56; stroke-dashoffset: 0; stroke: #888888; stroke-width: 1.6"/>
   </g>
   <g id="line2d_3">
    <path d="M 33.593885 140.044038 
L 279.338846 385.789 
L 279.338846 385.789 
" clip-path="url(#pe30ccc7b26)" style="fill: none; stroke-dasharray: 5.92,2.56; stroke-dashoffset: 0; stroke: #888888; stroke-width: 1.6"/>
   </g>
   <g id="patch_2">
    <path d="M 193.370805 217.812079 
Q 211.752211 199.430674 228.552478 182.630407 
" style="fill: none; stroke: #cc2222; stroke-width: 2; stroke-linecap: round"/>
    <path d="M 223.885573 184.186042 
L 228.552478 182.630407 
L 226.996843 187.297311 
" style="fill: none; stroke: #cc2222; stroke-width: 2; stroke-linecap: round"/>
   </g>
   <g id="text_1">
    <!-- $\mathbf{w}$ -->
    <g style="fill: #cc2222" transform="translate(236.826796 184.913642) scale(0.14 -0.14)">
     <defs>
      <path id="DejaVuSans-Bold-77" d="M 225 3500 
L 1313 3500 
L 1900 1088 
L 2491 3500 
L 3425 3500 
L 4013 1113 
L 4603 3500 
L 5691 3500 
L 4769 0 
L 3547 0 
L 2956 2406 
L 2369 0 
L 1147 0 
L 225 3500 
z
" transform="scale(0.015625)"/>
     </defs>
     <use xlink:href="#DejaVuSans-Bold-77" transform="translate(0 0.3125)"/>
    </g>
   </g>
   <g id="patch_3">
    <path d="M 152.830405 180.098905 
Q 191.959072 219.227572 231.087739 258.356239 
" style="fill: none; stroke: #1a6b2a; stroke-width: 1.8; stroke-linecap: round"/>
    <path d="M 154.38604 184.76581 
L 152.830405 180.098905 
L 157.49731 181.65454 
" style="fill: none; stroke: #1a6b2a; stroke-width: 1.8; stroke-linecap: round"/>
    <path d="M 229.532104 253.689334 
L 231.087739 258.356239 
L 226.420834 256.800604 
" style="fill: none; stroke: #1a6b2a; stroke-width: 1.8; stroke-linecap: round"/>
   </g>
   <g id="text_2">
    <!-- $\dfrac{2}{||\mathbf{w}||}$ -->
    <g style="fill: #1a6b2a" transform="translate(205.390465 224.504469) scale(0.13 -0.13)">
     <defs>
      <path id="DejaVuSans-32" d="M 1228 531 
L 3431 531 
L 3431 0 
L 469 0 
L 469 531 
Q 828 903 1448 1529 
Q 2069 2156 2228 2338 
Q 2531 2678 2651 2914 
Q 2772 3150 2772 3378 
Q 2772 3750 2511 3984 
Q 2250 4219 1831 4219 
Q 1534 4219 1204 4116 
Q 875 4013 500 3803 
L 500 4441 
Q 881 4594 1212 4672 
Q 1544 4750 1819 4750 
Q 2544 4750 2975 4387 
Q 3406 4025 3406 3419 
Q 3406 3131 3298 2873 
Q 3191 2616 2906 2266 
Q 2828 2175 2409 1742 
Q 1991 1309 1228 531 
z
" transform="scale(0.015625)"/>
      <path id="DejaVuSans-7c" d="M 1344 4891 
L 1344 -1509 
L 813 -1509 
L 813 4891 
L 1344 4891 
z
" transform="scale(0.015625)"/>
     </defs>
     <use xlink:href="#DejaVuSans-32" transform="translate(82 44.78125)"/>
     <use xlink:href="#DejaVuSans-7c" transform="translate(0 -62.890625)"/>
     <use xlink:href="#DejaVuSans-7c" transform="translate(33.691406 -62.890625)"/>
     <use xlink:href="#DejaVuSans-Bold-77" transform="translate(67.382812 -62.890625)"/>
     <use xlink:href="#DejaVuSans-7c" transform="translate(159.765625 -62.890625)"/>
     <use xlink:href="#DejaVuSans-7c" transform="translate(193.457031 -62.890625)"/>
     <path d="M 0 19.78125 
L 0 26.03125 
L 227.148438 26.03125 
L 227.148438 19.78125 
L 0 19.78125 
z
"/>
    </g>
   </g>
   <g id="text_3">
    <!-- 图 4  间隔宽度的几何含义 -->
    <g transform="translate(139.154135 16.1375) scale(0.11 -0.11)">
     <defs>
      <path id="SimHei-56fe" d="M 5800 4975 
Q 5775 4350 5775 3600 
L 5775 925 
Q 5775 150 5800 -600 
L 5300 -600 
L 5300 -275 
L 1125 -275 
L 1125 -650 
L 625 -650 
Q 650 125 650 950 
L 650 3600 
Q 650 4325 625 4975 
L 5800 4975 
z
M 5300 150 
L 5300 4575 
L 1125 4575 
L 1125 150 
L 5300 150 
z
M 3225 4250 
Q 3075 4100 2950 3925 
L 4625 3925 
Q 4525 3700 4300 3375 
Q 4075 3050 3600 2600 
Q 4350 2225 5075 2150 
Q 4900 1925 4775 1675 
Q 3850 1950 3225 2350 
Q 2500 1875 1675 1650 
Q 1600 1875 1400 2075 
Q 2200 2200 2875 2600 
Q 2525 2925 2375 3150 
Q 2150 2900 1900 2650 
Q 1725 2850 1525 2950 
Q 1950 3300 2250 3737 
Q 2550 4175 2675 4475 
Q 2925 4350 3225 4250 
z
M 2450 1275 
Q 3550 950 4100 725 
Q 3975 525 3850 300 
Q 2825 725 2275 850 
Q 2375 1050 2450 1275 
z
M 2925 2050 
Q 3775 1700 4075 1600 
Q 3950 1400 3850 1150 
Q 3000 1550 2700 1650 
Q 2825 1825 2925 2050 
z
M 2625 3450 
Q 3000 3025 3275 2850 
Q 3600 3100 3875 3525 
L 2675 3525 
L 2625 3450 
z
" transform="scale(0.015625)"/>
      <path id="SimHei-20" transform="scale(0.015625)"/>
      <path id="SimHei-34" d="M 2000 1100 
L 75 1100 
L 75 1525 
L 2100 4450 
L 2475 4450 
L 2475 1525 
L 3075 1525 
L 3075 1100 
L 2475 1100 
L 2475 150 
L 2000 150 
L 2000 1100 
z
M 2000 1525 
L 2000 3500 
L 600 1525 
L 2000 1525 
z
" transform="scale(0.015625)"/>
      <path id="SimHei-95f4" d="M 4450 3550 
Q 4425 3075 4425 2725 
L 4425 1400 
Q 4425 1075 4450 625 
L 1925 625 
Q 1950 1075 1950 1425 
L 1950 2725 
Q 1950 3075 1925 3550 
L 4450 3550 
z
M 5800 4875 
Q 5775 4400 5775 3925 
L 5775 250 
Q 5800 -325 5462 -450 
Q 5125 -575 4725 -625 
Q 4700 -325 4525 -25 
Q 5000 -50 5137 25 
Q 5275 100 5275 350 
L 5275 4450 
L 3775 4450 
Q 3175 4450 2650 4425 
L 2650 4900 
Q 3175 4875 3775 4875 
L 5800 4875 
z
M 550 -525 
Q 600 -25 600 525 
L 600 3150 
Q 600 3675 550 4025 
L 1125 4025 
Q 1100 3650 1100 3300 
L 1100 500 
Q 1100 0 1125 -525 
L 550 -525 
z
M 3950 1025 
L 3950 1950 
L 2425 1950 
L 2425 1025 
L 3950 1025 
z
M 3950 2350 
L 3950 3150 
L 2425 3150 
L 2425 2350 
L 3950 2350 
z
M 1525 5300 
Q 1750 5000 2225 4350 
Q 1950 4225 1700 4075 
Q 1450 4575 1075 5025 
Q 1350 5225 1525 5300 
z
" transform="scale(0.015625)"/>
      <path id="SimHei-9694" d="M 900 4575 
L 900 -475 
L 400 -475 
Q 425 175 425 850 
L 425 3900 
Q 425 4475 400 4950 
L 2325 4950 
Q 2225 4725 2062 4187 
Q 1900 3650 1750 3125 
Q 2150 2500 2262 2125 
Q 2375 1750 2300 1437 
Q 2225 1125 1925 975 
Q 1625 825 1325 775 
Q 1275 1000 1100 1325 
Q 1475 1325 1662 1412 
Q 1850 1500 1837 1812 
Q 1825 2125 1650 2450 
Q 1475 2775 1225 3075 
Q 1575 4050 1700 4575 
L 900 4575 
z
M 6025 2425 
Q 6000 2100 6000 1600 
L 6000 175 
Q 6000 -200 5762 -312 
Q 5525 -425 5050 -475 
Q 5050 -200 4875 75 
Q 5275 50 5387 75 
Q 5500 100 5525 300 
L 5525 2050 
L 2975 2050 
L 2975 -425 
L 2475 -425 
Q 2500 -75 2500 975 
Q 2500 2050 2475 2425 
L 6025 2425 
z
M 5575 4150 
Q 5550 3850 5550 3550 
Q 5550 3250 5575 2875 
L 2825 2875 
Q 2850 3250 2850 3550 
Q 2850 3850 2825 4150 
L 5575 4150 
z
M 5125 1825 
Q 5025 1650 4937 1475 
Q 4850 1300 4775 1125 
Q 4975 1125 5300 1150 
L 5300 700 
Q 5025 725 4725 725 
L 4425 725 
Q 4425 125 4450 -175 
L 3925 -175 
Q 3950 125 3950 725 
L 3850 725 
Q 3500 725 3225 700 
L 3225 1150 
Q 3600 1125 3875 1125 
L 4375 1125 
Q 4425 1300 4500 1500 
Q 4575 1700 4600 2000 
L 5125 1825 
z
M 5250 4950 
Q 5700 4950 6025 4975 
L 6025 4525 
Q 5700 4550 5275 4550 
L 3600 4550 
Q 2975 4550 2550 4525 
L 2550 4975 
Q 3000 4950 3600 4950 
L 5250 4950 
z
M 5075 3250 
L 5075 3775 
L 3350 3775 
L 3350 3250 
L 5075 3250 
z
M 3700 1150 
Q 3525 1475 3350 1725 
Q 3500 1800 3750 1950 
L 4100 1350 
Q 3900 1225 3700 1150 
z
" transform="scale(0.015625)"/>
      <path id="SimHei-5bbd" d="M 2225 3525 
Q 2225 3700 2200 3925 
L 2700 3925 
Q 2675 3700 2675 3525 
L 3650 3525 
Q 3650 3675 3625 3950 
L 4125 3950 
Q 4100 3675 4100 3525 
Q 4625 3525 5100 3550 
L 5100 3075 
Q 4575 3125 4100 3125 
L 4100 2475 
L 5025 2475 
Q 5000 2175 5000 1875 
L 5000 1475 
Q 5000 1225 5025 825 
L 4525 825 
L 4525 2100 
L 1800 2100 
L 1800 750 
L 1300 750 
Q 1325 1200 1325 1450 
L 1325 1850 
Q 1325 2175 1300 2475 
L 2225 2475 
L 2225 3125 
L 1875 3125 
Q 1700 3125 1225 3050 
L 1225 3550 
Q 1700 3525 1875 3525 
L 2225 3525 
z
M 5375 3500 
L 5375 4175 
L 950 4175 
L 950 3400 
L 425 3400 
Q 450 3725 450 3950 
Q 450 4200 425 4575 
L 3025 4575 
Q 2975 4700 2725 5125 
Q 3050 5200 3300 5300 
Q 3500 4900 3625 4575 
L 5900 4575 
Q 5875 4250 5875 3975 
Q 5875 3700 5900 3500 
L 5375 3500 
z
M 3325 1825 
Q 3100 900 2850 462 
Q 2600 25 2112 -237 
Q 1625 -500 650 -700 
Q 550 -350 400 -100 
Q 1025 -75 1450 37 
Q 1875 150 2150 387 
Q 2425 625 2550 987 
Q 2675 1350 2725 1950 
Q 3100 1850 3325 1825 
z
M 3975 1250 
Q 3950 925 3950 675 
L 3950 150 
Q 3950 -75 4200 -100 
L 4950 -100 
Q 5250 -100 5400 0 
Q 5550 100 5650 550 
Q 5875 400 6125 300 
Q 5925 -500 5175 -525 
L 4025 -525 
Q 3500 -500 3450 -25 
L 3450 725 
Q 3450 925 3425 1250 
L 3975 1250 
z
M 3650 2475 
L 3650 3125 
L 2675 3125 
L 2675 2475 
L 3650 2475 
z
" transform="scale(0.015625)"/>
      <path id="SimHei-5ea6" d="M 1750 1675 
Q 2450 1650 2875 1650 
L 5200 1650 
Q 4975 1250 4650 850 
Q 4325 450 4025 200 
Q 4350 50 4950 -50 
Q 5550 -150 6100 -150 
Q 5950 -300 5825 -650 
Q 5100 -550 4550 -412 
Q 4000 -275 3625 -100 
Q 3100 -325 2587 -462 
Q 2075 -600 1525 -675 
Q 1450 -475 1225 -250 
Q 1675 -250 2250 -125 
Q 2825 0 3250 200 
Q 2825 550 2400 1275 
L 1750 1250 
L 1750 1675 
z
M 2975 5075 
Q 3250 5150 3475 5250 
Q 3625 4975 3775 4525 
L 4700 4525 
Q 4975 4525 5700 4550 
L 5700 4100 
Q 5000 4125 4650 4125 
L 1375 4125 
Q 1375 3000 1350 2312 
Q 1325 1625 1212 950 
Q 1100 275 725 -525 
Q 500 -375 250 -300 
Q 650 400 762 1075 
Q 875 1750 887 2800 
Q 900 3850 875 4525 
L 3200 4525 
Q 3100 4850 2975 5075 
z
M 2475 3300 
Q 2475 3700 2450 3925 
L 2975 3925 
Q 2950 3725 2950 3300 
L 4300 3300 
Q 4300 3700 4275 3950 
L 4800 3950 
Q 4775 3650 4775 3300 
Q 5325 3300 5725 3325 
L 5725 2900 
Q 5350 2925 4775 2925 
Q 4775 2250 4800 1950 
L 2450 1950 
Q 2475 2350 2475 2925 
Q 2175 2925 1600 2900 
L 1600 3325 
Q 2175 3300 2475 3300 
z
M 4300 2350 
L 4300 2925 
L 2950 2925 
L 2950 2350 
L 4300 2350 
z
M 2875 1275 
Q 3200 775 3650 425 
Q 4025 700 4425 1275 
L 2900 1275 
L 2875 1275 
z
" transform="scale(0.015625)"/>
      <path id="SimHei-7684" d="M 2100 4975 
Q 1975 4750 1750 3950 
L 2875 3950 
Q 2850 3525 2850 2875 
L 2850 675 
Q 2850 300 2875 -400 
L 2375 -400 
L 2375 100 
L 1100 100 
L 1100 -450 
L 600 -450 
Q 625 350 625 550 
L 625 2850 
Q 625 3525 600 3950 
L 1325 3950 
Q 1450 4525 1525 5150 
Q 1875 5025 2100 4975 
z
M 5825 3075 
Q 5800 1550 5700 175 
Q 5650 -275 5225 -425 
Q 4800 -575 4275 -625 
Q 4250 -350 4050 -50 
Q 4550 -75 4837 -25 
Q 5125 25 5200 200 
Q 5275 375 5312 1225 
Q 5350 2075 5375 3600 
L 3925 3600 
Q 3725 3125 3350 2475 
Q 3175 2650 2925 2750 
Q 3150 3050 3350 3475 
Q 3550 3900 3700 4400 
Q 3850 4900 3875 5175 
Q 4225 5025 4475 4950 
Q 4350 4750 4262 4512 
Q 4175 4275 4075 4050 
L 5850 4050 
Q 5825 3525 5825 3075 
z
M 2375 525 
L 2375 1850 
L 1100 1850 
L 1100 525 
L 2375 525 
z
M 2375 2275 
L 2375 3525 
L 1100 3525 
L 1100 2275 
L 2375 2275 
z
M 4350 2050 
Q 4500 1750 4700 1275 
Q 4525 1200 4225 1025 
Q 4050 1500 3900 1837 
Q 3750 2175 3600 2400 
Q 3775 2500 4050 2650 
L 4350 2050 
z
" transform="scale(0.015625)"/>
      <path id="SimHei-51e0" d="M 750 -625 
Q 600 -450 225 -175 
Q 850 175 1162 675 
Q 1475 1175 1612 1675 
Q 1750 2175 1750 3375 
Q 1750 4575 1725 4875 
L 4375 4875 
Q 4325 4500 4325 3800 
L 4325 450 
Q 4325 175 4750 175 
L 5100 175 
Q 5350 175 5412 325 
Q 5475 475 5550 1075 
Q 5900 800 6150 775 
Q 5900 -175 5687 -250 
Q 5475 -325 5200 -325 
L 4475 -325 
Q 3800 -325 3800 300 
L 3800 4400 
L 2275 4400 
Q 2275 3075 2262 2625 
Q 2250 2175 2150 1662 
Q 2050 1150 1850 737 
Q 1650 325 1362 12 
Q 1075 -300 750 -625 
z
" transform="scale(0.015625)"/>
      <path id="SimHei-4f55" d="M 4100 3425 
Q 4075 3000 4075 2100 
Q 4075 1200 4100 875 
L 3625 875 
L 3625 1125 
L 2750 1125 
L 2750 700 
L 2275 700 
Q 2300 1350 2300 2175 
Q 2300 3000 2275 3425 
L 4100 3425 
z
M 5475 4700 
Q 5925 4700 6100 4725 
L 6100 4225 
Q 5875 4275 5375 4275 
L 5375 150 
Q 5375 -275 5137 -400 
Q 4900 -525 4375 -600 
Q 4325 -300 4150 25 
Q 4600 0 4762 50 
Q 4925 100 4925 350 
L 4925 4275 
L 3100 4275 
Q 2500 4275 2100 4225 
L 2100 4725 
Q 2400 4700 3025 4700 
L 5475 4700 
z
M 975 -525 
Q 1025 0 1025 750 
L 1025 3225 
Q 850 2825 525 2350 
Q 375 2550 175 2700 
Q 500 3100 862 3812 
Q 1225 4525 1400 5275 
Q 1600 5150 2000 4975 
Q 1825 4825 1475 4025 
L 1475 700 
Q 1475 25 1500 -525 
L 975 -525 
z
M 3625 1550 
L 3625 3000 
L 2750 3000 
L 2750 1550 
L 3625 1550 
z
" transform="scale(0.015625)"/>
      <path id="SimHei-542b" d="M 4525 -575 
L 4525 -200 
L 1850 -200 
L 1850 -625 
L 1325 -625 
Q 1350 -275 1350 275 
Q 1350 850 1325 1450 
L 5050 1450 
Q 5025 1175 5025 425 
Q 5025 -300 5050 -575 
L 4525 -575 
z
M 3350 4850 
Q 3625 4525 4325 4062 
Q 5025 3600 6150 3300 
Q 5850 3075 5750 2750 
Q 5050 3025 4337 3462 
Q 3625 3900 3125 4500 
Q 2500 3800 1912 3387 
Q 1325 2975 625 2650 
Q 550 2850 275 3100 
Q 1100 3325 1862 3925 
Q 2625 4525 2975 5275 
Q 3325 5150 3525 5050 
L 3350 4850 
z
M 4525 200 
L 4525 1050 
L 1850 1050 
L 1850 200 
L 4525 200 
z
M 4775 2875 
Q 4525 2600 4200 2200 
Q 3875 1800 3600 1500 
Q 3425 1675 3250 1750 
Q 3525 2025 3875 2500 
L 1975 2500 
Q 1750 2500 1350 2475 
L 1350 2900 
Q 1750 2875 1975 2875 
L 4775 2875 
z
M 3050 3925 
Q 3425 3400 3475 3225 
Q 3375 3200 3050 3025 
Q 2850 3475 2675 3700 
Q 2925 3800 3050 3925 
z
" transform="scale(0.015625)"/>
      <path id="SimHei-4e49" d="M 3550 1175 
Q 4450 375 6025 -25 
Q 5775 -300 5675 -625 
Q 4275 -175 3125 800 
Q 2250 0 675 -625 
Q 525 -325 350 -100 
Q 1750 250 2775 1150 
Q 1875 2175 1150 4350 
Q 1325 4350 1625 4550 
Q 2275 2500 3175 1550 
Q 4100 2625 4675 4675 
Q 5050 4500 5250 4450 
Q 5075 4025 4637 2987 
Q 4200 1950 3550 1175 
z
M 2975 5175 
Q 3425 4350 3675 3650 
Q 3375 3550 3175 3450 
Q 2925 4175 2525 4950 
Q 2750 5025 2975 5175 
z
" transform="scale(0.015625)"/>
     </defs>
     <use xlink:href="#SimHei-56fe"/>
     <use xlink:href="#SimHei-20" transform="translate(100 0)"/>
     <use xlink:href="#SimHei-34" transform="translate(150 0)"/>
     <use xlink:href="#SimHei-20" transform="translate(200 0)"/>
     <use xlink:href="#SimHei-20" transform="translate(250 0)"/>
     <use xlink:href="#SimHei-95f4" transform="translate(300 0)"/>
     <use xlink:href="#SimHei-9694" transform="translate(400 0)"/>
     <use xlink:href="#SimHei-5bbd" transform="translate(500 0)"/>
     <use xlink:href="#SimHei-5ea6" transform="translate(600 0)"/>
     <use xlink:href="#SimHei-7684" transform="translate(700 0)"/>
     <use xlink:href="#SimHei-51e0" transform="translate(800 0)"/>
     <use xlink:href="#SimHei-4f55" transform="translate(900 0)"/>
     <use xlink:href="#SimHei-542b" transform="translate(1000 0)"/>
     <use xlink:href="#SimHei-4e49" transform="translate(1100 0)"/>
    </g>
    <!-- 间隔 = 两支撑超平面之间的距离 $= 2/||\mathbf{w}||$ -->
    <g transform="translate(98.014135 28.4685) scale(0.11 -0.11)">
     <defs>
      <path id="SimHei-3d" d="M 2975 2900 
L 125 2900 
L 125 3300 
L 2975 3300 
L 2975 2900 
z
M 2975 1375 
L 125 1375 
L 125 1775 
L 2975 1775 
L 2975 1375 
z
" transform="scale(0.015625)"/>
      <path id="SimHei-4e24" d="M 1700 825 
Q 1575 975 1325 1175 
Q 2025 1850 2250 3075 
L 1175 3075 
L 1175 -500 
L 675 -500 
Q 700 175 700 675 
L 700 2650 
Q 700 2975 675 3500 
L 2300 3500 
Q 2325 3925 2350 4475 
L 1125 4475 
Q 825 4475 525 4450 
L 525 4900 
Q 825 4875 1100 4875 
L 5250 4875 
Q 5500 4875 5975 4900 
L 5975 4450 
Q 5625 4475 5275 4475 
L 4300 4475 
Q 4300 4100 4250 3500 
L 5750 3500 
Q 5725 3050 5725 2725 
L 5725 250 
Q 5725 -175 5462 -300 
Q 5200 -425 4475 -500 
Q 4400 -150 4225 75 
Q 4975 50 5112 125 
Q 5250 200 5250 500 
L 5250 3075 
L 4200 3075 
Q 4150 2650 4050 2275 
Q 4750 1725 5125 1400 
Q 4900 1200 4750 1000 
Q 4500 1325 3950 1800 
Q 3625 1000 3250 475 
Q 3000 650 2775 725 
Q 3075 1050 3350 1637 
Q 3625 2225 3725 3075 
L 2725 3075 
Q 2650 2700 2575 2425 
Q 3075 2000 3275 1750 
Q 3100 1600 2900 1400 
Q 2625 1800 2425 2000 
Q 2150 1350 1700 825 
z
M 3775 3500 
Q 3800 4100 3800 4475 
L 2825 4475 
Q 2825 4100 2775 3500 
L 3775 3500 
z
" transform="scale(0.015625)"/>
      <path id="SimHei-652f" d="M 1175 2375 
L 1175 2775 
Q 1700 2750 2100 2750 
L 2950 2750 
L 2950 3750 
L 1575 3750 
Q 1125 3750 600 3725 
L 600 4200 
Q 1125 4175 1550 4175 
L 2950 4175 
Q 2950 4650 2925 5050 
L 3425 5050 
Q 3400 4650 3400 4175 
L 4900 4175 
Q 5300 4175 5800 4200 
L 5800 3725 
Q 5300 3750 4900 3750 
L 3400 3750 
L 3400 2750 
L 4950 2750 
Q 4650 2000 4312 1500 
Q 3975 1000 3625 675 
Q 4100 350 4712 200 
Q 5325 50 6000 50 
Q 5750 -275 5725 -475 
Q 4975 -400 4362 -175 
Q 3750 50 3225 400 
Q 2625 25 2000 -200 
Q 1375 -425 825 -525 
Q 750 -300 450 -50 
Q 1075 -25 1762 175 
Q 2450 375 2875 675 
Q 2225 1300 1775 2375 
L 1175 2375 
z
M 2250 2375 
Q 2675 1450 3250 950 
Q 3800 1350 4275 2375 
L 2250 2375 
z
" transform="scale(0.015625)"/>
      <path id="SimHei-6491" d="M 5775 1900 
Q 5475 1900 4375 1800 
L 4375 1425 
L 4925 1425 
Q 5400 1425 5775 1475 
L 5775 1050 
Q 5425 1075 4925 1075 
L 4375 1075 
L 4375 700 
L 5325 700 
Q 5675 725 6050 750 
L 6050 325 
Q 5675 350 5300 350 
L 4375 350 
L 4375 -25 
Q 4375 -375 4187 -475 
Q 4000 -575 3550 -650 
Q 3500 -400 3375 -150 
Q 3775 -175 3875 -150 
Q 3975 -125 3975 100 
L 3975 350 
L 2975 350 
Q 2525 350 2125 300 
L 2125 750 
Q 2525 725 2975 700 
L 3975 700 
L 3975 1075 
L 3375 1075 
Q 2975 1075 2500 1050 
L 2500 1475 
Q 2975 1425 3375 1425 
L 3975 1425 
L 3975 1750 
Q 3350 1725 2675 1700 
Q 2625 1875 2550 2050 
Q 3175 2025 4062 2100 
Q 4950 2175 5550 2350 
Q 5650 2125 5775 1900 
z
M 1150 4600 
Q 1150 4800 1125 5150 
L 1625 5150 
Q 1575 4850 1575 4575 
L 1575 3900 
Q 1800 3900 2175 3925 
L 2175 3525 
Q 1800 3550 1575 3550 
L 1575 2400 
Q 1875 2500 2175 2650 
Q 2175 2450 2200 2225 
Q 1800 2075 1575 1975 
L 1575 200 
Q 1575 -300 1325 -362 
Q 1075 -425 650 -500 
Q 625 -225 500 25 
Q 875 0 1012 25 
Q 1150 50 1150 325 
L 1150 1800 
Q 925 1725 400 1450 
Q 300 1775 200 1975 
Q 575 2050 1150 2250 
L 1150 3550 
L 925 3550 
Q 700 3550 375 3525 
L 375 3925 
Q 700 3900 1150 3900 
L 1150 4600 
z
M 5400 3550 
Q 5375 3225 5375 2950 
Q 5375 2700 5400 2450 
L 3025 2450 
Q 3050 2750 3050 3000 
Q 3050 3275 3025 3550 
L 5400 3550 
z
M 4425 5175 
Q 4375 4875 4375 4700 
L 4375 4225 
L 6050 4225 
Q 6025 4000 6025 3750 
Q 6025 3525 6050 3300 
L 5650 3300 
L 5650 3875 
L 2725 3875 
L 2725 3275 
L 2325 3275 
Q 2350 3550 2350 3775 
Q 2350 4000 2325 4225 
L 3975 4225 
L 3975 4675 
Q 3975 4850 3950 5175 
L 4425 5175 
z
M 4975 2800 
L 4975 3200 
L 3425 3200 
L 3425 2800 
L 4975 2800 
z
M 5675 4925 
Q 5375 4475 5275 4300 
Q 5025 4425 4875 4475 
Q 5050 4725 5250 5150 
Q 5425 5025 5675 4925 
z
M 3225 5075 
Q 3400 4800 3575 4475 
Q 3375 4375 3175 4250 
Q 3000 4600 2825 4850 
Q 3000 4950 3225 5075 
z
" transform="scale(0.015625)"/>
      <path id="SimHei-8d85" d="M 1750 2700 
Q 950 2700 475 2675 
L 475 3125 
Q 950 3100 1625 3100 
L 1625 3900 
Q 1075 3900 625 3875 
L 625 4350 
Q 1075 4325 1625 4325 
Q 1625 4750 1600 5200 
L 2100 5200 
Q 2075 4800 2075 4325 
Q 2500 4325 2925 4350 
L 2925 3875 
Q 2525 3900 2075 3900 
L 2075 3100 
Q 2550 3100 3075 3125 
L 3075 2900 
Q 3500 3150 3725 3575 
Q 3950 4000 3975 4450 
Q 3600 4450 3225 4425 
L 3225 4875 
Q 3600 4850 3900 4850 
L 5850 4850 
Q 5800 4525 5800 4200 
L 5750 3325 
Q 5725 2900 5462 2762 
Q 5200 2625 4725 2550 
Q 4675 2825 4525 3075 
Q 4925 3075 5087 3125 
Q 5250 3175 5275 3400 
L 5325 4450 
L 4475 4450 
Q 4375 3725 4112 3262 
Q 3850 2800 3450 2500 
Q 3350 2600 3075 2800 
L 3075 2675 
Q 2550 2700 2200 2700 
L 2200 1850 
Q 2525 1850 3000 1875 
L 3000 1400 
Q 2550 1425 2200 1425 
L 2200 300 
Q 2825 25 3925 0 
Q 5025 -25 6175 100 
Q 5950 -225 5925 -500 
Q 4925 -525 4250 -525 
Q 3575 -525 3025 -437 
Q 2475 -350 2000 -125 
Q 1525 100 1075 625 
Q 950 75 675 -475 
Q 425 -275 200 -175 
Q 475 225 575 637 
Q 675 1050 712 1387 
Q 750 1725 750 2200 
L 1350 2100 
Q 1225 1750 1175 1100 
Q 1400 800 1750 550 
L 1750 2700 
z
M 5800 2400 
Q 5775 1900 5775 1375 
Q 5775 850 5800 450 
L 3500 450 
Q 3525 775 3525 1325 
Q 3525 1900 3500 2400 
L 5800 2400 
z
M 5325 875 
L 5325 1975 
L 3975 1975 
L 3975 875 
L 5325 875 
z
" transform="scale(0.015625)"/>
      <path id="SimHei-5e73" d="M 4525 4825 
Q 4900 4825 5450 4850 
L 5450 4375 
Q 4925 4400 4525 4400 
L 3475 4400 
L 3475 2025 
L 5000 2025 
Q 5550 2025 6025 2050 
L 6025 1575 
Q 5550 1600 5000 1600 
L 3475 1600 
L 3475 450 
Q 3475 -100 3500 -600 
L 2925 -600 
Q 2950 -100 2950 450 
L 2950 1600 
L 1125 1600 
Q 775 1600 375 1575 
L 375 2050 
Q 775 2025 1175 2025 
L 2950 2025 
L 2950 4400 
L 1775 4400 
Q 1400 4400 875 4375 
L 875 4850 
Q 1400 4825 1750 4825 
L 4525 4825 
z
M 3925 2600 
Q 4500 3300 4900 4125 
Q 5150 3950 5400 3825 
Q 4775 2850 4350 2300 
Q 4150 2475 3925 2600 
z
M 1975 2350 
Q 1600 3100 1050 3725 
Q 1250 3875 1450 4050 
Q 2075 3300 2450 2725 
Q 2150 2500 1975 2350 
z
" transform="scale(0.015625)"/>
      <path id="SimHei-9762" d="M 5275 4850 
Q 5650 4850 5950 4875 
L 5950 4400 
Q 5600 4425 5275 4425 
L 3275 4425 
Q 3175 4200 2950 3575 
L 5525 3575 
Q 5500 3100 5500 2600 
L 5500 450 
Q 5500 -100 5525 -525 
L 5025 -525 
L 5025 -175 
L 1350 -175 
L 1350 -525 
L 850 -525 
Q 875 -200 875 425 
L 875 2650 
Q 875 3125 850 3575 
L 2475 3575 
Q 2700 4150 2750 4425 
L 1175 4425 
Q 800 4425 425 4400 
L 425 4875 
Q 825 4850 1175 4850 
L 5275 4850 
z
M 2200 225 
L 2200 3175 
L 1350 3175 
L 1350 225 
L 2200 225 
z
M 5025 225 
L 5025 3175 
L 4175 3175 
L 4175 225 
L 5025 225 
z
M 3750 225 
L 3750 1050 
L 2625 1050 
L 2625 225 
L 3750 225 
z
M 3750 2475 
L 3750 3175 
L 2625 3175 
L 2625 2475 
L 3750 2475 
z
M 3750 1425 
L 3750 2100 
L 2625 2100 
L 2625 1425 
L 3750 1425 
z
" transform="scale(0.015625)"/>
      <path id="SimHei-4e4b" d="M 1550 3300 
Q 1175 3300 675 3275 
L 675 3775 
Q 1125 3750 1525 3750 
L 5100 3750 
L 5100 3325 
Q 4750 3175 4150 2650 
Q 3550 2125 2100 775 
Q 2700 300 3687 175 
Q 4675 50 6125 200 
Q 5950 0 5875 -400 
Q 4350 -425 3587 -325 
Q 2825 -225 2337 100 
Q 1850 425 1700 500 
Q 1550 575 850 -275 
Q 600 25 400 100 
Q 1125 825 1600 1025 
Q 2400 1700 4125 3300 
L 1550 3300 
z
M 3050 3975 
Q 2900 4275 2325 4950 
Q 2600 5100 2750 5250 
Q 3000 4950 3162 4750 
Q 3325 4550 3525 4300 
Q 3175 4075 3050 3975 
z
" transform="scale(0.015625)"/>
      <path id="SimHei-8ddd" d="M 3550 1275 
L 3550 25 
L 5250 25 
Q 5750 25 6125 50 
L 6125 -425 
Q 5750 -400 5275 -400 
L 3075 -400 
Q 3100 -75 3100 575 
L 3100 4075 
Q 3100 4575 3075 4950 
L 5200 4950 
Q 5550 4950 6000 4975 
L 6000 4525 
Q 5550 4550 5225 4550 
L 3550 4550 
L 3550 3325 
L 5650 3325 
Q 5625 3050 5625 2300 
Q 5625 1575 5650 1275 
L 3550 1275 
z
M 2650 4950 
Q 2625 4400 2625 3900 
Q 2625 3400 2650 3050 
L 2000 3050 
L 2000 2175 
Q 2375 2175 2875 2200 
L 2875 1725 
Q 2375 1750 2000 1750 
L 2000 525 
Q 2625 625 2875 700 
L 2875 250 
Q 1375 -50 1062 -150 
Q 750 -250 425 -375 
Q 350 -75 250 150 
L 625 225 
L 625 1775 
Q 625 2050 600 2325 
L 1100 2325 
Q 1075 2050 1075 1775 
L 1075 300 
L 1575 425 
L 1575 3050 
L 700 3050 
Q 725 3425 725 3900 
Q 725 4400 700 4950 
L 2650 4950 
z
M 5150 1700 
L 5150 2925 
L 3550 2925 
L 3550 1700 
L 5150 1700 
z
M 2200 3425 
L 2200 4575 
L 1150 4575 
L 1150 3425 
L 2200 3425 
z
" transform="scale(0.015625)"/>
      <path id="SimHei-79bb" d="M 3000 2275 
Q 3150 2175 3425 2050 
Q 3275 1900 3150 1725 
L 5825 1725 
L 5825 0 
Q 5825 -475 5612 -537 
Q 5400 -600 4850 -650 
Q 4775 -350 4650 -100 
Q 5225 -125 5300 -87 
Q 5375 -50 5375 175 
L 5375 1350 
L 2950 1350 
Q 2825 1150 2675 962 
Q 2525 775 2350 525 
Q 2650 525 4075 675 
Q 3975 800 3850 950 
Q 3975 1075 4200 1225 
Q 4350 1075 4537 825 
Q 4725 575 4900 300 
Q 4650 200 4475 50 
Q 4350 200 4275 350 
Q 3175 225 2700 150 
Q 2225 75 1850 -25 
Q 1800 275 1675 600 
Q 1875 700 2075 900 
Q 2275 1100 2450 1350 
L 1125 1350 
L 1125 -625 
L 650 -625 
Q 675 -225 675 225 
L 675 1000 
Q 675 1450 650 1725 
L 2625 1725 
Q 2800 2000 2925 2275 
L 1025 2275 
Q 1050 2525 1050 2725 
L 1050 3325 
Q 1050 3550 1025 3800 
L 1525 3800 
Q 1500 3525 1500 3275 
L 1500 2650 
L 5050 2650 
L 5050 3325 
Q 5050 3575 5025 3775 
L 5525 3775 
Q 5500 3575 5500 3325 
L 5500 2750 
Q 5500 2550 5525 2275 
L 3000 2275 
z
M 3300 5275 
Q 3400 5000 3525 4650 
L 4950 4650 
Q 5375 4650 5950 4675 
L 5950 4275 
Q 5375 4300 4775 4300 
L 1525 4300 
Q 1050 4300 475 4275 
L 475 4675 
Q 1025 4650 1050 4650 
L 2975 4650 
Q 2900 4900 2750 5150 
Q 3025 5200 3300 5275 
z
M 2175 4125 
Q 2450 4050 2750 3937 
Q 3050 3825 3350 3725 
Q 3850 4025 4125 4250 
Q 4375 4100 4650 3925 
Q 4200 3800 3825 3550 
Q 4250 3350 4800 3100 
Q 4625 2950 4375 2775 
Q 4025 3000 3787 3112 
Q 3550 3225 3325 3300 
Q 3125 3175 2825 3050 
Q 2525 2925 2150 2775 
Q 2000 2975 1800 3125 
Q 2175 3200 2412 3287 
Q 2650 3375 2950 3475 
Q 2625 3575 2425 3637 
Q 2225 3700 1850 3775 
Q 2050 3950 2175 4125 
z
" transform="scale(0.015625)"/>
      <path id="DejaVuSans-3d" d="M 678 2906 
L 4684 2906 
L 4684 2381 
L 678 2381 
L 678 2906 
z
M 678 1631 
L 4684 1631 
L 4684 1100 
L 678 1100 
L 678 1631 
z
" transform="scale(0.015625)"/>
      <path id="DejaVuSans-2f" d="M 1625 4666 
L 2156 4666 
L 531 -594 
L 0 -594 
L 1625 4666 
z
" transform="scale(0.015625)"/>
     </defs>
     <use xlink:href="#SimHei-95f4" transform="translate(0 0.1875)"/>
     <use xlink:href="#SimHei-9694" transform="translate(100 0.1875)"/>
     <use xlink:href="#SimHei-20" transform="translate(200 0.1875)"/>
     <use xlink:href="#SimHei-3d" transform="translate(250 0.1875)"/>
     <use xlink:href="#SimHei-20" transform="translate(300 0.1875)"/>
     <use xlink:href="#SimHei-4e24" transform="translate(350 0.1875)"/>
     <use xlink:href="#SimHei-652f" transform="translate(450 0.1875)"/>
     <use xlink:href="#SimHei-6491" transform="translate(550 0.1875)"/>
     <use xlink:href="#SimHei-8d85" transform="translate(650 0.1875)"/>
     <use xlink:href="#SimHei-5e73" transform="translate(750 0.1875)"/>
     <use xlink:href="#SimHei-9762" transform="translate(850 0.1875)"/>
     <use xlink:href="#SimHei-4e4b" transform="translate(950 0.1875)"/>
     <use xlink:href="#SimHei-95f4" transform="translate(1050 0.1875)"/>
     <use xlink:href="#SimHei-7684" transform="translate(1150 0.1875)"/>
     <use xlink:href="#SimHei-8ddd" transform="translate(1250 0.1875)"/>
     <use xlink:href="#SimHei-79bb" transform="translate(1350 0.1875)"/>
     <use xlink:href="#SimHei-20" transform="translate(1450 0.1875)"/>
     <use xlink:href="#DejaVuSans-3d" transform="translate(1519.482422 0.1875)"/>
     <use xlink:href="#DejaVuSans-32" transform="translate(1622.753906 0.1875)"/>
     <use xlink:href="#DejaVuSans-2f" transform="translate(1686.376953 0.1875)"/>
     <use xlink:href="#DejaVuSans-7c" transform="translate(1720.068359 0.1875)"/>
     <use xlink:href="#DejaVuSans-7c" transform="translate(1753.759766 0.1875)"/>
     <use xlink:href="#DejaVuSans-Bold-77" transform="translate(1787.451172 0.1875)"/>
     <use xlink:href="#DejaVuSans-7c" transform="translate(1879.833984 0.1875)"/>
     <use xlink:href="#DejaVuSans-7c" transform="translate(1913.525391 0.1875)"/>
    </g>
   </g>
   <g id="PathCollection_1">
    <defs>
     <path id="m09b2b9ba8a" d="M 0 4.472136 
C 1.186024 4.472136 2.323632 4.000923 3.162278 3.162278 
C 4.000923 2.323632 4.472136 1.186024 4.472136 0 
C 4.472136 -1.186024 4.000923 -2.323632 3.162278 -3.162278 
C 2.323632 -4.000923 1.186024 -4.472136 0 -4.472136 
C -1.186024 -4.472136 -2.323632 -4.000923 -3.162278 -3.162278 
C -4.000923 -2.323632 -4.472136 -1.186024 -4.472136 0 
C -4.472136 1.186024 -4.000923 2.323632 -3.162278 3.162278 
C -2.323632 4.000923 -1.186024 4.472136 0 4.472136 
z
" style="stroke: #ffffff"/>
    </defs>
    <g clip-path="url(#pe30ccc7b26)">
     <use xlink:href="#m09b2b9ba8a" x="128.611869" y="76.698715" style="fill: #c8900a; stroke: #ffffff"/>
     <use xlink:href="#m09b2b9ba8a" x="218.351077" y="166.437923" style="fill: #c8900a; stroke: #ffffff"/>
    </g>
   </g>
   <g id="PathCollection_2">
    <defs>
     <path id="md4bcb7470c" d="M 0 4.472136 
C 1.186024 4.472136 2.323632 4.000923 3.162278 3.162278 
C 4.000923 2.323632 4.472136 1.186024 4.472136 0 
C 4.472136 -1.186024 4.000923 -2.323632 3.162278 -3.162278 
C 2.323632 -4.000923 1.186024 -4.472136 0 -4.472136 
C -1.186024 -4.472136 -2.323632 -4.000923 -3.162278 -3.162278 
C -4.000923 -2.323632 -4.472136 -1.186024 -4.472136 0 
C -4.472136 1.186024 -4.000923 2.323632 -3.162278 3.162278 
C -2.323632 4.000923 -1.186024 4.472136 0 4.472136 
z
" style="stroke: #ffffff"/>
    </defs>
    <g clip-path="url(#pe30ccc7b26)">
     <use xlink:href="#md4bcb7470c" x="149.726977" y="256.177131" style="fill: #1a3a6b; stroke: #ffffff"/>
     <use xlink:href="#md4bcb7470c" x="239.466185" y="345.916338" style="fill: #1a3a6b; stroke: #ffffff"/>
    </g>
   </g>
   <g id="legend_1">
    <g id="patch_4">
     <path d="M 264.218269 83.5835 
L 396.458269 83.5835 
Q 398.358269 83.5835 398.358269 81.6835 
L 398.358269 41.1185 
Q 398.358269 39.2185 396.458269 39.2185 
L 264.218269 39.2185 
Q 262.318269 39.2185 262.318269 41.1185 
L 262.318269 81.6835 
Q 262.318269 83.5835 264.218269 83.5835 
z
" style="fill: #ffffff; opacity: 0.9; stroke: #cccccc; stroke-linejoin: miter"/>
    </g>
    <g id="line2d_4">
     <path d="M 266.118269 47.911 
L 275.618269 47.911 
L 285.118269 47.911 
" style="fill: none; stroke: #333333; stroke-width: 2.2; stroke-linecap: square"/>
    </g>
    <g id="text_4">
     <!-- 决策边界 $\mathbf{w}^\top\mathbf{x}+b=0$ -->
     <g transform="translate(292.718269 51.236) scale(0.095 -0.095)">
      <defs>
       <path id="SimHei-51b3" d="M 3400 3700 
Q 2675 3700 2225 3675 
L 2225 4150 
Q 2675 4125 3400 4125 
Q 3400 4825 3375 5200 
Q 3650 5175 3950 5150 
Q 3900 4800 3900 4125 
L 5375 4125 
Q 5350 3725 5350 2300 
Q 5750 2300 6050 2325 
L 6050 1850 
Q 5675 1875 5300 1875 
L 4025 1875 
Q 4750 325 6200 50 
Q 5925 -150 5825 -525 
Q 4275 0 3700 1500 
Q 3150 150 1800 -650 
Q 1650 -400 1375 -250 
Q 2850 500 3300 1875 
L 2900 1875 
Q 2450 1875 2000 1850 
L 2000 2325 
Q 2450 2300 2900 2300 
L 3350 2300 
Q 3400 3125 3400 3700 
z
M 4850 2300 
L 4850 3700 
L 3900 3700 
Q 3875 2850 3850 2300 
L 4850 2300 
z
M 1825 2150 
Q 1550 1675 1250 1087 
Q 950 500 800 150 
Q 575 350 250 525 
Q 525 850 850 1400 
Q 1175 1950 1375 2500 
Q 1550 2300 1825 2150 
z
M 750 4725 
Q 1025 4425 1275 4125 
Q 1525 3825 1800 3500 
Q 1600 3350 1375 3125 
Q 1150 3450 350 4350 
Q 550 4525 750 4725 
z
" transform="scale(0.015625)"/>
       <path id="SimHei-7b56" d="M 4600 750 
Q 4525 1000 4325 1275 
Q 4625 1275 4787 1300 
Q 4950 1325 4950 1500 
L 4950 1950 
L 3425 1950 
L 3425 1575 
Q 3625 1250 3950 987 
Q 4275 725 4625 537 
Q 4975 350 5325 237 
Q 5675 125 6150 50 
Q 5850 -200 5725 -525 
Q 5375 -400 5050 -237 
Q 4725 -75 4437 100 
Q 4150 275 3887 487 
Q 3625 700 3425 950 
L 3425 275 
Q 3425 -75 3450 -675 
L 2950 -675 
Q 2975 -75 2975 275 
L 2975 1150 
Q 2700 750 2275 375 
Q 1850 0 1575 -175 
Q 1300 -350 825 -650 
Q 725 -475 350 -225 
Q 675 -100 975 50 
Q 1275 200 1650 462 
Q 2025 725 2387 1112 
Q 2750 1500 2950 1950 
L 1500 1950 
L 1500 825 
L 1000 825 
Q 1025 1325 1025 1675 
Q 1025 2025 1000 2325 
L 2975 2325 
L 2975 2825 
L 1425 2825 
Q 1000 2825 550 2800 
L 550 3250 
Q 1000 3225 1400 3225 
L 2975 3225 
Q 2975 3475 2950 3650 
L 3450 3650 
Q 3425 3450 3425 3225 
L 5175 3225 
Q 5500 3225 5925 3250 
L 5925 2800 
Q 5525 2825 5200 2825 
L 3425 2825 
L 3425 2325 
L 5425 2325 
Q 5400 2025 5400 1725 
Q 5400 1450 5375 1225 
Q 5350 1000 5137 900 
Q 4925 800 4600 750 
z
M 4525 5050 
Q 4300 4850 4200 4675 
L 5175 4675 
Q 5600 4675 6075 4700 
L 6075 4250 
Q 5600 4275 4875 4275 
Q 4950 4025 5050 3675 
Q 4775 3625 4550 3550 
Q 4500 3975 4400 4275 
L 3950 4275 
Q 3750 4000 3525 3700 
Q 3300 3850 3075 3925 
Q 3375 4225 3612 4612 
Q 3850 5000 3950 5300 
Q 4175 5150 4525 5050 
z
M 1950 5075 
Q 1700 4850 1550 4675 
L 2275 4675 
Q 2625 4675 3125 4700 
L 3125 4250 
Q 2625 4275 2200 4275 
Q 2275 4000 2375 3650 
Q 2150 3600 1925 3500 
Q 1850 3850 1750 4275 
L 1300 4275 
Q 1025 3950 650 3600 
Q 475 3750 225 3900 
Q 625 4175 925 4562 
Q 1225 4950 1425 5300 
Q 1675 5175 1950 5075 
z
" transform="scale(0.015625)"/>
       <path id="SimHei-8fb9" d="M 3450 3950 
Q 3450 4750 3425 5250 
Q 3800 5175 4050 5175 
Q 3975 4825 3950 3950 
L 5725 3950 
Q 5650 3525 5625 3100 
L 5500 1150 
Q 5475 725 5062 612 
Q 4650 500 4300 400 
Q 4275 725 4050 1050 
Q 4650 1075 4837 1137 
Q 5025 1200 5050 1450 
L 5175 3500 
L 3925 3500 
Q 3825 2500 3525 1837 
Q 3225 1175 2625 500 
Q 2400 725 2075 900 
Q 2625 1275 2987 1937 
Q 3350 2600 3425 3500 
Q 2825 3500 2275 3450 
L 2275 3975 
Q 2725 3950 3450 3950 
z
M 1625 2900 
Q 1600 2475 1600 2125 
L 1600 675 
Q 2225 50 3775 0 
Q 5325 -50 6200 50 
Q 5950 -150 5925 -550 
Q 5125 -550 4350 -525 
Q 3575 -500 2925 -387 
Q 2275 -275 1850 75 
Q 1425 425 1187 175 
Q 950 -75 725 -550 
Q 500 -325 225 -150 
Q 875 350 1100 625 
L 1100 2450 
Q 650 2450 225 2425 
L 225 2925 
Q 725 2900 1150 2900 
L 1625 2900 
z
M 1150 5075 
Q 1600 4200 1700 3900 
Q 1450 3825 1175 3675 
Q 1150 3925 650 4875 
Q 925 4975 1150 5075 
z
" transform="scale(0.015625)"/>
       <path id="SimHei-754c" d="M 5400 5075 
Q 5375 4800 5375 4225 
L 5375 3675 
Q 5375 3350 5400 2875 
L 975 2875 
Q 1000 3350 1000 3700 
L 1000 4225 
Q 1000 4700 975 5075 
L 5400 5075 
z
M 3400 2450 
Q 3875 2100 4700 1787 
Q 5525 1475 6150 1425 
Q 5925 1200 5800 925 
Q 5175 1075 4575 1325 
Q 4550 1175 4550 925 
L 4550 150 
Q 4550 -225 4575 -600 
L 4025 -600 
Q 4050 -250 4050 150 
L 4050 825 
Q 4050 1150 4025 1450 
L 4325 1450 
Q 3775 1650 3100 2200 
Q 2700 1900 2075 1587 
Q 1450 1275 625 1000 
Q 525 1225 300 1425 
Q 675 1500 1300 1725 
Q 1925 1950 2387 2262 
Q 2850 2575 3000 2800 
Q 3250 2675 3525 2550 
L 3400 2450 
z
M 2400 1375 
Q 2350 1200 2337 1000 
Q 2325 800 2262 525 
Q 2200 250 2000 -37 
Q 1800 -325 1325 -700 
Q 1150 -475 950 -350 
Q 1350 -100 1562 137 
Q 1775 375 1825 600 
Q 1875 825 1887 987 
Q 1900 1150 1900 1450 
Q 2225 1400 2400 1375 
z
M 4875 3225 
L 4875 3800 
L 3400 3800 
L 3400 3225 
L 4875 3225 
z
M 4875 4150 
L 4875 4725 
L 3400 4725 
L 3400 4150 
L 4875 4150 
z
M 2925 4150 
L 2925 4725 
L 1500 4725 
L 1500 4150 
L 2925 4150 
z
M 2925 3225 
L 2925 3800 
L 1500 3800 
L 1500 3225 
L 2925 3225 
z
" transform="scale(0.015625)"/>
       <path id="DejaVuSans-22a4" d="M 5028 4481 
L 5028 4084 
L 2988 4084 
L 2988 0 
L 2588 0 
L 2588 4084 
L 547 4084 
L 547 4481 
L 5028 4481 
z
" transform="scale(0.015625)"/>
       <path id="DejaVuSans-Bold-78" d="M 1422 1791 
L 159 3500 
L 1344 3500 
L 2059 2463 
L 2784 3500 
L 3969 3500 
L 2706 1797 
L 4031 0 
L 2847 0 
L 2059 1106 
L 1281 0 
L 97 0 
L 1422 1791 
z
" transform="scale(0.015625)"/>
       <path id="DejaVuSans-2b" d="M 2944 4013 
L 2944 2272 
L 4684 2272 
L 4684 1741 
L 2944 1741 
L 2944 0 
L 2419 0 
L 2419 1741 
L 678 1741 
L 678 2272 
L 2419 2272 
L 2419 4013 
L 2944 4013 
z
" transform="scale(0.015625)"/>
       <path id="DejaVuSans-Oblique-62" d="M 3169 2138 
Q 3169 2591 2961 2847 
Q 2753 3103 2388 3103 
Q 2122 3103 1889 2973 
Q 1656 2844 1484 2597 
Q 1303 2338 1198 1995 
Q 1094 1653 1094 1313 
Q 1094 881 1298 636 
Q 1503 391 1863 391 
Q 2134 391 2365 517 
Q 2597 644 2772 891 
Q 2950 1147 3059 1487 
Q 3169 1828 3169 2138 
z
M 1381 2969 
Q 1594 3256 1914 3420 
Q 2234 3584 2584 3584 
Q 3122 3584 3439 3221 
Q 3756 2859 3756 2241 
Q 3756 1734 3570 1259 
Q 3384 784 3041 416 
Q 2816 172 2522 40 
Q 2228 -91 1906 -91 
Q 1566 -91 1316 65 
Q 1066 222 909 531 
L 806 0 
L 231 0 
L 1178 4863 
L 1753 4863 
L 1381 2969 
z
" transform="scale(0.015625)"/>
       <path id="DejaVuSans-30" d="M 2034 4250 
Q 1547 4250 1301 3770 
Q 1056 3291 1056 2328 
Q 1056 1369 1301 889 
Q 1547 409 2034 409 
Q 2525 409 2770 889 
Q 3016 1369 3016 2328 
Q 3016 3291 2770 3770 
Q 2525 4250 2034 4250 
z
M 2034 4750 
Q 2819 4750 3233 4129 
Q 3647 3509 3647 2328 
Q 3647 1150 3233 529 
Q 2819 -91 2034 -91 
Q 1250 -91 836 529 
Q 422 1150 422 2328 
Q 422 3509 836 4129 
Q 1250 4750 2034 4750 
z
" transform="scale(0.015625)"/>
      </defs>
      <use xlink:href="#SimHei-51b3" transform="translate(0 0.707813)"/>
      <use xlink:href="#SimHei-7b56" transform="translate(100 0.707813)"/>
      <use xlink:href="#SimHei-8fb9" transform="translate(200 0.707813)"/>
      <use xlink:href="#SimHei-754c" transform="translate(300 0.707813)"/>
      <use xlink:href="#SimHei-20" transform="translate(400 0.707813)"/>
      <use xlink:href="#DejaVuSans-Bold-77" transform="translate(450 0.707813)"/>
      <use xlink:href="#DejaVuSans-22a4" transform="translate(556.977539 38.989063) scale(0.7)"/>
      <use xlink:href="#DejaVuSans-Bold-78" transform="translate(634.326172 0.707813)"/>
      <use xlink:href="#DejaVuSans-2b" transform="translate(718.310547 0.707813)"/>
      <use xlink:href="#DejaVuSans-Oblique-62" transform="translate(821.582031 0.707813)"/>
      <use xlink:href="#DejaVuSans-3d" transform="translate(904.541016 0.707813)"/>
      <use xlink:href="#DejaVuSans-30" transform="translate(1007.8125 0.707813)"/>
     </g>
    </g>
    <g id="line2d_5">
     <path d="M 266.118269 61.591 
L 275.618269 61.591 
L 285.118269 61.591 
" style="fill: none; stroke-dasharray: 5.92,2.56; stroke-dashoffset: 0; stroke: #888888; stroke-width: 1.6"/>
    </g>
    <g id="text_5">
     <!-- 间隔边界 $= +1$ -->
     <g transform="translate(292.718269 64.916) scale(0.095 -0.095)">
      <defs>
       <path id="DejaVuSans-31" d="M 794 531 
L 1825 531 
L 1825 4091 
L 703 3866 
L 703 4441 
L 1819 4666 
L 2450 4666 
L 2450 531 
L 3481 531 
L 3481 0 
L 794 0 
L 794 531 
z
" transform="scale(0.015625)"/>
      </defs>
      <use xlink:href="#SimHei-95f4" transform="translate(0 0.1875)"/>
      <use xlink:href="#SimHei-9694" transform="translate(100 0.1875)"/>
      <use xlink:href="#SimHei-8fb9" transform="translate(200 0.1875)"/>
      <use xlink:href="#SimHei-754c" transform="translate(300 0.1875)"/>
      <use xlink:href="#SimHei-20" transform="translate(400 0.1875)"/>
      <use xlink:href="#DejaVuSans-3d" transform="translate(469.482422 0.1875)"/>
      <use xlink:href="#DejaVuSans-2b" transform="translate(572.753906 0.1875)"/>
      <use xlink:href="#DejaVuSans-31" transform="translate(656.542969 0.1875)"/>
     </g>
    </g>
    <g id="line2d_6">
     <path d="M 266.118269 75.271 
L 275.618269 75.271 
L 285.118269 75.271 
" style="fill: none; stroke-dasharray: 5.92,2.56; stroke-dashoffset: 0; stroke: #888888; stroke-width: 1.6"/>
    </g>
    <g id="text_6">
     <!-- 间隔边界 $= -1$ -->
     <g transform="translate(292.718269 78.596) scale(0.095 -0.095)">
      <defs>
       <path id="DejaVuSans-2212" d="M 678 2272 
L 4684 2272 
L 4684 1741 
L 678 1741 
L 678 2272 
z
" transform="scale(0.015625)"/>
      </defs>
      <use xlink:href="#SimHei-95f4" transform="translate(0 0.1875)"/>
      <use xlink:href="#SimHei-9694" transform="translate(100 0.1875)"/>
      <use xlink:href="#SimHei-8fb9" transform="translate(200 0.1875)"/>
      <use xlink:href="#SimHei-754c" transform="translate(300 0.1875)"/>
      <use xlink:href="#SimHei-20" transform="translate(400 0.1875)"/>
      <use xlink:href="#DejaVuSans-3d" transform="translate(469.482422 0.1875)"/>
      <use xlink:href="#DejaVuSans-2212" transform="translate(572.753906 0.1875)"/>
      <use xlink:href="#DejaVuSans-31" transform="translate(656.542969 0.1875)"/>
     </g>
    </g>
   </g>
   <g id="PathCollection_3">
    <defs>
     <path id="C0_0_3d4745890e" d="M 0 6.324555 
C 1.677292 6.324555 3.286112 5.65816 4.472136 4.472136 
C 5.65816 3.286112 6.324555 1.677292 6.324555 -0 
C 6.324555 -1.677292 5.65816 -3.286112 4.472136 -4.472136 
C 3.286112 -5.65816 1.677292 -6.324555 0 -6.324555 
C -1.677292 -6.324555 -3.286112 -5.65816 -4.472136 -4.472136 
C -5.65816 -3.286112 -6.324555 -1.677292 -6.324555 0 
C -6.324555 1.677292 -5.65816 3.286112 -4.472136 4.472136 
C -3.286112 5.65816 -1.677292 6.324555 0 6.324555 
z
"/>
    </defs>
    <g clip-path="url(#pe30ccc7b26)">
     <use xlink:href="#C0_0_3d4745890e" x="128.611869" y="76.698715" style="fill: none; stroke: #cc2222; stroke-width: 1.8"/>
    </g>
    <g clip-path="url(#pe30ccc7b26)">
     <use xlink:href="#C0_0_3d4745890e" x="218.351077" y="166.437923" style="fill: none; stroke: #cc2222; stroke-width: 1.8"/>
    </g>
    <g clip-path="url(#pe30ccc7b26)">
     <use xlink:href="#C0_0_3d4745890e" x="149.726977" y="256.177131" style="fill: none; stroke: #cc2222; stroke-width: 1.8"/>
    </g>
    <g clip-path="url(#pe30ccc7b26)">
     <use xlink:href="#C0_0_3d4745890e" x="239.466185" y="345.916338" style="fill: none; stroke: #cc2222; stroke-width: 1.8"/>
    </g>
   </g>
  </g>
 </g>
 <defs>
  <clipPath id="pe30ccc7b26">
   <rect x="7.2" y="34.4685" width="395.908269" height="343.1205"/>
  </clipPath>
 </defs>
</svg>
