<?xml version="1.0" encoding="utf-8" standalone="no"?>
<!DOCTYPE svg PUBLIC "-//W3C//DTD SVG 1.1//EN"
  "http://www.w3.org/Graphics/SVG/1.1/DTD/svg11.dtd">
<svg xmlns:xlink="http://www.w3.org/1999/xlink" width="457.5655pt" height="385.5655pt" viewBox="0 0 457.5655 385.5655" xmlns="http://www.w3.org/2000/svg" version="1.1">
 <metadata>
  <rdf:RDF xmlns:dc="http://purl.org/dc/elements/1.1/" xmlns:cc="http://creativecommons.org/ns#" xmlns:rdf="http://www.w3.org/1999/02/22-rdf-syntax-ns#">
   <cc:Work>
    <dc:type rdf:resource="http://purl.org/dc/dcmitype/StillImage"/>
    <dc:date>2026-04-30T03:43:33.938948</dc:date>
    <dc:format>image/svg+xml</dc:format>
    <dc:creator>
     <cc:Agent>
      <dc:title>Matplotlib v3.10.8, https://matplotlib.org/</dc:title>
     </cc:Agent>
    </dc:creator>
   </cc:Work>
  </rdf:RDF>
 </metadata>
 <defs>
  <style type="text/css">*{stroke-linejoin: round; stroke-linecap: butt}</style>
 </defs>
 <g id="figure_1">
  <g id="patch_1">
   <path d="M 0 385.5655 
L 457.5655 385.5655 
L 457.5655 0 
L 0 0 
z
" style="fill: #ffffff"/>
  </g>
  <g id="axes_1">
   <g id="patch_2">
    <path d="M 38.1375 349.4905 
L 450.3655 349.4905 
L 450.3655 38.61 
L 38.1375 38.61 
z
" style="fill: #ffffff"/>
   </g>
   <g id="matplotlib.axis_1">
    <g id="xtick_1">
     <g id="line2d_1">
      <path d="M 47.952452 349.4905 
L 47.952452 38.61 
" clip-path="url(#p3994152952)" style="fill: none; stroke: #b0b0b0; stroke-opacity: 0.2; stroke-width: 0.8; stroke-linecap: square"/>
     </g>
     <g id="line2d_2">
      <defs>
       <path id="mdf2ca1270e" d="M 0 0 
L 0 3.5 
" style="stroke: #000000; stroke-width: 0.8"/>
      </defs>
      <g>
       <use xlink:href="#mdf2ca1270e" x="47.952452" y="349.4905" style="stroke: #000000; stroke-width: 0.8"/>
      </g>
     </g>
     <g id="text_1">
      <!-- -4 -->
      <g transform="translate(42.452452 364.053) scale(0.11 -0.11)">
       <defs>
        <path id="SimHei-2d" d="M 2975 2125 
L 125 2125 
L 125 2525 
L 2975 2525 
L 2975 2125 
z
" transform="scale(0.015625)"/>
        <path id="SimHei-34" d="M 2000 1100 
L 75 1100 
L 75 1525 
L 2100 4450 
L 2475 4450 
L 2475 1525 
L 3075 1525 
L 3075 1100 
L 2475 1100 
L 2475 150 
L 2000 150 
L 2000 1100 
z
M 2000 1525 
L 2000 3500 
L 600 1525 
L 2000 1525 
z
" transform="scale(0.015625)"/>
       </defs>
       <use xlink:href="#SimHei-2d"/>
       <use xlink:href="#SimHei-34" transform="translate(50 0)"/>
      </g>
     </g>
    </g>
    <g id="xtick_2">
     <g id="line2d_3">
      <path d="M 97.027214 349.4905 
L 97.027214 38.61 
" clip-path="url(#p3994152952)" style="fill: none; stroke: #b0b0b0; stroke-opacity: 0.2; stroke-width: 0.8; stroke-linecap: square"/>
     </g>
     <g id="line2d_4">
      <g>
       <use xlink:href="#mdf2ca1270e" x="97.027214" y="349.4905" style="stroke: #000000; stroke-width: 0.8"/>
      </g>
     </g>
     <g id="text_2">
      <!-- -3 -->
      <g transform="translate(91.527214 364.053) scale(0.11 -0.11)">
       <defs>
        <path id="SimHei-33" d="M 250 1225 
L 700 1300 
Q 800 975 1025 762 
Q 1250 550 1587 562 
Q 1925 575 2125 837 
Q 2325 1100 2300 1437 
Q 2275 1775 2037 1962 
Q 1800 2150 1275 2225 
L 1275 2550 
Q 1800 2600 2037 2825 
Q 2275 3050 2250 3412 
Q 2225 3775 1925 3937 
Q 1625 4100 1287 3975 
Q 950 3850 750 3275 
L 300 3350 
Q 450 3800 712 4100 
Q 975 4400 1425 4450 
Q 1875 4500 2212 4337 
Q 2550 4175 2687 3837 
Q 2825 3500 2725 3100 
Q 2625 2700 2150 2400 
Q 2500 2250 2687 1950 
Q 2875 1650 2812 1162 
Q 2750 675 2375 375 
Q 2000 75 1525 87 
Q 1050 100 700 387 
Q 350 675 250 1225 
z
" transform="scale(0.015625)"/>
       </defs>
       <use xlink:href="#SimHei-2d"/>
       <use xlink:href="#SimHei-33" transform="translate(50 0)"/>
      </g>
     </g>
    </g>
    <g id="xtick_3">
     <g id="line2d_5">
      <path d="M 146.101976 349.4905 
L 146.101976 38.61 
" clip-path="url(#p3994152952)" style="fill: none; stroke: #b0b0b0; stroke-opacity: 0.2; stroke-width: 0.8; stroke-linecap: square"/>
     </g>
     <g id="line2d_6">
      <g>
       <use xlink:href="#mdf2ca1270e" x="146.101976" y="349.4905" style="stroke: #000000; stroke-width: 0.8"/>
      </g>
     </g>
     <g id="text_3">
      <!-- -2 -->
      <g transform="translate(140.601976 364.053) scale(0.11 -0.11)">
       <defs>
        <path id="SimHei-32" d="M 300 250 
Q 325 625 650 925 
Q 975 1225 1475 1862 
Q 1975 2500 2125 2850 
Q 2275 3200 2237 3450 
Q 2200 3700 2000 3862 
Q 1800 4025 1537 4000 
Q 1275 3975 1037 3800 
Q 800 3625 675 3275 
L 200 3350 
Q 400 3925 712 4187 
Q 1025 4450 1450 4475 
Q 1700 4500 1900 4462 
Q 2100 4425 2312 4287 
Q 2525 4150 2662 3875 
Q 2800 3600 2762 3212 
Q 2725 2825 2375 2287 
Q 2025 1750 1025 600 
L 2825 600 
L 2825 150 
L 300 150 
L 300 250 
z
" transform="scale(0.015625)"/>
       </defs>
       <use xlink:href="#SimHei-2d"/>
       <use xlink:href="#SimHei-32" transform="translate(50 0)"/>
      </g>
     </g>
    </g>
    <g id="xtick_4">
     <g id="line2d_7">
      <path d="M 195.176738 349.4905 
L 195.176738 38.61 
" clip-path="url(#p3994152952)" style="fill: none; stroke: #b0b0b0; stroke-opacity: 0.2; stroke-width: 0.8; stroke-linecap: square"/>
     </g>
     <g id="line2d_8">
      <g>
       <use xlink:href="#mdf2ca1270e" x="195.176738" y="349.4905" style="stroke: #000000; stroke-width: 0.8"/>
      </g>
     </g>
     <g id="text_4">
      <!-- -1 -->
      <g transform="translate(189.676738 364.053) scale(0.11 -0.11)">
       <defs>
        <path id="SimHei-31" d="M 1400 3600 
Q 1075 3275 575 2975 
L 575 3450 
Q 1200 3875 1600 4450 
L 1900 4450 
L 1900 150 
L 1400 150 
L 1400 3600 
z
" transform="scale(0.015625)"/>
       </defs>
       <use xlink:href="#SimHei-2d"/>
       <use xlink:href="#SimHei-31" transform="translate(50 0)"/>
      </g>
     </g>
    </g>
    <g id="xtick_5">
     <g id="line2d_9">
      <path d="M 244.2515 349.4905 
L 244.2515 38.61 
" clip-path="url(#p3994152952)" style="fill: none; stroke: #b0b0b0; stroke-opacity: 0.2; stroke-width: 0.8; stroke-linecap: square"/>
     </g>
     <g id="line2d_10">
      <g>
       <use xlink:href="#mdf2ca1270e" x="244.2515" y="349.4905" style="stroke: #000000; stroke-width: 0.8"/>
      </g>
     </g>
     <g id="text_5">
      <!-- 0 -->
      <g transform="translate(241.5015 364.053) scale(0.11 -0.11)">
       <defs>
        <path id="SimHei-30" d="M 225 2537 
Q 250 3200 412 3587 
Q 575 3975 875 4225 
Q 1175 4475 1612 4475 
Q 2050 4475 2375 4112 
Q 2700 3750 2800 3200 
Q 2900 2650 2862 1937 
Q 2825 1225 2612 775 
Q 2400 325 1975 150 
Q 1550 -25 1125 187 
Q 700 400 525 750 
Q 350 1100 275 1487 
Q 200 1875 225 2537 
z
M 750 2687 
Q 675 2000 800 1462 
Q 925 925 1212 700 
Q 1500 475 1800 612 
Q 2100 750 2237 1162 
Q 2375 1575 2375 2062 
Q 2375 2550 2337 2950 
Q 2300 3350 2112 3675 
Q 1925 4000 1612 4012 
Q 1300 4025 1062 3700 
Q 825 3375 750 2687 
z
" transform="scale(0.015625)"/>
       </defs>
       <use xlink:href="#SimHei-30"/>
      </g>
     </g>
    </g>
    <g id="xtick_6">
     <g id="line2d_11">
      <path d="M 293.326262 349.4905 
L 293.326262 38.61 
" clip-path="url(#p3994152952)" style="fill: none; stroke: #b0b0b0; stroke-opacity: 0.2; stroke-width: 0.8; stroke-linecap: square"/>
     </g>
     <g id="line2d_12">
      <g>
       <use xlink:href="#mdf2ca1270e" x="293.326262" y="349.4905" style="stroke: #000000; stroke-width: 0.8"/>
      </g>
     </g>
     <g id="text_6">
      <!-- 1 -->
      <g transform="translate(290.576262 364.053) scale(0.11 -0.11)">
       <use xlink:href="#SimHei-31"/>
      </g>
     </g>
    </g>
    <g id="xtick_7">
     <g id="line2d_13">
      <path d="M 342.401024 349.4905 
L 342.401024 38.61 
" clip-path="url(#p3994152952)" style="fill: none; stroke: #b0b0b0; stroke-opacity: 0.2; stroke-width: 0.8; stroke-linecap: square"/>
     </g>
     <g id="line2d_14">
      <g>
       <use xlink:href="#mdf2ca1270e" x="342.401024" y="349.4905" style="stroke: #000000; stroke-width: 0.8"/>
      </g>
     </g>
     <g id="text_7">
      <!-- 2 -->
      <g transform="translate(339.651024 364.053) scale(0.11 -0.11)">
       <use xlink:href="#SimHei-32"/>
      </g>
     </g>
    </g>
    <g id="xtick_8">
     <g id="line2d_15">
      <path d="M 391.475786 349.4905 
L 391.475786 38.61 
" clip-path="url(#p3994152952)" style="fill: none; stroke: #b0b0b0; stroke-opacity: 0.2; stroke-width: 0.8; stroke-linecap: square"/>
     </g>
     <g id="line2d_16">
      <g>
       <use xlink:href="#mdf2ca1270e" x="391.475786" y="349.4905" style="stroke: #000000; stroke-width: 0.8"/>
      </g>
     </g>
     <g id="text_8">
      <!-- 3 -->
      <g transform="translate(388.725786 364.053) scale(0.11 -0.11)">
       <use xlink:href="#SimHei-33"/>
      </g>
     </g>
    </g>
    <g id="xtick_9">
     <g id="line2d_17">
      <path d="M 440.550548 349.4905 
L 440.550548 38.61 
" clip-path="url(#p3994152952)" style="fill: none; stroke: #b0b0b0; stroke-opacity: 0.2; stroke-width: 0.8; stroke-linecap: square"/>
     </g>
     <g id="line2d_18">
      <g>
       <use xlink:href="#mdf2ca1270e" x="440.550548" y="349.4905" style="stroke: #000000; stroke-width: 0.8"/>
      </g>
     </g>
     <g id="text_9">
      <!-- 4 -->
      <g transform="translate(437.800548 364.053) scale(0.11 -0.11)">
       <use xlink:href="#SimHei-34"/>
      </g>
     </g>
    </g>
    <g id="text_10">
     <!-- $x_1$ -->
     <g transform="translate(238.3665 376.4955) scale(0.11 -0.11)">
      <defs>
       <path id="DejaVuSans-Oblique-78" d="M 3841 3500 
L 2234 1784 
L 3219 0 
L 2559 0 
L 1819 1388 
L 531 0 
L -166 0 
L 1556 1844 
L 641 3500 
L 1300 3500 
L 1972 2234 
L 3144 3500 
L 3841 3500 
z
" transform="scale(0.015625)"/>
       <path id="DejaVuSans-31" d="M 794 531 
L 1825 531 
L 1825 4091 
L 703 3866 
L 703 4441 
L 1819 4666 
L 2450 4666 
L 2450 531 
L 3481 531 
L 3481 0 
L 794 0 
L 794 531 
z
" transform="scale(0.015625)"/>
      </defs>
      <use xlink:href="#DejaVuSans-Oblique-78" transform="translate(0 0.3125)"/>
      <use xlink:href="#DejaVuSans-31" transform="translate(59.179688 -16.09375) scale(0.7)"/>
     </g>
    </g>
   </g>
   <g id="matplotlib.axis_2">
    <g id="ytick_1">
     <g id="line2d_19">
      <path d="M 38.1375 343.828827 
L 450.3655 343.828827 
" clip-path="url(#p3994152952)" style="fill: none; stroke: #b0b0b0; stroke-opacity: 0.2; stroke-width: 0.8; stroke-linecap: square"/>
     </g>
     <g id="line2d_20">
      <defs>
       <path id="mff462d471e" d="M 0 0 
L -3.5 0 
" style="stroke: #000000; stroke-width: 0.8"/>
      </defs>
      <g>
       <use xlink:href="#mff462d471e" x="38.1375" y="343.828827" style="stroke: #000000; stroke-width: 0.8"/>
      </g>
     </g>
     <g id="text_11">
      <!-- -6 -->
      <g transform="translate(20.1375 347.610077) scale(0.11 -0.11)">
       <defs>
        <path id="SimHei-36" d="M 250 1612 
Q 275 1975 387 2225 
Q 500 2475 725 2850 
L 1750 4450 
L 2325 4450 
L 1275 2800 
Q 1950 2975 2350 2750 
Q 2750 2525 2887 2237 
Q 3025 1950 3037 1612 
Q 3050 1275 2937 950 
Q 2825 625 2537 362 
Q 2250 100 1737 75 
Q 1225 50 862 262 
Q 500 475 362 862 
Q 225 1250 250 1612 
z
M 1025 787 
Q 1250 550 1625 525 
Q 2000 500 2250 775 
Q 2500 1050 2500 1575 
Q 2500 2100 2187 2300 
Q 1875 2500 1487 2450 
Q 1100 2400 925 2075 
Q 750 1750 775 1387 
Q 800 1025 1025 787 
z
" transform="scale(0.015625)"/>
       </defs>
       <use xlink:href="#SimHei-2d"/>
       <use xlink:href="#SimHei-36" transform="translate(50 0)"/>
      </g>
     </g>
    </g>
    <g id="ytick_2">
     <g id="line2d_21">
      <path d="M 38.1375 294.957784 
L 450.3655 294.957784 
" clip-path="url(#p3994152952)" style="fill: none; stroke: #b0b0b0; stroke-opacity: 0.2; stroke-width: 0.8; stroke-linecap: square"/>
     </g>
     <g id="line2d_22">
      <g>
       <use xlink:href="#mff462d471e" x="38.1375" y="294.957784" style="stroke: #000000; stroke-width: 0.8"/>
      </g>
     </g>
     <g id="text_12">
      <!-- -4 -->
      <g transform="translate(20.1375 298.739034) scale(0.11 -0.11)">
       <use xlink:href="#SimHei-2d"/>
       <use xlink:href="#SimHei-34" transform="translate(50 0)"/>
      </g>
     </g>
    </g>
    <g id="ytick_3">
     <g id="line2d_23">
      <path d="M 38.1375 246.08674 
L 450.3655 246.08674 
" clip-path="url(#p3994152952)" style="fill: none; stroke: #b0b0b0; stroke-opacity: 0.2; stroke-width: 0.8; stroke-linecap: square"/>
     </g>
     <g id="line2d_24">
      <g>
       <use xlink:href="#mff462d471e" x="38.1375" y="246.08674" style="stroke: #000000; stroke-width: 0.8"/>
      </g>
     </g>
     <g id="text_13">
      <!-- -2 -->
      <g transform="translate(20.1375 249.86799) scale(0.11 -0.11)">
       <use xlink:href="#SimHei-2d"/>
       <use xlink:href="#SimHei-32" transform="translate(50 0)"/>
      </g>
     </g>
    </g>
    <g id="ytick_4">
     <g id="line2d_25">
      <path d="M 38.1375 197.215697 
L 450.3655 197.215697 
" clip-path="url(#p3994152952)" style="fill: none; stroke: #b0b0b0; stroke-opacity: 0.2; stroke-width: 0.8; stroke-linecap: square"/>
     </g>
     <g id="line2d_26">
      <g>
       <use xlink:href="#mff462d471e" x="38.1375" y="197.215697" style="stroke: #000000; stroke-width: 0.8"/>
      </g>
     </g>
     <g id="text_14">
      <!-- 0 -->
      <g transform="translate(25.6375 200.996947) scale(0.11 -0.11)">
       <use xlink:href="#SimHei-30"/>
      </g>
     </g>
    </g>
    <g id="ytick_5">
     <g id="line2d_27">
      <path d="M 38.1375 148.344653 
L 450.3655 148.344653 
" clip-path="url(#p3994152952)" style="fill: none; stroke: #b0b0b0; stroke-opacity: 0.2; stroke-width: 0.8; stroke-linecap: square"/>
     </g>
     <g id="line2d_28">
      <g>
       <use xlink:href="#mff462d471e" x="38.1375" y="148.344653" style="stroke: #000000; stroke-width: 0.8"/>
      </g>
     </g>
     <g id="text_15">
      <!-- 2 -->
      <g transform="translate(25.6375 152.125903) scale(0.11 -0.11)">
       <use xlink:href="#SimHei-32"/>
      </g>
     </g>
    </g>
    <g id="ytick_6">
     <g id="line2d_29">
      <path d="M 38.1375 99.47361 
L 450.3655 99.47361 
" clip-path="url(#p3994152952)" style="fill: none; stroke: #b0b0b0; stroke-opacity: 0.2; stroke-width: 0.8; stroke-linecap: square"/>
     </g>
     <g id="line2d_30">
      <g>
       <use xlink:href="#mff462d471e" x="38.1375" y="99.47361" style="stroke: #000000; stroke-width: 0.8"/>
      </g>
     </g>
     <g id="text_16">
      <!-- 4 -->
      <g transform="translate(25.6375 103.25486) scale(0.11 -0.11)">
       <use xlink:href="#SimHei-34"/>
      </g>
     </g>
    </g>
    <g id="ytick_7">
     <g id="line2d_31">
      <path d="M 38.1375 50.602566 
L 450.3655 50.602566 
" clip-path="url(#p3994152952)" style="fill: none; stroke: #b0b0b0; stroke-opacity: 0.2; stroke-width: 0.8; stroke-linecap: square"/>
     </g>
     <g id="line2d_32">
      <g>
       <use xlink:href="#mff462d471e" x="38.1375" y="50.602566" style="stroke: #000000; stroke-width: 0.8"/>
      </g>
     </g>
     <g id="text_17">
      <!-- 6 -->
      <g transform="translate(25.6375 54.383816) scale(0.11 -0.11)">
       <use xlink:href="#SimHei-36"/>
      </g>
     </g>
    </g>
    <g id="text_18">
     <!-- $x_2$ -->
     <g transform="translate(14.2675 199.93525) rotate(-90) scale(0.11 -0.11)">
      <defs>
       <path id="DejaVuSans-32" d="M 1228 531 
L 3431 531 
L 3431 0 
L 469 0 
L 469 531 
Q 828 903 1448 1529 
Q 2069 2156 2228 2338 
Q 2531 2678 2651 2914 
Q 2772 3150 2772 3378 
Q 2772 3750 2511 3984 
Q 2250 4219 1831 4219 
Q 1534 4219 1204 4116 
Q 875 4013 500 3803 
L 500 4441 
Q 881 4594 1212 4672 
Q 1544 4750 1819 4750 
Q 2544 4750 2975 4387 
Q 3406 4025 3406 3419 
Q 3406 3131 3298 2873 
Q 3191 2616 2906 2266 
Q 2828 2175 2409 1742 
Q 1991 1309 1228 531 
z
" transform="scale(0.015625)"/>
      </defs>
      <use xlink:href="#DejaVuSans-Oblique-78" transform="translate(0 0.3125)"/>
      <use xlink:href="#DejaVuSans-32" transform="translate(59.179688 -16.09375) scale(0.7)"/>
     </g>
    </g>
   </g>
   <g id="line2d_33">
    <path d="M 47.952452 275.409367 
L 440.550548 119.022027 
L 440.550548 119.022027 
" clip-path="url(#p3994152952)" style="fill: none; stroke: #2166ac; stroke-opacity: 0.85; stroke-width: 2; stroke-linecap: square"/>
   </g>
   <g id="line2d_34">
    <path d="M 47.952452 282.740023 
L 440.550548 97.030058 
L 440.550548 97.030058 
" clip-path="url(#p3994152952)" style="fill: none; stroke-dasharray: 5.92,2.56; stroke-dashoffset: 0; stroke: #4dac26; stroke-opacity: 0.85; stroke-width: 1.6"/>
   </g>
   <g id="line2d_35">
    <path d="M 47.952452 270.522262 
L 440.550548 143.457549 
L 440.550548 143.457549 
" clip-path="url(#p3994152952)" style="fill: none; stroke-dasharray: 10.24,2.56,1.6,2.56; stroke-dashoffset: 0; stroke: #d6604d; stroke-opacity: 0.85; stroke-width: 1.6"/>
   </g>
   <g id="line2d_36">
    <path d="M 47.952452 285.183575 
L 440.550548 70.150984 
L 440.550548 70.150984 
" clip-path="url(#p3994152952)" style="fill: none; stroke-dasharray: 1.6,2.64; stroke-dashoffset: 0; stroke: #762a83; stroke-opacity: 0.85; stroke-width: 1.6"/>
   </g>
   <g id="line2d_37">
    <path d="M 47.952452 258.304501 
L 440.550548 111.691371 
L 440.550548 111.691371 
" clip-path="url(#p3994152952)" style="fill: none; stroke-dasharray: 5.92,2.56; stroke-dashoffset: 0; stroke: #f4a582; stroke-opacity: 0.85; stroke-width: 1.6"/>
   </g>
   <g id="patch_3">
    <path d="M 38.1375 349.4905 
L 38.1375 38.61 
" style="fill: none; stroke: #000000; stroke-width: 0.8; stroke-linejoin: miter; stroke-linecap: square"/>
   </g>
   <g id="patch_4">
    <path d="M 38.1375 349.4905 
L 450.3655 349.4905 
" style="fill: none; stroke: #000000; stroke-width: 0.8; stroke-linejoin: miter; stroke-linecap: square"/>
   </g>
   <g id="PathCollection_1">
    <defs>
     <path id="mcc70ce2f28" d="M 0 3.082207 
C 0.817411 3.082207 1.601453 2.757446 2.179449 2.179449 
C 2.757446 1.601453 3.082207 0.817411 3.082207 0 
C 3.082207 -0.817411 2.757446 -1.601453 2.179449 -2.179449 
C 1.601453 -2.757446 0.817411 -3.082207 0 -3.082207 
C -0.817411 -3.082207 -1.601453 -2.757446 -2.179449 -2.179449 
C -2.757446 -1.601453 -3.082207 -0.817411 -3.082207 0 
C -3.082207 0.817411 -2.757446 1.601453 -2.179449 2.179449 
C -1.601453 2.757446 -0.817411 3.082207 0 3.082207 
z
" style="stroke: #ffffff; stroke-opacity: 0.55; stroke-width: 0.4"/>
    </defs>
    <g clip-path="url(#p3994152952)">
     <use xlink:href="#mcc70ce2f28" x="133.958117" y="336.490134" style="fill: #1a3a6b; fill-opacity: 0.55; stroke: #ffffff; stroke-opacity: 0.55; stroke-width: 0.4"/>
     <use xlink:href="#mcc70ce2f28" x="292.314937" y="203.748943" style="fill: #1a3a6b; fill-opacity: 0.55; stroke: #ffffff; stroke-opacity: 0.55; stroke-width: 0.4"/>
     <use xlink:href="#mcc70ce2f28" x="233.007432" y="234.781811" style="fill: #1a3a6b; fill-opacity: 0.55; stroke: #ffffff; stroke-opacity: 0.55; stroke-width: 0.4"/>
     <use xlink:href="#mcc70ce2f28" x="199.765409" y="251.284104" style="fill: #1a3a6b; fill-opacity: 0.55; stroke: #ffffff; stroke-opacity: 0.55; stroke-width: 0.4"/>
     <use xlink:href="#mcc70ce2f28" x="194.412219" y="252.501859" style="fill: #1a3a6b; fill-opacity: 0.55; stroke: #ffffff; stroke-opacity: 0.55; stroke-width: 0.4"/>
     <use xlink:href="#mcc70ce2f28" x="344.051296" y="184.597547" style="fill: #1a3a6b; fill-opacity: 0.55; stroke: #ffffff; stroke-opacity: 0.55; stroke-width: 0.4"/>
     <use xlink:href="#mcc70ce2f28" x="383.427861" y="176.29499" style="fill: #1a3a6b; fill-opacity: 0.55; stroke: #ffffff; stroke-opacity: 0.55; stroke-width: 0.4"/>
     <use xlink:href="#mcc70ce2f28" x="133.414793" y="337.272739" style="fill: #1a3a6b; fill-opacity: 0.55; stroke: #ffffff; stroke-opacity: 0.55; stroke-width: 0.4"/>
     <use xlink:href="#mcc70ce2f28" x="296.736645" y="234.441598" style="fill: #1a3a6b; fill-opacity: 0.55; stroke: #ffffff; stroke-opacity: 0.55; stroke-width: 0.4"/>
     <use xlink:href="#mcc70ce2f28" x="174.963794" y="248.765282" style="fill: #1a3a6b; fill-opacity: 0.55; stroke: #ffffff; stroke-opacity: 0.55; stroke-width: 0.4"/>
     <use xlink:href="#mcc70ce2f28" x="404.663912" y="196.984007" style="fill: #1a3a6b; fill-opacity: 0.55; stroke: #ffffff; stroke-opacity: 0.55; stroke-width: 0.4"/>
     <use xlink:href="#mcc70ce2f28" x="388.479827" y="178.05047" style="fill: #1a3a6b; fill-opacity: 0.55; stroke: #ffffff; stroke-opacity: 0.55; stroke-width: 0.4"/>
     <use xlink:href="#mcc70ce2f28" x="290.926292" y="227.186122" style="fill: #1a3a6b; fill-opacity: 0.55; stroke: #ffffff; stroke-opacity: 0.55; stroke-width: 0.4"/>
     <use xlink:href="#mcc70ce2f28" x="331.070872" y="187.316681" style="fill: #1a3a6b; fill-opacity: 0.55; stroke: #ffffff; stroke-opacity: 0.55; stroke-width: 0.4"/>
     <use xlink:href="#mcc70ce2f28" x="249.457148" y="225.37264" style="fill: #1a3a6b; fill-opacity: 0.55; stroke: #ffffff; stroke-opacity: 0.55; stroke-width: 0.4"/>
     <use xlink:href="#mcc70ce2f28" x="356.204125" y="176.159084" style="fill: #1a3a6b; fill-opacity: 0.55; stroke: #ffffff; stroke-opacity: 0.55; stroke-width: 0.4"/>
     <use xlink:href="#mcc70ce2f28" x="226.519013" y="228.634774" style="fill: #1a3a6b; fill-opacity: 0.55; stroke: #ffffff; stroke-opacity: 0.55; stroke-width: 0.4"/>
     <use xlink:href="#mcc70ce2f28" x="188.879817" y="248.029015" style="fill: #1a3a6b; fill-opacity: 0.55; stroke: #ffffff; stroke-opacity: 0.55; stroke-width: 0.4"/>
     <use xlink:href="#mcc70ce2f28" x="167.954698" y="252.717517" style="fill: #1a3a6b; fill-opacity: 0.55; stroke: #ffffff; stroke-opacity: 0.55; stroke-width: 0.4"/>
     <use xlink:href="#mcc70ce2f28" x="150.240519" y="257.905386" style="fill: #1a3a6b; fill-opacity: 0.55; stroke: #ffffff; stroke-opacity: 0.55; stroke-width: 0.4"/>
     <use xlink:href="#mcc70ce2f28" x="253.120188" y="224.239092" style="fill: #1a3a6b; fill-opacity: 0.55; stroke: #ffffff; stroke-opacity: 0.55; stroke-width: 0.4"/>
     <use xlink:href="#mcc70ce2f28" x="220.518181" y="236.505647" style="fill: #1a3a6b; fill-opacity: 0.55; stroke: #ffffff; stroke-opacity: 0.55; stroke-width: 0.4"/>
     <use xlink:href="#mcc70ce2f28" x="300.307851" y="199.39463" style="fill: #1a3a6b; fill-opacity: 0.55; stroke: #ffffff; stroke-opacity: 0.55; stroke-width: 0.4"/>
     <use xlink:href="#mcc70ce2f28" x="76.900839" y="310.079264" style="fill: #1a3a6b; fill-opacity: 0.55; stroke: #ffffff; stroke-opacity: 0.55; stroke-width: 0.4"/>
     <use xlink:href="#mcc70ce2f28" x="226.285883" y="240.394412" style="fill: #1a3a6b; fill-opacity: 0.55; stroke: #ffffff; stroke-opacity: 0.55; stroke-width: 0.4"/>
     <use xlink:href="#mcc70ce2f28" x="197.937959" y="242.535099" style="fill: #1a3a6b; fill-opacity: 0.55; stroke: #ffffff; stroke-opacity: 0.55; stroke-width: 0.4"/>
     <use xlink:href="#mcc70ce2f28" x="139.613468" y="279.032698" style="fill: #1a3a6b; fill-opacity: 0.55; stroke: #ffffff; stroke-opacity: 0.55; stroke-width: 0.4"/>
     <use xlink:href="#mcc70ce2f28" x="276.84014" y="245.723201" style="fill: #1a3a6b; fill-opacity: 0.55; stroke: #ffffff; stroke-opacity: 0.55; stroke-width: 0.4"/>
     <use xlink:href="#mcc70ce2f28" x="222.03006" y="242.811813" style="fill: #1a3a6b; fill-opacity: 0.55; stroke: #ffffff; stroke-opacity: 0.55; stroke-width: 0.4"/>
     <use xlink:href="#mcc70ce2f28" x="175.543915" y="258.478324" style="fill: #1a3a6b; fill-opacity: 0.55; stroke: #ffffff; stroke-opacity: 0.55; stroke-width: 0.4"/>
     <use xlink:href="#mcc70ce2f28" x="144.429157" y="302.230026" style="fill: #1a3a6b; fill-opacity: 0.55; stroke: #ffffff; stroke-opacity: 0.55; stroke-width: 0.4"/>
     <use xlink:href="#mcc70ce2f28" x="372.943605" y="186.37804" style="fill: #1a3a6b; fill-opacity: 0.55; stroke: #ffffff; stroke-opacity: 0.55; stroke-width: 0.4"/>
     <use xlink:href="#mcc70ce2f28" x="346.436746" y="182.396266" style="fill: #1a3a6b; fill-opacity: 0.55; stroke: #ffffff; stroke-opacity: 0.55; stroke-width: 0.4"/>
     <use xlink:href="#mcc70ce2f28" x="280.908764" y="210.563988" style="fill: #1a3a6b; fill-opacity: 0.55; stroke: #ffffff; stroke-opacity: 0.55; stroke-width: 0.4"/>
     <use xlink:href="#mcc70ce2f28" x="191.039934" y="251.116584" style="fill: #1a3a6b; fill-opacity: 0.55; stroke: #ffffff; stroke-opacity: 0.55; stroke-width: 0.4"/>
     <use xlink:href="#mcc70ce2f28" x="397.744524" y="180.215486" style="fill: #1a3a6b; fill-opacity: 0.55; stroke: #ffffff; stroke-opacity: 0.55; stroke-width: 0.4"/>
     <use xlink:href="#mcc70ce2f28" x="266.023107" y="218.477696" style="fill: #1a3a6b; fill-opacity: 0.55; stroke: #ffffff; stroke-opacity: 0.55; stroke-width: 0.4"/>
     <use xlink:href="#mcc70ce2f28" x="221.153932" y="314.117385" style="fill: #1a3a6b; fill-opacity: 0.55; stroke: #ffffff; stroke-opacity: 0.55; stroke-width: 0.4"/>
     <use xlink:href="#mcc70ce2f28" x="381.815281" y="176.210428" style="fill: #1a3a6b; fill-opacity: 0.55; stroke: #ffffff; stroke-opacity: 0.55; stroke-width: 0.4"/>
     <use xlink:href="#mcc70ce2f28" x="182.191194" y="275.299028" style="fill: #1a3a6b; fill-opacity: 0.55; stroke: #ffffff; stroke-opacity: 0.55; stroke-width: 0.4"/>
     <use xlink:href="#mcc70ce2f28" x="311.580311" y="213.927103" style="fill: #1a3a6b; fill-opacity: 0.55; stroke: #ffffff; stroke-opacity: 0.55; stroke-width: 0.4"/>
     <use xlink:href="#mcc70ce2f28" x="180.294438" y="272.559465" style="fill: #1a3a6b; fill-opacity: 0.55; stroke: #ffffff; stroke-opacity: 0.55; stroke-width: 0.4"/>
     <use xlink:href="#mcc70ce2f28" x="162.339408" y="253.718555" style="fill: #1a3a6b; fill-opacity: 0.55; stroke: #ffffff; stroke-opacity: 0.55; stroke-width: 0.4"/>
     <use xlink:href="#mcc70ce2f28" x="313.245032" y="196.973465" style="fill: #1a3a6b; fill-opacity: 0.55; stroke: #ffffff; stroke-opacity: 0.55; stroke-width: 0.4"/>
     <use xlink:href="#mcc70ce2f28" x="150.776046" y="264.340462" style="fill: #1a3a6b; fill-opacity: 0.55; stroke: #ffffff; stroke-opacity: 0.55; stroke-width: 0.4"/>
     <use xlink:href="#mcc70ce2f28" x="241.884735" y="233.493941" style="fill: #1a3a6b; fill-opacity: 0.55; stroke: #ffffff; stroke-opacity: 0.55; stroke-width: 0.4"/>
     <use xlink:href="#mcc70ce2f28" x="271.743141" y="209.803655" style="fill: #1a3a6b; fill-opacity: 0.55; stroke: #ffffff; stroke-opacity: 0.55; stroke-width: 0.4"/>
     <use xlink:href="#mcc70ce2f28" x="137.383577" y="263.940197" style="fill: #1a3a6b; fill-opacity: 0.55; stroke: #ffffff; stroke-opacity: 0.55; stroke-width: 0.4"/>
     <use xlink:href="#mcc70ce2f28" x="323.688062" y="189.804177" style="fill: #1a3a6b; fill-opacity: 0.55; stroke: #ffffff; stroke-opacity: 0.55; stroke-width: 0.4"/>
     <use xlink:href="#mcc70ce2f28" x="260.906564" y="219.215453" style="fill: #1a3a6b; fill-opacity: 0.55; stroke: #ffffff; stroke-opacity: 0.55; stroke-width: 0.4"/>
     <use xlink:href="#mcc70ce2f28" x="285.990705" y="207.064237" style="fill: #1a3a6b; fill-opacity: 0.55; stroke: #ffffff; stroke-opacity: 0.55; stroke-width: 0.4"/>
     <use xlink:href="#mcc70ce2f28" x="200.33009" y="238.206838" style="fill: #1a3a6b; fill-opacity: 0.55; stroke: #ffffff; stroke-opacity: 0.55; stroke-width: 0.4"/>
     <use xlink:href="#mcc70ce2f28" x="216.836023" y="260.55064" style="fill: #1a3a6b; fill-opacity: 0.55; stroke: #ffffff; stroke-opacity: 0.55; stroke-width: 0.4"/>
     <use xlink:href="#mcc70ce2f28" x="242.475374" y="222.614895" style="fill: #1a3a6b; fill-opacity: 0.55; stroke: #ffffff; stroke-opacity: 0.55; stroke-width: 0.4"/>
     <use xlink:href="#mcc70ce2f28" x="233.935808" y="242.804196" style="fill: #1a3a6b; fill-opacity: 0.55; stroke: #ffffff; stroke-opacity: 0.55; stroke-width: 0.4"/>
     <use xlink:href="#mcc70ce2f28" x="304.587671" y="238.214348" style="fill: #1a3a6b; fill-opacity: 0.55; stroke: #ffffff; stroke-opacity: 0.55; stroke-width: 0.4"/>
     <use xlink:href="#mcc70ce2f28" x="270.763774" y="210.281671" style="fill: #1a3a6b; fill-opacity: 0.55; stroke: #ffffff; stroke-opacity: 0.55; stroke-width: 0.4"/>
     <use xlink:href="#mcc70ce2f28" x="215.488512" y="281.355399" style="fill: #1a3a6b; fill-opacity: 0.55; stroke: #ffffff; stroke-opacity: 0.55; stroke-width: 0.4"/>
     <use xlink:href="#mcc70ce2f28" x="73.108984" y="329.487903" style="fill: #1a3a6b; fill-opacity: 0.55; stroke: #ffffff; stroke-opacity: 0.55; stroke-width: 0.4"/>
     <use xlink:href="#mcc70ce2f28" x="345.25803" y="191.224867" style="fill: #1a3a6b; fill-opacity: 0.55; stroke: #ffffff; stroke-opacity: 0.55; stroke-width: 0.4"/>
     <use xlink:href="#mcc70ce2f28" x="250.910432" y="232.360861" style="fill: #1a3a6b; fill-opacity: 0.55; stroke: #ffffff; stroke-opacity: 0.55; stroke-width: 0.4"/>
     <use xlink:href="#mcc70ce2f28" x="184.665545" y="260.40527" style="fill: #1a3a6b; fill-opacity: 0.55; stroke: #ffffff; stroke-opacity: 0.55; stroke-width: 0.4"/>
     <use xlink:href="#mcc70ce2f28" x="244.236049" y="252.119255" style="fill: #1a3a6b; fill-opacity: 0.55; stroke: #ffffff; stroke-opacity: 0.55; stroke-width: 0.4"/>
     <use xlink:href="#mcc70ce2f28" x="104.590692" y="276.010391" style="fill: #1a3a6b; fill-opacity: 0.55; stroke: #ffffff; stroke-opacity: 0.55; stroke-width: 0.4"/>
     <use xlink:href="#mcc70ce2f28" x="383.276792" y="178.180208" style="fill: #1a3a6b; fill-opacity: 0.55; stroke: #ffffff; stroke-opacity: 0.55; stroke-width: 0.4"/>
     <use xlink:href="#mcc70ce2f28" x="412.487301" y="153.115565" style="fill: #1a3a6b; fill-opacity: 0.55; stroke: #ffffff; stroke-opacity: 0.55; stroke-width: 0.4"/>
     <use xlink:href="#mcc70ce2f28" x="92.666751" y="285.893247" style="fill: #1a3a6b; fill-opacity: 0.55; stroke: #ffffff; stroke-opacity: 0.55; stroke-width: 0.4"/>
     <use xlink:href="#mcc70ce2f28" x="195.550616" y="240.709475" style="fill: #1a3a6b; fill-opacity: 0.55; stroke: #ffffff; stroke-opacity: 0.55; stroke-width: 0.4"/>
     <use xlink:href="#mcc70ce2f28" x="323.284051" y="194.807176" style="fill: #1a3a6b; fill-opacity: 0.55; stroke: #ffffff; stroke-opacity: 0.55; stroke-width: 0.4"/>
     <use xlink:href="#mcc70ce2f28" x="180.437964" y="287.360578" style="fill: #1a3a6b; fill-opacity: 0.55; stroke: #ffffff; stroke-opacity: 0.55; stroke-width: 0.4"/>
     <use xlink:href="#mcc70ce2f28" x="267.284656" y="216.772512" style="fill: #1a3a6b; fill-opacity: 0.55; stroke: #ffffff; stroke-opacity: 0.55; stroke-width: 0.4"/>
     <use xlink:href="#mcc70ce2f28" x="215.591679" y="255.70149" style="fill: #1a3a6b; fill-opacity: 0.55; stroke: #ffffff; stroke-opacity: 0.55; stroke-width: 0.4"/>
     <use xlink:href="#mcc70ce2f28" x="338.449774" y="186.787199" style="fill: #1a3a6b; fill-opacity: 0.55; stroke: #ffffff; stroke-opacity: 0.55; stroke-width: 0.4"/>
     <use xlink:href="#mcc70ce2f28" x="401.744719" y="157.30197" style="fill: #1a3a6b; fill-opacity: 0.55; stroke: #ffffff; stroke-opacity: 0.55; stroke-width: 0.4"/>
     <use xlink:href="#mcc70ce2f28" x="377.674391" y="205.28033" style="fill: #1a3a6b; fill-opacity: 0.55; stroke: #ffffff; stroke-opacity: 0.55; stroke-width: 0.4"/>
     <use xlink:href="#mcc70ce2f28" x="285.795654" y="205.180248" style="fill: #1a3a6b; fill-opacity: 0.55; stroke: #ffffff; stroke-opacity: 0.55; stroke-width: 0.4"/>
     <use xlink:href="#mcc70ce2f28" x="127.547799" y="300.145123" style="fill: #1a3a6b; fill-opacity: 0.55; stroke: #ffffff; stroke-opacity: 0.55; stroke-width: 0.4"/>
     <use xlink:href="#mcc70ce2f28" x="397.827757" y="168.75482" style="fill: #1a3a6b; fill-opacity: 0.55; stroke: #ffffff; stroke-opacity: 0.55; stroke-width: 0.4"/>
     <use xlink:href="#mcc70ce2f28" x="80.608124" y="304.613228" style="fill: #1a3a6b; fill-opacity: 0.55; stroke: #ffffff; stroke-opacity: 0.55; stroke-width: 0.4"/>
     <use xlink:href="#mcc70ce2f28" x="174.759978" y="288.775082" style="fill: #1a3a6b; fill-opacity: 0.55; stroke: #ffffff; stroke-opacity: 0.55; stroke-width: 0.4"/>
     <use xlink:href="#mcc70ce2f28" x="169.230639" y="268.997955" style="fill: #1a3a6b; fill-opacity: 0.55; stroke: #ffffff; stroke-opacity: 0.55; stroke-width: 0.4"/>
     <use xlink:href="#mcc70ce2f28" x="303.277734" y="201.864553" style="fill: #1a3a6b; fill-opacity: 0.55; stroke: #ffffff; stroke-opacity: 0.55; stroke-width: 0.4"/>
     <use xlink:href="#mcc70ce2f28" x="239.910418" y="231.363518" style="fill: #1a3a6b; fill-opacity: 0.55; stroke: #ffffff; stroke-opacity: 0.55; stroke-width: 0.4"/>
     <use xlink:href="#mcc70ce2f28" x="104.399217" y="311.24874" style="fill: #1a3a6b; fill-opacity: 0.55; stroke: #ffffff; stroke-opacity: 0.55; stroke-width: 0.4"/>
     <use xlink:href="#mcc70ce2f28" x="76.906818" y="287.226901" style="fill: #1a3a6b; fill-opacity: 0.55; stroke: #ffffff; stroke-opacity: 0.55; stroke-width: 0.4"/>
     <use xlink:href="#mcc70ce2f28" x="280.086393" y="216.671623" style="fill: #1a3a6b; fill-opacity: 0.55; stroke: #ffffff; stroke-opacity: 0.55; stroke-width: 0.4"/>
     <use xlink:href="#mcc70ce2f28" x="241.325826" y="222.526769" style="fill: #1a3a6b; fill-opacity: 0.55; stroke: #ffffff; stroke-opacity: 0.55; stroke-width: 0.4"/>
     <use xlink:href="#mcc70ce2f28" x="279.078624" y="211.501761" style="fill: #1a3a6b; fill-opacity: 0.55; stroke: #ffffff; stroke-opacity: 0.55; stroke-width: 0.4"/>
     <use xlink:href="#mcc70ce2f28" x="266.245191" y="214.234946" style="fill: #1a3a6b; fill-opacity: 0.55; stroke: #ffffff; stroke-opacity: 0.55; stroke-width: 0.4"/>
     <use xlink:href="#mcc70ce2f28" x="378.383314" y="178.59978" style="fill: #1a3a6b; fill-opacity: 0.55; stroke: #ffffff; stroke-opacity: 0.55; stroke-width: 0.4"/>
     <use xlink:href="#mcc70ce2f28" x="387.980583" y="186.664529" style="fill: #1a3a6b; fill-opacity: 0.55; stroke: #ffffff; stroke-opacity: 0.55; stroke-width: 0.4"/>
     <use xlink:href="#mcc70ce2f28" x="137.160561" y="303.325946" style="fill: #1a3a6b; fill-opacity: 0.55; stroke: #ffffff; stroke-opacity: 0.55; stroke-width: 0.4"/>
     <use xlink:href="#mcc70ce2f28" x="396.130335" y="222.294169" style="fill: #1a3a6b; fill-opacity: 0.55; stroke: #ffffff; stroke-opacity: 0.55; stroke-width: 0.4"/>
     <use xlink:href="#mcc70ce2f28" x="343.09231" y="185.535813" style="fill: #1a3a6b; fill-opacity: 0.55; stroke: #ffffff; stroke-opacity: 0.55; stroke-width: 0.4"/>
     <use xlink:href="#mcc70ce2f28" x="292.010262" y="202.689154" style="fill: #1a3a6b; fill-opacity: 0.55; stroke: #ffffff; stroke-opacity: 0.55; stroke-width: 0.4"/>
     <use xlink:href="#mcc70ce2f28" x="299.080321" y="203.280573" style="fill: #1a3a6b; fill-opacity: 0.55; stroke: #ffffff; stroke-opacity: 0.55; stroke-width: 0.4"/>
     <use xlink:href="#mcc70ce2f28" x="260.074264" y="218.535774" style="fill: #1a3a6b; fill-opacity: 0.55; stroke: #ffffff; stroke-opacity: 0.55; stroke-width: 0.4"/>
     <use xlink:href="#mcc70ce2f28" x="387.59118" y="185.739483" style="fill: #1a3a6b; fill-opacity: 0.55; stroke: #ffffff; stroke-opacity: 0.55; stroke-width: 0.4"/>
     <use xlink:href="#mcc70ce2f28" x="152.621187" y="281.622989" style="fill: #1a3a6b; fill-opacity: 0.55; stroke: #ffffff; stroke-opacity: 0.55; stroke-width: 0.4"/>
     <use xlink:href="#mcc70ce2f28" x="278.368861" y="207.454887" style="fill: #1a3a6b; fill-opacity: 0.55; stroke: #ffffff; stroke-opacity: 0.55; stroke-width: 0.4"/>
    </g>
   </g>
   <g id="PathCollection_2">
    <defs>
     <path id="m52941ba25e" d="M -3.082207 3.082207 
L 3.082207 3.082207 
L 3.082207 -3.082207 
L -3.082207 -3.082207 
z
" style="stroke: #ffffff; stroke-opacity: 0.55; stroke-width: 0.4"/>
    </defs>
    <g clip-path="url(#p3994152952)">
     <use xlink:href="#m52941ba25e" x="328.222993" y="128.712918" style="fill: #c8900a; fill-opacity: 0.55; stroke: #ffffff; stroke-opacity: 0.55; stroke-width: 0.4"/>
     <use xlink:href="#m52941ba25e" x="337.530808" y="133.596335" style="fill: #c8900a; fill-opacity: 0.55; stroke: #ffffff; stroke-opacity: 0.55; stroke-width: 0.4"/>
     <use xlink:href="#m52941ba25e" x="337.085749" y="130.226971" style="fill: #c8900a; fill-opacity: 0.55; stroke: #ffffff; stroke-opacity: 0.55; stroke-width: 0.4"/>
     <use xlink:href="#m52941ba25e" x="99.412755" y="199.001135" style="fill: #c8900a; fill-opacity: 0.55; stroke: #ffffff; stroke-opacity: 0.55; stroke-width: 0.4"/>
     <use xlink:href="#m52941ba25e" x="145.364581" y="195.356917" style="fill: #c8900a; fill-opacity: 0.55; stroke: #ffffff; stroke-opacity: 0.55; stroke-width: 0.4"/>
     <use xlink:href="#m52941ba25e" x="380.075482" y="92.402974" style="fill: #c8900a; fill-opacity: 0.55; stroke: #ffffff; stroke-opacity: 0.55; stroke-width: 0.4"/>
     <use xlink:href="#m52941ba25e" x="374.595266" y="122.520869" style="fill: #c8900a; fill-opacity: 0.55; stroke: #ffffff; stroke-opacity: 0.55; stroke-width: 0.4"/>
     <use xlink:href="#m52941ba25e" x="143.108838" y="203.882467" style="fill: #c8900a; fill-opacity: 0.55; stroke: #ffffff; stroke-opacity: 0.55; stroke-width: 0.4"/>
     <use xlink:href="#m52941ba25e" x="261.900237" y="132.144621" style="fill: #c8900a; fill-opacity: 0.55; stroke: #ffffff; stroke-opacity: 0.55; stroke-width: 0.4"/>
     <use xlink:href="#m52941ba25e" x="162.727662" y="190.515968" style="fill: #c8900a; fill-opacity: 0.55; stroke: #ffffff; stroke-opacity: 0.55; stroke-width: 0.4"/>
     <use xlink:href="#m52941ba25e" x="215.493366" y="170.010522" style="fill: #c8900a; fill-opacity: 0.55; stroke: #ffffff; stroke-opacity: 0.55; stroke-width: 0.4"/>
     <use xlink:href="#m52941ba25e" x="79.684876" y="214.426001" style="fill: #c8900a; fill-opacity: 0.55; stroke: #ffffff; stroke-opacity: 0.55; stroke-width: 0.4"/>
     <use xlink:href="#m52941ba25e" x="169.281049" y="201.973163" style="fill: #c8900a; fill-opacity: 0.55; stroke: #ffffff; stroke-opacity: 0.55; stroke-width: 0.4"/>
     <use xlink:href="#m52941ba25e" x="165.475039" y="200.286916" style="fill: #c8900a; fill-opacity: 0.55; stroke: #ffffff; stroke-opacity: 0.55; stroke-width: 0.4"/>
     <use xlink:href="#m52941ba25e" x="388.232603" y="50.827761" style="fill: #c8900a; fill-opacity: 0.55; stroke: #ffffff; stroke-opacity: 0.55; stroke-width: 0.4"/>
     <use xlink:href="#m52941ba25e" x="274.471322" y="160.099833" style="fill: #c8900a; fill-opacity: 0.55; stroke: #ffffff; stroke-opacity: 0.55; stroke-width: 0.4"/>
     <use xlink:href="#m52941ba25e" x="133.470891" y="213.839098" style="fill: #c8900a; fill-opacity: 0.55; stroke: #ffffff; stroke-opacity: 0.55; stroke-width: 0.4"/>
     <use xlink:href="#m52941ba25e" x="219.36823" y="171.436898" style="fill: #c8900a; fill-opacity: 0.55; stroke: #ffffff; stroke-opacity: 0.55; stroke-width: 0.4"/>
     <use xlink:href="#m52941ba25e" x="241.824907" y="169.413641" style="fill: #c8900a; fill-opacity: 0.55; stroke: #ffffff; stroke-opacity: 0.55; stroke-width: 0.4"/>
     <use xlink:href="#m52941ba25e" x="291.437905" y="150.729287" style="fill: #c8900a; fill-opacity: 0.55; stroke: #ffffff; stroke-opacity: 0.55; stroke-width: 0.4"/>
     <use xlink:href="#m52941ba25e" x="255.398094" y="157.705683" style="fill: #c8900a; fill-opacity: 0.55; stroke: #ffffff; stroke-opacity: 0.55; stroke-width: 0.4"/>
     <use xlink:href="#m52941ba25e" x="217.110651" y="157.676558" style="fill: #c8900a; fill-opacity: 0.55; stroke: #ffffff; stroke-opacity: 0.55; stroke-width: 0.4"/>
     <use xlink:href="#m52941ba25e" x="179.254485" y="174.267512" style="fill: #c8900a; fill-opacity: 0.55; stroke: #ffffff; stroke-opacity: 0.55; stroke-width: 0.4"/>
     <use xlink:href="#m52941ba25e" x="270.015581" y="161.677122" style="fill: #c8900a; fill-opacity: 0.55; stroke: #ffffff; stroke-opacity: 0.55; stroke-width: 0.4"/>
     <use xlink:href="#m52941ba25e" x="407.710899" y="80.898385" style="fill: #c8900a; fill-opacity: 0.55; stroke: #ffffff; stroke-opacity: 0.55; stroke-width: 0.4"/>
     <use xlink:href="#m52941ba25e" x="262.453759" y="147.705412" style="fill: #c8900a; fill-opacity: 0.55; stroke: #ffffff; stroke-opacity: 0.55; stroke-width: 0.4"/>
     <use xlink:href="#m52941ba25e" x="377.199203" y="119.002582" style="fill: #c8900a; fill-opacity: 0.55; stroke: #ffffff; stroke-opacity: 0.55; stroke-width: 0.4"/>
     <use xlink:href="#m52941ba25e" x="77.736271" y="237.724557" style="fill: #c8900a; fill-opacity: 0.55; stroke: #ffffff; stroke-opacity: 0.55; stroke-width: 0.4"/>
     <use xlink:href="#m52941ba25e" x="142.25853" y="205.946571" style="fill: #c8900a; fill-opacity: 0.55; stroke: #ffffff; stroke-opacity: 0.55; stroke-width: 0.4"/>
     <use xlink:href="#m52941ba25e" x="369.557812" y="123.942591" style="fill: #c8900a; fill-opacity: 0.55; stroke: #ffffff; stroke-opacity: 0.55; stroke-width: 0.4"/>
     <use xlink:href="#m52941ba25e" x="268.117061" y="120.098849" style="fill: #c8900a; fill-opacity: 0.55; stroke: #ffffff; stroke-opacity: 0.55; stroke-width: 0.4"/>
     <use xlink:href="#m52941ba25e" x="239.97741" y="162.118868" style="fill: #c8900a; fill-opacity: 0.55; stroke: #ffffff; stroke-opacity: 0.55; stroke-width: 0.4"/>
     <use xlink:href="#m52941ba25e" x="199.182712" y="187.582139" style="fill: #c8900a; fill-opacity: 0.55; stroke: #ffffff; stroke-opacity: 0.55; stroke-width: 0.4"/>
     <use xlink:href="#m52941ba25e" x="173.920495" y="166.892238" style="fill: #c8900a; fill-opacity: 0.55; stroke: #ffffff; stroke-opacity: 0.55; stroke-width: 0.4"/>
     <use xlink:href="#m52941ba25e" x="305.683708" y="135.917309" style="fill: #c8900a; fill-opacity: 0.55; stroke: #ffffff; stroke-opacity: 0.55; stroke-width: 0.4"/>
     <use xlink:href="#m52941ba25e" x="198.128359" y="137.614239" style="fill: #c8900a; fill-opacity: 0.55; stroke: #ffffff; stroke-opacity: 0.55; stroke-width: 0.4"/>
     <use xlink:href="#m52941ba25e" x="222.003111" y="134.530734" style="fill: #c8900a; fill-opacity: 0.55; stroke: #ffffff; stroke-opacity: 0.55; stroke-width: 0.4"/>
     <use xlink:href="#m52941ba25e" x="339.355347" y="97.427462" style="fill: #c8900a; fill-opacity: 0.55; stroke: #ffffff; stroke-opacity: 0.55; stroke-width: 0.4"/>
     <use xlink:href="#m52941ba25e" x="397.525762" y="102.660684" style="fill: #c8900a; fill-opacity: 0.55; stroke: #ffffff; stroke-opacity: 0.55; stroke-width: 0.4"/>
     <use xlink:href="#m52941ba25e" x="413.834148" y="96.775738" style="fill: #c8900a; fill-opacity: 0.55; stroke: #ffffff; stroke-opacity: 0.55; stroke-width: 0.4"/>
     <use xlink:href="#m52941ba25e" x="239.069532" y="138.467249" style="fill: #c8900a; fill-opacity: 0.55; stroke: #ffffff; stroke-opacity: 0.55; stroke-width: 0.4"/>
     <use xlink:href="#m52941ba25e" x="119.954128" y="209.560978" style="fill: #c8900a; fill-opacity: 0.55; stroke: #ffffff; stroke-opacity: 0.55; stroke-width: 0.4"/>
     <use xlink:href="#m52941ba25e" x="81.051672" y="223.498578" style="fill: #c8900a; fill-opacity: 0.55; stroke: #ffffff; stroke-opacity: 0.55; stroke-width: 0.4"/>
     <use xlink:href="#m52941ba25e" x="242.415954" y="168.916656" style="fill: #c8900a; fill-opacity: 0.55; stroke: #ffffff; stroke-opacity: 0.55; stroke-width: 0.4"/>
     <use xlink:href="#m52941ba25e" x="98.719555" y="222.87966" style="fill: #c8900a; fill-opacity: 0.55; stroke: #ffffff; stroke-opacity: 0.55; stroke-width: 0.4"/>
     <use xlink:href="#m52941ba25e" x="112.927023" y="221.76186" style="fill: #c8900a; fill-opacity: 0.55; stroke: #ffffff; stroke-opacity: 0.55; stroke-width: 0.4"/>
     <use xlink:href="#m52941ba25e" x="153.162537" y="189.448757" style="fill: #c8900a; fill-opacity: 0.55; stroke: #ffffff; stroke-opacity: 0.55; stroke-width: 0.4"/>
     <use xlink:href="#m52941ba25e" x="413.262609" y="105.298698" style="fill: #c8900a; fill-opacity: 0.55; stroke: #ffffff; stroke-opacity: 0.55; stroke-width: 0.4"/>
     <use xlink:href="#m52941ba25e" x="128.219128" y="213.618661" style="fill: #c8900a; fill-opacity: 0.55; stroke: #ffffff; stroke-opacity: 0.55; stroke-width: 0.4"/>
     <use xlink:href="#m52941ba25e" x="110.322786" y="222.558134" style="fill: #c8900a; fill-opacity: 0.55; stroke: #ffffff; stroke-opacity: 0.55; stroke-width: 0.4"/>
     <use xlink:href="#m52941ba25e" x="387.131021" y="113.678314" style="fill: #c8900a; fill-opacity: 0.55; stroke: #ffffff; stroke-opacity: 0.55; stroke-width: 0.4"/>
     <use xlink:href="#m52941ba25e" x="286.185304" y="158.314482" style="fill: #c8900a; fill-opacity: 0.55; stroke: #ffffff; stroke-opacity: 0.55; stroke-width: 0.4"/>
     <use xlink:href="#m52941ba25e" x="326.662989" y="90.858182" style="fill: #c8900a; fill-opacity: 0.55; stroke: #ffffff; stroke-opacity: 0.55; stroke-width: 0.4"/>
     <use xlink:href="#m52941ba25e" x="194.349052" y="191.483658" style="fill: #c8900a; fill-opacity: 0.55; stroke: #ffffff; stroke-opacity: 0.55; stroke-width: 0.4"/>
     <use xlink:href="#m52941ba25e" x="393.28309" y="111.776603" style="fill: #c8900a; fill-opacity: 0.55; stroke: #ffffff; stroke-opacity: 0.55; stroke-width: 0.4"/>
     <use xlink:href="#m52941ba25e" x="407.803177" y="100.388044" style="fill: #c8900a; fill-opacity: 0.55; stroke: #ffffff; stroke-opacity: 0.55; stroke-width: 0.4"/>
     <use xlink:href="#m52941ba25e" x="264.332398" y="157.761583" style="fill: #c8900a; fill-opacity: 0.55; stroke: #ffffff; stroke-opacity: 0.55; stroke-width: 0.4"/>
     <use xlink:href="#m52941ba25e" x="411.492495" y="104.463381" style="fill: #c8900a; fill-opacity: 0.55; stroke: #ffffff; stroke-opacity: 0.55; stroke-width: 0.4"/>
     <use xlink:href="#m52941ba25e" x="246.241995" y="167.222173" style="fill: #c8900a; fill-opacity: 0.55; stroke: #ffffff; stroke-opacity: 0.55; stroke-width: 0.4"/>
     <use xlink:href="#m52941ba25e" x="223.550881" y="133.282102" style="fill: #c8900a; fill-opacity: 0.55; stroke: #ffffff; stroke-opacity: 0.55; stroke-width: 0.4"/>
     <use xlink:href="#m52941ba25e" x="342.30474" y="92.806794" style="fill: #c8900a; fill-opacity: 0.55; stroke: #ffffff; stroke-opacity: 0.55; stroke-width: 0.4"/>
     <use xlink:href="#m52941ba25e" x="293.80394" y="139.998714" style="fill: #c8900a; fill-opacity: 0.55; stroke: #ffffff; stroke-opacity: 0.55; stroke-width: 0.4"/>
     <use xlink:href="#m52941ba25e" x="141.37669" y="206.949482" style="fill: #c8900a; fill-opacity: 0.55; stroke: #ffffff; stroke-opacity: 0.55; stroke-width: 0.4"/>
     <use xlink:href="#m52941ba25e" x="249.383493" y="97.880647" style="fill: #c8900a; fill-opacity: 0.55; stroke: #ffffff; stroke-opacity: 0.55; stroke-width: 0.4"/>
     <use xlink:href="#m52941ba25e" x="78.144042" y="237.309619" style="fill: #c8900a; fill-opacity: 0.55; stroke: #ffffff; stroke-opacity: 0.55; stroke-width: 0.4"/>
     <use xlink:href="#m52941ba25e" x="373.299424" y="103.63289" style="fill: #c8900a; fill-opacity: 0.55; stroke: #ffffff; stroke-opacity: 0.55; stroke-width: 0.4"/>
     <use xlink:href="#m52941ba25e" x="258.832652" y="163.093306" style="fill: #c8900a; fill-opacity: 0.55; stroke: #ffffff; stroke-opacity: 0.55; stroke-width: 0.4"/>
     <use xlink:href="#m52941ba25e" x="88.356155" y="237.031457" style="fill: #c8900a; fill-opacity: 0.55; stroke: #ffffff; stroke-opacity: 0.55; stroke-width: 0.4"/>
     <use xlink:href="#m52941ba25e" x="394.631905" y="78.939515" style="fill: #c8900a; fill-opacity: 0.55; stroke: #ffffff; stroke-opacity: 0.55; stroke-width: 0.4"/>
     <use xlink:href="#m52941ba25e" x="415.81958" y="98.277437" style="fill: #c8900a; fill-opacity: 0.55; stroke: #ffffff; stroke-opacity: 0.55; stroke-width: 0.4"/>
     <use xlink:href="#m52941ba25e" x="325.771451" y="131.785263" style="fill: #c8900a; fill-opacity: 0.55; stroke: #ffffff; stroke-opacity: 0.55; stroke-width: 0.4"/>
     <use xlink:href="#m52941ba25e" x="220.659504" y="180.606748" style="fill: #c8900a; fill-opacity: 0.55; stroke: #ffffff; stroke-opacity: 0.55; stroke-width: 0.4"/>
     <use xlink:href="#m52941ba25e" x="275.656156" y="147.491058" style="fill: #c8900a; fill-opacity: 0.55; stroke: #ffffff; stroke-opacity: 0.55; stroke-width: 0.4"/>
     <use xlink:href="#m52941ba25e" x="76.00473" y="238.616008" style="fill: #c8900a; fill-opacity: 0.55; stroke: #ffffff; stroke-opacity: 0.55; stroke-width: 0.4"/>
     <use xlink:href="#m52941ba25e" x="109.744706" y="226.995117" style="fill: #c8900a; fill-opacity: 0.55; stroke: #ffffff; stroke-opacity: 0.55; stroke-width: 0.4"/>
     <use xlink:href="#m52941ba25e" x="186.195864" y="182.970107" style="fill: #c8900a; fill-opacity: 0.55; stroke: #ffffff; stroke-opacity: 0.55; stroke-width: 0.4"/>
     <use xlink:href="#m52941ba25e" x="213.770224" y="186.63185" style="fill: #c8900a; fill-opacity: 0.55; stroke: #ffffff; stroke-opacity: 0.55; stroke-width: 0.4"/>
     <use xlink:href="#m52941ba25e" x="332.175896" y="131.976162" style="fill: #c8900a; fill-opacity: 0.55; stroke: #ffffff; stroke-opacity: 0.55; stroke-width: 0.4"/>
     <use xlink:href="#m52941ba25e" x="131.139495" y="199.826629" style="fill: #c8900a; fill-opacity: 0.55; stroke: #ffffff; stroke-opacity: 0.55; stroke-width: 0.4"/>
     <use xlink:href="#m52941ba25e" x="112.374519" y="226.704983" style="fill: #c8900a; fill-opacity: 0.55; stroke: #ffffff; stroke-opacity: 0.55; stroke-width: 0.4"/>
     <use xlink:href="#m52941ba25e" x="312.084969" y="139.167116" style="fill: #c8900a; fill-opacity: 0.55; stroke: #ffffff; stroke-opacity: 0.55; stroke-width: 0.4"/>
     <use xlink:href="#m52941ba25e" x="377.549587" y="120.991847" style="fill: #c8900a; fill-opacity: 0.55; stroke: #ffffff; stroke-opacity: 0.55; stroke-width: 0.4"/>
     <use xlink:href="#m52941ba25e" x="374.67606" y="120.5176" style="fill: #c8900a; fill-opacity: 0.55; stroke: #ffffff; stroke-opacity: 0.55; stroke-width: 0.4"/>
     <use xlink:href="#m52941ba25e" x="327.35536" y="131.072896" style="fill: #c8900a; fill-opacity: 0.55; stroke: #ffffff; stroke-opacity: 0.55; stroke-width: 0.4"/>
     <use xlink:href="#m52941ba25e" x="410.368151" y="74.640512" style="fill: #c8900a; fill-opacity: 0.55; stroke: #ffffff; stroke-opacity: 0.55; stroke-width: 0.4"/>
     <use xlink:href="#m52941ba25e" x="251.840654" y="170.320938" style="fill: #c8900a; fill-opacity: 0.55; stroke: #ffffff; stroke-opacity: 0.55; stroke-width: 0.4"/>
     <use xlink:href="#m52941ba25e" x="338.537928" y="108.74799" style="fill: #c8900a; fill-opacity: 0.55; stroke: #ffffff; stroke-opacity: 0.55; stroke-width: 0.4"/>
     <use xlink:href="#m52941ba25e" x="215.800016" y="175.917408" style="fill: #c8900a; fill-opacity: 0.55; stroke: #ffffff; stroke-opacity: 0.55; stroke-width: 0.4"/>
     <use xlink:href="#m52941ba25e" x="193.841395" y="179.740474" style="fill: #c8900a; fill-opacity: 0.55; stroke: #ffffff; stroke-opacity: 0.55; stroke-width: 0.4"/>
     <use xlink:href="#m52941ba25e" x="385.378475" y="113.656387" style="fill: #c8900a; fill-opacity: 0.55; stroke: #ffffff; stroke-opacity: 0.55; stroke-width: 0.4"/>
     <use xlink:href="#m52941ba25e" x="220.447739" y="134.871355" style="fill: #c8900a; fill-opacity: 0.55; stroke: #ffffff; stroke-opacity: 0.55; stroke-width: 0.4"/>
     <use xlink:href="#m52941ba25e" x="328.920052" y="136.795401" style="fill: #c8900a; fill-opacity: 0.55; stroke: #ffffff; stroke-opacity: 0.55; stroke-width: 0.4"/>
     <use xlink:href="#m52941ba25e" x="243.228699" y="162.717938" style="fill: #c8900a; fill-opacity: 0.55; stroke: #ffffff; stroke-opacity: 0.55; stroke-width: 0.4"/>
     <use xlink:href="#m52941ba25e" x="111.037591" y="224.136912" style="fill: #c8900a; fill-opacity: 0.55; stroke: #ffffff; stroke-opacity: 0.55; stroke-width: 0.4"/>
     <use xlink:href="#m52941ba25e" x="116.074727" y="216.31619" style="fill: #c8900a; fill-opacity: 0.55; stroke: #ffffff; stroke-opacity: 0.55; stroke-width: 0.4"/>
     <use xlink:href="#m52941ba25e" x="247.728845" y="153.820222" style="fill: #c8900a; fill-opacity: 0.55; stroke: #ffffff; stroke-opacity: 0.55; stroke-width: 0.4"/>
     <use xlink:href="#m52941ba25e" x="315.593704" y="122.203371" style="fill: #c8900a; fill-opacity: 0.55; stroke: #ffffff; stroke-opacity: 0.55; stroke-width: 0.4"/>
     <use xlink:href="#m52941ba25e" x="327.550485" y="134.063611" style="fill: #c8900a; fill-opacity: 0.55; stroke: #ffffff; stroke-opacity: 0.55; stroke-width: 0.4"/>
     <use xlink:href="#m52941ba25e" x="187.809614" y="187.951416" style="fill: #c8900a; fill-opacity: 0.55; stroke: #ffffff; stroke-opacity: 0.55; stroke-width: 0.4"/>
     <use xlink:href="#m52941ba25e" x="75.653909" y="240.96876" style="fill: #c8900a; fill-opacity: 0.55; stroke: #ffffff; stroke-opacity: 0.55; stroke-width: 0.4"/>
    </g>
   </g>
   <g id="text_19">
    <!-- 图 2  哪条分界线最好？ -->
    <g transform="translate(171.6515 18.028125) scale(0.132 -0.132)">
     <defs>
      <path id="SimHei-56fe" d="M 5800 4975 
Q 5775 4350 5775 3600 
L 5775 925 
Q 5775 150 5800 -600 
L 5300 -600 
L 5300 -275 
L 1125 -275 
L 1125 -650 
L 625 -650 
Q 650 125 650 950 
L 650 3600 
Q 650 4325 625 4975 
L 5800 4975 
z
M 5300 150 
L 5300 4575 
L 1125 4575 
L 1125 150 
L 5300 150 
z
M 3225 4250 
Q 3075 4100 2950 3925 
L 4625 3925 
Q 4525 3700 4300 3375 
Q 4075 3050 3600 2600 
Q 4350 2225 5075 2150 
Q 4900 1925 4775 1675 
Q 3850 1950 3225 2350 
Q 2500 1875 1675 1650 
Q 1600 1875 1400 2075 
Q 2200 2200 2875 2600 
Q 2525 2925 2375 3150 
Q 2150 2900 1900 2650 
Q 1725 2850 1525 2950 
Q 1950 3300 2250 3737 
Q 2550 4175 2675 4475 
Q 2925 4350 3225 4250 
z
M 2450 1275 
Q 3550 950 4100 725 
Q 3975 525 3850 300 
Q 2825 725 2275 850 
Q 2375 1050 2450 1275 
z
M 2925 2050 
Q 3775 1700 4075 1600 
Q 3950 1400 3850 1150 
Q 3000 1550 2700 1650 
Q 2825 1825 2925 2050 
z
M 2625 3450 
Q 3000 3025 3275 2850 
Q 3600 3100 3875 3525 
L 2675 3525 
L 2625 3450 
z
" transform="scale(0.015625)"/>
      <path id="SimHei-20" transform="scale(0.015625)"/>
      <path id="SimHei-54ea" d="M 4050 25 
Q 4050 -250 3862 -375 
Q 3675 -500 3275 -600 
Q 3200 -275 3050 -75 
Q 3625 -100 3625 100 
L 3625 1650 
L 3125 1650 
Q 3100 1325 3012 937 
Q 2925 550 2675 100 
Q 2425 -350 2150 -625 
Q 2000 -450 1675 -375 
Q 2175 50 2400 625 
Q 2625 1200 2650 1650 
Q 2375 1650 2200 1625 
L 2200 2050 
Q 2275 2025 2675 2025 
Q 2700 2675 2700 3075 
Q 2375 3075 2200 3050 
L 2200 3450 
Q 2350 3425 2700 3425 
L 2700 4600 
Q 2500 4600 2200 4575 
L 2200 4975 
Q 2500 4950 2675 4950 
L 4075 4950 
Q 4050 4600 4050 4275 
L 4050 25 
z
M 550 3650 
Q 550 4525 525 4825 
L 2025 4825 
Q 2000 4525 2000 3650 
L 2000 1850 
Q 2000 1050 2025 775 
L 1550 775 
L 1550 1300 
L 975 1300 
L 975 225 
L 525 225 
Q 550 550 550 1375 
L 550 3650 
z
M 6175 4950 
Q 5900 3950 5575 2825 
Q 6125 1675 6162 1312 
Q 6200 950 6062 700 
Q 5925 450 5325 175 
Q 5275 450 5050 700 
Q 5800 750 5625 1462 
Q 5450 2175 5100 2750 
Q 5425 3850 5575 4600 
L 4875 4600 
L 4875 925 
Q 4875 125 4900 -650 
L 4375 -650 
Q 4450 125 4450 825 
L 4450 3650 
Q 4450 4300 4400 4950 
L 6175 4950 
z
M 1550 4475 
L 975 4475 
L 975 1650 
L 1550 1650 
L 1550 4475 
z
M 3625 3425 
L 3625 4600 
L 3150 4600 
L 3150 3425 
L 3625 3425 
z
M 3625 2025 
L 3625 3075 
L 3175 3075 
Q 3150 2300 3150 2025 
L 3625 2025 
z
" transform="scale(0.015625)"/>
      <path id="SimHei-6761" d="M 2700 5075 
Q 2600 5000 2400 4700 
L 5225 4700 
Q 4975 4300 4625 3875 
Q 4275 3450 3750 3050 
Q 4100 2850 4750 2687 
Q 5400 2525 6200 2525 
Q 5950 2275 5925 2000 
Q 5000 2100 4387 2300 
Q 3775 2500 3275 2825 
Q 2500 2375 1837 2175 
Q 1175 1975 575 1850 
Q 500 2125 275 2300 
Q 1250 2400 1912 2625 
Q 2575 2850 2825 3075 
Q 2400 3425 1925 3975 
Q 1600 3550 1150 3075 
Q 925 3300 725 3350 
Q 1225 3775 1625 4350 
Q 2025 4925 2125 5300 
Q 2525 5125 2700 5075 
z
M 2950 1775 
Q 2950 2000 2925 2400 
L 3475 2400 
Q 3450 1975 3450 1775 
L 4500 1775 
Q 5025 1775 5550 1800 
L 5550 1325 
Q 5025 1350 4525 1350 
L 3450 1350 
L 3450 -50 
Q 3475 -575 2450 -625 
Q 2375 -375 2225 -75 
Q 2975 -150 2950 200 
L 2950 1350 
L 1850 1350 
Q 1350 1350 825 1325 
L 825 1800 
Q 1350 1775 1850 1775 
L 2950 1775 
z
M 3300 3300 
Q 4025 3775 4325 4275 
L 2250 4275 
Q 2700 3675 3300 3300 
z
M 4200 1000 
Q 4950 575 5800 0 
Q 5650 -175 5500 -400 
Q 5150 -150 4787 100 
Q 4425 350 3925 600 
Q 4075 775 4200 1000 
z
M 2375 700 
Q 2275 600 1800 250 
Q 1325 -100 850 -400 
Q 700 -200 500 -50 
Q 825 100 1287 437 
Q 1750 775 1950 1050 
L 2375 700 
z
" transform="scale(0.015625)"/>
      <path id="SimHei-5206" d="M 1000 -650 
Q 825 -375 575 -225 
Q 975 -75 1300 137 
Q 1625 350 1875 662 
Q 2125 975 2250 1350 
Q 2375 1725 2425 2275 
Q 1850 2275 1500 2250 
L 1500 2775 
Q 1900 2750 2525 2750 
L 5025 2750 
Q 4975 2375 4950 2100 
L 4750 250 
Q 4700 -200 4350 -350 
Q 4000 -500 3575 -525 
Q 3550 -275 3325 50 
Q 3850 25 4037 87 
Q 4225 150 4275 525 
L 4450 2275 
L 2950 2275 
Q 2875 1625 2737 1187 
Q 2600 750 2350 425 
Q 2100 100 1750 -175 
Q 1400 -450 1000 -650 
z
M 3950 5175 
Q 4125 4650 4662 3975 
Q 5200 3300 6175 2800 
Q 5975 2625 5775 2275 
Q 5325 2600 4987 2887 
Q 4650 3175 4425 3425 
Q 4200 3675 3925 4137 
Q 3650 4600 3475 5000 
Q 3750 5075 3950 5175 
z
M 2700 4825 
Q 2475 4425 2325 4125 
Q 2175 3825 2025 3587 
Q 1875 3350 1575 2950 
Q 1275 2550 850 2125 
Q 625 2350 400 2475 
Q 900 2925 1187 3300 
Q 1475 3675 1737 4112 
Q 2000 4550 2200 5075 
Q 2400 4925 2700 4825 
z
" transform="scale(0.015625)"/>
      <path id="SimHei-754c" d="M 5400 5075 
Q 5375 4800 5375 4225 
L 5375 3675 
Q 5375 3350 5400 2875 
L 975 2875 
Q 1000 3350 1000 3700 
L 1000 4225 
Q 1000 4700 975 5075 
L 5400 5075 
z
M 3400 2450 
Q 3875 2100 4700 1787 
Q 5525 1475 6150 1425 
Q 5925 1200 5800 925 
Q 5175 1075 4575 1325 
Q 4550 1175 4550 925 
L 4550 150 
Q 4550 -225 4575 -600 
L 4025 -600 
Q 4050 -250 4050 150 
L 4050 825 
Q 4050 1150 4025 1450 
L 4325 1450 
Q 3775 1650 3100 2200 
Q 2700 1900 2075 1587 
Q 1450 1275 625 1000 
Q 525 1225 300 1425 
Q 675 1500 1300 1725 
Q 1925 1950 2387 2262 
Q 2850 2575 3000 2800 
Q 3250 2675 3525 2550 
L 3400 2450 
z
M 2400 1375 
Q 2350 1200 2337 1000 
Q 2325 800 2262 525 
Q 2200 250 2000 -37 
Q 1800 -325 1325 -700 
Q 1150 -475 950 -350 
Q 1350 -100 1562 137 
Q 1775 375 1825 600 
Q 1875 825 1887 987 
Q 1900 1150 1900 1450 
Q 2225 1400 2400 1375 
z
M 4875 3225 
L 4875 3800 
L 3400 3800 
L 3400 3225 
L 4875 3225 
z
M 4875 4150 
L 4875 4725 
L 3400 4725 
L 3400 4150 
L 4875 4150 
z
M 2925 4150 
L 2925 4725 
L 1500 4725 
L 1500 4150 
L 2925 4150 
z
M 2925 3225 
L 2925 3800 
L 1500 3800 
L 1500 3225 
L 2925 3225 
z
" transform="scale(0.015625)"/>
      <path id="SimHei-7ebf" d="M 3450 4300 
Q 3450 4675 3375 5125 
Q 3700 5100 4050 5050 
Q 3975 4900 3950 4562 
Q 3925 4225 3950 3600 
L 4800 3750 
Q 5225 3850 5650 3975 
L 5750 3500 
Q 5325 3450 4875 3375 
L 3975 3200 
Q 3975 2800 4025 2500 
L 5000 2675 
Q 5500 2775 5950 2925 
L 6025 2450 
Q 5575 2375 5075 2275 
L 4100 2100 
Q 4150 1600 4350 1175 
Q 4575 1350 4787 1575 
Q 5000 1800 5175 2075 
Q 5550 1775 5750 1675 
Q 5425 1525 5237 1337 
Q 5050 1150 4625 750 
Q 4925 250 5162 112 
Q 5400 -25 5500 100 
Q 5600 225 5675 625 
Q 5900 450 6200 350 
Q 5775 -750 5275 -537 
Q 4775 -325 4225 450 
Q 3875 175 3537 -62 
Q 3200 -300 2700 -550 
Q 2575 -300 2325 -100 
Q 2825 75 3175 275 
Q 3525 475 3975 850 
Q 3750 1350 3650 2025 
Q 2900 1900 2600 1800 
L 2525 2275 
Q 2825 2275 3550 2425 
Q 3500 2825 3500 3100 
Q 2825 2950 2575 2875 
L 2475 3350 
Q 2725 3350 3450 3500 
L 3450 4300 
z
M 1950 4875 
Q 1700 4650 1462 4237 
Q 1225 3825 825 3225 
Q 1425 3250 1650 3250 
Q 1875 3625 2050 4075 
Q 2300 3900 2600 3800 
Q 2350 3550 2087 3125 
Q 1825 2700 1175 1675 
Q 1850 1725 2375 1775 
Q 2300 1525 2300 1350 
Q 2125 1350 1525 1287 
Q 925 1225 550 1125 
Q 525 1375 400 1650 
Q 700 1725 950 2050 
Q 1200 2375 1475 2875 
Q 650 2825 425 2675 
Q 350 2950 200 3225 
Q 525 3450 825 3962 
Q 1125 4475 1375 5150 
Q 1625 4975 1950 4875 
z
M 2575 875 
Q 2550 600 2575 450 
Q 1950 325 1450 200 
Q 950 75 525 -75 
Q 450 200 250 475 
Q 950 550 1325 612 
Q 1700 675 2575 875 
z
M 4850 4025 
Q 4675 4300 4375 4675 
L 4775 4875 
Q 4875 4750 5275 4275 
Q 5025 4175 4850 4025 
z
" transform="scale(0.015625)"/>
      <path id="SimHei-6700" d="M 475 275 
Q 675 300 1100 350 
L 1100 2450 
Q 775 2450 425 2425 
L 425 2850 
Q 775 2825 1125 2825 
L 5025 2825 
Q 5475 2825 5900 2850 
L 5900 2425 
Q 5475 2450 5025 2450 
L 3050 2450 
L 3050 675 
L 3400 775 
Q 3400 550 3425 400 
Q 3225 350 3050 325 
Q 3050 -125 3075 -550 
L 2600 -550 
Q 2625 -125 2625 250 
Q 2350 200 1812 87 
Q 1275 -25 650 -175 
Q 575 100 475 275 
z
M 5100 4925 
Q 5075 4600 5075 4325 
L 5075 3875 
Q 5075 3600 5100 3250 
L 1275 3250 
Q 1300 3600 1300 3875 
L 1300 4325 
Q 1300 4600 1275 4925 
L 5100 4925 
z
M 3300 2050 
Q 3750 2025 4125 2025 
L 5375 2025 
Q 5100 975 4725 400 
Q 5350 0 5925 -100 
Q 5700 -275 5650 -500 
Q 5025 -300 4475 150 
Q 4150 -200 3600 -575 
Q 3500 -425 3250 -275 
Q 3775 -100 4150 350 
Q 3725 775 3500 1675 
L 3300 1675 
L 3300 2050 
z
M 4600 4250 
L 4600 4600 
L 1750 4600 
L 1750 4250 
L 4600 4250 
z
M 4600 3575 
L 4600 3900 
L 1750 3900 
L 1750 3575 
L 4600 3575 
z
M 3900 1675 
Q 4000 1075 4400 625 
Q 4700 1050 4850 1675 
L 3900 1675 
z
M 2625 1250 
L 2625 1675 
L 1525 1675 
L 1525 1250 
L 2625 1250 
z
M 2625 575 
L 2625 925 
L 1525 925 
L 1525 425 
L 2625 575 
z
M 2625 2025 
L 2625 2450 
L 1525 2450 
L 1525 2025 
L 2625 2025 
z
" transform="scale(0.015625)"/>
      <path id="SimHei-597d" d="M 2025 5050 
Q 1875 4775 1800 4437 
Q 1725 4100 1650 3775 
L 2900 3775 
Q 2775 3025 2625 2425 
Q 2475 1825 2150 1175 
Q 2550 825 3075 325 
Q 2850 150 2675 -50 
Q 2300 425 1900 775 
Q 1575 375 1250 62 
Q 925 -250 575 -525 
Q 475 -350 200 -150 
Q 575 75 912 362 
Q 1250 650 1550 1075 
Q 1100 1425 575 1750 
Q 900 2500 1100 3375 
Q 700 3375 400 3350 
L 400 3800 
Q 700 3775 1200 3775 
Q 1350 4375 1450 5200 
Q 1700 5125 2025 5050 
z
M 5900 4600 
L 5900 4150 
Q 5650 3950 5350 3712 
Q 5050 3475 4725 3200 
L 4725 2425 
L 5400 2425 
Q 5725 2425 6125 2450 
L 6125 1975 
Q 5725 2000 5400 2000 
L 4725 2000 
L 4725 200 
Q 4725 -275 4437 -400 
Q 4150 -525 3650 -600 
Q 3575 -325 3425 -25 
Q 3975 -25 4112 37 
Q 4250 100 4250 400 
L 4250 2000 
L 3875 2000 
Q 3350 2000 2850 1975 
L 2850 2450 
Q 3350 2425 3800 2425 
L 4250 2425 
Q 4250 2800 4237 3012 
Q 4225 3225 4175 3350 
Q 4400 3500 4700 3737 
Q 5000 3975 5225 4200 
L 3725 4200 
Q 3475 4200 3050 4175 
L 3050 4625 
Q 3475 4600 3725 4600 
L 5900 4600 
z
M 1125 1925 
Q 1500 1675 1775 1475 
Q 1950 1775 2100 2275 
Q 2250 2775 2350 3375 
L 1575 3375 
Q 1350 2550 1125 1925 
z
" transform="scale(0.015625)"/>
      <path id="SimHei-ff1f" d="M 2000 4600 
Q 2650 4675 3050 3925 
Q 3300 3075 2375 2225 
Q 2075 1775 2075 1250 
L 1625 1250 
Q 1600 2175 2450 3000 
Q 2650 3300 2625 3650 
Q 2475 4150 2050 4125 
L 1950 4125 
Q 1425 4100 1450 3350 
L 975 3350 
Q 950 4275 1600 4500 
Q 1700 4575 2000 4600 
z
M 1525 725 
L 2225 725 
L 2225 0 
L 1525 0 
L 1525 725 
z
" transform="scale(0.015625)"/>
     </defs>
     <use xlink:href="#SimHei-56fe"/>
     <use xlink:href="#SimHei-20" transform="translate(100 0)"/>
     <use xlink:href="#SimHei-32" transform="translate(150 0)"/>
     <use xlink:href="#SimHei-20" transform="translate(200 0)"/>
     <use xlink:href="#SimHei-20" transform="translate(250 0)"/>
     <use xlink:href="#SimHei-54ea" transform="translate(300 0)"/>
     <use xlink:href="#SimHei-6761" transform="translate(400 0)"/>
     <use xlink:href="#SimHei-5206" transform="translate(500 0)"/>
     <use xlink:href="#SimHei-754c" transform="translate(600 0)"/>
     <use xlink:href="#SimHei-7ebf" transform="translate(700 0)"/>
     <use xlink:href="#SimHei-6700" transform="translate(800 0)"/>
     <use xlink:href="#SimHei-597d" transform="translate(900 0)"/>
     <use xlink:href="#SimHei-ff1f" transform="translate(1000 0)"/>
    </g>
    <!-- （所有这些直线都能将两类完全分开） -->
    <g transform="translate(132.0515 32.61) scale(0.132 -0.132)">
     <defs>
      <path id="SimHei-ff08" d="M 5425 5100 
L 5700 4775 
Q 4275 3725 4325 2350 
Q 4350 1025 5675 50 
L 5400 -275 
Q 3875 825 3925 2500 
Q 3925 3875 5425 5100 
z
" transform="scale(0.015625)"/>
      <path id="SimHei-6240" d="M 2925 4450 
Q 2650 4425 1375 4250 
L 1375 3375 
L 2725 3375 
Q 2700 2800 2700 2225 
Q 2700 1675 2725 1325 
L 1350 1325 
Q 1325 875 1175 425 
Q 1025 -25 775 -525 
Q 575 -325 325 -275 
Q 725 325 812 1050 
Q 900 1775 900 2675 
Q 900 3575 875 4575 
Q 2225 4725 2650 4950 
Q 2750 4725 2925 4450 
z
M 5825 4425 
Q 5475 4400 5000 4337 
Q 4525 4275 3800 4225 
L 3800 3025 
L 5225 3025 
Q 5575 3025 5975 3050 
L 5975 2600 
Q 5575 2625 5200 2625 
L 5200 400 
Q 5200 -100 5225 -500 
L 4700 -500 
Q 4725 -50 4725 400 
L 4725 2625 
L 3800 2625 
Q 3750 1625 3600 1062 
Q 3450 500 3250 125 
Q 3050 -250 2725 -625 
Q 2550 -425 2300 -325 
Q 2725 75 2975 612 
Q 3225 1150 3287 1812 
Q 3350 2475 3350 3125 
Q 3350 3800 3325 4600 
Q 3700 4600 4425 4687 
Q 5150 4775 5575 4950 
Q 5700 4675 5825 4425 
z
M 2275 1750 
L 2275 2975 
L 1375 2975 
L 1375 1750 
L 2275 1750 
z
" transform="scale(0.015625)"/>
      <path id="SimHei-6709" d="M 275 1625 
Q 850 1975 1400 2537 
Q 1950 3100 2400 3925 
L 1500 3925 
Q 1150 3925 625 3900 
L 625 4375 
Q 1275 4350 1600 4350 
L 2550 4350 
Q 2750 4950 2775 5225 
Q 3150 5125 3375 5075 
Q 3300 5000 3125 4350 
L 5150 4350 
Q 5575 4350 6025 4375 
L 6025 3900 
Q 5575 3925 5225 3925 
L 2975 3925 
Q 2800 3600 2600 3275 
L 5475 3275 
Q 5450 2650 5450 2150 
L 5450 125 
Q 5450 -225 5250 -387 
Q 5050 -550 4400 -600 
Q 4375 -325 4225 0 
Q 4600 -50 4775 -25 
Q 4950 0 4950 250 
L 4950 750 
L 2350 750 
L 2350 -575 
L 1800 -575 
Q 1825 50 1825 500 
L 1825 2275 
Q 1300 1675 725 1225 
Q 625 1400 275 1625 
z
M 4950 2175 
L 4950 2875 
L 2350 2875 
L 2350 2175 
L 4950 2175 
z
M 4950 1150 
L 4950 1775 
L 2350 1775 
L 2350 1150 
L 4950 1150 
z
" transform="scale(0.015625)"/>
      <path id="SimHei-8fd9" d="M 2850 3325 
Q 3700 2675 4050 2300 
Q 4400 2875 4550 3550 
Q 2650 3550 2200 3525 
L 2200 3975 
Q 2650 3950 2900 3950 
L 4900 3950 
Q 5275 3950 5725 3975 
L 5725 3525 
Q 5225 3550 5075 3550 
Q 4800 2575 4450 1950 
L 4975 1425 
Q 5250 1150 5625 750 
Q 5350 575 5175 350 
Q 4900 700 4687 937 
Q 4475 1175 4100 1550 
Q 3775 1150 3425 900 
Q 3075 650 2525 325 
Q 2450 500 2150 775 
Q 2600 900 3050 1225 
Q 3500 1550 3750 1875 
Q 3475 2200 2500 2975 
L 2850 3325 
z
M 300 -75 
Q 1050 425 1300 525 
L 1300 2500 
Q 875 2500 475 2450 
L 475 2875 
L 1800 2875 
Q 1775 2425 1775 2125 
L 1775 625 
Q 2350 -25 3750 -25 
Q 5175 -25 6000 100 
Q 5825 -175 5775 -525 
Q 4825 -525 4162 -512 
Q 3500 -500 3062 -437 
Q 2625 -375 2362 -262 
Q 2100 -150 1800 75 
Q 1500 300 1175 0 
Q 850 -300 675 -525 
Q 450 -200 300 -75 
z
M 1000 5000 
Q 1675 4175 1825 3875 
Q 1575 3725 1400 3575 
Q 1025 4225 575 4675 
Q 775 4800 1000 5000 
z
M 3925 4075 
Q 3800 4325 3175 4925 
Q 3400 5075 3525 5225 
Q 4175 4550 4300 4400 
Q 4150 4275 3925 4075 
z
" transform="scale(0.015625)"/>
      <path id="SimHei-4e9b" d="M 1400 4250 
Q 1375 3925 1375 3525 
L 1375 2225 
Q 1675 2275 2000 2350 
L 2000 4300 
Q 2000 4675 1975 5075 
L 2500 5075 
Q 2450 4675 2450 4300 
L 2450 3950 
Q 2875 3950 3250 3975 
L 3250 3550 
Q 2875 3575 2450 3575 
L 2450 2425 
Q 2800 2500 3325 2600 
Q 3275 2400 3325 2150 
Q 2050 1925 1400 1775 
Q 750 1625 550 1575 
Q 500 1775 375 2075 
L 925 2150 
L 925 3550 
Q 925 3950 900 4250 
L 1400 4250 
z
M 4050 5100 
Q 4025 4725 4025 4200 
L 4025 3550 
Q 5025 4075 5375 4425 
Q 5550 4175 5775 3975 
Q 5500 3875 4025 3125 
L 4025 2450 
Q 4000 2150 4325 2125 
L 5125 2125 
Q 5375 2125 5425 2725 
Q 5650 2550 5900 2500 
Q 5775 1725 5250 1725 
L 4100 1725 
Q 3575 1750 3575 2275 
L 3575 4175 
Q 3575 4750 3550 5100 
L 4050 5100 
z
M 4875 75 
Q 5250 75 5975 100 
L 5975 -375 
Q 5250 -350 4875 -350 
L 1350 -350 
Q 850 -350 450 -375 
L 450 100 
Q 875 75 1375 75 
L 4875 75 
z
M 4150 1275 
Q 4775 1275 5225 1300 
L 5225 850 
Q 4800 875 4075 875 
L 2150 875 
Q 1625 875 1150 850 
L 1150 1300 
Q 1800 1275 2150 1275 
L 4150 1275 
z
" transform="scale(0.015625)"/>
      <path id="SimHei-76f4" d="M 3550 5025 
Q 3475 4875 3400 4525 
L 4825 4525 
Q 5225 4525 5775 4550 
L 5775 4100 
Q 5250 4125 4825 4125 
L 3350 4125 
Q 3300 3775 3275 3525 
L 5100 3525 
Q 5075 3075 5075 2525 
L 5075 100 
L 5300 100 
Q 5650 100 6100 125 
L 6100 -350 
Q 5675 -325 5300 -325 
L 1225 -325 
Q 800 -325 325 -350 
L 325 125 
Q 825 100 1225 100 
L 1375 100 
L 1375 2525 
Q 1375 3175 1350 3525 
L 2775 3525 
Q 2825 3825 2850 4125 
L 1550 4125 
Q 1075 4125 600 4100 
L 600 4550 
Q 1075 4525 1525 4525 
L 2875 4525 
Q 2900 4800 2875 5075 
Q 3275 5025 3550 5025 
z
M 4600 975 
L 4600 1450 
L 1850 1450 
L 1850 975 
L 4600 975 
z
M 4600 100 
L 4600 575 
L 1850 575 
L 1850 100 
L 4600 100 
z
M 4600 2650 
L 4600 3125 
L 1850 3125 
L 1850 2650 
L 4600 2650 
z
M 4600 1825 
L 4600 2275 
L 1850 2275 
L 1850 1825 
L 4600 1825 
z
" transform="scale(0.015625)"/>
      <path id="SimHei-90fd" d="M 3425 2175 
Q 3400 1550 3400 900 
Q 3400 250 3425 -475 
L 2975 -475 
L 2975 -125 
L 1525 -125 
L 1525 -500 
L 1075 -500 
Q 1100 0 1100 475 
L 1100 1500 
Q 825 1300 600 1175 
Q 450 1425 250 1550 
Q 750 1825 1162 2125 
Q 1575 2425 1950 2825 
Q 1000 2825 375 2800 
L 375 3225 
Q 975 3200 1650 3200 
L 1650 3950 
Q 1050 3950 675 3925 
L 675 4325 
Q 1050 4300 1650 4300 
Q 1650 4875 1625 5100 
L 2150 5100 
Q 2125 4950 2125 4300 
Q 2450 4300 2750 4325 
L 2750 3925 
Q 2425 3950 2125 3950 
L 2125 3200 
L 2275 3200 
Q 2875 4025 3250 4875 
Q 3400 4775 3725 4575 
Q 3500 4325 3262 3925 
Q 3025 3525 2775 3200 
Q 3225 3200 3800 3225 
L 3800 2800 
Q 3225 2825 2500 2825 
Q 2175 2475 1850 2175 
L 3425 2175 
z
M 5275 2575 
Q 5750 2100 5937 1700 
Q 6125 1300 6075 937 
Q 6025 575 5787 425 
Q 5550 275 4975 125 
Q 4925 350 4750 700 
Q 5225 700 5425 800 
Q 5625 900 5600 1212 
Q 5575 1525 5287 1900 
Q 5000 2275 4775 2525 
Q 4975 3000 5325 4375 
L 4425 4375 
L 4425 -625 
L 3950 -625 
Q 3975 -75 3975 500 
L 3975 3600 
Q 3975 4200 3950 4775 
L 5950 4775 
Q 5525 3425 5275 2575 
z
M 2975 1200 
L 2975 1825 
L 1525 1825 
L 1525 1200 
L 2975 1200 
z
M 2975 250 
L 2975 825 
L 1525 825 
L 1525 250 
L 2975 250 
z
" transform="scale(0.015625)"/>
      <path id="SimHei-80fd" d="M 2025 -150 
Q 2475 -150 2525 -62 
Q 2575 25 2575 200 
L 2575 550 
L 1225 550 
L 1225 -625 
L 750 -625 
Q 775 -125 775 275 
L 775 1950 
Q 775 2400 750 2750 
L 3050 2750 
Q 3025 2375 3025 1925 
L 3025 -175 
Q 3000 -450 2800 -525 
Q 2600 -600 2225 -650 
Q 2175 -425 2025 -150 
z
M 5800 1625 
Q 5700 1600 5212 1375 
Q 4725 1150 4100 950 
L 4100 250 
Q 4100 -50 4375 -50 
L 5275 -50 
Q 5475 0 5550 575 
Q 5750 475 6050 375 
Q 5875 -425 5475 -425 
L 4125 -425 
Q 3650 -425 3650 50 
L 3650 1675 
Q 3650 2050 3625 2350 
L 4125 2350 
Q 4100 2050 4100 1700 
L 4100 1375 
Q 4350 1450 4762 1650 
Q 5175 1850 5425 2075 
Q 5650 1775 5800 1625 
z
M 4100 4100 
Q 4450 4250 4775 4412 
Q 5100 4575 5425 4825 
Q 5625 4575 5775 4400 
Q 5625 4350 5137 4112 
Q 4650 3875 4100 3700 
L 4100 3325 
Q 4100 3025 4450 3025 
L 5175 3025 
Q 5425 3025 5500 3675 
Q 5750 3550 6000 3450 
Q 5825 2650 5375 2650 
L 4250 2650 
Q 3650 2650 3650 3200 
L 3650 4475 
Q 3650 4775 3625 5125 
L 4125 5125 
Q 4100 4950 4100 4400 
L 4100 4100 
z
M 3025 3075 
Q 2950 3200 2825 3350 
Q 2000 3300 1450 3250 
Q 900 3200 625 3125 
Q 550 3425 450 3650 
Q 625 3725 987 4187 
Q 1350 4650 1575 5175 
Q 1700 5075 1850 5025 
Q 2000 4975 2175 4900 
Q 1975 4750 1762 4450 
Q 1550 4150 1075 3600 
Q 2125 3650 2625 3675 
Q 2325 4075 2200 4200 
Q 2375 4300 2600 4475 
Q 2800 4200 2987 3975 
Q 3175 3750 3475 3400 
Q 3200 3200 3025 3075 
z
M 2575 950 
L 2575 1475 
L 1225 1475 
L 1225 950 
L 2575 950 
z
M 2575 1875 
L 2575 2350 
L 1225 2350 
L 1225 1875 
L 2575 1875 
z
" transform="scale(0.015625)"/>
      <path id="SimHei-5c06" d="M 4150 5050 
Q 3925 4800 3775 4575 
L 5975 4575 
Q 5525 3675 5062 3225 
Q 4600 2775 4112 2550 
Q 3625 2325 2900 2100 
Q 2775 2375 2550 2575 
Q 2900 2625 3300 2737 
Q 3700 2850 3950 3000 
Q 3725 3250 3450 3500 
Q 3550 3550 3800 3800 
Q 4225 3400 4375 3225 
Q 4850 3550 5175 4175 
L 3525 4175 
Q 3300 3850 2750 3300 
Q 2575 3475 2325 3625 
Q 2775 3975 3037 4325 
Q 3300 4675 3575 5275 
Q 3975 5125 4150 5050 
z
M 4775 2000 
L 4775 2225 
Q 4775 2425 4750 2725 
L 5300 2725 
Q 5275 2450 5275 2300 
L 5275 2000 
L 5400 2000 
Q 5775 2000 6100 2025 
L 6100 1550 
Q 5725 1575 5400 1575 
L 5275 1575 
L 5275 75 
Q 5275 -350 5000 -475 
Q 4725 -600 4325 -650 
Q 4275 -350 4150 -50 
Q 4650 -75 4712 -12 
Q 4775 50 4775 175 
L 4775 1575 
L 3375 1575 
Q 2900 1575 2450 1550 
L 2450 2025 
Q 2900 2000 3375 2000 
L 4775 2000 
z
M 1550 4400 
Q 1550 4750 1525 5050 
L 2050 5050 
Q 2025 4625 2025 4250 
L 2025 275 
Q 2025 125 2050 -625 
L 1525 -625 
Q 1550 125 1550 275 
L 1550 1700 
Q 1025 1075 650 650 
Q 400 925 225 1050 
Q 1125 1800 1550 2475 
L 1550 4400 
z
M 650 4350 
Q 1150 3725 1500 3225 
Q 1250 3050 1050 2850 
Q 775 3350 225 4000 
Q 425 4175 650 4350 
z
M 3400 1425 
Q 3825 775 4000 475 
Q 3775 350 3550 175 
Q 3325 700 3000 1150 
Q 3225 1275 3400 1425 
z
" transform="scale(0.015625)"/>
      <path id="SimHei-4e24" d="M 1700 825 
Q 1575 975 1325 1175 
Q 2025 1850 2250 3075 
L 1175 3075 
L 1175 -500 
L 675 -500 
Q 700 175 700 675 
L 700 2650 
Q 700 2975 675 3500 
L 2300 3500 
Q 2325 3925 2350 4475 
L 1125 4475 
Q 825 4475 525 4450 
L 525 4900 
Q 825 4875 1100 4875 
L 5250 4875 
Q 5500 4875 5975 4900 
L 5975 4450 
Q 5625 4475 5275 4475 
L 4300 4475 
Q 4300 4100 4250 3500 
L 5750 3500 
Q 5725 3050 5725 2725 
L 5725 250 
Q 5725 -175 5462 -300 
Q 5200 -425 4475 -500 
Q 4400 -150 4225 75 
Q 4975 50 5112 125 
Q 5250 200 5250 500 
L 5250 3075 
L 4200 3075 
Q 4150 2650 4050 2275 
Q 4750 1725 5125 1400 
Q 4900 1200 4750 1000 
Q 4500 1325 3950 1800 
Q 3625 1000 3250 475 
Q 3000 650 2775 725 
Q 3075 1050 3350 1637 
Q 3625 2225 3725 3075 
L 2725 3075 
Q 2650 2700 2575 2425 
Q 3075 2000 3275 1750 
Q 3100 1600 2900 1400 
Q 2625 1800 2425 2000 
Q 2150 1350 1700 825 
z
M 3775 3500 
Q 3800 4100 3800 4475 
L 2825 4475 
Q 2825 4100 2775 3500 
L 3775 3500 
z
" transform="scale(0.015625)"/>
      <path id="SimHei-7c7b" d="M 2125 3875 
Q 1750 4375 1325 4725 
Q 1525 4875 1675 5050 
L 2525 4225 
Q 2400 4125 2200 3875 
L 3025 3875 
L 3025 4550 
Q 3025 4900 3000 5125 
L 3525 5125 
Q 3500 4850 3500 4550 
L 3500 3875 
L 4325 3875 
Q 4125 4050 4000 4150 
Q 4450 4575 4800 5175 
Q 5000 5000 5275 4825 
Q 5100 4675 4912 4475 
Q 4725 4275 4400 3875 
L 5025 3875 
Q 5425 3875 5900 3900 
L 5900 3450 
Q 5425 3475 5025 3475 
L 3500 3475 
L 3500 3050 
Q 3500 2650 3525 2175 
L 3175 2175 
Q 3475 2075 3675 2000 
Q 3575 1875 3525 1575 
L 5025 1575 
Q 5525 1575 6025 1600 
L 6025 1150 
Q 5550 1175 5050 1175 
L 3675 1175 
Q 4050 600 4712 275 
Q 5375 -50 6050 -175 
Q 5850 -350 5725 -675 
Q 4975 -450 4350 -37 
Q 3725 375 3300 950 
Q 3050 350 2425 -50 
Q 1800 -450 775 -700 
Q 650 -425 475 -225 
Q 1375 -100 2012 225 
Q 2650 550 2900 1175 
L 1625 1175 
Q 1025 1175 525 1150 
L 525 1600 
Q 950 1575 1600 1575 
L 3025 1575 
Q 3075 1825 3100 2175 
L 3000 2175 
Q 3025 2675 3025 3050 
L 3025 3325 
Q 2725 2900 2237 2550 
Q 1750 2200 925 1825 
Q 850 2025 625 2275 
Q 1175 2400 1725 2737 
Q 2275 3075 2600 3475 
L 1550 3475 
Q 1050 3475 600 3425 
L 600 3900 
Q 1075 3875 1550 3875 
L 2125 3875 
z
M 4100 3450 
Q 4850 3000 5800 2350 
Q 5575 2125 5425 1925 
Q 4700 2550 3825 3075 
Q 3975 3250 4100 3450 
z
" transform="scale(0.015625)"/>
      <path id="SimHei-5b8c" d="M 5125 2250 
Q 5600 2250 6025 2275 
L 6025 1800 
Q 5600 1825 5125 1825 
L 4050 1825 
L 4050 250 
Q 4050 25 4237 12 
Q 4425 0 4750 0 
Q 5100 0 5237 75 
Q 5375 150 5425 675 
Q 5775 475 6050 425 
Q 5900 -75 5712 -250 
Q 5525 -425 5300 -450 
L 4050 -450 
Q 3525 -425 3525 25 
L 3525 1825 
L 2625 1825 
Q 2600 1225 2400 725 
Q 2200 225 1700 -150 
Q 1200 -525 700 -700 
Q 500 -450 250 -250 
Q 925 -50 1300 212 
Q 1675 475 1837 800 
Q 2000 1125 2075 1825 
L 1300 1825 
Q 750 1825 350 1800 
L 350 2275 
Q 775 2250 1300 2250 
L 5125 2250 
z
M 2600 5000 
Q 2775 5100 3050 5275 
Q 3375 4850 3550 4500 
L 5900 4500 
Q 5850 4150 5850 3850 
Q 5850 3575 5900 3300 
L 5350 3300 
L 5350 4075 
L 1025 4075 
L 1025 3300 
L 450 3300 
Q 475 3625 475 3925 
Q 475 4225 450 4500 
L 2925 4500 
Q 2825 4675 2600 5000 
z
M 3900 3375 
Q 4375 3375 4800 3400 
L 4800 2900 
Q 4375 2925 3900 2925 
L 2350 2925 
Q 1875 2925 1425 2900 
L 1425 3400 
Q 1875 3375 2350 3375 
L 3900 3375 
z
" transform="scale(0.015625)"/>
      <path id="SimHei-5168" d="M 3475 4825 
Q 4350 3425 6125 3025 
Q 5900 2750 5825 2450 
Q 5325 2650 4975 2875 
L 4975 2475 
Q 4700 2500 4100 2500 
L 3500 2500 
L 3500 1500 
L 4450 1500 
Q 4975 1500 5300 1525 
L 5300 1075 
Q 4975 1100 4450 1100 
L 3500 1100 
L 3500 -25 
L 4475 -25 
Q 5225 -25 5700 25 
L 5700 -500 
Q 5250 -425 4525 -425 
L 1775 -425 
Q 1025 -425 650 -450 
L 650 0 
Q 1025 -25 1775 -25 
L 3000 -25 
L 3000 1100 
L 2300 1100 
Q 1450 1100 1175 1075 
L 1175 1525 
Q 1450 1500 2275 1500 
L 3000 1500 
L 3000 2500 
L 2500 2500 
Q 1725 2500 1500 2475 
L 1500 2875 
Q 1275 2700 650 2350 
Q 500 2650 300 2875 
Q 900 3025 1700 3625 
Q 2500 4225 2975 5200 
Q 3275 5075 3600 4950 
L 3475 4825 
z
M 1650 2950 
Q 1950 2925 2525 2925 
L 4025 2925 
Q 4525 2925 4800 2950 
Q 3725 3500 3200 4550 
Q 2525 3525 1650 2950 
z
" transform="scale(0.015625)"/>
      <path id="SimHei-5f00" d="M 2200 4450 
Q 1450 4450 800 4425 
L 800 4925 
Q 1425 4900 1950 4900 
L 4650 4900 
Q 5150 4900 5725 4925 
L 5725 4425 
Q 5175 4450 4500 4450 
L 4500 2600 
L 4975 2600 
Q 5475 2600 6050 2625 
L 6050 2125 
Q 5475 2175 4975 2175 
L 4500 2175 
L 4500 825 
Q 4500 200 4525 -575 
L 3950 -575 
Q 3975 200 3975 825 
L 3975 2175 
L 2725 2175 
Q 2650 1700 2525 1287 
Q 2400 875 2125 450 
Q 1850 25 1100 -575 
Q 900 -350 500 -150 
Q 1000 50 1362 412 
Q 1725 775 1937 1262 
Q 2150 1750 2175 2175 
L 1600 2175 
Q 950 2175 350 2100 
L 350 2625 
Q 975 2600 1600 2600 
L 2200 2600 
L 2200 4450 
z
M 3975 2600 
L 3975 4450 
L 2725 4450 
L 2725 2600 
L 3975 2600 
z
" transform="scale(0.015625)"/>
      <path id="SimHei-ff09" d="M 1000 5100 
Q 2500 3875 2500 2500 
Q 2550 825 1025 -275 
L 750 50 
Q 2075 1025 2100 2350 
Q 2150 3725 725 4775 
L 1000 5100 
z
" transform="scale(0.015625)"/>
     </defs>
     <use xlink:href="#SimHei-ff08"/>
     <use xlink:href="#SimHei-6240" transform="translate(100 0)"/>
     <use xlink:href="#SimHei-6709" transform="translate(200 0)"/>
     <use xlink:href="#SimHei-8fd9" transform="translate(300 0)"/>
     <use xlink:href="#SimHei-4e9b" transform="translate(400 0)"/>
     <use xlink:href="#SimHei-76f4" transform="translate(500 0)"/>
     <use xlink:href="#SimHei-7ebf" transform="translate(600 0)"/>
     <use xlink:href="#SimHei-90fd" transform="translate(700 0)"/>
     <use xlink:href="#SimHei-80fd" transform="translate(800 0)"/>
     <use xlink:href="#SimHei-5c06" transform="translate(900 0)"/>
     <use xlink:href="#SimHei-4e24" transform="translate(1000 0)"/>
     <use xlink:href="#SimHei-7c7b" transform="translate(1100 0)"/>
     <use xlink:href="#SimHei-5b8c" transform="translate(1200 0)"/>
     <use xlink:href="#SimHei-5168" transform="translate(1300 0)"/>
     <use xlink:href="#SimHei-5206" transform="translate(1400 0)"/>
     <use xlink:href="#SimHei-5f00" transform="translate(1500 0)"/>
     <use xlink:href="#SimHei-ff09" transform="translate(1600 0)"/>
    </g>
   </g>
  </g>
 </g>
 <defs>
  <clipPath id="p3994152952">
   <rect x="38.1375" y="38.61" width="412.228" height="310.8805"/>
  </clipPath>
 </defs>
</svg>
