<?xml version="1.0" encoding="utf-8" standalone="no"?>
<!DOCTYPE svg PUBLIC "-//W3C//DTD SVG 1.1//EN"
  "http://www.w3.org/Graphics/SVG/1.1/DTD/svg11.dtd">
<svg xmlns:xlink="http://www.w3.org/1999/xlink" width="566.543125pt" height="333.3925pt" viewBox="0 0 566.543125 333.3925" xmlns="http://www.w3.org/2000/svg" version="1.1">
 <metadata>
  <rdf:RDF xmlns:dc="http://purl.org/dc/elements/1.1/" xmlns:cc="http://creativecommons.org/ns#" xmlns:rdf="http://www.w3.org/1999/02/22-rdf-syntax-ns#">
   <cc:Work>
    <dc:type rdf:resource="http://purl.org/dc/dcmitype/StillImage"/>
    <dc:date>2026-04-30T00:54:25.297343</dc:date>
    <dc:format>image/svg+xml</dc:format>
    <dc:creator>
     <cc:Agent>
      <dc:title>Matplotlib v3.10.8, https://matplotlib.org/</dc:title>
     </cc:Agent>
    </dc:creator>
   </cc:Work>
  </rdf:RDF>
 </metadata>
 <defs>
  <style type="text/css">*{stroke-linejoin: round; stroke-linecap: butt}</style>
 </defs>
 <g id="figure_1">
  <g id="patch_1">
   <path d="M 0 333.3925 
L 566.543125 333.3925 
L 566.543125 0 
L 0 0 
z
" style="fill: #ffffff"/>
  </g>
  <g id="axes_1">
   <g id="patch_2">
    <path d="M 44.840625 294.595 
L 559.343125 294.595 
L 559.343125 23.925 
L 44.840625 23.925 
z
" style="fill: #ffffff"/>
   </g>
   <g id="matplotlib.axis_1">
    <g id="xtick_1">
     <g id="line2d_1">
      <path d="M 101.636356 294.595 
L 101.636356 23.925 
" clip-path="url(#pbf0a5cd751)" style="fill: none; stroke: #b0b0b0; stroke-opacity: 0.25; stroke-width: 0.8; stroke-linecap: square"/>
     </g>
     <g id="line2d_2">
      <defs>
       <path id="mcf0aa99956" d="M 0 0 
L 0 3.5 
" style="stroke: #000000; stroke-width: 0.8"/>
      </defs>
      <g>
       <use xlink:href="#mcf0aa99956" x="101.636356" y="294.595" style="stroke: #000000; stroke-width: 0.8"/>
      </g>
     </g>
     <g id="text_1">
      <!-- -3 -->
      <g transform="translate(96.136356 309.1575) scale(0.11 -0.11)">
       <defs>
        <path id="SimHei-2d" d="M 2975 2125 
L 125 2125 
L 125 2525 
L 2975 2525 
L 2975 2125 
z
" transform="scale(0.015625)"/>
        <path id="SimHei-33" d="M 250 1225 
L 700 1300 
Q 800 975 1025 762 
Q 1250 550 1587 562 
Q 1925 575 2125 837 
Q 2325 1100 2300 1437 
Q 2275 1775 2037 1962 
Q 1800 2150 1275 2225 
L 1275 2550 
Q 1800 2600 2037 2825 
Q 2275 3050 2250 3412 
Q 2225 3775 1925 3937 
Q 1625 4100 1287 3975 
Q 950 3850 750 3275 
L 300 3350 
Q 450 3800 712 4100 
Q 975 4400 1425 4450 
Q 1875 4500 2212 4337 
Q 2550 4175 2687 3837 
Q 2825 3500 2725 3100 
Q 2625 2700 2150 2400 
Q 2500 2250 2687 1950 
Q 2875 1650 2812 1162 
Q 2750 675 2375 375 
Q 2000 75 1525 87 
Q 1050 100 700 387 
Q 350 675 250 1225 
z
" transform="scale(0.015625)"/>
       </defs>
       <use xlink:href="#SimHei-2d"/>
       <use xlink:href="#SimHei-33" transform="translate(50 0)"/>
      </g>
     </g>
    </g>
    <g id="xtick_2">
     <g id="line2d_3">
      <path d="M 168.454862 294.595 
L 168.454862 23.925 
" clip-path="url(#pbf0a5cd751)" style="fill: none; stroke: #b0b0b0; stroke-opacity: 0.25; stroke-width: 0.8; stroke-linecap: square"/>
     </g>
     <g id="line2d_4">
      <g>
       <use xlink:href="#mcf0aa99956" x="168.454862" y="294.595" style="stroke: #000000; stroke-width: 0.8"/>
      </g>
     </g>
     <g id="text_2">
      <!-- -2 -->
      <g transform="translate(162.954862 309.1575) scale(0.11 -0.11)">
       <defs>
        <path id="SimHei-32" d="M 300 250 
Q 325 625 650 925 
Q 975 1225 1475 1862 
Q 1975 2500 2125 2850 
Q 2275 3200 2237 3450 
Q 2200 3700 2000 3862 
Q 1800 4025 1537 4000 
Q 1275 3975 1037 3800 
Q 800 3625 675 3275 
L 200 3350 
Q 400 3925 712 4187 
Q 1025 4450 1450 4475 
Q 1700 4500 1900 4462 
Q 2100 4425 2312 4287 
Q 2525 4150 2662 3875 
Q 2800 3600 2762 3212 
Q 2725 2825 2375 2287 
Q 2025 1750 1025 600 
L 2825 600 
L 2825 150 
L 300 150 
L 300 250 
z
" transform="scale(0.015625)"/>
       </defs>
       <use xlink:href="#SimHei-2d"/>
       <use xlink:href="#SimHei-32" transform="translate(50 0)"/>
      </g>
     </g>
    </g>
    <g id="xtick_3">
     <g id="line2d_5">
      <path d="M 235.273369 294.595 
L 235.273369 23.925 
" clip-path="url(#pbf0a5cd751)" style="fill: none; stroke: #b0b0b0; stroke-opacity: 0.25; stroke-width: 0.8; stroke-linecap: square"/>
     </g>
     <g id="line2d_6">
      <g>
       <use xlink:href="#mcf0aa99956" x="235.273369" y="294.595" style="stroke: #000000; stroke-width: 0.8"/>
      </g>
     </g>
     <g id="text_3">
      <!-- -1 -->
      <g transform="translate(229.773369 309.1575) scale(0.11 -0.11)">
       <defs>
        <path id="SimHei-31" d="M 1400 3600 
Q 1075 3275 575 2975 
L 575 3450 
Q 1200 3875 1600 4450 
L 1900 4450 
L 1900 150 
L 1400 150 
L 1400 3600 
z
" transform="scale(0.015625)"/>
       </defs>
       <use xlink:href="#SimHei-2d"/>
       <use xlink:href="#SimHei-31" transform="translate(50 0)"/>
      </g>
     </g>
    </g>
    <g id="xtick_4">
     <g id="line2d_7">
      <path d="M 302.091875 294.595 
L 302.091875 23.925 
" clip-path="url(#pbf0a5cd751)" style="fill: none; stroke: #b0b0b0; stroke-opacity: 0.25; stroke-width: 0.8; stroke-linecap: square"/>
     </g>
     <g id="line2d_8">
      <g>
       <use xlink:href="#mcf0aa99956" x="302.091875" y="294.595" style="stroke: #000000; stroke-width: 0.8"/>
      </g>
     </g>
     <g id="text_4">
      <!-- 0 -->
      <g transform="translate(299.341875 309.1575) scale(0.11 -0.11)">
       <defs>
        <path id="SimHei-30" d="M 225 2537 
Q 250 3200 412 3587 
Q 575 3975 875 4225 
Q 1175 4475 1612 4475 
Q 2050 4475 2375 4112 
Q 2700 3750 2800 3200 
Q 2900 2650 2862 1937 
Q 2825 1225 2612 775 
Q 2400 325 1975 150 
Q 1550 -25 1125 187 
Q 700 400 525 750 
Q 350 1100 275 1487 
Q 200 1875 225 2537 
z
M 750 2687 
Q 675 2000 800 1462 
Q 925 925 1212 700 
Q 1500 475 1800 612 
Q 2100 750 2237 1162 
Q 2375 1575 2375 2062 
Q 2375 2550 2337 2950 
Q 2300 3350 2112 3675 
Q 1925 4000 1612 4012 
Q 1300 4025 1062 3700 
Q 825 3375 750 2687 
z
" transform="scale(0.015625)"/>
       </defs>
       <use xlink:href="#SimHei-30"/>
      </g>
     </g>
    </g>
    <g id="xtick_5">
     <g id="line2d_9">
      <path d="M 368.910381 294.595 
L 368.910381 23.925 
" clip-path="url(#pbf0a5cd751)" style="fill: none; stroke: #b0b0b0; stroke-opacity: 0.25; stroke-width: 0.8; stroke-linecap: square"/>
     </g>
     <g id="line2d_10">
      <g>
       <use xlink:href="#mcf0aa99956" x="368.910381" y="294.595" style="stroke: #000000; stroke-width: 0.8"/>
      </g>
     </g>
     <g id="text_5">
      <!-- 1 -->
      <g transform="translate(366.160381 309.1575) scale(0.11 -0.11)">
       <use xlink:href="#SimHei-31"/>
      </g>
     </g>
    </g>
    <g id="xtick_6">
     <g id="line2d_11">
      <path d="M 435.728888 294.595 
L 435.728888 23.925 
" clip-path="url(#pbf0a5cd751)" style="fill: none; stroke: #b0b0b0; stroke-opacity: 0.25; stroke-width: 0.8; stroke-linecap: square"/>
     </g>
     <g id="line2d_12">
      <g>
       <use xlink:href="#mcf0aa99956" x="435.728888" y="294.595" style="stroke: #000000; stroke-width: 0.8"/>
      </g>
     </g>
     <g id="text_6">
      <!-- 2 -->
      <g transform="translate(432.978888 309.1575) scale(0.11 -0.11)">
       <use xlink:href="#SimHei-32"/>
      </g>
     </g>
    </g>
    <g id="xtick_7">
     <g id="line2d_13">
      <path d="M 502.547394 294.595 
L 502.547394 23.925 
" clip-path="url(#pbf0a5cd751)" style="fill: none; stroke: #b0b0b0; stroke-opacity: 0.25; stroke-width: 0.8; stroke-linecap: square"/>
     </g>
     <g id="line2d_14">
      <g>
       <use xlink:href="#mcf0aa99956" x="502.547394" y="294.595" style="stroke: #000000; stroke-width: 0.8"/>
      </g>
     </g>
     <g id="text_7">
      <!-- 3 -->
      <g transform="translate(499.797394 309.1575) scale(0.11 -0.11)">
       <use xlink:href="#SimHei-33"/>
      </g>
     </g>
    </g>
    <g id="text_8">
     <!-- $a=x_i^\prime\beta/\sigma$ -->
     <g transform="translate(278.386875 323.1125) scale(0.11 -0.11)">
      <defs>
       <path id="DejaVuSans-Oblique-61" d="M 3438 1997 
L 3047 0 
L 2472 0 
L 2578 531 
Q 2325 219 2001 64 
Q 1678 -91 1281 -91 
Q 834 -91 548 182 
Q 263 456 263 884 
Q 263 1497 752 1853 
Q 1241 2209 2100 2209 
L 2900 2209 
L 2931 2363 
Q 2938 2388 2941 2417 
Q 2944 2447 2944 2509 
Q 2944 2788 2717 2942 
Q 2491 3097 2081 3097 
Q 1800 3097 1504 3025 
Q 1209 2953 897 2809 
L 997 3341 
Q 1322 3463 1633 3523 
Q 1944 3584 2234 3584 
Q 2853 3584 3176 3315 
Q 3500 3047 3500 2534 
Q 3500 2431 3484 2292 
Q 3469 2153 3438 1997 
z
M 2816 1759 
L 2241 1759 
Q 1534 1759 1195 1570 
Q 856 1381 856 984 
Q 856 709 1029 553 
Q 1203 397 1509 397 
Q 1978 397 2328 733 
Q 2678 1069 2791 1631 
L 2816 1759 
z
" transform="scale(0.015625)"/>
       <path id="DejaVuSans-3d" d="M 678 2906 
L 4684 2906 
L 4684 2381 
L 678 2381 
L 678 2906 
z
M 678 1631 
L 4684 1631 
L 4684 1100 
L 678 1100 
L 678 1631 
z
" transform="scale(0.015625)"/>
       <path id="DejaVuSans-Oblique-78" d="M 3841 3500 
L 2234 1784 
L 3219 0 
L 2559 0 
L 1819 1388 
L 531 0 
L -166 0 
L 1556 1844 
L 641 3500 
L 1300 3500 
L 1972 2234 
L 3144 3500 
L 3841 3500 
z
" transform="scale(0.015625)"/>
       <path id="Cmsy10-30" d="M 225 347 
Q 184 359 184 409 
L 966 3316 
Q 1003 3434 1093 3506 
Q 1184 3578 1300 3578 
Q 1450 3578 1564 3479 
Q 1678 3381 1678 3231 
Q 1678 3166 1644 3084 
L 488 319 
Q 466 275 428 275 
Q 394 275 320 306 
Q 247 338 225 347 
z
" transform="scale(0.015625)"/>
       <path id="DejaVuSans-Oblique-69" d="M 1172 4863 
L 1747 4863 
L 1606 4134 
L 1031 4134 
L 1172 4863 
z
M 909 3500 
L 1484 3500 
L 800 0 
L 225 0 
L 909 3500 
z
" transform="scale(0.015625)"/>
       <path id="DejaVuSans-Oblique-3b2" d="M 872 216 
L 572 -1331 
L -6 -1331 
L 928 3478 
Q 1206 4903 2538 4903 
Q 3888 4903 3659 3700 
Q 3503 2844 2894 2531 
Q 3713 2250 3553 1416 
Q 3272 -69 1759 -66 
Q 1097 -63 872 216 
z
M 1019 966 
Q 1259 422 1875 425 
Q 2775 425 2966 1406 
Q 3138 2288 1675 2219 
L 1778 2750 
Q 2909 2731 3106 3750 
Q 3241 4438 2509 4434 
Q 1691 4434 1503 3459 
L 1019 966 
z
" transform="scale(0.015625)"/>
       <path id="DejaVuSans-2f" d="M 1625 4666 
L 2156 4666 
L 531 -594 
L 0 -594 
L 1625 4666 
z
" transform="scale(0.015625)"/>
       <path id="DejaVuSans-Oblique-3c3" d="M 2219 3044 
Q 1744 3044 1422 2700 
Q 1081 2341 969 1747 
Q 844 1119 1044 756 
Q 1241 397 1706 397 
Q 2166 397 2503 759 
Q 2844 1122 2966 1747 
Q 3075 2319 2881 2700 
Q 2700 3044 2219 3044 
z
M 2309 3503 
L 4219 3500 
L 4106 2925 
L 3463 2925 
Q 3706 2438 3575 1747 
Q 3406 888 2884 400 
Q 2359 -91 1609 -91 
Q 856 -91 525 400 
Q 194 888 363 1747 
Q 528 2609 1050 3097 
Q 1484 3503 2309 3503 
z
" transform="scale(0.015625)"/>
      </defs>
      <use xlink:href="#DejaVuSans-Oblique-61" transform="translate(0 0.520313)"/>
      <use xlink:href="#DejaVuSans-3d" transform="translate(80.761719 0.520313)"/>
      <use xlink:href="#DejaVuSans-Oblique-78" transform="translate(184.033203 0.520313)"/>
      <use xlink:href="#Cmsy10-30" transform="translate(247.679036 38.865625) scale(0.7)"/>
      <use xlink:href="#DejaVuSans-Oblique-69" transform="translate(243.212891 -26.823437) scale(0.7)"/>
      <use xlink:href="#DejaVuSans-Oblique-3b2" transform="translate(269.656576 0.520313)"/>
      <use xlink:href="#DejaVuSans-2f" transform="translate(333.474935 0.520313)"/>
      <use xlink:href="#DejaVuSans-Oblique-3c3" transform="translate(367.166341 0.520313)"/>
     </g>
    </g>
   </g>
   <g id="matplotlib.axis_2">
    <g id="ytick_1">
     <g id="line2d_15">
      <path d="M 44.840625 282.349086 
L 559.343125 282.349086 
" clip-path="url(#pbf0a5cd751)" style="fill: none; stroke: #b0b0b0; stroke-opacity: 0.25; stroke-width: 0.8; stroke-linecap: square"/>
     </g>
     <g id="line2d_16">
      <defs>
       <path id="m3b7cf69339" d="M 0 0 
L -3.5 0 
" style="stroke: #000000; stroke-width: 0.8"/>
      </defs>
      <g>
       <use xlink:href="#m3b7cf69339" x="44.840625" y="282.349086" style="stroke: #000000; stroke-width: 0.8"/>
      </g>
     </g>
     <g id="text_9">
      <!-- 0.0 -->
      <g transform="translate(21.340625 286.130336) scale(0.11 -0.11)">
       <defs>
        <path id="SimHei-2e" d="M 1075 125 
L 500 125 
L 500 675 
L 1075 675 
L 1075 125 
z
" transform="scale(0.015625)"/>
       </defs>
       <use xlink:href="#SimHei-30"/>
       <use xlink:href="#SimHei-2e" transform="translate(50 0)"/>
       <use xlink:href="#SimHei-30" transform="translate(100 0)"/>
      </g>
     </g>
    </g>
    <g id="ytick_2">
     <g id="line2d_17">
      <path d="M 44.840625 249.545136 
L 559.343125 249.545136 
" clip-path="url(#pbf0a5cd751)" style="fill: none; stroke: #b0b0b0; stroke-opacity: 0.25; stroke-width: 0.8; stroke-linecap: square"/>
     </g>
     <g id="line2d_18">
      <g>
       <use xlink:href="#m3b7cf69339" x="44.840625" y="249.545136" style="stroke: #000000; stroke-width: 0.8"/>
      </g>
     </g>
     <g id="text_10">
      <!-- 0.5 -->
      <g transform="translate(21.340625 253.326386) scale(0.11 -0.11)">
       <defs>
        <path id="SimHei-35" d="M 550 1325 
Q 725 650 1150 575 
Q 1575 500 1837 662 
Q 2100 825 2212 1087 
Q 2325 1350 2312 1675 
Q 2300 2000 2137 2225 
Q 1975 2450 1725 2525 
Q 1475 2600 1162 2525 
Q 850 2450 650 2175 
L 225 2225 
Q 275 2375 700 4375 
L 2675 4375 
L 2675 3925 
L 1075 3925 
Q 950 3250 825 2850 
Q 1200 3025 1525 3012 
Q 1850 3000 2150 2862 
Q 2450 2725 2587 2487 
Q 2725 2250 2787 2012 
Q 2850 1775 2837 1500 
Q 2825 1225 2725 937 
Q 2625 650 2425 462 
Q 2225 275 1937 162 
Q 1650 50 1275 75 
Q 900 100 562 350 
Q 225 600 100 1200 
L 550 1325 
z
" transform="scale(0.015625)"/>
       </defs>
       <use xlink:href="#SimHei-30"/>
       <use xlink:href="#SimHei-2e" transform="translate(50 0)"/>
       <use xlink:href="#SimHei-35" transform="translate(100 0)"/>
      </g>
     </g>
    </g>
    <g id="ytick_3">
     <g id="line2d_19">
      <path d="M 44.840625 216.741186 
L 559.343125 216.741186 
" clip-path="url(#pbf0a5cd751)" style="fill: none; stroke: #b0b0b0; stroke-opacity: 0.25; stroke-width: 0.8; stroke-linecap: square"/>
     </g>
     <g id="line2d_20">
      <g>
       <use xlink:href="#m3b7cf69339" x="44.840625" y="216.741186" style="stroke: #000000; stroke-width: 0.8"/>
      </g>
     </g>
     <g id="text_11">
      <!-- 1.0 -->
      <g transform="translate(21.340625 220.522436) scale(0.11 -0.11)">
       <use xlink:href="#SimHei-31"/>
       <use xlink:href="#SimHei-2e" transform="translate(50 0)"/>
       <use xlink:href="#SimHei-30" transform="translate(100 0)"/>
      </g>
     </g>
    </g>
    <g id="ytick_4">
     <g id="line2d_21">
      <path d="M 44.840625 183.937236 
L 559.343125 183.937236 
" clip-path="url(#pbf0a5cd751)" style="fill: none; stroke: #b0b0b0; stroke-opacity: 0.25; stroke-width: 0.8; stroke-linecap: square"/>
     </g>
     <g id="line2d_22">
      <g>
       <use xlink:href="#m3b7cf69339" x="44.840625" y="183.937236" style="stroke: #000000; stroke-width: 0.8"/>
      </g>
     </g>
     <g id="text_12">
      <!-- 1.5 -->
      <g transform="translate(21.340625 187.718486) scale(0.11 -0.11)">
       <use xlink:href="#SimHei-31"/>
       <use xlink:href="#SimHei-2e" transform="translate(50 0)"/>
       <use xlink:href="#SimHei-35" transform="translate(100 0)"/>
      </g>
     </g>
    </g>
    <g id="ytick_5">
     <g id="line2d_23">
      <path d="M 44.840625 151.133286 
L 559.343125 151.133286 
" clip-path="url(#pbf0a5cd751)" style="fill: none; stroke: #b0b0b0; stroke-opacity: 0.25; stroke-width: 0.8; stroke-linecap: square"/>
     </g>
     <g id="line2d_24">
      <g>
       <use xlink:href="#m3b7cf69339" x="44.840625" y="151.133286" style="stroke: #000000; stroke-width: 0.8"/>
      </g>
     </g>
     <g id="text_13">
      <!-- 2.0 -->
      <g transform="translate(21.340625 154.914536) scale(0.11 -0.11)">
       <use xlink:href="#SimHei-32"/>
       <use xlink:href="#SimHei-2e" transform="translate(50 0)"/>
       <use xlink:href="#SimHei-30" transform="translate(100 0)"/>
      </g>
     </g>
    </g>
    <g id="ytick_6">
     <g id="line2d_25">
      <path d="M 44.840625 118.329335 
L 559.343125 118.329335 
" clip-path="url(#pbf0a5cd751)" style="fill: none; stroke: #b0b0b0; stroke-opacity: 0.25; stroke-width: 0.8; stroke-linecap: square"/>
     </g>
     <g id="line2d_26">
      <g>
       <use xlink:href="#m3b7cf69339" x="44.840625" y="118.329335" style="stroke: #000000; stroke-width: 0.8"/>
      </g>
     </g>
     <g id="text_14">
      <!-- 2.5 -->
      <g transform="translate(21.340625 122.110585) scale(0.11 -0.11)">
       <use xlink:href="#SimHei-32"/>
       <use xlink:href="#SimHei-2e" transform="translate(50 0)"/>
       <use xlink:href="#SimHei-35" transform="translate(100 0)"/>
      </g>
     </g>
    </g>
    <g id="ytick_7">
     <g id="line2d_27">
      <path d="M 44.840625 85.525385 
L 559.343125 85.525385 
" clip-path="url(#pbf0a5cd751)" style="fill: none; stroke: #b0b0b0; stroke-opacity: 0.25; stroke-width: 0.8; stroke-linecap: square"/>
     </g>
     <g id="line2d_28">
      <g>
       <use xlink:href="#m3b7cf69339" x="44.840625" y="85.525385" style="stroke: #000000; stroke-width: 0.8"/>
      </g>
     </g>
     <g id="text_15">
      <!-- 3.0 -->
      <g transform="translate(21.340625 89.306635) scale(0.11 -0.11)">
       <use xlink:href="#SimHei-33"/>
       <use xlink:href="#SimHei-2e" transform="translate(50 0)"/>
       <use xlink:href="#SimHei-30" transform="translate(100 0)"/>
      </g>
     </g>
    </g>
    <g id="ytick_8">
     <g id="line2d_29">
      <path d="M 44.840625 52.721435 
L 559.343125 52.721435 
" clip-path="url(#pbf0a5cd751)" style="fill: none; stroke: #b0b0b0; stroke-opacity: 0.25; stroke-width: 0.8; stroke-linecap: square"/>
     </g>
     <g id="line2d_30">
      <g>
       <use xlink:href="#m3b7cf69339" x="44.840625" y="52.721435" style="stroke: #000000; stroke-width: 0.8"/>
      </g>
     </g>
     <g id="text_16">
      <!-- 3.5 -->
      <g transform="translate(21.340625 56.502685) scale(0.11 -0.11)">
       <use xlink:href="#SimHei-33"/>
       <use xlink:href="#SimHei-2e" transform="translate(50 0)"/>
       <use xlink:href="#SimHei-35" transform="translate(100 0)"/>
      </g>
     </g>
    </g>
    <g id="text_17">
     <!-- 逆米尔斯比率 -->
     <g transform="translate(15.965625 192.26) rotate(-90) scale(0.11 -0.11)">
      <defs>
       <path id="SimHei-9006" d="M 6000 -525 
Q 4950 -550 4237 -525 
Q 3525 -500 3050 -450 
Q 2575 -400 2287 -300 
Q 2000 -200 1687 -25 
Q 1375 150 1162 -50 
Q 950 -250 725 -525 
Q 550 -325 275 -150 
Q 850 225 1150 450 
L 1150 2575 
Q 825 2575 425 2550 
L 425 3000 
Q 825 2975 1125 2975 
L 1625 2975 
Q 1600 2475 1600 1875 
L 1600 525 
Q 1975 150 2725 25 
Q 2600 300 2375 500 
Q 2950 650 3262 925 
Q 3575 1200 3650 1525 
L 2350 1525 
Q 2375 1850 2375 2275 
Q 2375 2725 2350 3025 
L 2850 3025 
Q 2825 2650 2825 1925 
L 3700 1925 
Q 3725 2250 3775 3600 
L 3050 3600 
Q 2475 3600 2100 3575 
L 2100 4025 
Q 2325 4000 3050 3975 
L 4275 3975 
Q 4625 4850 4725 5250 
Q 4975 5125 5300 5000 
Q 5150 4900 4725 3975 
L 5300 3975 
Q 5825 4000 6025 4000 
L 6025 3600 
L 4225 3600 
Q 4200 2400 4175 1925 
L 5175 1925 
Q 5175 2650 5150 3000 
L 5625 3000 
Q 5600 2675 5600 2100 
Q 5600 1525 5625 1175 
L 5175 1175 
L 5175 1525 
L 4125 1525 
Q 4000 1025 3687 687 
Q 3375 350 2875 25 
Q 3175 -50 3700 -50 
Q 5225 -100 6200 50 
Q 6025 -225 6000 -525 
z
M 1200 4975 
Q 1550 4125 1675 3850 
Q 1400 3775 1175 3675 
Q 1100 3900 775 4775 
Q 950 4875 1200 4975 
z
M 3075 5200 
Q 3475 4525 3550 4375 
Q 3325 4275 3150 4125 
Q 3000 4400 2675 4925 
Q 2850 5075 3075 5200 
z
" transform="scale(0.015625)"/>
       <path id="SimHei-7c73" d="M 2975 2850 
L 2975 4450 
Q 2975 4900 2900 5250 
L 3500 5250 
Q 3475 4775 3475 4450 
L 3475 2850 
L 5075 2850 
Q 5550 2850 6075 2875 
L 6075 2375 
Q 5550 2425 5075 2425 
L 3900 2425 
Q 4300 1750 4812 1337 
Q 5325 925 6150 675 
Q 5825 250 5850 50 
Q 5000 450 4487 925 
Q 3975 1400 3475 2325 
L 3475 150 
Q 3475 -125 3500 -650 
L 2950 -650 
Q 2975 -125 2975 150 
L 2975 2350 
L 2900 2350 
Q 2625 1525 2162 950 
Q 1700 375 725 -125 
Q 650 75 350 425 
Q 1050 625 1575 1125 
Q 2100 1625 2425 2425 
L 1200 2425 
Q 850 2425 300 2375 
L 300 2875 
Q 850 2850 1200 2850 
L 2975 2850 
z
M 4100 3600 
Q 4575 4200 4900 4950 
Q 5200 4775 5500 4625 
Q 5325 4475 5087 4112 
Q 4850 3750 4575 3325 
Q 4350 3475 4100 3600 
z
M 1775 3325 
Q 1475 3975 1025 4575 
Q 1275 4725 1500 4875 
Q 1950 4275 2300 3625 
Q 2000 3500 1775 3325 
z
" transform="scale(0.015625)"/>
       <path id="SimHei-5c14" d="M 4825 2900 
Q 5025 3250 5175 3650 
L 1875 3650 
Q 1375 3025 925 2600 
Q 800 2800 525 2950 
Q 1150 3425 1600 4162 
Q 2050 4900 2200 5250 
Q 2575 5050 2700 5025 
Q 2450 4625 2125 4100 
L 5925 4100 
Q 5550 3225 5325 2725 
Q 5050 2850 4825 2900 
z
M 3550 3225 
Q 3525 2850 3525 2500 
L 3525 375 
Q 3525 -225 3225 -387 
Q 2925 -550 2350 -625 
Q 2300 -350 2125 -25 
Q 2725 -50 2862 25 
Q 3000 100 3000 375 
L 3000 2450 
Q 3000 2825 2975 3225 
L 3550 3225 
z
M 4575 2300 
Q 5550 1125 6100 475 
Q 5875 350 5625 100 
Q 4625 1475 4175 1950 
Q 4400 2125 4575 2300 
z
M 2325 2025 
Q 2125 1800 1737 1300 
Q 1350 800 725 125 
Q 625 325 325 525 
Q 675 800 1100 1312 
Q 1525 1825 1850 2400 
Q 2125 2125 2325 2025 
z
" transform="scale(0.015625)"/>
       <path id="SimHei-65af" d="M 950 4350 
Q 950 4825 925 5100 
L 1450 5100 
Q 1400 4925 1400 4350 
L 2525 4350 
Q 2525 4850 2500 5125 
L 3025 5125 
Q 3000 4900 3000 4350 
Q 3050 4350 3375 4375 
L 3375 3925 
Q 3050 3950 3000 3950 
L 3000 1625 
Q 3025 1625 3450 1650 
L 3450 1200 
Q 2950 1225 2650 1225 
L 1050 1225 
Q 700 1225 275 1200 
L 275 1650 
Q 650 1625 950 1625 
L 950 3950 
Q 675 3950 325 3925 
L 325 4375 
Q 700 4350 950 4350 
z
M 6075 4550 
Q 5750 4500 5237 4450 
Q 4725 4400 4200 4375 
L 4200 3000 
L 5425 3000 
Q 5775 3000 6125 3025 
L 6125 2575 
Q 5750 2600 5425 2600 
L 5425 575 
Q 5425 100 5450 -525 
L 4950 -525 
Q 4975 -50 4975 550 
L 4975 2600 
L 4200 2600 
Q 4175 1450 4000 912 
Q 3825 375 3700 125 
Q 3575 -125 3125 -650 
Q 2900 -475 2650 -350 
Q 3125 75 3350 512 
Q 3575 950 3650 1600 
Q 3725 2250 3725 3175 
Q 3725 4125 3700 4775 
Q 4250 4775 4862 4837 
Q 5475 4900 5800 5025 
Q 5875 4800 6075 4550 
z
M 1625 700 
Q 1425 575 1125 250 
Q 825 -75 600 -325 
Q 425 -150 225 0 
Q 350 100 625 387 
Q 900 675 1125 1075 
Q 1350 900 1625 700 
z
M 2525 2525 
L 2525 3050 
L 1400 3050 
L 1400 2525 
L 2525 2525 
z
M 2525 1625 
L 2525 2125 
L 1400 2125 
L 1400 1625 
L 2525 1625 
z
M 2525 3450 
L 2525 3950 
L 1400 3950 
L 1400 3450 
L 2525 3450 
z
M 2475 1050 
Q 2700 850 3150 350 
Q 2900 175 2725 25 
Q 2500 375 2125 750 
Q 2325 900 2475 1050 
z
" transform="scale(0.015625)"/>
       <path id="SimHei-6bd4" d="M 3775 5100 
Q 3750 4575 3750 4100 
L 3750 3050 
Q 4925 3600 5475 4175 
Q 5675 3900 5900 3675 
Q 5600 3500 5037 3187 
Q 4475 2875 3750 2550 
L 3750 450 
Q 3750 100 4050 100 
L 5000 100 
Q 5175 100 5262 250 
Q 5350 400 5450 900 
Q 5650 775 6025 675 
Q 5850 0 5650 -175 
Q 5450 -350 5225 -350 
L 3900 -350 
Q 3250 -350 3250 275 
L 3250 4000 
Q 3250 4550 3225 5100 
L 3775 5100 
z
M 1275 4975 
Q 1250 4575 1250 4000 
L 1250 3150 
L 1850 3150 
Q 2325 3150 2875 3175 
L 2875 2650 
Q 2325 2675 1850 2675 
L 1250 2675 
L 1250 475 
Q 1650 650 1962 812 
Q 2275 975 2850 1275 
Q 2900 950 2950 750 
Q 2375 475 1762 175 
Q 1150 -125 925 -325 
Q 750 -100 575 200 
Q 700 300 750 600 
L 750 3950 
Q 750 4550 725 4975 
L 1275 4975 
z
" transform="scale(0.015625)"/>
       <path id="SimHei-7387" d="M 3325 5150 
Q 3425 4900 3550 4525 
L 4800 4525 
Q 5250 4525 5800 4550 
L 5800 4125 
Q 5250 4175 4775 4175 
L 2800 4175 
Q 2975 4050 3300 3900 
Q 3075 3750 2875 3537 
Q 2675 3325 2475 3125 
L 3275 3125 
Q 3575 3425 3775 3775 
Q 4000 3600 4275 3425 
Q 3950 3250 3600 2875 
Q 3250 2500 2625 2000 
L 3850 2100 
Q 3725 2250 3600 2425 
Q 3750 2475 4000 2650 
Q 4250 2350 4700 1700 
Q 4475 1625 4225 1450 
Q 4175 1600 4025 1775 
Q 3700 1750 3425 1750 
L 3425 1050 
L 5150 1050 
Q 5675 1050 6100 1075 
L 6100 650 
Q 5700 675 5125 675 
L 3425 675 
L 3425 175 
Q 3425 -300 3450 -625 
L 2900 -625 
Q 2925 -300 2925 175 
L 2925 675 
L 1325 675 
Q 825 675 325 650 
L 325 1075 
Q 825 1050 1350 1050 
L 2925 1050 
L 2925 1700 
Q 2700 1675 2475 1637 
Q 2250 1600 2025 1525 
Q 1950 1775 1850 2000 
Q 2075 2025 2325 2200 
Q 2575 2375 2975 2800 
Q 2300 2725 2025 2625 
Q 1975 2875 1850 3175 
Q 2075 3175 2325 3487 
Q 2575 3800 2750 4175 
L 1700 4175 
Q 1150 4175 650 4125 
L 650 4550 
Q 1150 4525 1550 4525 
L 2975 4525 
Q 2900 4825 2800 5025 
Q 3025 5075 3325 5150 
z
M 1625 2575 
Q 1725 2400 1825 2200 
Q 1575 2050 1325 1862 
Q 1075 1675 800 1425 
Q 625 1675 475 1875 
Q 800 2025 1100 2212 
Q 1400 2400 1625 2575 
z
M 4850 2650 
Q 5125 2475 5337 2337 
Q 5550 2200 5875 1950 
Q 5675 1800 5500 1600 
Q 5300 1775 5062 1975 
Q 4825 2175 4575 2325 
Q 4725 2475 4850 2650 
z
M 5725 3525 
Q 5550 3450 5300 3262 
Q 5050 3075 4800 2825 
Q 4625 3050 4475 3175 
Q 4700 3325 4875 3487 
Q 5050 3650 5300 3925 
Q 5525 3700 5725 3525 
z
M 1050 3850 
Q 1425 3600 1775 3275 
Q 1575 3100 1425 2925 
Q 1075 3300 675 3525 
Q 875 3700 1050 3850 
z
" transform="scale(0.015625)"/>
      </defs>
      <use xlink:href="#SimHei-9006"/>
      <use xlink:href="#SimHei-7c73" transform="translate(100 0)"/>
      <use xlink:href="#SimHei-5c14" transform="translate(200 0)"/>
      <use xlink:href="#SimHei-65af" transform="translate(300 0)"/>
      <use xlink:href="#SimHei-6bd4" transform="translate(400 0)"/>
      <use xlink:href="#SimHei-7387" transform="translate(500 0)"/>
     </g>
    </g>
   </g>
   <g id="line2d_31">
    <path d="M 68.227102 36.228182 
L 96.347115 62.118541 
L 121.655127 85.12249 
L 144.151137 105.272913 
L 163.835146 122.620586 
L 181.644487 138.038758 
L 198.516495 152.354365 
L 213.513835 164.798285 
L 227.573841 176.183688 
L 240.696514 186.527143 
L 252.881853 195.852455 
L 264.129858 204.190864 
L 274.440529 211.580743 
L 284.7512 218.70238 
L 294.124538 224.921734 
L 303.497876 230.877248 
L 311.933879 235.994491 
L 320.369883 240.866245 
L 328.805887 245.478036 
L 337.241891 249.81633 
L 344.740561 253.433171 
L 352.239231 256.817128 
L 359.737901 259.962533 
L 367.236571 262.865564 
L 374.735241 265.524515 
L 382.233911 267.940026 
L 389.732581 270.115253 
L 397.231251 272.05594 
L 404.729922 273.770392 
L 412.228592 275.269345 
L 420.664595 276.714229 
L 429.100599 277.923879 
L 437.536603 278.921547 
L 446.909941 279.811261 
L 457.220612 280.563188 
L 468.468617 281.162399 
L 481.59129 281.637262 
L 497.525964 281.985192 
L 519.08464 282.214799 
L 535.956648 282.291818 
L 535.956648 282.291818 
" clip-path="url(#pbf0a5cd751)" style="fill: none; stroke: #1f77b4; stroke-width: 2; stroke-linecap: square"/>
   </g>
   <g id="line2d_32">
    <path d="M 302.091875 294.595 
L 302.091875 23.925 
" clip-path="url(#pbf0a5cd751)" style="fill: none; stroke-dasharray: 3.7,1.6; stroke-dashoffset: 0; stroke: #000000"/>
   </g>
   <g id="patch_3">
    <path d="M 44.840625 294.595 
L 44.840625 23.925 
" style="fill: none; stroke: #000000; stroke-width: 0.8; stroke-linejoin: miter; stroke-linecap: square"/>
   </g>
   <g id="patch_4">
    <path d="M 44.840625 294.595 
L 559.343125 294.595 
" style="fill: none; stroke: #000000; stroke-width: 0.8; stroke-linejoin: miter; stroke-linecap: square"/>
   </g>
   <g id="text_18">
    <g id="patch_5">
     <path d="M 155.091161 104.971965 
L 265.091161 104.971965 
Q 270.041161 104.971965 270.041161 100.021965 
L 270.041161 40.570403 
Q 270.041161 35.620403 265.091161 35.620403 
L 155.091161 35.620403 
Q 150.141161 35.620403 150.141161 40.570403 
L 150.141161 100.021965 
Q 150.141161 104.971965 155.091161 104.971965 
z
" style="fill: #fff7e6; opacity: 0.9; stroke: #d08c00; stroke-linejoin: miter"/>
    </g>
    <!-- 当线性预测值较低 -->
    <g transform="translate(155.091161 49.59384) scale(0.11 -0.11)">
     <defs>
      <path id="SimHei-5f53" d="M 3550 5125 
Q 3525 4825 3525 4275 
L 3525 2925 
L 5625 2925 
Q 5600 2425 5600 2100 
L 5600 175 
Q 5600 -150 5625 -650 
L 5075 -650 
L 5075 -125 
L 1675 -125 
Q 1150 -125 675 -150 
L 675 325 
Q 1150 300 1675 300 
L 5075 300 
L 5075 1200 
L 2000 1200 
Q 1425 1200 900 1175 
L 900 1675 
Q 1425 1650 2000 1650 
L 5075 1650 
L 5075 2500 
L 1700 2500 
Q 1250 2500 750 2475 
L 750 2950 
Q 1250 2925 1700 2925 
L 3000 2925 
L 3000 4275 
Q 3000 4725 2975 5125 
L 3550 5125 
z
M 5700 4500 
Q 5525 4300 5287 4000 
Q 5050 3700 4650 3225 
Q 4450 3400 4225 3575 
Q 4725 4050 5175 4850 
Q 5425 4650 5700 4500 
z
M 1325 4800 
Q 1875 4175 2275 3600 
Q 2025 3450 1775 3250 
Q 1375 3925 875 4450 
Q 1150 4625 1325 4800 
z
" transform="scale(0.015625)"/>
      <path id="SimHei-7ebf" d="M 3450 4300 
Q 3450 4675 3375 5125 
Q 3700 5100 4050 5050 
Q 3975 4900 3950 4562 
Q 3925 4225 3950 3600 
L 4800 3750 
Q 5225 3850 5650 3975 
L 5750 3500 
Q 5325 3450 4875 3375 
L 3975 3200 
Q 3975 2800 4025 2500 
L 5000 2675 
Q 5500 2775 5950 2925 
L 6025 2450 
Q 5575 2375 5075 2275 
L 4100 2100 
Q 4150 1600 4350 1175 
Q 4575 1350 4787 1575 
Q 5000 1800 5175 2075 
Q 5550 1775 5750 1675 
Q 5425 1525 5237 1337 
Q 5050 1150 4625 750 
Q 4925 250 5162 112 
Q 5400 -25 5500 100 
Q 5600 225 5675 625 
Q 5900 450 6200 350 
Q 5775 -750 5275 -537 
Q 4775 -325 4225 450 
Q 3875 175 3537 -62 
Q 3200 -300 2700 -550 
Q 2575 -300 2325 -100 
Q 2825 75 3175 275 
Q 3525 475 3975 850 
Q 3750 1350 3650 2025 
Q 2900 1900 2600 1800 
L 2525 2275 
Q 2825 2275 3550 2425 
Q 3500 2825 3500 3100 
Q 2825 2950 2575 2875 
L 2475 3350 
Q 2725 3350 3450 3500 
L 3450 4300 
z
M 1950 4875 
Q 1700 4650 1462 4237 
Q 1225 3825 825 3225 
Q 1425 3250 1650 3250 
Q 1875 3625 2050 4075 
Q 2300 3900 2600 3800 
Q 2350 3550 2087 3125 
Q 1825 2700 1175 1675 
Q 1850 1725 2375 1775 
Q 2300 1525 2300 1350 
Q 2125 1350 1525 1287 
Q 925 1225 550 1125 
Q 525 1375 400 1650 
Q 700 1725 950 2050 
Q 1200 2375 1475 2875 
Q 650 2825 425 2675 
Q 350 2950 200 3225 
Q 525 3450 825 3962 
Q 1125 4475 1375 5150 
Q 1625 4975 1950 4875 
z
M 2575 875 
Q 2550 600 2575 450 
Q 1950 325 1450 200 
Q 950 75 525 -75 
Q 450 200 250 475 
Q 950 550 1325 612 
Q 1700 675 2575 875 
z
M 4850 4025 
Q 4675 4300 4375 4675 
L 4775 4875 
Q 4875 4750 5275 4275 
Q 5025 4175 4850 4025 
z
" transform="scale(0.015625)"/>
      <path id="SimHei-6027" d="M 3450 4525 
Q 3325 4075 3275 3750 
L 4050 3750 
L 4050 4275 
Q 4050 4700 4025 5100 
L 4550 5100 
Q 4525 4700 4525 4275 
L 4525 3750 
L 5025 3750 
Q 5350 3750 5800 3775 
L 5800 3300 
Q 5350 3325 5025 3325 
L 4525 3325 
L 4525 2000 
L 4975 2000 
Q 5350 2000 5725 2025 
L 5725 1550 
Q 5350 1575 4975 1575 
L 4525 1575 
L 4525 25 
L 5200 25 
Q 5625 25 6025 50 
L 6025 -400 
Q 5625 -375 5200 -375 
L 3275 -375 
Q 2825 -375 2400 -400 
L 2400 50 
Q 2825 25 3250 25 
L 4050 25 
L 4050 1575 
L 3625 1575 
Q 3300 1575 2875 1550 
L 2875 2025 
Q 3200 2000 3625 2000 
L 4050 2000 
L 4050 3325 
L 3175 3325 
Q 3100 2950 2775 2225 
Q 2500 2375 2325 2400 
Q 2675 3125 2775 3650 
Q 2875 4175 2950 4650 
Q 3200 4575 3450 4525 
z
M 1700 5150 
Q 1675 4650 1675 4175 
L 1675 425 
Q 1675 -100 1700 -625 
L 1175 -625 
Q 1200 -100 1200 425 
L 1200 4175 
Q 1200 4700 1175 5150 
L 1700 5150 
z
M 975 3725 
Q 825 2675 700 2150 
Q 450 2200 250 2250 
Q 425 2900 525 3800 
Q 725 3775 975 3725 
z
M 2125 4025 
Q 2325 3625 2525 3000 
Q 2300 2925 2125 2825 
Q 1950 3375 1750 3850 
Q 1950 3950 2125 4025 
z
" transform="scale(0.015625)"/>
      <path id="SimHei-9884" d="M 5200 4800 
Q 5575 4800 5950 4825 
L 5950 4400 
Q 5575 4425 5200 4425 
L 4500 4425 
Q 4425 4050 4350 3600 
L 5725 3600 
Q 5700 3225 5700 2800 
L 5700 1725 
Q 5700 1300 5725 850 
L 5250 850 
L 5250 3225 
L 3550 3225 
L 3550 800 
L 3075 800 
Q 3100 1375 3100 1725 
L 3100 2775 
Q 3100 3175 3075 3600 
L 3900 3600 
Q 4000 4150 4000 4425 
L 3725 4425 
Q 3300 4425 2850 4400 
L 2850 4825 
Q 3325 4800 3725 4800 
L 5200 4800 
z
M 2600 1775 
Q 2350 1825 2150 1825 
Q 2250 2250 2300 2450 
L 1750 2450 
L 1750 125 
Q 1725 -300 1425 -400 
Q 1125 -500 750 -500 
Q 700 -225 575 25 
Q 1125 -25 1212 37 
Q 1300 100 1300 350 
L 1300 2450 
L 1025 2450 
Q 700 2450 350 2425 
L 350 2850 
Q 700 2825 1000 2825 
L 2850 2825 
Q 2725 2325 2600 1775 
z
M 4725 2875 
Q 4625 2575 4600 2100 
Q 4575 1625 4462 1037 
Q 4350 450 3962 62 
Q 3575 -325 2925 -675 
Q 2700 -500 2475 -350 
Q 3075 -125 3437 200 
Q 3800 525 3950 937 
Q 4100 1350 4137 1850 
Q 4175 2350 4175 2925 
L 4725 2875 
z
M 1625 2900 
Q 1275 3275 800 3650 
Q 925 3775 1075 3950 
Q 1250 3825 1425 3675 
Q 1750 4150 1950 4375 
L 1400 4375 
Q 900 4375 450 4350 
L 450 4775 
Q 900 4750 1375 4750 
L 2575 4750 
L 2575 4375 
Q 2200 4100 1725 3400 
L 1950 3200 
Q 1750 3025 1625 2900 
z
M 4775 725 
Q 5725 0 6075 -325 
Q 5850 -500 5725 -650 
Q 5400 -325 5137 -87 
Q 4875 150 4525 350 
Q 4650 525 4775 725 
z
" transform="scale(0.015625)"/>
      <path id="SimHei-6d4b" d="M 4025 4725 
Q 4000 4475 4000 4000 
L 4000 2225 
Q 4000 1775 4025 1350 
L 3550 1350 
L 3550 4325 
L 2350 4325 
L 2350 1325 
L 1900 1325 
Q 1925 1775 1925 2225 
L 1925 4000 
Q 1925 4200 1900 4725 
L 4025 4725 
z
M 5900 5075 
Q 5875 4800 5875 4375 
L 5875 0 
Q 5875 -325 5650 -425 
Q 5425 -525 4975 -600 
Q 4925 -325 4775 -50 
Q 5125 -50 5262 -25 
Q 5400 0 5400 250 
L 5400 4375 
Q 5400 4775 5375 5075 
L 5900 5075 
z
M 3275 3725 
Q 3225 3400 3200 2325 
Q 3175 1250 2837 550 
Q 2500 -150 2075 -600 
Q 1850 -400 1600 -325 
Q 2200 250 2475 962 
Q 2750 1675 2762 2475 
Q 2775 3275 2725 3800 
Q 3000 3750 3275 3725 
z
M 4950 4275 
Q 4925 4000 4925 3575 
L 4925 1825 
Q 4925 1300 4950 850 
L 4450 850 
Q 4475 1150 4475 1825 
L 4475 3575 
Q 4475 4000 4450 4275 
L 4950 4275 
z
M 1700 1675 
Q 1375 1075 1112 487 
Q 850 -100 725 -400 
Q 500 -200 200 -25 
Q 475 300 762 850 
Q 1050 1400 1250 2000 
Q 1475 1825 1700 1675 
z
M 3400 1050 
Q 3800 650 4300 -125 
Q 4100 -225 3875 -450 
Q 3475 275 3025 750 
Q 3225 875 3400 1050 
z
M 600 3525 
Q 1125 3125 1500 2775 
Q 1300 2575 1150 2375 
Q 825 2775 300 3150 
Q 450 3300 600 3525 
z
M 1350 4000 
Q 950 4375 475 4675 
Q 625 4850 775 5050 
Q 1300 4700 1675 4375 
Q 1500 4250 1350 4000 
z
" transform="scale(0.015625)"/>
      <path id="SimHei-503c" d="M 3675 4450 
L 3675 5100 
Q 3975 5075 4350 5050 
Q 4225 4875 4200 4450 
L 5125 4450 
Q 5550 4450 5875 4475 
L 5875 4025 
Q 5525 4050 5125 4050 
L 4175 4050 
L 4125 3500 
L 5400 3500 
Q 5375 3200 5375 2700 
L 5375 150 
Q 5875 150 6100 175 
L 6100 -275 
Q 5775 -250 5200 -250 
L 2850 -250 
Q 2275 -250 1900 -275 
L 1900 175 
Q 2125 150 2600 150 
L 2600 2700 
Q 2600 3175 2575 3500 
L 3600 3500 
L 3650 4050 
L 3200 4050 
Q 2575 4050 2225 4025 
L 2225 4475 
Q 2550 4450 3200 4450 
L 3675 4450 
z
M 2225 4900 
Q 2025 4675 1650 3750 
L 1650 450 
Q 1650 -75 1675 -550 
L 1150 -550 
Q 1175 -125 1175 375 
L 1175 2950 
Q 875 2450 625 2150 
Q 425 2425 250 2575 
Q 500 2825 937 3537 
Q 1375 4250 1625 5150 
Q 1975 4975 2225 4900 
z
M 4925 2650 
L 4925 3150 
L 3075 3150 
L 3075 2650 
L 4925 2650 
z
M 4925 150 
L 4925 625 
L 3075 625 
L 3075 150 
L 4925 150 
z
M 4925 1000 
L 4925 1450 
L 3075 1450 
L 3075 1000 
L 4925 1000 
z
M 4925 1825 
L 4925 2275 
L 3075 2275 
L 3075 1825 
L 4925 1825 
z
" transform="scale(0.015625)"/>
      <path id="SimHei-8f83" d="M 2950 1425 
Q 2925 1225 2925 1000 
Q 2725 975 2025 850 
Q 2025 225 2050 -625 
L 1525 -625 
Q 1550 225 1550 750 
Q 875 600 425 450 
Q 350 750 200 1000 
Q 625 1050 1550 1175 
L 1550 2100 
Q 1250 2100 937 2087 
Q 625 2075 425 2000 
L 275 2450 
Q 500 2675 662 3075 
Q 825 3475 950 3950 
Q 775 3950 350 3925 
L 350 4400 
Q 725 4350 1050 4350 
Q 1225 4800 1275 5250 
Q 1550 5150 1850 5075 
Q 1725 4775 1575 4350 
Q 2200 4350 2650 4375 
L 2650 3925 
Q 2200 3950 1450 3950 
Q 1300 3475 900 2500 
L 1550 2500 
Q 1550 3100 1525 3400 
L 2050 3400 
Q 2025 3050 2025 2500 
L 2675 2500 
L 2675 2100 
L 2025 2100 
L 2025 1250 
Q 2700 1375 2950 1425 
z
M 5450 2325 
Q 5300 1925 5100 1437 
Q 4900 950 4675 575 
Q 4900 375 5300 225 
Q 5700 75 6200 -25 
Q 6000 -275 5950 -575 
Q 5300 -375 4925 -162 
Q 4550 50 4325 250 
Q 4025 -25 3687 -212 
Q 3350 -400 2825 -625 
Q 2725 -375 2450 -125 
Q 3025 0 3425 212 
Q 3825 425 4025 625 
Q 3800 1000 3650 1425 
L 3350 2275 
Q 3550 2375 3850 2475 
Q 4000 1875 4100 1600 
Q 4200 1325 4350 1025 
Q 4525 1275 4650 1662 
Q 4775 2050 4850 2525 
Q 5125 2425 5450 2325 
z
M 5175 4400 
Q 5725 4425 6025 4425 
L 6025 3975 
Q 5725 4000 5200 4000 
L 3800 4000 
Q 3250 4000 2925 3975 
L 2925 4425 
Q 3350 4400 3800 4400 
L 5175 4400 
z
M 4150 3425 
Q 3875 3100 3175 2275 
Q 3025 2475 2775 2625 
Q 3425 3300 3675 3750 
Q 3875 3600 4150 3425 
z
M 5200 3750 
Q 5450 3500 6125 2750 
Q 5825 2550 5650 2400 
Q 5425 2775 4775 3425 
Q 4975 3600 5200 3750 
z
M 4275 5300 
Q 4625 4925 4775 4675 
Q 4525 4550 4300 4425 
Q 4225 4625 3850 5050 
Q 4075 5175 4275 5300 
z
" transform="scale(0.015625)"/>
      <path id="SimHei-4f4e" d="M 2300 4550 
Q 2750 4525 3750 4637 
Q 4750 4750 5275 5000 
Q 5425 4725 5600 4475 
Q 5125 4400 4350 4300 
Q 4350 3825 4400 2850 
L 5000 2850 
Q 5425 2850 5850 2875 
L 5850 2425 
Q 5425 2450 5025 2450 
L 4450 2450 
Q 4575 1325 4862 762 
Q 5150 200 5325 75 
Q 5500 -50 5562 125 
Q 5625 300 5675 775 
Q 5925 575 6150 525 
Q 6000 -100 5850 -337 
Q 5700 -575 5350 -500 
Q 5000 -425 4587 262 
Q 4175 950 4000 2450 
L 2775 2450 
L 2775 500 
Q 3275 950 3575 1275 
Q 3675 975 3775 800 
Q 2775 -50 2500 -350 
Q 2325 -175 2175 25 
Q 2300 150 2325 500 
L 2325 3725 
Q 2325 4075 2300 4550 
z
M 2050 5075 
Q 1900 4900 1600 3950 
L 1600 425 
Q 1600 -75 1625 -625 
L 1100 -625 
Q 1125 -75 1125 450 
L 1125 3025 
Q 875 2500 625 2125 
Q 400 2350 225 2425 
Q 600 2900 962 3687 
Q 1325 4475 1500 5275 
Q 1575 5200 2050 5075 
z
M 3950 2850 
Q 3900 3775 3900 4225 
Q 3125 4175 2775 4150 
L 2775 2850 
L 3950 2850 
z
M 3850 -625 
Q 3450 -75 3250 100 
Q 3450 275 3575 425 
Q 3925 50 4225 -300 
Q 4025 -450 3850 -625 
z
" transform="scale(0.015625)"/>
     </defs>
     <use xlink:href="#SimHei-5f53"/>
     <use xlink:href="#SimHei-7ebf" transform="translate(100 0)"/>
     <use xlink:href="#SimHei-6027" transform="translate(200 0)"/>
     <use xlink:href="#SimHei-9884" transform="translate(300 0)"/>
     <use xlink:href="#SimHei-6d4b" transform="translate(400 0)"/>
     <use xlink:href="#SimHei-503c" transform="translate(500 0)"/>
     <use xlink:href="#SimHei-8f83" transform="translate(600 0)"/>
     <use xlink:href="#SimHei-4f4e" transform="translate(700 0)"/>
    </g>
    <!-- 但样本仍跨过边界时， -->
    <g transform="translate(155.091161 61.90009) scale(0.11 -0.11)">
     <defs>
      <path id="SimHei-4f46" d="M 2575 3675 
Q 2575 4050 2550 4650 
L 5625 4650 
Q 5600 4250 5600 3725 
L 5600 1825 
Q 5600 1425 5625 1050 
L 2550 1050 
Q 2575 1400 2575 1725 
L 2575 3675 
z
M 575 2225 
Q 350 2525 200 2675 
Q 725 3350 1037 4075 
Q 1350 4800 1425 5275 
Q 1800 5125 2075 5050 
Q 1875 4850 1600 3925 
L 1600 600 
Q 1600 -175 1625 -600 
L 1075 -600 
Q 1100 -200 1100 575 
L 1100 3125 
Q 700 2425 575 2225 
z
M 5075 1450 
L 5075 2675 
L 3075 2675 
L 3075 1450 
L 5075 1450 
z
M 5075 3075 
L 5075 4250 
L 3075 4250 
L 3075 3075 
L 5075 3075 
z
M 5200 175 
Q 5425 175 6125 200 
L 6125 -300 
Q 5375 -275 5150 -275 
L 2900 -275 
Q 2600 -275 1950 -300 
L 1950 200 
Q 2675 175 2875 175 
L 5200 175 
z
" transform="scale(0.015625)"/>
      <path id="SimHei-6837" d="M 4350 4025 
Q 4600 4575 4850 5225 
Q 5250 5075 5375 5000 
Q 5150 4725 4850 4025 
L 4950 4025 
Q 5650 4050 5950 4050 
L 5950 3600 
Q 5675 3625 5175 3625 
L 4550 3625 
L 4550 2650 
L 4950 2650 
Q 5525 2675 5800 2675 
L 5800 2225 
Q 5475 2250 5025 2250 
L 4550 2250 
L 4550 1225 
L 5325 1225 
Q 5800 1250 6100 1250 
L 6100 800 
Q 5825 825 5325 825 
L 4550 825 
L 4550 275 
Q 4550 -250 4575 -600 
L 4075 -600 
L 4075 825 
L 3475 825 
Q 3000 825 2550 800 
L 2550 1275 
Q 3000 1250 3500 1225 
L 4075 1225 
L 4075 2250 
L 3650 2250 
Q 3225 2250 2900 2225 
L 2900 2700 
Q 3200 2675 3675 2650 
L 4075 2650 
L 4075 3625 
L 3475 3625 
Q 3050 3625 2750 3600 
L 2750 4075 
Q 3050 4050 3475 4025 
L 4350 4025 
z
M 1325 4350 
Q 1325 4775 1300 5125 
L 1825 5125 
Q 1800 4725 1800 4350 
L 1800 3750 
Q 2125 3750 2475 3775 
L 2475 3325 
Q 2125 3350 1800 3350 
L 1800 2425 
Q 2000 2600 2100 2675 
Q 2375 2325 2725 1775 
Q 2575 1700 2300 1475 
Q 2025 1975 1800 2350 
L 1800 475 
Q 1800 -50 1825 -575 
L 1300 -575 
Q 1325 -25 1325 475 
L 1325 2250 
Q 925 1300 525 725 
Q 425 950 225 1175 
Q 950 2150 1225 3350 
Q 825 3350 350 3325 
L 350 3775 
Q 825 3750 1325 3750 
L 1325 4350 
z
M 3575 5200 
Q 3800 4775 3950 4350 
Q 3650 4250 3525 4175 
Q 3350 4600 3150 5000 
Q 3425 5125 3575 5200 
z
" transform="scale(0.015625)"/>
      <path id="SimHei-672c" d="M 2950 3925 
L 2950 4425 
Q 2950 4825 2925 5175 
L 3475 5175 
Q 3450 4900 3450 4450 
L 3450 3925 
L 4850 3925 
Q 5275 3925 5850 3950 
L 5850 3475 
Q 5300 3500 4875 3500 
L 3850 3500 
Q 4200 2350 4862 1687 
Q 5525 1025 6075 800 
Q 5850 625 5650 325 
Q 4800 900 4262 1637 
Q 3725 2375 3450 3350 
L 3450 1000 
L 3775 1000 
Q 4175 1000 4600 1025 
L 4600 550 
Q 4175 575 3750 575 
L 3450 575 
Q 3450 0 3475 -600 
L 2925 -600 
Q 2950 0 2950 575 
L 2625 575 
Q 2225 575 1825 550 
L 1825 1025 
Q 2225 1000 2625 1000 
L 2950 1000 
L 2950 3300 
Q 2550 2275 2062 1575 
Q 1575 875 750 175 
Q 550 450 275 575 
Q 1100 1075 1650 1825 
Q 2200 2575 2525 3500 
L 1425 3500 
Q 1025 3500 575 3475 
L 575 3950 
Q 1025 3925 1400 3925 
L 2950 3925 
z
" transform="scale(0.015625)"/>
      <path id="SimHei-4ecd" d="M 3700 4350 
Q 3700 2200 3325 1175 
Q 2950 150 2350 -550 
Q 2200 -375 1875 -225 
Q 2500 375 2875 1425 
Q 3250 2475 3200 4350 
Q 2700 4350 2475 4325 
L 2475 4800 
Q 2950 4775 3300 4775 
L 5525 4775 
Q 5450 4425 5175 2900 
L 6075 2900 
L 5950 1900 
L 5725 75 
Q 5675 -200 5437 -337 
Q 5200 -475 4550 -550 
Q 4550 -325 4350 25 
Q 4925 0 5087 100 
Q 5250 200 5275 450 
L 5525 2450 
L 4550 2450 
Q 4750 3325 4900 4350 
L 3700 4350 
z
M 275 2300 
Q 650 2675 1175 3675 
Q 1700 4675 1825 5175 
Q 2075 5025 2350 4900 
Q 2225 4775 1725 3725 
L 1725 500 
Q 1725 -200 1750 -675 
L 1225 -675 
Q 1250 -225 1250 425 
L 1250 2900 
Q 1075 2575 650 1975 
Q 450 2200 275 2300 
z
" transform="scale(0.015625)"/>
      <path id="SimHei-8de8" d="M 2625 425 
Q 1325 50 1037 -62 
Q 750 -175 425 -325 
Q 350 -100 225 175 
Q 425 200 650 250 
Q 650 2050 625 2375 
L 1100 2375 
Q 1075 1900 1075 375 
Q 1300 425 1475 475 
L 1475 3050 
L 600 3050 
Q 625 3325 625 3925 
Q 625 4525 600 4775 
L 2500 4775 
Q 2475 4525 2475 3925 
Q 2475 3325 2500 3050 
L 1925 3050 
L 1925 2150 
Q 2225 2150 2525 2175 
L 2525 1725 
Q 2150 1775 1925 1775 
L 1925 600 
Q 2125 700 2600 850 
Q 2575 625 2625 425 
z
M 3400 2950 
Q 3200 2675 2775 2400 
Q 2700 2575 2425 2800 
Q 2825 3025 3150 3325 
Q 3475 3625 3750 4150 
Q 2950 4150 2675 4125 
L 2675 4550 
Q 2975 4525 3850 4525 
Q 3975 4925 4000 5300 
Q 4350 5175 4625 5100 
Q 4500 4950 4450 4812 
Q 4400 4675 4325 4525 
Q 5775 4525 6075 4550 
L 6075 4125 
Q 5750 4150 4825 4150 
Q 5050 3550 5412 3312 
Q 5775 3075 6200 3000 
Q 5975 2725 5950 2475 
Q 5500 2625 5150 2925 
L 5150 2650 
Q 4900 2675 4225 2675 
Q 3575 2675 3400 2650 
L 3400 2950 
z
M 5650 1125 
Q 5550 175 5475 -112 
Q 5400 -400 5137 -525 
Q 4875 -650 4400 -675 
Q 4375 -375 4225 -100 
Q 4775 -125 4912 -37 
Q 5050 50 5100 725 
L 3275 725 
Q 3425 1375 3500 1675 
Q 3025 1675 2775 1650 
L 2775 2100 
Q 3075 2075 3525 2075 
L 5300 2075 
Q 5750 2075 6050 2100 
L 6050 1650 
Q 5775 1675 5300 1675 
L 3975 1675 
Q 3900 1275 3850 1125 
L 5650 1125 
z
M 2050 3425 
L 2050 4400 
L 1075 4400 
L 1075 3425 
L 2050 3425 
z
M 5000 3125 
Q 4625 3450 4425 4150 
L 4225 4150 
Q 3950 3550 3550 3125 
Q 3700 3100 4250 3100 
Q 4825 3100 5000 3125 
z
" transform="scale(0.015625)"/>
      <path id="SimHei-8fc7" d="M 250 -200 
Q 1025 475 1275 650 
L 1275 2475 
Q 675 2475 400 2450 
L 400 2950 
Q 625 2900 1325 2900 
L 1800 2900 
Q 1775 2525 1775 2150 
L 1775 600 
Q 2500 -25 3912 -37 
Q 5325 -50 6150 75 
Q 6000 -175 5925 -550 
L 4425 -550 
Q 3800 -550 3275 -512 
Q 2750 -475 2387 -300 
Q 2025 -125 1750 75 
Q 1475 275 1237 37 
Q 1000 -200 700 -625 
Q 550 -375 250 -200 
z
M 3625 850 
Q 4200 825 4350 875 
Q 4500 925 4500 1300 
L 4500 3575 
L 2875 3575 
Q 2600 3575 2275 3550 
L 2275 4025 
Q 2600 4000 3075 4000 
L 4500 4000 
Q 4500 4650 4450 5125 
L 5025 5125 
Q 5000 4800 5000 4000 
Q 5525 4000 5950 4025 
L 5950 3550 
Q 5550 3575 5000 3575 
L 5000 1100 
Q 5000 525 4662 412 
Q 4325 300 3825 275 
Q 3775 550 3625 850 
z
M 3125 1600 
Q 2900 2275 2575 2850 
Q 2800 2950 3050 3125 
Q 3500 2225 3625 1875 
Q 3450 1775 3125 1600 
z
M 1150 4975 
Q 1400 4675 1925 3875 
Q 1675 3725 1450 3550 
Q 950 4400 700 4625 
Q 925 4750 1150 4975 
z
" transform="scale(0.015625)"/>
      <path id="SimHei-8fb9" d="M 3450 3950 
Q 3450 4750 3425 5250 
Q 3800 5175 4050 5175 
Q 3975 4825 3950 3950 
L 5725 3950 
Q 5650 3525 5625 3100 
L 5500 1150 
Q 5475 725 5062 612 
Q 4650 500 4300 400 
Q 4275 725 4050 1050 
Q 4650 1075 4837 1137 
Q 5025 1200 5050 1450 
L 5175 3500 
L 3925 3500 
Q 3825 2500 3525 1837 
Q 3225 1175 2625 500 
Q 2400 725 2075 900 
Q 2625 1275 2987 1937 
Q 3350 2600 3425 3500 
Q 2825 3500 2275 3450 
L 2275 3975 
Q 2725 3950 3450 3950 
z
M 1625 2900 
Q 1600 2475 1600 2125 
L 1600 675 
Q 2225 50 3775 0 
Q 5325 -50 6200 50 
Q 5950 -150 5925 -550 
Q 5125 -550 4350 -525 
Q 3575 -500 2925 -387 
Q 2275 -275 1850 75 
Q 1425 425 1187 175 
Q 950 -75 725 -550 
Q 500 -325 225 -150 
Q 875 350 1100 625 
L 1100 2450 
Q 650 2450 225 2425 
L 225 2925 
Q 725 2900 1150 2900 
L 1625 2900 
z
M 1150 5075 
Q 1600 4200 1700 3900 
Q 1450 3825 1175 3675 
Q 1150 3925 650 4875 
Q 925 4975 1150 5075 
z
" transform="scale(0.015625)"/>
      <path id="SimHei-754c" d="M 5400 5075 
Q 5375 4800 5375 4225 
L 5375 3675 
Q 5375 3350 5400 2875 
L 975 2875 
Q 1000 3350 1000 3700 
L 1000 4225 
Q 1000 4700 975 5075 
L 5400 5075 
z
M 3400 2450 
Q 3875 2100 4700 1787 
Q 5525 1475 6150 1425 
Q 5925 1200 5800 925 
Q 5175 1075 4575 1325 
Q 4550 1175 4550 925 
L 4550 150 
Q 4550 -225 4575 -600 
L 4025 -600 
Q 4050 -250 4050 150 
L 4050 825 
Q 4050 1150 4025 1450 
L 4325 1450 
Q 3775 1650 3100 2200 
Q 2700 1900 2075 1587 
Q 1450 1275 625 1000 
Q 525 1225 300 1425 
Q 675 1500 1300 1725 
Q 1925 1950 2387 2262 
Q 2850 2575 3000 2800 
Q 3250 2675 3525 2550 
L 3400 2450 
z
M 2400 1375 
Q 2350 1200 2337 1000 
Q 2325 800 2262 525 
Q 2200 250 2000 -37 
Q 1800 -325 1325 -700 
Q 1150 -475 950 -350 
Q 1350 -100 1562 137 
Q 1775 375 1825 600 
Q 1875 825 1887 987 
Q 1900 1150 1900 1450 
Q 2225 1400 2400 1375 
z
M 4875 3225 
L 4875 3800 
L 3400 3800 
L 3400 3225 
L 4875 3225 
z
M 4875 4150 
L 4875 4725 
L 3400 4725 
L 3400 4150 
L 4875 4150 
z
M 2925 4150 
L 2925 4725 
L 1500 4725 
L 1500 4150 
L 2925 4150 
z
M 2925 3225 
L 2925 3800 
L 1500 3800 
L 1500 3225 
L 2925 3225 
z
" transform="scale(0.015625)"/>
      <path id="SimHei-65f6" d="M 2525 4575 
Q 2500 3675 2500 2400 
Q 2500 1125 2525 400 
L 2000 400 
L 2000 875 
L 1000 875 
L 1000 50 
L 475 50 
Q 500 1200 500 2350 
Q 500 3525 475 4575 
L 2525 4575 
z
M 4875 3825 
Q 4875 4575 4850 5225 
L 5400 5225 
Q 5375 4575 5375 3825 
Q 5750 3825 6175 3850 
L 6175 3375 
Q 5750 3400 5375 3400 
L 5375 50 
Q 5375 -325 5075 -425 
Q 4775 -525 4300 -575 
Q 4300 -275 4025 0 
Q 4500 -50 4687 -25 
Q 4875 0 4875 300 
L 4875 3400 
Q 3625 3400 2775 3375 
L 2775 3850 
Q 3575 3825 4875 3825 
z
M 2000 1300 
L 2000 2550 
L 1000 2550 
L 1000 1300 
L 2000 1300 
z
M 2000 2975 
L 2000 4150 
L 1000 4150 
L 1000 2975 
L 2000 2975 
z
M 3550 2725 
Q 3875 2200 4175 1600 
Q 3925 1525 3650 1375 
Q 3450 1975 3075 2500 
Q 3300 2600 3550 2725 
z
" transform="scale(0.015625)"/>
      <path id="SimHei-ff0c" d="M 875 950 
L 1775 950 
L 1775 -50 
Q 1700 -675 1150 -975 
L 900 -750 
Q 1350 -500 1350 0 
L 875 0 
L 875 950 
z
" transform="scale(0.015625)"/>
     </defs>
     <use xlink:href="#SimHei-4f46"/>
     <use xlink:href="#SimHei-6837" transform="translate(100 0)"/>
     <use xlink:href="#SimHei-672c" transform="translate(200 0)"/>
     <use xlink:href="#SimHei-4ecd" transform="translate(300 0)"/>
     <use xlink:href="#SimHei-8de8" transform="translate(400 0)"/>
     <use xlink:href="#SimHei-8fc7" transform="translate(500 0)"/>
     <use xlink:href="#SimHei-8fb9" transform="translate(600 0)"/>
     <use xlink:href="#SimHei-754c" transform="translate(700 0)"/>
     <use xlink:href="#SimHei-65f6" transform="translate(800 0)"/>
     <use xlink:href="#SimHei-ff0c" transform="translate(900 0)"/>
    </g>
    <!-- 正值样本更依赖 -->
    <g transform="translate(155.091161 74.094621) scale(0.11 -0.11)">
     <defs>
      <path id="SimHei-6b63" d="M 4825 4625 
Q 5300 4625 5675 4650 
L 5675 4150 
Q 5300 4175 4775 4175 
L 3575 4175 
L 3575 2600 
L 4850 2600 
Q 5250 2600 5550 2625 
L 5550 2150 
Q 5250 2175 4850 2175 
L 3575 2175 
L 3575 150 
L 4850 150 
Q 5375 150 5900 175 
L 5900 -325 
Q 5375 -300 4975 -300 
L 1175 -300 
Q 700 -300 375 -325 
L 375 175 
Q 700 150 1175 150 
L 1325 150 
L 1325 2350 
Q 1325 2800 1300 3125 
L 1875 3125 
Q 1850 2825 1850 2350 
L 1850 150 
L 3075 150 
L 3075 4175 
L 1625 4175 
Q 1150 4175 800 4150 
L 800 4650 
Q 1150 4625 1625 4625 
L 4825 4625 
z
" transform="scale(0.015625)"/>
      <path id="SimHei-66f4" d="M 5175 4750 
Q 5400 4750 5800 4775 
L 5800 4325 
Q 5475 4350 5175 4350 
L 3475 4350 
L 3475 3825 
L 5300 3825 
Q 5275 3400 5275 2675 
Q 5275 1975 5300 1550 
L 3400 1550 
Q 3325 1025 3050 575 
Q 3425 350 4137 175 
Q 4850 0 5237 -25 
Q 5625 -50 6000 -50 
Q 5850 -175 5750 -575 
Q 5075 -525 4250 -337 
Q 3425 -150 2775 200 
Q 2525 -25 2037 -262 
Q 1550 -500 600 -650 
Q 500 -375 350 -175 
Q 1075 -150 1612 37 
Q 2150 225 2400 450 
Q 1925 775 1400 1275 
Q 1550 1375 1700 1550 
L 1100 1550 
Q 1125 2025 1125 2725 
Q 1125 3450 1100 3825 
L 3000 3825 
L 3000 4350 
L 1450 4350 
Q 1050 4350 600 4325 
L 600 4775 
Q 1050 4750 1425 4750 
L 5175 4750 
z
M 2975 1975 
Q 3000 2250 3000 2525 
L 1625 2525 
L 1625 1975 
L 2975 1975 
z
M 3000 2925 
L 3000 3450 
L 1625 3450 
L 1625 2925 
L 3000 2925 
z
M 4775 1975 
L 4775 2525 
L 3475 2525 
Q 3475 2350 3450 1975 
L 4775 1975 
z
M 4775 2925 
L 4775 3450 
L 3475 3450 
L 3475 2925 
L 4775 2925 
z
M 1775 1550 
Q 2225 1075 2675 800 
Q 2875 1175 2925 1550 
L 1775 1550 
z
" transform="scale(0.015625)"/>
      <path id="SimHei-4f9d" d="M 4025 5200 
Q 4100 5025 4175 4750 
Q 4250 4475 4325 4225 
L 5300 4225 
Q 5575 4225 5975 4250 
L 5975 3775 
Q 5600 3800 5325 3800 
L 4050 3800 
Q 3875 3125 3550 2525 
L 3550 175 
Q 3975 525 4200 775 
Q 4275 525 4400 250 
Q 3600 -350 3250 -675 
Q 3125 -475 2875 -225 
Q 3050 -100 3075 250 
L 3075 1775 
Q 2600 1175 2200 775 
Q 2025 975 1775 1150 
Q 3150 2250 3525 3800 
L 2800 3800 
Q 2450 3800 2075 3775 
L 2075 4250 
Q 2450 4225 2775 4225 
L 3775 4225 
Q 3750 4400 3525 5025 
Q 3675 5100 4025 5200 
z
M 2175 4975 
Q 1975 4800 1675 3925 
L 1675 625 
Q 1675 -175 1700 -575 
L 1175 -575 
Q 1200 -200 1200 600 
L 1200 3000 
Q 950 2525 575 2000 
Q 425 2225 225 2375 
Q 550 2775 937 3512 
Q 1325 4250 1650 5225 
Q 1800 5125 2175 4975 
z
M 5925 2675 
Q 5825 2550 5487 2287 
Q 5150 2025 4775 1675 
Q 5250 475 6075 25 
Q 5800 -250 5650 -425 
Q 4825 250 4400 1350 
Q 3975 2450 3875 3025 
Q 4100 3075 4325 3175 
Q 4450 2475 4600 2125 
Q 5125 2525 5475 3125 
L 5925 2675 
z
" transform="scale(0.015625)"/>
      <path id="SimHei-8d56" d="M 1550 3325 
L 1550 3950 
Q 650 3950 375 3925 
L 375 4350 
Q 650 4325 1550 4325 
Q 1550 4775 1525 5150 
L 2025 5150 
Q 2000 4875 2000 4325 
Q 2725 4325 3075 4350 
L 3075 3925 
Q 2725 3950 2000 3950 
L 2000 3325 
L 3000 3325 
Q 2975 3050 2975 2550 
Q 2975 2075 3000 1800 
L 2000 1800 
L 2000 1225 
Q 2150 1325 2300 1450 
Q 2875 925 3100 700 
Q 2925 575 2750 400 
Q 2200 1000 2000 1150 
Q 2000 -175 2025 -550 
L 1525 -550 
Q 1550 -175 1550 1175 
Q 1325 900 1150 650 
Q 975 400 675 25 
Q 425 225 225 375 
Q 625 675 862 962 
Q 1100 1250 1425 1800 
L 525 1800 
Q 550 2050 550 2575 
Q 550 3100 525 3325 
L 1550 3325 
z
M 4625 5000 
Q 4450 4875 4200 4475 
L 5650 4475 
Q 5425 4175 5237 3912 
Q 5050 3650 4850 3325 
L 5875 3325 
Q 5850 3025 5850 2075 
Q 5850 1125 5875 750 
L 5400 750 
L 5400 2950 
L 3800 2950 
L 3800 875 
L 3325 875 
Q 3350 1300 3350 2150 
Q 3350 3025 3325 3325 
Q 3100 3475 2925 3550 
Q 3350 3925 3600 4350 
Q 3850 4775 4025 5225 
Q 4325 5075 4625 5000 
z
M 4850 2425 
Q 4750 2125 4725 1650 
Q 4700 1175 4587 750 
Q 4475 325 4075 -25 
Q 3675 -375 3100 -675 
Q 2950 -475 2700 -300 
Q 3325 -50 3662 225 
Q 4000 500 4137 837 
Q 4275 1175 4287 1600 
Q 4300 2025 4300 2550 
Q 4725 2425 4850 2425 
z
M 5000 750 
Q 5600 275 6200 -250 
Q 5950 -400 5750 -575 
Q 5175 50 4600 425 
Q 4875 575 5000 750 
z
M 4350 3325 
L 4825 4100 
L 4000 4100 
Q 3825 3850 3400 3325 
L 4350 3325 
z
M 1550 2175 
L 1550 2950 
L 975 2950 
L 975 2175 
L 1550 2175 
z
M 2550 2175 
L 2550 2950 
L 2000 2950 
L 2000 2175 
L 2550 2175 
z
" transform="scale(0.015625)"/>
     </defs>
     <use xlink:href="#SimHei-6b63"/>
     <use xlink:href="#SimHei-503c" transform="translate(100 0)"/>
     <use xlink:href="#SimHei-6837" transform="translate(200 0)"/>
     <use xlink:href="#SimHei-672c" transform="translate(300 0)"/>
     <use xlink:href="#SimHei-66f4" transform="translate(400 0)"/>
     <use xlink:href="#SimHei-4f9d" transform="translate(500 0)"/>
     <use xlink:href="#SimHei-8d56" transform="translate(600 0)"/>
    </g>
    <!-- 较大的未观测冲击， -->
    <g transform="translate(155.091161 86.400871) scale(0.11 -0.11)">
     <defs>
      <path id="SimHei-5927" d="M 2900 3400 
Q 2925 4275 2912 4575 
Q 2900 4875 2875 5150 
Q 3175 5100 3550 5075 
Q 3475 4825 3437 4350 
Q 3400 3875 3400 3400 
L 4675 3400 
Q 5350 3400 5925 3450 
L 5925 2900 
Q 5425 2925 4900 2925 
L 3425 2925 
Q 3525 2500 3775 2062 
Q 4025 1625 4287 1287 
Q 4550 950 5012 575 
Q 5475 200 6025 -50 
Q 5825 -200 5625 -550 
Q 5175 -300 4737 75 
Q 4300 450 3862 1062 
Q 3425 1675 3200 2200 
Q 3000 1650 2775 1287 
Q 2550 925 2287 625 
Q 2025 325 1612 25 
Q 1200 -275 675 -575 
Q 475 -275 225 -50 
Q 750 125 1262 450 
Q 1775 775 2100 1187 
Q 2425 1600 2625 2050 
Q 2825 2500 2875 2925 
L 1500 2925 
Q 900 2925 550 2900 
L 550 3450 
Q 900 3425 1500 3400 
L 2900 3400 
z
" transform="scale(0.015625)"/>
      <path id="SimHei-7684" d="M 2100 4975 
Q 1975 4750 1750 3950 
L 2875 3950 
Q 2850 3525 2850 2875 
L 2850 675 
Q 2850 300 2875 -400 
L 2375 -400 
L 2375 100 
L 1100 100 
L 1100 -450 
L 600 -450 
Q 625 350 625 550 
L 625 2850 
Q 625 3525 600 3950 
L 1325 3950 
Q 1450 4525 1525 5150 
Q 1875 5025 2100 4975 
z
M 5825 3075 
Q 5800 1550 5700 175 
Q 5650 -275 5225 -425 
Q 4800 -575 4275 -625 
Q 4250 -350 4050 -50 
Q 4550 -75 4837 -25 
Q 5125 25 5200 200 
Q 5275 375 5312 1225 
Q 5350 2075 5375 3600 
L 3925 3600 
Q 3725 3125 3350 2475 
Q 3175 2650 2925 2750 
Q 3150 3050 3350 3475 
Q 3550 3900 3700 4400 
Q 3850 4900 3875 5175 
Q 4225 5025 4475 4950 
Q 4350 4750 4262 4512 
Q 4175 4275 4075 4050 
L 5850 4050 
Q 5825 3525 5825 3075 
z
M 2375 525 
L 2375 1850 
L 1100 1850 
L 1100 525 
L 2375 525 
z
M 2375 2275 
L 2375 3525 
L 1100 3525 
L 1100 2275 
L 2375 2275 
z
M 4350 2050 
Q 4500 1750 4700 1275 
Q 4525 1200 4225 1025 
Q 4050 1500 3900 1837 
Q 3750 2175 3600 2400 
Q 3775 2500 4050 2650 
L 4350 2050 
z
" transform="scale(0.015625)"/>
      <path id="SimHei-672a" d="M 2875 4150 
Q 2875 4900 2850 5225 
L 3400 5225 
Q 3375 4925 3375 4150 
L 4475 4150 
Q 4950 4150 5375 4175 
L 5375 3725 
Q 4950 3750 4475 3750 
L 3375 3750 
L 3375 2750 
L 4850 2750 
Q 5400 2750 5875 2775 
L 5875 2325 
Q 5400 2350 4875 2350 
L 3675 2350 
Q 4125 1675 4662 1187 
Q 5200 700 6175 425 
Q 5850 275 5725 -100 
Q 5050 150 4462 650 
Q 3875 1150 3375 2050 
L 3375 300 
Q 3375 -175 3400 -575 
L 2825 -575 
Q 2875 -175 2875 300 
L 2875 2125 
Q 2275 1150 1700 650 
Q 1125 150 675 -150 
Q 575 75 225 300 
Q 650 450 1312 1000 
Q 1975 1550 2475 2350 
L 1225 2350 
Q 675 2350 375 2325 
L 375 2775 
Q 750 2750 1275 2750 
L 2875 2750 
L 2875 3750 
L 1825 3750 
Q 1225 3750 850 3725 
L 850 4175 
Q 1225 4150 1775 4150 
L 2875 4150 
z
" transform="scale(0.015625)"/>
      <path id="SimHei-89c2" d="M 2600 4750 
Q 2500 3900 2387 3325 
Q 2275 2750 2075 2150 
Q 2425 1625 2800 1000 
Q 2575 825 2350 625 
Q 2100 1200 1800 1675 
Q 1600 1275 1300 912 
Q 1000 550 650 175 
Q 500 375 200 625 
Q 675 950 975 1300 
Q 1275 1650 1500 2100 
Q 1075 2725 625 3200 
Q 850 3375 1025 3525 
Q 1375 3150 1725 2600 
Q 1975 3400 2075 4350 
L 1300 4350 
Q 850 4350 475 4325 
L 475 4775 
Q 825 4750 1275 4750 
L 2600 4750 
z
M 4775 225 
Q 4775 0 4887 -25 
Q 5000 -50 5225 -50 
Q 5475 -50 5537 37 
Q 5600 125 5650 675 
Q 5875 525 6175 450 
Q 6025 -300 5850 -400 
Q 5675 -500 5400 -500 
L 4825 -500 
Q 4525 -500 4425 -325 
Q 4325 -150 4325 50 
L 4325 1600 
Q 4200 1125 3900 687 
Q 3600 250 3187 -87 
Q 2775 -425 2325 -650 
Q 2225 -400 1925 -150 
Q 2625 25 3087 475 
Q 3550 925 3737 1425 
Q 3925 1925 3962 2562 
Q 4000 3200 3975 3875 
Q 4325 3825 4550 3800 
Q 4450 3400 4425 2750 
Q 4400 2100 4325 1700 
L 4825 1700 
Q 4800 1550 4775 1025 
L 4775 225 
z
M 5700 5050 
Q 5675 4650 5675 3350 
Q 5675 2050 5700 1575 
L 5200 1575 
L 5200 4650 
L 3450 4650 
L 3450 1550 
L 2950 1550 
Q 2975 2150 2975 3300 
Q 2975 4475 2950 5050 
L 5700 5050 
z
" transform="scale(0.015625)"/>
      <path id="SimHei-51b2" d="M 3800 4000 
Q 3800 4750 3775 5175 
L 4325 5175 
Q 4300 4775 4300 4000 
L 5850 4000 
Q 5825 3700 5825 3250 
L 5825 1600 
Q 5825 1300 5850 1050 
L 5325 1050 
L 5325 1525 
L 4300 1525 
Q 4300 -250 4325 -550 
L 3775 -550 
Q 3800 -125 3800 1525 
L 2725 1525 
L 2725 1000 
L 2200 1000 
Q 2225 1200 2225 1550 
L 2225 3200 
Q 2225 3700 2200 4000 
L 3800 4000 
z
M 3800 1950 
L 3800 3575 
L 2725 3575 
L 2725 1950 
L 3800 1950 
z
M 5325 1950 
L 5325 3575 
L 4300 3575 
L 4300 1950 
L 5325 1950 
z
M 1975 2075 
Q 1700 1550 1325 837 
Q 950 125 775 -200 
Q 550 25 225 225 
Q 575 600 925 1200 
Q 1275 1800 1500 2400 
Q 1650 2225 1975 2075 
z
M 750 4550 
Q 1475 3900 1850 3475 
Q 1575 3275 1400 3075 
Q 1175 3400 350 4150 
L 750 4550 
z
" transform="scale(0.015625)"/>
      <path id="SimHei-51fb" d="M 2950 4075 
L 2950 4575 
Q 2925 4800 2925 5100 
L 3450 5100 
Q 3425 4800 3425 4575 
L 3425 4075 
L 4725 4075 
Q 5175 4075 5525 4100 
L 5525 3625 
Q 5175 3650 4725 3650 
L 3425 3650 
L 3425 2600 
L 5325 2600 
Q 5825 2600 6150 2625 
L 6150 2175 
Q 5825 2200 5325 2200 
L 3425 2200 
L 3425 200 
L 4825 200 
L 4825 1225 
Q 4825 1375 4800 1675 
L 5350 1675 
Q 5325 1350 5325 1225 
L 5325 175 
Q 5325 -200 5350 -575 
L 4825 -575 
L 4825 -200 
L 1050 -200 
Q 1075 100 1075 425 
L 1075 1200 
Q 1075 1300 1050 1650 
L 1600 1650 
Q 1575 1300 1575 1200 
L 1575 200 
L 2950 200 
L 2950 2200 
L 1150 2200 
Q 600 2200 250 2175 
L 250 2625 
Q 600 2600 1125 2600 
L 2950 2600 
L 2950 3650 
L 1675 3650 
Q 1200 3650 875 3625 
L 875 4125 
Q 1175 4100 1675 4075 
L 2950 4075 
z
" transform="scale(0.015625)"/>
     </defs>
     <use xlink:href="#SimHei-8f83"/>
     <use xlink:href="#SimHei-5927" transform="translate(100 0)"/>
     <use xlink:href="#SimHei-7684" transform="translate(200 0)"/>
     <use xlink:href="#SimHei-672a" transform="translate(300 0)"/>
     <use xlink:href="#SimHei-89c2" transform="translate(400 0)"/>
     <use xlink:href="#SimHei-6d4b" transform="translate(500 0)"/>
     <use xlink:href="#SimHei-51b2" transform="translate(600 0)"/>
     <use xlink:href="#SimHei-51fb" transform="translate(700 0)"/>
     <use xlink:href="#SimHei-ff0c" transform="translate(800 0)"/>
    </g>
    <!-- IMR 因此较高。 -->
    <g transform="translate(155.091161 98.646965) scale(0.11 -0.11)">
     <defs>
      <path id="SimHei-49" d="M 1850 125 
L 1275 125 
L 1275 4400 
L 1850 4400 
L 1850 125 
z
" transform="scale(0.015625)"/>
      <path id="SimHei-4d" d="M 2925 125 
L 2425 125 
L 2425 3175 
L 2375 3175 
L 1775 125 
L 1375 125 
L 775 3175 
L 725 3175 
L 725 125 
L 225 125 
L 225 4400 
L 1000 4400 
L 1550 1575 
L 1600 1575 
L 2150 4400 
L 2925 4400 
L 2925 125 
z
" transform="scale(0.015625)"/>
      <path id="SimHei-52" d="M 3000 125 
L 2400 125 
L 1500 1975 
L 850 1975 
L 850 125 
L 275 125 
L 275 4400 
L 1525 4400 
Q 2125 4400 2500 4112 
Q 2875 3825 2875 3175 
Q 2875 2675 2625 2400 
Q 2375 2125 2050 2050 
L 3000 125 
z
M 2300 3175 
Q 2300 3525 2087 3725 
Q 1875 3925 1400 3925 
L 850 3925 
L 850 2450 
L 1550 2450 
Q 1850 2450 2075 2612 
Q 2300 2775 2300 3175 
z
" transform="scale(0.015625)"/>
      <path id="SimHei-20" transform="scale(0.015625)"/>
      <path id="SimHei-56e0" d="M 5775 4950 
Q 5750 4325 5750 3600 
L 5750 850 
Q 5750 200 5775 -550 
L 5275 -550 
L 5275 -100 
L 1150 -100 
L 1150 -600 
L 650 -600 
Q 675 100 675 850 
L 675 3600 
Q 675 4275 650 4950 
L 5775 4950 
z
M 5275 325 
L 5275 4550 
L 1150 4550 
L 1150 325 
L 5275 325 
z
M 2975 3350 
Q 2975 3975 2950 4275 
Q 3225 4250 3525 4250 
Q 3450 3975 3450 3750 
L 3450 3350 
L 4025 3350 
Q 4425 3350 4950 3375 
L 4950 2900 
Q 4425 2925 4025 2925 
L 3425 2925 
Q 3400 2750 3325 2425 
Q 3625 2250 3975 1975 
Q 4325 1700 4900 1225 
Q 4700 1050 4475 800 
Q 4225 1100 3862 1450 
Q 3500 1800 3200 2025 
Q 3025 1700 2700 1375 
Q 2375 1050 1900 700 
Q 1750 925 1475 1075 
Q 2200 1400 2537 1875 
Q 2875 2350 2925 2925 
L 2475 2925 
Q 2025 2925 1525 2900 
L 1525 3375 
Q 2025 3350 2450 3350 
L 2975 3350 
z
" transform="scale(0.015625)"/>
      <path id="SimHei-6b64" d="M 3350 300 
Q 2400 100 2025 -12 
Q 1650 -125 1237 -237 
Q 825 -350 650 -475 
Q 525 -175 400 100 
Q 625 125 800 175 
L 800 2900 
Q 800 3225 750 3625 
L 1275 3625 
Q 1250 3225 1250 2875 
L 1250 250 
Q 1600 325 1975 425 
L 1975 4175 
Q 1975 4525 1950 4950 
L 2475 4950 
Q 2450 4525 2450 4175 
L 2450 3100 
Q 3125 3100 3375 3150 
L 3375 2625 
Q 3050 2650 2450 2650 
L 2450 550 
Q 2900 650 3350 775 
L 3350 300 
z
M 4200 5075 
Q 4175 4700 4175 4225 
L 4175 2800 
Q 4550 3000 4962 3300 
Q 5375 3600 5625 3875 
Q 5825 3600 6025 3350 
Q 4750 2625 4175 2275 
L 4175 400 
Q 4150 25 4550 50 
L 5100 50 
Q 5200 50 5300 137 
Q 5400 225 5500 775 
Q 5750 600 6075 500 
Q 5900 -125 5687 -275 
Q 5475 -425 5175 -425 
L 4425 -425 
Q 3625 -475 3675 225 
L 3675 4225 
Q 3675 4650 3650 5075 
L 4200 5075 
z
" transform="scale(0.015625)"/>
      <path id="SimHei-9ad8" d="M 5825 -25 
Q 5850 -400 5550 -500 
Q 5250 -600 4975 -625 
Q 4875 -325 4725 -100 
Q 4975 -100 5175 -87 
Q 5375 -75 5350 250 
L 5350 1825 
L 1100 1825 
L 1100 -575 
L 600 -575 
Q 625 -225 625 850 
Q 625 1950 600 2200 
L 5850 2200 
Q 5825 1850 5825 1425 
L 5825 -25 
z
M 4925 3800 
Q 4900 3475 4900 3175 
Q 4900 2900 4925 2600 
L 1400 2600 
Q 1425 2825 1425 3175 
Q 1425 3525 1400 3800 
L 4925 3800 
z
M 4500 1400 
Q 4475 1125 4475 800 
Q 4475 500 4500 200 
L 1950 200 
Q 2000 500 2000 800 
Q 2000 1125 1950 1400 
L 4500 1400 
z
M 425 4600 
Q 750 4575 1125 4575 
L 2925 4575 
Q 2850 4875 2750 5100 
Q 3050 5125 3350 5200 
Q 3400 4950 3525 4575 
L 5250 4575 
Q 5600 4575 5975 4600 
L 5975 4150 
Q 5600 4175 5050 4175 
L 1150 4175 
Q 750 4175 425 4150 
L 425 4600 
z
M 4450 2975 
L 4450 3425 
L 1900 3425 
L 1900 2975 
L 4450 2975 
z
M 4025 550 
L 4025 1050 
L 2400 1050 
L 2400 550 
L 4025 550 
z
" transform="scale(0.015625)"/>
      <path id="SimHei-3002" d="M 2275 975 
Q 2375 700 2300 437 
Q 2225 175 2025 37 
Q 1825 -100 1550 -100 
Q 1275 -100 1050 125 
Q 825 350 825 612 
Q 825 875 950 1075 
Q 1075 1275 1337 1375 
Q 1600 1475 1887 1362 
Q 2175 1250 2275 975 
z
M 1825 275 
Q 2050 425 2037 687 
Q 2025 950 1787 1075 
Q 1550 1200 1337 1050 
Q 1125 900 1125 650 
Q 1125 400 1362 262 
Q 1600 125 1825 275 
z
" transform="scale(0.015625)"/>
     </defs>
     <use xlink:href="#SimHei-49"/>
     <use xlink:href="#SimHei-4d" transform="translate(50 0)"/>
     <use xlink:href="#SimHei-52" transform="translate(100 0)"/>
     <use xlink:href="#SimHei-20" transform="translate(150 0)"/>
     <use xlink:href="#SimHei-56e0" transform="translate(200 0)"/>
     <use xlink:href="#SimHei-6b64" transform="translate(300 0)"/>
     <use xlink:href="#SimHei-8f83" transform="translate(400 0)"/>
     <use xlink:href="#SimHei-9ad8" transform="translate(500 0)"/>
     <use xlink:href="#SimHei-3002" transform="translate(600 0)"/>
    </g>
   </g>
   <g id="text_19">
    <!-- 逆米尔斯比率：跨过边界后的未观测因素修正 -->
    <g transform="translate(170.091875 17.925) scale(0.132 -0.132)">
     <defs>
      <path id="SimHei-ff1a" d="M 1200 2425 
L 2025 2425 
L 2025 1600 
L 1200 1600 
L 1200 2425 
z
M 1200 825 
L 2025 825 
L 2025 0 
L 1200 0 
L 1200 825 
z
" transform="scale(0.015625)"/>
      <path id="SimHei-540e" d="M 5475 2150 
Q 5450 1750 5450 775 
Q 5450 -175 5500 -550 
L 4975 -550 
L 4975 -25 
L 2525 -25 
L 2525 -600 
L 2025 -600 
Q 2050 -175 2050 775 
Q 2050 1750 2025 2150 
L 5475 2150 
z
M 5175 5075 
Q 5300 4800 5525 4525 
Q 4950 4475 3750 4337 
Q 2550 4200 1575 4175 
L 1575 3375 
L 5200 3375 
Q 5550 3375 5975 3400 
L 5975 2900 
Q 5575 2925 5200 2925 
L 1575 2925 
Q 1550 2425 1487 1875 
Q 1425 1325 1250 712 
Q 1075 100 800 -325 
Q 650 -200 225 -50 
Q 625 325 825 1062 
Q 1025 1800 1050 2825 
Q 1075 3850 1075 4575 
Q 2300 4600 3625 4775 
Q 4950 4950 5175 5075 
z
M 4975 375 
L 4975 1725 
L 2525 1725 
L 2525 375 
L 4975 375 
z
" transform="scale(0.015625)"/>
      <path id="SimHei-7d20" d="M 2950 4650 
Q 2950 4775 2925 5125 
L 3450 5125 
Q 3425 4825 3425 4650 
L 4750 4650 
Q 5150 4650 5550 4675 
L 5550 4225 
Q 5150 4250 4775 4250 
L 3425 4250 
L 3425 3825 
L 4425 3825 
Q 4775 3825 5225 3850 
L 5225 3450 
Q 4800 3475 4425 3475 
L 3425 3475 
L 3425 3075 
L 5150 3075 
Q 5500 3075 5950 3100 
L 5950 2675 
Q 5500 2700 5150 2700 
L 3200 2700 
Q 2925 2475 2475 2200 
Q 3125 2225 3750 2250 
Q 4025 2350 4400 2650 
Q 4675 2450 4900 2300 
Q 4475 2150 3950 1875 
L 2825 1325 
Q 3725 1375 4825 1450 
Q 4700 1625 4550 1725 
Q 4750 1825 4925 1975 
Q 5525 1375 5800 1075 
Q 5575 925 5350 750 
Q 5200 1000 5100 1100 
Q 4025 1050 3550 1000 
L 3550 50 
Q 3575 -325 3350 -412 
Q 3125 -500 2675 -575 
Q 2600 -350 2425 -50 
Q 2750 -50 2912 -25 
Q 3075 0 3075 200 
L 3075 975 
Q 2725 950 2062 887 
Q 1400 825 1150 775 
Q 1100 1025 1000 1225 
Q 1375 1250 1712 1325 
Q 2050 1400 2375 1512 
Q 2700 1625 3125 1875 
Q 2475 1850 2187 1825 
Q 1900 1800 1525 1750 
Q 1475 2050 1375 2225 
Q 1750 2225 2012 2350 
Q 2275 2475 2525 2700 
L 1275 2700 
Q 875 2700 425 2675 
L 425 3100 
Q 875 3075 1250 3075 
L 2950 3075 
L 2950 3475 
L 1975 3475 
Q 1625 3475 1200 3450 
L 1200 3850 
Q 1625 3825 1950 3825 
L 2950 3825 
L 2950 4250 
L 1725 4250 
Q 1350 4250 900 4225 
L 900 4675 
Q 1350 4650 1725 4650 
L 2950 4650 
z
M 4375 750 
Q 5075 475 5875 100 
Q 5700 -125 5600 -375 
Q 4850 75 4150 350 
Q 4300 525 4375 750 
z
M 2375 400 
Q 2050 275 1662 50 
Q 1275 -175 800 -400 
Q 700 -175 450 25 
Q 900 150 1325 362 
Q 1750 575 2025 775 
Q 2200 550 2375 400 
z
" transform="scale(0.015625)"/>
      <path id="SimHei-4fee" d="M 4150 5075 
Q 3925 4850 3825 4575 
L 5600 4575 
Q 5425 4225 5225 3887 
Q 5025 3550 4725 3250 
Q 5475 2775 6200 2800 
Q 6000 2625 5925 2300 
Q 5050 2450 4400 2950 
Q 3450 2350 2750 2150 
Q 2650 2375 2375 2600 
Q 3150 2725 4050 3250 
Q 3725 3500 3450 3900 
Q 3225 3525 2925 3125 
Q 2750 3275 2525 3375 
Q 2900 3775 3200 4375 
Q 3500 4975 3550 5300 
Q 3800 5175 4150 5075 
z
M 2000 5000 
Q 1825 4875 1475 3825 
L 1475 600 
Q 1475 -200 1500 -550 
L 1025 -550 
Q 1050 -50 1050 525 
L 1050 3125 
Q 925 2800 600 2300 
Q 500 2425 225 2650 
Q 450 2875 862 3700 
Q 1275 4525 1425 5225 
Q 1600 5125 2000 5000 
z
M 6100 700 
Q 5800 575 4950 125 
Q 4100 -325 2775 -675 
Q 2700 -425 2425 -225 
Q 3550 50 4387 400 
Q 5225 750 5675 1125 
Q 5925 825 6100 700 
z
M 2325 3950 
Q 2300 3675 2300 3325 
L 2300 1200 
Q 2300 875 2325 625 
L 1850 625 
Q 1875 900 1875 1200 
L 1875 3325 
Q 1875 3650 1850 3950 
L 2325 3950 
z
M 5425 1525 
Q 4775 1100 4175 775 
Q 3575 450 3250 275 
Q 3000 600 2825 700 
Q 3250 800 3875 1112 
Q 4500 1425 4975 1900 
Q 5275 1625 5425 1525 
z
M 4825 2200 
Q 4400 1975 3250 1325 
Q 3125 1525 2900 1725 
Q 4100 2175 4425 2575 
Q 4650 2325 4825 2200 
z
M 4400 3500 
Q 4675 3825 4900 4200 
L 3725 4200 
Q 4100 3700 4400 3500 
z
" transform="scale(0.015625)"/>
     </defs>
     <use xlink:href="#SimHei-9006"/>
     <use xlink:href="#SimHei-7c73" transform="translate(100 0)"/>
     <use xlink:href="#SimHei-5c14" transform="translate(200 0)"/>
     <use xlink:href="#SimHei-65af" transform="translate(300 0)"/>
     <use xlink:href="#SimHei-6bd4" transform="translate(400 0)"/>
     <use xlink:href="#SimHei-7387" transform="translate(500 0)"/>
     <use xlink:href="#SimHei-ff1a" transform="translate(600 0)"/>
     <use xlink:href="#SimHei-8de8" transform="translate(700 0)"/>
     <use xlink:href="#SimHei-8fc7" transform="translate(800 0)"/>
     <use xlink:href="#SimHei-8fb9" transform="translate(900 0)"/>
     <use xlink:href="#SimHei-754c" transform="translate(1000 0)"/>
     <use xlink:href="#SimHei-540e" transform="translate(1100 0)"/>
     <use xlink:href="#SimHei-7684" transform="translate(1200 0)"/>
     <use xlink:href="#SimHei-672a" transform="translate(1300 0)"/>
     <use xlink:href="#SimHei-89c2" transform="translate(1400 0)"/>
     <use xlink:href="#SimHei-6d4b" transform="translate(1500 0)"/>
     <use xlink:href="#SimHei-56e0" transform="translate(1600 0)"/>
     <use xlink:href="#SimHei-7d20" transform="translate(1700 0)"/>
     <use xlink:href="#SimHei-4fee" transform="translate(1800 0)"/>
     <use xlink:href="#SimHei-6b63" transform="translate(1900 0)"/>
    </g>
   </g>
   <g id="legend_1">
    <g id="line2d_33">
     <path d="M 432.953125 38.335 
L 443.953125 38.335 
L 454.953125 38.335 
" style="fill: none; stroke: #1f77b4; stroke-width: 2; stroke-linecap: square"/>
    </g>
    <g id="text_20">
     <!-- $\lambda(a)=\phi(a)/\Phi(a)$ -->
     <g transform="translate(463.753125 42.185) scale(0.11 -0.11)">
      <defs>
       <path id="DejaVuSans-Oblique-3bb" d="M 2350 4316 
L 3125 0 
L 2516 0 
L 2038 2588 
L 328 0 
L -281 0 
L 1903 3356 
L 1794 3975 
Q 1725 4369 1391 4369 
L 1091 4369 
L 1184 4863 
L 1550 4856 
Q 2253 4847 2350 4316 
z
" transform="scale(0.015625)"/>
       <path id="DejaVuSans-28" d="M 1984 4856 
Q 1566 4138 1362 3434 
Q 1159 2731 1159 2009 
Q 1159 1288 1364 580 
Q 1569 -128 1984 -844 
L 1484 -844 
Q 1016 -109 783 600 
Q 550 1309 550 2009 
Q 550 2706 781 3412 
Q 1013 4119 1484 4856 
L 1984 4856 
z
" transform="scale(0.015625)"/>
       <path id="DejaVuSans-29" d="M 513 4856 
L 1013 4856 
Q 1481 4119 1714 3412 
Q 1947 2706 1947 2009 
Q 1947 1309 1714 600 
Q 1481 -109 1013 -844 
L 513 -844 
Q 928 -128 1133 580 
Q 1338 1288 1338 2009 
Q 1338 2731 1133 3434 
Q 928 4138 513 4856 
z
" transform="scale(0.015625)"/>
       <path id="DejaVuSans-Oblique-3d5" d="M 2991 4863 
L 2738 3572 
Q 3363 3572 3684 3094 
Q 4016 2606 3850 1747 
Q 3681 888 3159 400 
Q 2653 -78 2028 -78 
L 1784 -1331 
L 1213 -1331 
L 1456 -78 
Q 834 -78 509 400 
Q 178 888 347 1747 
Q 513 2606 1034 3094 
Q 1544 3572 2166 3572 
L 2419 4863 
L 2991 4863 
z
M 2128 434 
Q 2481 434 2784 756 
Q 3116 1116 3244 1747 
Q 3369 2372 3169 2738 
Q 2991 3059 2638 3059 
L 2128 434 
z
M 1556 434 
L 2066 3059 
Q 1716 3059 1413 2738 
Q 1072 2372 953 1747 
Q 834 1116 1028 756 
Q 1203 434 1556 434 
z
" transform="scale(0.015625)"/>
       <path id="DejaVuSans-3a6" d="M 2206 3644 
Q 1738 3578 1431 3306 
Q 1025 2947 1025 2328 
Q 1025 1713 1431 1353 
Q 1738 1081 2206 1016 
L 2206 3644 
z
M 2838 1016 
Q 3306 1081 3613 1353 
Q 4013 1713 4013 2328 
Q 4013 2947 3613 3306 
Q 3306 3578 2838 3644 
L 2838 1016 
z
M 2206 494 
Q 1444 563 950 981 
Q 359 1481 359 2328 
Q 359 3175 950 3678 
Q 1441 4100 2206 4169 
L 2206 4666 
L 2838 4666 
L 2838 4169 
Q 3600 4097 4091 3678 
Q 4678 3175 4678 2328 
Q 4678 1484 4091 981 
Q 3600 563 2838 491 
L 2838 0 
L 2206 0 
L 2206 494 
z
" transform="scale(0.015625)"/>
      </defs>
      <use xlink:href="#DejaVuSans-Oblique-3bb" transform="translate(0 0.015625)"/>
      <use xlink:href="#DejaVuSans-28" transform="translate(59.179688 0.015625)"/>
      <use xlink:href="#DejaVuSans-Oblique-61" transform="translate(98.193359 0.015625)"/>
      <use xlink:href="#DejaVuSans-29" transform="translate(159.472656 0.015625)"/>
      <use xlink:href="#DejaVuSans-3d" transform="translate(217.96875 0.015625)"/>
      <use xlink:href="#DejaVuSans-Oblique-3d5" transform="translate(321.240234 0.015625)"/>
      <use xlink:href="#DejaVuSans-28" transform="translate(387.207031 0.015625)"/>
      <use xlink:href="#DejaVuSans-Oblique-61" transform="translate(426.220703 0.015625)"/>
      <use xlink:href="#DejaVuSans-29" transform="translate(487.5 0.015625)"/>
      <use xlink:href="#DejaVuSans-2f" transform="translate(526.513672 0.015625)"/>
      <use xlink:href="#DejaVuSans-3a6" transform="translate(560.205078 0.015625)"/>
      <use xlink:href="#DejaVuSans-28" transform="translate(638.916016 0.015625)"/>
      <use xlink:href="#DejaVuSans-Oblique-61" transform="translate(677.929688 0.015625)"/>
      <use xlink:href="#DejaVuSans-29" transform="translate(739.208984 0.015625)"/>
     </g>
    </g>
   </g>
  </g>
 </g>
 <defs>
  <clipPath id="pbf0a5cd751">
   <rect x="44.840625" y="23.925" width="514.5025" height="270.67"/>
  </clipPath>
 </defs>
</svg>
