<?xml version="1.0" encoding="utf-8" standalone="no"?>
<!DOCTYPE svg PUBLIC "-//W3C//DTD SVG 1.1//EN"
  "http://www.w3.org/Graphics/SVG/1.1/DTD/svg11.dtd">
<svg xmlns:xlink="http://www.w3.org/1999/xlink" width="514.72pt" height="319.378211pt" viewBox="0 0 514.72 319.378211" xmlns="http://www.w3.org/2000/svg" version="1.1">
 <metadata>
  <rdf:RDF xmlns:dc="http://purl.org/dc/elements/1.1/" xmlns:cc="http://creativecommons.org/ns#" xmlns:rdf="http://www.w3.org/1999/02/22-rdf-syntax-ns#">
   <cc:Work>
    <dc:type rdf:resource="http://purl.org/dc/dcmitype/StillImage"/>
    <dc:date>2026-04-18T01:35:15.276960</dc:date>
    <dc:format>image/svg+xml</dc:format>
    <dc:creator>
     <cc:Agent>
      <dc:title>Matplotlib v3.10.8, https://matplotlib.org/</dc:title>
     </cc:Agent>
    </dc:creator>
   </cc:Work>
  </rdf:RDF>
 </metadata>
 <defs>
  <style type="text/css">*{stroke-linejoin: round; stroke-linecap: butt}</style>
 </defs>
 <g id="figure_1">
  <g id="patch_1">
   <path d="M 0 319.378211 
L 514.72 319.378211 
L 514.72 0 
L 0 0 
z
" style="fill: #ffffff"/>
  </g>
  <g id="axes_1">
   <g id="patch_2">
    <path d="M 12.616976 110.990774 
L 105.235902 110.990774 
Q 109.219512 110.990774 109.219512 105.321291 
L 109.219512 61.3828 
Q 109.219512 55.713317 105.235902 55.713317 
L 12.616976 55.713317 
Q 8.633366 55.713317 8.633366 61.3828 
L 8.633366 105.321291 
Q 8.633366 110.990774 12.616976 110.990774 
z
" clip-path="url(#pd5350afb61)" style="fill: #d6e8f7; stroke: #2c6bac; stroke-width: 1.5; stroke-linejoin: miter"/>
   </g>
   <g id="patch_3">
    <path d="M 180.426537 110.990774 
L 288.979902 110.990774 
Q 292.963512 110.990774 292.963512 105.321291 
L 292.963512 61.3828 
Q 292.963512 55.713317 288.979902 55.713317 
L 180.426537 55.713317 
Q 176.442927 55.713317 176.442927 61.3828 
L 176.442927 105.321291 
Q 176.442927 110.990774 180.426537 110.990774 
z
" clip-path="url(#pd5350afb61)" style="fill: #fff8ee; stroke: #2c6bac; stroke-width: 1.5; stroke-linejoin: miter"/>
   </g>
   <g id="patch_4">
    <path d="M 357.19922 110.990774 
L 449.818146 110.990774 
Q 453.801756 110.990774 453.801756 105.321291 
L 453.801756 61.3828 
Q 453.801756 55.713317 449.818146 55.713317 
L 357.19922 55.713317 
Q 353.21561 55.713317 353.21561 61.3828 
L 353.21561 105.321291 
Q 353.21561 110.990774 357.19922 110.990774 
z
" clip-path="url(#pd5350afb61)" style="fill: #d6e8f7; stroke: #2c6bac; stroke-width: 1.5; stroke-linejoin: miter"/>
   </g>
   <g id="patch_5">
    <path d="M 12.616976 196.033016 
L 105.235902 196.033016 
Q 109.219512 196.033016 109.219512 190.363533 
L 109.219512 146.425042 
Q 109.219512 140.755559 105.235902 140.755559 
L 12.616976 140.755559 
Q 8.633366 140.755559 8.633366 146.425042 
L 8.633366 190.363533 
Q 8.633366 196.033016 12.616976 196.033016 
z
" clip-path="url(#pd5350afb61)" style="fill: #d6e8f7; stroke: #a54f04; stroke-width: 1.5; stroke-linejoin: miter"/>
   </g>
   <g id="patch_6">
    <path d="M 180.426537 196.033016 
L 288.979902 196.033016 
Q 292.963512 196.033016 292.963512 190.363533 
L 292.963512 146.425042 
Q 292.963512 140.755559 288.979902 140.755559 
L 180.426537 140.755559 
Q 176.442927 140.755559 176.442927 146.425042 
L 176.442927 190.363533 
Q 176.442927 196.033016 180.426537 196.033016 
z
" clip-path="url(#pd5350afb61)" style="fill: #fff8ee; stroke: #a54f04; stroke-width: 1.5; stroke-linejoin: miter"/>
   </g>
   <g id="patch_7">
    <path d="M 357.19922 196.033016 
L 449.818146 196.033016 
Q 453.801756 196.033016 453.801756 190.363533 
L 453.801756 146.425042 
Q 453.801756 140.755559 449.818146 140.755559 
L 357.19922 140.755559 
Q 353.21561 140.755559 353.21561 146.425042 
L 353.21561 190.363533 
Q 353.21561 196.033016 357.19922 196.033016 
z
" clip-path="url(#pd5350afb61)" style="fill: #d6e8f7; stroke: #a54f04; stroke-width: 1.5; stroke-linejoin: miter"/>
   </g>
   <g id="patch_8">
    <path d="M 12.616976 281.075258 
L 105.235902 281.075258 
Q 109.219512 281.075258 109.219512 275.405775 
L 109.219512 231.467284 
Q 109.219512 225.797801 105.235902 225.797801 
L 12.616976 225.797801 
Q 8.633366 225.797801 8.633366 231.467284 
L 8.633366 275.405775 
Q 8.633366 281.075258 12.616976 281.075258 
z
" clip-path="url(#pd5350afb61)" style="fill: #d6e8f7; stroke: #2ca02c; stroke-width: 1.5; stroke-linejoin: miter"/>
   </g>
   <g id="patch_9">
    <path d="M 180.426537 281.075258 
L 288.979902 281.075258 
Q 292.963512 281.075258 292.963512 275.405775 
L 292.963512 231.467284 
Q 292.963512 225.797801 288.979902 225.797801 
L 180.426537 225.797801 
Q 176.442927 225.797801 176.442927 231.467284 
L 176.442927 275.405775 
Q 176.442927 281.075258 180.426537 281.075258 
z
" clip-path="url(#pd5350afb61)" style="fill: #fff8ee; stroke: #2ca02c; stroke-width: 1.5; stroke-linejoin: miter"/>
   </g>
   <g id="patch_10">
    <path d="M 357.19922 281.075258 
L 449.818146 281.075258 
Q 453.801756 281.075258 453.801756 275.405775 
L 453.801756 231.467284 
Q 453.801756 225.797801 449.818146 225.797801 
L 357.19922 225.797801 
Q 353.21561 225.797801 353.21561 231.467284 
L 353.21561 275.405775 
Q 353.21561 281.075258 357.19922 281.075258 
z
" clip-path="url(#pd5350afb61)" style="fill: #d6e8f7; stroke: #2ca02c; stroke-width: 1.5; stroke-linejoin: miter"/>
   </g>
   <g id="line2d_1">
    <path d="M 12.368 43.665666 
L 502.352 43.665666 
" clip-path="url(#pd5350afb61)" style="fill: none; stroke: #cccccc; stroke-width: 0.8; stroke-linecap: square"/>
   </g>
   <g id="text_1">
    <!-- 线性预测器 -->
    <g style="fill: #333333" transform="translate(32.676439 33.019303) scale(0.105 -0.105)">
     <defs>
      <path id="SimHei-7ebf" d="M 3450 4300 
Q 3450 4675 3375 5125 
Q 3700 5100 4050 5050 
Q 3975 4900 3950 4562 
Q 3925 4225 3950 3600 
L 4800 3750 
Q 5225 3850 5650 3975 
L 5750 3500 
Q 5325 3450 4875 3375 
L 3975 3200 
Q 3975 2800 4025 2500 
L 5000 2675 
Q 5500 2775 5950 2925 
L 6025 2450 
Q 5575 2375 5075 2275 
L 4100 2100 
Q 4150 1600 4350 1175 
Q 4575 1350 4787 1575 
Q 5000 1800 5175 2075 
Q 5550 1775 5750 1675 
Q 5425 1525 5237 1337 
Q 5050 1150 4625 750 
Q 4925 250 5162 112 
Q 5400 -25 5500 100 
Q 5600 225 5675 625 
Q 5900 450 6200 350 
Q 5775 -750 5275 -537 
Q 4775 -325 4225 450 
Q 3875 175 3537 -62 
Q 3200 -300 2700 -550 
Q 2575 -300 2325 -100 
Q 2825 75 3175 275 
Q 3525 475 3975 850 
Q 3750 1350 3650 2025 
Q 2900 1900 2600 1800 
L 2525 2275 
Q 2825 2275 3550 2425 
Q 3500 2825 3500 3100 
Q 2825 2950 2575 2875 
L 2475 3350 
Q 2725 3350 3450 3500 
L 3450 4300 
z
M 1950 4875 
Q 1700 4650 1462 4237 
Q 1225 3825 825 3225 
Q 1425 3250 1650 3250 
Q 1875 3625 2050 4075 
Q 2300 3900 2600 3800 
Q 2350 3550 2087 3125 
Q 1825 2700 1175 1675 
Q 1850 1725 2375 1775 
Q 2300 1525 2300 1350 
Q 2125 1350 1525 1287 
Q 925 1225 550 1125 
Q 525 1375 400 1650 
Q 700 1725 950 2050 
Q 1200 2375 1475 2875 
Q 650 2825 425 2675 
Q 350 2950 200 3225 
Q 525 3450 825 3962 
Q 1125 4475 1375 5150 
Q 1625 4975 1950 4875 
z
M 2575 875 
Q 2550 600 2575 450 
Q 1950 325 1450 200 
Q 950 75 525 -75 
Q 450 200 250 475 
Q 950 550 1325 612 
Q 1700 675 2575 875 
z
M 4850 4025 
Q 4675 4300 4375 4675 
L 4775 4875 
Q 4875 4750 5275 4275 
Q 5025 4175 4850 4025 
z
" transform="scale(0.015625)"/>
      <path id="SimHei-6027" d="M 3450 4525 
Q 3325 4075 3275 3750 
L 4050 3750 
L 4050 4275 
Q 4050 4700 4025 5100 
L 4550 5100 
Q 4525 4700 4525 4275 
L 4525 3750 
L 5025 3750 
Q 5350 3750 5800 3775 
L 5800 3300 
Q 5350 3325 5025 3325 
L 4525 3325 
L 4525 2000 
L 4975 2000 
Q 5350 2000 5725 2025 
L 5725 1550 
Q 5350 1575 4975 1575 
L 4525 1575 
L 4525 25 
L 5200 25 
Q 5625 25 6025 50 
L 6025 -400 
Q 5625 -375 5200 -375 
L 3275 -375 
Q 2825 -375 2400 -400 
L 2400 50 
Q 2825 25 3250 25 
L 4050 25 
L 4050 1575 
L 3625 1575 
Q 3300 1575 2875 1550 
L 2875 2025 
Q 3200 2000 3625 2000 
L 4050 2000 
L 4050 3325 
L 3175 3325 
Q 3100 2950 2775 2225 
Q 2500 2375 2325 2400 
Q 2675 3125 2775 3650 
Q 2875 4175 2950 4650 
Q 3200 4575 3450 4525 
z
M 1700 5150 
Q 1675 4650 1675 4175 
L 1675 425 
Q 1675 -100 1700 -625 
L 1175 -625 
Q 1200 -100 1200 425 
L 1200 4175 
Q 1200 4700 1175 5150 
L 1700 5150 
z
M 975 3725 
Q 825 2675 700 2150 
Q 450 2200 250 2250 
Q 425 2900 525 3800 
Q 725 3775 975 3725 
z
M 2125 4025 
Q 2325 3625 2525 3000 
Q 2300 2925 2125 2825 
Q 1950 3375 1750 3850 
Q 1950 3950 2125 4025 
z
" transform="scale(0.015625)"/>
      <path id="SimHei-9884" d="M 5200 4800 
Q 5575 4800 5950 4825 
L 5950 4400 
Q 5575 4425 5200 4425 
L 4500 4425 
Q 4425 4050 4350 3600 
L 5725 3600 
Q 5700 3225 5700 2800 
L 5700 1725 
Q 5700 1300 5725 850 
L 5250 850 
L 5250 3225 
L 3550 3225 
L 3550 800 
L 3075 800 
Q 3100 1375 3100 1725 
L 3100 2775 
Q 3100 3175 3075 3600 
L 3900 3600 
Q 4000 4150 4000 4425 
L 3725 4425 
Q 3300 4425 2850 4400 
L 2850 4825 
Q 3325 4800 3725 4800 
L 5200 4800 
z
M 2600 1775 
Q 2350 1825 2150 1825 
Q 2250 2250 2300 2450 
L 1750 2450 
L 1750 125 
Q 1725 -300 1425 -400 
Q 1125 -500 750 -500 
Q 700 -225 575 25 
Q 1125 -25 1212 37 
Q 1300 100 1300 350 
L 1300 2450 
L 1025 2450 
Q 700 2450 350 2425 
L 350 2850 
Q 700 2825 1000 2825 
L 2850 2825 
Q 2725 2325 2600 1775 
z
M 4725 2875 
Q 4625 2575 4600 2100 
Q 4575 1625 4462 1037 
Q 4350 450 3962 62 
Q 3575 -325 2925 -675 
Q 2700 -500 2475 -350 
Q 3075 -125 3437 200 
Q 3800 525 3950 937 
Q 4100 1350 4137 1850 
Q 4175 2350 4175 2925 
L 4725 2875 
z
M 1625 2900 
Q 1275 3275 800 3650 
Q 925 3775 1075 3950 
Q 1250 3825 1425 3675 
Q 1750 4150 1950 4375 
L 1400 4375 
Q 900 4375 450 4350 
L 450 4775 
Q 900 4750 1375 4750 
L 2575 4750 
L 2575 4375 
Q 2200 4100 1725 3400 
L 1950 3200 
Q 1750 3025 1625 2900 
z
M 4775 725 
Q 5725 0 6075 -325 
Q 5850 -500 5725 -650 
Q 5400 -325 5137 -87 
Q 4875 150 4525 350 
Q 4650 525 4775 725 
z
" transform="scale(0.015625)"/>
      <path id="SimHei-6d4b" d="M 4025 4725 
Q 4000 4475 4000 4000 
L 4000 2225 
Q 4000 1775 4025 1350 
L 3550 1350 
L 3550 4325 
L 2350 4325 
L 2350 1325 
L 1900 1325 
Q 1925 1775 1925 2225 
L 1925 4000 
Q 1925 4200 1900 4725 
L 4025 4725 
z
M 5900 5075 
Q 5875 4800 5875 4375 
L 5875 0 
Q 5875 -325 5650 -425 
Q 5425 -525 4975 -600 
Q 4925 -325 4775 -50 
Q 5125 -50 5262 -25 
Q 5400 0 5400 250 
L 5400 4375 
Q 5400 4775 5375 5075 
L 5900 5075 
z
M 3275 3725 
Q 3225 3400 3200 2325 
Q 3175 1250 2837 550 
Q 2500 -150 2075 -600 
Q 1850 -400 1600 -325 
Q 2200 250 2475 962 
Q 2750 1675 2762 2475 
Q 2775 3275 2725 3800 
Q 3000 3750 3275 3725 
z
M 4950 4275 
Q 4925 4000 4925 3575 
L 4925 1825 
Q 4925 1300 4950 850 
L 4450 850 
Q 4475 1150 4475 1825 
L 4475 3575 
Q 4475 4000 4450 4275 
L 4950 4275 
z
M 1700 1675 
Q 1375 1075 1112 487 
Q 850 -100 725 -400 
Q 500 -200 200 -25 
Q 475 300 762 850 
Q 1050 1400 1250 2000 
Q 1475 1825 1700 1675 
z
M 3400 1050 
Q 3800 650 4300 -125 
Q 4100 -225 3875 -450 
Q 3475 275 3025 750 
Q 3225 875 3400 1050 
z
M 600 3525 
Q 1125 3125 1500 2775 
Q 1300 2575 1150 2375 
Q 825 2775 300 3150 
Q 450 3300 600 3525 
z
M 1350 4000 
Q 950 4375 475 4675 
Q 625 4850 775 5050 
Q 1300 4700 1675 4375 
Q 1500 4250 1350 4000 
z
" transform="scale(0.015625)"/>
      <path id="SimHei-5668" d="M 275 1925 
Q 775 1925 1212 2000 
Q 1650 2075 1987 2200 
Q 2325 2325 2625 2625 
L 1525 2625 
Q 1250 2625 550 2600 
L 550 3025 
Q 1250 3000 1525 3000 
L 2750 3000 
Q 2825 3225 2800 3550 
Q 3125 3500 3475 3450 
Q 3325 3300 3300 3000 
L 4425 3000 
Q 4250 3175 4075 3300 
L 4425 3550 
Q 4625 3400 4800 3200 
Q 4650 3125 4500 3000 
L 4875 3000 
Q 5425 3000 5875 3025 
L 5875 2600 
Q 5450 2625 4875 2625 
L 3625 2625 
Q 4100 2225 4837 2112 
Q 5575 2000 6100 2050 
Q 5900 1800 5850 1500 
Q 5225 1550 4787 1637 
Q 4350 1725 3987 1900 
Q 3625 2075 3150 2575 
Q 2700 2000 1975 1762 
Q 1250 1525 525 1425 
Q 450 1725 275 1925 
z
M 5025 -575 
L 5025 -100 
L 3825 -100 
L 3825 -550 
L 3400 -550 
Q 3425 0 3425 475 
Q 3425 975 3400 1425 
L 5475 1425 
Q 5450 1125 5450 400 
Q 5450 -300 5475 -575 
L 5025 -575 
z
M 2400 -550 
L 2400 -100 
L 1325 -100 
L 1325 -575 
L 875 -575 
Q 900 -150 900 475 
Q 900 1100 875 1425 
L 2825 1425 
Q 2800 1025 2800 425 
Q 2800 -150 2825 -550 
L 2400 -550 
z
M 5475 5025 
Q 5450 4700 5450 4350 
Q 5450 4000 5475 3625 
L 3375 3625 
Q 3400 4000 3400 4350 
Q 3400 4725 3375 5025 
L 5475 5025 
z
M 2825 5025 
Q 2800 4700 2800 4325 
Q 2800 3975 2825 3625 
L 875 3625 
Q 900 3975 900 4325 
Q 900 4700 875 5025 
L 2825 5025 
z
M 5025 250 
L 5025 1050 
L 3825 1050 
L 3825 250 
L 5025 250 
z
M 2400 250 
L 2400 1050 
L 1325 1050 
L 1325 250 
L 2400 250 
z
M 5025 3975 
L 5025 4675 
L 3825 4675 
L 3825 3975 
L 5025 3975 
z
M 2400 3975 
L 2400 4675 
L 1325 4675 
L 1325 3975 
L 2400 3975 
z
" transform="scale(0.015625)"/>
     </defs>
     <use xlink:href="#SimHei-7ebf"/>
     <use xlink:href="#SimHei-6027" transform="translate(100 0)"/>
     <use xlink:href="#SimHei-9884" transform="translate(200 0)"/>
     <use xlink:href="#SimHei-6d4b" transform="translate(300 0)"/>
     <use xlink:href="#SimHei-5668" transform="translate(400 0)"/>
    </g>
   </g>
   <g id="text_2">
    <!-- 连接函数 -->
    <g style="fill: #333333" transform="translate(213.70322 33.039811) scale(0.105 -0.105)">
     <defs>
      <path id="SimHei-8fde" d="M 3175 4350 
Q 3425 4925 3475 5200 
Q 3875 5025 4050 4975 
Q 3925 4875 3675 4350 
L 5025 4350 
Q 5550 4350 5850 4375 
L 5850 3925 
Q 5525 3950 5100 3950 
L 3475 3950 
Q 3350 3700 2875 2925 
L 3875 2925 
Q 3875 3400 3850 3725 
L 4350 3725 
Q 4325 3450 4325 2925 
Q 5575 2925 5650 2950 
L 5650 2475 
Q 5500 2525 4325 2525 
L 4325 1700 
L 5250 1700 
Q 5800 1700 5950 1725 
L 5950 1275 
Q 5650 1300 5250 1300 
L 4325 1300 
Q 4325 600 4350 75 
L 3850 75 
Q 3875 600 3875 1300 
Q 2150 1300 1975 1275 
L 1975 1725 
Q 2650 1700 3875 1700 
L 3875 2525 
L 3075 2525 
Q 2525 2500 2375 2450 
L 2200 2900 
Q 2400 3025 2587 3275 
Q 2775 3525 2975 3950 
Q 2325 3950 1975 3925 
L 1975 4375 
Q 2300 4350 3175 4350 
z
M 1625 2925 
Q 1600 2425 1600 2100 
L 1600 550 
Q 2325 -75 3825 -75 
Q 5350 -75 6175 0 
Q 6025 -250 5975 -550 
Q 4975 -550 4175 -537 
Q 3375 -525 2750 -412 
Q 2125 -300 1762 -50 
Q 1400 200 1175 -12 
Q 950 -225 675 -550 
Q 525 -350 275 -175 
Q 850 300 1100 475 
L 1100 2525 
Q 775 2525 400 2500 
L 400 2950 
Q 800 2925 1125 2925 
L 1625 2925 
z
M 975 4950 
Q 1450 4275 1775 3750 
Q 1550 3675 1300 3500 
Q 1175 3875 550 4650 
Q 775 4850 975 4950 
z
" transform="scale(0.015625)"/>
      <path id="SimHei-63a5" d="M 4225 2275 
Q 4150 2200 4000 1900 
L 5600 1900 
Q 6050 1925 6150 1925 
L 6150 1475 
Q 5975 1500 5650 1500 
L 5225 1500 
Q 5000 925 4700 500 
Q 5475 125 6050 -175 
Q 5975 -250 5675 -625 
Q 5275 -325 4375 150 
Q 4025 -150 3562 -337 
Q 3100 -525 2450 -650 
Q 2425 -450 2225 -200 
Q 2625 -150 3075 -37 
Q 3525 75 3925 350 
Q 3700 450 2875 800 
Q 3025 1025 3275 1500 
L 2875 1500 
Q 2475 1500 2300 1475 
L 2300 1950 
Q 2425 1925 2850 1900 
L 3450 1900 
Q 3625 2325 3650 2500 
Q 4075 2325 4225 2275 
z
M 1175 3950 
L 1175 4700 
Q 1175 4850 1125 5125 
L 1675 5125 
Q 1625 4850 1625 4700 
L 1625 3950 
Q 1875 3950 2250 3975 
L 2250 3500 
Q 1875 3525 1625 3525 
L 1625 2350 
Q 1750 2425 2200 2625 
Q 2200 2300 2225 2150 
Q 1775 1950 1625 1875 
L 1625 75 
Q 1625 -275 1425 -425 
Q 1225 -575 650 -625 
Q 650 -450 450 -25 
Q 950 -100 1050 -25 
Q 1150 50 1175 275 
L 1175 1700 
Q 975 1625 450 1325 
Q 325 1700 225 1875 
Q 850 2025 1175 2175 
L 1175 3525 
L 1000 3525 
Q 650 3525 300 3500 
L 300 4000 
Q 675 3950 1000 3950 
L 1175 3950 
z
M 4775 4100 
Q 5200 3875 5350 3825 
Q 5200 3700 4925 2950 
L 5425 2950 
Q 5825 2975 5950 3000 
L 5950 2525 
Q 5775 2550 5475 2550 
L 3025 2550 
Q 2850 2550 2450 2525 
L 2450 3000 
Q 2825 2975 2975 2950 
L 4450 2950 
Q 4700 3625 4775 4100 
z
M 3950 4575 
Q 3850 5000 3775 5150 
Q 4125 5225 4300 5275 
L 4500 4575 
L 5350 4575 
Q 5700 4600 5950 4600 
L 5950 4150 
Q 5675 4175 5375 4175 
L 3175 4175 
Q 2775 4175 2500 4150 
L 2500 4600 
Q 2750 4575 3100 4575 
L 3950 4575 
z
M 3475 1000 
Q 4050 800 4300 650 
Q 4625 1125 4750 1500 
L 3800 1500 
Q 3575 1175 3475 1000 
z
M 3425 3950 
Q 3725 3450 3850 3200 
Q 3450 3075 3350 3000 
Q 3150 3475 2975 3700 
Q 3250 3825 3425 3950 
z
" transform="scale(0.015625)"/>
      <path id="SimHei-51fd" d="M 1200 200 
L 5200 200 
L 5200 2225 
Q 5200 2600 5150 3075 
L 5700 3075 
Q 5675 2500 5675 2225 
L 5675 50 
Q 5675 -275 5700 -625 
L 5200 -625 
L 5200 -225 
L 700 -225 
Q 725 50 725 1375 
Q 725 2700 700 3075 
L 1225 3075 
Q 1200 2800 1200 2475 
L 1200 200 
z
M 5450 4925 
L 5450 4450 
Q 5075 4325 4475 4037 
Q 3875 3750 3475 3575 
L 3475 1100 
Q 3475 700 3200 587 
Q 2925 475 2525 400 
Q 2475 675 2350 950 
Q 2750 950 2887 1000 
Q 3025 1050 3025 1375 
L 3025 3075 
Q 3025 3550 2975 3850 
Q 3225 3925 3700 4125 
Q 4175 4325 4500 4500 
L 1950 4500 
Q 1425 4500 1025 4475 
L 1025 4950 
Q 1525 4925 1950 4925 
L 5450 4925 
z
M 4500 1750 
Q 4700 1575 5000 1275 
Q 4825 1125 4650 900 
Q 4400 1175 4200 1375 
Q 4000 1575 3600 1925 
Q 3775 2100 3900 2275 
L 4500 1750 
z
M 2700 1800 
Q 2525 1675 2237 1487 
Q 1950 1300 1600 1000 
Q 1525 1175 1325 1425 
Q 1500 1500 1887 1737 
Q 2275 1975 2550 2225 
Q 2600 2025 2700 1800 
z
M 4975 3175 
Q 4800 3100 4562 2912 
Q 4325 2725 4000 2475 
Q 3875 2700 3750 2850 
Q 4025 3050 4200 3200 
Q 4375 3350 4600 3575 
Q 4775 3375 4975 3175 
z
M 2350 2550 
Q 2200 2750 2000 2937 
Q 1800 3125 1475 3350 
Q 1650 3525 1750 3700 
Q 2025 3500 2650 2950 
Q 2475 2725 2350 2550 
z
" transform="scale(0.015625)"/>
      <path id="SimHei-6570" d="M 4525 4925 
Q 4475 4800 4400 4587 
Q 4325 4375 4175 3825 
L 5325 3825 
Q 5575 3825 5925 3850 
L 5925 3400 
Q 5650 3425 5500 3425 
Q 5500 3025 5362 2162 
Q 5225 1300 4875 675 
Q 5125 375 5437 137 
Q 5750 -100 6025 -200 
Q 5725 -425 5625 -625 
Q 5325 -450 5075 -225 
Q 4825 0 4575 325 
Q 4300 25 3987 -187 
Q 3675 -400 3200 -650 
Q 3075 -425 2850 -300 
Q 3225 -150 3650 125 
Q 4075 400 4300 675 
Q 4125 1025 3962 1425 
Q 3800 1825 3675 2475 
Q 3600 2275 3425 1950 
Q 3250 2050 3000 2150 
Q 3400 2850 3650 3675 
Q 3900 4500 3975 5100 
Q 4275 4975 4525 4925 
z
M 2100 2250 
Q 2000 2150 1875 1925 
L 3250 1925 
Q 3100 1300 2725 675 
Q 3125 525 3350 400 
Q 3225 225 3125 25 
Q 2900 175 2450 325 
Q 1950 -225 725 -650 
Q 600 -375 400 -275 
Q 1575 0 2000 475 
Q 1300 650 850 775 
Q 1000 1000 1250 1525 
Q 1000 1525 425 1500 
L 425 1950 
Q 900 1925 1400 1925 
Q 1500 2150 1550 2425 
Q 1825 2325 2100 2250 
z
M 1775 3950 
Q 1775 4550 1750 5100 
L 2250 5100 
Q 2225 4575 2225 3950 
Q 3075 3950 3425 3975 
L 3425 3525 
Q 3075 3550 2225 3550 
Q 2225 2825 2250 2425 
L 1750 2425 
Q 1775 2775 1775 3300 
Q 1650 3100 1300 2787 
Q 950 2475 650 2300 
Q 525 2525 275 2625 
Q 500 2700 875 2975 
Q 1250 3250 1450 3550 
Q 950 3550 500 3525 
L 500 3975 
Q 925 3950 1775 3950 
z
M 3975 3175 
Q 4200 1700 4600 1125 
Q 4850 1700 4937 2287 
Q 5025 2875 5050 3425 
L 4075 3425 
L 3975 3175 
z
M 1450 1000 
Q 1750 925 2275 800 
Q 2475 1050 2650 1525 
L 1725 1525 
Q 1600 1275 1450 1000 
z
M 3325 4825 
Q 3200 4625 3125 4450 
Q 3050 4275 2925 4025 
Q 2725 4125 2525 4175 
Q 2725 4500 2900 5000 
Q 3150 4875 3325 4825 
z
M 2575 3375 
Q 2900 3050 3200 2725 
Q 3050 2600 2875 2425 
Q 2525 2850 2300 3100 
Q 2450 3225 2575 3375 
z
M 925 5000 
Q 1275 4650 1500 4300 
L 1125 4075 
Q 950 4425 600 4725 
Q 825 4875 925 5000 
z
" transform="scale(0.015625)"/>
     </defs>
     <use xlink:href="#SimHei-8fde"/>
     <use xlink:href="#SimHei-63a5" transform="translate(100 0)"/>
     <use xlink:href="#SimHei-51fd" transform="translate(200 0)"/>
     <use xlink:href="#SimHei-6570" transform="translate(300 0)"/>
    </g>
   </g>
   <g id="text_3">
    <!-- 分布参数 -->
    <g style="fill: #333333" transform="translate(382.508683 33.060318) scale(0.105 -0.105)">
     <defs>
      <path id="SimHei-5206" d="M 1000 -650 
Q 825 -375 575 -225 
Q 975 -75 1300 137 
Q 1625 350 1875 662 
Q 2125 975 2250 1350 
Q 2375 1725 2425 2275 
Q 1850 2275 1500 2250 
L 1500 2775 
Q 1900 2750 2525 2750 
L 5025 2750 
Q 4975 2375 4950 2100 
L 4750 250 
Q 4700 -200 4350 -350 
Q 4000 -500 3575 -525 
Q 3550 -275 3325 50 
Q 3850 25 4037 87 
Q 4225 150 4275 525 
L 4450 2275 
L 2950 2275 
Q 2875 1625 2737 1187 
Q 2600 750 2350 425 
Q 2100 100 1750 -175 
Q 1400 -450 1000 -650 
z
M 3950 5175 
Q 4125 4650 4662 3975 
Q 5200 3300 6175 2800 
Q 5975 2625 5775 2275 
Q 5325 2600 4987 2887 
Q 4650 3175 4425 3425 
Q 4200 3675 3925 4137 
Q 3650 4600 3475 5000 
Q 3750 5075 3950 5175 
z
M 2700 4825 
Q 2475 4425 2325 4125 
Q 2175 3825 2025 3587 
Q 1875 3350 1575 2950 
Q 1275 2550 850 2125 
Q 625 2350 400 2475 
Q 900 2925 1187 3300 
Q 1475 3675 1737 4112 
Q 2000 4550 2200 5075 
Q 2400 4925 2700 4825 
z
" transform="scale(0.015625)"/>
      <path id="SimHei-5e03" d="M 2375 4225 
Q 2650 4775 2775 5300 
Q 3125 5175 3400 5075 
Q 3275 4975 2950 4225 
L 4800 4225 
Q 5550 4225 6025 4250 
L 6025 3800 
L 2725 3800 
Q 2325 3100 1975 2675 
L 3275 2675 
Q 3275 3225 3250 3575 
L 3775 3575 
Q 3750 3225 3750 2675 
L 5500 2675 
Q 5475 2225 5475 1775 
L 5475 750 
Q 5475 275 5212 150 
Q 4950 25 4450 -25 
Q 4400 325 4225 550 
Q 4800 550 4912 625 
Q 5025 700 5000 1025 
L 5000 2250 
L 3750 2250 
L 3750 550 
Q 3750 25 3775 -600 
L 3250 -600 
Q 3275 25 3275 550 
L 3275 2250 
L 2100 2250 
L 2100 0 
L 1600 0 
Q 1625 525 1625 1025 
L 1625 2225 
Q 1300 1850 650 1275 
Q 475 1475 200 1650 
Q 750 2025 1262 2562 
Q 1775 3100 2150 3800 
L 1550 3800 
Q 925 3800 400 3775 
L 400 4250 
Q 925 4225 1550 4225 
L 2375 4225 
z
" transform="scale(0.015625)"/>
      <path id="SimHei-53c2" d="M 3325 4850 
Q 3100 4725 2850 4500 
Q 2600 4275 2175 3925 
Q 2850 3950 3275 3950 
Q 3700 3950 4200 3975 
Q 3950 4200 3600 4450 
Q 3800 4625 3925 4775 
Q 4900 4100 5325 3675 
Q 5100 3475 4925 3300 
Q 4750 3475 4550 3625 
Q 3625 3600 3200 3575 
Q 3025 3250 2925 3125 
L 5075 3125 
Q 5575 3125 5950 3150 
L 5950 2700 
Q 5600 2725 5075 2725 
L 4325 2725 
Q 4675 2350 5187 2075 
Q 5700 1800 6150 1700 
Q 5850 1550 5675 1225 
Q 5100 1525 4612 1900 
Q 4125 2275 3800 2725 
L 2725 2725 
Q 2325 2300 1812 1962 
Q 1300 1625 650 1325 
Q 525 1525 250 1700 
Q 725 1825 1237 2100 
Q 1750 2375 2100 2725 
L 1475 2725 
Q 950 2725 375 2700 
L 375 3150 
Q 875 3125 1475 3125 
L 2400 3125 
L 2550 3350 
L 2650 3550 
Q 1925 3500 1775 3475 
Q 1625 3450 1500 3425 
Q 1375 3725 1300 3875 
Q 1600 3950 2050 4337 
Q 2500 4725 2825 5225 
Q 3025 5050 3325 4850 
z
M 5350 800 
Q 5025 650 4612 437 
Q 4200 225 3850 75 
Q 3500 -75 3062 -212 
Q 2625 -350 2150 -450 
Q 1675 -550 1225 -600 
Q 1150 -350 900 -150 
Q 1675 -125 2362 25 
Q 3050 175 3512 387 
Q 3975 600 4312 800 
Q 4650 1000 4900 1250 
Q 5100 1025 5350 800 
z
M 4550 1450 
Q 4350 1375 4037 1200 
Q 3725 1025 3350 862 
Q 2975 700 2512 550 
Q 2050 400 1575 325 
Q 1450 575 1250 775 
Q 1775 800 2175 900 
Q 2575 1000 3075 1212 
Q 3575 1425 4125 1850 
Q 4300 1675 4550 1450 
z
M 3900 2075 
Q 3575 1950 3350 1825 
Q 3125 1700 2687 1525 
Q 2250 1350 1750 1200 
Q 1625 1425 1450 1600 
Q 2025 1700 2587 1937 
Q 3150 2175 3500 2500 
Q 3700 2275 3900 2075 
z
" transform="scale(0.015625)"/>
     </defs>
     <use xlink:href="#SimHei-5206"/>
     <use xlink:href="#SimHei-5e03" transform="translate(100 0)"/>
     <use xlink:href="#SimHei-53c2" transform="translate(200 0)"/>
     <use xlink:href="#SimHei-6570" transform="translate(300 0)"/>
    </g>
   </g>
   <g id="text_4">
    <!-- $\eta_i = x_i^\top \beta$ -->
    <g style="fill: #222222" transform="translate(41.846439 81.203246) scale(0.08 -0.08)">
     <defs>
      <path id="DejaVuSans-Oblique-3b7" d="M 3703 2113 
L 3034 -1331 
L 2459 -1331 
L 3125 2094 
Q 3222 2591 3075 2838 
Q 2931 3084 2544 3084 
Q 2078 3084 1750 2788 
Q 1425 2491 1325 1978 
L 941 0 
L 363 0 
L 1044 3500 
L 1622 3500 
L 1516 2956 
Q 1781 3272 2094 3428 
Q 2403 3584 2769 3584 
Q 3372 3584 3609 3213 
Q 3844 2838 3703 2113 
z
" transform="scale(0.015625)"/>
      <path id="DejaVuSans-Oblique-69" d="M 1172 4863 
L 1747 4863 
L 1606 4134 
L 1031 4134 
L 1172 4863 
z
M 909 3500 
L 1484 3500 
L 800 0 
L 225 0 
L 909 3500 
z
" transform="scale(0.015625)"/>
      <path id="DejaVuSans-3d" d="M 678 2906 
L 4684 2906 
L 4684 2381 
L 678 2381 
L 678 2906 
z
M 678 1631 
L 4684 1631 
L 4684 1100 
L 678 1100 
L 678 1631 
z
" transform="scale(0.015625)"/>
      <path id="DejaVuSans-Oblique-78" d="M 3841 3500 
L 2234 1784 
L 3219 0 
L 2559 0 
L 1819 1388 
L 531 0 
L -166 0 
L 1556 1844 
L 641 3500 
L 1300 3500 
L 1972 2234 
L 3144 3500 
L 3841 3500 
z
" transform="scale(0.015625)"/>
      <path id="DejaVuSans-22a4" d="M 5028 4481 
L 5028 4084 
L 2988 4084 
L 2988 0 
L 2588 0 
L 2588 4084 
L 547 4084 
L 547 4481 
L 5028 4481 
z
" transform="scale(0.015625)"/>
      <path id="DejaVuSans-Oblique-3b2" d="M 872 216 
L 572 -1331 
L -6 -1331 
L 928 3478 
Q 1206 4903 2538 4903 
Q 3888 4903 3659 3700 
Q 3503 2844 2894 2531 
Q 3713 2250 3553 1416 
Q 3272 -69 1759 -66 
Q 1097 -63 872 216 
z
M 1019 966 
Q 1259 422 1875 425 
Q 2775 425 2966 1406 
Q 3138 2288 1675 2219 
L 1778 2750 
Q 2909 2731 3106 3750 
Q 3241 4438 2509 4434 
Q 1691 4434 1503 3459 
L 1019 966 
z
" transform="scale(0.015625)"/>
     </defs>
     <use xlink:href="#DejaVuSans-Oblique-3b7" transform="translate(0 0.64375)"/>
     <use xlink:href="#DejaVuSans-Oblique-69" transform="translate(63.378906 -15.7625) scale(0.7)"/>
     <use xlink:href="#DejaVuSans-3d" transform="translate(105.043945 0.64375)"/>
     <use xlink:href="#DejaVuSans-Oblique-78" transform="translate(208.31543 0.64375)"/>
     <use xlink:href="#DejaVuSans-22a4" transform="translate(285.598958 38.989063) scale(0.7)"/>
     <use xlink:href="#DejaVuSans-Oblique-69" transform="translate(267.495117 -26.7) scale(0.7)"/>
     <use xlink:href="#DejaVuSans-Oblique-3b2" transform="translate(362.947591 0.64375)"/>
    </g>
    <!-- $\eta_i \in (-\infty, +\infty)$ -->
    <g style="fill: #222222" transform="translate(30.326439 90.860846) scale(0.08 -0.08)">
     <defs>
      <path id="DejaVuSans-2208" d="M 1072 1959 
Q 1094 1728 1291 1353 
Q 1522 919 1959 675 
Q 2388 438 2850 434 
L 5028 434 
L 5028 -63 
L 2850 -63 
Q 2250 -63 1695 246 
Q 1141 556 844 1106 
Q 547 1656 547 2241 
Q 547 2819 844 3369 
Q 1141 3919 1695 4231 
Q 2250 4544 2850 4544 
L 5028 4544 
L 5028 4047 
L 2850 4047 
Q 2388 4044 1959 3803 
Q 1525 3556 1291 3125 
Q 1091 2750 1063 2459 
L 5028 2459 
L 5028 1959 
L 1072 1959 
z
" transform="scale(0.015625)"/>
      <path id="DejaVuSans-28" d="M 1984 4856 
Q 1566 4138 1362 3434 
Q 1159 2731 1159 2009 
Q 1159 1288 1364 580 
Q 1569 -128 1984 -844 
L 1484 -844 
Q 1016 -109 783 600 
Q 550 1309 550 2009 
Q 550 2706 781 3412 
Q 1013 4119 1484 4856 
L 1984 4856 
z
" transform="scale(0.015625)"/>
      <path id="DejaVuSans-2212" d="M 678 2272 
L 4684 2272 
L 4684 1741 
L 678 1741 
L 678 2272 
z
" transform="scale(0.015625)"/>
      <path id="DejaVuSans-221e" d="M 2916 1091 
Q 2819 1203 2666 1466 
Q 2456 1091 2272 925 
Q 2041 725 1681 725 
Q 1259 725 981 1041 
Q 688 1372 688 1919 
Q 688 2444 981 2800 
Q 1244 3116 1688 3116 
Q 1916 3116 2084 3022 
Q 2281 2919 2416 2741 
Q 2541 2581 2666 2366 
Q 2875 2741 3059 2906 
Q 3291 3106 3650 3106 
Q 4072 3106 4350 2791 
Q 4644 2459 4644 1913 
Q 4644 1388 4350 1031 
Q 4088 716 3644 716 
Q 3416 716 3247 809 
Q 3078 894 2916 1091 
z
M 1647 1134 
Q 2163 1134 2472 1884 
Q 2075 2703 1647 2703 
Q 1334 2703 1175 2478 
Q 1003 2238 1003 1919 
Q 1003 1569 1175 1353 
Q 1350 1134 1647 1134 
z
M 3684 2697 
Q 3219 2697 2859 1947 
Q 3253 1128 3684 1128 
Q 3997 1128 4156 1353 
Q 4328 1594 4328 1913 
Q 4328 2263 4156 2478 
Q 3981 2697 3684 2697 
z
" transform="scale(0.015625)"/>
      <path id="DejaVuSans-2c" d="M 750 794 
L 1409 794 
L 1409 256 
L 897 -744 
L 494 -744 
L 750 256 
L 750 794 
z
" transform="scale(0.015625)"/>
      <path id="DejaVuSans-2b" d="M 2944 4013 
L 2944 2272 
L 4684 2272 
L 4684 1741 
L 2944 1741 
L 2944 0 
L 2419 0 
L 2419 1741 
L 678 1741 
L 678 2272 
L 2419 2272 
L 2419 4013 
L 2944 4013 
z
" transform="scale(0.015625)"/>
      <path id="DejaVuSans-29" d="M 513 4856 
L 1013 4856 
Q 1481 4119 1714 3412 
Q 1947 2706 1947 2009 
Q 1947 1309 1714 600 
Q 1481 -109 1013 -844 
L 513 -844 
Q 928 -128 1133 580 
Q 1338 1288 1338 2009 
Q 1338 2731 1133 3434 
Q 928 4138 513 4856 
z
" transform="scale(0.015625)"/>
     </defs>
     <use xlink:href="#DejaVuSans-Oblique-3b7" transform="translate(0 0.125)"/>
     <use xlink:href="#DejaVuSans-Oblique-69" transform="translate(63.378906 -16.28125) scale(0.7)"/>
     <use xlink:href="#DejaVuSans-2208" transform="translate(105.043945 0.125)"/>
     <use xlink:href="#DejaVuSans-28" transform="translate(211.635742 0.125)"/>
     <use xlink:href="#DejaVuSans-2212" transform="translate(250.649414 0.125)"/>
     <use xlink:href="#DejaVuSans-221e" transform="translate(334.438477 0.125)"/>
     <use xlink:href="#DejaVuSans-2c" transform="translate(417.739258 0.125)"/>
     <use xlink:href="#DejaVuSans-2b" transform="translate(488.491211 0.125)"/>
     <use xlink:href="#DejaVuSans-221e" transform="translate(591.762695 0.125)"/>
     <use xlink:href="#DejaVuSans-29" transform="translate(675.063477 0.125)"/>
    </g>
   </g>
   <g id="patch_11">
    <path d="M 112.705171 83.352046 
Q 142.83122 83.352046 171.056611 83.352046 
" style="fill: none; stroke: #2c6bac; stroke-width: 1.7; stroke-linecap: round"/>
    <path d="M 165.856611 80.752046 
L 171.056611 83.352046 
L 165.856611 85.952046 
" style="fill: none; stroke: #2c6bac; stroke-width: 1.7; stroke-linecap: round"/>
   </g>
   <g id="text_5">
    <!-- 恒等 -->
    <g style="fill: #2c6bac" transform="translate(226.70322 81.506371) scale(0.08 -0.08)">
     <defs>
      <path id="SimHei-6052" d="M 5650 3725 
Q 5625 3150 5625 2225 
Q 5625 1300 5650 675 
L 5150 675 
L 5150 975 
L 3300 975 
L 3300 600 
L 2825 600 
Q 2850 1175 2850 2225 
Q 2850 3275 2825 3725 
L 5650 3725 
z
M 1725 5150 
Q 1700 4700 1700 4325 
L 1700 525 
Q 1700 0 1725 -500 
L 1225 -500 
Q 1250 0 1250 525 
L 1250 4250 
Q 1250 4650 1225 5150 
L 1725 5150 
z
M 5325 175 
Q 5725 175 6100 200 
L 6100 -250 
Q 5725 -225 5325 -225 
L 3175 -225 
Q 2725 -225 2275 -250 
L 2275 200 
Q 2750 175 3175 175 
L 5325 175 
z
M 5150 2525 
L 5150 3350 
L 3300 3350 
L 3300 2525 
L 5150 2525 
z
M 5150 1350 
L 5150 2150 
L 3300 2150 
L 3300 1350 
L 5150 1350 
z
M 5025 4825 
Q 5350 4825 5950 4875 
L 5950 4400 
Q 5350 4425 5050 4425 
L 3400 4425 
Q 3125 4425 2550 4400 
L 2550 4875 
Q 3100 4825 3400 4825 
L 5025 4825 
z
M 975 3725 
Q 850 2825 775 2125 
Q 500 2175 300 2200 
Q 375 2550 500 3825 
Q 700 3800 975 3725 
z
M 2300 3950 
Q 2450 3325 2575 2900 
Q 2350 2850 2150 2750 
Q 2075 3250 1900 3825 
Q 2050 3875 2300 3950 
z
" transform="scale(0.015625)"/>
      <path id="SimHei-7b49" d="M 2925 3450 
Q 2925 3625 2900 3950 
L 3450 3950 
Q 3425 3625 3425 3450 
L 4475 3450 
Q 4850 3450 5350 3475 
L 5350 3050 
Q 4875 3075 4500 3075 
L 3425 3075 
L 3425 2400 
L 5225 2400 
Q 5625 2400 6125 2425 
L 6125 1975 
Q 5650 2000 5225 2000 
L 4700 2000 
L 4700 1350 
Q 5325 1350 5750 1375 
L 5750 925 
Q 5250 950 4700 950 
L 4700 125 
Q 4725 -325 4437 -437 
Q 4150 -550 3550 -625 
Q 3500 -325 3350 -75 
Q 3775 -100 3975 -75 
Q 4175 -50 4175 275 
L 4175 950 
L 1550 950 
Q 1225 950 700 925 
L 700 1375 
Q 1200 1350 1650 1350 
L 4175 1350 
L 4175 2000 
L 1075 2000 
Q 750 2000 200 1975 
L 200 2425 
Q 750 2400 1075 2400 
L 2925 2400 
L 2925 3075 
L 1925 3075 
Q 1575 3075 1050 3050 
L 1050 3475 
Q 1725 3450 1925 3450 
L 2925 3450 
z
M 1825 5100 
Q 1675 5000 1500 4725 
L 2400 4725 
Q 2925 4725 3275 4750 
L 3275 4350 
Q 3000 4375 2575 4375 
L 2275 4375 
Q 2400 4175 2575 3850 
Q 2275 3750 2025 3675 
Q 2025 3725 1775 4375 
L 1325 4375 
Q 1125 4075 750 3625 
Q 525 3800 275 3900 
Q 625 4175 850 4525 
Q 1075 4875 1250 5300 
Q 1550 5175 1825 5100 
z
M 3700 3875 
Q 3500 4000 3225 4075 
Q 3475 4275 3650 4575 
Q 3825 4875 3975 5250 
Q 4250 5150 4550 5050 
Q 4350 4875 4250 4700 
L 5275 4700 
Q 5450 4700 6125 4725 
L 6125 4325 
Q 5650 4350 5200 4350 
Q 5475 3900 5600 3725 
Q 5250 3650 5025 3575 
Q 4975 3800 4700 4350 
L 4050 4350 
Q 3925 4150 3700 3875 
z
M 2575 75 
Q 2350 -50 2125 -200 
Q 1900 225 1525 625 
Q 1700 725 1925 900 
Q 2300 500 2575 75 
z
" transform="scale(0.015625)"/>
     </defs>
     <use xlink:href="#SimHei-6052"/>
     <use xlink:href="#SimHei-7b49" transform="translate(100 0)"/>
    </g>
    <!-- $h(\eta) = \eta$ -->
    <g style="fill: #2c6bac" transform="translate(219.06322 89.923971) scale(0.08 -0.08)">
     <defs>
      <path id="DejaVuSans-Oblique-68" d="M 3566 2113 
L 3156 0 
L 2578 0 
L 2988 2091 
Q 3016 2238 3031 2350 
Q 3047 2463 3047 2528 
Q 3047 2791 2881 2937 
Q 2716 3084 2419 3084 
Q 1956 3084 1617 2771 
Q 1278 2459 1178 1941 
L 800 0 
L 225 0 
L 1172 4863 
L 1747 4863 
L 1375 2950 
Q 1594 3244 1934 3414 
Q 2275 3584 2650 3584 
Q 3113 3584 3367 3334 
Q 3622 3084 3622 2631 
Q 3622 2519 3608 2391 
Q 3594 2263 3566 2113 
z
" transform="scale(0.015625)"/>
     </defs>
     <use xlink:href="#DejaVuSans-Oblique-68" transform="translate(0 0.015625)"/>
     <use xlink:href="#DejaVuSans-28" transform="translate(63.378906 0.015625)"/>
     <use xlink:href="#DejaVuSans-Oblique-3b7" transform="translate(102.392578 0.015625)"/>
     <use xlink:href="#DejaVuSans-29" transform="translate(165.771484 0.015625)"/>
     <use xlink:href="#DejaVuSans-3d" transform="translate(224.267578 0.015625)"/>
     <use xlink:href="#DejaVuSans-Oblique-3b7" transform="translate(327.539062 0.015625)"/>
    </g>
   </g>
   <g id="patch_12">
    <path d="M 296.449171 83.352046 
Q 323.089561 83.352046 347.829293 83.352046 
" style="fill: none; stroke: #2c6bac; stroke-width: 1.7; stroke-linecap: round"/>
    <path d="M 342.629293 80.752046 
L 347.829293 83.352046 
L 342.629293 85.952046 
" style="fill: none; stroke: #2c6bac; stroke-width: 1.7; stroke-linecap: round"/>
   </g>
   <g id="text_6">
    <!-- $\mu_i \in \mathbb{R}$ -->
    <g style="fill: #222222" transform="translate(392.268683 81.001421) scale(0.08 -0.08)">
     <defs>
      <path id="DejaVuSans-Oblique-3bc" d="M -84 -1331 
L 856 3500 
L 1434 3500 
L 1009 1322 
Q 997 1256 987 1175 
Q 978 1094 978 1013 
Q 978 722 1161 565 
Q 1344 409 1684 409 
Q 2147 409 2431 671 
Q 2716 934 2816 1459 
L 3213 3500 
L 3788 3500 
L 3266 809 
Q 3253 750 3248 706 
Q 3244 663 3244 628 
Q 3244 531 3283 486 
Q 3322 441 3406 441 
Q 3438 441 3492 456 
Q 3547 472 3647 513 
L 3559 50 
Q 3422 -19 3297 -55 
Q 3172 -91 3053 -91 
Q 2847 -91 2730 40 
Q 2613 172 2613 403 
Q 2438 153 2195 31 
Q 1953 -91 1625 -91 
Q 1334 -91 1117 43 
Q 900 178 831 397 
L 494 -1331 
L -84 -1331 
z
" transform="scale(0.015625)"/>
      <path id="STIXGeneral-Italic-211d" d="M 1229 4179 
L 3360 4179 
Q 3827 4179 4108 3894 
Q 4390 3610 4390 3142 
Q 4390 2554 4060 2186 
Q 3731 1818 3149 1715 
L 4026 0 
L 2925 0 
L 2125 1690 
L 1549 1690 
L 1094 0 
L 109 0 
L 1229 4179 
z
M 3866 3821 
L 3392 2022 
Q 3770 2144 3962 2438 
Q 4154 2733 4154 3136 
Q 4154 3584 3866 3821 
z
M 3142 1978 
L 3648 3872 
Q 3450 3942 3296 3942 
L 2150 3942 
L 1613 1926 
L 2630 1926 
Q 2957 1926 3142 1978 
z
M 3629 237 
L 2899 1696 
Q 2829 1683 2682 1683 
Q 2630 1683 2531 1686 
Q 2432 1690 2387 1690 
L 3072 237 
L 3629 237 
z
M 1907 3942 
L 1408 3942 
L 416 237 
L 915 237 
L 1907 3942 
z
" transform="scale(0.015625)"/>
     </defs>
     <use xlink:href="#DejaVuSans-Oblique-3bc"/>
     <use xlink:href="#DejaVuSans-Oblique-69" transform="translate(63.623047 -16.40625) scale(0.7)"/>
     <use xlink:href="#DejaVuSans-2208" transform="translate(105.288086 0)"/>
     <use xlink:href="#STIXGeneral-Italic-211d" transform="translate(211.879883 0)"/>
    </g>
    <!-- 正态均值 -->
    <g style="fill: #222222" transform="translate(387.508683 90.382671) scale(0.08 -0.08)">
     <defs>
      <path id="SimHei-6b63" d="M 4825 4625 
Q 5300 4625 5675 4650 
L 5675 4150 
Q 5300 4175 4775 4175 
L 3575 4175 
L 3575 2600 
L 4850 2600 
Q 5250 2600 5550 2625 
L 5550 2150 
Q 5250 2175 4850 2175 
L 3575 2175 
L 3575 150 
L 4850 150 
Q 5375 150 5900 175 
L 5900 -325 
Q 5375 -300 4975 -300 
L 1175 -300 
Q 700 -300 375 -325 
L 375 175 
Q 700 150 1175 150 
L 1325 150 
L 1325 2350 
Q 1325 2800 1300 3125 
L 1875 3125 
Q 1850 2825 1850 2350 
L 1850 150 
L 3075 150 
L 3075 4175 
L 1625 4175 
Q 1150 4175 800 4150 
L 800 4650 
Q 1150 4625 1625 4625 
L 4825 4625 
z
" transform="scale(0.015625)"/>
      <path id="SimHei-6001" d="M 2575 4325 
Q 2700 4800 2725 5250 
Q 3075 5125 3350 5100 
Q 3225 4875 3100 4325 
L 5025 4325 
Q 5375 4325 5825 4375 
L 5825 3850 
Q 5350 3875 5000 3875 
L 3975 3875 
Q 4225 3300 4575 2987 
Q 4925 2675 5250 2525 
Q 5575 2375 6100 2275 
Q 5800 2075 5675 1775 
Q 4900 2100 4525 2412 
Q 4150 2725 3900 3075 
Q 3650 3425 3500 3875 
L 2975 3875 
Q 2675 3200 2187 2687 
Q 1700 2175 725 1625 
Q 650 1850 300 2075 
Q 900 2275 1512 2750 
Q 2125 3225 2425 3875 
L 1300 3875 
Q 900 3875 450 3850 
L 450 4375 
Q 875 4325 1300 4325 
L 2575 4325 
z
M 2525 1350 
Q 2500 875 2500 575 
Q 2500 300 2512 150 
Q 2525 0 2800 0 
L 3825 0 
Q 4025 -25 4175 62 
Q 4325 150 4400 625 
Q 4650 450 4975 375 
Q 4775 -150 4625 -312 
Q 4475 -475 4000 -450 
L 2500 -450 
Q 2050 -400 2012 -162 
Q 1975 75 1975 425 
Q 1975 800 1950 1350 
L 2525 1350 
z
M 1425 1175 
Q 1175 450 825 -325 
Q 625 -175 325 -125 
Q 775 625 875 1375 
Q 1175 1250 1425 1175 
z
M 5175 1525 
Q 5600 950 6050 350 
Q 5800 175 5600 0 
Q 5225 700 4750 1250 
Q 5000 1350 5175 1525 
z
M 2700 3050 
Q 3175 2675 3500 2325 
Q 3275 2175 3100 1975 
Q 2825 2350 2350 2700 
L 2700 3050 
z
M 3375 1750 
Q 3625 1350 3825 925 
Q 3625 800 3375 675 
Q 3200 1175 2950 1525 
Q 3175 1600 3375 1750 
z
" transform="scale(0.015625)"/>
      <path id="SimHei-5747" d="M 5775 275 
Q 5775 -325 5362 -450 
Q 4950 -575 4425 -600 
Q 4375 -275 4250 25 
Q 4950 -25 5125 62 
Q 5300 150 5300 500 
L 5375 3700 
L 3550 3700 
Q 3425 3375 3262 3037 
Q 3100 2700 2925 2400 
Q 2675 2550 2475 2625 
Q 3150 3625 3500 5200 
Q 3800 5100 4075 5025 
Q 3975 4875 3875 4650 
Q 3775 4425 3675 4125 
L 5900 4125 
L 5775 275 
z
M 1250 3625 
L 1250 4375 
Q 1250 4775 1225 5100 
L 1775 5100 
Q 1750 4725 1750 4375 
L 1750 3625 
L 1900 3625 
Q 2200 3625 2525 3650 
L 2525 3150 
Q 2200 3175 1900 3175 
L 1750 3175 
L 1750 1100 
L 2500 1375 
Q 2475 1125 2525 900 
Q 1225 475 962 362 
Q 700 250 475 150 
Q 375 475 250 750 
Q 575 800 800 850 
Q 1025 900 1250 975 
L 1250 3175 
L 1125 3175 
Q 850 3175 400 3150 
L 400 3650 
Q 850 3625 1100 3625 
L 1250 3625 
z
M 4950 1625 
Q 4675 1425 4137 1050 
Q 3600 675 3175 300 
Q 3000 575 2850 775 
Q 3350 1050 3762 1325 
Q 4175 1600 4775 2075 
Q 4825 1850 4950 1625 
z
M 3775 3150 
Q 4125 2800 4475 2300 
Q 4250 2125 4100 1975 
Q 3900 2325 3450 2825 
Q 3600 3000 3775 3150 
z
" transform="scale(0.015625)"/>
      <path id="SimHei-503c" d="M 3675 4450 
L 3675 5100 
Q 3975 5075 4350 5050 
Q 4225 4875 4200 4450 
L 5125 4450 
Q 5550 4450 5875 4475 
L 5875 4025 
Q 5525 4050 5125 4050 
L 4175 4050 
L 4125 3500 
L 5400 3500 
Q 5375 3200 5375 2700 
L 5375 150 
Q 5875 150 6100 175 
L 6100 -275 
Q 5775 -250 5200 -250 
L 2850 -250 
Q 2275 -250 1900 -275 
L 1900 175 
Q 2125 150 2600 150 
L 2600 2700 
Q 2600 3175 2575 3500 
L 3600 3500 
L 3650 4050 
L 3200 4050 
Q 2575 4050 2225 4025 
L 2225 4475 
Q 2550 4450 3200 4450 
L 3675 4450 
z
M 2225 4900 
Q 2025 4675 1650 3750 
L 1650 450 
Q 1650 -75 1675 -550 
L 1150 -550 
Q 1175 -125 1175 375 
L 1175 2950 
Q 875 2450 625 2150 
Q 425 2425 250 2575 
Q 500 2825 937 3537 
Q 1375 4250 1625 5150 
Q 1975 4975 2225 4900 
z
M 4925 2650 
L 4925 3150 
L 3075 3150 
L 3075 2650 
L 4925 2650 
z
M 4925 150 
L 4925 625 
L 3075 625 
L 3075 150 
L 4925 150 
z
M 4925 1000 
L 4925 1450 
L 3075 1450 
L 3075 1000 
L 4925 1000 
z
M 4925 1825 
L 4925 2275 
L 3075 2275 
L 3075 1825 
L 4925 1825 
z
" transform="scale(0.015625)"/>
     </defs>
     <use xlink:href="#SimHei-6b63"/>
     <use xlink:href="#SimHei-6001" transform="translate(100 0)"/>
     <use xlink:href="#SimHei-5747" transform="translate(200 0)"/>
     <use xlink:href="#SimHei-503c" transform="translate(300 0)"/>
    </g>
   </g>
   <g id="text_7">
    <!-- 正态线性模型 -->
    <g style="fill: #2c6bac" transform="translate(453.31122 86.033296) scale(0.078 -0.078)">
     <defs>
      <path id="SimHei-6a21" d="M 5700 3675 
Q 5675 3400 5675 2725 
Q 5675 2050 5700 1725 
L 4375 1725 
Q 4350 1450 4325 1200 
L 5225 1200 
Q 5750 1200 6025 1225 
L 6025 825 
Q 5725 850 5225 850 
L 4700 850 
Q 5075 375 5437 137 
Q 5800 -100 6200 -200 
Q 5975 -375 5850 -625 
Q 5275 -400 4862 25 
Q 4450 450 4300 775 
L 4225 775 
Q 4000 275 3537 -62 
Q 3075 -400 2475 -625 
Q 2350 -375 2125 -200 
Q 2775 -75 3200 200 
Q 3625 475 3775 850 
L 3325 850 
Q 2800 850 2400 825 
L 2400 1225 
Q 2800 1200 3350 1200 
L 3875 1200 
Q 3925 1475 3925 1725 
L 2750 1725 
Q 2775 2075 2775 2700 
Q 2775 3350 2750 3675 
L 5700 3675 
z
M 2175 1650 
Q 2025 1975 1675 2525 
L 1675 300 
Q 1675 -300 1700 -550 
L 1175 -550 
Q 1200 -275 1200 250 
L 1200 2225 
Q 1125 2000 962 1712 
Q 800 1425 600 1050 
Q 450 1275 200 1425 
Q 600 1825 850 2425 
Q 1100 3025 1175 3425 
L 950 3425 
Q 700 3425 400 3400 
L 400 3825 
Q 675 3800 825 3800 
L 1200 3800 
L 1200 4350 
Q 1200 4775 1175 5150 
L 1700 5150 
Q 1675 4825 1675 4425 
L 1675 3800 
Q 2075 3800 2375 3825 
L 2375 3400 
Q 2050 3425 1675 3425 
L 1675 2575 
Q 1850 2675 2000 2775 
Q 2150 2525 2287 2325 
Q 2425 2125 2550 1925 
Q 2325 1775 2175 1650 
z
M 3375 4300 
L 3175 4300 
Q 2700 4300 2425 4275 
L 2425 4675 
Q 2700 4650 3150 4650 
L 3375 4650 
Q 3375 5000 3350 5225 
L 3825 5225 
Q 3800 5000 3800 4650 
L 4550 4650 
Q 4550 4975 4525 5200 
L 5025 5200 
Q 5000 4925 5000 4650 
L 5375 4650 
Q 5650 4650 5950 4675 
L 5950 4275 
Q 5650 4300 5375 4300 
L 5000 4300 
L 5000 3850 
L 4550 3850 
L 4550 4300 
L 3800 4300 
L 3800 3875 
L 3375 3875 
L 3375 4300 
z
M 5275 2075 
L 5275 2525 
L 3200 2525 
L 3200 2075 
L 5275 2075 
z
M 5275 2875 
L 5275 3325 
L 3200 3325 
L 3200 2875 
L 5275 2875 
z
" transform="scale(0.015625)"/>
      <path id="SimHei-578b" d="M 2625 1775 
Q 2650 2325 2650 2700 
L 2650 3000 
L 1825 3000 
Q 1725 2375 1425 2000 
Q 1125 1625 775 1425 
Q 650 1650 375 1900 
Q 850 2075 1062 2362 
Q 1275 2650 1350 3000 
Q 900 3000 375 2975 
L 375 3450 
Q 925 3425 1400 3425 
Q 1425 3950 1425 4475 
Q 1075 4475 700 4450 
L 700 4900 
Q 1050 4875 1525 4875 
L 3000 4875 
Q 3275 4875 3650 4900 
L 3650 4450 
Q 3325 4475 3125 4475 
L 3125 3425 
Q 3450 3425 3825 3450 
L 3825 2975 
Q 3450 3000 3125 3000 
L 3125 2675 
Q 3125 2225 3150 1775 
L 2625 1775 
z
M 3000 1175 
Q 3000 1375 2975 1725 
L 3500 1725 
Q 3475 1375 3475 1175 
L 4550 1175 
Q 5050 1175 5450 1200 
L 5450 725 
Q 4975 750 4550 750 
L 3475 750 
L 3475 -50 
L 5275 -50 
Q 5700 -50 6100 -25 
L 6100 -500 
Q 5725 -475 5300 -475 
L 1250 -475 
Q 775 -475 400 -500 
L 400 -25 
Q 775 -50 1250 -50 
L 3000 -50 
L 3000 750 
L 2025 750 
Q 1500 750 975 725 
L 1050 1200 
Q 1500 1175 2025 1175 
L 3000 1175 
z
M 5775 5200 
Q 5750 4775 5750 4325 
L 5750 2400 
Q 5775 1950 5612 1775 
Q 5450 1600 4900 1525 
Q 4825 1775 4675 2100 
Q 5175 2075 5237 2150 
Q 5300 2225 5300 2525 
L 5300 4325 
Q 5300 4775 5275 5200 
L 5775 5200 
z
M 4600 4750 
Q 4575 4450 4575 3975 
L 4575 3200 
Q 4575 2825 4600 2425 
L 4100 2425 
Q 4125 2825 4125 3200 
L 4125 3975 
Q 4125 4450 4100 4750 
L 4600 4750 
z
M 2650 3425 
L 2650 4475 
L 1875 4475 
Q 1850 3750 1850 3425 
L 2650 3425 
z
" transform="scale(0.015625)"/>
     </defs>
     <use xlink:href="#SimHei-6b63"/>
     <use xlink:href="#SimHei-6001" transform="translate(100 0)"/>
     <use xlink:href="#SimHei-7ebf" transform="translate(200 0)"/>
     <use xlink:href="#SimHei-6027" transform="translate(300 0)"/>
     <use xlink:href="#SimHei-6a21" transform="translate(400 0)"/>
     <use xlink:href="#SimHei-578b" transform="translate(500 0)"/>
    </g>
   </g>
   <g id="text_8">
    <!-- $\eta_i = x_i^\top \beta$ -->
    <g style="fill: #222222" transform="translate(41.846439 166.245487) scale(0.08 -0.08)">
     <use xlink:href="#DejaVuSans-Oblique-3b7" transform="translate(0 0.64375)"/>
     <use xlink:href="#DejaVuSans-Oblique-69" transform="translate(63.378906 -15.7625) scale(0.7)"/>
     <use xlink:href="#DejaVuSans-3d" transform="translate(105.043945 0.64375)"/>
     <use xlink:href="#DejaVuSans-Oblique-78" transform="translate(208.31543 0.64375)"/>
     <use xlink:href="#DejaVuSans-22a4" transform="translate(285.598958 38.989063) scale(0.7)"/>
     <use xlink:href="#DejaVuSans-Oblique-69" transform="translate(267.495117 -26.7) scale(0.7)"/>
     <use xlink:href="#DejaVuSans-Oblique-3b2" transform="translate(362.947591 0.64375)"/>
    </g>
    <!-- $\eta_i \in (-\infty, +\infty)$ -->
    <g style="fill: #222222" transform="translate(30.326439 175.903087) scale(0.08 -0.08)">
     <use xlink:href="#DejaVuSans-Oblique-3b7" transform="translate(0 0.125)"/>
     <use xlink:href="#DejaVuSans-Oblique-69" transform="translate(63.378906 -16.28125) scale(0.7)"/>
     <use xlink:href="#DejaVuSans-2208" transform="translate(105.043945 0.125)"/>
     <use xlink:href="#DejaVuSans-28" transform="translate(211.635742 0.125)"/>
     <use xlink:href="#DejaVuSans-2212" transform="translate(250.649414 0.125)"/>
     <use xlink:href="#DejaVuSans-221e" transform="translate(334.438477 0.125)"/>
     <use xlink:href="#DejaVuSans-2c" transform="translate(417.739258 0.125)"/>
     <use xlink:href="#DejaVuSans-2b" transform="translate(488.491211 0.125)"/>
     <use xlink:href="#DejaVuSans-221e" transform="translate(591.762695 0.125)"/>
     <use xlink:href="#DejaVuSans-29" transform="translate(675.063477 0.125)"/>
    </g>
   </g>
   <g id="patch_13">
    <path d="M 112.705171 168.394287 
Q 142.83122 168.394287 171.056611 168.394287 
" style="fill: none; stroke: #a54f04; stroke-width: 1.7; stroke-linecap: round"/>
    <path d="M 165.856611 165.794287 
L 171.056611 168.394287 
L 165.856611 170.994287 
" style="fill: none; stroke: #a54f04; stroke-width: 1.7; stroke-linecap: round"/>
   </g>
   <g id="text_9">
    <!-- Logistic -->
    <g style="fill: #a54f04" transform="translate(218.70322 161.961887) scale(0.08 -0.08)">
     <defs>
      <path id="SimHei-4c" d="M 2900 125 
L 300 125 
L 300 4400 
L 875 4400 
L 875 600 
L 2900 600 
L 2900 125 
z
" transform="scale(0.015625)"/>
      <path id="SimHei-6f" d="M 2925 1525 
Q 2925 875 2525 475 
Q 2125 75 1575 75 
Q 1025 75 625 475 
Q 225 875 225 1525 
Q 225 2175 625 2575 
Q 1025 2975 1575 2975 
Q 2125 2975 2525 2575 
Q 2925 2175 2925 1525 
z
M 2375 1525 
Q 2375 2025 2125 2275 
Q 1875 2525 1575 2525 
Q 1275 2525 1025 2275 
Q 775 2025 775 1525 
Q 775 1025 1025 775 
Q 1275 525 1575 525 
Q 1875 525 2125 775 
Q 2375 1025 2375 1525 
z
" transform="scale(0.015625)"/>
      <path id="SimHei-67" d="M 2975 2500 
Q 2800 2550 2637 2562 
Q 2475 2575 2300 2525 
Q 2375 2450 2425 2337 
Q 2475 2225 2475 2000 
Q 2475 1575 2187 1300 
Q 1900 1025 1475 1025 
Q 1375 1025 1212 1062 
Q 1050 1100 950 1150 
Q 875 1100 850 1050 
Q 825 1000 825 925 
Q 825 800 1000 737 
Q 1175 675 1625 675 
Q 2350 675 2612 475 
Q 2875 275 2875 -25 
Q 2875 -425 2487 -612 
Q 2100 -800 1575 -800 
Q 900 -800 575 -625 
Q 250 -450 250 -150 
Q 250 0 375 150 
Q 500 300 700 400 
Q 550 475 462 587 
Q 375 700 375 875 
Q 375 1025 487 1137 
Q 600 1250 750 1325 
Q 625 1450 550 1625 
Q 475 1800 475 2000 
Q 475 2425 762 2700 
Q 1050 2975 1475 2975 
Q 1700 2975 1862 2912 
Q 2025 2850 2150 2725 
Q 2350 2875 2550 2937 
Q 2750 3000 2975 2975 
L 2975 2500 
z
M 1975 2000 
Q 1975 2250 1850 2400 
Q 1725 2550 1475 2550 
Q 1225 2550 1100 2400 
Q 975 2250 975 2000 
Q 975 1750 1100 1600 
Q 1225 1450 1475 1450 
Q 1725 1450 1850 1600 
Q 1975 1750 1975 2000 
z
M 2400 -75 
Q 2400 25 2287 125 
Q 2175 225 1725 225 
Q 1625 225 1450 237 
Q 1275 250 1050 275 
Q 850 200 775 100 
Q 700 0 700 -100 
Q 700 -250 900 -350 
Q 1100 -450 1600 -450 
Q 2025 -450 2212 -337 
Q 2400 -225 2400 -75 
z
" transform="scale(0.015625)"/>
      <path id="SimHei-69" d="M 1800 3725 
L 1300 3725 
L 1300 4375 
L 1800 4375 
L 1800 3725 
z
M 1800 125 
L 1300 125 
L 1300 2925 
L 1800 2925 
L 1800 125 
z
" transform="scale(0.015625)"/>
      <path id="SimHei-73" d="M 2750 900 
Q 2750 500 2437 287 
Q 2125 75 1650 75 
Q 1050 75 725 312 
Q 400 550 400 1000 
L 900 1000 
Q 900 700 1112 600 
Q 1325 500 1625 500 
Q 1925 500 2075 612 
Q 2225 725 2225 900 
Q 2225 1025 2100 1150 
Q 1975 1275 1475 1350 
Q 900 1425 687 1637 
Q 475 1850 475 2200 
Q 475 2500 762 2737 
Q 1050 2975 1600 2975 
Q 2100 2975 2387 2750 
Q 2675 2525 2675 2150 
L 2175 2150 
Q 2175 2375 2012 2462 
Q 1850 2550 1600 2550 
Q 1275 2550 1137 2437 
Q 1000 2325 1000 2175 
Q 1000 2000 1125 1900 
Q 1250 1800 1650 1750 
Q 2300 1650 2525 1437 
Q 2750 1225 2750 900 
z
" transform="scale(0.015625)"/>
      <path id="SimHei-74" d="M 2750 200 
Q 2625 150 2462 112 
Q 2300 75 2025 75 
Q 1575 75 1300 325 
Q 1025 575 1025 1025 
L 1025 2525 
L 175 2525 
L 175 2925 
L 1025 2925 
L 1025 3900 
L 1525 3900 
L 1525 2925 
L 2550 2925 
L 2550 2525 
L 1525 2525 
L 1525 1000 
Q 1525 800 1625 662 
Q 1725 525 2000 525 
Q 2275 525 2450 575 
Q 2625 625 2750 700 
L 2750 200 
z
" transform="scale(0.015625)"/>
      <path id="SimHei-63" d="M 2850 1250 
Q 2850 725 2487 400 
Q 2125 75 1575 75 
Q 1025 75 625 462 
Q 225 850 225 1525 
Q 225 2200 625 2587 
Q 1025 2975 1575 2975 
Q 2125 2975 2450 2687 
Q 2775 2400 2775 2000 
L 2225 2000 
Q 2200 2300 2012 2412 
Q 1825 2525 1575 2525 
Q 1275 2525 1025 2287 
Q 775 2050 775 1525 
Q 775 1000 1025 762 
Q 1275 525 1575 525 
Q 1900 525 2100 700 
Q 2300 875 2300 1250 
L 2850 1250 
z
" transform="scale(0.015625)"/>
     </defs>
     <use xlink:href="#SimHei-4c"/>
     <use xlink:href="#SimHei-6f" transform="translate(50 0)"/>
     <use xlink:href="#SimHei-67" transform="translate(100 0)"/>
     <use xlink:href="#SimHei-69" transform="translate(150 0)"/>
     <use xlink:href="#SimHei-73" transform="translate(200 0)"/>
     <use xlink:href="#SimHei-74" transform="translate(250 0)"/>
     <use xlink:href="#SimHei-69" transform="translate(300 0)"/>
     <use xlink:href="#SimHei-63" transform="translate(350 0)"/>
    </g>
    <!-- $h(\eta) = \dfrac{e^{\eta}}{1 + e^{\eta}}$ -->
    <g style="fill: #a54f04" transform="translate(209.10322 174.966687) scale(0.08 -0.08)">
     <defs>
      <path id="DejaVuSans-Oblique-65" d="M 3078 2063 
Q 3088 2113 3092 2166 
Q 3097 2219 3097 2272 
Q 3097 2653 2873 2875 
Q 2650 3097 2266 3097 
Q 1838 3097 1509 2826 
Q 1181 2556 1013 2059 
L 3078 2063 
z
M 3578 1613 
L 903 1613 
Q 884 1494 878 1425 
Q 872 1356 872 1306 
Q 872 872 1139 634 
Q 1406 397 1894 397 
Q 2269 397 2603 481 
Q 2938 566 3225 728 
L 3116 159 
Q 2806 34 2476 -28 
Q 2147 -91 1806 -91 
Q 1078 -91 686 257 
Q 294 606 294 1247 
Q 294 1794 489 2264 
Q 684 2734 1063 3103 
Q 1306 3334 1642 3459 
Q 1978 3584 2356 3584 
Q 2950 3584 3301 3228 
Q 3653 2872 3653 2272 
Q 3653 2128 3634 1964 
Q 3616 1800 3578 1613 
z
" transform="scale(0.015625)"/>
      <path id="DejaVuSans-31" d="M 794 531 
L 1825 531 
L 1825 4091 
L 703 3866 
L 703 4441 
L 1819 4666 
L 2450 4666 
L 2450 531 
L 3481 531 
L 3481 0 
L 794 0 
L 794 531 
z
" transform="scale(0.015625)"/>
     </defs>
     <use xlink:href="#DejaVuSans-Oblique-68" transform="translate(0 0.3)"/>
     <use xlink:href="#DejaVuSans-28" transform="translate(63.378906 0.3)"/>
     <use xlink:href="#DejaVuSans-Oblique-3b7" transform="translate(102.392578 0.3)"/>
     <use xlink:href="#DejaVuSans-29" transform="translate(165.771484 0.3)"/>
     <use xlink:href="#DejaVuSans-3d" transform="translate(224.267578 0.3)"/>
     <use xlink:href="#DejaVuSans-Oblique-65" transform="translate(420.539062 45.51875)"/>
     <use xlink:href="#DejaVuSans-Oblique-3b7" transform="translate(486.712396 83.8) scale(0.7)"/>
     <use xlink:href="#DejaVuSans-31" transform="translate(327.539062 -64.634375)"/>
     <use xlink:href="#DejaVuSans-2b" transform="translate(410.644531 -64.634375)"/>
     <use xlink:href="#DejaVuSans-Oblique-65" transform="translate(513.916016 -64.634375)"/>
     <use xlink:href="#DejaVuSans-Oblique-3b7" transform="translate(580.089349 -26.353125) scale(0.7)"/>
     <path d="M 327.539062 19.096875 
L 327.539062 25.346875 
L 627.188958 25.346875 
L 627.188958 19.096875 
L 327.539062 19.096875 
z
"/>
    </g>
   </g>
   <g id="patch_14">
    <path d="M 296.449171 168.394287 
Q 323.089561 168.394287 347.829293 168.394287 
" style="fill: none; stroke: #a54f04; stroke-width: 1.7; stroke-linecap: round"/>
    <path d="M 342.629293 165.794287 
L 347.829293 168.394287 
L 342.629293 170.994287 
" style="fill: none; stroke: #a54f04; stroke-width: 1.7; stroke-linecap: round"/>
   </g>
   <g id="text_10">
    <!-- $p_i \in (0,1)$ -->
    <g style="fill: #222222" transform="translate(384.748683 166.167412) scale(0.08 -0.08)">
     <defs>
      <path id="DejaVuSans-Oblique-70" d="M 3175 2156 
Q 3175 2616 2975 2859 
Q 2775 3103 2400 3103 
Q 2144 3103 1911 2972 
Q 1678 2841 1497 2591 
Q 1319 2344 1212 1994 
Q 1106 1644 1106 1300 
Q 1106 863 1306 627 
Q 1506 391 1875 391 
Q 2147 391 2380 519 
Q 2613 647 2778 891 
Q 2956 1147 3065 1494 
Q 3175 1841 3175 2156 
z
M 1394 2969 
Q 1625 3272 1939 3428 
Q 2253 3584 2638 3584 
Q 3175 3584 3472 3232 
Q 3769 2881 3769 2247 
Q 3769 1728 3584 1258 
Q 3400 788 3053 416 
Q 2822 169 2531 39 
Q 2241 -91 1919 -91 
Q 1547 -91 1294 64 
Q 1041 219 916 525 
L 556 -1331 
L -19 -1331 
L 922 3500 
L 1497 3500 
L 1394 2969 
z
" transform="scale(0.015625)"/>
      <path id="DejaVuSans-30" d="M 2034 4250 
Q 1547 4250 1301 3770 
Q 1056 3291 1056 2328 
Q 1056 1369 1301 889 
Q 1547 409 2034 409 
Q 2525 409 2770 889 
Q 3016 1369 3016 2328 
Q 3016 3291 2770 3770 
Q 2525 4250 2034 4250 
z
M 2034 4750 
Q 2819 4750 3233 4129 
Q 3647 3509 3647 2328 
Q 3647 1150 3233 529 
Q 2819 -91 2034 -91 
Q 1250 -91 836 529 
Q 422 1150 422 2328 
Q 422 3509 836 4129 
Q 1250 4750 2034 4750 
z
" transform="scale(0.015625)"/>
     </defs>
     <use xlink:href="#DejaVuSans-Oblique-70" transform="translate(0 0.125)"/>
     <use xlink:href="#DejaVuSans-Oblique-69" transform="translate(63.476562 -16.28125) scale(0.7)"/>
     <use xlink:href="#DejaVuSans-2208" transform="translate(105.141602 0.125)"/>
     <use xlink:href="#DejaVuSans-28" transform="translate(211.733398 0.125)"/>
     <use xlink:href="#DejaVuSans-30" transform="translate(250.74707 0.125)"/>
     <use xlink:href="#DejaVuSans-2c" transform="translate(314.370117 0.125)"/>
     <use xlink:href="#DejaVuSans-31" transform="translate(365.639648 0.125)"/>
     <use xlink:href="#DejaVuSans-29" transform="translate(429.262695 0.125)"/>
    </g>
    <!-- Logit 概率 -->
    <g style="fill: #222222" transform="translate(383.508683 175.701162) scale(0.08 -0.08)">
     <defs>
      <path id="SimHei-20" transform="scale(0.015625)"/>
      <path id="SimHei-6982" d="M 3100 1150 
Q 3000 1350 2900 1475 
Q 3075 1600 3275 1725 
Q 3425 1475 3537 1262 
Q 3650 1050 3825 750 
Q 3675 625 3425 450 
Q 3375 600 3275 800 
Q 3075 625 2775 412 
Q 2475 200 2250 -50 
Q 2075 200 1925 350 
Q 2100 525 2125 875 
L 2125 4000 
Q 2125 4425 2100 4700 
L 3575 4700 
Q 3550 4325 3550 3475 
Q 3550 2650 3575 2200 
L 2550 2200 
L 2550 750 
Q 2725 850 3100 1150 
z
M 3325 -700 
Q 3200 -500 2950 -325 
Q 3400 -75 3850 637 
Q 4300 1350 4500 2350 
L 3800 2350 
Q 3825 2725 3825 3075 
Q 3825 3425 3800 3750 
L 4275 3750 
Q 4225 3550 4225 3250 
L 4225 2725 
L 4600 2725 
Q 4675 3500 4675 4400 
L 4425 4400 
Q 4075 4400 3800 4375 
L 3800 4800 
Q 4100 4775 4425 4775 
L 5150 4775 
Q 5625 4775 5850 4800 
L 5850 4375 
Q 5650 4400 5100 4400 
Q 5100 3700 5025 2725 
L 5375 2725 
Q 5600 2725 5925 2750 
L 5925 2325 
Q 5600 2350 5425 2350 
L 4950 2350 
Q 4625 1075 4287 462 
Q 3950 -150 3325 -700 
z
M 1000 4425 
Q 1000 4750 975 5050 
L 1475 5050 
Q 1425 4725 1425 4300 
L 1425 3800 
Q 1625 3800 1925 3825 
L 1925 3400 
Q 1600 3425 1425 3425 
L 1425 2650 
Q 1550 2725 1700 2825 
Q 1900 2350 2075 1875 
Q 1850 1825 1700 1700 
Q 1600 2050 1425 2450 
L 1425 300 
Q 1425 -125 1450 -575 
L 975 -575 
Q 1000 -50 1000 300 
L 1000 2025 
Q 825 1450 550 950 
Q 450 1150 175 1350 
Q 500 1825 662 2275 
Q 825 2725 950 3425 
Q 500 3425 350 3400 
L 350 3825 
Q 550 3800 1000 3800 
L 1000 4425 
z
M 5300 1725 
Q 5275 1050 5275 225 
Q 5275 -50 5412 -75 
Q 5550 -100 5625 -87 
Q 5700 -75 5737 37 
Q 5775 150 5775 475 
Q 6000 350 6250 300 
Q 6150 -225 6050 -350 
Q 5950 -475 5650 -475 
L 5350 -475 
Q 4800 -450 4850 50 
Q 4850 925 4850 1725 
L 5300 1725 
z
M 3125 2575 
L 3125 3275 
L 2550 3275 
L 2550 2575 
L 3125 2575 
z
M 3125 3650 
L 3125 4325 
L 2550 4325 
L 2550 3650 
L 3125 3650 
z
" transform="scale(0.015625)"/>
      <path id="SimHei-7387" d="M 3325 5150 
Q 3425 4900 3550 4525 
L 4800 4525 
Q 5250 4525 5800 4550 
L 5800 4125 
Q 5250 4175 4775 4175 
L 2800 4175 
Q 2975 4050 3300 3900 
Q 3075 3750 2875 3537 
Q 2675 3325 2475 3125 
L 3275 3125 
Q 3575 3425 3775 3775 
Q 4000 3600 4275 3425 
Q 3950 3250 3600 2875 
Q 3250 2500 2625 2000 
L 3850 2100 
Q 3725 2250 3600 2425 
Q 3750 2475 4000 2650 
Q 4250 2350 4700 1700 
Q 4475 1625 4225 1450 
Q 4175 1600 4025 1775 
Q 3700 1750 3425 1750 
L 3425 1050 
L 5150 1050 
Q 5675 1050 6100 1075 
L 6100 650 
Q 5700 675 5125 675 
L 3425 675 
L 3425 175 
Q 3425 -300 3450 -625 
L 2900 -625 
Q 2925 -300 2925 175 
L 2925 675 
L 1325 675 
Q 825 675 325 650 
L 325 1075 
Q 825 1050 1350 1050 
L 2925 1050 
L 2925 1700 
Q 2700 1675 2475 1637 
Q 2250 1600 2025 1525 
Q 1950 1775 1850 2000 
Q 2075 2025 2325 2200 
Q 2575 2375 2975 2800 
Q 2300 2725 2025 2625 
Q 1975 2875 1850 3175 
Q 2075 3175 2325 3487 
Q 2575 3800 2750 4175 
L 1700 4175 
Q 1150 4175 650 4125 
L 650 4550 
Q 1150 4525 1550 4525 
L 2975 4525 
Q 2900 4825 2800 5025 
Q 3025 5075 3325 5150 
z
M 1625 2575 
Q 1725 2400 1825 2200 
Q 1575 2050 1325 1862 
Q 1075 1675 800 1425 
Q 625 1675 475 1875 
Q 800 2025 1100 2212 
Q 1400 2400 1625 2575 
z
M 4850 2650 
Q 5125 2475 5337 2337 
Q 5550 2200 5875 1950 
Q 5675 1800 5500 1600 
Q 5300 1775 5062 1975 
Q 4825 2175 4575 2325 
Q 4725 2475 4850 2650 
z
M 5725 3525 
Q 5550 3450 5300 3262 
Q 5050 3075 4800 2825 
Q 4625 3050 4475 3175 
Q 4700 3325 4875 3487 
Q 5050 3650 5300 3925 
Q 5525 3700 5725 3525 
z
M 1050 3850 
Q 1425 3600 1775 3275 
Q 1575 3100 1425 2925 
Q 1075 3300 675 3525 
Q 875 3700 1050 3850 
z
" transform="scale(0.015625)"/>
     </defs>
     <use xlink:href="#SimHei-4c"/>
     <use xlink:href="#SimHei-6f" transform="translate(50 0)"/>
     <use xlink:href="#SimHei-67" transform="translate(100 0)"/>
     <use xlink:href="#SimHei-69" transform="translate(150 0)"/>
     <use xlink:href="#SimHei-74" transform="translate(200 0)"/>
     <use xlink:href="#SimHei-20" transform="translate(250 0)"/>
     <use xlink:href="#SimHei-6982" transform="translate(300 0)"/>
     <use xlink:href="#SimHei-7387" transform="translate(400 0)"/>
    </g>
   </g>
   <g id="text_11">
    <!-- Logit 模型 -->
    <g style="fill: #a54f04" transform="translate(461.11122 171.090772) scale(0.078 -0.078)">
     <use xlink:href="#SimHei-4c"/>
     <use xlink:href="#SimHei-6f" transform="translate(50 0)"/>
     <use xlink:href="#SimHei-67" transform="translate(100 0)"/>
     <use xlink:href="#SimHei-69" transform="translate(150 0)"/>
     <use xlink:href="#SimHei-74" transform="translate(200 0)"/>
     <use xlink:href="#SimHei-20" transform="translate(250 0)"/>
     <use xlink:href="#SimHei-6a21" transform="translate(300 0)"/>
     <use xlink:href="#SimHei-578b" transform="translate(400 0)"/>
    </g>
   </g>
   <g id="text_12">
    <!-- $\eta_i = x_i^\top \beta$ -->
    <g style="fill: #222222" transform="translate(41.846439 251.287729) scale(0.08 -0.08)">
     <use xlink:href="#DejaVuSans-Oblique-3b7" transform="translate(0 0.64375)"/>
     <use xlink:href="#DejaVuSans-Oblique-69" transform="translate(63.378906 -15.7625) scale(0.7)"/>
     <use xlink:href="#DejaVuSans-3d" transform="translate(105.043945 0.64375)"/>
     <use xlink:href="#DejaVuSans-Oblique-78" transform="translate(208.31543 0.64375)"/>
     <use xlink:href="#DejaVuSans-22a4" transform="translate(285.598958 38.989063) scale(0.7)"/>
     <use xlink:href="#DejaVuSans-Oblique-69" transform="translate(267.495117 -26.7) scale(0.7)"/>
     <use xlink:href="#DejaVuSans-Oblique-3b2" transform="translate(362.947591 0.64375)"/>
    </g>
    <!-- $\eta_i \in (-\infty, +\infty)$ -->
    <g style="fill: #222222" transform="translate(30.326439 260.945329) scale(0.08 -0.08)">
     <use xlink:href="#DejaVuSans-Oblique-3b7" transform="translate(0 0.125)"/>
     <use xlink:href="#DejaVuSans-Oblique-69" transform="translate(63.378906 -16.28125) scale(0.7)"/>
     <use xlink:href="#DejaVuSans-2208" transform="translate(105.043945 0.125)"/>
     <use xlink:href="#DejaVuSans-28" transform="translate(211.635742 0.125)"/>
     <use xlink:href="#DejaVuSans-2212" transform="translate(250.649414 0.125)"/>
     <use xlink:href="#DejaVuSans-221e" transform="translate(334.438477 0.125)"/>
     <use xlink:href="#DejaVuSans-2c" transform="translate(417.739258 0.125)"/>
     <use xlink:href="#DejaVuSans-2b" transform="translate(488.491211 0.125)"/>
     <use xlink:href="#DejaVuSans-221e" transform="translate(591.762695 0.125)"/>
     <use xlink:href="#DejaVuSans-29" transform="translate(675.063477 0.125)"/>
    </g>
   </g>
   <g id="patch_15">
    <path d="M 112.705171 253.436529 
Q 142.83122 253.436529 171.056611 253.436529 
" style="fill: none; stroke: #2ca02c; stroke-width: 1.7; stroke-linecap: round"/>
    <path d="M 165.856611 250.836529 
L 171.056611 253.436529 
L 165.856611 256.036529 
" style="fill: none; stroke: #2ca02c; stroke-width: 1.7; stroke-linecap: round"/>
   </g>
   <g id="text_13">
    <!-- 指数 -->
    <g style="fill: #2ca02c" transform="translate(226.70322 251.399504) scale(0.08 -0.08)">
     <defs>
      <path id="SimHei-6307" d="M 5625 2225 
Q 5600 1925 5600 1350 
L 5600 300 
Q 5600 -225 5625 -525 
L 5125 -525 
L 5125 -125 
L 3300 -125 
L 3300 -625 
L 2800 -625 
Q 2825 -300 2825 300 
L 2825 1350 
Q 2825 1925 2800 2225 
L 5625 2225 
z
M 500 25 
Q 1075 -25 1175 37 
Q 1275 100 1275 275 
L 1275 1675 
Q 1050 1600 925 1537 
Q 800 1475 475 1275 
Q 400 1525 225 1800 
Q 625 1900 825 1975 
Q 1025 2050 1275 2125 
L 1275 3300 
L 1100 3300 
Q 775 3300 450 3275 
L 450 3725 
Q 750 3700 1100 3700 
L 1275 3700 
L 1275 4450 
Q 1275 4800 1250 5125 
L 1775 5125 
Q 1750 4850 1750 4450 
L 1750 3700 
Q 2075 3700 2425 3725 
L 2425 3275 
Q 2050 3300 1750 3300 
L 1750 2325 
Q 1850 2350 2025 2425 
L 2375 2575 
Q 2350 2300 2375 2100 
Q 2225 2050 2062 1987 
Q 1900 1925 1750 1850 
L 1750 100 
Q 1725 -200 1575 -337 
Q 1425 -475 675 -525 
Q 625 -250 500 25 
z
M 3325 5025 
Q 3300 4675 3300 4125 
Q 4125 4275 4512 4412 
Q 4900 4550 5225 4725 
Q 5325 4475 5575 4250 
Q 5450 4225 5237 4175 
Q 5025 4125 4725 4050 
Q 4425 3975 4037 3887 
Q 3650 3800 3300 3725 
L 3300 3175 
Q 3275 2925 3700 2925 
L 4925 2925 
Q 5300 2925 5387 3087 
Q 5475 3250 5550 3600 
Q 5750 3400 6050 3300 
Q 5825 2725 5700 2637 
Q 5575 2550 5275 2525 
L 3350 2525 
Q 3050 2525 2937 2687 
Q 2825 2850 2825 2975 
L 2825 4125 
Q 2825 4775 2800 5025 
L 3325 5025 
z
M 5125 275 
L 5125 875 
L 3300 875 
L 3300 275 
L 5125 275 
z
M 5125 1250 
L 5125 1825 
L 3300 1825 
L 3300 1250 
L 5125 1250 
z
" transform="scale(0.015625)"/>
     </defs>
     <use xlink:href="#SimHei-6307"/>
     <use xlink:href="#SimHei-6570" transform="translate(100 0)"/>
    </g>
    <!-- $h(\eta) = e^{\eta}$ -->
    <g style="fill: #2ca02c" transform="translate(217.06322 260.012304) scale(0.08 -0.08)">
     <use xlink:href="#DejaVuSans-Oblique-68" transform="translate(0 0.51875)"/>
     <use xlink:href="#DejaVuSans-28" transform="translate(63.378906 0.51875)"/>
     <use xlink:href="#DejaVuSans-Oblique-3b7" transform="translate(102.392578 0.51875)"/>
     <use xlink:href="#DejaVuSans-29" transform="translate(165.771484 0.51875)"/>
     <use xlink:href="#DejaVuSans-3d" transform="translate(224.267578 0.51875)"/>
     <use xlink:href="#DejaVuSans-Oblique-65" transform="translate(327.539062 0.51875)"/>
     <use xlink:href="#DejaVuSans-Oblique-3b7" transform="translate(393.712396 38.8) scale(0.7)"/>
    </g>
   </g>
   <g id="patch_16">
    <path d="M 296.449171 253.436529 
Q 323.089561 253.436529 347.829293 253.436529 
" style="fill: none; stroke: #2ca02c; stroke-width: 1.7; stroke-linecap: round"/>
    <path d="M 342.629293 250.836529 
L 347.829293 253.436529 
L 342.629293 256.036529 
" style="fill: none; stroke: #2ca02c; stroke-width: 1.7; stroke-linecap: round"/>
   </g>
   <g id="text_14">
    <!-- $\lambda_i &gt; 0$ -->
    <g style="fill: #222222" transform="translate(392.788683 251.388717) scale(0.08 -0.08)">
     <defs>
      <path id="DejaVuSans-Oblique-3bb" d="M 2350 4316 
L 3125 0 
L 2516 0 
L 2038 2588 
L 328 0 
L -281 0 
L 1903 3356 
L 1794 3975 
Q 1725 4369 1391 4369 
L 1091 4369 
L 1184 4863 
L 1550 4856 
Q 2253 4847 2350 4316 
z
" transform="scale(0.015625)"/>
      <path id="DejaVuSans-3e" d="M 678 3150 
L 678 3719 
L 4684 2266 
L 4684 1747 
L 678 294 
L 678 863 
L 3897 2003 
L 678 3150 
z
" transform="scale(0.015625)"/>
     </defs>
     <use xlink:href="#DejaVuSans-Oblique-3bb" transform="translate(0 0.015625)"/>
     <use xlink:href="#DejaVuSans-Oblique-69" transform="translate(59.179688 -16.390625) scale(0.7)"/>
     <use xlink:href="#DejaVuSans-3e" transform="translate(100.844727 0.015625)"/>
     <use xlink:href="#DejaVuSans-30" transform="translate(204.116211 0.015625)"/>
    </g>
    <!-- Poisson 强度 -->
    <g style="fill: #222222" transform="translate(379.508683 260.564342) scale(0.08 -0.08)">
     <defs>
      <path id="SimHei-50" d="M 2950 3100 
Q 2950 2500 2600 2150 
Q 2250 1800 1625 1800 
L 900 1800 
L 900 125 
L 325 125 
L 325 4400 
L 1625 4400 
Q 2250 4400 2600 4050 
Q 2950 3700 2950 3100 
z
M 2375 3100 
Q 2375 3575 2150 3750 
Q 1925 3925 1475 3925 
L 900 3925 
L 900 2275 
L 1475 2275 
Q 1925 2275 2150 2450 
Q 2375 2625 2375 3100 
z
" transform="scale(0.015625)"/>
      <path id="SimHei-6e" d="M 2800 125 
L 2300 125 
L 2300 1925 
Q 2300 2225 2150 2400 
Q 2000 2575 1750 2575 
Q 1425 2575 1137 2237 
Q 850 1900 850 1400 
L 850 125 
L 350 125 
L 350 2925 
L 850 2925 
L 850 2400 
Q 1050 2675 1287 2825 
Q 1525 2975 1900 2975 
Q 2350 2975 2575 2725 
Q 2800 2475 2800 2100 
L 2800 125 
z
" transform="scale(0.015625)"/>
      <path id="SimHei-5f3a" d="M 2350 25 
Q 3100 75 3950 225 
L 3950 1200 
L 3100 1200 
L 3100 975 
L 2625 975 
Q 2650 1725 2650 2050 
L 2650 2875 
L 3950 2875 
L 3950 3500 
L 2850 3500 
Q 2875 3900 2875 4275 
Q 2875 4675 2850 5025 
L 5525 5025 
Q 5500 4675 5500 4275 
Q 5500 3900 5525 3500 
L 4400 3500 
L 4400 2875 
L 5750 2875 
Q 5725 2575 5725 2075 
Q 5725 1575 5750 1200 
L 4400 1200 
L 4400 275 
L 5250 425 
Q 5150 575 5050 750 
Q 5300 825 5475 925 
Q 5925 200 6175 -250 
Q 5925 -350 5725 -500 
Q 5625 -250 5425 100 
Q 5125 50 4225 -137 
Q 3325 -325 2600 -525 
Q 2525 -200 2350 25 
z
M 600 -25 
Q 1250 -25 1400 50 
Q 1550 125 1575 325 
L 1675 1850 
L 500 1850 
Q 550 2350 562 2762 
Q 575 3175 575 3575 
L 1800 3575 
L 1800 4550 
L 1275 4550 
Q 825 4550 425 4525 
L 425 4950 
Q 850 4925 1275 4925 
L 2275 4925 
Q 2250 4525 2250 4075 
Q 2250 3650 2275 3200 
L 1075 3200 
L 1025 2225 
L 2175 2225 
Q 2125 1775 2100 1425 
L 2025 150 
Q 1975 -250 1637 -387 
Q 1300 -525 850 -600 
Q 775 -275 600 -25 
z
M 5050 3875 
L 5050 4650 
L 3325 4650 
L 3325 3875 
L 5050 3875 
z
M 3950 1575 
L 3950 2500 
L 3100 2500 
L 3100 1575 
L 3950 1575 
z
M 5250 1575 
L 5250 2500 
L 4400 2500 
L 4400 1575 
L 5250 1575 
z
" transform="scale(0.015625)"/>
      <path id="SimHei-5ea6" d="M 1750 1675 
Q 2450 1650 2875 1650 
L 5200 1650 
Q 4975 1250 4650 850 
Q 4325 450 4025 200 
Q 4350 50 4950 -50 
Q 5550 -150 6100 -150 
Q 5950 -300 5825 -650 
Q 5100 -550 4550 -412 
Q 4000 -275 3625 -100 
Q 3100 -325 2587 -462 
Q 2075 -600 1525 -675 
Q 1450 -475 1225 -250 
Q 1675 -250 2250 -125 
Q 2825 0 3250 200 
Q 2825 550 2400 1275 
L 1750 1250 
L 1750 1675 
z
M 2975 5075 
Q 3250 5150 3475 5250 
Q 3625 4975 3775 4525 
L 4700 4525 
Q 4975 4525 5700 4550 
L 5700 4100 
Q 5000 4125 4650 4125 
L 1375 4125 
Q 1375 3000 1350 2312 
Q 1325 1625 1212 950 
Q 1100 275 725 -525 
Q 500 -375 250 -300 
Q 650 400 762 1075 
Q 875 1750 887 2800 
Q 900 3850 875 4525 
L 3200 4525 
Q 3100 4850 2975 5075 
z
M 2475 3300 
Q 2475 3700 2450 3925 
L 2975 3925 
Q 2950 3725 2950 3300 
L 4300 3300 
Q 4300 3700 4275 3950 
L 4800 3950 
Q 4775 3650 4775 3300 
Q 5325 3300 5725 3325 
L 5725 2900 
Q 5350 2925 4775 2925 
Q 4775 2250 4800 1950 
L 2450 1950 
Q 2475 2350 2475 2925 
Q 2175 2925 1600 2900 
L 1600 3325 
Q 2175 3300 2475 3300 
z
M 4300 2350 
L 4300 2925 
L 2950 2925 
L 2950 2350 
L 4300 2350 
z
M 2875 1275 
Q 3200 775 3650 425 
Q 4025 700 4425 1275 
L 2900 1275 
L 2875 1275 
z
" transform="scale(0.015625)"/>
     </defs>
     <use xlink:href="#SimHei-50"/>
     <use xlink:href="#SimHei-6f" transform="translate(50 0)"/>
     <use xlink:href="#SimHei-69" transform="translate(100 0)"/>
     <use xlink:href="#SimHei-73" transform="translate(150 0)"/>
     <use xlink:href="#SimHei-73" transform="translate(200 0)"/>
     <use xlink:href="#SimHei-6f" transform="translate(250 0)"/>
     <use xlink:href="#SimHei-6e" transform="translate(300 0)"/>
     <use xlink:href="#SimHei-20" transform="translate(350 0)"/>
     <use xlink:href="#SimHei-5f3a" transform="translate(400 0)"/>
     <use xlink:href="#SimHei-5ea6" transform="translate(500 0)"/>
    </g>
   </g>
   <g id="text_15">
    <!-- Poisson 模型 -->
    <g style="fill: #2ca02c" transform="translate(453.31122 256.026373) scale(0.078 -0.078)">
     <use xlink:href="#SimHei-50"/>
     <use xlink:href="#SimHei-6f" transform="translate(50 0)"/>
     <use xlink:href="#SimHei-69" transform="translate(100 0)"/>
     <use xlink:href="#SimHei-73" transform="translate(150 0)"/>
     <use xlink:href="#SimHei-73" transform="translate(200 0)"/>
     <use xlink:href="#SimHei-6f" transform="translate(250 0)"/>
     <use xlink:href="#SimHei-6e" transform="translate(300 0)"/>
     <use xlink:href="#SimHei-20" transform="translate(350 0)"/>
     <use xlink:href="#SimHei-6a21" transform="translate(400 0)"/>
     <use xlink:href="#SimHei-578b" transform="translate(500 0)"/>
    </g>
   </g>
   <g id="text_16">
    <!-- 图：参数化变换链——连接函数的作用 -->
    <g transform="translate(163.86 11.054531) scale(0.11 -0.11)">
     <defs>
      <path id="SimHei-56fe" d="M 5800 4975 
Q 5775 4350 5775 3600 
L 5775 925 
Q 5775 150 5800 -600 
L 5300 -600 
L 5300 -275 
L 1125 -275 
L 1125 -650 
L 625 -650 
Q 650 125 650 950 
L 650 3600 
Q 650 4325 625 4975 
L 5800 4975 
z
M 5300 150 
L 5300 4575 
L 1125 4575 
L 1125 150 
L 5300 150 
z
M 3225 4250 
Q 3075 4100 2950 3925 
L 4625 3925 
Q 4525 3700 4300 3375 
Q 4075 3050 3600 2600 
Q 4350 2225 5075 2150 
Q 4900 1925 4775 1675 
Q 3850 1950 3225 2350 
Q 2500 1875 1675 1650 
Q 1600 1875 1400 2075 
Q 2200 2200 2875 2600 
Q 2525 2925 2375 3150 
Q 2150 2900 1900 2650 
Q 1725 2850 1525 2950 
Q 1950 3300 2250 3737 
Q 2550 4175 2675 4475 
Q 2925 4350 3225 4250 
z
M 2450 1275 
Q 3550 950 4100 725 
Q 3975 525 3850 300 
Q 2825 725 2275 850 
Q 2375 1050 2450 1275 
z
M 2925 2050 
Q 3775 1700 4075 1600 
Q 3950 1400 3850 1150 
Q 3000 1550 2700 1650 
Q 2825 1825 2925 2050 
z
M 2625 3450 
Q 3000 3025 3275 2850 
Q 3600 3100 3875 3525 
L 2675 3525 
L 2625 3450 
z
" transform="scale(0.015625)"/>
      <path id="SimHei-ff1a" d="M 1200 2425 
L 2025 2425 
L 2025 1600 
L 1200 1600 
L 1200 2425 
z
M 1200 825 
L 2025 825 
L 2025 0 
L 1200 0 
L 1200 825 
z
" transform="scale(0.015625)"/>
      <path id="SimHei-5316" d="M 3925 5025 
Q 3900 4900 3900 4400 
L 3900 2625 
Q 4375 3025 4775 3450 
Q 5175 3875 5400 4300 
Q 5600 4100 5900 3925 
Q 5700 3700 5225 3212 
Q 4750 2725 4487 2512 
Q 4225 2300 3900 2025 
L 3900 450 
Q 3900 50 4225 50 
L 5200 50 
Q 5400 75 5462 262 
Q 5525 450 5575 850 
Q 5800 650 6150 600 
Q 6000 -100 5825 -250 
Q 5650 -400 5350 -400 
L 3950 -400 
Q 3425 -400 3400 200 
L 3400 1675 
Q 3225 1525 2962 1350 
Q 2700 1175 2375 975 
Q 2225 1225 2025 1400 
Q 2350 1550 2737 1787 
Q 3125 2025 3400 2250 
L 3400 4500 
Q 3400 4800 3375 5025 
L 3925 5025 
z
M 2400 4850 
Q 2175 4550 2075 4337 
Q 1975 4125 1825 3775 
L 1825 675 
Q 1825 -75 1850 -550 
L 1325 -550 
Q 1350 -125 1350 650 
L 1350 3050 
Q 1125 2725 962 2525 
Q 800 2325 675 2175 
Q 500 2375 275 2525 
Q 625 2850 875 3212 
Q 1125 3575 1312 3912 
Q 1500 4250 1625 4575 
Q 1750 4900 1825 5100 
Q 1975 4975 2400 4850 
z
" transform="scale(0.015625)"/>
      <path id="SimHei-53d8" d="M 5200 1975 
Q 4950 1600 4537 1137 
Q 4125 675 3675 375 
Q 3925 225 4600 87 
Q 5275 -50 6000 -75 
Q 5700 -400 5650 -625 
Q 4850 -525 4212 -312 
Q 3575 -100 3225 125 
Q 2800 -125 2150 -325 
Q 1500 -525 700 -675 
Q 600 -425 400 -175 
Q 950 -150 1687 12 
Q 2425 175 2825 375 
Q 2275 775 1675 1575 
Q 1350 1575 1000 1550 
L 1000 2000 
Q 1450 1975 2075 1975 
L 5200 1975 
z
M 3225 5275 
Q 3400 4900 3550 4475 
L 4675 4475 
Q 5400 4475 5975 4500 
L 5975 4025 
Q 5375 4050 4725 4050 
L 4125 4050 
L 4125 2950 
Q 4125 2550 4150 2150 
L 3600 2150 
Q 3625 2550 3625 2950 
L 3625 4050 
L 2750 4050 
L 2750 2950 
Q 2750 2675 2775 2150 
L 2225 2150 
Q 2250 2675 2250 2950 
L 2250 4050 
L 1700 4050 
Q 975 4050 425 4025 
L 425 4500 
Q 950 4475 1700 4475 
L 2975 4475 
Q 2925 4675 2700 5125 
Q 2950 5150 3225 5275 
z
M 2200 1575 
Q 2650 975 3250 600 
Q 3850 1000 4275 1575 
L 2200 1575 
z
M 4850 3750 
Q 5375 3275 5950 2675 
Q 5750 2525 5500 2300 
Q 5075 2800 4450 3400 
Q 4675 3575 4850 3750 
z
M 1825 3500 
Q 1700 3375 1425 3025 
Q 1150 2675 825 2300 
Q 575 2475 375 2600 
Q 975 3150 1300 3825 
Q 1525 3650 1825 3500 
z
" transform="scale(0.015625)"/>
      <path id="SimHei-6362" d="M 1225 4550 
Q 1225 4900 1200 5200 
L 1700 5200 
Q 1650 4925 1650 4550 
L 1650 3800 
Q 1925 3800 2300 3825 
L 2300 3425 
Q 2725 3850 3000 4300 
Q 3275 4750 3425 5200 
Q 3625 5075 3950 4950 
Q 3800 4800 3600 4450 
L 5325 4450 
Q 4825 3750 4575 3325 
L 5600 3325 
L 5600 1650 
Q 5875 1650 6150 1675 
L 6150 1250 
Q 5725 1275 5450 1275 
L 4500 1275 
Q 4725 700 5237 325 
Q 5750 -50 6150 -150 
Q 5875 -375 5775 -625 
Q 5375 -450 4925 -37 
Q 4475 375 4150 1000 
Q 3775 50 2250 -625 
Q 2175 -425 1925 -200 
Q 2650 0 3137 425 
Q 3625 850 3775 1275 
L 2650 1275 
Q 2500 1275 2100 1250 
L 2100 1675 
Q 2475 1650 2675 1650 
L 2675 2675 
Q 2675 3050 2650 3150 
L 2550 3025 
Q 2400 3200 2175 3325 
L 2275 3400 
Q 1925 3425 1650 3425 
L 1650 2350 
Q 1925 2475 2200 2650 
Q 2225 2450 2275 2225 
Q 2025 2100 1650 1900 
L 1650 50 
Q 1650 -275 1462 -400 
Q 1275 -525 725 -600 
Q 700 -375 525 -75 
Q 1050 -100 1137 -50 
Q 1225 0 1225 150 
L 1225 1700 
Q 800 1475 525 1300 
Q 425 1525 250 1750 
Q 875 1975 1225 2150 
L 1225 3425 
Q 675 3425 300 3400 
L 300 3825 
Q 650 3800 1225 3800 
L 1225 4550 
z
M 5175 1650 
L 5175 2950 
L 4375 2950 
Q 4375 2300 4325 1650 
L 5175 1650 
z
M 3850 1650 
Q 3900 2300 3925 2950 
L 3100 2950 
L 3100 1650 
L 3850 1650 
z
M 3400 4100 
Q 3075 3625 2800 3325 
L 4100 3325 
L 4550 4100 
L 3400 4100 
z
" transform="scale(0.015625)"/>
      <path id="SimHei-94fe" d="M 4125 4400 
Q 4275 4675 4375 5250 
L 4975 5050 
Q 4825 4825 4625 4400 
L 5325 4400 
Q 5700 4400 6075 4425 
L 6075 4000 
Q 5700 4025 5325 4025 
L 4525 4025 
Q 4175 3200 4000 2725 
L 4600 2725 
Q 4600 3025 4575 3400 
L 5075 3400 
Q 5050 2900 5050 2725 
L 5300 2725 
Q 5600 2725 5950 2750 
L 5950 2325 
Q 5600 2350 5325 2350 
L 5050 2350 
L 5050 1525 
L 5350 1525 
Q 5700 1525 6025 1550 
L 6025 1125 
Q 5725 1150 5350 1150 
L 5050 1150 
Q 5050 775 5075 200 
L 4575 200 
Q 4600 775 4600 1150 
L 4200 1150 
Q 3850 1150 3500 1125 
L 3500 1550 
Q 3850 1525 4200 1525 
L 4600 1525 
L 4600 2350 
L 4225 2350 
Q 3750 2350 3550 2250 
Q 3475 2475 3375 2725 
Q 3575 2825 3750 3225 
Q 3925 3625 4050 4025 
Q 3875 4025 3475 4000 
L 3475 4425 
Q 3800 4400 4125 4400 
z
M 1700 3175 
Q 1875 3175 2075 3200 
L 2075 2750 
Q 1675 2775 1525 2775 
L 1525 2075 
Q 1825 2075 2175 2100 
L 2175 1625 
Q 1825 1675 1525 1675 
L 1525 450 
Q 2025 850 2200 1050 
Q 2250 825 2400 600 
Q 2150 450 1850 187 
Q 1550 -75 1225 -400 
Q 1075 -225 875 -50 
Q 1050 125 1100 575 
L 1100 1675 
Q 775 1675 375 1650 
L 375 2100 
Q 775 2075 1100 2075 
L 1100 2775 
Q 950 2775 725 2750 
L 725 3150 
L 525 2900 
Q 400 3075 200 3275 
Q 575 3650 787 4125 
Q 1000 4600 1125 5150 
Q 1525 4975 1750 4925 
Q 1575 4775 1487 4575 
Q 1400 4375 1300 4200 
Q 1725 4200 2200 4225 
L 2200 3775 
Q 1675 3800 1150 3800 
Q 1000 3550 775 3225 
Q 950 3225 1125 3175 
L 1700 3175 
z
M 2325 2975 
Q 2550 2950 2750 2950 
L 3225 2950 
Q 3175 2550 3175 2250 
L 3175 550 
Q 3375 350 3762 225 
Q 4150 100 4600 62 
Q 5050 25 6200 125 
Q 6025 -150 5975 -450 
Q 5150 -450 4662 -400 
Q 4175 -350 3900 -275 
Q 3625 -200 3275 37 
Q 2925 275 2737 75 
Q 2550 -125 2350 -350 
Q 2175 -75 2000 100 
Q 2500 425 2750 550 
L 2750 2550 
L 2650 2550 
Q 2525 2550 2325 2500 
L 2325 2975 
z
M 2875 4850 
Q 3075 4425 3225 3850 
Q 3000 3775 2775 3650 
Q 2625 4225 2425 4700 
Q 2600 4775 2875 4850 
z
" transform="scale(0.015625)"/>
      <path id="SimHei-2014" d="M 6375 2500 
L 6375 2125 
L 0 2125 
L 0 2500 
L 6375 2500 
z
" transform="scale(0.015625)"/>
      <path id="SimHei-7684" d="M 2100 4975 
Q 1975 4750 1750 3950 
L 2875 3950 
Q 2850 3525 2850 2875 
L 2850 675 
Q 2850 300 2875 -400 
L 2375 -400 
L 2375 100 
L 1100 100 
L 1100 -450 
L 600 -450 
Q 625 350 625 550 
L 625 2850 
Q 625 3525 600 3950 
L 1325 3950 
Q 1450 4525 1525 5150 
Q 1875 5025 2100 4975 
z
M 5825 3075 
Q 5800 1550 5700 175 
Q 5650 -275 5225 -425 
Q 4800 -575 4275 -625 
Q 4250 -350 4050 -50 
Q 4550 -75 4837 -25 
Q 5125 25 5200 200 
Q 5275 375 5312 1225 
Q 5350 2075 5375 3600 
L 3925 3600 
Q 3725 3125 3350 2475 
Q 3175 2650 2925 2750 
Q 3150 3050 3350 3475 
Q 3550 3900 3700 4400 
Q 3850 4900 3875 5175 
Q 4225 5025 4475 4950 
Q 4350 4750 4262 4512 
Q 4175 4275 4075 4050 
L 5850 4050 
Q 5825 3525 5825 3075 
z
M 2375 525 
L 2375 1850 
L 1100 1850 
L 1100 525 
L 2375 525 
z
M 2375 2275 
L 2375 3525 
L 1100 3525 
L 1100 2275 
L 2375 2275 
z
M 4350 2050 
Q 4500 1750 4700 1275 
Q 4525 1200 4225 1025 
Q 4050 1500 3900 1837 
Q 3750 2175 3600 2400 
Q 3775 2500 4050 2650 
L 4350 2050 
z
" transform="scale(0.015625)"/>
      <path id="SimHei-4f5c" d="M 4075 5050 
Q 3825 4850 3525 4100 
L 5175 4100 
Q 5725 4100 6050 4125 
L 6050 3675 
Q 5725 3700 5175 3700 
L 4025 3700 
L 4025 2725 
L 5050 2725 
Q 5475 2725 5750 2750 
L 5750 2275 
Q 5425 2300 5050 2300 
L 4025 2300 
L 4025 1175 
L 5100 1175 
Q 5600 1175 5925 1200 
L 5925 725 
Q 5600 750 5125 750 
L 4025 750 
L 4025 275 
Q 4025 -425 4050 -675 
L 3525 -675 
Q 3550 -400 3550 75 
L 3550 3700 
L 3300 3700 
Q 2925 3050 2575 2575 
Q 2300 2825 2100 2900 
Q 2450 3250 2825 3900 
Q 3200 4550 3425 5300 
Q 3800 5125 4075 5050 
z
M 2325 4950 
Q 2100 4775 1750 3875 
L 1750 675 
Q 1750 -125 1775 -600 
L 1200 -600 
Q 1225 -150 1225 650 
L 1225 3000 
Q 875 2425 550 2025 
Q 350 2325 200 2450 
Q 525 2800 987 3612 
Q 1450 4425 1675 5275 
Q 1950 5100 2325 4950 
z
" transform="scale(0.015625)"/>
      <path id="SimHei-7528" d="M 350 -300 
Q 650 125 812 600 
Q 975 1075 1012 1550 
Q 1050 2025 1050 3150 
Q 1050 4275 1025 4950 
L 5500 4950 
Q 5475 4225 5475 3650 
L 5475 375 
Q 5475 -150 5175 -275 
Q 4875 -400 4475 -450 
Q 4425 -75 4300 125 
Q 4800 100 4887 162 
Q 4975 225 4975 400 
L 4975 1650 
L 3450 1650 
L 3450 675 
Q 3450 125 3475 -325 
L 2925 -325 
Q 2950 100 2950 650 
L 2950 1650 
L 1525 1650 
Q 1425 575 850 -525 
Q 575 -350 350 -300 
z
M 4975 3475 
L 4975 4550 
L 3450 4550 
L 3450 3475 
L 4975 3475 
z
M 4975 2050 
L 4975 3100 
L 3450 3100 
L 3450 2050 
L 4975 2050 
z
M 2950 3475 
L 2950 4550 
L 1525 4550 
L 1525 3475 
L 2950 3475 
z
M 2950 2050 
L 2950 3100 
L 1525 3100 
L 1525 2050 
L 2950 2050 
z
" transform="scale(0.015625)"/>
     </defs>
     <use xlink:href="#SimHei-56fe"/>
     <use xlink:href="#SimHei-ff1a" transform="translate(100 0)"/>
     <use xlink:href="#SimHei-53c2" transform="translate(200 0)"/>
     <use xlink:href="#SimHei-6570" transform="translate(300 0)"/>
     <use xlink:href="#SimHei-5316" transform="translate(400 0)"/>
     <use xlink:href="#SimHei-53d8" transform="translate(500 0)"/>
     <use xlink:href="#SimHei-6362" transform="translate(600 0)"/>
     <use xlink:href="#SimHei-94fe" transform="translate(700 0)"/>
     <use xlink:href="#SimHei-2014" transform="translate(800 0)"/>
     <use xlink:href="#SimHei-2014" transform="translate(900 0)"/>
     <use xlink:href="#SimHei-8fde" transform="translate(1000 0)"/>
     <use xlink:href="#SimHei-63a5" transform="translate(1100 0)"/>
     <use xlink:href="#SimHei-51fd" transform="translate(1200 0)"/>
     <use xlink:href="#SimHei-6570" transform="translate(1300 0)"/>
     <use xlink:href="#SimHei-7684" transform="translate(1400 0)"/>
     <use xlink:href="#SimHei-4f5c" transform="translate(1500 0)"/>
     <use xlink:href="#SimHei-7528" transform="translate(1600 0)"/>
    </g>
   </g>
  </g>
 </g>
 <defs>
  <clipPath id="pd5350afb61">
   <rect x="2.16" y="12.483511" width="510.4" height="304.7347"/>
  </clipPath>
 </defs>
</svg>
